<?xml version="1.0" encoding="UTF-8" standalone="no"?>
<!DOCTYPE svg PUBLIC "-//W3C//DTD SVG 1.1//EN" "http://www.w3.org/Graphics/SVG/1.1/DTD/svg11.dtd">
<!-- 由 Microsoft Visio, SVG Export 產生 A00102.svg 頁-1 -->
<svg xmlns="http://www.w3.org/2000/svg" xmlns:xlink="http://www.w3.org/1999/xlink" xmlns:ev="http://www.w3.org/2001/xml-events"
		xmlns:v="http://schemas.microsoft.com/visio/2003/SVGExtensions/" width="7.7354in" height="1.21178in"
		viewBox="0 0 556.949 87.248" xml:space="preserve" color-interpolation-filters="sRGB" class="st10">
	<v:documentProperties v:langID="1028" v:viewMarkup="false"/>

	<style type="text/css">
	<![CDATA[
		.st1 {fill:none;stroke:none;stroke-linecap:butt;stroke-width:0.75}
		.st2 {fill:#000000;font-family:新細明體;font-size:0.833336em}
		.st3 {font-family:Times New Roman;font-size:1em}
		.st4 {font-size:1em}
		.st5 {fill:#000000;font-family:Times New Roman;font-size:0.833336em}
		.st6 {font-family:新細明體;font-size:1em}
		.st7 {fill:none}
		.st8 {stroke:#040000;stroke-linecap:round;stroke-linejoin:round;stroke-width:0.705463}
		.st9 {stroke:#040000;stroke-dasharray:0,1.41093;stroke-linecap:round;stroke-linejoin:round;stroke-width:0.470309}
		.st10 {fill:none;fill-rule:evenodd;font-size:12px;overflow:visible;stroke-linecap:square;stroke-miterlimit:3}
	]]>
	</style>

	<g v:mID="0" v:index="1" v:groupContext="foregroundPage">
		<title>頁-1</title>
		<v:pageProperties v:drawingScale="0.0393701" v:pageScale="0.0393701" v:drawingUnits="24" v:shadowOffsetX="9"
				v:shadowOffsetY="-9"/>
		<g id="shape46-1" v:mID="46" v:groupContext="shape" transform="translate(50.3343,-42.561)">
			<title>工作表.46</title>
			<desc>一、世界悉檀—因緣有無別性。如車、如人不如二頭、三手。世間實相有 二、為人悉檀—觀人心行而為說法於一事中或遮或許。經說似違...</desc>
			<v:textBlock v:margins="rect(0,0,0,0)" v:tabSpace="42.5197"/>
			<v:textRect cx="200.491" cy="65.2795" width="400.99" height="43.937"/>
			<rect x="0" y="43.311" width="400.983" height="43.937" class="st1"/>
			<text x="-0" y="54.38" class="st2" v:langID="1028"><v:paragraph v:spLine="-1.4"/><v:tabList/>一、世界悉檀<tspan class="st3">—</tspan>因緣有，無別性。如車、如人，不如二頭、三手。世間實相有<v:newlineChar/><tspan
						x="-0" dy="1.453em" class="st4">二</tspan>、為人悉檀<tspan class="st3">—</tspan>觀人心行而為說法，於一事中或遮或許。經說似違，隨機則實。<v:newlineChar/><tspan
						x="-0" dy="1.453em" class="st4">三</tspan>、對治悉檀<tspan class="st3">—</tspan>不淨、慈悲、因緣三觀，無常、苦、空、無我四觀。法法不同，對治則實。</text>		</g>
		<g id="shape53-9" v:mID="53" v:groupContext="shape" transform="translate(475.898,-59.3012)">
			<title>工作表.53</title>
			<desc>實性則無</desc>
			<v:textBlock v:margins="rect(0,0,0,0)" v:tabSpace="42.5197"/>
			<v:textRect cx="21.4698" cy="81.4449" width="42.94" height="11.6063"/>
			<rect x="0" y="75.6418" width="42.9395" height="11.6063" class="st1"/>
			<text x="-0" y="85.08" class="st2" v:langID="1028"><v:paragraph v:spLine="-1.4"/><v:tabList/>實性則無</text>		</g>
		<g id="shape54-12" v:mID="54" v:groupContext="shape" transform="translate(0.75,-50.6325)">
			<title>工作表.54</title>
			<desc>四悉檀</desc>
			<v:textBlock v:margins="rect(0,0,0,0)" v:tabSpace="42.5197"/>
			<v:textRect cx="15.1078" cy="81.4449" width="30.22" height="11.6063"/>
			<rect x="0" y="75.6418" width="30.2157" height="11.6063" class="st1"/>
			<text x="0" y="85.08" class="st2" v:langID="1028"><v:paragraph v:spLine="-1.4"/><v:tabList/>四悉檀</text>		</g>
		<g id="shape59-15" v:mID="59" v:groupContext="shape" transform="translate(130.507,-31.2225)">
			<title>工作表.59</title>
			<desc>Ⅰ簡非</desc>
			<v:textBlock v:margins="rect(0,0,0,0)" v:tabSpace="42.5197"/>
			<v:textRect cx="21.5076" cy="81.4449" width="43.02" height="11.6063"/>
			<rect x="0" y="75.6418" width="43.0151" height="11.6063" class="st1"/>
			<text x="0" y="85.08" class="st5" v:langID="1028"><v:paragraph v:spLine="-1.4"/><v:tabList/>Ⅰ<tspan class="st6">簡非</tspan><tspan
						class="st6">：</tspan></text>		</g>
		<g id="shape61-20" v:mID="61" v:groupContext="shape" transform="translate(169.938,-0.75)">
			<title>工作表.61</title>
			<desc>一切法性、一切論議、一切是非皆可破壞。 約人—三乘聖人所行真實離諸過失不可變易。 約法—語言道斷心行處滅遍無所依不示諸法無...</desc>
			<v:textBlock v:margins="rect(0,0,0,0)" v:tabSpace="42.5197"/>
			<v:textRect cx="171.453" cy="65.2795" width="342.91" height="43.937"/>
			<rect x="0" y="43.311" width="342.907" height="43.937" class="st1"/>
			<text x="0" y="54.38" class="st2" v:langID="1028"><v:paragraph v:spLine="-1.4"/><v:tabList/>一切法性、一切論議、一切是非，皆可破壞。<v:newlineChar/><tspan
						x="0" dy="1.453em" class="st4">約人</tspan><tspan class="st3">—</tspan>三乘聖人所行真實，離諸過失，不可變易。<v:newlineChar/><tspan
						x="0" dy="1.453em" class="st4">約法</tspan><tspan class="st3">—</tspan>語言道斷，心行處滅，遍無所依，不示諸法，無初中後，不盡不壞。</text>		</g>
		<g id="shape62-27" v:mID="62" v:groupContext="shape" transform="translate(49.8736,-19.8839)">
			<title>工作表.62</title>
			<desc>四、第一義悉檀</desc>
			<v:textBlock v:margins="rect(0,0,0,0)" v:tabSpace="42.5197"/>
			<v:textRect cx="36.8701" cy="81.4449" width="73.75" height="11.6063"/>
			<rect x="0" y="75.6418" width="73.7403" height="11.6063" class="st1"/>
			<text x="0" y="85.08" class="st2" v:langID="1028"><v:paragraph v:spLine="-1.4"/><v:tabList/>四、第一義悉檀</text>		</g>
		<g id="shape68-30" v:mID="68" v:groupContext="shape" transform="translate(513.259,-16.7815)">
			<title>工作表.68</title>
			<desc>世界故無</desc>
			<v:textBlock v:margins="rect(0,0,0,0)" v:tabSpace="42.5197"/>
			<v:textRect cx="21.4698" cy="81.4449" width="42.94" height="11.6063"/>
			<rect x="0" y="75.6418" width="42.9395" height="11.6063" class="st1"/>
			<text x="0" y="85.08" class="st2" v:langID="1028"><v:paragraph v:spLine="-1.4"/><v:tabList/>世界故無</text>		</g>
		<g id="shape70-33" v:mID="70" v:groupContext="shape" transform="translate(131.002,-9.88804)">
			<title>工作表.70</title>
			<desc>Ⅱ顯是</desc>
			<v:textBlock v:margins="rect(0,0,0,0)" v:tabSpace="42.5197"/>
			<v:textRect cx="16.4822" cy="81.4449" width="32.97" height="11.6063"/>
			<rect x="0" y="75.6418" width="32.9644" height="11.6063" class="st1"/>
			<text x="0" y="85.08" class="st5" v:langID="1028"><v:paragraph v:spLine="-1.4"/><v:tabList/>Ⅱ<tspan class="st6">顯是</tspan></text>		</g>
		<g id="shape82-37" v:mID="82" v:groupContext="shape" transform="translate(249.431,63.2765) rotate(90)">
			<title>工作表.82</title>
			<path d="M0 80.87 C0 82.64 0.62 84.06 1.4 84.06 L7.02 84.06 C7.8 84.06 8.42 85.51 8.42 87.25 C8.42 85.51 9.05 84.06 9.83
						 84.06 L15.44 84.06 C16.22 84.06 16.84 82.64 16.84 80.87 L0 80.87 Z" class="st7"/>
			<path d="M0 80.87 C0 82.64 0.62 84.06 1.4 84.06 L7.02 84.06 C7.8 84.06 8.42 85.51 8.42 87.25 C8.42 85.51 9.05 84.06 9.83
						 84.06 L15.44 84.06 C16.22 84.06 16.84 82.64 16.84 80.87" class="st8"/>
		</g>
		<g id="shape83-40" v:mID="83" v:groupContext="shape" transform="translate(127.541,8.54526) rotate(90)">
			<title>工作表.83</title>
			<path d="M0 79.09 C0 81.35 2.04 83.17 4.55 83.17 L22.74 83.17 C25.24 83.17 27.28 85.03 27.28 87.25 C27.28 85.03 29.32
						 83.17 31.83 83.17 L50.02 83.17 C52.53 83.17 54.57 81.35 54.57 79.09 L0 79.09 Z" class="st7"/>
			<path d="M0 79.09 C0 81.35 2.04 83.17 4.55 83.17 L22.74 83.17 C25.24 83.17 27.28 85.03 27.28 87.25 C27.28 85.03 29.32
						 83.17 31.83 83.17 L50.02 83.17 C52.53 83.17 54.57 81.35 54.57 79.09" class="st8"/>
		</g>
		<g id="shape85-43" v:mID="85" v:groupContext="shape" transform="translate(379.298,-36.45) rotate(5.76789)">
			<title>工作表.85</title>
			<path d="M0 87.25 L141.03 87.25" class="st9"/>
		</g>
		<g id="shape86-46" v:mID="86" v:groupContext="shape" transform="translate(386.788,-22.7185)">
			<title>工作表.86</title>
			<path d="M0 87.25 L124.06 87.25" class="st9"/>
		</g>
		<g id="shape87-49" v:mID="87" v:groupContext="shape" transform="translate(434.978,17.0091) rotate(-45)">
			<title>工作表.87</title>
			<path d="M0 87.25 L20.04 87.25" class="st9"/>
		</g>
		<g id="shape88-52" v:mID="88" v:groupContext="shape" transform="translate(409.056,-76.6953) rotate(9.89872)">
			<title>工作表.88</title>
			<path d="M0 87.25 L81.14 87.25" class="st9"/>
		</g>
		<g id="shape89-55" v:mID="89" v:groupContext="shape" transform="translate(399.443,-64.0447)">
			<title>工作表.89</title>
			<path d="M0 87.25 L75.96 87.25" class="st9"/>
		</g>
		<g id="shape90-58" v:mID="90" v:groupContext="shape" transform="translate(405.391,-37.8571) rotate(-30.1331)">
			<title>工作表.90</title>
			<path d="M0 87.25 L28.68 87.25" class="st9"/>
		</g>
		<g id="shape91-61" v:mID="91" v:groupContext="shape" transform="translate(210.205,50.8226) rotate(90)">
			<title>工作表.91</title>
			<path d="M0 80.87 C0 82.64 0.8 84.06 1.79 84.06 L8.96 84.06 C9.95 84.06 10.75 85.51 10.75 87.25 C10.75 85.51 11.55 84.06
						 12.54 84.06 L19.71 84.06 C20.71 84.06 21.5 82.64 21.5 80.87 L0 80.87 Z" class="st7"/>
			<path d="M0 80.87 C0 82.64 0.8 84.06 1.79 84.06 L8.96 84.06 C9.95 84.06 10.75 85.51 10.75 87.25 C10.75 85.51 11.55 84.06
						 12.54 84.06 L19.71 84.06 C20.71 84.06 21.5 82.64 21.5 80.87" class="st8"/>
		</g>
	</g>
</svg>
