<?xml version="1.0" encoding="UTF-8" standalone="no"?>
<!DOCTYPE svg PUBLIC "-//W3C//DTD SVG 1.1//EN" "http://www.w3.org/Graphics/SVG/1.1/DTD/svg11.dtd">
<!-- 由 Microsoft Visio, SVG Export 產生 A00103.svg 頁-1 -->
<svg xmlns="http://www.w3.org/2000/svg" xmlns:xlink="http://www.w3.org/1999/xlink" xmlns:ev="http://www.w3.org/2001/xml-events"
		xmlns:v="http://schemas.microsoft.com/visio/2003/SVGExtensions/" width="5.81204in" height="0.838878in"
		viewBox="0 0 418.467 60.3992" xml:space="preserve" color-interpolation-filters="sRGB" class="st8">
	<v:documentProperties v:langID="1028" v:viewMarkup="false"/>

	<style type="text/css">
	<![CDATA[
		.st1 {fill:none;stroke:none;stroke-linecap:butt;stroke-width:0.75}
		.st2 {fill:#000000;font-family:新細明體;font-size:0.833336em}
		.st3 {font-size:1em}
		.st4 {fill:#000000;font-family:Times New Roman;font-size:0.833336em}
		.st5 {stroke:#040000;stroke-dasharray:0,1.41093;stroke-linecap:round;stroke-linejoin:round;stroke-width:0.470309}
		.st6 {fill:none}
		.st7 {stroke:#040000;stroke-linecap:round;stroke-linejoin:round;stroke-width:0.705463}
		.st8 {fill:none;fill-rule:evenodd;font-size:12px;overflow:visible;stroke-linecap:square;stroke-miterlimit:3}
	]]>
	</style>

	<g v:mID="0" v:index="1" v:groupContext="foregroundPage">
		<title>頁-1</title>
		<v:pageProperties v:drawingScale="0.0393701" v:pageScale="0.0393701" v:drawingUnits="24" v:shadowOffsetX="9"
				v:shadowOffsetY="-9"/>
		<g id="shape1-1" v:mID="1" v:groupContext="shape" transform="translate(241.009,-27.6942)">
			<title>工作表.1</title>
			<desc>利根知佛意不起諍 鈍根不知佛意起諍</desc>
			<v:textBlock v:margins="rect(0,0,0,0)" v:tabSpace="42.5197"/>
			<v:textRect cx="41.1391" cy="44.4217" width="82.28" height="31.955"/>
			<rect x="0" y="28.4442" width="82.2781" height="31.955" class="st1"/>
			<text x="0" y="40.79" class="st2" v:langID="1028"><v:paragraph v:spLine="-1.4"/><v:tabList/>利根知佛意不起諍<v:newlineChar/><tspan
						x="0" dy="1.453em" class="st3">鈍根不知佛意起諍</tspan>   </text>		</g>
		<g id="shape2-5" v:mID="2" v:groupContext="shape" transform="translate(90.8463,-15.6377)">
			<title>工作表.2</title>
			<desc>佛說施等苦空等皆為無戲論 佛說般若畢竟空有無二事皆捨更無可諍</desc>
			<v:textBlock v:margins="rect(0,0,0,0)" v:tabSpace="42.5197"/>
			<v:textRect cx="110.076" cy="46.461" width="220.16" height="27.8763"/>
			<rect x="0" y="32.5229" width="220.151" height="27.8763" class="st1"/>
			<text x="0" y="42.83" class="st2" v:langID="1028"><v:paragraph v:spLine="-1.4"/><v:tabList/>佛說施等苦空等皆為無戲論<v:newlineChar/><tspan
						x="0" dy="1.453em" class="st3">佛說般若畢竟空</tspan>，有無二事皆捨，更無可諍</text>		</g>
		<g id="shape5-9" v:mID="5" v:groupContext="shape" transform="translate(349.993,-30.1996)">
			<title>工作表.5</title>
			<desc>眾生有諍無諍</desc>
			<v:textBlock v:margins="rect(0,0,0,0)" v:tabSpace="42.5197"/>
			<v:textRect cx="33.8622" cy="53.6268" width="67.73" height="13.5449"/>
			<rect x="0" y="46.8543" width="67.7245" height="13.5449" class="st1"/>
			<text x="0" y="57.26" class="st2" v:langID="1028"><v:paragraph v:spLine="-1.4"/><v:tabList/>眾生有諍無諍</text>		</g>
		<g id="shape6-12" v:mID="6" v:groupContext="shape" transform="translate(52.2657,-22.5174)">
			<title>工作表.6</title>
			<desc>無諍說</desc>
			<v:textBlock v:margins="rect(0,0,0,0)" v:tabSpace="42.5197"/>
			<v:textRect cx="16.9311" cy="53.6268" width="33.87" height="13.5449"/>
			<rect x="0" y="46.8543" width="33.8622" height="13.5449" class="st1"/>
			<text x="-0" y="57.26" class="st2" v:langID="1028"><v:paragraph v:spLine="-1.4"/><v:tabList/>無諍說</text>		</g>
		<g id="shape10-15" v:mID="10" v:groupContext="shape" transform="translate(0.75,-10.3571)">
			<title>工作表.10</title>
			<desc>無諍論處</desc>
			<v:textBlock v:margins="rect(0,0,0,0)" v:tabSpace="42.5197"/>
			<v:textRect cx="22.5748" cy="53.6268" width="45.15" height="13.5449"/>
			<rect x="0" y="46.8543" width="45.1496" height="13.5449" class="st1"/>
			<text x="0" y="57.26" class="st2" v:langID="1028"><v:paragraph v:spLine="-1.4"/><v:tabList/>無諍論處</text>		</g>
		<g id="shape12-18" v:mID="12" v:groupContext="shape" transform="translate(52.2648,-0.75)">
			<title>工作表.12</title>
			<desc>無諍處</desc>
			<v:textBlock v:margins="rect(0,0,0,0)" v:tabSpace="42.5197"/>
			<v:textRect cx="16.9311" cy="53.6268" width="33.87" height="13.5449"/>
			<rect x="0" y="46.8543" width="33.8622" height="13.5449" class="st1"/>
			<text x="0" y="57.26" class="st2" v:langID="1028"><v:paragraph v:spLine="-1.4"/><v:tabList/>無諍處</text>		</g>
		<g id="shape13-21" v:mID="13" v:groupContext="shape" transform="translate(77.6999,-0.75)">
			<title>工作表.13</title>
			<desc>—</desc>
			<v:textBlock v:margins="rect(0,0,0,0)" v:tabSpace="42.5197"/>
			<v:textRect cx="16.9311" cy="53.6268" width="33.87" height="13.5449"/>
			<rect x="0" y="46.8543" width="33.8622" height="13.5449" class="st1"/>
			<text x="5.3" y="57.13" class="st4" v:langID="1028"><v:paragraph v:spLine="-1.4"/><v:tabList/>— </text>		</g>
		<g id="shape14-24" v:mID="14" v:groupContext="shape" transform="translate(90.752,-0.75)">
			<title>工作表.14</title>
			<desc>無相寂滅不可言說</desc>
			<v:textBlock v:margins="rect(0,0,0,0)" v:tabSpace="42.5197"/>
			<v:textRect cx="45.1496" cy="53.6268" width="90.3" height="13.5449"/>
			<rect x="0" y="46.8543" width="90.2993" height="13.5449" class="st1"/>
			<text x="-0" y="57.26" class="st2" v:langID="1028"><v:paragraph v:spLine="-1.4"/><v:tabList/>無相寂滅不可言說</text>		</g>
		<g id="shape21-27" v:mID="21" v:groupContext="shape" transform="translate(187.203,-29.4077) rotate(-26.4612)">
			<title>工作表.21</title>
			<path d="M0 60.4 L28.22 60.4" class="st5"/>
		</g>
		<g id="shape22-30" v:mID="22" v:groupContext="shape" transform="translate(214.117,-35.7353)">
			<title>工作表.22</title>
			<path d="M0 60.4 L25.27 60.4" class="st5"/>
		</g>
		<g id="shape23-33" v:mID="23" v:groupContext="shape" transform="translate(351.786,-41.8626) rotate(28.13)">
			<title>工作表.23</title>
			<path d="M0 60.4 L27.72 60.4" class="st5"/>
		</g>
		<g id="shape24-36" v:mID="24" v:groupContext="shape" transform="translate(323.287,-35.9278)">
			<title>工作表.24</title>
			<path d="M0 60.4 L24.47 60.4" class="st5"/>
		</g>
		<g id="shape25-39" v:mID="25" v:groupContext="shape" transform="translate(271.377,-19.8206) rotate(-13.0543)">
			<title>工作表.25</title>
			<path d="M0 60.4 L64.4 60.4" class="st5"/>
		</g>
		<g id="shape26-42" v:mID="26" v:groupContext="shape" transform="translate(102.57,30.5138) rotate(90)">
			<title>工作表.26</title>
			<path d="M0 51.93 C0 54.29 0.89 56.17 2.01 56.17 L10.04 56.17 C11.15 56.17 12.05 58.05 12.05 60.4 C12.05 58.05 12.94
						 56.17 14.06 56.17 L22.09 56.17 C23.2 56.17 24.09 54.29 24.09 51.93 L0 51.93 Z" class="st6"/>
			<path d="M0 51.93 C0 54.29 0.89 56.17 2.01 56.17 L10.04 56.17 C11.15 56.17 12.05 58.05 12.05 60.4 C12.05 58.05 12.94
						 56.17 14.06 56.17 L22.09 56.17 C23.2 56.17 24.09 54.29 24.09 51.93" class="st7"/>
		</g>
		<g id="shape27-45" v:mID="27" v:groupContext="shape" transform="translate(144.255,24.7384) rotate(90)">
			<title>工作表.27</title>
			<path d="M0 54.83 C0 56.37 0.49 57.61 1.12 57.61 L5.63 57.61 C6.26 57.61 6.77 58.88 6.77 60.4 C6.77 58.88 7.27 57.61
						 7.89 57.61 L12.41 57.61 C13.03 57.61 13.54 56.37 13.54 54.83 L0 54.83 Z" class="st6"/>
			<path d="M0 54.83 C0 56.37 0.49 57.61 1.12 57.61 L5.63 57.61 C6.26 57.61 6.77 58.88 6.77 60.4 C6.77 58.88 7.27 57.61
						 7.89 57.61 L12.41 57.61 C13.03 57.61 13.54 56.37 13.54 54.83" class="st7"/>
		</g>
	</g>
</svg>
