<?xml version="1.0" encoding="UTF-8" standalone="no"?>
<!DOCTYPE svg PUBLIC "-//W3C//DTD SVG 1.1//EN" "http://www.w3.org/Graphics/SVG/1.1/DTD/svg11.dtd">
<!-- 由 Microsoft Visio, SVG Export 產生 M002.043=A02102.svg 頁-1 -->
<svg xmlns="http://www.w3.org/2000/svg" xmlns:xlink="http://www.w3.org/1999/xlink" xmlns:ev="http://www.w3.org/2001/xml-events"
		xmlns:v="http://schemas.microsoft.com/visio/2003/SVGExtensions/" width="2.00312in" height="0.428314in"
		viewBox="0 0 144.224 30.8386" xml:space="preserve" color-interpolation-filters="sRGB" class="st6">
	<v:documentProperties v:langID="1028" v:viewMarkup="false"/>

	<style type="text/css">
	<![CDATA[
		.st1 {fill:none;stroke:none;stroke-linecap:butt;stroke-width:0.75}
		.st2 {fill:#000000;font-family:新細明體;font-size:0.833336em}
		.st3 {font-size:1em}
		.st4 {fill:none}
		.st5 {stroke:#040000;stroke-linecap:round;stroke-linejoin:round;stroke-width:0.705463}
		.st6 {fill:none;fill-rule:evenodd;font-size:12px;overflow:visible;stroke-linecap:square;stroke-miterlimit:3}
	]]>
	</style>

	<g v:mID="0" v:index="1" v:groupContext="foregroundPage">
		<title>頁-1</title>
		<v:pageProperties v:drawingScale="0.0393701" v:pageScale="0.0393701" v:drawingUnits="24" v:shadowOffsetX="9"
				v:shadowOffsetY="-9"/>
		<g id="group31-1" transform="translate(0.75,-0.75)" v:mID="31" v:groupContext="group">
			<title>工作表.31</title>
			<g id="shape1-2" v:mID="1" v:groupContext="shape" transform="translate(90.5069,2.06057E-13)">
				<title>工作表.1</title>
				<desc>慧多定少故 貪供世尊故</desc>
				<v:textBlock v:margins="rect(0,0,0,0)" v:tabSpace="42.5197"/>
				<v:textRect cx="26.1088" cy="16.1693" width="52.22" height="29.3386"/>
				<rect x="0" y="1.5" width="52.2176" height="29.3386" class="st1"/>
				<text x="0" y="12.54" class="st2" v:langID="1028"><v:paragraph v:spLine="-1.4"/><v:tabList/>慧多定少故<v:newlineChar/><tspan
							x="0" dy="1.453em" class="st3">貪供世尊故</tspan></text>			</g>
			<g id="shape11-6" v:mID="11" v:groupContext="shape" transform="translate(-2.36609E-13,-8.21804)">
				<title>工作表.11</title>
				<desc>阿難留滯學地之因</desc>
				<v:textBlock v:margins="rect(0,0,0,0)" v:tabSpace="42.5197"/>
				<v:textRect cx="40.6063" cy="24.0661" width="81.22" height="13.5449"/>
				<rect x="0" y="17.2937" width="81.2126" height="13.5449" class="st1"/>
				<text x="-0" y="27.7" class="st2" v:langID="1028"><v:paragraph v:spLine="-1.4"/><v:tabList/>阿難留滯學地之因</text>			</g>
			<g id="shape30-9" v:mID="30" v:groupContext="shape" transform="translate(112.051,8.51574) rotate(90)">
				<title>工作表.30</title>
				<path d="M0 23.11 C0 25.24 0 27 0 27 L8.08 27 C8.08 27 8.08 28.76 8.08 30.84 C8.08 28.71 8.08 27 8.08 27 L16.16 27
							 C16.16 27 16.16 25.24 16.16 23.11 L0 23.11 Z" class="st4"/>
				<path d="M0 23.11 C0 25.24 0 27 0 27 L8.08 27 C8.08 27 8.08 28.76 8.08 30.84 C8.08 28.71 8.08 27 8.08 27 L16.16 27
							 C16.16 27 16.16 25.24 16.16 23.11" class="st5"/>
			</g>
		</g>
	</g>
</svg>
