<?xml version="1.0" encoding="UTF-8" standalone="no"?>
<!DOCTYPE svg PUBLIC "-//W3C//DTD SVG 1.1//EN" "http://www.w3.org/Graphics/SVG/1.1/DTD/svg11.dtd">
<!-- 由 Microsoft Visio, SVG Export 產生 A00202.svg 頁-1 -->
<svg xmlns="http://www.w3.org/2000/svg" xmlns:xlink="http://www.w3.org/1999/xlink" xmlns:ev="http://www.w3.org/2001/xml-events"
		xmlns:v="http://schemas.microsoft.com/visio/2003/SVGExtensions/" width="1.64363in" height="0.605606in"
		viewBox="0 0 118.341 43.6036" xml:space="preserve" color-interpolation-filters="sRGB" class="st6">
	<v:documentProperties v:langID="1028" v:viewMarkup="false"/>

	<style type="text/css">
	<![CDATA[
		.st1 {fill:none;stroke:none;stroke-linecap:butt;stroke-width:0.75}
		.st2 {fill:#000000;font-family:新細明體;font-size:0.833336em}
		.st3 {font-size:1em}
		.st4 {fill:none}
		.st5 {stroke:#040000;stroke-linecap:round;stroke-linejoin:round;stroke-width:0.705463}
		.st6 {fill:none;fill-rule:evenodd;font-size:12px;overflow:visible;stroke-linecap:square;stroke-miterlimit:3}
	]]>
	</style>

	<g v:mID="0" v:index="1" v:groupContext="foregroundPage">
		<title>頁-1</title>
		<v:pageProperties v:drawingScale="0.0393701" v:pageScale="0.0393701" v:drawingUnits="24" v:shadowOffsetX="9"
				v:shadowOffsetY="-9"/>
		<g id="shape1-1" v:mID="1" v:groupContext="shape" transform="translate(69.5558,-1.23544)">
			<title>工作表.1</title>
			<desc>利智。 善根熟。 煩惱薄。</desc>
			<v:textBlock v:margins="rect(0,0,0,0)" v:tabSpace="42.5197"/>
			<v:textRect cx="24.0177" cy="23.0371" width="48.04" height="41.1331"/>
			<rect x="0" y="2.47058" width="48.0355" height="41.1331" class="st1"/>
			<text x="0" y="12.14" class="st2" v:langID="1028"><v:paragraph v:spLine="-1.4"/><v:tabList/>利智。<v:newlineChar/><tspan
						x="0" dy="1.453em" class="st3">善根熟</tspan>。<v:newlineChar/><tspan x="0" dy="1.453em" class="st3">煩惱薄</tspan>。</text>		</g>
		<g id="shape2-6" v:mID="2" v:groupContext="shape" transform="translate(0.75,-15.1671)">
			<title>工作表.2</title>
			<desc>佛住三種人中</desc>
			<v:textBlock v:margins="rect(0,0,0,0)" v:tabSpace="42.5197"/>
			<v:textRect cx="32.9088" cy="36.8312" width="65.82" height="13.5449"/>
			<rect x="0" y="30.0587" width="65.8176" height="13.5449" class="st1"/>
			<text x="-0" y="40.46" class="st2" v:langID="1028"><v:paragraph v:spLine="-1.4"/><v:tabList/>佛住三種人中</text>		</g>
		<g id="shape10-9" v:mID="10" v:groupContext="shape" transform="translate(105.069,6.93512) rotate(90)">
			<title>工作表.10</title>
			<path d="M0 37.12 C0 38.92 1.1 40.36 2.48 40.36 L12.4 40.36 C13.78 40.36 14.88 41.84 14.88 43.6 C14.88 41.84 15.98 40.36
						 17.36 40.36 L27.28 40.36 C28.66 40.36 29.76 38.92 29.76 37.12 L0 37.12 Z" class="st4"/>
			<path d="M0 37.12 C0 38.92 1.1 40.36 2.48 40.36 L12.4 40.36 C13.78 40.36 14.88 41.84 14.88 43.6 C14.88 41.84 15.98 40.36
						 17.36 40.36 L27.28 40.36 C28.66 40.36 29.76 38.92 29.76 37.12" class="st5"/>
		</g>
	</g>
</svg>
