<?xml version="1.0" encoding="UTF-8" standalone="no"?>
<!DOCTYPE svg PUBLIC "-//W3C//DTD SVG 1.1//EN" "http://www.w3.org/Graphics/SVG/1.1/DTD/svg11.dtd">
<!-- 由 Microsoft Visio, SVG Export 產生 A02107.svg 頁-1 -->
<svg xmlns="http://www.w3.org/2000/svg" xmlns:xlink="http://www.w3.org/1999/xlink" xmlns:ev="http://www.w3.org/2001/xml-events"
		xmlns:v="http://schemas.microsoft.com/visio/2003/SVGExtensions/" width="3.15666in" height="0.636975in"
		viewBox="0 0 227.28 45.8622" xml:space="preserve" color-interpolation-filters="sRGB" class="st6">
	<v:documentProperties v:langID="1028" v:viewMarkup="false"/>

	<style type="text/css">
	<![CDATA[
		.st1 {fill:none;stroke:none;stroke-linecap:butt;stroke-width:0.75}
		.st2 {fill:#000000;font-family:新細明體;font-size:0.833336em}
		.st3 {font-size:1em}
		.st4 {stroke:#040000;stroke-linecap:round;stroke-linejoin:round;stroke-width:0.705463}
		.st5 {fill:none}
		.st6 {fill:none;fill-rule:evenodd;font-size:12px;overflow:visible;stroke-linecap:square;stroke-miterlimit:3}
	]]>
	</style>

	<g v:mID="0" v:index="1" v:groupContext="foregroundPage">
		<title>頁-1</title>
		<v:pageProperties v:drawingScale="0.0393701" v:pageScale="0.0393701" v:drawingUnits="24" v:shadowOffsetX="9"
				v:shadowOffsetY="-9"/>
		<g id="shape1-1" v:mID="1" v:groupContext="shape" transform="translate(72.6749,-0.75)">
			<title>工作表.1</title>
			<desc>比丘　　慧多垢薄事少 比丘尼　　慧少垢重 在家二眾　　居家事遽</desc>
			<v:textBlock v:margins="rect(0,0,0,0)" v:tabSpace="42.5197"/>
			<v:textRect cx="55.6931" cy="23.6811" width="111.39" height="44.3622"/>
			<rect x="0" y="1.5" width="111.386" height="44.3622" class="st1"/>
			<text x="-0" y="12.78" class="st2" v:langID="1028"><v:paragraph v:spLine="-1.4"/><v:tabList/>比丘　　慧多垢薄事少<v:newlineChar/><tspan
						x="-0" dy="1.453em" class="st3">比丘尼</tspan>　　慧少垢重<v:newlineChar/><tspan x="-0" dy="1.453em" class="st3">在家二眾</tspan>　　居家事遽</text>		</g>
		<g id="shape3-6" v:mID="3" v:groupContext="shape" transform="translate(192.667,-30.0265)">
			<title>工作表.3</title>
			<desc>五千</desc>
			<v:textBlock v:margins="rect(0,0,0,0)" v:tabSpace="42.5197"/>
			<v:textRect cx="11.2874" cy="39.0898" width="22.58" height="13.5449"/>
			<rect x="0" y="32.3173" width="22.5748" height="13.5449" class="st1"/>
			<text x="-0" y="42.72" class="st2" v:langID="1028"><v:paragraph v:spLine="-1.4"/><v:tabList/>五千</text>		</g>
		<g id="shape4-9" v:mID="4" v:groupContext="shape" transform="translate(0.75,-15.9399)">
			<title>工作表.4</title>
			<desc>四眾多少之理</desc>
			<v:textBlock v:margins="rect(0,0,0,0)" v:tabSpace="42.5197"/>
			<v:textRect cx="33.8622" cy="39.0898" width="67.73" height="13.5449"/>
			<rect x="0" y="32.3173" width="67.7245" height="13.5449" class="st1"/>
			<text x="0" y="42.72" class="st2" v:langID="1028"><v:paragraph v:spLine="-1.4"/><v:tabList/>四眾多少之理</text>		</g>
		<g id="shape22-12" v:mID="22" v:groupContext="shape" transform="translate(95.2919,-36.7053)">
			<title>工作表.22</title>
			<path d="M0 45.86 L15.29 45.86" class="st4"/>
		</g>
		<g id="shape27-15" v:mID="27" v:groupContext="shape" transform="translate(104.989,-22.5321)">
			<title>工作表.27</title>
			<path d="M0 45.86 L15.29 45.86" class="st4"/>
		</g>
		<g id="shape28-18" v:mID="28" v:groupContext="shape" transform="translate(114.612,-7.83667)">
			<title>工作表.28</title>
			<path d="M0 45.86 L15.29 45.86" class="st4"/>
		</g>
		<g id="shape29-21" v:mID="29" v:groupContext="shape" transform="translate(176.974,-36.7053)">
			<title>工作表.29</title>
			<path d="M0 45.86 L15.29 45.86" class="st4"/>
		</g>
		<g id="shape30-24" v:mID="30" v:groupContext="shape" transform="translate(146.652,23.8524) rotate(-90) scale(-1,1)">
			<title>工作表.30</title>
			<path d="M0 31.69 C0 35.59 0 38.82 0 38.82 L7.3 38.82 C7.3 38.82 7.3 42.06 7.3 45.86 C7.3 41.96 7.3 38.82 7.3 38.82 L14.6
						 38.82 C14.6 38.82 14.6 35.59 14.6 31.69 L0 31.69 Z" class="st5"/>
			<path d="M0 31.69 C0 35.59 0 38.82 0 38.82 L7.3 38.82 C7.3 38.82 7.3 42.06 7.3 45.86 C7.3 41.96 7.3 38.82 7.3 38.82 L14.6
						 38.82 C14.6 38.82 14.6 35.59 14.6 31.69" class="st4"/>
		</g>
		<g id="shape31-27" v:mID="31" v:groupContext="shape" transform="translate(192.667,-7.83667)">
			<title>工作表.31</title>
			<desc>各五百</desc>
			<v:textBlock v:margins="rect(0,0,0,0)" v:tabSpace="42.5197"/>
			<v:textRect cx="16.9311" cy="39.0898" width="33.87" height="13.5449"/>
			<rect x="0" y="32.3173" width="33.8622" height="13.5449" class="st1"/>
			<text x="-0" y="42.72" class="st2" v:langID="1028"><v:paragraph v:spLine="-1.4"/><v:tabList/>各五百</text>		</g>
		<g id="shape32-30" v:mID="32" v:groupContext="shape" transform="translate(108.808,8.72304) rotate(90)">
			<title>工作表.32</title>
			<path d="M0 38.13 C0 40.26 0 42.02 0 42.02 L15.13 42.02 C15.13 42.02 15.13 43.79 15.13 45.86 C15.13 43.74 15.13 42.02
						 15.13 42.02 L30.26 42.02 C30.26 42.02 30.26 40.26 30.26 38.13 L0 38.13 Z" class="st5"/>
			<path d="M0 38.13 C0 40.26 0 42.02 0 42.02 L15.13 42.02 C15.13 42.02 15.13 43.79 15.13 45.86 C15.13 43.74 15.13 42.02
						 15.13 42.02 L30.26 42.02 C30.26 42.02 30.26 40.26 30.26 38.13" class="st4"/>
		</g>
	</g>
</svg>
