<?xml version="1.0" encoding="UTF-8" standalone="no"?>
<!DOCTYPE svg PUBLIC "-//W3C//DTD SVG 1.1//EN" "http://www.w3.org/Graphics/SVG/1.1/DTD/svg11.dtd">
<!-- 由 Microsoft Visio, SVG Export 產生 M003.114=A02102.svg 頁-1 -->
<svg xmlns="http://www.w3.org/2000/svg" xmlns:xlink="http://www.w3.org/1999/xlink" xmlns:ev="http://www.w3.org/2001/xml-events"
		xmlns:v="http://schemas.microsoft.com/visio/2003/SVGExtensions/" width="3.41257in" height="0.833826in"
		viewBox="0 0 245.705 60.0355" xml:space="preserve" color-interpolation-filters="sRGB" class="st6">
	<v:documentProperties v:langID="1028" v:viewMarkup="false"/>

	<style type="text/css">
	<![CDATA[
		.st1 {fill:none;stroke:none;stroke-linecap:butt;stroke-width:0.75}
		.st2 {fill:#000000;font-family:新細明體;font-size:0.833336em}
		.st3 {font-size:1em}
		.st4 {fill:none}
		.st5 {stroke:#040000;stroke-linecap:round;stroke-linejoin:round;stroke-width:0.705463}
		.st6 {fill:none;fill-rule:evenodd;font-size:12px;overflow:visible;stroke-linecap:square;stroke-miterlimit:3}
	]]>
	</style>

	<g v:mID="0" v:index="1" v:groupContext="foregroundPage">
		<title>頁-1</title>
		<v:pageProperties v:drawingScale="0.0393701" v:pageScale="0.0393701" v:drawingUnits="24" v:shadowOffsetX="9"
				v:shadowOffsetY="-9"/>
		<g id="shape1-1" v:mID="1" v:groupContext="shape" transform="translate(101.402,-0.75)">
			<title>工作表.1</title>
			<desc>慧多定少故 貪供世尊故 三事未和故 厭離心少故</desc>
			<v:textBlock v:margins="rect(0,0,0,0)" v:tabSpace="42.5197"/>
			<v:textRect cx="28.764" cy="30.7677" width="57.53" height="58.5355"/>
			<rect x="0" y="1.5" width="57.5279" height="58.5355" class="st1"/>
			<text x="-0" y="12.6" class="st2" v:langID="1028"><v:paragraph v:spLine="-1.4"/><v:tabList/>慧多定少故<v:newlineChar/><tspan
						x="-0" dy="1.453em" class="st3">貪供世尊故<v:newlineChar/></tspan><tspan x="-0" dy="1.453em" class="st3">三事未和故<v:newlineChar/></tspan><tspan
						x="-0" dy="1.453em" class="st3">厭離心少故</tspan></text>		</g>
		<g id="shape2-7" v:mID="2" v:groupContext="shape" transform="translate(162.581,-36.6083)">
			<title>工作表.2</title>
			<desc>阿難留滯學地之因</desc>
			<v:textBlock v:margins="rect(0,0,0,0)" v:tabSpace="42.5197"/>
			<v:textRect cx="41.1869" cy="53.263" width="82.38" height="13.5449"/>
			<rect x="0" y="46.4906" width="82.3738" height="13.5449" class="st1"/>
			<text x="-0" y="56.9" class="st2" v:langID="1028"><v:paragraph v:spLine="-1.4"/><v:tabList/>阿難留滯學地之因</text>		</g>
		<g id="shape11-10" v:mID="11" v:groupContext="shape" transform="translate(0.75,-24.0625)">
			<title>工作表.11</title>
			<desc>阿難留滯學地之理由</desc>
			<v:textBlock v:margins="rect(0,0,0,0)" v:tabSpace="42.5197"/>
			<v:textRect cx="50.7933" cy="53.263" width="101.59" height="13.5449"/>
			<rect x="0" y="46.4906" width="101.587" height="13.5449" class="st1"/>
			<text x="0" y="56.9" class="st2" v:langID="1028"><v:paragraph v:spLine="-1.4"/><v:tabList/>阿難留滯學地之理由</text>		</g>
		<g id="shape30-13" v:mID="30" v:groupContext="shape" transform="translate(152.143,7.8366) rotate(90)">
			<title>工作表.30</title>
			<path d="M0 52.31 C0 54.43 0 56.2 0 56.2 L22.25 56.2 C22.25 56.2 22.25 57.96 22.25 60.04 C22.25 57.91 22.25 56.2 22.25
						 56.2 L44.5 56.2 C44.5 56.2 44.5 54.43 44.5 52.31 L0 52.31 Z" class="st4"/>
			<path d="M0 52.31 C0 54.43 0 56.2 0 56.2 L22.25 56.2 C22.25 56.2 22.25 57.96 22.25 60.04 C22.25 57.91 22.25 56.2 22.25
						 56.2 L44.5 56.2 C44.5 56.2 44.5 54.43 44.5 52.31" class="st5"/>
		</g>
		<g id="shape31-16" v:mID="31" v:groupContext="shape" transform="translate(100.85,8.68699) rotate(-90) scale(-1,1)">
			<title>工作表.31</title>
			<path d="M0 52.31 C0 54.43 0 56.2 0 56.2 L7.37 56.2 C7.37 56.2 7.37 57.96 7.37 60.04 C7.37 57.91 7.37 56.2 7.37 56.2
						 L14.74 56.2 C14.74 56.2 14.74 54.43 14.74 52.31 L0 52.31 Z" class="st4"/>
			<path d="M0 52.31 C0 54.43 0 56.2 0 56.2 L7.37 56.2 C7.37 56.2 7.37 57.96 7.37 60.04 C7.37 57.91 7.37 56.2 7.37 56.2
						 L14.74 56.2 C14.74 56.2 14.74 54.43 14.74 52.31" class="st5"/>
		</g>
	</g>
</svg>
