<?xml version="1.0" encoding="UTF-8" standalone="no"?>
<!DOCTYPE svg PUBLIC "-//W3C//DTD SVG 1.1//EN" "http://www.w3.org/Graphics/SVG/1.1/DTD/svg11.dtd">
<!-- 由 Microsoft Visio, SVG Export 產生 A02108.svg 頁-1 -->
<svg xmlns="http://www.w3.org/2000/svg" xmlns:xlink="http://www.w3.org/1999/xlink" xmlns:ev="http://www.w3.org/2001/xml-events"
		xmlns:v="http://schemas.microsoft.com/visio/2003/SVGExtensions/" width="2.72359in" height="0.605606in"
		viewBox="0 0 196.098 43.6036" xml:space="preserve" color-interpolation-filters="sRGB" class="st6">
	<v:documentProperties v:langID="1028" v:viewMarkup="false"/>

	<style type="text/css">
	<![CDATA[
		.st1 {fill:none;stroke:none;stroke-linecap:butt;stroke-width:0.75}
		.st2 {fill:#000000;font-family:新細明體;font-size:0.833336em}
		.st3 {font-size:1em}
		.st4 {fill:none}
		.st5 {stroke:#040000;stroke-linecap:round;stroke-linejoin:round;stroke-width:0.705463}
		.st6 {fill:none;fill-rule:evenodd;font-size:12px;overflow:visible;stroke-linecap:square;stroke-miterlimit:3}
	]]>
	</style>

	<g v:mID="0" v:index="1" v:groupContext="foregroundPage">
		<title>頁-1</title>
		<v:pageProperties v:drawingScale="0.0393701" v:pageScale="0.0393701" v:drawingUnits="24" v:shadowOffsetX="9"
				v:shadowOffsetY="-9"/>
		<g id="shape1-1" v:mID="1" v:groupContext="shape" transform="translate(90.9783,-1.57862)">
			<title>工作表.1</title>
			<desc>一、甚深法寶不示常人 二、得果純淨非為餘雜 三、舉此最勝總攝一切</desc>
			<v:textBlock v:margins="rect(0,0,0,0)" v:tabSpace="42.5197"/>
			<v:textRect cx="52.1851" cy="23.3804" width="104.38" height="40.4466"/>
			<rect x="0" y="3.15708" width="104.37" height="40.4466" class="st1"/>
			<text x="0" y="12.48" class="st2" v:langID="1028"><v:paragraph v:spLine="-1.4"/><v:tabList/>一、甚深法寶不示常人<v:newlineChar/><tspan
						x="0" dy="1.453em" class="st3">二</tspan>、得果純淨非為餘雜<v:newlineChar/><tspan x="0" dy="1.453em" class="st3">三</tspan>、舉此最勝總攝一切</text>		</g>
		<g id="shape2-6" v:mID="2" v:groupContext="shape" transform="translate(0.75,-15.2797)">
			<title>工作表.2</title>
			<desc>般若大會聲聞何少</desc>
			<v:textBlock v:margins="rect(0,0,0,0)" v:tabSpace="42.5197"/>
			<v:textRect cx="45.1496" cy="36.8312" width="90.3" height="13.5449"/>
			<rect x="0" y="30.0587" width="90.2993" height="13.5449" class="st1"/>
			<text x="0" y="40.46" class="st2" v:langID="1028"><v:paragraph v:spLine="-1.4"/><v:tabList/>般若大會聲聞何少</text>		</g>
		<g id="shape17-9" v:mID="17" v:groupContext="shape" transform="translate(125.598,7.17811) rotate(90)">
			<title>工作表.17</title>
			<path d="M0 35.87 C0 38 0 39.76 0 39.76 L15.13 39.76 C15.13 39.76 15.13 41.53 15.13 43.6 C15.13 41.48 15.13 39.76 15.13
						 39.76 L30.26 39.76 C30.26 39.76 30.26 38 30.26 35.87 L0 35.87 Z" class="st4"/>
			<path d="M0 35.87 C0 38 0 39.76 0 39.76 L15.13 39.76 C15.13 39.76 15.13 41.53 15.13 43.6 C15.13 41.48 15.13 39.76 15.13
						 39.76 L30.26 39.76 C30.26 39.76 30.26 38 30.26 35.87" class="st5"/>
		</g>
	</g>
</svg>
