<?xml version="1.0" encoding="UTF-8" standalone="no"?>
<!DOCTYPE svg PUBLIC "-//W3C//DTD SVG 1.1//EN" "http://www.w3.org/Graphics/SVG/1.1/DTD/svg11.dtd">
<!-- 由 Microsoft Visio, SVG Export 產生 A02101.svg 頁-1 -->
<svg xmlns="http://www.w3.org/2000/svg" xmlns:xlink="http://www.w3.org/1999/xlink" xmlns:ev="http://www.w3.org/2001/xml-events"
		xmlns:v="http://schemas.microsoft.com/visio/2003/SVGExtensions/" width="1.18816in" height="0.608719in"
		viewBox="0 0 85.5472 43.8278" xml:space="preserve" color-interpolation-filters="sRGB" class="st6">
	<v:documentProperties v:langID="1028" v:viewMarkup="false"/>

	<style type="text/css">
	<![CDATA[
		.st1 {fill:none;stroke:none;stroke-linecap:butt;stroke-width:0.75}
		.st2 {fill:#000000;font-family:新細明體;font-size:0.833336em}
		.st3 {font-size:1em}
		.st4 {fill:none}
		.st5 {stroke:#040000;stroke-linecap:round;stroke-linejoin:round;stroke-width:0.705463}
		.st6 {fill:none;fill-rule:evenodd;font-size:12px;overflow:visible;stroke-linecap:square;stroke-miterlimit:3}
	]]>
	</style>

	<g v:mID="0" v:index="1" v:groupContext="foregroundPage">
		<title>頁-1</title>
		<v:pageProperties v:drawingScale="0.0393701" v:pageScale="0.0393701" v:drawingUnits="24" v:shadowOffsetX="9"
				v:shadowOffsetY="-9"/>
		<g id="shape1-1" v:mID="1" v:groupContext="shape" transform="translate(62.2224,-0.75)">
			<title>工作表.1</title>
			<desc>待時 待處 待人</desc>
			<v:textBlock v:margins="rect(0,0,0,0)" v:tabSpace="42.5197"/>
			<v:textRect cx="11.2874" cy="22.6639" width="22.58" height="42.3278"/>
			<rect x="0" y="1.5" width="22.5748" height="42.3278" class="st1"/>
			<text x="0" y="11.76" class="st2" v:langID="1028"><v:paragraph v:spLine="-1.4"/><v:tabList/>待時<v:newlineChar/><tspan
						x="0" dy="1.453em" class="st3">待處<v:newlineChar/></tspan><tspan x="0" dy="1.453em" class="st3">待人</tspan></text>		</g>
		<g id="shape2-6" v:mID="2" v:groupContext="shape" transform="translate(0.75,-15.0674)">
			<title>工作表.2</title>
			<desc>得道有三待</desc>
			<v:textBlock v:margins="rect(0,0,0,0)" v:tabSpace="42.5197"/>
			<v:textRect cx="28.2185" cy="37.0553" width="56.44" height="13.5449"/>
			<rect x="0" y="30.2829" width="56.4371" height="13.5449" class="st1"/>
			<text x="0" y="40.69" class="st2" v:langID="1028"><v:paragraph v:spLine="-1.4"/><v:tabList/>得道有三待</text>		</g>
		<g id="shape19-9" v:mID="19" v:groupContext="shape" transform="translate(96.1071,7.30575) rotate(90)">
			<title>工作表.19</title>
			<path d="M0 36.1 C0 38.23 0 39.99 0 39.99 L15.13 39.99 C15.13 39.99 15.13 41.75 15.13 43.83 C15.13 41.7 15.13 39.99 15.13
						 39.99 L30.26 39.99 C30.26 39.99 30.26 38.23 30.26 36.1 L0 36.1 Z" class="st4"/>
			<path d="M0 36.1 C0 38.23 0 39.99 0 39.99 L15.13 39.99 C15.13 39.99 15.13 41.75 15.13 43.83 C15.13 41.7 15.13 39.99 15.13
						 39.99 L30.26 39.99 C30.26 39.99 30.26 38.23 30.26 36.1" class="st5"/>
		</g>
	</g>
</svg>
