<?xml version="1.0" encoding="UTF-8" standalone="no"?>
<!DOCTYPE svg PUBLIC "-//W3C//DTD SVG 1.1//EN" "http://www.w3.org/Graphics/SVG/1.1/DTD/svg11.dtd">
<!-- 由 Microsoft Visio, SVG Export 產生 A02205.svg 頁-1 -->
<svg xmlns="http://www.w3.org/2000/svg" xmlns:xlink="http://www.w3.org/1999/xlink" xmlns:ev="http://www.w3.org/2001/xml-events"
		xmlns:v="http://schemas.microsoft.com/visio/2003/SVGExtensions/" width="4.91744in" height="1.45411in"
		viewBox="0 0 354.056 104.696" xml:space="preserve" color-interpolation-filters="sRGB" class="st6">
	<v:documentProperties v:langID="1028" v:viewMarkup="false"/>

	<style type="text/css">
	<![CDATA[
		.st1 {fill:none;stroke:none;stroke-linecap:butt;stroke-width:0.75}
		.st2 {fill:#000000;font-family:新細明體;font-size:0.833336em}
		.st3 {font-size:1em}
		.st4 {fill:none}
		.st5 {stroke:#040000;stroke-linecap:round;stroke-linejoin:round;stroke-width:0.705463}
		.st6 {fill:none;fill-rule:evenodd;font-size:12px;overflow:visible;stroke-linecap:square;stroke-miterlimit:3}
	]]>
	</style>

	<g v:mID="0" v:index="1" v:groupContext="foregroundPage">
		<title>頁-1</title>
		<v:pageProperties v:drawingScale="0.0393701" v:pageScale="0.0393701" v:drawingUnits="24" v:shadowOffsetX="9"
				v:shadowOffsetY="-9"/>
		<g id="shape2-1" v:mID="2" v:groupContext="shape" transform="translate(80.521,-44.687)">
			<title>工作表.2</title>
			<desc>一、十方皆有身心苦故 二、阿含亦說有十方故 三、一佛應度一切生故 四、緣苦發心應非一故</desc>
			<v:textBlock v:margins="rect(0,0,0,0)" v:tabSpace="42.5197"/>
			<v:textRect cx="53.9094" cy="75.0665" width="107.82" height="59.2589"/>
			<rect x="0" y="45.437" width="107.819" height="59.2589" class="st1"/>
			<text x="-0" y="56.9" class="st2" v:langID="1028"><v:paragraph v:spLine="-1.4"/><v:tabList/>一、十方皆有身心苦故<v:newlineChar/><tspan
						x="-0" dy="1.453em" class="st3">二</tspan>、阿含亦說有十方故<v:newlineChar/><tspan x="-0" dy="1.453em" class="st3">三</tspan>、一佛應度一切生故<v:newlineChar/><tspan
						x="-0" dy="1.453em" class="st3">四</tspan>、緣苦發心應非一故</text>		</g>
		<g id="shape3-7" v:mID="3" v:groupContext="shape" transform="translate(0.75,-67.5478)">
			<title>工作表.3</title>
			<desc>應有十方佛之理</desc>
			<v:textBlock v:margins="rect(0,0,0,0)" v:tabSpace="42.5197"/>
			<v:textRect cx="39.5059" cy="97.9235" width="79.02" height="13.5449"/>
			<rect x="0" y="91.151" width="79.0119" height="13.5449" class="st1"/>
			<text x="-0" y="101.56" class="st2" v:langID="1028"><v:paragraph v:spLine="-1.4"/><v:tabList/>應有十方佛之理</text>		</g>
		<g id="shape8-10" v:mID="8" v:groupContext="shape" transform="translate(285.581,-45.9272)">
			<title>工作表.8</title>
			<desc>有十方佛之理</desc>
			<v:textBlock v:margins="rect(0,0,0,0)" v:tabSpace="42.5197"/>
			<v:textRect cx="33.8622" cy="97.9235" width="67.73" height="13.5449"/>
			<rect x="0" y="91.151" width="67.7245" height="13.5449" class="st1"/>
			<text x="0" y="101.56" class="st2" v:langID="1028"><v:paragraph v:spLine="-1.4"/><v:tabList/>有十方佛之理</text>		</g>
		<g id="shape40-13" v:mID="40" v:groupContext="shape" transform="translate(170.27,-0.75)">
			<title>工作表.40</title>
			<desc>例如過未現應多故 摩訶衍中說十方故</desc>
			<v:textBlock v:margins="rect(0,0,0,0)" v:tabSpace="42.5197"/>
			<v:textRect cx="42.6204" cy="90.0219" width="85.25" height="29.348"/>
			<rect x="0" y="75.3479" width="85.2407" height="29.348" class="st1"/>
			<text x="0" y="86.39" class="st2" v:langID="1028"><v:paragraph v:spLine="-1.4"/><v:tabList/>例如過未現應多故<v:newlineChar/><tspan
						x="0" dy="1.453em" class="st3">摩訶衍中說十方故</tspan></text>		</g>
		<g id="shape43-17" v:mID="43" v:groupContext="shape" transform="translate(287.366,8.26182) rotate(90)">
			<title>工作表.43</title>
			<path d="M0 104.7 C0 101.86 0 99.59 0 99.59 L16.16 99.59 C16.16 99.59 16.16 101.86 16.16 104.7 L0 104.7 Z" class="st4"/>
			<path d="M0 104.7 C0 101.86 0 99.59 0 99.59 L16.16 99.59 C16.16 99.59 16.16 101.86 16.16 104.7" class="st5"/>
		</g>
		<g id="shape45-20" v:mID="45" v:groupContext="shape" transform="translate(170.537,30.6301) rotate(-55.6047)">
			<title>工作表.45</title>
			<path d="M0 104.7 L47.25 104.7" class="st5"/>
		</g>
		<g id="shape46-23" v:mID="46" v:groupContext="shape" transform="translate(224.176,-82.2998) rotate(20.0165)">
			<title>工作表.46</title>
			<path d="M0 104.7 L101.41 104.7" class="st5"/>
		</g>
		<g id="shape51-26" v:mID="51" v:groupContext="shape" transform="translate(177.372,8.68699) rotate(90)">
			<title>工作表.51</title>
			<path d="M0 98.17 C0 99.97 0 101.46 0 101.46 L21.76 101.46 C21.76 101.46 21.76 102.9 21.76 104.7 C21.76 102.9 21.76 101.46
						 21.76 101.46 L43.51 101.46 C43.51 101.46 43.51 99.97 43.51 98.17 L0 98.17 Z" class="st4"/>
			<path d="M0 98.17 C0 99.97 0 101.46 0 101.46 L21.76 101.46 C21.76 101.46 21.76 102.9 21.76 104.7 C21.76 102.9 21.76 101.46
						 21.76 101.46 L43.51 101.46 C43.51 101.46 43.51 99.97 43.51 98.17" class="st5"/>
		</g>
		<g id="shape53-29" v:mID="53" v:groupContext="shape" transform="translate(356.522,82.1097) rotate(90)">
			<title>工作表.53</title>
			<path d="M0 104.7 C0 101.86 0 99.59 0 99.59 L16.16 99.59 C16.16 99.59 16.16 101.86 16.16 104.7 L0 104.7 Z" class="st4"/>
			<path d="M0 104.7 C0 101.86 0 99.59 0 99.59 L16.16 99.59 C16.16 99.59 16.16 101.86 16.16 104.7" class="st5"/>
		</g>
	</g>
</svg>
