<?xml version="1.0" encoding="UTF-8" standalone="no"?>
<!DOCTYPE svg PUBLIC "-//W3C//DTD SVG 1.1//EN" "http://www.w3.org/Graphics/SVG/1.1/DTD/svg11.dtd">
<!-- 由 Microsoft Visio, SVG Export 產生 A00204.svg 頁-1 -->
<svg xmlns="http://www.w3.org/2000/svg" xmlns:xlink="http://www.w3.org/1999/xlink" xmlns:ev="http://www.w3.org/2001/xml-events"
		xmlns:v="http://schemas.microsoft.com/visio/2003/SVGExtensions/" width="4.08539in" height="0.601624in"
		viewBox="0 0 294.148 43.3169" xml:space="preserve" color-interpolation-filters="sRGB" class="st6">
	<v:documentProperties v:langID="1028" v:viewMarkup="false"/>

	<style type="text/css">
	<![CDATA[
		.st1 {fill:none;stroke:none;stroke-linecap:butt;stroke-width:0.75}
		.st2 {fill:#000000;font-family:新細明體;font-size:0.833336em}
		.st3 {font-size:1em}
		.st4 {fill:none}
		.st5 {stroke:#040000;stroke-linecap:round;stroke-linejoin:round;stroke-width:0.705463}
		.st6 {fill:none;fill-rule:evenodd;font-size:12px;overflow:visible;stroke-linecap:square;stroke-miterlimit:3}
	]]>
	</style>

	<g v:mID="0" v:index="1" v:groupContext="foregroundPage">
		<title>頁-1</title>
		<v:pageProperties v:drawingScale="0.0393701" v:pageScale="0.0393701" v:drawingUnits="24" v:shadowOffsetX="9"
				v:shadowOffsetY="-9"/>
		<g id="shape1-1" v:mID="1" v:groupContext="shape" transform="translate(72.8777,-29.022)">
			<title>工作表.1</title>
			<desc>一、具足三事大願、心不可動、精進名菩薩。</desc>
			<v:textBlock v:margins="rect(0,0,0,0)" v:tabSpace="42.5197"/>
			<v:textRect cx="110.26" cy="36.5445" width="220.53" height="13.5449"/>
			<rect x="0" y="29.772" width="220.52" height="13.5449" class="st1"/>
			<text x="0" y="40.18" class="st2" v:langID="1028"><v:paragraph v:spLine="-1.4"/><v:tabList/>一、具足三事（大願、心不可動、精進）名菩薩。</text>		</g>
		<g id="shape2-4" v:mID="2" v:groupContext="shape" transform="translate(0.75,-18.1583)">
			<title>工作表.2</title>
			<desc>齊何名為菩薩</desc>
			<v:textBlock v:margins="rect(0,0,0,0)" v:tabSpace="42.5197"/>
			<v:textRect cx="32.1024" cy="36.5445" width="64.21" height="13.5449"/>
			<rect x="0" y="29.772" width="64.2047" height="13.5449" class="st1"/>
			<text x="0" y="40.18" class="st2" v:langID="1028"><v:paragraph v:spLine="-1.4"/><v:tabList/>齊何名為菩薩</text>		</g>
		<g id="shape3-7" v:mID="3" v:groupContext="shape" transform="translate(172.926,-1.77878)">
			<title>工作表.3</title>
			<desc>鞞跋致假名。 阿鞞跋致實。</desc>
			<v:textBlock v:margins="rect(0,0,0,0)" v:tabSpace="42.5197"/>
			<v:textRect cx="43.4373" cy="30.561" width="86.88" height="25.5118"/>
			<rect x="0" y="17.8051" width="86.8746" height="25.5118" class="st1"/>
			<text x="0" y="26.93" class="st2" v:langID="1028"><v:paragraph v:spLine="-1.4"/><v:tabList/>鞞跋致（假名）。<v:newlineChar/><tspan
						x="0" dy="1.453em" class="st3">阿鞞跋致</tspan>（實）。</text>		</g>
		<g id="shape5-11" v:mID="5" v:groupContext="shape" transform="translate(72.8772,-7.44807)">
			<title>工作表.5</title>
			<desc>二、發心已來名菩薩</desc>
			<v:textBlock v:margins="rect(0,0,0,0)" v:tabSpace="42.5197"/>
			<v:textRect cx="48.6069" cy="36.5445" width="97.22" height="13.5449"/>
			<rect x="0" y="29.772" width="97.2138" height="13.5449" class="st1"/>
			<text x="0" y="40.18" class="st2" v:langID="1028"><v:paragraph v:spLine="-1.4"/><v:tabList/>二、發心已來名菩薩  </text>		</g>
		<g id="shape14-14" v:mID="14" v:groupContext="shape" transform="translate(105.437,7.52245) rotate(90)">
			<title>工作表.14</title>
			<path d="M0 35.7 C0 37.82 0.83 39.51 1.91 39.51 L9.47 39.51 C10.51 39.51 11.34 41.2 11.34 43.32 C11.34 41.2 12.17 39.51
						 13.25 39.51 L20.81 39.51 C21.85 39.51 22.68 37.82 22.68 35.7 L0 35.7 Z" class="st4"/>
			<path d="M0 35.7 C0 37.82 0.83 39.51 1.91 39.51 L9.47 39.51 C10.51 39.51 11.34 41.2 11.34 43.32 C11.34 41.2 12.17 39.51
						 13.25 39.51 L20.81 39.51 C21.85 39.51 22.68 37.82 22.68 35.7" class="st5"/>
		</g>
		<g id="shape15-17" v:mID="15" v:groupContext="shape" transform="translate(207.739,22.3439) rotate(90)">
			<title>工作表.15</title>
			<path d="M0 36.89 C0 38.67 0.5 40.1 1.13 40.1 L5.64 40.1 C6.27 40.1 6.77 41.57 6.77 43.32 C6.77 41.57 7.27 40.1 7.9 40.1
						 L12.42 40.1 C13.04 40.1 13.54 38.67 13.54 36.89 L0 36.89 Z" class="st4"/>
			<path d="M0 36.89 C0 38.67 0.5 40.1 1.13 40.1 L5.64 40.1 C6.27 40.1 6.77 41.57 6.77 43.32 C6.77 41.57 7.27 40.1 7.9 40.1
						 L12.42 40.1 C13.04 40.1 13.54 38.67 13.54 36.89" class="st5"/>
		</g>
	</g>
</svg>
