<?xml version="1.0" encoding="UTF-8" standalone="no"?>
<!DOCTYPE svg PUBLIC "-//W3C//DTD SVG 1.1//EN" "http://www.w3.org/Graphics/SVG/1.1/DTD/svg11.dtd">
<!-- 由 Microsoft Visio, SVG Export 產生 M004.172.svg 頁-1 -->
<svg xmlns="http://www.w3.org/2000/svg" xmlns:xlink="http://www.w3.org/1999/xlink" xmlns:ev="http://www.w3.org/2001/xml-events"
		width="4.91743in" height="1.45411in" viewBox="0 0 354.055 104.696" xml:space="preserve" color-interpolation-filters="sRGB"
		class="st7">
	<style type="text/css">
	<![CDATA[
		.st1 {fill:none;stroke:none;stroke-linecap:butt;stroke-width:0.749999}
		.st2 {fill:#000000;font-family:新細明體;font-size:0.833336em}
		.st3 {font-size:1em}
		.st4 {fill:none;stroke:none;stroke-width:0.999999}
		.st5 {fill:none}
		.st6 {stroke:#040000;stroke-linecap:round;stroke-linejoin:round;stroke-width:0.705462}
		.st7 {fill:none;fill-rule:evenodd;font-size:12px;overflow:visible;stroke-linecap:square;stroke-miterlimit:3}
	]]>
	</style>

	<g>
		<title>頁-1</title>
		<g id="group16-1" transform="translate(0.749999,-0.749999)">
			<title>工作表.16</title>
			<g id="shape1-2" transform="translate(79.7709,-43.937)">
				<title>工作表.2</title>
				<desc>一、十方皆有身心苦故 二、阿含亦說有十方故 三、一佛應度一切生故 四、緣苦發心應非一故</desc>
				<rect x="0" y="45.437" width="107.819" height="59.2588" class="st1"/>
				<text x="-0" y="57.57" class="st2">一、十方皆有身心苦故 <tspan x="-0" dy="1.4em" class="st3">二</tspan>、阿含亦說有十方故 <tspan x="-0"
							dy="1.4em" class="st3">三</tspan>、一佛應度一切生故 <tspan x="-0" dy="1.4em" class="st3">四</tspan>、緣苦發心應非一故</text>			</g>
			<g id="shape2-8" transform="translate(-2.39808E-14,-66.7977)">
				<title>工作表.3</title>
				<desc>應有十方佛之理</desc>
				<rect x="0" y="91.1509" width="79.0118" height="13.5449" class="st1"/>
				<text x="-0" y="101.42" class="st2">應有十方佛之理</text>			</g>
			<g id="shape3-11" transform="translate(284.831,-45.1772)">
				<title>工作表.8</title>
				<desc>有十方佛之理</desc>
				<rect x="0" y="91.1509" width="67.7244" height="13.5449" class="st1"/>
				<text x="-0" y="101.42" class="st2">有十方佛之理</text>			</g>
			<g id="shape4-14" transform="translate(160.825,0)">
				<title>工作表.40</title>
				<desc>例如過未現應多故 摩訶衍中說十方故</desc>
				<rect x="0" y="75.3478" width="93.9357" height="29.348" class="st1"/>
				<text x="-0.001em 0.999em 1.999em 2.999em 3.999em 4.999em 5.999em 6.999em 7.999em" y="86.52" class="st2">例如過未現亦應多故 <tspan
							x="-0.001em 0.999em 1.999em 2.999em 3.999em 4.999em 5.999em 6.999em" dy="1.4em" class="st3">摩訶衍中說十方故</tspan></text>			</g>
			<g id="shape6-18" transform="translate(286.612,9.01181) rotate(90)">
				<title>工作表.6</title>
				<path d="M0 104.7 C0 101.86 0 99.59 0 99.59 L16.16 99.59 C16.16 99.59 16.16 101.86 16.16 104.7 L0 104.7 Z"
						class="st4"/>
			</g>
			<g id="shape7-20" transform="translate(286.612,9.01181) rotate(90)">
				<title>工作表.7</title>
				<path d="M0 104.7 C0 101.86 0 99.59 0 99.59 L16.16 99.59 C16.16 99.59 16.16 101.86 16.16 104.7 L0 104.7 Z"
						class="st5"/>
				<path d="M0 104.7 C0 101.86 0 99.59 0 99.59 L16.16 99.59 C16.16 99.59 16.16 101.86 16.16 104.7" class="st6"/>
			</g>
			<g id="shape8-23" transform="translate(169.79,31.3824) rotate(-55.6047)">
				<title>工作表.45</title>
				<path d="M0 104.7 L47.25 104.7 L0 104.7 Z" class="st5"/>
				<path d="M0 104.7 L47.25 104.7" class="st6"/>
			</g>
			<g id="shape9-26" transform="translate(223.424,-81.5459) rotate(20.0165)">
				<title>工作表.46</title>
				<path d="M0 104.7 L101.41 104.7 L0 104.7 Z" class="st5"/>
				<path d="M0 104.7 L101.41 104.7" class="st6"/>
			</g>
			<g id="shape11-29" transform="translate(176.618,9.43698) rotate(90)">
				<title>工作表.11</title>
				<path d="M0 98.17 C0 99.97 0 101.46 0 101.46 L21.76 101.46 C21.76 101.46 21.76 102.9 21.76 104.7 C21.76 102.9 21.76
							 101.46 21.76 101.46 L43.51 101.46 C43.51 101.46 43.51 99.97 43.51 98.17 L0 98.17 Z" class="st4"/>
			</g>
			<g id="shape12-31" transform="translate(176.618,9.43698) rotate(90)">
				<title>工作表.12</title>
				<path d="M0 98.17 C0 99.97 0 101.46 0 101.46 L21.76 101.46 C21.76 101.46 21.76 102.9 21.76 104.7 C21.76 102.9 21.76
							 101.46 21.76 101.46 L43.51 101.46 C43.51 101.46 43.51 99.97 43.51 98.17 L0 98.17 Z" class="st5"/>
				<path d="M0 98.17 C0 99.97 0 101.46 0 101.46 L21.76 101.46 C21.76 101.46 21.76 102.9 21.76 104.7 C21.76 102.9 21.76
							 101.46 21.76 101.46 L43.51 101.46 C43.51 101.46 43.51 99.97 43.51 98.17" class="st6"/>
			</g>
			<g id="shape14-34" transform="translate(355.768,82.8596) rotate(90)">
				<title>工作表.14</title>
				<path d="M0 104.7 C0 101.86 0 99.59 0 99.59 L16.16 99.59 C16.16 99.59 16.16 101.86 16.16 104.7 L0 104.7 Z"
						class="st4"/>
			</g>
			<g id="shape15-36" transform="translate(355.768,82.8596) rotate(90)">
				<title>工作表.15</title>
				<path d="M0 104.7 C0 101.86 0 99.59 0 99.59 L16.16 99.59 C16.16 99.59 16.16 101.86 16.16 104.7 L0 104.7 Z"
						class="st5"/>
				<path d="M0 104.7 C0 101.86 0 99.59 0 99.59 L16.16 99.59 C16.16 99.59 16.16 101.86 16.16 104.7" class="st6"/>
			</g>
		</g>
	</g>
</svg>
