<?xml version="1.0" encoding="UTF-8" standalone="no"?>
<!DOCTYPE svg PUBLIC "-//W3C//DTD SVG 1.1//EN" "http://www.w3.org/Graphics/SVG/1.1/DTD/svg11.dtd">
<!-- 由 Microsoft Visio, SVG Export 產生 A00205.svg 頁-1 -->
<svg xmlns="http://www.w3.org/2000/svg" xmlns:xlink="http://www.w3.org/1999/xlink" xmlns:ev="http://www.w3.org/2001/xml-events"
		xmlns:v="http://schemas.microsoft.com/visio/2003/SVGExtensions/" width="5.34745in" height="0.808235in"
		viewBox="0 0 385.017 58.1929" xml:space="preserve" color-interpolation-filters="sRGB" class="st7">
	<v:documentProperties v:langID="1028" v:viewMarkup="false"/>

	<style type="text/css">
	<![CDATA[
		.st1 {fill:none;stroke:none;stroke-linecap:butt;stroke-width:0.75}
		.st2 {fill:#000000;font-family:新細明體;font-size:0.833336em}
		.st3 {font-size:1em}
		.st4 {fill:none}
		.st5 {stroke:#040000;stroke-linecap:round;stroke-linejoin:round;stroke-width:0.705463}
		.st6 {stroke:#040000;stroke-linecap:round;stroke-linejoin:round;stroke-width:0.470309}
		.st7 {fill:none;fill-rule:evenodd;font-size:12px;overflow:visible;stroke-linecap:square;stroke-miterlimit:3}
	]]>
	</style>

	<g v:mID="0" v:index="1" v:groupContext="foregroundPage">
		<title>頁-1</title>
		<v:pageProperties v:drawingScale="0.0393701" v:pageScale="0.0393701" v:drawingUnits="24" v:shadowOffsetX="9"
				v:shadowOffsetY="-9"/>
		<g id="shape4-1" v:mID="4" v:groupContext="shape" transform="translate(161.455,-0.75)">
			<title>工作表.4</title>
			<desc>一心集諸善法。 常行精進。 一切法實知空不捨一切眾生。 一心願成佛道於眾生悲入骨髓般舟三昧現前。</desc>
			<v:textBlock v:margins="rect(0,0,0,0)" v:tabSpace="42.5197"/>
			<v:textRect cx="111.406" cy="29.8465" width="222.82" height="56.6929"/>
			<rect x="0" y="1.5" width="222.811" height="56.6929" class="st1"/>
			<text x="0" y="11.68" class="st2" v:langID="1028"><v:paragraph v:spLine="-1.4"/><v:tabList/>一心集諸善法。<v:newlineChar/><tspan
						x="0" dy="1.453em" class="st3">常行精進</tspan>。<v:newlineChar/><tspan x="0" dy="1.453em" class="st3">一切法實知空</tspan>，不捨一切眾生。<v:newlineChar/><tspan
						x="0" dy="1.453em" class="st3">一心願成佛道</tspan>，於眾生悲入骨髓，般舟三昧現前。</text>		</g>
		<g id="shape5-7" v:mID="5" v:groupContext="shape" transform="translate(61.1057,-0.879551)">
			<title>工作表.5</title>
			<desc>一法好修好念 二法好修好念 三法好修好念</desc>
			<v:textBlock v:margins="rect(0,0,0,0)" v:tabSpace="42.5197"/>
			<v:textRect cx="32.6041" cy="36.9978" width="65.21" height="42.3901"/>
			<rect x="0" y="15.8028" width="65.2081" height="42.3901" class="st1"/>
			<text x="0" y="26.1" class="st2" v:langID="1028"><v:paragraph v:spLine="-1.4"/><v:tabList/>一法好修好念<v:newlineChar/><tspan
						x="0" dy="1.453em" class="st3">二法好修好念<v:newlineChar/></tspan><tspan x="0" dy="1.453em" class="st3">三法好修好念</tspan></text>		</g>
		<g id="shape8-12" v:mID="8" v:groupContext="shape" transform="translate(0.75,-15.7113)">
			<title>工作表.8</title>
			<desc>阿鞞跋致相</desc>
			<v:textBlock v:margins="rect(0,0,0,0)" v:tabSpace="42.5197"/>
			<v:textRect cx="28.2185" cy="51.4205" width="56.44" height="13.5449"/>
			<rect x="0" y="44.648" width="56.4371" height="13.5449" class="st1"/>
			<text x="-0" y="55.05" class="st2" v:langID="1028"><v:paragraph v:spLine="-1.4"/><v:tabList/>阿鞞跋致相</text>		</g>
		<g id="shape23-15" v:mID="23" v:groupContext="shape" transform="translate(110.806,22.0098) rotate(90)">
			<title>工作表.23</title>
			<path d="M0 51.16 C0 53.1 1.05 54.68 2.35 54.68 L11.82 54.68 C13.13 54.68 14.17 56.25 14.17 58.19 C14.17 56.25 15.22
						 54.68 16.53 54.68 L25.99 54.68 C27.3 54.68 28.35 53.1 28.35 51.16 L0 51.16 Z" class="st4"/>
			<path d="M0 51.16 C0 53.1 1.05 54.68 2.35 54.68 L11.82 54.68 C13.13 54.68 14.17 56.25 14.17 58.19 C14.17 56.25 15.22
						 54.68 16.53 54.68 L25.99 54.68 C27.3 54.68 28.35 53.1 28.35 51.16" class="st5"/>
		</g>
		<g id="shape24-18" v:mID="24" v:groupContext="shape" transform="translate(141.793,-50.1326)">
			<title>工作表.24</title>
			<path d="M0 58.19 L16.93 58.19" class="st6"/>
		</g>
		<g id="shape25-21" v:mID="25" v:groupContext="shape" transform="translate(124.862,-34.7658)">
			<title>工作表.25</title>
			<path d="M0 58.19 L33.86 58.19" class="st6"/>
		</g>
		<g id="shape26-24" v:mID="26" v:groupContext="shape" transform="translate(83.6,23.4271) rotate(-90)">
			<title>工作表.26</title>
			<path d="M0 58.19 L15.37 58.19" class="st6"/>
		</g>
		<g id="shape31-27" v:mID="31" v:groupContext="shape" transform="translate(124.862,-21.2)">
			<title>工作表.31</title>
			<path d="M0 58.19 L33.86 58.19" class="st6"/>
		</g>
		<g id="shape32-30" v:mID="32" v:groupContext="shape" transform="translate(124.862,-7.91126)">
			<title>工作表.32</title>
			<path d="M0 58.19 L33.86 58.19" class="st6"/>
		</g>
	</g>
</svg>
