<?xml version="1.0" encoding="UTF-8" standalone="no"?>
<!DOCTYPE svg PUBLIC "-//W3C//DTD SVG 1.1//EN" "http://www.w3.org/Graphics/SVG/1.1/DTD/svg11.dtd">
<!-- 由 Microsoft Visio, SVG Export 產生 A00305.svg 頁-1 -->
<svg xmlns="http://www.w3.org/2000/svg" xmlns:xlink="http://www.w3.org/1999/xlink" xmlns:ev="http://www.w3.org/2001/xml-events"
		xmlns:v="http://schemas.microsoft.com/visio/2003/SVGExtensions/" width="2.54278in" height="0.634787in"
		viewBox="0 0 183.08 45.7047" xml:space="preserve" color-interpolation-filters="sRGB" class="st7">
	<v:documentProperties v:langID="1028" v:viewMarkup="false"/>

	<style type="text/css">
	<![CDATA[
		.st1 {fill:none;stroke:none;stroke-linecap:butt;stroke-width:0.75}
		.st2 {fill:#000000;font-family:微軟正黑體;font-size:0.833336em}
		.st3 {fill:#000000;font-family:Microsoft Sans Serif;font-size:0.833336em}
		.st4 {fill:none}
		.st5 {stroke:#040000;stroke-linecap:round;stroke-linejoin:round;stroke-width:0.705463}
		.st6 {stroke:#040000;stroke-linecap:round;stroke-linejoin:round;stroke-width:0.470309}
		.st7 {fill:none;fill-rule:evenodd;font-size:12px;overflow:visible;stroke-linecap:square;stroke-miterlimit:3}
	]]>
	</style>

	<g v:mID="0" v:index="1" v:groupContext="foregroundPage">
		<title>頁-1</title>
		<v:pageProperties v:drawingScale="0.0393701" v:pageScale="0.0393701" v:drawingUnits="24" v:shadowOffsetX="9"
				v:shadowOffsetY="-9"/>
		<g id="shape1-1" v:mID="1" v:groupContext="shape" transform="translate(35.139,-31.4098)">
			<title>工作表.1</title>
			<desc>等　忍</desc>
			<v:textBlock v:margins="rect(0,0,0,0)" v:tabSpace="42.5197"/>
			<v:textRect cx="16.9311" cy="38.9322" width="33.87" height="13.5449"/>
			<rect x="0" y="32.1598" width="33.8622" height="13.5449" class="st1"/>
			<text x="0" y="42.28" class="st2" v:langID="1028"><v:paragraph/><v:tabList/>等　忍</text>		</g>
		<g id="shape2-4" v:mID="2" v:groupContext="shape" transform="translate(63.0099,-31.4098)">
			<title>工作表.2</title>
			<desc>—</desc>
			<v:textBlock v:margins="rect(0,0,0,0)" v:tabSpace="42.5197"/>
			<v:textRect cx="16.9311" cy="38.9322" width="33.87" height="13.5449"/>
			<rect x="0" y="32.1598" width="33.8622" height="13.5449" class="st1"/>
			<text x="5.46" y="41.93" class="st3" v:langID="1028"><v:paragraph/><v:tabList/>— </text>		</g>
		<g id="shape3-7" v:mID="3" v:groupContext="shape" transform="translate(77.9787,-31.4098)">
			<title>工作表.3</title>
			<desc>眾生中等忍</desc>
			<v:textBlock v:margins="rect(0,0,0,0)" v:tabSpace="42.5197"/>
			<v:textRect cx="28.2185" cy="38.9322" width="56.44" height="13.5449"/>
			<rect x="0" y="32.1598" width="56.4371" height="13.5449" class="st1"/>
			<text x="-0" y="42.28" class="st2" v:langID="1028"><v:paragraph/><v:tabList/>眾生中等忍</text>		</g>
		<g id="shape4-10" v:mID="4" v:groupContext="shape" transform="translate(0.75,-24.5304)">
			<title>工作表.4</title>
			<desc>二忍</desc>
			<v:textBlock v:margins="rect(0,0,0,0)" v:tabSpace="42.5197"/>
			<v:textRect cx="11.2874" cy="38.9322" width="22.58" height="13.5449"/>
			<rect x="0" y="32.1598" width="22.5748" height="13.5449" class="st1"/>
			<text x="0" y="42.28" class="st2" v:langID="1028"><v:paragraph/><v:tabList/>二忍</text>		</g>
		<g id="shape5-13" v:mID="5" v:groupContext="shape" transform="translate(140.943,-23.4272)">
			<title>工作表.5</title>
			<desc>因</desc>
			<v:textBlock v:margins="rect(0,0,0,0)" v:tabSpace="42.5197"/>
			<v:textRect cx="20.6936" cy="38.9322" width="41.39" height="13.5449"/>
			<rect x="0" y="32.1598" width="41.3872" height="13.5449" class="st1"/>
			<text x="20.31" y="42.28" class="st2" v:langID="1028"><v:paragraph/><v:tabList/>因</text>		</g>
		<g id="shape6-16" v:mID="6" v:groupContext="shape" transform="translate(35.1395,-16.6547)">
			<title>工作表.6</title>
			<desc>柔順忍</desc>
			<v:textBlock v:margins="rect(0,0,0,0)" v:tabSpace="42.5197"/>
			<v:textRect cx="16.9311" cy="38.9322" width="33.87" height="13.5449"/>
			<rect x="0" y="32.1598" width="33.8622" height="13.5449" class="st1"/>
			<text x="0" y="42.28" class="st2" v:langID="1028"><v:paragraph/><v:tabList/>柔順忍</text>		</g>
		<g id="shape7-19" v:mID="7" v:groupContext="shape" transform="translate(63.0099,-16.6547)">
			<title>工作表.7</title>
			<desc>—</desc>
			<v:textBlock v:margins="rect(0,0,0,0)" v:tabSpace="42.5197"/>
			<v:textRect cx="16.9311" cy="38.9322" width="33.87" height="13.5449"/>
			<rect x="0" y="32.1598" width="33.8622" height="13.5449" class="st1"/>
			<text x="5.46" y="41.93" class="st3" v:langID="1028"><v:paragraph/><v:tabList/>— </text>		</g>
		<g id="shape8-22" v:mID="8" v:groupContext="shape" transform="translate(77.9791,-16.6547)">
			<title>工作表.8</title>
			<desc>深法中法忍</desc>
			<v:textBlock v:margins="rect(0,0,0,0)" v:tabSpace="42.5197"/>
			<v:textRect cx="28.2185" cy="38.9322" width="56.44" height="13.5449"/>
			<rect x="0" y="32.1598" width="56.4371" height="13.5449" class="st1"/>
			<text x="0" y="42.28" class="st2" v:langID="1028"><v:paragraph/><v:tabList/>深法中法忍</text>		</g>
		<g id="shape9-25" v:mID="9" v:groupContext="shape" transform="translate(35.14,-0.75)">
			<title>工作表.9</title>
			<desc>無生忍</desc>
			<v:textBlock v:margins="rect(0,0,0,0)" v:tabSpace="42.5197"/>
			<v:textRect cx="16.9311" cy="38.9322" width="33.87" height="13.5449"/>
			<rect x="0" y="32.1598" width="33.8622" height="13.5449" class="st1"/>
			<text x="0" y="42.28" class="st2" v:langID="1028"><v:paragraph/><v:tabList/>無生忍</text>		</g>
		<g id="shape10-28" v:mID="10" v:groupContext="shape" transform="translate(63.1634,-0.75)">
			<title>工作表.10</title>
			<desc>——————</desc>
			<v:textBlock v:margins="rect(0,0,0,0)" v:tabSpace="42.5197"/>
			<v:textRect cx="33.8622" cy="38.9322" width="67.73" height="13.5449"/>
			<rect x="0" y="32.1598" width="67.7245" height="13.5449" class="st1"/>
			<text x="5.46" y="41.93" class="st3" v:langID="1028"><v:paragraph/><v:tabList/>—————— </text>		</g>
		<g id="shape11-31" v:mID="11" v:groupContext="shape" transform="translate(108.022,-0.75)">
			<title>工作表.11</title>
			<desc>大忍</desc>
			<v:textBlock v:margins="rect(0,0,0,0)" v:tabSpace="42.5197"/>
			<v:textRect cx="11.2874" cy="38.9322" width="22.58" height="13.5449"/>
			<rect x="0" y="32.1598" width="22.5748" height="13.5449" class="st1"/>
			<text x="-0" y="42.28" class="st2" v:langID="1028"><v:paragraph/><v:tabList/>大忍</text>		</g>
		<g id="shape12-34" v:mID="12" v:groupContext="shape" transform="translate(124.211,-0.75)">
			<title>工作表.12</title>
			<desc>——————</desc>
			<v:textBlock v:margins="rect(0,0,0,0)" v:tabSpace="42.5197"/>
			<v:textRect cx="28.2185" cy="38.9322" width="56.44" height="13.5449"/>
			<rect x="0" y="32.1598" width="56.4371" height="13.5449" class="st1"/>
			<text x="5.46" y="41.93" class="st3" v:langID="1028"><v:paragraph/><v:tabList/>—————— </text>		</g>
		<g id="shape13-37" v:mID="13" v:groupContext="shape" transform="translate(166.526,-0.75)">
			<title>工作表.13</title>
			<desc>果</desc>
			<v:textBlock v:margins="rect(0,0,0,0)" v:tabSpace="42.5197"/>
			<v:textRect cx="5.64371" cy="38.9322" width="11.29" height="13.5449"/>
			<rect x="0" y="32.1598" width="11.2874" height="13.5449" class="st1"/>
			<text x="0" y="42.28" class="st2" v:langID="1028"><v:paragraph/><v:tabList/>果</text>		</g>
		<g id="shape31-40" v:mID="31" v:groupContext="shape" transform="translate(68.0954,5.58379) rotate(90)">
			<title>工作表.31</title>
			<path d="M0 34.42 C0 37.55 0.7 40.06 1.51 40.06 L7.66 40.06 C8.52 40.06 9.21 42.63 9.21 45.7 C9.21 42.63 9.91 40.06 10.73
						 40.06 L16.87 40.06 C17.73 40.06 18.43 37.55 18.43 34.42 L0 34.42 Z" class="st4"/>
			<path d="M0 34.42 C0 37.55 0.7 40.06 1.51 40.06 L7.66 40.06 C8.52 40.06 9.21 42.63 9.21 45.7 C9.21 42.63 9.91 40.06 10.73
						 40.06 L16.87 40.06 C17.73 40.06 18.43 37.55 18.43 34.42" class="st5"/>
		</g>
		<g id="shape32-43" v:mID="32" v:groupContext="shape" transform="translate(139.83,-36.6482) rotate(12.605)">
			<title>工作表.32</title>
			<path d="M0 45.7 L34.6 45.7" class="st6"/>
		</g>
		<g id="shape33-46" v:mID="33" v:groupContext="shape" transform="translate(118.771,-20.331) rotate(-14.0362)">
			<title>工作表.33</title>
			<path d="M0 45.7 L34.9 45.7" class="st6"/>
		</g>
	</g>
</svg>
