<?xml version="1.0" encoding="UTF-8" standalone="no"?>
<!DOCTYPE svg PUBLIC "-//W3C//DTD SVG 1.1//EN" "http://www.w3.org/Graphics/SVG/1.1/DTD/svg11.dtd">
<!-- 由 Microsoft Visio, SVG Export 產生 A02302.svg 頁-1 -->
<svg xmlns="http://www.w3.org/2000/svg" xmlns:xlink="http://www.w3.org/1999/xlink" xmlns:ev="http://www.w3.org/2001/xml-events"
		xmlns:v="http://schemas.microsoft.com/visio/2003/SVGExtensions/" width="3.96375in" height="0.833826in"
		viewBox="0 0 285.39 60.0355" xml:space="preserve" color-interpolation-filters="sRGB" class="st7">
	<v:documentProperties v:langID="1028" v:viewMarkup="false"/>

	<style type="text/css">
	<![CDATA[
		.st1 {fill:none;stroke:none;stroke-linecap:butt;stroke-width:0.75}
		.st2 {fill:#000000;font-family:新細明體;font-size:0.833336em}
		.st3 {font-size:1em}
		.st4 {fill:#040000;stroke:none;stroke-linecap:butt;stroke-width:0.940618}
		.st5 {fill:none}
		.st6 {stroke:#040000;stroke-linecap:round;stroke-linejoin:round;stroke-width:0.705463}
		.st7 {fill:none;fill-rule:evenodd;font-size:12px;overflow:visible;stroke-linecap:square;stroke-miterlimit:3}
	]]>
	</style>

	<g v:mID="0" v:index="1" v:groupContext="foregroundPage">
		<title>頁-1</title>
		<v:pageProperties v:drawingScale="0.0393701" v:pageScale="0.0393701" v:drawingUnits="24" v:shadowOffsetX="9"
				v:shadowOffsetY="-9"/>
		<g id="shape1-1" v:mID="1" v:groupContext="shape" transform="translate(100.986,-14.3239)">
			<title>工作表.1</title>
			<desc>聞慧雲 說法雷 行踐雨</desc>
			<v:textBlock v:margins="rect(0,0,0,0)" v:tabSpace="42.5197" v:verticalAlign="0"/>
			<v:textRect cx="27.7482" cy="37.5547" width="55.5" height="44.9615"/>
			<rect x="0" y="15.0739" width="55.4964" height="44.9615" class="st1"/>
			<text x="-0" y="25.97" class="st2" v:langID="1028"><v:paragraph v:spLine="-1.4"/><v:tabList/>聞慧（雲）<v:newlineChar/><tspan
						x="-0" dy="1.453em" class="st3">說法</tspan>（雷）<v:newlineChar/><tspan x="-0" dy="1.453em" class="st3">行踐</tspan>（雨）</text>		</g>
		<g id="shape3-6" v:mID="3" v:groupContext="shape" transform="translate(0.75,-30.754)">
			<title>工作表.3</title>
			<desc>四種法師合雷雲雨喻</desc>
			<v:textBlock v:margins="rect(0,0,0,0)" v:tabSpace="42.5197"/>
			<v:textRect cx="50.7933" cy="53.263" width="101.59" height="13.5449"/>
			<rect x="0" y="46.4906" width="101.587" height="13.5449" class="st1"/>
			<text x="-0" y="56.9" class="st2" v:langID="1028"><v:paragraph v:spLine="-1.4"/><v:tabList/>四種法師合雷雲雨喻</text>		</g>
		<g id="shape18-9" v:mID="18" v:groupContext="shape" transform="translate(210.03,5.79124) rotate(90)">
			<title>工作表.18</title>
			<path d="M0 13.97 L0.14 13.31 L0.42 12.82 L0.85 12.5 L1.41 12.34 L1.97 12.5 L2.47 12.82 L2.75 13.31 L2.89 13.97 L2.75
						 14.62 L2.47 15.19 L1.97 15.52 L1.41 15.68 L0.85 15.52 L0.42 15.19 L0.14 14.62 L0 13.97 ZM2.89 58 L2.75 58.65
						 L2.47 59.22 C1.69 60.04 0.63 59.79 0.21 58.65 L0.07 58 L0.21 57.34 C0.7 56.28 1.69 56.04 2.47 56.86 L2.75
						 57.34 L2.89 58 ZM1.2 58 L1.2 13.97 L1.27 13.8 L1.41 13.72 L1.62 13.8 L1.69 13.97 L1.69 58 L1.62 58.24 L1.41
						 58.32 L1.27 58.24 L1.2 58 Z" class="st4"/>
		</g>
		<g id="shape19-11" v:mID="19" v:groupContext="shape" transform="translate(210.193,5.93214) rotate(90)">
			<title>工作表.19</title>
			<path d="M15.08 13.31 L15.43 12.74 L15.85 12.42 L16.41 12.25 L16.98 12.42 L17.47 12.74 L17.75 13.23 L17.89 13.88 L17.75
						 14.54 L17.47 15.11 C16.7 15.92 15.64 15.76 15.22 14.62 L15.08 13.97 L15.08 13.31 ZM2.68 58.73 L2.4 59.3
						 L1.97 59.71 C0.92 60.04 0.14 59.55 0 58.24 L0.07 57.59 L0.42 57.02 L0.85 56.69 L1.41 56.53 L1.97 56.61 L2.47
						 56.94 L2.75 57.51 L2.89 58.08 L2.68 58.73 ZM1.13 58.08 L16.2 13.8 L16.34 13.64 L16.55 13.64 L16.7 13.8 L16.7
						 14.05 L1.62 58.24 L1.48 58.4 L1.27 58.4 L1.13 58.24 L1.13 58.08 Z" class="st4"/>
		</g>
		<g id="shape20-13" v:mID="20" v:groupContext="shape" transform="translate(210.682,5.93214) rotate(90)">
			<title>工作表.20</title>
			<path d="M0.07 15.19 L0 14.54 L0.14 13.88 L0.42 13.4 L0.92 13.07 L1.48 12.91 L2.04 13.07 L2.47 13.4 L2.82 13.97 L2.89
						 14.62 L2.75 15.27 L2.47 15.76 L1.97 16.17 L1.41 16.25 L0.85 16.09 L0.42 15.76 L0.07 15.19 ZM17.61 57.83
						 L17.75 58.49 L17.61 59.06 L17.33 59.63 L16.84 59.95 L16.27 60.04 L15.71 59.95 L15.29 59.55 L14.93 58.98
						 L14.86 58.32 C15.01 57.02 15.78 56.53 16.84 56.86 L17.26 57.26 L17.61 57.83 ZM16.13 58.57 L1.2 14.7 L1.2
						 14.46 L1.34 14.29 L1.55 14.29 L1.69 14.46 L16.63 58.32 L16.63 58.57 L16.48 58.73 L16.27 58.73 L16.13 58.57
						 Z" class="st4"/>
		</g>
		<g id="shape21-15" v:mID="21" v:groupContext="shape" transform="translate(210.519,20.9373) rotate(90)">
			<title>工作表.21</title>
			<path d="M30.31 13.23 L30.71 12.82 L31.19 12.66 L31.73 12.74 L32.2 13.07 L32.54 13.64 L32.68 14.21 L32.61 14.86 L32.34
						 15.43 L31.87 15.84 L31.39 16 L30.85 15.92 L30.37 15.6 L30.03 15.11 L29.9 14.54 L29.97 13.88 L30.31 13.23
						 ZM2.37 59.46 L1.97 59.87 L1.49 60.04 L0.95 59.95 L0.47 59.63 L0.14 59.14 L0 58.57 L0.07 57.92 L0.34 57.34
						 L0.75 56.94 L1.22 56.77 L1.76 56.86 L2.24 57.18 L2.58 57.67 L2.71 58.24 L2.64 58.89 L2.37 59.46 ZM1.15 58.24
						 L31.19 14.05 L31.32 13.97 L31.53 14.05 L31.59 14.29 L31.53 14.46 L1.49 58.65 L1.36 58.73 L1.15 58.65 L1.08
						 58.49 L1.15 58.24 Z" class="st4"/>
		</g>
		<g id="shape22-17" v:mID="22" v:groupContext="shape" transform="translate(210.437,5.86169) rotate(90)">
			<title>工作表.22</title>
			<path d="M31.21 13.07 L31.63 12.66 L32.12 12.5 L32.69 12.58 L33.18 12.91 L33.53 13.48 L33.67 14.05 L33.6 14.62 L33.32
						 15.19 L32.9 15.6 L32.34 15.76 L31.84 15.68 L31.35 15.35 L31 14.86 L30.86 14.29 L30.93 13.64 L31.21 13.07
						 ZM2.47 59.46 L2.04 59.87 L1.55 60.04 L0.99 59.95 L0.49 59.63 L0.14 59.14 L0 58.57 L0.07 57.92 L0.35 57.34
						 L0.77 56.94 L1.27 56.77 L1.83 56.86 L2.32 57.18 L2.68 57.75 L2.82 58.32 L2.75 58.89 L2.47 59.46 ZM31.35
						 14.94 L32.05 13.88 L32.19 13.8 L32.41 13.88 L32.48 14.13 L32.41 14.29 L31.7 15.35 L31.56 15.43 L31.35 15.35
						 L31.28 15.19 L31.35 14.94 ZM29.02 18.29 L30.01 16.9 L30.15 16.82 L30.36 16.9 L30.43 17.06 L30.36 17.31 L29.38
						 18.7 L29.24 18.78 L29.02 18.7 L28.95 18.53 L29.02 18.29 ZM26.7 21.63 L27.69 20.24 L27.83 20.16 L28.04 20.24
						 L28.11 20.41 L28.04 20.65 L27.05 22.04 L26.91 22.12 L26.7 22.04 L26.63 21.88 L26.7 21.63 ZM24.37 24.89 L25.36
						 23.51 L25.5 23.42 L25.71 23.51 L25.78 23.75 L25.71 23.91 L24.73 25.3 L24.59 25.46 L24.37 25.38 L24.3 25.22
						 L24.37 24.89 ZM22.05 28.32 L23.04 26.85 L23.18 26.77 L23.39 26.85 L23.46 27.09 L23.39 27.26 L22.4 28.64
						 L22.26 28.81 L22.05 28.72 L21.98 28.56 L22.05 28.32 ZM19.73 31.66 L20.71 30.19 L20.85 30.11 L21.06 30.19
						 L21.13 30.36 L21.06 30.52 L20.08 31.9 L19.94 32.07 L19.73 31.99 L19.65 31.82 L19.73 31.66 ZM17.4 34.92 L18.39
						 33.54 L18.53 33.37 L18.74 33.45 L18.81 33.62 L18.74 33.78 L17.75 35.25 L17.61 35.33 L17.4 35.25 L17.33 35
						 L17.4 34.92 ZM15.08 38.26 L16.06 36.88 L16.2 36.72 L16.41 36.8 L16.48 36.96 L16.41 37.12 L15.43 38.59 L15.29
						 38.67 L15.08 38.59 L15.01 38.35 L15.08 38.26 ZM12.75 41.61 L13.74 40.22 L13.88 40.06 L14.09 40.14 L14.16
						 40.3 L14.09 40.55 L13.1 41.93 L12.96 42.02 L12.75 41.93 L12.68 41.77 L12.75 41.61 ZM10.43 44.95 L11.41 43.56
						 L11.55 43.4 L11.76 43.48 L11.84 43.65 L11.76 43.89 L10.78 45.28 L10.64 45.36 L10.43 45.28 L10.36 45.11 L10.43
						 44.95 ZM8.17 48.29 L9.16 46.91 L9.3 46.83 L9.51 46.91 L9.58 47.07 L9.51 47.32 L8.52 48.7 L8.38 48.78 L8.17
						 48.7 L8.1 48.54 L8.17 48.29 ZM5.85 51.56 L6.83 50.17 L6.97 50.09 L7.19 50.17 L7.26 50.33 L7.19 50.58 L6.2
						 51.96 L6.06 52.04 L5.85 51.96 L5.78 51.8 L5.85 51.56 ZM3.52 54.9 L4.51 53.51 L4.65 53.43 L4.86 53.51 L4.93
						 53.68 L4.86 53.92 L3.87 55.31 L3.73 55.39 L3.59 55.31 L3.45 55.14 L3.52 54.9 ZM1.2 58.24 L2.18 56.86 L2.32
						 56.77 L2.54 56.86 L2.61 57.02 L2.54 57.26 L1.55 58.65 L1.41 58.73 L1.27 58.65 L1.13 58.49 L1.2 58.24 Z"
					class="st4"/>
		</g>
		<g id="shape23-19" v:mID="23" v:groupContext="shape" transform="translate(210.193,21.0077) rotate(90)">
			<title>工作表.23</title>
			<path d="M0.07 14.37 L0 13.72 L0.14 13.07 L0.42 12.5 L0.92 12.17 L1.48 12.09 L1.97 12.17 L2.47 12.58 L2.75 13.15 L2.89
						 13.8 C2.75 15.11 1.97 15.6 0.92 15.27 L0.49 14.94 L0.07 14.37 ZM18.32 57.75 L18.39 58.4 L18.32 58.98 L18.03
						 59.55 L17.54 59.87 L16.98 60.04 L16.48 59.87 L15.99 59.55 L15.71 58.98 L15.64 58.32 L15.71 57.67 L15.99
						 57.18 L16.48 56.77 L17.05 56.69 L17.61 56.77 L18.1 57.18 L18.32 57.75 ZM1.48 14.86 L1.13 13.88 L1.13 13.72
						 L1.27 13.56 L1.48 13.56 L1.62 13.72 L1.97 14.62 L1.97 14.86 L1.83 15.03 L1.69 15.03 L1.48 14.86 ZM2.89 18.78
						 L2.32 17.06 L2.32 16.82 L2.47 16.66 L2.68 16.66 L2.82 16.82 L3.38 18.53 L3.38 18.78 L3.24 18.94 L3.1 18.94
						 L2.89 18.78 ZM4.23 22.77 L3.66 21.06 L3.66 20.82 L3.8 20.65 L4.02 20.65 L4.16 20.82 L4.72 22.53 L4.72 22.77
						 L4.58 22.94 L4.37 22.94 L4.23 22.77 ZM5.64 26.77 L5.07 25.06 L5.07 24.81 L5.21 24.65 L5.42 24.65 L5.57 24.81
						 L6.2 26.44 L6.2 26.69 L6.06 26.85 L5.85 26.85 L5.64 26.77 ZM7.04 30.68 L6.48 28.97 L6.48 28.72 L6.62 28.56
						 L6.83 28.56 L6.97 28.72 L7.54 30.36 L7.54 30.6 L7.4 30.76 L7.19 30.76 L7.04 30.68 ZM8.45 34.68 L7.89 32.96
						 L7.89 32.8 L8.03 32.64 L8.24 32.64 L8.38 32.8 L8.95 34.43 L8.95 34.68 L8.81 34.84 L8.59 34.84 L8.45 34.68
						 ZM9.86 38.59 L9.3 36.88 L9.3 36.72 L9.44 36.55 L9.65 36.55 L9.79 36.72 L10.36 38.43 L10.36 38.59 L10.21
						 38.75 L10 38.75 L9.86 38.59 ZM11.2 42.59 L10.57 40.96 L10.57 40.71 L10.71 40.55 L10.92 40.55 L11.06 40.71
						 L11.62 42.42 L11.62 42.59 L11.48 42.75 L11.27 42.75 L11.2 42.59 ZM12.61 46.58 L12.05 44.95 L12.05 44.71
						 L12.19 44.54 L12.4 44.54 L12.54 44.71 L13.1 46.42 L13.1 46.58 L12.96 46.74 L12.75 46.74 L12.61 46.58 ZM13.95
						 50.5 L13.38 48.86 L13.38 48.62 L13.53 48.46 L13.74 48.46 L13.88 48.62 L14.44 50.33 L14.44 50.58 L14.3 50.74
						 L14.16 50.74 L13.95 50.5 ZM15.36 54.49 L14.79 52.78 L14.79 52.53 L14.93 52.37 L15.08 52.37 L15.22 52.53
						 L15.78 54.25 L15.78 54.49 L15.64 54.65 L15.5 54.65 L15.36 54.49 ZM16.77 58.49 L16.2 56.77 L16.2 56.53 L16.34
						 56.37 L16.55 56.37 L16.7 56.53 L17.26 58.24 L17.26 58.49 L17.12 58.65 L16.98 58.65 L16.77 58.49 Z"
					class="st4"/>
		</g>
		<g id="shape24-21" v:mID="24" v:groupContext="shape" transform="translate(210.111,36.5765) rotate(90)">
			<title>工作表.24</title>
			<path d="M14.5 13.23 L14.83 12.66 L15.22 12.25 C16.13 11.93 17.04 12.5 17.04 13.8 L16.97 14.46 L16.71 15.03 L16.26 15.35
						 L15.8 15.43 L15.28 15.35 L14.83 15.03 L14.57 14.46 L14.44 13.88 L14.5 13.23 ZM2.54 58.98 L2.28 59.55 L1.82
						 59.87 L1.37 60.04 L0.85 59.87 L0.39 59.55 L0.13 58.98 L0 58.4 L0.07 57.75 L0.39 57.18 C1.11 56.37 2.08 56.53
						 2.47 57.67 L2.6 58.32 L2.54 58.98 ZM1.17 58.24 L15.48 13.72 L15.61 13.56 L15.8 13.56 L15.93 13.72 L15.93
						 13.88 L1.56 58.49 L1.43 58.65 L1.24 58.65 L1.11 58.49 L1.11 58.24 L1.17 58.24 Z" class="st4"/>
		</g>
		<g id="shape25-23" v:mID="25" v:groupContext="shape" transform="translate(210.437,5.79124) rotate(90)">
			<title>工作表.25</title>
			<path d="M2.26 59.63 L1.78 59.95 L1.23 60.04 L0.75 59.87 L0.34 59.46 L0.07 58.89 L0 58.32 L0.14 57.66 L0.48 57.17 L0.96
						 56.84 C1.92 56.6 2.74 57.34 2.74 58.56 L2.6 59.14 L2.26 59.63 ZM45.56 12.99 L46.04 12.66 L46.52 12.58 L47.07
						 12.74 L47.48 13.15 L47.76 13.73 L47.82 14.38 L47.69 14.95 L47.35 15.53 L46.87 15.85 L46.39 15.93 L45.91
						 15.77 L45.43 15.36 L45.15 14.79 L45.08 14.13 L45.22 13.56 L45.56 12.99 ZM46.59 14.54 L1.51 58.56 L1.37 58.64
						 L1.23 58.56 L1.16 58.32 L1.23 58.15 L46.32 14.13 L46.52 14.05 L46.66 14.22 L46.73 14.38 L46.59 14.54 Z"
					class="st4"/>
		</g>
		<g id="shape28-25" v:mID="28" v:groupContext="shape" transform="translate(199.6,-0.75)">
			<title>工作表.28</title>
			<desc>第一 第二 第三 第四大雲雷澍洪雨</desc>
			<v:textBlock v:margins="rect(0,0,0,0)" v:tabSpace="42.5197" v:verticalAlign="0"/>
			<v:textRect cx="42.5197" cy="30.7677" width="85.04" height="58.5355"/>
			<rect x="0" y="1.5" width="85.0394" height="58.5355" class="st1"/>
			<text x="0" y="12.4" class="st2" v:langID="1028"><v:paragraph v:spLine="-1.4"/><v:tabList/>第一<v:newlineChar/><tspan
						x="0" dy="1.453em" class="st3">第二<v:newlineChar/></tspan><tspan x="0" dy="1.453em" class="st3">第三<v:newlineChar/></tspan><tspan
						x="0" dy="1.453em" class="st3">第四大雲雷澍洪雨</tspan></text>		</g>
		<g id="shape30-31" v:mID="30" v:groupContext="shape" transform="translate(152.476,7.81442) rotate(90)">
			<title>工作表.30</title>
			<path d="M0 53.51 C0 55.31 0 56.8 0 56.8 L15.53 56.8 C15.53 56.8 15.53 58.24 15.53 60.04 C15.53 58.24 15.53 56.8 15.53
						 56.8 L31.06 56.8 C31.06 56.8 31.06 55.31 31.06 53.51 L0 53.51 Z" class="st5"/>
			<path d="M0 53.51 C0 55.31 0 56.8 0 56.8 L15.53 56.8 C15.53 56.8 15.53 58.24 15.53 60.04 C15.53 58.24 15.53 56.8 15.53
						 56.8 L31.06 56.8 C31.06 56.8 31.06 55.31 31.06 53.51" class="st6"/>
		</g>
	</g>
</svg>
