<?xml version="1.0" encoding="UTF-8" standalone="no"?>
<!DOCTYPE svg PUBLIC "-//W3C//DTD SVG 1.1//EN" "http://www.w3.org/Graphics/SVG/1.1/DTD/svg11.dtd">
<!-- 由 Microsoft Visio, SVG Export 產生 繪圖1.svg 頁-1 -->
<svg xmlns="http://www.w3.org/2000/svg" xmlns:xlink="http://www.w3.org/1999/xlink" xmlns:ev="http://www.w3.org/2001/xml-events"
		width="3.55372in" height="0.400751in" viewBox="0 0 255.868 28.8541" xml:space="preserve" color-interpolation-filters="sRGB"
		class="st8">
	<style type="text/css">
	<![CDATA[
		.st1 {fill:none;stroke:none;stroke-linecap:butt;stroke-width:0.749998}
		.st2 {fill:#000000;font-family:新細明體;font-size:0.833336em}
		.st3 {fill:none;stroke:none;stroke-width:0.999997}
		.st4 {fill:none;stroke:none;stroke-width:0.999999}
		.st5 {fill:none}
		.st6 {stroke:#040000;stroke-linecap:round;stroke-linejoin:round;stroke-width:0.705461}
		.st7 {stroke:#000000;stroke-linecap:round;stroke-linejoin:round;stroke-width:1}
		.st8 {fill:none;fill-rule:evenodd;font-size:12px;overflow:visible;stroke-linecap:square;stroke-miterlimit:3}
	]]>
	</style>

	<g>
		<title>頁-1</title>
		<g id="group13-1" transform="translate(0.749998,-0.749998)">
			<title>工作表.13</title>
			<g id="shape2-2" transform="translate(50.3384,-13.8092)">
				<title>工作表.1</title>
				<desc>隨物著中而受—凡心想智力見諸法異</desc>
				<rect x="0" y="15.3092" width="175.441" height="13.5449" class="st1"/>
				<text x="-0" y="25.08" class="st2">隨物著中而受　凡心想智力，見諸法異</text>			</g>
			<g id="shape3-5" transform="translate(1.59872E-14,-5.98314)">
				<title>工作表.4</title>
				<desc>心如水精</desc>
				<rect x="0" y="15.3092" width="45.1495" height="13.5449" class="st1"/>
				<text x="-0" y="25.08" class="st2">心如水精</text>			</g>
			<g id="shape4-8" transform="translate(120.077,0)">
				<title>工作表.5</title>
				<desc>———————諸法實相非空不空、非有不有</desc>
				<rect x="0" y="15.3092" width="134.291" height="13.5449" class="st1"/>
				<text x="-0" y="25.08" class="st2">諸法實相非空不空、非有不有</text>			</g>
			<g id="shape6-11" transform="translate(70.3896,7.05735) rotate(90)">
				<title>工作表.6</title>
				<path d="M0 22.61 C0 24.34 0.58 25.73 1.33 25.73 L7.65 25.73 C8.4 25.73 8.98 27.12 8.98 28.85 C8.98 27.12 9.6 25.73
							 10.35 25.73 L14.8 25.73 C15.55 25.73 16.13 24.34 16.13 22.61 L0 22.61 Z" class="st3"/>
			</g>
			<g id="shape8-13" transform="translate(70.3896,7.05735) rotate(90)">
				<title>工作表.8</title>
				<path d="M0 22.61 C0 24.34 0.58 25.73 1.33 25.73 L7.65 25.73 C8.4 25.73 8.98 27.12 8.98 28.85 C8.98 27.12 9.6 25.73
							 10.35 25.73 L14.8 25.73 C15.55 25.73 16.13 24.34 16.13 22.61 L0 22.61 Z" class="st4"/>
			</g>
			<g id="shape9-15" transform="translate(70.3896,7.05735) rotate(90)">
				<title>工作表.9</title>
				<path d="M0 22.61 C0 24.34 0.58 25.73 1.33 25.73 L7.65 25.73 C8.4 25.73 8.98 27.12 8.98 28.85 C8.98 27.12 9.6 25.73
							 10.35 25.73 L14.8 25.73 C15.55 25.73 16.13 24.34 16.13 22.61 L0 22.61 Z" class="st5"/>
				<path d="M0 22.61 C0 24.34 0.58 25.73 1.33 25.73 L7.65 25.73 C8.4 25.73 8.98 27.12 8.98 28.85 C8.98 27.12 9.6 25.73
							 10.35 25.73 L14.8 25.73 C15.55 25.73 16.13 24.34 16.13 22.61" class="st6"/>
			</g>
			<g id="shape10-18" transform="translate(50.2736,-6.7096)">
				<title>工作表.10</title>
				<path d="M0 28.85 L68.03 28.85" class="st7"/>
			</g>
			<g id="shape11-21" transform="translate(111.144,-20.7933)">
				<title>工作表.11</title>
				<path d="M0 28.85 L10 28.85" class="st7"/>
			</g>
		</g>
	</g>
</svg>
