<?xml version="1.0" encoding="UTF-8" standalone="no"?>
<!DOCTYPE svg PUBLIC "-//W3C//DTD SVG 1.1//EN" "http://www.w3.org/Graphics/SVG/1.1/DTD/svg11.dtd">
<!-- 由 Microsoft Visio, SVG Export 產生 A00301.svg 頁-1 -->
<svg xmlns="http://www.w3.org/2000/svg" xmlns:xlink="http://www.w3.org/1999/xlink" xmlns:ev="http://www.w3.org/2001/xml-events"
		xmlns:v="http://schemas.microsoft.com/visio/2003/SVGExtensions/" width="3.21572in" height="1.20194in"
		viewBox="0 0 231.531 86.5393" xml:space="preserve" color-interpolation-filters="sRGB" class="st7">
	<v:documentProperties v:langID="1028" v:viewMarkup="false"/>

	<style type="text/css">
	<![CDATA[
		.st1 {fill:none;stroke:none;stroke-linecap:butt;stroke-width:0.75}
		.st2 {fill:#000000;font-family:新細明體;font-size:0.833336em}
		.st3 {font-size:1em}
		.st4 {font-family:Times New Roman;font-size:1em}
		.st5 {fill:none}
		.st6 {stroke:#040000;stroke-linecap:round;stroke-linejoin:round;stroke-width:0.705463}
		.st7 {fill:none;fill-rule:evenodd;font-size:12px;overflow:visible;stroke-linecap:square;stroke-miterlimit:3}
	]]>
	</style>

	<g v:mID="0" v:index="1" v:groupContext="foregroundPage">
		<title>頁-1</title>
		<v:pageProperties v:drawingScale="0.0393701" v:pageScale="0.0393701" v:drawingUnits="24" v:shadowOffsetX="9"
				v:shadowOffsetY="-9"/>
		<g id="shape1-1" v:mID="1" v:groupContext="shape" transform="translate(73.7919,-29.0964)">
			<title>工作表.1</title>
			<desc>身能飛行如鳥無礙 移遠令近不往而到 此沒彼出 一念能至</desc>
			<v:textBlock v:margins="rect(0,0,0,0)" v:tabSpace="42.5197"/>
			<v:textRect cx="47.4803" cy="58.1929" width="94.97" height="56.6929"/>
			<rect x="0" y="29.8464" width="94.9606" height="56.6929" class="st1"/>
			<text x="0" y="40.02" class="st2" v:langID="1028"><v:paragraph v:spLine="-1.4"/><v:tabList/>身能飛行，如鳥無礙<v:newlineChar/><tspan
						x="0" dy="1.453em" class="st3">移遠令近</tspan>，不往而到<v:newlineChar/><tspan x="0" dy="1.453em" class="st3">此沒彼出<v:newlineChar/></tspan><tspan
						x="0" dy="1.453em" class="st3">一念能至</tspan></text>		</g>
		<g id="shape2-7" v:mID="2" v:groupContext="shape" transform="translate(43.2815,-51.9295)">
			<title>工作表.2</title>
			<desc>能到</desc>
			<v:textBlock v:margins="rect(0,0,0,0)" v:tabSpace="42.5197"/>
			<v:textRect cx="13.3692" cy="79.7669" width="26.74" height="13.5449"/>
			<rect x="0" y="72.9944" width="26.7384" height="13.5449" class="st1"/>
			<text x="-0" y="83.4" class="st2" v:langID="1028"><v:paragraph v:spLine="-1.4"/><v:tabList/>能到</text>		</g>
		<g id="shape4-10" v:mID="4" v:groupContext="shape" transform="translate(0.75,-25.9074)">
			<title>工作表.4</title>
			<desc>如意通</desc>
			<v:textBlock v:margins="rect(0,0,0,0)" v:tabSpace="42.5197"/>
			<v:textRect cx="16.9311" cy="79.7669" width="33.87" height="13.5449"/>
			<rect x="0" y="72.9944" width="33.8622" height="13.5449" class="st1"/>
			<text x="0" y="83.4" class="st2" v:langID="1028"><v:paragraph v:spLine="-1.4"/><v:tabList/>如意通</text>		</g>
		<g id="shape9-13" v:mID="9" v:groupContext="shape" transform="translate(44.0282,-0.75)">
			<title>工作表.9</title>
			<desc>轉變 —— 大小一多轉變自在無有久近 聖如意 — 淨觀不淨不淨觀淨唯佛</desc>
			<v:textBlock v:margins="rect(0,0,0,0)" v:tabSpace="42.5197"/>
			<v:textRect cx="93.3767" cy="71.2315" width="186.76" height="30.6156"/>
			<rect x="0" y="55.9238" width="186.753" height="30.6156" class="st1"/>
			<text x="0" y="67.6" class="st2" v:langID="1028"><v:paragraph v:spLine="-1.4"/><v:tabList/>轉變<tspan class="st4"> </tspan><tspan
						class="st4">——</tspan><tspan class="st4"> </tspan>大小一多轉變，自在無有久近<v:newlineChar/><tspan x="0" dy="1.453em"
						class="st3">聖如意</tspan><tspan class="st4"> </tspan><tspan class="st4">—</tspan><tspan class="st4"> </tspan>淨觀不淨，不淨觀淨（唯佛）</text>		</g>
		<g id="shape26-23" v:mID="26" v:groupContext="shape" transform="translate(151.404,7.04999) rotate(90)">
			<title>工作表.26</title>
			<path d="M0 79.03 C0 81.09 1.62 82.78 3.64 82.78 L18.33 82.78 C20.35 82.78 21.97 84.48 21.97 86.54 C21.97 84.48 23.59
						 82.78 25.61 82.78 L40.3 82.78 C42.31 82.78 43.94 81.09 43.94 79.03 L0 79.03 Z" class="st5"/>
			<path d="M0 79.03 C0 81.09 1.62 82.78 3.64 82.78 L18.33 82.78 C20.35 82.78 21.97 84.48 21.97 86.54 C21.97 84.48 23.59
						 82.78 25.61 82.78 L40.3 82.78 C42.31 82.78 43.94 81.09 43.94 79.03" class="st6"/>
		</g>
		<g id="shape35-26" v:mID="35" v:groupContext="shape" transform="translate(120.223,27.6791) rotate(90)">
			<title>工作表.35</title>
			<path d="M0 79.03 C0 81.09 1.88 82.78 4.23 82.78 L21.28 82.78 C23.63 82.78 25.51 84.48 25.51 86.54 C25.51 84.48 27.4
						 82.78 29.74 82.78 L46.79 82.78 C49.14 82.78 51.02 81.09 51.02 79.03 L0 79.03 Z" class="st5"/>
			<path d="M0 79.03 C0 81.09 1.88 82.78 4.23 82.78 L21.28 82.78 C23.63 82.78 25.51 84.48 25.51 86.54 C25.51 84.48 27.4
						 82.78 29.74 82.78 L46.79 82.78 C49.14 82.78 51.02 81.09 51.02 79.03" class="st6"/>
		</g>
	</g>
</svg>
