<?xml version="1.0" encoding="UTF-8" standalone="no"?>
<!DOCTYPE svg PUBLIC "-//W3C//DTD SVG 1.1//EN" "http://www.w3.org/Graphics/SVG/1.1/DTD/svg11.dtd">
<!-- 由 Microsoft Visio, SVG Export 產生 A00302.svg 頁-1 -->
<svg xmlns="http://www.w3.org/2000/svg" xmlns:xlink="http://www.w3.org/1999/xlink" xmlns:ev="http://www.w3.org/2001/xml-events"
		xmlns:v="http://schemas.microsoft.com/visio/2003/SVGExtensions/" width="3.58973in" height="0.400751in"
		viewBox="0 0 258.461 28.8541" xml:space="preserve" color-interpolation-filters="sRGB" class="st8">
	<v:documentProperties v:langID="1028" v:viewMarkup="false"/>

	<style type="text/css">
	<![CDATA[
		.st1 {fill:none;stroke:none;stroke-linecap:butt;stroke-width:0.75}
		.st2 {fill:#000000;font-family:新細明體;font-size:0.833336em}
		.st3 {font-family:Times New Roman;font-size:1em}
		.st4 {fill:#000000;font-family:Times New Roman;font-size:0.833336em}
		.st5 {font-family:新細明體;font-size:1em}
		.st6 {fill:none}
		.st7 {stroke:#040000;stroke-linecap:round;stroke-linejoin:round;stroke-width:0.705463}
		.st8 {fill:none;fill-rule:evenodd;font-size:12px;overflow:visible;stroke-linecap:square;stroke-miterlimit:3}
	]]>
	</style>

	<g v:mID="0" v:index="1" v:groupContext="foregroundPage">
		<title>頁-1</title>
		<v:pageProperties v:drawingScale="0.0393701" v:pageScale="0.0393701" v:drawingUnits="24" v:shadowOffsetX="9"
				v:shadowOffsetY="-9"/>
		<g id="shape1-1" v:mID="1" v:groupContext="shape" transform="translate(51.0885,-14.5592)">
			<title>工作表.1</title>
			<desc>隨物著中而受—凡心想智力見諸法異</desc>
			<v:textBlock v:margins="rect(0,0,0,0)" v:tabSpace="42.5197"/>
			<v:textRect cx="87.7205" cy="22.0816" width="175.45" height="13.5449"/>
			<rect x="0" y="15.3092" width="175.441" height="13.5449" class="st1"/>
			<text x="0" y="25.2" class="st2" v:langID="1028"><v:paragraph/><v:tabList/>隨物著中而受<tspan class="st3">—</tspan>凡心想智力，見諸法異 </text>		</g>
		<g id="shape4-5" v:mID="4" v:groupContext="shape" transform="translate(0.75,-6.73316)">
			<title>工作表.4</title>
			<desc>心如水精</desc>
			<v:textBlock v:margins="rect(0,0,0,0)" v:tabSpace="42.5197"/>
			<v:textRect cx="22.5748" cy="22.0816" width="45.15" height="13.5449"/>
			<rect x="0" y="15.3092" width="45.1496" height="13.5449" class="st1"/>
			<text x="0" y="25.2" class="st2" v:langID="1028"><v:paragraph/><v:tabList/>心如水精</text>		</g>
		<g id="shape5-8" v:mID="5" v:groupContext="shape" transform="translate(51.4902,-0.75)">
			<title>工作表.5</title>
			<desc>———————諸法實相非空不空、非有不有</desc>
			<v:textBlock v:margins="rect(0,0,0,0)" v:tabSpace="42.5197"/>
			<v:textRect cx="103.11" cy="22.0816" width="206.23" height="13.5449"/>
			<rect x="0" y="15.3092" width="206.22" height="13.5449" class="st1"/>
			<text x="0" y="25.2" class="st4" v:langID="1028"><v:paragraph/><v:tabList/>———————<tspan class="st5">諸法實相非空不空</tspan><tspan
						class="st5">、</tspan><tspan class="st5">非有不有</tspan></text>		</g>
		<g id="shape13-14" v:mID="13" v:groupContext="shape" transform="translate(71.1316,6.30737) rotate(90)">
			<title>工作表.13</title>
			<path d="M0 22.61 C0 24.34 0.58 25.73 1.33 25.73 L7.65 25.73 C8.4 25.73 8.98 27.12 8.98 28.85 C8.98 27.12 9.6 25.73 10.35
						 25.73 L14.8 25.73 C15.55 25.73 16.13 24.34 16.13 22.61 L0 22.61 Z" class="st6"/>
			<path d="M0 22.61 C0 24.34 0.58 25.73 1.33 25.73 L7.65 25.73 C8.4 25.73 8.98 27.12 8.98 28.85 C8.98 27.12 9.6 25.73 10.35
						 25.73 L14.8 25.73 C15.55 25.73 16.13 24.34 16.13 22.61" class="st7"/>
		</g>
	</g>
</svg>
