<?xml version="1.0" encoding="UTF-8" standalone="no"?>
<!DOCTYPE svg PUBLIC "-//W3C//DTD SVG 1.1//EN" "http://www.w3.org/Graphics/SVG/1.1/DTD/svg11.dtd">
<!-- 由 Microsoft Visio, SVG Export 產生 A00304.svg 頁-1 -->
<svg xmlns="http://www.w3.org/2000/svg" xmlns:xlink="http://www.w3.org/1999/xlink" xmlns:ev="http://www.w3.org/2001/xml-events"
		xmlns:v="http://schemas.microsoft.com/visio/2003/SVGExtensions/" width="1.91196in" height="0.392029in"
		viewBox="0 0 137.661 28.2261" xml:space="preserve" color-interpolation-filters="sRGB" class="st6">
	<v:documentProperties v:langID="1028" v:viewMarkup="false"/>

	<style type="text/css">
	<![CDATA[
		.st1 {fill:none;stroke:none;stroke-linecap:butt;stroke-width:0.75}
		.st2 {fill:#000000;font-family:新細明體;font-size:0.833336em}
		.st3 {fill:#000000;font-family:Times New Roman;font-size:0.833336em}
		.st4 {fill:none}
		.st5 {stroke:#040000;stroke-linecap:round;stroke-linejoin:round;stroke-width:0.705463}
		.st6 {fill:none;fill-rule:evenodd;font-size:12px;overflow:visible;stroke-linecap:square;stroke-miterlimit:3}
	]]>
	</style>

	<g v:mID="0" v:index="1" v:groupContext="foregroundPage">
		<title>頁-1</title>
		<v:pageProperties v:drawingScale="0.0393701" v:pageScale="0.0393701" v:drawingUnits="24" v:shadowOffsetX="9"
				v:shadowOffsetY="-9"/>
		<g id="shape1-1" v:mID="1" v:groupContext="shape" transform="translate(49.4979,-13.9311)">
			<title>工作表.1</title>
			<desc>易解空</desc>
			<v:textBlock v:margins="rect(0,0,0,0)" v:tabSpace="42.5197"/>
			<v:textRect cx="16.9311" cy="21.4536" width="33.87" height="13.5449"/>
			<rect x="0" y="14.6812" width="33.8622" height="13.5449" class="st1"/>
			<text x="0" y="24.57" class="st2" v:langID="1028"><v:paragraph/><v:tabList/>易解空</text>		</g>
		<g id="shape2-4" v:mID="2" v:groupContext="shape" transform="translate(77.3847,-13.9312)">
			<title>工作表.2</title>
			<desc>—</desc>
			<v:textBlock v:margins="rect(0,0,0,0)" v:tabSpace="42.5197"/>
			<v:textRect cx="16.9311" cy="21.4536" width="33.87" height="13.5449"/>
			<rect x="0" y="14.6812" width="33.8622" height="13.5449" class="st1"/>
			<text x="5.3" y="24.45" class="st3" v:langID="1028"><v:paragraph/><v:tabList/>— </text>		</g>
		<g id="shape3-7" v:mID="3" v:groupContext="shape" transform="translate(91.7617,-13.9312)">
			<title>工作表.3</title>
			<desc>心不著處</desc>
			<v:textBlock v:margins="rect(0,0,0,0)" v:tabSpace="42.5197"/>
			<v:textRect cx="22.5748" cy="21.4536" width="45.15" height="13.5449"/>
			<rect x="0" y="14.6812" width="45.1496" height="13.5449" class="st1"/>
			<text x="-0" y="24.57" class="st2" v:langID="1028"><v:paragraph/><v:tabList/>心不著處</text>		</g>
		<g id="shape4-10" v:mID="4" v:groupContext="shape" transform="translate(0.75,-6.64138)">
			<title>工作表.4</title>
			<desc>法有二種</desc>
			<v:textBlock v:margins="rect(0,0,0,0)" v:tabSpace="42.5197"/>
			<v:textRect cx="33.8622" cy="21.4536" width="67.73" height="13.5449"/>
			<rect x="0" y="14.6812" width="67.7245" height="13.5449" class="st1"/>
			<text x="0" y="24.57" class="st2" v:langID="1028"><v:paragraph/><v:tabList/>法有二種  </text>		</g>
		<g id="shape5-13" v:mID="5" v:groupContext="shape" transform="translate(49.4969,-0.75)">
			<title>工作表.5</title>
			<desc>難解空</desc>
			<v:textBlock v:margins="rect(0,0,0,0)" v:tabSpace="42.5197"/>
			<v:textRect cx="16.9311" cy="21.4536" width="33.87" height="13.5449"/>
			<rect x="0" y="14.6812" width="33.8622" height="13.5449" class="st1"/>
			<text x="0" y="24.57" class="st2" v:langID="1028"><v:paragraph/><v:tabList/>難解空</text>		</g>
		<g id="shape6-16" v:mID="6" v:groupContext="shape" transform="translate(77.3838,-0.750051)">
			<title>工作表.6</title>
			<desc>—</desc>
			<v:textBlock v:margins="rect(0,0,0,0)" v:tabSpace="42.5197"/>
			<v:textRect cx="16.9311" cy="21.4536" width="33.87" height="13.5449"/>
			<rect x="0" y="14.6812" width="33.8622" height="13.5449" class="st1"/>
			<text x="5.3" y="24.45" class="st3" v:langID="1028"><v:paragraph/><v:tabList/>— </text>		</g>
		<g id="shape7-19" v:mID="7" v:groupContext="shape" transform="translate(91.7608,-0.750051)">
			<title>工作表.7</title>
			<desc>心著處</desc>
			<v:textBlock v:margins="rect(0,0,0,0)" v:tabSpace="42.5197"/>
			<v:textRect cx="16.9311" cy="21.4536" width="33.87" height="13.5449"/>
			<rect x="0" y="14.6812" width="33.8622" height="13.5449" class="st1"/>
			<text x="-0" y="24.57" class="st2" v:langID="1028"><v:paragraph/><v:tabList/>心著處</text>		</g>
		<g id="shape14-22" v:mID="14" v:groupContext="shape" transform="translate(70.5036,6.41929) rotate(90)">
			<title>工作表.14</title>
			<path d="M0 21.96 C0 23.7 0.56 25.09 1.23 25.09 L6.77 25.09 C7.44 25.09 8 26.49 8 28.23 C8 26.49 8.56 25.09 9.26 25.09
						 L13.65 25.09 C14.32 25.09 14.88 23.7 14.88 21.96 L0 21.96 Z" class="st4"/>
			<path d="M0 21.96 C0 23.7 0.56 25.09 1.23 25.09 L6.77 25.09 C7.44 25.09 8 26.49 8 28.23 C8 26.49 8.56 25.09 9.26 25.09
						 L13.65 25.09 C14.32 25.09 14.88 23.7 14.88 21.96" class="st5"/>
		</g>
	</g>
</svg>
