<?xml version="1.0" encoding="UTF-8" standalone="no"?>
<!DOCTYPE svg PUBLIC "-//W3C//DTD SVG 1.1//EN" "http://www.w3.org/Graphics/SVG/1.1/DTD/svg11.dtd">
<!-- 由 Microsoft Visio, SVG Export 產生 A02305.svg 頁-1 -->
<svg xmlns="http://www.w3.org/2000/svg" xmlns:xlink="http://www.w3.org/1999/xlink" xmlns:ev="http://www.w3.org/2001/xml-events"
		xmlns:v="http://schemas.microsoft.com/visio/2003/SVGExtensions/" width="2.59912in" height="0.425821in"
		viewBox="0 0 187.136 30.6591" xml:space="preserve" color-interpolation-filters="sRGB" class="st6">
	<v:documentProperties v:langID="1028" v:viewMarkup="false"/>

	<style type="text/css">
	<![CDATA[
		.st1 {fill:none;stroke:none;stroke-linecap:butt;stroke-width:0.75}
		.st2 {fill:#000000;font-family:新細明體;font-size:0.833336em}
		.st3 {font-size:1em}
		.st4 {fill:none}
		.st5 {stroke:#040000;stroke-linecap:round;stroke-linejoin:round;stroke-width:0.705463}
		.st6 {fill:none;fill-rule:evenodd;font-size:12px;overflow:visible;stroke-linecap:square;stroke-miterlimit:3}
	]]>
	</style>

	<g v:mID="0" v:index="1" v:groupContext="foregroundPage">
		<title>頁-1</title>
		<v:pageProperties v:drawingScale="0.0393701" v:pageScale="0.0393701" v:drawingUnits="24" v:shadowOffsetX="9"
				v:shadowOffsetY="-9"/>
		<g id="shape1-1" v:mID="1" v:groupContext="shape" transform="translate(50.9376,-0.75)">
			<title>工作表.1</title>
			<desc>一、世界法實有實相法中無 二、生死人有不生死人無</desc>
			<v:textBlock v:margins="rect(0,0,0,0)" v:tabSpace="42.5197"/>
			<v:textRect cx="67.7245" cy="16.0796" width="135.45" height="29.1591"/>
			<rect x="0" y="1.5" width="135.449" height="29.1591" class="st1"/>
			<text x="0" y="12.45" class="st2" v:langID="1028"><v:paragraph v:spLine="-1.4"/><v:tabList/>一、世界法實有，實相法中無<v:newlineChar/><tspan
						x="0" dy="1.453em" class="st3">二</tspan>、生死人有，不生死人無</text>		</g>
		<g id="shape2-5" v:mID="2" v:groupContext="shape" transform="translate(0.75,-8.90257)">
			<title>工作表.2</title>
			<desc>有無生死</desc>
			<v:textBlock v:margins="rect(0,0,0,0)" v:tabSpace="42.5197"/>
			<v:textRect cx="22.5748" cy="23.8867" width="45.15" height="13.5449"/>
			<rect x="0" y="17.1143" width="45.1496" height="13.5449" class="st1"/>
			<text x="0" y="27.52" class="st2" v:langID="1028"><v:paragraph v:spLine="-1.4"/><v:tabList/>有無生死</text>		</g>
		<g id="shape13-8" v:mID="13" v:groupContext="shape" transform="translate(73.3947,8.26182) rotate(90)">
			<title>工作表.13</title>
			<path d="M0 24.13 C0 25.93 0 27.42 0 27.42 L7.53 27.42 C7.53 27.42 7.53 28.86 7.53 30.66 C7.53 28.86 7.53 27.42 7.53
						 27.42 L15.07 27.42 C15.07 27.42 15.07 25.93 15.07 24.13 L0 24.13 Z" class="st4"/>
			<path d="M0 24.13 C0 25.93 0 27.42 0 27.42 L7.53 27.42 C7.53 27.42 7.53 28.86 7.53 30.66 C7.53 28.86 7.53 27.42 7.53
						 27.42 L15.07 27.42 C15.07 27.42 15.07 25.93 15.07 24.13" class="st5"/>
		</g>
	</g>
</svg>
