<?xml version="1.0" encoding="UTF-8" standalone="no"?>
<!DOCTYPE svg PUBLIC "-//W3C//DTD SVG 1.1//EN" "http://www.w3.org/Graphics/SVG/1.1/DTD/svg11.dtd">
<!-- 由 Microsoft Visio, SVG Export 產生 A02306.svg 頁-1 -->
<svg xmlns="http://www.w3.org/2000/svg" xmlns:xlink="http://www.w3.org/1999/xlink" xmlns:ev="http://www.w3.org/2001/xml-events"
		xmlns:v="http://schemas.microsoft.com/visio/2003/SVGExtensions/" width="2.44043in" height="0.414534in"
		viewBox="0 0 175.711 29.8464" xml:space="preserve" color-interpolation-filters="sRGB" class="st6">
	<v:documentProperties v:langID="1028" v:viewMarkup="false"/>

	<style type="text/css">
	<![CDATA[
		.st1 {fill:none;stroke:none;stroke-linecap:butt;stroke-width:0.75}
		.st2 {fill:#000000;font-family:新細明體;font-size:0.833336em}
		.st3 {font-size:1em}
		.st4 {stroke:#040000;stroke-linecap:round;stroke-linejoin:round;stroke-width:0.705463}
		.st5 {fill:none}
		.st6 {fill:none;fill-rule:evenodd;font-size:12px;overflow:visible;stroke-linecap:square;stroke-miterlimit:3}
	]]>
	</style>

	<g v:mID="0" v:index="1" v:groupContext="foregroundPage">
		<title>頁-1</title>
		<v:pageProperties v:drawingScale="0.0393701" v:pageScale="0.0393701" v:drawingUnits="24" v:shadowOffsetX="9"
				v:shadowOffsetY="-9"/>
		<g id="shape2-1" v:mID="2" v:groupContext="shape" transform="translate(51.0508,-0.75)">
			<title>工作表.2</title>
			<desc>無外道實我　　非我 有假名我　　非無我</desc>
			<v:textBlock v:margins="rect(0,0,0,0)" v:tabSpace="42.5197"/>
			<v:textRect cx="57.8432" cy="15.6732" width="115.69" height="28.3464"/>
			<rect x="0" y="1.5" width="115.686" height="28.3464" class="st1"/>
			<text x="0" y="12.04" class="st2" v:langID="1028"><v:paragraph v:spLine="-1.4"/><v:tabList/>無外道實我　　非我<v:newlineChar/><tspan
						x="0" dy="1.453em" class="st3">有假名我</tspan>　　非無我</text>		</g>
		<g id="shape4-5" v:mID="4" v:groupContext="shape" transform="translate(0.75,-8.43971)">
			<title>工作表.4</title>
			<desc>有我無我</desc>
			<v:textBlock v:margins="rect(0,0,0,0)" v:tabSpace="42.5197"/>
			<v:textRect cx="22.5748" cy="23.074" width="45.15" height="13.5449"/>
			<rect x="0" y="16.3015" width="45.1496" height="13.5449" class="st1"/>
			<text x="0" y="26.71" class="st2" v:langID="1028"><v:paragraph v:spLine="-1.4"/><v:tabList/>有我無我</text>		</g>
		<g id="shape6-8" v:mID="6" v:groupContext="shape" transform="translate(152.386,-8.08865)">
			<title>工作表.6</title>
			<desc>般若</desc>
			<v:textBlock v:margins="rect(0,0,0,0)" v:tabSpace="42.5197"/>
			<v:textRect cx="11.2874" cy="23.074" width="22.58" height="13.5449"/>
			<rect x="0" y="16.3015" width="22.5748" height="13.5449" class="st1"/>
			<text x="0" y="26.71" class="st2" v:langID="1028"><v:paragraph v:spLine="-1.4"/><v:tabList/>般若</text>		</g>
		<g id="shape19-11" v:mID="19" v:groupContext="shape" transform="translate(103.286,-21.1861)">
			<title>工作表.19</title>
			<path d="M0 29.85 L15.08 29.85" class="st4"/>
		</g>
		<g id="shape21-14" v:mID="21" v:groupContext="shape" transform="translate(93.7447,-7.0129)">
			<title>工作表.21</title>
			<path d="M0 29.85 L15.08 29.85" class="st4"/>
		</g>
		<g id="shape22-17" v:mID="22" v:groupContext="shape" transform="translate(72.6687,8.21289) rotate(90)">
			<title>工作表.22</title>
			<path d="M0 23.32 C0 25.12 0 26.61 0 26.61 L7.53 26.61 C7.53 26.61 7.53 28.05 7.53 29.85 C7.53 28.05 7.53 26.61 7.53
						 26.61 L15.07 26.61 C15.07 26.61 15.07 25.12 15.07 23.32 L0 23.32 Z" class="st5"/>
			<path d="M0 23.32 C0 25.12 0 26.61 0 26.61 L7.53 26.61 C7.53 26.61 7.53 28.05 7.53 29.85 C7.53 28.05 7.53 26.61 7.53
						 26.61 L15.07 26.61 C15.07 26.61 15.07 25.12 15.07 23.32" class="st4"/>
		</g>
		<g id="shape23-20" v:mID="23" v:groupContext="shape" transform="translate(120.136,8.21289) rotate(-90) scale(-1,1)">
			<title>工作表.23</title>
			<path d="M0 23.32 C0 25.12 0 26.61 0 26.61 L7.53 26.61 C7.53 26.61 7.53 28.05 7.53 29.85 C7.53 28.05 7.53 26.61 7.53
						 26.61 L15.07 26.61 C15.07 26.61 15.07 25.12 15.07 23.32 L0 23.32 Z" class="st5"/>
			<path d="M0 23.32 C0 25.12 0 26.61 0 26.61 L7.53 26.61 C7.53 26.61 7.53 28.05 7.53 29.85 C7.53 28.05 7.53 26.61 7.53
						 26.61 L15.07 26.61 C15.07 26.61 15.07 25.12 15.07 23.32" class="st4"/>
		</g>
	</g>
</svg>
