<?xml version="1.0" encoding="UTF-8" standalone="no"?>
<!DOCTYPE svg PUBLIC "-//W3C//DTD SVG 1.1//EN" "http://www.w3.org/Graphics/SVG/1.1/DTD/svg11.dtd">
<!-- 由 Microsoft Visio, SVG Export 產生 A02501.svg 頁-1 -->
<svg xmlns="http://www.w3.org/2000/svg" xmlns:xlink="http://www.w3.org/1999/xlink" xmlns:ev="http://www.w3.org/2001/xml-events"
		xmlns:v="http://schemas.microsoft.com/visio/2003/SVGExtensions/" width="4.69209in" height="0.818232in"
		viewBox="0 0 337.831 58.9127" xml:space="preserve" color-interpolation-filters="sRGB" class="st6">
	<v:documentProperties v:langID="1028" v:viewMarkup="false"/>

	<style type="text/css">
	<![CDATA[
		.st1 {fill:none;stroke:none;stroke-linecap:butt;stroke-width:0.75}
		.st2 {fill:#000000;font-family:新細明體;font-size:0.833336em}
		.st3 {font-size:1em}
		.st4 {stroke:#040000;stroke-linecap:round;stroke-linejoin:round;stroke-width:0.705463}
		.st5 {fill:none}
		.st6 {fill:none;fill-rule:evenodd;font-size:12px;overflow:visible;stroke-linecap:square;stroke-miterlimit:3}
	]]>
	</style>

	<g v:mID="0" v:index="1" v:groupContext="foregroundPage">
		<title>頁-1</title>
		<v:pageProperties v:drawingScale="0.0393701" v:pageScale="0.0393701" v:drawingUnits="24" v:shadowOffsetX="9"
				v:shadowOffsetY="-9"/>
		<g id="shape2-1" v:mID="2" v:groupContext="shape" transform="translate(82.7521,-1.46982)">
			<title>工作表.2</title>
			<desc>喜根意識相應。 樂根五識相應。　　不能分別意識即生不能滿足。 　喜根意識相應。 　樂根意識相應。</desc>
			<v:textBlock v:margins="rect(0,0,0,0)" v:tabSpace="42.5197"/>
			<v:textRect cx="127.164" cy="30.5663" width="254.33" height="56.6929"/>
			<rect x="0" y="2.21982" width="254.329" height="56.6929" class="st1"/>
			<text x="0" y="12.4" class="st2" v:langID="1028"><v:paragraph v:spLine="-1.4"/><v:tabList/>喜根：意識相應。<v:newlineChar/><tspan
						x="0" dy="1.453em" class="st3">樂根</tspan>：五識相應。　　不能分別，意識即生，不能滿足。<v:newlineChar/><tspan x="0" dy="1.453em"
						class="st3">　</tspan>喜根：意識相應。<v:newlineChar/><tspan x="0" dy="1.453em" class="st3">　</tspan>樂根：意識相應。</text>		</g>
		<g id="shape3-7" v:mID="3" v:groupContext="shape" transform="translate(32.0094,-37.0665)">
			<title>工作表.3</title>
			<desc>下初禪</desc>
			<v:textBlock v:margins="rect(0,0,0,0)" v:tabSpace="42.5197"/>
			<v:textRect cx="22.5748" cy="52.1403" width="45.15" height="13.5449"/>
			<rect x="0" y="45.3678" width="45.1496" height="13.5449" class="st1"/>
			<text x="0" y="55.77" class="st2" v:langID="1028"><v:paragraph v:spLine="-1.4"/><v:tabList/>下：初禪</text>		</g>
		<g id="shape4-10" v:mID="4" v:groupContext="shape" transform="translate(77.1586,-23.9167)">
			<title>工作表.4</title>
			<v:textBlock v:margins="rect(0,0,0,0)" v:tabSpace="42.5197"/>
			<rect x="0" y="45.3678" width="11.2874" height="13.5449" class="st1"/>
		</g>
		<g id="shape7-12" v:mID="7" v:groupContext="shape" transform="translate(0.75,-19.7103)">
			<title>工作表.7</title>
			<desc>樂受</desc>
			<v:textBlock v:margins="rect(0,0,0,0)" v:tabSpace="42.5197"/>
			<v:textRect cx="11.2874" cy="52.1403" width="22.58" height="13.5449"/>
			<rect x="0" y="45.3678" width="22.5748" height="13.5449" class="st1"/>
			<text x="0" y="55.77" class="st2" v:langID="1028"><v:paragraph v:spLine="-1.4"/><v:tabList/>樂受</text>		</g>
		<g id="shape8-15" v:mID="8" v:groupContext="shape" transform="translate(32.0094,-0.75)">
			<title>工作表.8</title>
			<desc>中二禪 上三禪</desc>
			<v:textBlock v:margins="rect(0,0,0,0)" v:tabSpace="42.5197"/>
			<v:textRect cx="22.5748" cy="44.7395" width="45.15" height="28.3465"/>
			<rect x="0" y="30.5663" width="45.1496" height="28.3465" class="st1"/>
			<text x="0" y="41.11" class="st2" v:langID="1028"><v:paragraph v:spLine="-1.4"/><v:tabList/>中：二禪<v:newlineChar/><tspan
						x="0" dy="1.453em" class="st3">上</tspan>：三禪</text>		</g>
		<g id="shape24-19" v:mID="24" v:groupContext="shape" transform="translate(73.7421,-21.3385)">
			<title>工作表.24</title>
			<path d="M0 58.91 L17.31 58.91" class="st4"/>
		</g>
		<g id="shape29-22" v:mID="29" v:groupContext="shape" transform="translate(132.655,7.88522) rotate(90)">
			<title>工作表.29</title>
			<path d="M0 52.38 C0 54.18 0 55.67 0 55.67 L7.53 55.67 C7.53 55.67 7.53 57.11 7.53 58.91 C7.53 57.11 7.53 55.67 7.53
						 55.67 L15.07 55.67 C15.07 55.67 15.07 54.18 15.07 52.38 L0 52.38 Z" class="st5"/>
			<path d="M0 52.38 C0 54.18 0 55.67 0 55.67 L7.53 55.67 C7.53 55.67 7.53 57.11 7.53 58.91 C7.53 57.11 7.53 55.67 7.53
						 55.67 L15.07 55.67 C15.07 55.67 15.07 54.18 15.07 52.38" class="st4"/>
		</g>
		<g id="shape31-25" v:mID="31" v:groupContext="shape" transform="translate(73.7421,-7.01606)">
			<title>工作表.31</title>
			<path d="M0 58.91 L17.31 58.91" class="st4"/>
		</g>
		<g id="shape33-28" v:mID="33" v:groupContext="shape" transform="translate(164.152,-36.2296)">
			<title>工作表.33</title>
			<path d="M0 58.91 L17.31 58.91" class="st4"/>
		</g>
		<g id="shape34-31" v:mID="34" v:groupContext="shape" transform="translate(81.6312,14.9719) rotate(90)">
			<title>工作表.34</title>
			<path d="M0 52.38 C0 54.18 0 55.67 0 55.67 L18.65 55.67 C18.65 55.67 18.65 57.11 18.65 58.91 C18.65 57.11 18.65 55.67
						 18.65 55.67 L37.3 55.67 C37.3 55.67 37.3 54.18 37.3 52.38 L0 52.38 Z" class="st5"/>
			<path d="M0 52.38 C0 54.18 0 55.67 0 55.67 L18.65 55.67 C18.65 55.67 18.65 57.11 18.65 58.91 C18.65 57.11 18.65 55.67
						 18.65 55.67 L37.3 55.67 C37.3 55.67 37.3 54.18 37.3 52.38" class="st4"/>
		</g>
	</g>
</svg>
