<?xml version="1.0" encoding="UTF-8" standalone="no"?>
<!DOCTYPE svg PUBLIC "-//W3C//DTD SVG 1.1//EN" "http://www.w3.org/Graphics/SVG/1.1/DTD/svg11.dtd">
<!-- 由 Microsoft Visio, SVG Export 產生 A00401.svg 頁-1 -->
<svg xmlns="http://www.w3.org/2000/svg" xmlns:xlink="http://www.w3.org/1999/xlink" xmlns:ev="http://www.w3.org/2001/xml-events"
		xmlns:v="http://schemas.microsoft.com/visio/2003/SVGExtensions/" width="6.27632in" height="0.514502in"
		viewBox="0 0 451.895 37.0441" xml:space="preserve" color-interpolation-filters="sRGB" class="st7">
	<v:documentProperties v:langID="1028" v:viewMarkup="false"/>

	<style type="text/css">
	<![CDATA[
		.st1 {fill:none;stroke:none;stroke-linecap:butt;stroke-width:0.75}
		.st2 {fill:#000000;font-family:新細明體;font-size:0.833336em}
		.st3 {font-family:Times New Roman;font-size:1em}
		.st4 {font-size:1em}
		.st5 {fill:none}
		.st6 {stroke:#040000;stroke-linecap:round;stroke-linejoin:round;stroke-width:0.705463}
		.st7 {fill:none;fill-rule:evenodd;font-size:12px;overflow:visible;stroke-linecap:square;stroke-miterlimit:3}
	]]>
	</style>

	<g v:mID="0" v:index="1" v:groupContext="foregroundPage">
		<title>頁-1</title>
		<v:pageProperties v:drawingScale="0.0393701" v:pageScale="0.0393701" v:drawingUnits="24" v:shadowOffsetX="9"
				v:shadowOffsetY="-9"/>
		<g id="shape2-1" v:mID="2" v:groupContext="shape" transform="translate(59.9299,-0.75)">
			<title>工作表.2</title>
			<desc>一處坐說法眾生遠處皆見皆聞…………有人見佛身徧大千界而信 佛在一處說法眾生各見佛為自說法……有人各各見佛在前說法而信</desc>
			<v:textBlock v:margins="rect(0,0,0,0)" v:tabSpace="42.5197"/>
			<v:textRect cx="162.688" cy="19.2721" width="325.38" height="35.5441"/>
			<rect x="0" y="1.5" width="325.376" height="35.5441" class="st1"/>
			<text x="0" y="15.64" class="st2" v:langID="1028"><v:paragraph v:spLine="-1.4"/><v:tabList/>一處（坐）說法，眾生遠處皆見皆聞<tspan
						class="st3">…………</tspan>有人見佛身徧大千界而信<v:newlineChar/><tspan x="0" dy="1.453em" class="st4">（</tspan>佛在）一處說法，眾生各見佛為自說法<tspan
						class="st3">……</tspan>有人各各見佛在前說法而信</text>		</g>
		<g id="shape5-7" v:mID="5" v:groupContext="shape" transform="translate(0.75,-10.4434)">
			<title>工作表.5</title>
			<desc>佛二種神力</desc>
			<v:textBlock v:margins="rect(0,0,0,0)" v:tabSpace="42.5197"/>
			<v:textRect cx="28.2185" cy="30.2717" width="56.44" height="13.5449"/>
			<rect x="0" y="23.4992" width="56.4371" height="13.5449" class="st1"/>
			<text x="0" y="33.91" class="st2" v:langID="1028"><v:paragraph v:spLine="-1.4"/><v:tabList/>佛二種神力</text>		</g>
		<g id="shape6-10" v:mID="6" v:groupContext="shape" transform="translate(388.671,-10.6465)">
			<title>工作表.6</title>
			<desc>眾生二種機感</desc>
			<v:textBlock v:margins="rect(0,0,0,0)" v:tabSpace="42.5197"/>
			<v:textRect cx="31.237" cy="30.2717" width="62.48" height="13.5449"/>
			<rect x="0" y="23.4992" width="62.474" height="13.5449" class="st1"/>
			<text x="0" y="33.91" class="st2" v:langID="1028"><v:paragraph v:spLine="-1.4"/><v:tabList/>眾生二種機感</text>		</g>
		<g id="shape21-13" v:mID="21" v:groupContext="shape" transform="translate(21.1255,28.0181) rotate(-90)">
			<title>工作表.21</title>
			<path d="M0 37.04 C0 35.4 0.63 34.06 1.4 34.06 L6.93 34.06 C7.66 34.06 8.29 32.77 8.29 31.07 C8.29 32.77 8.92 34.06 9.69
						 34.06 L15.22 34.06 C15.96 34.06 16.58 35.4 16.58 37.04 L0 37.04 Z" class="st5"/>
			<path d="M0 37.04 C0 35.4 0.63 34.06 1.4 34.06 L6.93 34.06 C7.66 34.06 8.29 32.77 8.29 31.07 C8.29 32.77 8.92 34.06 9.69
						 34.06 L15.22 34.06 C15.96 34.06 16.58 35.4 16.58 37.04" class="st6"/>
		</g>
		<g id="shape27-16" v:mID="27" v:groupContext="shape" transform="translate(418.345,28.0181) rotate(90) scale(-1,1)">
			<title>工作表.27</title>
			<path d="M0 37.04 C0 35.4 0.63 34.06 1.4 34.06 L6.93 34.06 C7.66 34.06 8.29 32.77 8.29 31.07 C8.29 32.77 8.92 34.06 9.69
						 34.06 L15.22 34.06 C15.96 34.06 16.58 35.4 16.58 37.04 L0 37.04 Z" class="st5"/>
			<path d="M0 37.04 C0 35.4 0.63 34.06 1.4 34.06 L6.93 34.06 C7.66 34.06 8.29 32.77 8.29 31.07 C8.29 32.77 8.92 34.06 9.69
						 34.06 L15.22 34.06 C15.96 34.06 16.58 35.4 16.58 37.04" class="st6"/>
		</g>
	</g>
</svg>
