<?xml version="1.0" encoding="UTF-8" standalone="no"?>
<!DOCTYPE svg PUBLIC "-//W3C//DTD SVG 1.1//EN" "http://www.w3.org/Graphics/SVG/1.1/DTD/svg11.dtd">
<!-- 由 Microsoft Visio, SVG Export 產生 A01107.svg 頁-1 -->
<svg xmlns="http://www.w3.org/2000/svg" xmlns:xlink="http://www.w3.org/1999/xlink" xmlns:ev="http://www.w3.org/2001/xml-events"
		xmlns:v="http://schemas.microsoft.com/visio/2003/SVGExtensions/" width="2.56611in" height="0.435157in"
		viewBox="0 0 184.76 31.3313" xml:space="preserve" color-interpolation-filters="sRGB" class="st6">
	<v:documentProperties v:langID="1028" v:viewMarkup="false"/>

	<style type="text/css">
	<![CDATA[
		.st1 {fill:none;stroke:none;stroke-linecap:butt;stroke-width:0.75}
		.st2 {fill:#000000;font-family:新細明體;font-size:0.833336em}
		.st3 {font-size:1em}
		.st4 {fill:none}
		.st5 {stroke:#040000;stroke-linecap:round;stroke-linejoin:round;stroke-width:0.705463}
		.st6 {fill:none;fill-rule:evenodd;font-size:12px;overflow:visible;stroke-linecap:square;stroke-miterlimit:3}
	]]>
	</style>

	<g v:mID="0" v:index="1" v:groupContext="foregroundPage">
		<title>頁-1</title>
		<v:pageProperties v:drawingScale="0.0393701" v:pageScale="0.0393701" v:drawingUnits="24" v:shadowOffsetX="9"
				v:shadowOffsetY="-9"/>
		<g id="shape1-1" v:mID="1" v:groupContext="shape" transform="translate(30.3099,-0.75)">
			<title>工作表.1</title>
			<desc>說世界無量是方便說非實教 無邊破有邊亦無咎佛智亦無量故</desc>
			<v:textBlock v:margins="rect(0,0,0,0)" v:tabSpace="42.5197"/>
			<v:textRect cx="76.85" cy="16.4156" width="153.7" height="29.8313"/>
			<rect x="0" y="1.5" width="153.7" height="29.8313" class="st1"/>
			<text x="0" y="12.3" class="st2" v:langID="1028"><v:paragraph v:spBefore="2"/><v:tabList/>說世界無量是方便說，非實教<v:newlineChar/><tspan
						x="0" dy="1.446em" class="st3">無邊破有邊亦無咎</tspan>，佛智亦無量故</text>		</g>
		<g id="shape2-5" v:mID="2" v:groupContext="shape" transform="translate(0.75,-8.15078)">
			<title>工作表.2</title>
			<desc>顯正</desc>
			<v:textBlock v:margins="rect(0,0,0,0)" v:tabSpace="42.5197"/>
			<v:textRect cx="11.2874" cy="24.5588" width="22.58" height="13.5449"/>
			<rect x="0" y="17.7864" width="22.5748" height="13.5449" class="st1"/>
			<text x="-0" y="27.67" class="st2" v:langID="1028"><v:paragraph/><v:tabList/>顯正</text>		</g>
		<g id="shape11-8" v:mID="11" v:groupContext="shape" transform="translate(53.0031,7.72863) rotate(90)">
			<title>工作表.11</title>
			<path d="M0 23.74 C0 25.85 0.6 27.53 1.31 27.53 L6.6 27.53 C7.34 27.53 7.94 29.26 7.94 31.33 C7.94 29.26 8.54 27.53 9.24
						 27.53 L14.53 27.53 C15.27 27.53 15.87 25.85 15.87 23.74 L0 23.74 Z" class="st4"/>
			<path d="M0 23.74 C0 25.85 0.6 27.53 1.31 27.53 L6.6 27.53 C7.34 27.53 7.94 29.26 7.94 31.33 C7.94 29.26 8.54 27.53 9.24
						 27.53 L14.53 27.53 C15.27 27.53 15.87 25.85 15.87 23.74" class="st5"/>
		</g>
	</g>
</svg>
