<?xml version="1.0" encoding="UTF-8" standalone="no"?>
<!DOCTYPE svg PUBLIC "-//W3C//DTD SVG 1.1//EN" "http://www.w3.org/Graphics/SVG/1.1/DTD/svg11.dtd">
<!-- 由 Microsoft Visio, SVG Export 產生 A00501.svg 頁-1 -->
<svg xmlns="http://www.w3.org/2000/svg" xmlns:xlink="http://www.w3.org/1999/xlink" xmlns:ev="http://www.w3.org/2001/xml-events"
		xmlns:v="http://schemas.microsoft.com/visio/2003/SVGExtensions/" width="4.49524in" height="0.701082in"
		viewBox="0 0 323.657 50.4779" xml:space="preserve" color-interpolation-filters="sRGB" class="st6">
	<v:documentProperties v:langID="1028" v:viewMarkup="false"/>

	<style type="text/css">
	<![CDATA[
		.st1 {fill:none;stroke:none;stroke-linecap:butt;stroke-width:0.75}
		.st2 {fill:#000000;font-family:新細明體;font-size:0.833336em}
		.st3 {fill:none}
		.st4 {stroke:#040000;stroke-linecap:round;stroke-linejoin:round;stroke-width:0.705463}
		.st5 {stroke:#040000;stroke-linecap:round;stroke-linejoin:round;stroke-width:0.470309}
		.st6 {fill:none;fill-rule:evenodd;font-size:12px;overflow:visible;stroke-linecap:square;stroke-miterlimit:3}
	]]>
	</style>

	<g v:mID="0" v:index="1" v:groupContext="foregroundPage">
		<title>頁-1</title>
		<v:pageProperties v:drawingScale="0.0393701" v:pageScale="0.0393701" v:drawingUnits="24" v:shadowOffsetX="9"
				v:shadowOffsetY="-9"/>
		<g id="shape1-1" v:mID="1" v:groupContext="shape" transform="translate(53.9232,-36.183)">
			<title>工作表.1</title>
			<desc>未斷結不清淨</desc>
			<v:textBlock v:margins="rect(0,0,0,0)" v:tabSpace="42.5197"/>
			<v:textRect cx="33.8622" cy="43.7055" width="67.73" height="13.5449"/>
			<rect x="0" y="36.933" width="67.7245" height="13.5449" class="st1"/>
			<text x="-0" y="46.82" class="st2" v:langID="1028"><v:paragraph/><v:tabList/>未斷結不清淨</text>		</g>
		<g id="shape2-4" v:mID="2" v:groupContext="shape" transform="translate(0.75,-27.9933)">
			<title>工作表.2</title>
			<desc>二種菩薩</desc>
			<v:textBlock v:margins="rect(0,0,0,0)" v:tabSpace="42.5197"/>
			<v:textRect cx="22.5748" cy="43.7055" width="45.15" height="13.5449"/>
			<rect x="0" y="36.933" width="45.1496" height="13.5449" class="st1"/>
			<text x="-0" y="46.82" class="st2" v:langID="1028"><v:paragraph/><v:tabList/>二種菩薩</text>		</g>
		<g id="shape3-7" v:mID="3" v:groupContext="shape" transform="translate(53.924,-18.7807)">
			<title>工作表.3</title>
			<desc>斷結使清淨</desc>
			<v:textBlock v:margins="rect(0,0,0,0)" v:tabSpace="42.5197"/>
			<v:textRect cx="28.2185" cy="43.7055" width="56.44" height="13.5449"/>
			<rect x="0" y="36.933" width="56.4371" height="13.5449" class="st1"/>
			<text x="0" y="46.82" class="st2" v:langID="1028"><v:paragraph/><v:tabList/>斷結使清淨</text>		</g>
		<g id="shape4-10" v:mID="4" v:groupContext="shape" transform="translate(124.912,-19.3844)">
			<title>工作表.4</title>
			<v:textBlock v:margins="rect(0,0,0,0)" v:tabSpace="42.5197"/>
			<rect x="0" y="36.933" width="33.8622" height="13.5449" class="st1"/>
		</g>
		<g id="shape5-12" v:mID="5" v:groupContext="shape" transform="translate(145.742,-18.3862)">
			<title>工作表.5</title>
			<desc>斷三毒心不著人天五欲</desc>
			<v:textBlock v:margins="rect(0,0,0,0)" v:tabSpace="42.5197"/>
			<v:textRect cx="62.0808" cy="43.7055" width="124.17" height="13.5449"/>
			<rect x="0" y="36.933" width="124.162" height="13.5449" class="st1"/>
			<text x="0" y="46.82" class="st2" v:langID="1028"><v:paragraph/><v:tabList/>斷三毒，心不著人天五欲</text>		</g>
		<g id="shape6-15" v:mID="6" v:groupContext="shape" transform="translate(266.47,-9.25394)">
			<title>工作表.6</title>
			<desc>二種斷結</desc>
			<v:textBlock v:margins="rect(0,0,0,0)" v:tabSpace="42.5197"/>
			<v:textRect cx="28.2185" cy="43.7055" width="56.44" height="13.5449"/>
			<rect x="0" y="36.933" width="56.4371" height="13.5449" class="st1"/>
			<text x="10" y="46.82" class="st2" v:langID="1028"><v:paragraph/><v:tabList/>二種斷結</text>		</g>
		<g id="shape7-18" v:mID="7" v:groupContext="shape" transform="translate(145.742,-0.75)">
			<title>工作表.7</title>
			<desc>斷習氣不著菩薩功德五欲</desc>
			<v:textBlock v:margins="rect(0,0,0,0)" v:tabSpace="42.5197"/>
			<v:textRect cx="65.1968" cy="43.7055" width="130.4" height="13.5449"/>
			<rect x="0" y="36.933" width="130.394" height="13.5449" class="st1"/>
			<text x="0" y="46.82" class="st2" v:langID="1028"><v:paragraph/><v:tabList/>斷習氣，不著菩薩功德五欲</text>		</g>
		<g id="shape14-21" v:mID="14" v:groupContext="shape" transform="translate(92.7555,5.79094) rotate(90)">
			<title>工作表.14</title>
			<path d="M0 42.01 C0 44.36 0.75 46.25 1.63 46.25 L8.25 46.25 C9.17 46.25 9.92 48.13 9.92 50.48 C9.92 48.13 10.67 46.25
						 11.55 46.25 L18.17 46.25 C19.09 46.25 19.84 44.36 19.84 42.01 L0 42.01 Z" class="st3"/>
			<path d="M0 42.01 C0 44.36 0.75 46.25 1.63 46.25 L8.25 46.25 C9.17 46.25 9.92 48.13 9.92 50.48 C9.92 48.13 10.67 46.25
						 11.55 46.25 L18.17 46.25 C19.09 46.25 19.84 44.36 19.84 42.01" class="st4"/>
		</g>
		<g id="shape15-24" v:mID="15" v:groupContext="shape" transform="translate(104.87,-26.2575)">
			<title>工作表.15</title>
			<path d="M0 50.48 L39.45 50.48" class="st5"/>
		</g>
		<g id="shape16-27" v:mID="16" v:groupContext="shape" transform="translate(125.954,-21.6435) rotate(24.6883)">
			<title>工作表.16</title>
			<path d="M0 50.48 L43.42 50.48" class="st5"/>
		</g>
		<g id="shape19-30" v:mID="19" v:groupContext="shape" transform="translate(225.658,44.0586) rotate(-90)">
			<title>工作表.19</title>
			<path d="M0 42.01 C0 44.36 0.75 46.25 1.63 46.25 L8.25 46.25 C9.17 46.25 9.92 48.13 9.92 50.48 C9.92 48.13 10.67 46.25
						 11.55 46.25 L18.17 46.25 C19.09 46.25 19.84 44.36 19.84 42.01 L0 42.01 Z" class="st3"/>
			<path d="M0 42.01 C0 44.36 0.75 46.25 1.63 46.25 L8.25 46.25 C9.17 46.25 9.92 48.13 9.92 50.48 C9.92 48.13 10.67 46.25
						 11.55 46.25 L18.17 46.25 C19.09 46.25 19.84 44.36 19.84 42.01" class="st4"/>
		</g>
	</g>
</svg>
