<?xml version="1.0" encoding="UTF-8" standalone="no"?>
<!DOCTYPE svg PUBLIC "-//W3C//DTD SVG 1.1//EN" "http://www.w3.org/Graphics/SVG/1.1/DTD/svg11.dtd">
<!-- 由 Microsoft Visio, SVG Export 產生 A02001.svg 頁-1 -->
<svg xmlns="http://www.w3.org/2000/svg" xmlns:xlink="http://www.w3.org/1999/xlink" xmlns:ev="http://www.w3.org/2001/xml-events"
		xmlns:v="http://schemas.microsoft.com/visio/2003/SVGExtensions/" width="2.043in" height="0.40374in"
		viewBox="0 0 147.096 29.0693" xml:space="preserve" color-interpolation-filters="sRGB" class="st6">
	<v:documentProperties v:langID="1028" v:viewMarkup="false"/>

	<style type="text/css">
	<![CDATA[
		.st1 {fill:none;stroke:none;stroke-linecap:butt;stroke-width:0.75}
		.st2 {fill:#000000;font-family:新細明體;font-size:0.833336em}
		.st3 {font-size:1em}
		.st4 {fill:none}
		.st5 {stroke:#040000;stroke-linecap:round;stroke-linejoin:round;stroke-width:0.705463}
		.st6 {fill:none;fill-rule:evenodd;font-size:12px;overflow:visible;stroke-linecap:square;stroke-miterlimit:3}
	]]>
	</style>

	<g v:mID="0" v:index="1" v:groupContext="foregroundPage">
		<title>頁-1</title>
		<v:pageProperties v:drawingScale="0.0393701" v:pageScale="0.0393701" v:drawingUnits="24" v:shadowOffsetX="9"
				v:shadowOffsetY="-9"/>
		<g id="shape1-1" v:mID="1" v:groupContext="shape" transform="translate(53.6161,-0.801789)">
			<title>工作表.1</title>
			<desc>出家　　非時解比丘 在家　　能清淨施</desc>
			<v:textBlock v:margins="rect(0,0,0,0)" v:tabSpace="42.5197"/>
			<v:textRect cx="46.3649" cy="15.3363" width="92.73" height="27.466"/>
			<rect x="0" y="1.60324" width="92.7298" height="27.466" class="st1"/>
			<text x="0" y="11.7" class="st2" v:langID="1028"><v:paragraph v:spLine="-1.4"/><v:tabList/>出家　　非時解比丘<v:newlineChar/><tspan
						x="0" dy="1.453em" class="st3">在家</tspan>　　能清淨施</text>		</g>
		<g id="shape3-5" v:mID="3" v:groupContext="shape" transform="translate(0.75,-9.08488)">
			<title>工作表.3</title>
			<desc>二人難得</desc>
			<v:textBlock v:margins="rect(0,0,0,0)" v:tabSpace="42.5197"/>
			<v:textRect cx="22.5748" cy="22.2968" width="45.15" height="13.5449"/>
			<rect x="0" y="15.5244" width="45.1496" height="13.5449" class="st1"/>
			<text x="-0" y="25.93" class="st2" v:langID="1028"><v:paragraph v:spLine="-1.4"/><v:tabList/>二人難得</text>		</g>
		<g id="shape14-8" v:mID="14" v:groupContext="shape" transform="translate(71.4906,6.75421) rotate(90)">
			<title>工作表.14</title>
			<path d="M0 20.71 C0 23.02 0 24.89 0 24.89 L7.71 24.89 C7.71 24.89 7.71 26.76 7.71 29.07 C7.71 26.76 7.71 24.89 7.71
						 24.89 L16.44 24.89 C16.44 24.89 16.44 23.02 16.44 20.71 L0 20.71 Z" class="st4"/>
			<path d="M0 20.71 C0 23.02 0 24.89 0 24.89 L7.71 24.89 C7.71 24.89 7.71 26.76 7.71 29.07 C7.71 26.76 7.71 24.89 7.71
						 24.89 L16.44 24.89 C16.44 24.89 16.44 23.02 16.44 20.71" class="st5"/>
		</g>
		<g id="shape16-11" v:mID="16" v:groupContext="shape" transform="translate(75.8457,-20.4849)">
			<title>工作表.16</title>
			<path d="M0 29.07 L15.59 29.07" class="st5"/>
		</g>
		<g id="shape23-14" v:mID="23" v:groupContext="shape" transform="translate(75.8457,-6.46087)">
			<title>工作表.23</title>
			<path d="M0 29.07 L15.59 29.07" class="st5"/>
		</g>
	</g>
</svg>
