<?xml version="1.0" encoding="UTF-8" standalone="no"?>
<!DOCTYPE svg PUBLIC "-//W3C//DTD SVG 1.1//EN" "http://www.w3.org/Graphics/SVG/1.1/DTD/svg11.dtd">
<!-- 由 Microsoft Visio, SVG Export 產生 A02402.svg 頁-1 -->
<svg xmlns="http://www.w3.org/2000/svg" xmlns:xlink="http://www.w3.org/1999/xlink" xmlns:ev="http://www.w3.org/2001/xml-events"
		xmlns:v="http://schemas.microsoft.com/visio/2003/SVGExtensions/" width="1.48233in" height="0.501988in"
		viewBox="0 0 106.728 36.1432" xml:space="preserve" color-interpolation-filters="sRGB" class="st6">
	<v:documentProperties v:langID="1028" v:viewMarkup="false"/>

	<style type="text/css">
	<![CDATA[
		.st1 {fill:none;stroke:none;stroke-linecap:butt;stroke-width:0.75}
		.st2 {fill:#000000;font-family:新細明體;font-size:0.833336em}
		.st3 {font-size:1em}
		.st4 {fill:none}
		.st5 {stroke:#040000;stroke-linecap:round;stroke-linejoin:round;stroke-width:0.705463}
		.st6 {fill:none;fill-rule:evenodd;font-size:12px;overflow:visible;stroke-linecap:square;stroke-miterlimit:3}
	]]>
	</style>

	<g v:mID="0" v:index="1" v:groupContext="foregroundPage">
		<title>頁-1</title>
		<v:pageProperties v:drawingScale="0.0393701" v:pageScale="0.0393701" v:drawingUnits="24" v:shadowOffsetX="9"
				v:shadowOffsetY="-9"/>
		<g id="shape1-1" v:mID="1" v:groupContext="shape" transform="translate(72.1157,-8.06378)">
			<title>工作表.1</title>
			<desc>外布施 內布施</desc>
			<v:textBlock v:margins="rect(0,0,0,0)" v:tabSpace="42.5197"/>
			<v:textRect cx="16.9311" cy="22.5983" width="33.87" height="27.0898"/>
			<rect x="0" y="9.05337" width="33.8622" height="27.0898" class="st1"/>
			<text x="0" y="18.96" class="st2" v:langID="1028"><v:paragraph v:spLine="-1.4"/><v:tabList/>外布施<v:newlineChar/><tspan
						x="0" dy="1.453em" class="st3">內布施</tspan></text>		</g>
		<g id="shape2-5" v:mID="2" v:groupContext="shape" transform="translate(31.0134,-0.989895)">
			<title>工作表.2</title>
			<desc>財布施 法布施</desc>
			<v:textBlock v:margins="rect(0,0,0,0)" v:tabSpace="42.5197"/>
			<v:textRect cx="16.9311" cy="22.5983" width="33.87" height="27.0898"/>
			<rect x="0" y="9.05337" width="33.8622" height="27.0898" class="st1"/>
			<text x="-0" y="18.96" class="st2" v:langID="1028"><v:paragraph v:spLine="-1.4"/><v:tabList/>財布施<v:newlineChar/><tspan
						x="-0" dy="1.453em" class="st3">法布施</tspan></text>		</g>
		<g id="shape3-9" v:mID="3" v:groupContext="shape" transform="translate(0.75,-7.28752)">
			<title>工作表.3</title>
			<desc>布施</desc>
			<v:textBlock v:margins="rect(0,0,0,0)" v:tabSpace="42.5197"/>
			<v:textRect cx="11.2874" cy="29.3707" width="22.58" height="13.5449"/>
			<rect x="0" y="22.5983" width="22.5748" height="13.5449" class="st1"/>
			<text x="-0" y="33" class="st2" v:langID="1028"><v:paragraph v:spLine="-1.4"/><v:tabList/>布施</text>		</g>
		<g id="shape21-12" v:mID="21" v:groupContext="shape" transform="translate(98.9703,8.06348) rotate(90)">
			<title>工作表.21</title>
			<path d="M0 29.61 C0 31.41 0 32.9 0 32.9 L7.53 32.9 C7.53 32.9 7.53 34.34 7.53 36.14 C7.53 34.34 7.53 32.9 7.53 32.9
						 L15.07 32.9 C15.07 32.9 15.07 31.41 15.07 29.61 L0 29.61 Z" class="st4"/>
			<path d="M0 29.61 C0 31.41 0 32.9 0 32.9 L7.53 32.9 C7.53 32.9 7.53 34.34 7.53 36.14 C7.53 34.34 7.53 32.9 7.53 32.9
						 L15.07 32.9 C15.07 32.9 15.07 31.41 15.07 29.61" class="st5"/>
		</g>
		<g id="shape22-15" v:mID="22" v:groupContext="shape" transform="translate(58.5782,15.057) rotate(90)">
			<title>工作表.22</title>
			<path d="M0 29.61 C0 31.41 0 32.9 0 32.9 L7.53 32.9 C7.53 32.9 7.53 34.34 7.53 36.14 C7.53 34.34 7.53 32.9 7.53 32.9
						 L15.07 32.9 C15.07 32.9 15.07 31.41 15.07 29.61 L0 29.61 Z" class="st4"/>
			<path d="M0 29.61 C0 31.41 0 32.9 0 32.9 L7.53 32.9 C7.53 32.9 7.53 34.34 7.53 36.14 C7.53 34.34 7.53 32.9 7.53 32.9
						 L15.07 32.9 C15.07 32.9 15.07 31.41 15.07 29.61" class="st5"/>
		</g>
	</g>
</svg>
