<?xml version="1.0" encoding="UTF-8" standalone="no"?>
<!DOCTYPE svg PUBLIC "-//W3C//DTD SVG 1.1//EN" "http://www.w3.org/Graphics/SVG/1.1/DTD/svg11.dtd">
<!-- 由 Microsoft Visio, SVG Export 產生 A01901.svg 頁-1 -->
<svg xmlns="http://www.w3.org/2000/svg" xmlns:xlink="http://www.w3.org/1999/xlink" xmlns:ev="http://www.w3.org/2001/xml-events"
		xmlns:v="http://schemas.microsoft.com/visio/2003/SVGExtensions/" width="1.50241in" height="0.605606in"
		viewBox="0 0 108.173 43.6036" xml:space="preserve" color-interpolation-filters="sRGB" class="st7">
	<v:documentProperties v:langID="1028" v:viewMarkup="false"/>

	<style type="text/css">
	<![CDATA[
		.st1 {fill:none;stroke:none;stroke-linecap:butt;stroke-width:0.75}
		.st2 {fill:#000000;font-family:新細明體;font-size:0.833336em}
		.st3 {font-family:Times New Roman;font-size:1em}
		.st4 {font-size:1em}
		.st5 {fill:none}
		.st6 {stroke:#040000;stroke-linecap:round;stroke-linejoin:round;stroke-width:0.705463}
		.st7 {fill:none;fill-rule:evenodd;font-size:12px;overflow:visible;stroke-linecap:square;stroke-miterlimit:3}
	]]>
	</style>

	<g v:mID="0" v:index="1" v:groupContext="foregroundPage">
		<title>頁-1</title>
		<v:pageProperties v:drawingScale="0.0393701" v:pageScale="0.0393701" v:drawingUnits="24" v:shadowOffsetX="9"
				v:shadowOffsetY="-9"/>
		<g id="shape1-1" v:mID="1" v:groupContext="shape" transform="translate(34.509,-1.95946)">
			<title>工作表.1</title>
			<desc>施——富貴福樂 戒——得生天上 禪智—得涅槃道</desc>
			<v:textBlock v:margins="rect(0,0,0,0)" v:tabSpace="42.5197"/>
			<v:textRect cx="36.4571" cy="23.7611" width="72.92" height="39.685"/>
			<rect x="0" y="3.9186" width="72.9142" height="39.685" class="st1"/>
			<text x="0" y="12.86" class="st2" v:langID="1028"><v:paragraph v:spLine="-1.4"/><v:tabList/>施<tspan class="st3">——</tspan>富貴福樂<v:newlineChar/><tspan
						x="0" dy="1.453em" class="st4">戒</tspan><tspan class="st3">——</tspan>得生天上<v:newlineChar/><tspan x="0"
						dy="1.453em" class="st4">禪智</tspan><tspan class="st3">—</tspan>得涅槃道</text>		</g>
		<g id="shape2-9" v:mID="2" v:groupContext="shape" transform="translate(0.75,-15.3817)">
			<title>工作表.2</title>
			<desc>三果</desc>
			<v:textBlock v:margins="rect(0,0,0,0)" v:tabSpace="42.5197"/>
			<v:textRect cx="11.2874" cy="36.8312" width="22.58" height="13.5449"/>
			<rect x="0" y="30.0587" width="22.5748" height="13.5449" class="st1"/>
			<text x="-0" y="40.46" class="st2" v:langID="1028"><v:paragraph v:spLine="-1.4"/><v:tabList/>三果</text>		</g>
		<g id="shape12-12" v:mID="12" v:groupContext="shape" transform="translate(66.0387,7.62842) rotate(90)">
			<title>工作表.12</title>
			<path d="M0 32.32 C0 35.45 1.1 37.96 2.43 37.96 L12.07 37.96 C13.4 37.96 14.46 40.47 14.46 43.6 C14.46 40.47 15.56 37.96
						 16.89 37.96 L26.53 37.96 C27.86 37.96 28.91 35.45 28.91 32.32 L0 32.32 Z" class="st5"/>
			<path d="M0 32.32 C0 35.45 1.1 37.96 2.43 37.96 L12.07 37.96 C13.4 37.96 14.46 40.47 14.46 43.6 C14.46 40.47 15.56 37.96
						 16.89 37.96 L26.53 37.96 C27.86 37.96 28.91 35.45 28.91 32.32" class="st6"/>
		</g>
	</g>
</svg>
