<?xml version="1.0" encoding="UTF-8" standalone="no"?>
<!DOCTYPE svg PUBLIC "-//W3C//DTD SVG 1.1//EN" "http://www.w3.org/Graphics/SVG/1.1/DTD/svg11.dtd">
<!-- 由 Microsoft Visio, SVG Export 產生 A02404.svg 頁-1 -->
<svg xmlns="http://www.w3.org/2000/svg" xmlns:xlink="http://www.w3.org/1999/xlink" xmlns:ev="http://www.w3.org/2001/xml-events"
		xmlns:v="http://schemas.microsoft.com/visio/2003/SVGExtensions/" width="5.3417in" height="0.715839in"
		viewBox="0 0 384.602 51.5404" xml:space="preserve" color-interpolation-filters="sRGB" class="st6">
	<v:documentProperties v:langID="1028" v:viewMarkup="false"/>

	<style type="text/css">
	<![CDATA[
		.st1 {fill:none;stroke:none;stroke-linecap:butt;stroke-width:0.75}
		.st2 {fill:#000000;font-family:新細明體;font-size:0.833336em}
		.st3 {font-size:1em}
		.st4 {fill:none}
		.st5 {stroke:#040000;stroke-linecap:round;stroke-linejoin:round;stroke-width:0.705463}
		.st6 {fill:none;fill-rule:evenodd;font-size:12px;overflow:visible;stroke-linecap:square;stroke-miterlimit:3}
	]]>
	</style>

	<g v:mID="0" v:index="1" v:groupContext="foregroundPage">
		<title>頁-1</title>
		<v:pageProperties v:drawingScale="0.0393701" v:pageScale="0.0393701" v:drawingUnits="24" v:shadowOffsetX="9"
				v:shadowOffsetY="-9"/>
		<g id="shape1-1" v:mID="1" v:groupContext="shape" transform="translate(71.2059,-0.75)">
			<title>工作表.1</title>
			<desc>一、為道清淨故施。 二、淨心善思以教一切。 三、淨心善思讚三寶示罪福示四諦化令入佛道是真淨法施。</desc>
			<v:textBlock v:margins="rect(0,0,0,0)" v:tabSpace="42.5197"/>
			<v:textRect cx="156.323" cy="26.5202" width="312.65" height="50.0404"/>
			<rect x="0" y="1.5" width="312.646" height="50.0404" class="st1"/>
			<text x="0" y="15.62" class="st2" v:langID="1028"><v:paragraph v:spLine="-1.4"/><v:tabList/>一、為道清淨故施。<v:newlineChar/><tspan
						x="0" dy="1.453em" class="st3">二</tspan>、淨心善思以教一切。<v:newlineChar/><tspan x="0" dy="1.453em" class="st3">三</tspan>、淨心善思，讚三寶，示罪福，示四諦，化令入佛道，是真淨法施。</text>		</g>
		<g id="shape2-6" v:mID="2" v:groupContext="shape" transform="translate(0.75,-19.4154)">
			<title>工作表.2</title>
			<desc>法施不但說法</desc>
			<v:textBlock v:margins="rect(0,0,0,0)" v:tabSpace="42.5197"/>
			<v:textRect cx="33.8622" cy="44.7679" width="67.73" height="13.5449"/>
			<rect x="0" y="37.9955" width="67.7245" height="13.5449" class="st1"/>
			<text x="0" y="48.4" class="st2" v:langID="1028"><v:paragraph v:spLine="-1.4"/><v:tabList/>法施不但說法</text>		</g>
		<g id="shape17-9" v:mID="17" v:groupContext="shape" transform="translate(114.312,11.0964) rotate(90)">
			<title>工作表.17</title>
			<path d="M0 45.01 C0 46.81 0 48.3 0 48.3 L14.88 48.3 C14.88 48.3 14.88 49.74 14.88 51.54 C14.88 49.74 14.88 48.3 14.88
						 48.3 L29.76 48.3 C29.76 48.3 29.76 46.81 29.76 45.01 L0 45.01 Z" class="st4"/>
			<path d="M0 45.01 C0 46.81 0 48.3 0 48.3 L14.88 48.3 C14.88 48.3 14.88 49.74 14.88 51.54 C14.88 49.74 14.88 48.3 14.88
						 48.3 L29.76 48.3 C29.76 48.3 29.76 46.81 29.76 45.01" class="st5"/>
		</g>
	</g>
</svg>
