<?xml version="1.0" encoding="UTF-8" standalone="no"?>
<!DOCTYPE svg PUBLIC "-//W3C//DTD SVG 1.1//EN" "http://www.w3.org/Graphics/SVG/1.1/DTD/svg11.dtd">
<!-- 由 Microsoft Visio, SVG Export 產生 A01903.svg 頁-1 -->
<svg xmlns="http://www.w3.org/2000/svg" xmlns:xlink="http://www.w3.org/1999/xlink" xmlns:ev="http://www.w3.org/2001/xml-events"
		xmlns:v="http://schemas.microsoft.com/visio/2003/SVGExtensions/" width="4.83383in" height="0.676345in"
		viewBox="0 0 348.035 48.6969" xml:space="preserve" color-interpolation-filters="sRGB" class="st6">
	<v:documentProperties v:langID="1028" v:viewMarkup="false"/>

	<style type="text/css">
	<![CDATA[
		.st1 {fill:none;stroke:none;stroke-linecap:butt;stroke-width:0.75}
		.st2 {fill:#000000;font-family:新細明體;font-size:0.833336em}
		.st3 {font-size:1em}
		.st4 {fill:none}
		.st5 {stroke:#040000;stroke-linecap:round;stroke-linejoin:round;stroke-width:0.705463}
		.st6 {fill:none;fill-rule:evenodd;font-size:12px;overflow:visible;stroke-linecap:square;stroke-miterlimit:3}
	]]>
	</style>

	<g v:mID="0" v:index="1" v:groupContext="foregroundPage">
		<title>頁-1</title>
		<v:pageProperties v:drawingScale="0.0393701" v:pageScale="0.0393701" v:drawingUnits="24" v:shadowOffsetX="9"
				v:shadowOffsetY="-9"/>
		<g id="shape1-1" v:mID="1" v:groupContext="shape" transform="translate(55.243,-0.75)">
			<title>工作表.1</title>
			<desc>一、布施心相應善思意業 二、從善思起身口業亦是通三業 三、有信有福田有財物三事和合心生捨法能破慳。</desc>
			<v:textBlock v:margins="rect(0,0,0,0)" v:tabSpace="42.5197"/>
			<v:textRect cx="146.021" cy="25.0984" width="292.05" height="47.1969"/>
			<rect x="0" y="1.5" width="292.042" height="47.1969" class="st1"/>
			<text x="0" y="14.2" class="st2" v:langID="1028"><v:paragraph v:spLine="-1.4"/><v:tabList/>一、布施心相應善思（意業）<v:newlineChar/><tspan
						x="0" dy="1.453em" class="st3">二</tspan>、從善思起身口業亦是（通三業）<v:newlineChar/><tspan x="0" dy="1.453em"
						class="st3">三</tspan>、有信有（福）田有（財）物，三事和合，心生捨法，能破慳。</text>		</g>
		<g id="shape2-6" v:mID="2" v:groupContext="shape" transform="translate(0.75,-17.3941)">
			<title>工作表.2</title>
			<desc>檀體三說</desc>
			<v:textBlock v:margins="rect(0,0,0,0)" v:tabSpace="42.5197"/>
			<v:textRect cx="22.5748" cy="41.9244" width="45.15" height="13.5449"/>
			<rect x="0" y="35.152" width="45.1496" height="13.5449" class="st1"/>
			<text x="-0" y="45.56" class="st2" v:langID="1028"><v:paragraph v:spLine="-1.4"/><v:tabList/>檀體三說</text>		</g>
		<g id="shape12-9" v:mID="12" v:groupContext="shape" transform="translate(90.9744,10.6713) rotate(90)">
			<title>工作表.12</title>
			<path d="M0 37.41 C0 40.54 1.02 43.05 2.32 43.05 L11.67 43.05 C12.96 43.05 14.03 45.62 14.03 48.7 C14.03 45.62 15.06
						 43.05 16.35 43.05 L25.7 43.05 C26.99 43.05 28.06 40.54 28.06 37.41 L0 37.41 Z" class="st4"/>
			<path d="M0 37.41 C0 40.54 1.02 43.05 2.32 43.05 L11.67 43.05 C12.96 43.05 14.03 45.62 14.03 48.7 C14.03 45.62 15.06
						 43.05 16.35 43.05 L25.7 43.05 C26.99 43.05 28.06 40.54 28.06 37.41" class="st5"/>
		</g>
	</g>
</svg>
