<?xml version="1.0" encoding="UTF-8" standalone="no"?>
<!DOCTYPE svg PUBLIC "-//W3C//DTD SVG 1.1//EN" "http://www.w3.org/Graphics/SVG/1.1/DTD/svg11.dtd">
<!-- 由 Microsoft Visio, SVG Export 產生 A02002.svg 頁-1 -->
<svg xmlns="http://www.w3.org/2000/svg" xmlns:xlink="http://www.w3.org/1999/xlink" xmlns:ev="http://www.w3.org/2001/xml-events"
		xmlns:v="http://schemas.microsoft.com/visio/2003/SVGExtensions/" width="6.62122in" height="1.67438in"
		viewBox="0 0 476.727 120.555" xml:space="preserve" color-interpolation-filters="sRGB" class="st6">
	<v:documentProperties v:langID="1028" v:viewMarkup="false"/>

	<style type="text/css">
	<![CDATA[
		.st1 {fill:none;stroke:none;stroke-linecap:butt;stroke-width:0.75}
		.st2 {fill:#000000;font-family:新細明體;font-size:0.833336em}
		.st3 {font-size:1em}
		.st4 {fill:none}
		.st5 {stroke:#040000;stroke-linecap:round;stroke-linejoin:round;stroke-width:0.705463}
		.st6 {fill:none;fill-rule:evenodd;font-size:12px;overflow:visible;stroke-linecap:square;stroke-miterlimit:3}
	]]>
	</style>

	<g v:mID="0" v:index="1" v:groupContext="foregroundPage">
		<title>頁-1</title>
		<v:pageProperties v:drawingScale="0.0393701" v:pageScale="0.0393701" v:drawingUnits="24" v:shadowOffsetX="9"
				v:shadowOffsetY="-9"/>
		<g id="shape2-1" v:mID="2" v:groupContext="shape" transform="translate(223.371,-0.75)">
			<title>工作表.2</title>
			<desc>凡夫有漏心施　　世間 　　　　　　　　一云世間有漏心故。 　　　　　　　　一云出世結使斷故得無作三昧故。 聖人無漏心施　　...</desc>
			<v:textBlock v:margins="rect(0,0,0,0)" v:tabSpace="42.5197"/>
			<v:textRect cx="126.303" cy="61.0276" width="252.61" height="119.055"/>
			<rect x="0" y="1.5" width="252.606" height="119.055" class="st1"/>
			<text x="0" y="13.79" class="st2" v:langID="1028"><v:paragraph v:spLine="-1.4"/><v:tabList/>凡夫有漏心施　　世間　　<v:newlineChar/><tspan
						x="0" dy="1.453em" class="st3">　　　　　　　　</tspan>一云世間，有漏心故。<v:newlineChar/><tspan x="0" dy="1.453em"
						class="st3">　　　　　　　　</tspan>一云出世，結使斷故，得無作三昧故。<v:newlineChar/><tspan x="0" dy="1.453em" class="st3">聖人無漏心施</tspan>　　出世<v:newlineChar/><tspan
						x="0" dy="1.453em" class="st3">一</tspan>、結使清淨　　出世<v:newlineChar/><tspan x="0" dy="1.453em" class="st3">二</tspan>、結使所使　　世間<v:newlineChar/><tspan
						x="0" dy="1.453em" class="st3">三</tspan>、礙繫心　　世間<v:newlineChar/><tspan x="0" dy="1.453em" class="st3">四</tspan>、心無三礙實知法相　　出世</text>		</g>
		<g id="shape3-11" v:mID="3" v:groupContext="shape" transform="translate(112.813,-81.747)">
			<title>工作表.3</title>
			<desc>一、約有漏、無漏心辨　聖人有漏心施</desc>
			<v:textBlock v:margins="rect(0,0,0,0)" v:tabSpace="42.5197"/>
			<v:textRect cx="87.3302" cy="113.783" width="174.67" height="13.5449"/>
			<rect x="0" y="107.01" width="174.66" height="13.5449" class="st1"/>
			<text x="-0" y="117.42" class="st2" v:langID="1028"><v:paragraph v:spLine="-1.4"/><v:tabList/>一、約有漏、無漏心辨　聖人有漏心施</text>		</g>
		<g id="shape10-14" v:mID="10" v:groupContext="shape" transform="translate(0.75,-46.5264)">
			<title>工作表.10</title>
			<desc>世間檀、出世間檀三說</desc>
			<v:textBlock v:margins="rect(0,0,0,0)" v:tabSpace="42.5197"/>
			<v:textRect cx="56.4371" cy="113.783" width="112.88" height="13.5449"/>
			<rect x="0" y="107.01" width="112.874" height="13.5449" class="st1"/>
			<text x="0" y="117.42" class="st2" v:langID="1028"><v:paragraph v:spLine="-1.4"/><v:tabList/>世間檀、出世間檀三說</text>		</g>
		<g id="shape11-17" v:mID="11" v:groupContext="shape" transform="translate(112.813,-38.9131)">
			<title>工作表.11</title>
			<desc>二、約結淨、不淨結辨</desc>
			<v:textBlock v:margins="rect(0,0,0,0)" v:tabSpace="42.5197"/>
			<v:textRect cx="50.8342" cy="113.783" width="101.67" height="13.5449"/>
			<rect x="0" y="107.01" width="101.668" height="13.5449" class="st1"/>
			<text x="-0" y="117.42" class="st2" v:langID="1028"><v:paragraph v:spLine="-1.4"/><v:tabList/>二、約結淨、不淨結辨</text>		</g>
		<g id="shape16-20" v:mID="16" v:groupContext="shape" transform="translate(112.813,-9.14936)">
			<title>工作表.16</title>
			<desc>三、約礙心、不礙心辨</desc>
			<v:textBlock v:margins="rect(0,0,0,0)" v:tabSpace="42.5197"/>
			<v:textRect cx="50.8342" cy="113.783" width="101.67" height="13.5449"/>
			<rect x="0" y="107.01" width="101.668" height="13.5449" class="st1"/>
			<text x="-0" y="117.42" class="st2" v:langID="1028"><v:paragraph v:spLine="-1.4"/><v:tabList/>三、約礙心、不礙心辨</text>		</g>
		<g id="shape33-23" v:mID="33" v:groupContext="shape" transform="translate(334.328,9.35851) rotate(90)">
			<title>工作表.33</title>
			<path d="M0 112.05 C0 114.36 0 116.26 0 116.26 L22.24 116.26 C22.24 116.26 22.24 118.25 22.24 120.56 C22.24 118.25 22.24
						 116.26 22.24 116.26 L44.65 116.26 C44.65 116.26 44.65 114.36 44.65 112.05 L0 112.05 Z" class="st4"/>
			<path d="M0 112.05 C0 114.36 0 116.26 0 116.26 L22.24 116.26 C22.24 116.26 22.24 118.25 22.24 120.56 C22.24 118.25 22.24
						 116.26 22.24 116.26 L44.65 116.26 C44.65 116.26 44.65 114.36 44.65 112.05" class="st5"/>
		</g>
		<g id="shape40-26" v:mID="40" v:groupContext="shape" transform="translate(285.348,-111.019)">
			<title>工作表.40</title>
			<path d="M0 120.56 L16.4 120.56" class="st5"/>
		</g>
		<g id="shape60-29" v:mID="60" v:groupContext="shape" transform="translate(285.348,-67.2596)">
			<title>工作表.60</title>
			<path d="M0 120.56 L16.4 120.56" class="st5"/>
		</g>
		<g id="shape61-32" v:mID="61" v:groupContext="shape" transform="translate(285.348,-52.4789)">
			<title>工作表.61</title>
			<path d="M0 120.56 L16.4 120.56" class="st5"/>
		</g>
		<g id="shape62-35" v:mID="62" v:groupContext="shape" transform="translate(285.348,-37.4958)">
			<title>工作表.62</title>
			<path d="M0 120.56 L16.4 120.56" class="st5"/>
		</g>
		<g id="shape63-38" v:mID="63" v:groupContext="shape" transform="translate(275.426,-23.3226)">
			<title>工作表.63</title>
			<path d="M0 120.56 L16.4 120.56" class="st5"/>
		</g>
		<g id="shape65-41" v:mID="65" v:groupContext="shape" transform="translate(334.328,67.4687) rotate(90)">
			<title>工作表.65</title>
			<path d="M0 112.05 C0 114.36 0 116.26 0 116.26 L7.49 116.26 C7.49 116.26 7.49 118.25 7.49 120.56 C7.49 118.25 7.49 116.26
						 7.49 116.26 L15.02 116.26 C15.02 116.26 15.02 114.36 15.02 112.05 L0 112.05 Z" class="st4"/>
			<path d="M0 112.05 C0 114.36 0 116.26 0 116.26 L7.49 116.26 C7.49 116.26 7.49 118.25 7.49 120.56 C7.49 118.25 7.49 116.26
						 7.49 116.26 L15.02 116.26 C15.02 116.26 15.02 114.36 15.02 112.05" class="st5"/>
		</g>
		<g id="shape66-44" v:mID="66" v:groupContext="shape" transform="translate(334.328,97.2325) rotate(90)">
			<title>工作表.66</title>
			<path d="M0 112.05 C0 114.36 0 116.26 0 116.26 L7.49 116.26 C7.49 116.26 7.49 118.25 7.49 120.56 C7.49 118.25 7.49 116.26
						 7.49 116.26 L15.02 116.26 C15.02 116.26 15.02 114.36 15.02 112.05 L0 112.05 Z" class="st4"/>
			<path d="M0 112.05 C0 114.36 0 116.26 0 116.26 L7.49 116.26 C7.49 116.26 7.49 118.25 7.49 120.56 C7.49 118.25 7.49 116.26
						 7.49 116.26 L15.02 116.26 C15.02 116.26 15.02 114.36 15.02 112.05" class="st5"/>
		</g>
		<g id="shape67-47" v:mID="67" v:groupContext="shape" transform="translate(223.068,32.0357) rotate(90)">
			<title>工作表.67</title>
			<path d="M0 112.05 C0 114.36 0 116.26 0 116.26 L36.37 116.26 C36.37 116.26 36.37 118.25 36.37 120.56 C36.37 118.25 36.37
						 116.26 36.37 116.26 L72.99 116.26 C72.99 116.26 72.99 114.36 72.99 112.05 L0 112.05 Z" class="st4"/>
			<path d="M0 112.05 C0 114.36 0 116.26 0 116.26 L36.37 116.26 C36.37 116.26 36.37 118.25 36.37 120.56 C36.37 118.25 36.37
						 116.26 36.37 116.26 L72.99 116.26 C72.99 116.26 72.99 114.36 72.99 112.05" class="st5"/>
		</g>
		<g id="shape76-50" v:mID="76" v:groupContext="shape" transform="translate(405.194,24.1695) rotate(90)">
			<title>工作表.76</title>
			<path d="M0 103.55 C0 108.16 0 111.97 0 111.97 L7.49 111.97 C7.49 111.97 7.49 115.95 7.49 120.56 C7.49 115.95 7.49 111.97
						 7.49 111.97 L15.02 111.97 C15.02 111.97 15.02 108.16 15.02 103.55 L0 103.55 Z" class="st4"/>
			<path d="M0 103.55 C0 108.16 0 111.97 0 111.97 L7.49 111.97 C7.49 111.97 7.49 115.95 7.49 120.56 C7.49 115.95 7.49 111.97
						 7.49 111.97 L15.02 111.97 C15.02 111.97 15.02 108.16 15.02 103.55" class="st5"/>
		</g>
		<g id="shape77-53" v:mID="77" v:groupContext="shape" transform="translate(325.174,-8.82873)">
			<title>工作表.77</title>
			<path d="M0 120.56 L16.4 120.56" class="st5"/>
		</g>
	</g>
</svg>
