<?xml version="1.0" encoding="UTF-8" standalone="no"?>
<!DOCTYPE svg PUBLIC "-//W3C//DTD SVG 1.1//EN" "http://www.w3.org/Graphics/SVG/1.1/DTD/svg11.dtd">
<!-- 由 Microsoft Visio, SVG Export 產生 A01807.svg 頁-1 -->
<svg xmlns="http://www.w3.org/2000/svg" xmlns:xlink="http://www.w3.org/1999/xlink" xmlns:ev="http://www.w3.org/2001/xml-events"
		xmlns:v="http://schemas.microsoft.com/visio/2003/SVGExtensions/" width="2.64485in" height="1.00934in"
		viewBox="0 0 190.429 72.6726" xml:space="preserve" color-interpolation-filters="sRGB" class="st6">
	<v:documentProperties v:langID="1028" v:viewMarkup="false"/>

	<style type="text/css">
	<![CDATA[
		.st1 {fill:none;stroke:none;stroke-linecap:butt;stroke-width:0.75}
		.st2 {fill:#000000;font-family:新細明體;font-size:0.833336em}
		.st3 {font-size:1em}
		.st4 {fill:none}
		.st5 {stroke:#040000;stroke-linecap:round;stroke-linejoin:round;stroke-width:0.705463}
		.st6 {fill:none;fill-rule:evenodd;font-size:12px;overflow:visible;stroke-linecap:square;stroke-miterlimit:3}
	]]>
	</style>

	<g v:mID="0" v:index="1" v:groupContext="foregroundPage">
		<title>頁-1</title>
		<v:pageProperties v:drawingScale="0.0393701" v:pageScale="0.0393701" v:drawingUnits="24" v:shadowOffsetX="9"
				v:shadowOffsetY="-9"/>
		<g id="shape1-1" v:mID="1" v:groupContext="shape" transform="translate(54.3021,-0.903148)">
			<title>工作表.1</title>
			<desc>苦智 集智 盡智 道智 世智</desc>
			<v:textBlock v:margins="rect(0,0,0,0)" v:tabSpace="42.5197"/>
			<v:textRect cx="11.2874" cy="37.2396" width="22.58" height="70.8661"/>
			<rect x="0" y="1.8065" width="22.5748" height="70.8661" class="st1"/>
			<text x="0" y="11.8" class="st2" v:langID="1028"><v:paragraph v:spLine="-1.4"/><v:tabList/>苦智<v:newlineChar/><tspan
						x="0" dy="1.453em" class="st3">集智<v:newlineChar/></tspan><tspan x="0" dy="1.453em" class="st3">盡智<v:newlineChar/></tspan><tspan
						x="0" dy="1.453em" class="st3">道智<v:newlineChar/></tspan><tspan x="0" dy="1.453em" class="st3">世智</tspan></text>		</g>
		<g id="shape5-8" v:mID="5" v:groupContext="shape" transform="translate(0.75,-29.9807)">
			<title>工作表.5</title>
			<desc>智所知法</desc>
			<v:textBlock v:margins="rect(0,0,0,0)" v:tabSpace="42.5197"/>
			<v:textRect cx="22.5748" cy="65.9002" width="45.15" height="13.5449"/>
			<rect x="0" y="59.1277" width="45.1496" height="13.5449" class="st1"/>
			<text x="0" y="69.53" class="st2" v:langID="1028"><v:paragraph v:spLine="-1.4"/><v:tabList/>智所知法</text>		</g>
		<g id="shape19-11" v:mID="19" v:groupContext="shape" transform="translate(115.001,7.98995) rotate(90)">
			<title>工作表.19</title>
			<path d="M0 61.39 C0 64.52 2.12 67.03 4.7 67.03 L23.59 67.03 C26.23 67.03 28.35 69.6 28.35 72.67 C28.35 69.6 30.47 67.03
						 33.04 67.03 L51.94 67.03 C54.57 67.03 56.69 64.52 56.69 61.39 L0 61.39 Z" class="st4"/>
			<path d="M0 61.39 C0 64.52 2.12 67.03 4.7 67.03 L23.59 67.03 C26.23 67.03 28.35 69.6 28.35 72.67 C28.35 69.6 30.47 67.03
						 33.04 67.03 L51.94 67.03 C54.57 67.03 56.69 64.52 56.69 61.39" class="st5"/>
		</g>
		<g id="shape20-14" v:mID="20" v:groupContext="shape" transform="translate(76.2933,-64.2575)">
			<title>工作表.20</title>
			<path d="M0 72.67 L37.05 72.67" class="st5"/>
		</g>
		<g id="shape21-17" v:mID="21" v:groupContext="shape" transform="translate(76.2933,-6.71416)">
			<title>工作表.21</title>
			<path d="M0 72.67 L37.05 72.67" class="st5"/>
		</g>
		<g id="shape22-20" v:mID="22" v:groupContext="shape" transform="translate(76.2933,-20.4076)">
			<title>工作表.22</title>
			<path d="M0 72.67 L37.05 72.67" class="st5"/>
		</g>
		<g id="shape23-23" v:mID="23" v:groupContext="shape" transform="translate(76.2933,-35.9474)">
			<title>工作表.23</title>
			<path d="M0 72.67 L37.05 72.67" class="st5"/>
		</g>
		<g id="shape24-26" v:mID="24" v:groupContext="shape" transform="translate(76.2933,-50.564)">
			<title>工作表.24</title>
			<path d="M0 72.67 L37.05 72.67" class="st5"/>
		</g>
		<g id="shape25-29" v:mID="25" v:groupContext="shape" transform="translate(51.0989,-2.20718) rotate(-20.2846)">
			<title>工作表.25</title>
			<path d="M0 72.67 L39.5 72.67" class="st5"/>
		</g>
		<g id="shape26-32" v:mID="26" v:groupContext="shape" transform="translate(31.2772,8.90706) rotate(-38.275)">
			<title>工作表.26</title>
			<path d="M0 72.67 L47.19 72.67" class="st5"/>
		</g>
		<g id="shape27-35" v:mID="27" v:groupContext="shape" transform="translate(20.7818,19.0566) rotate(-49.8054)">
			<title>工作表.27</title>
			<path d="M0 72.67 L57.41 72.67" class="st5"/>
		</g>
		<g id="shape28-38" v:mID="28" v:groupContext="shape" transform="translate(15.1901,26.6175) rotate(-57.2248)">
			<title>工作表.28</title>
			<path d="M0 72.67 L68.44 72.67" class="st5"/>
		</g>
		<g id="shape30-41" v:mID="30" v:groupContext="shape" transform="translate(115.978,-0.903148)">
			<title>工作表.30</title>
			<desc>苦 集 盡 道 虛空、非數緣滅</desc>
			<v:textBlock v:margins="rect(0,0,0,0)" v:tabSpace="42.5197"/>
			<v:textRect cx="36.8504" cy="37.2396" width="73.71" height="70.8661"/>
			<rect x="0" y="1.8065" width="73.7008" height="70.8661" class="st1"/>
			<text x="-0" y="11.8" class="st2" v:langID="1028"><v:paragraph v:spLine="-1.4"/><v:tabList/>苦<v:newlineChar/><tspan
						x="-0" dy="1.453em" class="st3">集<v:newlineChar/></tspan><tspan x="-0" dy="1.453em" class="st3">盡<v:newlineChar/></tspan><tspan
						x="-0" dy="1.453em" class="st3">道<v:newlineChar/></tspan><tspan x="-0" dy="1.453em" class="st3">虛空</tspan>、非數緣滅</text>		</g>
	</g>
</svg>
