<?xml version="1.0" encoding="UTF-8" standalone="no"?>
<!DOCTYPE svg PUBLIC "-//W3C//DTD SVG 1.1//EN" "http://www.w3.org/Graphics/SVG/1.1/DTD/svg11.dtd">
<!-- 由 Microsoft Visio, SVG Export 產生 A02406.svg 頁-1 -->
<svg xmlns="http://www.w3.org/2000/svg" xmlns:xlink="http://www.w3.org/1999/xlink" xmlns:ev="http://www.w3.org/2001/xml-events"
		xmlns:v="http://schemas.microsoft.com/visio/2003/SVGExtensions/" width="7.61608in" height="0.66162in"
		viewBox="0 0 548.358 47.6366" xml:space="preserve" color-interpolation-filters="sRGB" class="st7">
	<v:documentProperties v:langID="1028" v:viewMarkup="false"/>

	<style type="text/css">
	<![CDATA[
		.st1 {fill:none;stroke:none;stroke-linecap:butt;stroke-width:0.75}
		.st2 {fill:#000000;font-family:新細明體;font-size:0.833336em}
		.st3 {font-family:Times New Roman;font-size:1em}
		.st4 {font-size:1em}
		.st5 {fill:none}
		.st6 {stroke:#040000;stroke-linecap:round;stroke-linejoin:round;stroke-width:0.705463}
		.st7 {fill:none;fill-rule:evenodd;font-size:12px;overflow:visible;stroke-linecap:square;stroke-miterlimit:3}
	]]>
	</style>

	<g v:mID="0" v:index="1" v:groupContext="foregroundPage">
		<title>頁-1</title>
		<v:pageProperties v:drawingScale="0.0393701" v:pageScale="0.0393701" v:drawingUnits="24" v:shadowOffsetX="9"
				v:shadowOffsetY="-9"/>
		<g id="shape2-1" v:mID="2" v:groupContext="shape" transform="translate(80.822,-13.6831)">
			<title>工作表.2</title>
			<desc>財施1.報在欲界2.有量3.有盡4.淨少垢多報5.待眾力6.增長四大諸根7.有佛無佛常有。 法施1.報三界或出2.無量3....</desc>
			<v:textBlock v:margins="rect(0,0,0,0)" v:tabSpace="42.5197"/>
			<v:textRect cx="233.393" cy="31.0349" width="466.79" height="33.2035"/>
			<rect x="0" y="14.4331" width="466.786" height="33.2035" class="st1"/>
			<text x="0" y="27.4" class="st2" v:langID="1028"><v:paragraph v:spLine="-1.4"/><v:tabList/>財施：<tspan class="st3">1.</tspan>報在欲界，<tspan
						class="st3">2.</tspan>有量，<tspan class="st3">3.</tspan>有盡，<tspan class="st3">4.</tspan>淨少垢多（報），<tspan
						class="st3">5.</tspan>待眾力，<tspan class="st3">6.</tspan>增長四大諸根，<tspan class="st3">7.</tspan>有佛無佛常有。<v:newlineChar/><tspan
						x="0" dy="1.453em" class="st4">法施</tspan>：<tspan class="st3">1.</tspan>報三界或出，<tspan class="st3">2.</tspan>無量，<tspan
						class="st3">3.</tspan>無盡，<tspan class="st3">4.</tspan>垢少淨多（報），<tspan class="st3">5.</tspan>不待他心，<tspan
						class="st3">6.</tspan>具足無漏根力等，<tspan class="st3">7.</tspan>唯在佛世。</text>		</g>
		<g id="shape18-19" v:mID="18" v:groupContext="shape" transform="translate(51.2383,-22.7897)">
			<title>工作表.18</title>
			<desc>比較</desc>
			<v:textBlock v:margins="rect(0,0,0,0)" v:tabSpace="42.5197"/>
			<v:textRect cx="11.2874" cy="40.8642" width="22.58" height="13.5449"/>
			<rect x="0" y="34.0917" width="22.5748" height="13.5449" class="st1"/>
			<text x="0" y="44.5" class="st2" v:langID="1028"><v:paragraph v:spLine="-1.4"/><v:tabList/>比較</text>		</g>
		<g id="shape19-22" v:mID="19" v:groupContext="shape" transform="translate(0.75,-12.2974)">
			<title>工作表.19</title>
			<desc>二施勝劣</desc>
			<v:textBlock v:margins="rect(0,0,0,0)" v:tabSpace="42.5197"/>
			<v:textRect cx="22.5748" cy="40.8642" width="45.15" height="13.5449"/>
			<rect x="0" y="34.0917" width="45.1496" height="13.5449" class="st1"/>
			<text x="-0" y="44.5" class="st2" v:langID="1028"><v:paragraph v:spLine="-1.4"/><v:tabList/>二施勝劣</text>		</g>
		<g id="shape38-25" v:mID="38" v:groupContext="shape" transform="translate(51.236,-0.75)">
			<title>工作表.38</title>
			<desc>直顯法施之勝1.辟支尚且不能2.法施出生財施及三乘3.法施能分別一切法相。</desc>
			<v:textBlock v:margins="rect(0,0,0,0)" v:tabSpace="42.5197"/>
			<v:textRect cx="183.273" cy="40.8642" width="366.55" height="13.5449"/>
			<rect x="0" y="34.0917" width="366.545" height="13.5449" class="st1"/>
			<text x="0" y="44.5" class="st2" v:langID="1028"><v:paragraph v:spLine="-1.4"/><v:tabList/>直顯法施之勝：<tspan class="st3">1.</tspan>辟支尚且不能，<tspan
						class="st3">2.</tspan>法施出生財施及三乘，<tspan class="st3">3.</tspan>法施能分別一切法相。</text>		</g>
		<g id="shape73-31" v:mID="73" v:groupContext="shape" transform="translate(120.011,11.0961) rotate(90)">
			<title>工作表.73</title>
			<path d="M0 41.11 C0 42.91 0 44.4 0 44.4 L7.53 44.4 C7.53 44.4 7.53 45.84 7.53 47.64 C7.53 45.84 7.53 44.4 7.53 44.4
						 L15.07 44.4 C15.07 44.4 15.07 42.91 15.07 41.11 L0 41.11 Z" class="st5"/>
			<path d="M0 41.11 C0 42.91 0 44.4 0 44.4 L7.53 44.4 C7.53 44.4 7.53 45.84 7.53 47.64 C7.53 45.84 7.53 44.4 7.53 44.4
						 L15.07 44.4 C15.07 44.4 15.07 42.91 15.07 41.11" class="st6"/>
		</g>
		<g id="shape74-34" v:mID="74" v:groupContext="shape" transform="translate(90.9063,18.9299) rotate(90)">
			<title>工作表.74</title>
			<path d="M0 41.11 C0 42.91 0 44.4 0 44.4 L11.06 44.4 C11.06 44.4 11.06 45.84 11.06 47.64 C11.06 45.84 11.06 44.4 11.06
						 44.4 L22.11 44.4 C22.11 44.4 22.11 42.91 22.11 41.11 L0 41.11 Z" class="st5"/>
			<path d="M0 41.11 C0 42.91 0 44.4 0 44.4 L11.06 44.4 C11.06 44.4 11.06 45.84 11.06 47.64 C11.06 45.84 11.06 44.4 11.06
						 44.4 L22.11 44.4 C22.11 44.4 22.11 42.91 22.11 41.11" class="st6"/>
		</g>
	</g>
</svg>
