<?xml version="1.0" encoding="UTF-8" standalone="no"?>
<!DOCTYPE svg PUBLIC "-//W3C//DTD SVG 1.1//EN" "http://www.w3.org/Graphics/SVG/1.1/DTD/svg11.dtd">
<!-- 由 Microsoft Visio, SVG Export 產生 A00402.svg 頁-1 -->
<svg xmlns="http://www.w3.org/2000/svg" xmlns:xlink="http://www.w3.org/1999/xlink" xmlns:ev="http://www.w3.org/2001/xml-events"
		xmlns:v="http://schemas.microsoft.com/visio/2003/SVGExtensions/" width="5.63697in" height="2.15778in"
		viewBox="0 0 405.862 155.36" xml:space="preserve" color-interpolation-filters="sRGB" class="st6">
	<v:documentProperties v:langID="1028" v:viewMarkup="false"/>

	<style type="text/css">
	<![CDATA[
		.st1 {fill:none;stroke:none;stroke-linecap:butt;stroke-width:0.75}
		.st2 {fill:#000000;font-family:新細明體;font-size:0.833336em}
		.st3 {fill:#000000;font-family:Times New Roman;font-size:0.833336em}
		.st4 {fill:none}
		.st5 {stroke:#040000;stroke-linecap:round;stroke-linejoin:round;stroke-width:0.705463}
		.st6 {fill:none;fill-rule:evenodd;font-size:12px;overflow:visible;stroke-linecap:square;stroke-miterlimit:3}
	]]>
	</style>

	<g v:mID="0" v:index="1" v:groupContext="foregroundPage">
		<title>頁-1</title>
		<v:pageProperties v:drawingScale="0.0393701" v:pageScale="0.0393701" v:drawingUnits="24" v:shadowOffsetX="9"
				v:shadowOffsetY="-9"/>
		<g id="shape3-1" v:mID="3" v:groupContext="shape" transform="translate(96.9038,-141.065)">
			<title>工作表.3</title>
			<desc>識所緣法</desc>
			<v:textBlock v:margins="rect(0,0,0,0)" v:tabSpace="42.5197"/>
			<v:textRect cx="22.5748" cy="148.587" width="45.15" height="13.5449"/>
			<rect x="0" y="141.815" width="45.1496" height="13.5449" class="st1"/>
			<text x="-0" y="151.7" class="st2" v:langID="1028"><v:paragraph/><v:tabList/>識所緣法</text>		</g>
		<g id="shape10-4" v:mID="10" v:groupContext="shape" transform="translate(96.9029,-123.604)">
			<title>工作表.10</title>
			<desc>智所緣法</desc>
			<v:textBlock v:margins="rect(0,0,0,0)" v:tabSpace="42.5197"/>
			<v:textRect cx="22.5748" cy="148.587" width="45.15" height="13.5449"/>
			<rect x="0" y="141.815" width="45.1496" height="13.5449" class="st1"/>
			<text x="0" y="151.7" class="st2" v:langID="1028"><v:paragraph/><v:tabList/>智所緣法</text>		</g>
		<g id="shape11-7" v:mID="11" v:groupContext="shape" transform="translate(96.9038,-106.143)">
			<title>工作表.11</title>
			<desc>色無色可見不可見有為無為心相應心不相應隨心行不隨心行</desc>
			<v:textBlock v:margins="rect(0,0,0,0)" v:tabSpace="42.5197"/>
			<v:textRect cx="154.104" cy="148.587" width="308.21" height="13.5449"/>
			<rect x="0" y="141.815" width="308.208" height="13.5449" class="st1"/>
			<text x="0" y="151.7" class="st2" v:langID="1028"><v:paragraph/><v:tabList/>色無色；可見不可見；有為無為；心相應心不相應；隨心行不隨心行</text>		</g>
		<g id="shape12-10" v:mID="12" v:groupContext="shape" transform="translate(41.2506,-94.9216)">
			<title>工作表.12</title>
			<desc>二法攝</desc>
			<v:textBlock v:margins="rect(0,0,0,0)" v:tabSpace="42.5197"/>
			<v:textRect cx="22.5748" cy="148.587" width="45.15" height="13.5449"/>
			<rect x="0" y="141.815" width="45.1496" height="13.5449" class="st1"/>
			<text x="10" y="151.7" class="st2" v:langID="1028"><v:paragraph/><v:tabList/>二法攝</text>		</g>
		<g id="shape13-13" v:mID="13" v:groupContext="shape" transform="translate(96.9029,-88.6823)">
			<title>工作表.13</title>
			<desc>漏無漏有對無對近法遠法業相應業不相應從心因不從心因</desc>
			<v:textBlock v:margins="rect(0,0,0,0)" v:tabSpace="42.5197"/>
			<v:textRect cx="148.435" cy="148.587" width="296.88" height="13.5449"/>
			<rect x="0" y="141.815" width="296.87" height="13.5449" class="st1"/>
			<text x="0" y="151.7" class="st2" v:langID="1028"><v:paragraph/><v:tabList/>漏無漏；有對無對；近法遠法；業相應業不相應；從心因不從心因</text>		</g>
		<g id="shape14-16" v:mID="14" v:groupContext="shape" transform="translate(0.75,-67.0807)">
			<title>工作表.14</title>
			<desc>一切法</desc>
			<v:textBlock v:margins="rect(0,0,0,0)" v:tabSpace="42.5197"/>
			<v:textRect cx="16.9311" cy="148.587" width="33.87" height="13.5449"/>
			<rect x="0" y="141.815" width="33.8622" height="13.5449" class="st1"/>
			<text x="0" y="151.7" class="st2" v:langID="1028"><v:paragraph/><v:tabList/>一切法</text>		</g>
		<g id="shape15-19" v:mID="15" v:groupContext="shape" transform="translate(41.2498,-70.1988)">
			<title>工作表.15</title>
			<desc>三法攝</desc>
			<v:textBlock v:margins="rect(0,0,0,0)" v:tabSpace="42.5197"/>
			<v:textRect cx="22.5748" cy="148.587" width="45.15" height="13.5449"/>
			<rect x="0" y="141.815" width="45.1496" height="13.5449" class="st1"/>
			<text x="10" y="151.7" class="st2" v:langID="1028"><v:paragraph/><v:tabList/>三法攝</text>		</g>
		<g id="shape16-22" v:mID="16" v:groupContext="shape" transform="translate(81.3147,-70.1988)">
			<title>工作表.16</title>
			<desc>—</desc>
			<v:textBlock v:margins="rect(0,0,0,0)" v:tabSpace="42.5197"/>
			<v:textRect cx="16.9311" cy="148.587" width="33.87" height="13.5449"/>
			<rect x="0" y="141.815" width="33.8622" height="13.5449" class="st1"/>
			<text x="5.3" y="151.59" class="st3" v:langID="1028"><v:paragraph/><v:tabList/>— </text>		</g>
		<g id="shape17-25" v:mID="17" v:groupContext="shape" transform="translate(96.9025,-71.2214)">
			<title>工作表.17</title>
			<desc>三性三學三斷三科</desc>
			<v:textBlock v:margins="rect(0,0,0,0)" v:tabSpace="42.5197"/>
			<v:textRect cx="62.0808" cy="148.587" width="124.17" height="13.5449"/>
			<rect x="0" y="141.815" width="124.162" height="13.5449" class="st1"/>
			<text x="0" y="151.7" class="st2" v:langID="1028"><v:paragraph/><v:tabList/>三性；三學；三斷；三科</text>		</g>
		<g id="shape18-28" v:mID="18" v:groupContext="shape" transform="translate(96.9029,-53.7605)">
			<title>工作表.18</title>
			<desc>三世非三世三界非三界從善、不善、無記、俱非因生法</desc>
			<v:textBlock v:margins="rect(0,0,0,0)" v:tabSpace="42.5197"/>
			<v:textRect cx="132.845" cy="148.587" width="265.69" height="13.5449"/>
			<rect x="0" y="141.815" width="265.689" height="13.5449" class="st1"/>
			<text x="-0" y="151.7" class="st2" v:langID="1028"><v:paragraph/><v:tabList/>三世非三世；三界非三界；從善、不善、無記、俱非因生法</text>		</g>
		<g id="shape19-31" v:mID="19" v:groupContext="shape" transform="translate(41.2511,-44.687)">
			<title>工作表.19</title>
			<desc>四法攝</desc>
			<v:textBlock v:margins="rect(0,0,0,0)" v:tabSpace="42.5197"/>
			<v:textRect cx="22.5748" cy="148.587" width="45.15" height="13.5449"/>
			<rect x="0" y="141.815" width="45.1496" height="13.5449" class="st1"/>
			<text x="10" y="151.7" class="st2" v:langID="1028"><v:paragraph/><v:tabList/>四法攝</text>		</g>
		<g id="shape20-34" v:mID="20" v:groupContext="shape" transform="translate(96.9033,-36.2996)">
			<title>工作表.20</title>
			<desc>緣緣緣不緣緣緣不緣非緣緣非緣不緣法</desc>
			<v:textBlock v:margins="rect(0,0,0,0)" v:tabSpace="42.5197"/>
			<v:textRect cx="103.081" cy="148.587" width="206.17" height="13.5449"/>
			<rect x="0" y="141.815" width="206.161" height="13.5449" class="st1"/>
			<text x="0" y="151.7" class="st2" v:langID="1028"><v:paragraph/><v:tabList/>緣緣；緣不緣；緣緣不緣；非緣緣非緣不緣法</text>		</g>
		<g id="shape21-37" v:mID="21" v:groupContext="shape" transform="translate(41.2506,-18.072)">
			<title>工作表.21</title>
			<desc>五法攝</desc>
			<v:textBlock v:margins="rect(0,0,0,0)" v:tabSpace="42.5197"/>
			<v:textRect cx="22.5748" cy="148.587" width="45.15" height="13.5449"/>
			<rect x="0" y="141.815" width="45.1496" height="13.5449" class="st1"/>
			<text x="10" y="151.7" class="st2" v:langID="1028"><v:paragraph/><v:tabList/>五法攝</text>		</g>
		<g id="shape22-40" v:mID="22" v:groupContext="shape" transform="translate(81.3155,-18.072)">
			<title>工作表.22</title>
			<desc>—</desc>
			<v:textBlock v:margins="rect(0,0,0,0)" v:tabSpace="42.5197"/>
			<v:textRect cx="16.9311" cy="148.587" width="33.87" height="13.5449"/>
			<rect x="0" y="141.815" width="33.8622" height="13.5449" class="st1"/>
			<text x="5.3" y="151.59" class="st3" v:langID="1028"><v:paragraph/><v:tabList/>— </text>		</g>
		<g id="shape23-43" v:mID="23" v:groupContext="shape" transform="translate(96.9033,-18.8388)">
			<title>工作表.23</title>
			<desc>色、心、心相應、心不相應、無為</desc>
			<v:textBlock v:margins="rect(0,0,0,0)" v:tabSpace="42.5197"/>
			<v:textRect cx="77.5688" cy="148.587" width="155.14" height="13.5449"/>
			<rect x="0" y="141.815" width="155.138" height="13.5449" class="st1"/>
			<text x="0" y="151.7" class="st2" v:langID="1028"><v:paragraph/><v:tabList/>色、心、心相應、心不相應、無為  </text>		</g>
		<g id="shape24-46" v:mID="24" v:groupContext="shape" transform="translate(307.316,-19.4894)">
			<title>工作表.24</title>
			<desc>四諦及無記無為</desc>
			<v:textBlock v:margins="rect(0,0,0,0)" v:tabSpace="42.5197"/>
			<v:textRect cx="39.5059" cy="148.587" width="79.02" height="13.5449"/>
			<rect x="0" y="141.815" width="79.0119" height="13.5449" class="st1"/>
			<text x="0" y="151.7" class="st2" v:langID="1028"><v:paragraph/><v:tabList/>四諦及無記無為</text>		</g>
		<g id="shape27-49" v:mID="27" v:groupContext="shape" transform="translate(96.902,-1.37787)">
			<title>工作表.27</title>
			<desc>見苦、集、盡、道斷思惟斷、不斷</desc>
			<v:textBlock v:margins="rect(0,0,0,0)" v:tabSpace="42.5197"/>
			<v:textRect cx="83.9474" cy="148.587" width="167.9" height="13.5449"/>
			<rect x="0" y="141.815" width="167.895" height="13.5449" class="st1"/>
			<text x="-0" y="151.7" class="st2" v:langID="1028"><v:paragraph/><v:tabList/>見苦、集、盡、道斷，思惟斷、不斷</text>		</g>
		<g id="shape28-52" v:mID="28" v:groupContext="shape" transform="translate(307.317,-1.37834)">
			<title>工作表.28</title>
			<desc>五眾及無為</desc>
			<v:textBlock v:margins="rect(0,0,0,0)" v:tabSpace="42.5197"/>
			<v:textRect cx="28.2185" cy="148.587" width="56.44" height="13.5449"/>
			<rect x="0" y="141.815" width="56.4371" height="13.5449" class="st1"/>
			<text x="0" y="151.7" class="st2" v:langID="1028"><v:paragraph/><v:tabList/>五眾及無為</text>		</g>
		<g id="shape43-55" v:mID="43" v:groupContext="shape" transform="translate(241.574,4.37362) rotate(90)">
			<title>工作表.43</title>
			<path d="M0 146.89 C0 149.25 0.86 151.13 1.86 151.13 L9.42 151.13 C10.48 151.13 11.34 153.01 11.34 155.36 C11.34 153.01
						 12.2 151.13 13.2 151.13 L20.76 151.13 C21.82 151.13 22.68 149.25 22.68 146.89 L0 146.89 Z" class="st4"/>
			<path d="M0 146.89 C0 149.25 0.86 151.13 1.86 151.13 L9.42 151.13 C10.48 151.13 11.34 153.01 11.34 155.36 C11.34 153.01
						 12.2 151.13 13.2 151.13 L20.76 151.13 C21.82 151.13 22.68 149.25 22.68 146.89" class="st5"/>
		</g>
		<g id="shape46-58" v:mID="46" v:groupContext="shape" transform="translate(188.693,14.2949) rotate(90)">
			<title>工作表.46</title>
			<path d="M0 138.43 C0 143.13 5 146.89 11.13 146.89 L55.78 146.89 C61.97 146.89 66.97 150.75 66.97 155.36 C66.97 150.75
						 71.97 146.89 78.1 146.89 L122.75 146.89 C128.94 146.89 133.94 143.13 133.94 138.43 L0 138.43 Z"
					class="st4"/>
			<path d="M0 138.43 C0 143.13 5 146.89 11.13 146.89 L55.78 146.89 C61.97 146.89 66.97 150.75 66.97 155.36 C66.97 150.75
						 71.97 146.89 78.1 146.89 L122.75 146.89 C128.94 146.89 133.94 143.13 133.94 138.43" class="st5"/>
		</g>
		<g id="shape48-61" v:mID="48" v:groupContext="shape" transform="translate(241.574,41.224) rotate(90)">
			<title>工作表.48</title>
			<path d="M0 146.89 C0 149.25 0.86 151.13 1.86 151.13 L9.42 151.13 C10.48 151.13 11.34 153.01 11.34 155.36 C11.34 153.01
						 12.2 151.13 13.2 151.13 L20.76 151.13 C21.82 151.13 22.68 149.25 22.68 146.89 L0 146.89 Z" class="st4"/>
			<path d="M0 146.89 C0 149.25 0.86 151.13 1.86 151.13 L9.42 151.13 C10.48 151.13 11.34 153.01 11.34 155.36 C11.34 153.01
						 12.2 151.13 13.2 151.13 L20.76 151.13 C21.82 151.13 22.68 149.25 22.68 146.89" class="st5"/>
		</g>
		<g id="shape49-64" v:mID="49" v:groupContext="shape" transform="translate(241.574,92.2476) rotate(90)">
			<title>工作表.49</title>
			<path d="M0 146.89 C0 149.25 0.86 151.13 1.86 151.13 L9.42 151.13 C10.48 151.13 11.34 153.01 11.34 155.36 C11.34 153.01
						 12.2 151.13 13.2 151.13 L20.76 151.13 C21.82 151.13 22.68 149.25 22.68 146.89 L0 146.89 Z" class="st4"/>
			<path d="M0 146.89 C0 149.25 0.86 151.13 1.86 151.13 L9.42 151.13 C10.48 151.13 11.34 153.01 11.34 155.36 C11.34 153.01
						 12.2 151.13 13.2 151.13 L20.76 151.13 C21.82 151.13 22.68 149.25 22.68 146.89" class="st5"/>
		</g>
		<g id="shape53-67" v:mID="53" v:groupContext="shape" transform="translate(-8.23924,27.0508) rotate(-90)">
			<title>工作表.53</title>
			<path d="M0 146.89 C0 149.25 0.86 151.13 1.86 151.13 L9.42 151.13 C10.48 151.13 11.34 153.01 11.34 155.36 C11.34 153.01
						 12.2 151.13 13.2 151.13 L20.76 151.13 C21.82 151.13 22.68 149.25 22.68 146.89 L0 146.89 Z" class="st4"/>
			<path d="M0 146.89 C0 149.25 0.86 151.13 1.86 151.13 L9.42 151.13 C10.48 151.13 11.34 153.01 11.34 155.36 C11.34 153.01
						 12.2 151.13 13.2 151.13 L20.76 151.13 C21.82 151.13 22.68 149.25 22.68 146.89" class="st5"/>
		</g>
		<g id="shape54-70" v:mID="54" v:groupContext="shape" transform="translate(81.3155,-0.75)">
			<title>工作表.54</title>
			<desc>—</desc>
			<v:textBlock v:margins="rect(0,0,0,0)" v:tabSpace="42.5197"/>
			<v:textRect cx="16.9311" cy="148.587" width="33.87" height="13.5449"/>
			<rect x="0" y="141.815" width="33.8622" height="13.5449" class="st1"/>
			<text x="5.3" y="151.59" class="st3" v:langID="1028"><v:paragraph/><v:tabList/>— </text>		</g>
		<g id="shape57-73" v:mID="57" v:groupContext="shape" transform="translate(41.2506,-132.875)">
			<title>工作表.57</title>
			<desc>一法攝</desc>
			<v:textBlock v:margins="rect(0,0,0,0)" v:tabSpace="42.5197"/>
			<v:textRect cx="22.5748" cy="148.587" width="45.15" height="13.5449"/>
			<rect x="0" y="141.815" width="45.1496" height="13.5449" class="st1"/>
			<text x="10" y="151.7" class="st2" v:langID="1028"><v:paragraph/><v:tabList/>一法攝</text>		</g>
		<g id="shape58-76" v:mID="58" v:groupContext="shape" transform="translate(41.2506,-1.37837)">
			<title>工作表.58</title>
			<desc>六法攝</desc>
			<v:textBlock v:margins="rect(0,0,0,0)" v:tabSpace="42.5197"/>
			<v:textRect cx="22.5748" cy="148.587" width="45.15" height="13.5449"/>
			<rect x="0" y="141.815" width="45.1496" height="13.5449" class="st1"/>
			<text x="10" y="151.7" class="st2" v:langID="1028"><v:paragraph/><v:tabList/>六法攝</text>		</g>
	</g>
</svg>
