<?xml version="1.0" encoding="UTF-8" standalone="no"?>
<!DOCTYPE svg PUBLIC "-//W3C//DTD SVG 1.1//EN" "http://www.w3.org/Graphics/SVG/1.1/DTD/svg11.dtd">
<!-- 由 Microsoft Visio, SVG Export 產生 A01907.svg 頁-1 -->
<svg xmlns="http://www.w3.org/2000/svg" xmlns:xlink="http://www.w3.org/1999/xlink" xmlns:ev="http://www.w3.org/2001/xml-events"
		xmlns:v="http://schemas.microsoft.com/visio/2003/SVGExtensions/" width="5.86154in" height="0.823631in"
		viewBox="0 0 422.031 59.3014" xml:space="preserve" color-interpolation-filters="sRGB" class="st6">
	<v:documentProperties v:langID="1028" v:viewMarkup="false"/>

	<style type="text/css">
	<![CDATA[
		.st1 {fill:none;stroke:none;stroke-linecap:butt;stroke-width:0.75}
		.st2 {fill:#000000;font-family:新細明體;font-size:0.833336em}
		.st3 {font-size:1em}
		.st4 {fill:none}
		.st5 {stroke:#040000;stroke-linecap:round;stroke-linejoin:round;stroke-width:0.705463}
		.st6 {fill:none;fill-rule:evenodd;font-size:12px;overflow:visible;stroke-linecap:square;stroke-miterlimit:3}
	]]>
	</style>

	<g v:mID="0" v:index="1" v:groupContext="foregroundPage">
		<title>頁-1</title>
		<v:pageProperties v:drawingScale="0.0393701" v:pageScale="0.0393701" v:drawingUnits="24" v:shadowOffsetX="9"
				v:shadowOffsetY="-9"/>
		<g id="shape1-1" v:mID="1" v:groupContext="shape" transform="translate(97.1928,-0.75)">
			<title>工作表.1</title>
			<desc>一、得時施 四、常施不廢 七、施善人故 十、將迎恭敬受者故</desc>
			<v:textBlock v:margins="rect(0,0,0,0)" v:tabSpace="42.5197"/>
			<v:textRect cx="45.1496" cy="30.4007" width="90.3" height="57.8014"/>
			<rect x="0" y="1.5" width="90.2993" height="57.8014" class="st1"/>
			<text x="-0" y="12.23" class="st2" v:langID="1028"><v:paragraph v:spLine="-1.4"/><v:tabList/>一、得時施<v:newlineChar/><tspan
						x="-0" dy="1.453em" class="st3">四</tspan>、常施不廢<v:newlineChar/><tspan x="-0" dy="1.453em" class="st3">七</tspan>、施善人故<v:newlineChar/><tspan
						x="-0" dy="1.453em" class="st3">十</tspan>、將迎恭敬受者故</text>		</g>
		<g id="shape9-7" v:mID="9" v:groupContext="shape" transform="translate(0.75,-21.9329)">
			<title>工作表.9</title>
			<desc>十二種施得福增多</desc>
			<v:textBlock v:margins="rect(0,0,0,0)" v:tabSpace="42.5197"/>
			<v:textRect cx="45.1496" cy="52.529" width="90.3" height="13.5449"/>
			<rect x="0" y="45.7565" width="90.2993" height="13.5449" class="st1"/>
			<text x="0" y="56.16" class="st2" v:langID="1028"><v:paragraph v:spLine="-1.4"/><v:tabList/>十二種施得福增多</text>		</g>
		<g id="shape26-10" v:mID="26" v:groupContext="shape" transform="translate(142.103,8.9451) rotate(90)">
			<title>工作表.26</title>
			<path d="M0 48.01 C0 51.13 1.55 53.66 3.54 53.66 L17.72 53.66 C19.65 53.66 21.26 56.19 21.26 59.3 C21.26 56.19 22.87
						 53.66 24.8 53.66 L38.98 53.66 C40.91 53.66 42.52 51.13 42.52 48.01 L0 48.01 Z" class="st4"/>
			<path d="M0 48.01 C0 51.13 1.55 53.66 3.54 53.66 L17.72 53.66 C19.65 53.66 21.26 56.19 21.26 59.3 C21.26 56.19 22.87
						 53.66 24.8 53.66 L38.98 53.66 C40.91 53.66 42.52 51.13 42.52 48.01" class="st5"/>
		</g>
		<g id="shape30-13" v:mID="30" v:groupContext="shape" transform="translate(217.596,-0.75)">
			<title>工作表.30</title>
			<desc>二、隨所須施 五、如求者意施 八、施僧故 十一、難得物施</desc>
			<v:textBlock v:margins="rect(0,0,0,0)" v:tabSpace="42.5197"/>
			<v:textRect cx="45.1496" cy="30.4007" width="90.3" height="57.8014"/>
			<rect x="0" y="1.5" width="90.2993" height="57.8014" class="st1"/>
			<text x="0" y="12.23" class="st2" v:langID="1028"><v:paragraph v:spLine="-1.4"/><v:tabList/>二、隨所須施<v:newlineChar/><tspan
						x="0" dy="1.453em" class="st3">五</tspan>、如求者意施<v:newlineChar/><tspan x="0" dy="1.453em" class="st3">八</tspan>、施僧故<v:newlineChar/><tspan
						x="0" dy="1.453em" class="st3">十一</tspan>、難得物施</text>		</g>
		<g id="shape35-19" v:mID="35" v:groupContext="shape" transform="translate(319.694,-0.75)">
			<title>工作表.35</title>
			<desc>三、曠路中施 六、施物重故 九、施者受者俱有德故 十二、所有盡布施故</desc>
			<v:textBlock v:margins="rect(0,0,0,0)" v:tabSpace="42.5197"/>
			<v:textRect cx="50.7933" cy="30.4007" width="101.59" height="57.8014"/>
			<rect x="0" y="1.5" width="101.587" height="57.8014" class="st1"/>
			<text x="0" y="12.23" class="st2" v:langID="1028"><v:paragraph v:spLine="-1.4"/><v:tabList/>三、曠路中施<v:newlineChar/><tspan
						x="0" dy="1.453em" class="st3">六</tspan>、施物重故<v:newlineChar/><tspan x="0" dy="1.453em" class="st3">九</tspan>、施者受者俱有德故<v:newlineChar/><tspan
						x="0" dy="1.453em" class="st3">十二</tspan>、所有盡布施故</text>		</g>
	</g>
</svg>
