<?xml version="1.0" encoding="UTF-8" standalone="no"?>
<!DOCTYPE svg PUBLIC "-//W3C//DTD SVG 1.1//EN" "http://www.w3.org/Graphics/SVG/1.1/DTD/svg11.dtd">
<!-- 由 Microsoft Visio, SVG Export 產生 A02403.svg 頁-1 -->
<svg xmlns="http://www.w3.org/2000/svg" xmlns:xlink="http://www.w3.org/1999/xlink" xmlns:ev="http://www.w3.org/2001/xml-events"
		xmlns:v="http://schemas.microsoft.com/visio/2003/SVGExtensions/" width="2.19727in" height="1.10942in"
		viewBox="0 0 158.204 79.878" xml:space="preserve" color-interpolation-filters="sRGB" class="st6">
	<v:documentProperties v:langID="1028" v:viewMarkup="false"/>

	<style type="text/css">
	<![CDATA[
		.st1 {fill:none;stroke:none;stroke-linecap:butt;stroke-width:0.75}
		.st2 {fill:#000000;font-family:新細明體;font-size:0.833336em}
		.st3 {font-size:1em}
		.st4 {fill:none}
		.st5 {stroke:#040000;stroke-linecap:round;stroke-linejoin:round;stroke-width:0.705463}
		.st6 {fill:none;fill-rule:evenodd;font-size:12px;overflow:visible;stroke-linecap:square;stroke-miterlimit:3}
	]]>
	</style>

	<g v:mID="0" v:index="1" v:groupContext="foregroundPage">
		<title>頁-1</title>
		<v:pageProperties v:drawingScale="0.0393701" v:pageScale="0.0393701" v:drawingUnits="24" v:shadowOffsetX="9"
				v:shadowOffsetY="-9"/>
		<g id="shape1-1" v:mID="1" v:groupContext="shape" transform="translate(50.4231,-0.75)">
			<title>工作表.1</title>
			<desc>一、常以好語有所利益 二、以佛語妙法為人說 三、以三藏法教人 四、以四藏法教人 五、以大小乘法教人</desc>
			<v:textBlock v:margins="rect(0,0,0,0)" v:tabSpace="42.5197"/>
			<v:textRect cx="53.5153" cy="40.689" width="107.04" height="78.378"/>
			<rect x="0" y="1.5" width="107.031" height="78.378" class="st1"/>
			<text x="0" y="15.25" class="st2" v:langID="1028"><v:paragraph v:spLine="-1.4"/><v:tabList/>一、常以好語有所利益<v:newlineChar/><tspan
						x="0" dy="1.453em" class="st3">二</tspan>、以佛語妙法為人說<v:newlineChar/><tspan x="0" dy="1.453em" class="st3">三</tspan>、以三藏法教人<v:newlineChar/><tspan
						x="0" dy="1.453em" class="st3">四</tspan>、以四藏法教人<v:newlineChar/><tspan x="0" dy="1.453em" class="st3">五</tspan>、以大小乘法教人</text>		</g>
		<g id="shape3-8" v:mID="3" v:groupContext="shape" transform="translate(0.75,-33.5573)">
			<title>工作表.3</title>
			<desc>法施五說</desc>
			<v:textBlock v:margins="rect(0,0,0,0)" v:tabSpace="42.5197"/>
			<v:textRect cx="22.5748" cy="73.1055" width="45.15" height="13.5449"/>
			<rect x="0" y="66.3331" width="45.1496" height="13.5449" class="st1"/>
			<text x="0" y="76.74" class="st2" v:langID="1028"><v:paragraph v:spLine="-1.4"/><v:tabList/>法施五說</text>		</g>
		<g id="shape19-11" v:mID="19" v:groupContext="shape" transform="translate(122.156,11.0964) rotate(90)">
			<title>工作表.19</title>
			<path d="M0 73.35 C0 75.15 0 76.64 0 76.64 L29.06 76.64 C29.06 76.64 29.06 78.08 29.06 79.88 C29.06 78.08 29.06 76.64
						 29.06 76.64 L58.11 76.64 C58.11 76.64 58.11 75.15 58.11 73.35 L0 73.35 Z" class="st4"/>
			<path d="M0 73.35 C0 75.15 0 76.64 0 76.64 L29.06 76.64 C29.06 76.64 29.06 78.08 29.06 79.88 C29.06 78.08 29.06 76.64
						 29.06 76.64 L58.11 76.64 C58.11 76.64 58.11 75.15 58.11 73.35" class="st5"/>
		</g>
	</g>
</svg>
