<?xml version="1.0" encoding="UTF-8" standalone="no"?>
<!DOCTYPE svg PUBLIC "-//W3C//DTD SVG 1.1//EN" "http://www.w3.org/Graphics/SVG/1.1/DTD/svg11.dtd">
<!-- 由 Microsoft Visio, SVG Export 產生 A02504.svg 頁-1 -->
<svg xmlns="http://www.w3.org/2000/svg" xmlns:xlink="http://www.w3.org/1999/xlink" xmlns:ev="http://www.w3.org/2001/xml-events"
		xmlns:v="http://schemas.microsoft.com/visio/2003/SVGExtensions/" width="5.59761in" height="0.702253in"
		viewBox="0 0 403.028 50.5622" xml:space="preserve" color-interpolation-filters="sRGB" class="st7">
	<v:documentProperties v:langID="1028" v:viewMarkup="false"/>

	<style type="text/css">
	<![CDATA[
		.st1 {fill:none;stroke:none;stroke-linecap:butt;stroke-width:0.75}
		.st2 {fill:#000000;font-family:新細明體;font-size:0.833336em}
		.st3 {font-size:1em}
		.st4 {font-family:Times New Roman;font-size:1em}
		.st5 {fill:none}
		.st6 {stroke:#040000;stroke-linecap:round;stroke-linejoin:round;stroke-width:0.705463}
		.st7 {fill:none;fill-rule:evenodd;font-size:12px;overflow:visible;stroke-linecap:square;stroke-miterlimit:3}
	]]>
	</style>

	<g v:mID="0" v:index="1" v:groupContext="foregroundPage">
		<title>頁-1</title>
		<v:pageProperties v:drawingScale="0.0393701" v:pageScale="0.0393701" v:drawingUnits="24" v:shadowOffsetX="9"
				v:shadowOffsetY="-9"/>
		<g id="shape1-1" v:mID="1" v:groupContext="shape" transform="translate(62.1201,-0.75)">
			<title>工作表.1</title>
			<desc>一、知布施不生滅如涅槃相為一切眾生施。 二、不求果報一切盡施。 三、不可盡1.布施合實相不可盡2.眾生數多不可盡3.佛道無...</desc>
			<v:textBlock v:margins="rect(0,0,0,0)" v:tabSpace="42.5197"/>
			<v:textRect cx="170.079" cy="26.0311" width="340.16" height="49.0622"/>
			<rect x="0" y="1.5" width="340.157" height="49.0622" class="st1"/>
			<text x="0" y="15.13" class="st2" v:langID="1028"><v:paragraph v:spLine="-1.4"/><v:tabList/>一、知布施不生滅如涅槃相，為一切眾生施。<v:newlineChar/><tspan
						x="0" dy="1.453em" class="st3">二</tspan>、不求果報一切盡施。<v:newlineChar/><tspan x="0" dy="1.453em" class="st3">三</tspan>、不可盡：<tspan
						class="st4">1.</tspan>布施合實相不可盡，<tspan class="st4">2.</tspan>眾生數多不可盡，<tspan class="st4">3.</tspan>佛道無量不可盡。</text>		</g>
		<g id="shape2-9" v:mID="2" v:groupContext="shape" transform="translate(0.75,-19.4153)">
			<title>工作表.2</title>
			<desc>布施波羅蜜</desc>
			<v:textBlock v:margins="rect(0,0,0,0)" v:tabSpace="42.5197"/>
			<v:textRect cx="28.2185" cy="43.7898" width="56.44" height="13.5449"/>
			<rect x="0" y="37.0173" width="56.4371" height="13.5449" class="st1"/>
			<text x="0" y="47.42" class="st2" v:langID="1028"><v:paragraph v:spLine="-1.4"/><v:tabList/>布施波羅蜜</text>		</g>
		<g id="shape25-12" v:mID="25" v:groupContext="shape" transform="translate(103.318,11.0964) rotate(90)">
			<title>工作表.25</title>
			<path d="M0 44.03 C0 45.83 0 47.32 0 47.32 L14.6 47.32 C14.6 47.32 14.6 48.76 14.6 50.56 C14.6 48.76 14.6 47.32 14.6
						 47.32 L29.2 47.32 C29.2 47.32 29.2 45.83 29.2 44.03 L0 44.03 Z" class="st5"/>
			<path d="M0 44.03 C0 45.83 0 47.32 0 47.32 L14.6 47.32 C14.6 47.32 14.6 48.76 14.6 50.56 C14.6 48.76 14.6 47.32 14.6
						 47.32 L29.2 47.32 C29.2 47.32 29.2 45.83 29.2 44.03" class="st6"/>
		</g>
	</g>
</svg>
