<?xml version="1.0" encoding="UTF-8" standalone="no"?>
<!DOCTYPE svg PUBLIC "-//W3C//DTD SVG 1.1//EN" "http://www.w3.org/Graphics/SVG/1.1/DTD/svg11.dtd">
<!-- 由 Microsoft Visio, SVG Export 產生 A02602.svg 頁-1 -->
<svg xmlns="http://www.w3.org/2000/svg" xmlns:xlink="http://www.w3.org/1999/xlink" xmlns:ev="http://www.w3.org/2001/xml-events"
		xmlns:v="http://schemas.microsoft.com/visio/2003/SVGExtensions/" width="1.33262in" height="0.456397in"
		viewBox="0 0 95.9484 32.8606" xml:space="preserve" color-interpolation-filters="sRGB" class="st6">
	<v:documentProperties v:langID="1028" v:viewMarkup="false"/>

	<style type="text/css">
	<![CDATA[
		.st1 {fill:none;stroke:none;stroke-linecap:butt;stroke-width:0.75}
		.st2 {fill:#000000;font-family:新細明體;font-size:0.833336em}
		.st3 {font-size:1em}
		.st4 {fill:none}
		.st5 {stroke:#040000;stroke-linecap:round;stroke-linejoin:round;stroke-width:0.705463}
		.st6 {fill:none;fill-rule:evenodd;font-size:12px;overflow:visible;stroke-linecap:square;stroke-miterlimit:3}
	]]>
	</style>

	<g v:mID="0" v:index="1" v:groupContext="foregroundPage">
		<title>頁-1</title>
		<v:pageProperties v:drawingScale="0.0393701" v:pageScale="0.0393701" v:drawingUnits="24" v:shadowOffsetX="9"
				v:shadowOffsetY="-9"/>
		<g id="shape1-1" v:mID="1" v:groupContext="shape" transform="translate(50.0488,-0.75)">
			<title>工作表.1</title>
			<desc>憐憫福田 恭敬福田</desc>
			<v:textBlock v:margins="rect(0,0,0,0)" v:tabSpace="42.5197"/>
			<v:textRect cx="22.5748" cy="17.1803" width="45.15" height="31.3606"/>
			<rect x="0" y="1.5" width="45.1496" height="31.3606" class="st1"/>
			<text x="0" y="13.55" class="st2" v:langID="1028"><v:paragraph v:spLine="-1.4"/><v:tabList/>憐憫福田<v:newlineChar/><tspan
						x="0" dy="1.453em" class="st3">恭敬福田</tspan></text>		</g>
		<g id="shape2-5" v:mID="2" v:groupContext="shape" transform="translate(0.75,-10.0872)">
			<title>工作表.2</title>
			<desc>二種福田</desc>
			<v:textBlock v:margins="rect(0,0,0,0)" v:tabSpace="42.5197"/>
			<v:textRect cx="22.5748" cy="26.0881" width="45.15" height="13.5449"/>
			<rect x="0" y="19.3157" width="45.1496" height="13.5449" class="st1"/>
			<text x="0" y="29.72" class="st2" v:langID="1028"><v:paragraph v:spLine="-1.4"/><v:tabList/>二種福田</text>		</g>
		<g id="shape13-8" v:mID="13" v:groupContext="shape" transform="translate(75.1381,9.28519) rotate(90)">
			<title>工作表.13</title>
			<path d="M0 26.33 C0 28.13 0 29.62 0 29.62 L7.53 29.62 C7.53 29.62 7.53 31.06 7.53 32.86 C7.53 31.06 7.53 29.62 7.53
						 29.62 L15.07 29.62 C15.07 29.62 15.07 28.13 15.07 26.33 L0 26.33 Z" class="st4"/>
			<path d="M0 26.33 C0 28.13 0 29.62 0 29.62 L7.53 29.62 C7.53 29.62 7.53 31.06 7.53 32.86 C7.53 31.06 7.53 29.62 7.53
						 29.62 L15.07 29.62 C15.07 29.62 15.07 28.13 15.07 26.33" class="st5"/>
		</g>
	</g>
</svg>
