<?xml version="1.0" encoding="UTF-8" standalone="no"?>
<!DOCTYPE svg PUBLIC "-//W3C//DTD SVG 1.1//EN" "http://www.w3.org/Graphics/SVG/1.1/DTD/svg11.dtd">
<!-- 由 Microsoft Visio, SVG Export 產生 M013.032=A02606XXXX.svg 頁-1 -->
<svg xmlns="http://www.w3.org/2000/svg" xmlns:xlink="http://www.w3.org/1999/xlink" xmlns:ev="http://www.w3.org/2001/xml-events"
		xmlns:v="http://schemas.microsoft.com/visio/2003/SVGExtensions/" width="4.91893in" height="1.26741in"
		viewBox="0 0 354.163 91.2536" xml:space="preserve" color-interpolation-filters="sRGB" class="st10">
	<v:documentProperties v:langID="1028" v:viewMarkup="false"/>

	<style type="text/css">
	<![CDATA[
		.st1 {fill:none;stroke:none;stroke-linecap:butt;stroke-width:0.75}
		.st2 {fill:#000000;font-family:新細明體;font-size:0.833336em}
		.st3 {font-size:1em}
		.st4 {font-family:Times New Roman;font-size:1em}
		.st5 {fill:#040000}
		.st6 {stroke:none;stroke-linecap:butt;stroke-width:0.940618}
		.st7 {fill:none}
		.st8 {stroke:#040000;stroke-linecap:round;stroke-linejoin:round;stroke-width:0.705463}
		.st9 {fill:#d8d8d8;stroke:none;stroke-linecap:butt;stroke-width:0.75}
		.st10 {fill:none;fill-rule:evenodd;font-size:12px;overflow:visible;stroke-linecap:square;stroke-miterlimit:3}
	]]>
	</style>

	<g v:mID="0" v:index="1" v:groupContext="foregroundPage">
		<title>頁-1</title>
		<v:pageProperties v:drawingScale="0.0393701" v:pageScale="0.0393701" v:drawingUnits="24" v:shadowOffsetX="9"
				v:shadowOffsetY="-9"/>
		<g id="group53-1" transform="translate(0.75,-0.75)" v:mID="53" v:groupContext="group">
			<title>工作表.53</title>
			<g id="shape1-2" v:mID="1" v:groupContext="shape" transform="translate(140.947,1.56319E-13)">
				<title>工作表.1</title>
				<desc>但善法 但欲繫 是身口業 是有漏 是有報 或隨心行</desc>
				<v:textBlock v:margins="rect(0,0,0,0)" v:tabSpace="42.5197"/>
				<v:textRect cx="22.5748" cy="46.3768" width="45.15" height="89.7536"/>
				<rect x="0" y="1.5" width="45.1496" height="89.7536" class="st1"/>
				<text x="0" y="13.67" class="st2" v:langID="1028"><v:paragraph v:spLine="-1.4"/><v:tabList/>但善法<v:newlineChar/><tspan
							x="0" dy="1.453em" class="st3">但欲繫<v:newlineChar/></tspan><tspan x="0" dy="1.453em" class="st3">是身口業<v:newlineChar/></tspan><tspan
							x="0" dy="1.453em" class="st3">是有漏<v:newlineChar/></tspan><tspan x="0" dy="1.453em" class="st3">是有報<v:newlineChar/></tspan><tspan
							x="0" dy="1.453em" class="st3">或隨心行</tspan></text>			</g>
			<g id="shape5-10" v:mID="5" v:groupContext="shape" transform="translate(-9.27376E-13,-38.5775)">
				<title>工作表.5</title>
				<desc>小乘於不殺之異說——迦旃延</desc>
				<v:textBlock v:margins="rect(0,0,0,0)" v:tabSpace="42.5197"/>
				<v:textRect cx="66.8268" cy="84.4812" width="133.66" height="13.5449"/>
				<rect x="0" y="77.7087" width="133.654" height="13.5449" class="st1"/>
				<text x="0" y="88.11" class="st2" v:langID="1028"><v:paragraph v:spLine="-1.4"/><v:tabList/>小乘於不殺之異說<tspan
							class="st4">——</tspan>迦旃延</text>			</g>
			<g id="shape10-14" v:mID="10" v:groupContext="shape" transform="translate(318.801,-38.4186)">
				<title>工作表.10</title>
				<desc>餘毗曇</desc>
				<v:textBlock v:margins="rect(0,0,0,0)" v:tabSpace="42.5197"/>
				<v:textRect cx="16.9311" cy="84.4812" width="33.87" height="13.5449"/>
				<rect x="0" y="77.7087" width="33.8622" height="13.5449" class="st1"/>
				<text x="0" y="88.11" class="st2" v:langID="1028"><v:paragraph v:spLine="-1.4"/><v:tabList/>餘毗曇</text>			</g>
			<g id="shape30-17" v:mID="30" v:groupContext="shape" transform="translate(274.513,8.18492) rotate(90)">
				<title>工作表.30</title>
				<path d="M2 71.95 L0 73.64 L2 68.58 L4.01 73.64 L2 71.95 ZM2 87.88 L4.01 86.2 L2 91.25 L0 86.2 L2 87.88 ZM1.74 87.88
							 L1.74 71.87 L1.8 71.61 L1.94 71.53 L2.14 71.61 L2.2 71.87 L2.2 87.88 L2.14 88.13 L1.94 88.22 L1.8 88.13
							 L1.74 87.88 Z" class="st5"/>
				<path d="M2 71.95 L0 73.64 L2 68.58 L4.01 73.64M2 87.88 L4.01 86.2 L2 91.25 L0 86.2 L2 87.88M1.74 87.88 L1.74 71.87
							 L1.8 71.61 L1.94 71.53 L2.14 71.61 L2.2 71.87 L2.2 87.88 L2.14 88.13 L1.94 88.22 L1.8 88.13 L1.74 87.88"
						class="st6"/>
			</g>
			<g id="shape31-20" v:mID="31" v:groupContext="shape" transform="translate(274.513,22.8043) rotate(90)">
				<title>工作表.31</title>
				<path d="M2 71.95 L0 73.64 L2 68.58 L4.01 73.64 L2 71.95 ZM2 87.88 L4.01 86.2 L2 91.25 L0 86.2 L2 87.88 ZM1.74 87.88
							 L1.74 71.87 L1.8 71.61 L1.94 71.53 L2.14 71.61 L2.2 71.87 L2.2 87.88 L2.14 88.13 L1.94 88.22 L1.8 88.13
							 L1.74 87.88 Z" class="st5"/>
				<path d="M2 71.95 L0 73.64 L2 68.58 L4.01 73.64M2 87.88 L4.01 86.2 L2 91.25 L0 86.2 L2 87.88M1.74 87.88 L1.74 71.87
							 L1.8 71.61 L1.94 71.53 L2.14 71.61 L2.2 71.87 L2.2 87.88 L2.14 88.13 L1.94 88.22 L1.8 88.13 L1.74 87.88"
						class="st6"/>
			</g>
			<g id="shape32-23" v:mID="32" v:groupContext="shape" transform="translate(274.513,37.4237) rotate(90)">
				<title>工作表.32</title>
				<path d="M2 71.95 L0 73.64 L2 68.58 L4.01 73.64 L2 71.95 ZM2 87.88 L4.01 86.2 L2 91.25 L0 86.2 L2 87.88 ZM1.8 87.88
							 L1.8 71.87 L1.87 71.61 L2.07 71.53 L2.2 71.61 L2.27 71.87 L2.27 87.88 L2.2 88.13 L2.07 88.22 L1.87 88.13
							 L1.8 87.88 Z" class="st5"/>
				<path d="M2 71.95 L0 73.64 L2 68.58 L4.01 73.64M2 87.88 L4.01 86.2 L2 91.25 L0 86.2 L2 87.88M1.8 87.88 L1.8 71.87
							 L1.87 71.61 L2.07 71.53 L2.2 71.61 L2.27 71.87 L2.27 87.88 L2.2 88.13 L2.07 88.22 L1.87 88.13 L1.8 87.88"
						class="st6"/>
			</g>
			<g id="shape33-26" v:mID="33" v:groupContext="shape" transform="translate(274.513,52.0431) rotate(90)">
				<title>工作表.33</title>
				<path d="M2 71.95 L0 73.64 L2 68.58 L4.01 73.64 L2 71.95 ZM2 87.88 L4.01 86.2 L2 91.25 L0 86.2 L2 87.88 ZM1.74 87.88
							 L1.74 71.87 L1.8 71.61 L1.94 71.53 L2.14 71.61 L2.2 71.87 L2.2 87.88 L2.14 88.13 L1.94 88.22 L1.8 88.13
							 L1.74 87.88 Z" class="st5"/>
				<path d="M2 71.95 L0 73.64 L2 68.58 L4.01 73.64M2 87.88 L4.01 86.2 L2 91.25 L0 86.2 L2 87.88M1.74 87.88 L1.74 71.87
							 L1.8 71.61 L1.94 71.53 L2.14 71.61 L2.2 71.87 L2.2 87.88 L2.14 88.13 L1.94 88.22 L1.8 88.13 L1.74 87.88"
						class="st6"/>
			</g>
			<g id="shape34-29" v:mID="34" v:groupContext="shape" transform="translate(274.513,66.6626) rotate(90)">
				<title>工作表.34</title>
				<path d="M2 71.95 L0 73.64 L2 68.58 L4.01 73.64 L2 71.95 ZM2 87.88 L4.01 86.2 L2 91.25 L0 86.2 L2 87.88 ZM1.8 87.88
							 L1.8 71.87 L1.87 71.61 L2.07 71.53 L2.2 71.61 L2.27 71.87 L2.27 87.88 L2.2 88.13 L2.07 88.22 L1.87 88.13
							 L1.8 87.88 Z" class="st5"/>
				<path d="M2 71.95 L0 73.64 L2 68.58 L4.01 73.64M2 87.88 L4.01 86.2 L2 91.25 L0 86.2 L2 87.88M1.8 87.88 L1.8 71.87
							 L1.87 71.61 L2.07 71.53 L2.2 71.61 L2.27 71.87 L2.27 87.88 L2.2 88.13 L2.07 88.22 L1.87 88.13 L1.8 87.88"
						class="st6"/>
			</g>
			<g id="shape35-32" v:mID="35" v:groupContext="shape" transform="translate(275.104,81.282) rotate(90)">
				<title>工作表.35</title>
				<path d="M2 71.87 L0 73.55 L2 68.49 L4.01 73.55 L2 71.87 ZM2 87.88 L4.01 86.2 L2 91.25 L0 86.2 L2 87.88 ZM1.74 87.88
							 L1.74 71.87 L1.8 71.7 L1.94 71.61 L2.14 71.7 L2.2 71.87 L2.2 87.88 L2.14 88.05 L1.94 88.13 L1.8 88.05
							 L1.74 87.88 Z" class="st5"/>
				<path d="M2 71.87 L0 73.55 L2 68.49 L4.01 73.55M2 87.88 L4.01 86.2 L2 91.25 L0 86.2 L2 87.88M1.74 87.88 L1.74 71.87
							 L1.8 71.7 L1.94 71.61 L2.14 71.7 L2.2 71.87 L2.2 87.88 L2.14 88.05 L1.94 88.13 L1.8 88.05 L1.74 87.88"
						class="st6"/>
			</g>
			<g id="shape41-35" v:mID="41" v:groupContext="shape" transform="translate(208.164,4.68958E-13)">
				<title>工作表.41</title>
				<desc>通無記 非身口業 通無漏 通無報 常不逐心行</desc>
				<v:textBlock v:margins="rect(0,0,0,0)" v:tabSpace="42.5197"/>
				<v:textRect cx="50.9213" cy="46.3768" width="101.85" height="89.7536"/>
				<rect x="0" y="1.5" width="101.843" height="89.7536" class="st1"/>
				<text x="0" y="13.94" class="st2" v:langID="1028"><v:paragraph v:spLine="-1.4"/><v:tabList/>通無記<v:newlineChar/><v:newlineChar/><tspan
							x="0" dy="2.853em" class="st3">非身口業<v:newlineChar/></tspan><tspan x="0" dy="1.453em" class="st3">通無漏<v:newlineChar/></tspan><tspan
							x="0" dy="1.453em" class="st3">通無報<v:newlineChar/></tspan><tspan x="0" dy="1.453em" class="st3">常不逐心行</tspan></text>			</g>
			<g id="shape49-42" v:mID="49" v:groupContext="shape" transform="translate(223.49,9.96327) rotate(90)">
				<title>工作表.49</title>
				<path d="M0 84.72 C0 86.52 0 88.01 0 88.01 L36.67 88.01 C36.67 88.01 36.67 89.45 36.67 91.25 C36.67 89.45 36.67 88.01
							 36.67 88.01 L73.34 88.01 C73.34 88.01 73.34 86.52 73.34 84.72 L0 84.72 Z" class="st7"/>
				<path d="M0 84.72 C0 86.52 0 88.01 0 88.01 L36.67 88.01 C36.67 88.01 36.67 89.45 36.67 91.25 C36.67 89.45 36.67 88.01
							 36.67 88.01 L73.34 88.01 C73.34 88.01 73.34 86.52 73.34 84.72" class="st8"/>
			</g>
			<g id="shape50-45" v:mID="50" v:groupContext="shape" transform="translate(225.235,9.96327) rotate(-90) scale(-1,1)">
				<title>工作表.50</title>
				<path d="M0 84.72 C0 86.52 0 88.01 0 88.01 L36.67 88.01 C36.67 88.01 36.67 89.45 36.67 91.25 C36.67 89.45 36.67 88.01
							 36.67 88.01 L73.34 88.01 C73.34 88.01 73.34 86.52 73.34 84.72 L0 84.72 Z" class="st7"/>
				<path d="M0 84.72 C0 86.52 0 88.01 0 88.01 L36.67 88.01 C36.67 88.01 36.67 89.45 36.67 91.25 C36.67 89.45 36.67 88.01
							 36.67 88.01 L73.34 88.01 C73.34 88.01 73.34 86.52 73.34 84.72" class="st8"/>
			</g>
			<g id="shape52-48" v:mID="52" v:groupContext="shape" transform="translate(208.175,-59.6742)">
				<title>工作表.52</title>
				<desc>通色繫論主加不繫</desc>
				<v:textBlock v:margins="rect(0,0,0,0)" v:tabSpace="42.5197"/>
				<v:textRect cx="50.9213" cy="84.4812" width="101.85" height="13.5449"/>
				<rect x="0" y="77.7087" width="101.843" height="13.5449" class="st9"/>
				<text x="-0" y="88.11" class="st2" v:langID="1028"><v:paragraph v:spLine="-1.4"/><v:tabList/>通色繫（論主加不繫）</text>			</g>
		</g>
	</g>
</svg>
