<?xml version="1.0" encoding="UTF-8" standalone="no"?>
<!DOCTYPE svg PUBLIC "-//W3C//DTD SVG 1.1//EN" "http://www.w3.org/Graphics/SVG/1.1/DTD/svg11.dtd">
<!-- 由 Microsoft Visio, SVG Export 產生 A02604.svg 頁-1 -->
<svg xmlns="http://www.w3.org/2000/svg" xmlns:xlink="http://www.w3.org/1999/xlink" xmlns:ev="http://www.w3.org/2001/xml-events"
		xmlns:v="http://schemas.microsoft.com/visio/2003/SVGExtensions/" width="3.43345in" height="1.40083in"
		viewBox="0 0 247.209 100.86" xml:space="preserve" color-interpolation-filters="sRGB" class="st6">
	<v:documentProperties v:langID="1028" v:viewMarkup="false"/>

	<style type="text/css">
	<![CDATA[
		.st1 {fill:none;stroke:none;stroke-linecap:butt;stroke-width:0.75}
		.st2 {fill:#000000;font-family:新細明體;font-size:0.833336em}
		.st3 {font-size:1em}
		.st4 {fill:none}
		.st5 {stroke:#040000;stroke-linecap:round;stroke-linejoin:round;stroke-width:0.705463}
		.st6 {fill:none;fill-rule:evenodd;font-size:12px;overflow:visible;stroke-linecap:square;stroke-miterlimit:3}
	]]>
	</style>

	<g v:mID="0" v:index="1" v:groupContext="foregroundPage">
		<title>頁-1</title>
		<v:pageProperties v:drawingScale="0.0393701" v:pageScale="0.0393701" v:drawingUnits="24" v:shadowOffsetX="9"
				v:shadowOffsetY="-9"/>
		<g id="shape49-1" v:mID="49" v:groupContext="shape" transform="translate(82.8528,-86.5648)">
			<title>工作表.49</title>
			<desc>破戒墮三惡道</desc>
			<v:textBlock v:margins="rect(0,0,0,0)" v:tabSpace="42.5197"/>
			<v:textRect cx="37.4605" cy="94.0872" width="74.93" height="13.5449"/>
			<rect x="0" y="87.3148" width="74.921" height="13.5449" class="st1"/>
			<text x="-0" y="97.72" class="st2" v:langID="1028"><v:paragraph v:spLine="-1.4"/><v:tabList/>破戒：墮三惡道</text>		</g>
		<g id="shape50-4" v:mID="50" v:groupContext="shape" transform="translate(112.818,-45.2366)">
			<title>工作表.50</title>
			<desc>下持戒生人中 中持戒生欲天 上持戒生色無色天</desc>
			<v:textBlock v:margins="rect(0,0,0,0)" v:tabSpace="42.5197"/>
			<v:textRect cx="47.2756" cy="79.8839" width="94.56" height="41.9515"/>
			<rect x="0" y="58.9081" width="94.5513" height="41.9515" class="st1"/>
			<text x="-0" y="68.98" class="st2" v:langID="1028"><v:paragraph v:spLine="-1.4"/><v:tabList/>下持戒：生人中<v:newlineChar/><tspan
						x="-0" dy="1.453em" class="st3">中持戒</tspan>：生欲天<v:newlineChar/><tspan x="-0" dy="1.453em" class="st3">上持戒</tspan>：生色無色天</text>		</g>
		<g id="shape51-9" v:mID="51" v:groupContext="shape" transform="translate(0.75,-65.4287)">
			<title>工作表.51</title>
			<desc>持戒、破戒之果</desc>
			<v:textBlock v:margins="rect(0,0,0,0)" v:tabSpace="42.5197"/>
			<v:textRect cx="39.5059" cy="94.0872" width="79.02" height="13.5449"/>
			<rect x="0" y="87.3148" width="79.0119" height="13.5449" class="st1"/>
			<text x="0" y="97.72" class="st2" v:langID="1028"><v:paragraph v:spLine="-1.4"/><v:tabList/>持戒、破戒之果</text>		</g>
		<g id="shape54-12" v:mID="54" v:groupContext="shape" transform="translate(82.8882,-44.4089)">
			<title>工作表.54</title>
			<desc>持戒</desc>
			<v:textBlock v:margins="rect(0,0,0,0)" v:tabSpace="42.5197"/>
			<v:textRect cx="12.4986" cy="94.0872" width="25" height="13.5449"/>
			<rect x="0" y="87.3148" width="24.9972" height="13.5449" class="st1"/>
			<text x="-0" y="97.72" class="st2" v:langID="1028"><v:paragraph v:spLine="-1.4"/><v:tabList/>持戒</text>		</g>
		<g id="shape58-15" v:mID="58" v:groupContext="shape" transform="translate(163.426,-0.826197)">
			<title>工作表.58</title>
			<desc>下清淨得羅漢果 中清淨得辟支果 上清淨得佛果</desc>
			<v:textBlock v:margins="rect(0,0,0,0)" v:tabSpace="42.5197"/>
			<v:textRect cx="41.5166" cy="79.8839" width="83.04" height="41.9515"/>
			<rect x="0" y="58.9081" width="83.0331" height="41.9515" class="st1"/>
			<text x="0" y="68.98" class="st2" v:langID="1028"><v:paragraph v:spLine="-1.4"/><v:tabList/>下清淨：得羅漢果<v:newlineChar/><tspan
						x="0" dy="1.453em" class="st3">中清淨</tspan>：得辟支果<v:newlineChar/><tspan x="0" dy="1.453em" class="st3">上清淨</tspan>：得佛果</text>		</g>
		<g id="shape59-20" v:mID="59" v:groupContext="shape" transform="translate(112.161,-15.0296)">
			<title>工作表.59</title>
			<desc>上上持戒</desc>
			<v:textBlock v:margins="rect(0,0,0,0)" v:tabSpace="42.5197"/>
			<v:textRect cx="22.5748" cy="94.0872" width="45.15" height="13.5449"/>
			<rect x="0" y="87.3148" width="45.1496" height="13.5449" class="st1"/>
			<text x="-0" y="97.72" class="st2" v:langID="1028"><v:paragraph v:spLine="-1.4"/><v:tabList/>上上持戒</text>		</g>
		<g id="shape77-23" v:mID="77" v:groupContext="shape" transform="translate(256.179,65.0619) rotate(90)">
			<title>工作表.77</title>
			<path d="M0 94.33 C0 96.13 0 97.62 0 97.62 L14.46 97.62 C14.46 97.62 14.46 99.06 14.46 100.86 C14.46 99.06 14.46 97.62
						 14.46 97.62 L28.91 97.62 C28.91 97.62 28.91 96.13 28.91 94.33 L0 94.33 Z" class="st4"/>
			<path d="M0 94.33 C0 96.13 0 97.62 0 97.62 L14.46 97.62 C14.46 97.62 14.46 99.06 14.46 100.86 C14.46 99.06 14.46 97.62
						 14.46 97.62 L28.91 97.62 C28.91 97.62 28.91 96.13 28.91 94.33" class="st5"/>
		</g>
		<g id="shape78-26" v:mID="78" v:groupContext="shape" transform="translate(205.248,20.9474) rotate(90)">
			<title>工作表.78</title>
			<path d="M0 94.33 C0 96.13 0 97.62 0 97.62 L29.27 97.62 C29.27 97.62 29.27 99.06 29.27 100.86 C29.27 99.06 29.27 97.62
						 29.27 97.62 L58.54 97.62 C58.54 97.62 58.54 96.13 58.54 94.33 L0 94.33 Z" class="st4"/>
			<path d="M0 94.33 C0 96.13 0 97.62 0 97.62 L29.27 97.62 C29.27 97.62 29.27 99.06 29.27 100.86 C29.27 99.06 29.27 97.62
						 29.27 97.62 L58.54 97.62 C58.54 97.62 58.54 96.13 58.54 94.33" class="st5"/>
		</g>
		<g id="shape79-29" v:mID="79" v:groupContext="shape" transform="translate(173.971,7.69485) rotate(90)">
			<title>工作表.79</title>
			<path d="M0 94.33 C0 96.13 0 97.62 0 97.62 L21.54 97.62 C21.54 97.62 21.54 99.06 21.54 100.86 C21.54 99.06 21.54 97.62
						 21.54 97.62 L43.09 97.62 C43.09 97.62 43.09 96.13 43.09 94.33 L0 94.33 Z" class="st4"/>
			<path d="M0 94.33 C0 96.13 0 97.62 0 97.62 L21.54 97.62 C21.54 97.62 21.54 99.06 21.54 100.86 C21.54 99.06 21.54 97.62
						 21.54 97.62 L43.09 97.62 C43.09 97.62 43.09 96.13 43.09 94.33" class="st5"/>
		</g>
	</g>
</svg>
