<?xml version="1.0" encoding="UTF-8" standalone="no"?>
<!DOCTYPE svg PUBLIC "-//W3C//DTD SVG 1.1//EN" "http://www.w3.org/Graphics/SVG/1.1/DTD/svg11.dtd">
<!-- 由 Microsoft Visio, SVG Export 產生 A02701.svg 頁-1 -->
<svg xmlns="http://www.w3.org/2000/svg" xmlns:xlink="http://www.w3.org/1999/xlink" xmlns:ev="http://www.w3.org/2001/xml-events"
		xmlns:v="http://schemas.microsoft.com/visio/2003/SVGExtensions/" width="2.04718in" height="0.629101in"
		viewBox="0 0 147.397 45.2953" xml:space="preserve" color-interpolation-filters="sRGB" class="st7">
	<v:documentProperties v:langID="1028" v:viewMarkup="false"/>

	<style type="text/css">
	<![CDATA[
		.st1 {fill:none;stroke:none;stroke-linecap:butt;stroke-width:0.75}
		.st2 {fill:#000000;font-family:新細明體;font-size:0.833336em}
		.st3 {font-family:Times New Roman;font-size:1em}
		.st4 {font-size:1em}
		.st5 {fill:none}
		.st6 {stroke:#040000;stroke-linecap:round;stroke-linejoin:round;stroke-width:0.705463}
		.st7 {fill:none;fill-rule:evenodd;font-size:12px;overflow:visible;stroke-linecap:square;stroke-miterlimit:3}
	]]>
	</style>

	<g v:mID="0" v:index="1" v:groupContext="foregroundPage">
		<title>頁-1</title>
		<v:pageProperties v:drawingScale="0.0393701" v:pageScale="0.0393701" v:drawingUnits="24" v:shadowOffsetX="9"
				v:shadowOffsetY="-9"/>
		<g id="shape1-1" v:mID="1" v:groupContext="shape" transform="translate(71.1363,-0.75)">
			<title>工作表.1</title>
			<desc>布施——得大福 持戒——生好處 修定——得解脫</desc>
			<v:textBlock v:margins="rect(0,0,0,0)" v:tabSpace="42.5197"/>
			<v:textRect cx="37.7555" cy="23.3976" width="75.52" height="43.7953"/>
			<rect x="0" y="1.5" width="75.5109" height="43.7953" class="st1"/>
			<text x="-0" y="12.5" class="st2" v:langID="1028"><v:paragraph v:spLine="-1.4"/><v:tabList/>布施<tspan class="st3">——</tspan>得大福<v:newlineChar/><tspan
						x="-0" dy="1.453em" class="st4">持戒</tspan><tspan class="st3">——</tspan>生好處<v:newlineChar/><tspan x="-0"
						dy="1.453em" class="st4">修定</tspan><tspan class="st3">——</tspan>得解脫</text>		</g>
		<g id="shape4-9" v:mID="4" v:groupContext="shape" transform="translate(0.75,-15.8011)">
			<title>工作表.4</title>
			<desc>三事得果不虛</desc>
			<v:textBlock v:margins="rect(0,0,0,0)" v:tabSpace="42.5197"/>
			<v:textRect cx="33.8622" cy="38.5228" width="67.73" height="13.5449"/>
			<rect x="0" y="31.7504" width="67.7245" height="13.5449" class="st1"/>
			<text x="-0" y="42.16" class="st2" v:langID="1028"><v:paragraph v:spLine="-1.4"/><v:tabList/>三事得果不虛</text>		</g>
		<g id="shape24-12" v:mID="24" v:groupContext="shape" transform="translate(107.928,8.29568) rotate(90)">
			<title>工作表.24</title>
			<path d="M0 38.77 C0 40.56 0 42.06 0 42.06 L15.05 42.06 C15.05 42.06 15.05 43.5 15.05 45.3 C15.05 43.5 15.05 42.06 15.05
						 42.06 L30.09 42.06 C30.09 42.06 30.09 40.56 30.09 38.77 L0 38.77 Z" class="st5"/>
			<path d="M0 38.77 C0 40.56 0 42.06 0 42.06 L15.05 42.06 C15.05 42.06 15.05 43.5 15.05 45.3 C15.05 43.5 15.05 42.06 15.05
						 42.06 L30.09 42.06 C30.09 42.06 30.09 40.56 30.09 38.77" class="st6"/>
		</g>
	</g>
</svg>
