<?xml version="1.0" encoding="UTF-8" standalone="no"?>
<!DOCTYPE svg PUBLIC "-//W3C//DTD SVG 1.1//EN" "http://www.w3.org/Graphics/SVG/1.1/DTD/svg11.dtd">
<!-- 由 Microsoft Visio, SVG Export 產生 A00503.svg 頁-1 -->
<svg xmlns="http://www.w3.org/2000/svg" xmlns:xlink="http://www.w3.org/1999/xlink" xmlns:ev="http://www.w3.org/2001/xml-events"
		xmlns:v="http://schemas.microsoft.com/visio/2003/SVGExtensions/" width="3.11304in" height="0.451091in"
		viewBox="0 0 224.139 32.4786" xml:space="preserve" color-interpolation-filters="sRGB" class="st5">
	<v:documentProperties v:langID="1028" v:viewMarkup="false"/>

	<style type="text/css">
	<![CDATA[
		.st1 {fill:none;stroke:none;stroke-linecap:butt;stroke-width:0.75}
		.st2 {fill:#000000;font-family:新細明體;font-size:0.833336em}
		.st3 {fill:none}
		.st4 {stroke:#040000;stroke-linecap:round;stroke-linejoin:round;stroke-width:0.705463}
		.st5 {fill:none;fill-rule:evenodd;font-size:12px;overflow:visible;stroke-linecap:square;stroke-miterlimit:3}
	]]>
	</style>

	<g v:mID="0" v:index="1" v:groupContext="foregroundPage">
		<title>頁-1</title>
		<v:pageProperties v:drawingScale="0.0393701" v:pageScale="0.0393701" v:drawingUnits="24" v:shadowOffsetX="9"
				v:shadowOffsetY="-9"/>
		<g id="shape1-1" v:mID="1" v:groupContext="shape" transform="translate(52.5615,-18.1837)">
			<title>工作表.1</title>
			<desc>麤</desc>
			<v:textBlock v:margins="rect(0,0,0,0)" v:tabSpace="42.5197"/>
			<v:textRect cx="5.64371" cy="25.7061" width="11.29" height="13.5449"/>
			<rect x="0" y="18.9337" width="11.2874" height="13.5449" class="st1"/>
			<text x="0" y="28.82" class="st2" v:langID="1028"><v:paragraph/><v:tabList/>麤</text>		</g>
		<g id="shape2-4" v:mID="2" v:groupContext="shape" transform="translate(63.509,-18.1837)">
			<title>工作表.2</title>
			<v:textBlock v:margins="rect(0,0,0,0)" v:tabSpace="42.5197"/>
			<v:textRect cx="5.64371" cy="25.7061" width="11.29" height="13.5449"/>
			<rect x="0" y="18.9337" width="11.2874" height="13.5449" class="st1"/>
			<text x="0" y="28.82" class="st2" v:langID="1028"><v:paragraph/><v:tabList/>－</text>		</g>
		<g id="shape3-7" v:mID="3" v:groupContext="shape" transform="translate(75.0644,-18.1837)">
			<title>工作表.3</title>
			<desc>忍辱</desc>
			<v:textBlock v:margins="rect(0,0,0,0)" v:tabSpace="42.5197"/>
			<v:textRect cx="11.2874" cy="25.7061" width="22.58" height="13.5449"/>
			<rect x="0" y="18.9337" width="22.5748" height="13.5449" class="st1"/>
			<text x="-0" y="28.82" class="st2" v:langID="1028"><v:paragraph/><v:tabList/>忍辱</text>		</g>
		<g id="shape4-10" v:mID="4" v:groupContext="shape" transform="translate(97.2312,-18.1837)">
			<title>工作表.4</title>
			<v:textBlock v:margins="rect(0,0,0,0)" v:tabSpace="42.5197"/>
			<v:textRect cx="16.9311" cy="25.7061" width="33.87" height="13.5449"/>
			<rect x="0" y="18.9337" width="33.8622" height="13.5449" class="st1"/>
			<text x="0" y="28.82" class="st2" v:langID="1028"><v:paragraph/><v:tabList/>－－－</text>		</g>
		<g id="shape5-13" v:mID="5" v:groupContext="shape" transform="translate(128.616,-18.1837)">
			<title>工作表.5</title>
			<desc>未得定樂</desc>
			<v:textBlock v:margins="rect(0,0,0,0)" v:tabSpace="42.5197"/>
			<v:textRect cx="22.5748" cy="25.7061" width="45.15" height="13.5449"/>
			<rect x="0" y="18.9337" width="45.1496" height="13.5449" class="st1"/>
			<text x="0" y="28.82" class="st2" v:langID="1028"><v:paragraph/><v:tabList/>未得定樂</text>		</g>
		<g id="shape6-16" v:mID="6" v:groupContext="shape" transform="translate(0.75,-9.88227)">
			<title>工作表.6</title>
			<desc>二種善心</desc>
			<v:textBlock v:margins="rect(0,0,0,0)" v:tabSpace="42.5197"/>
			<v:textRect cx="22.5748" cy="25.7061" width="45.15" height="13.5449"/>
			<rect x="0" y="18.9337" width="45.1496" height="13.5449" class="st1"/>
			<text x="0" y="28.82" class="st2" v:langID="1028"><v:paragraph/><v:tabList/>二種善心</text>		</g>
		<g id="shape7-19" v:mID="7" v:groupContext="shape" transform="translate(180.838,-10.2301)">
			<title>工作表.7</title>
			<desc>能遮眾惡</desc>
			<v:textBlock v:margins="rect(0,0,0,0)" v:tabSpace="42.5197"/>
			<v:textRect cx="21.2755" cy="25.7061" width="42.56" height="13.5449"/>
			<rect x="0" y="18.9337" width="42.551" height="13.5449" class="st1"/>
			<text x="-0" y="28.82" class="st2" v:langID="1028"><v:paragraph/><v:tabList/>能遮眾惡</text>		</g>
		<g id="shape8-22" v:mID="8" v:groupContext="shape" transform="translate(52.5629,-0.75)">
			<title>工作表.8</title>
			<desc>細</desc>
			<v:textBlock v:margins="rect(0,0,0,0)" v:tabSpace="42.5197"/>
			<v:textRect cx="5.64371" cy="25.7061" width="11.29" height="13.5449"/>
			<rect x="0" y="18.9337" width="11.2874" height="13.5449" class="st1"/>
			<text x="0" y="28.82" class="st2" v:langID="1028"><v:paragraph/><v:tabList/>細</text>		</g>
		<g id="shape9-25" v:mID="9" v:groupContext="shape" transform="translate(63.5103,-0.75)">
			<title>工作表.9</title>
			<v:textBlock v:margins="rect(0,0,0,0)" v:tabSpace="42.5197"/>
			<v:textRect cx="5.64371" cy="25.7061" width="11.29" height="13.5449"/>
			<rect x="0" y="18.9337" width="11.2874" height="13.5449" class="st1"/>
			<text x="0" y="28.82" class="st2" v:langID="1028"><v:paragraph/><v:tabList/>－</text>		</g>
		<g id="shape10-28" v:mID="10" v:groupContext="shape" transform="translate(75.0657,-0.75)">
			<title>工作表.10</title>
			<desc>禪定</desc>
			<v:textBlock v:margins="rect(0,0,0,0)" v:tabSpace="42.5197"/>
			<v:textRect cx="11.2874" cy="25.7061" width="22.58" height="13.5449"/>
			<rect x="0" y="18.9337" width="22.5748" height="13.5449" class="st1"/>
			<text x="0" y="28.82" class="st2" v:langID="1028"><v:paragraph/><v:tabList/>禪定</text>		</g>
		<g id="shape11-31" v:mID="11" v:groupContext="shape" transform="translate(97.2325,-0.75)">
			<title>工作表.11</title>
			<v:textBlock v:margins="rect(0,0,0,0)" v:tabSpace="42.5197"/>
			<v:textRect cx="16.9311" cy="25.7061" width="33.87" height="13.5449"/>
			<rect x="0" y="18.9337" width="33.8622" height="13.5449" class="st1"/>
			<text x="0" y="28.82" class="st2" v:langID="1028"><v:paragraph/><v:tabList/>－－－</text>		</g>
		<g id="shape12-34" v:mID="12" v:groupContext="shape" transform="translate(128.617,-0.75)">
			<title>工作表.12</title>
			<desc>已得定樂</desc>
			<v:textBlock v:margins="rect(0,0,0,0)" v:tabSpace="42.5197"/>
			<v:textRect cx="22.5748" cy="25.7061" width="45.15" height="13.5449"/>
			<rect x="0" y="18.9337" width="45.1496" height="13.5449" class="st1"/>
			<text x="0" y="28.82" class="st2" v:langID="1028"><v:paragraph/><v:tabList/>已得定樂</text>		</g>
		<g id="shape20-37" v:mID="20" v:groupContext="shape" transform="translate(75.0625,6.26338) rotate(90)">
			<title>工作表.20</title>
			<path d="M0 24.6 C0 26.79 0.7 28.54 1.56 28.54 L7.7 28.54 C8.52 28.54 9.21 30.29 9.21 32.48 C9.21 30.29 9.91 28.54 10.77
						 28.54 L16.91 28.54 C17.73 28.54 18.43 26.79 18.43 24.6 L0 24.6 Z" class="st3"/>
			<path d="M0 24.6 C0 26.79 0.7 28.54 1.56 28.54 L7.7 28.54 C8.52 28.54 9.21 30.29 9.21 32.48 C9.21 30.29 9.91 28.54 10.77
						 28.54 L16.91 28.54 C17.73 28.54 18.43 26.79 18.43 24.6" class="st4"/>
		</g>
		<g id="shape21-40" v:mID="21" v:groupContext="shape" transform="translate(145.54,24.6886) rotate(-90)">
			<title>工作表.21</title>
			<path d="M0 24.6 C0 26.79 0.7 28.54 1.56 28.54 L7.7 28.54 C8.52 28.54 9.21 30.29 9.21 32.48 C9.21 30.29 9.91 28.54 10.77
						 28.54 L16.91 28.54 C17.73 28.54 18.43 26.79 18.43 24.6 L0 24.6 Z" class="st3"/>
			<path d="M0 24.6 C0 26.79 0.7 28.54 1.56 28.54 L7.7 28.54 C8.52 28.54 9.21 30.29 9.21 32.48 C9.21 30.29 9.91 28.54 10.77
						 28.54 L16.91 28.54 C17.73 28.54 18.43 26.79 18.43 24.6" class="st4"/>
		</g>
	</g>
</svg>
