<?xml version="1.0" encoding="UTF-8" standalone="no"?>
<!DOCTYPE svg PUBLIC "-//W3C//DTD SVG 1.1//EN" "http://www.w3.org/Graphics/SVG/1.1/DTD/svg11.dtd">
<!-- 由 Microsoft Visio, SVG Export 產生 A01407.svg 頁-1 -->
<svg xmlns="http://www.w3.org/2000/svg" xmlns:xlink="http://www.w3.org/1999/xlink" xmlns:ev="http://www.w3.org/2001/xml-events"
		xmlns:v="http://schemas.microsoft.com/visio/2003/SVGExtensions/" width="1.27674in" height="0.40374in"
		viewBox="0 0 91.9252 29.0693" xml:space="preserve" color-interpolation-filters="sRGB" class="st6">
	<v:documentProperties v:langID="1028" v:viewMarkup="false"/>

	<style type="text/css">
	<![CDATA[
		.st1 {fill:none;stroke:none;stroke-linecap:butt;stroke-width:0.75}
		.st2 {fill:#000000;font-family:新細明體;font-size:0.833336em}
		.st3 {font-size:1em}
		.st4 {fill:none}
		.st5 {stroke:#040000;stroke-linecap:round;stroke-linejoin:round;stroke-width:0.705463}
		.st6 {fill:none;fill-rule:evenodd;font-size:12px;overflow:visible;stroke-linecap:square;stroke-miterlimit:3}
	]]>
	</style>

	<g v:mID="0" v:index="1" v:groupContext="foregroundPage">
		<title>頁-1</title>
		<v:pageProperties v:drawingScale="0.0393701" v:pageScale="0.0393701" v:drawingUnits="24" v:shadowOffsetX="9"
				v:shadowOffsetY="-9"/>
		<g id="shape1-1" v:mID="1" v:groupContext="shape" transform="translate(29.6009,-2.29362)">
			<title>工作表.1</title>
			<desc>不愛敬養眾生 不瞋加惡眾生</desc>
			<v:textBlock v:margins="rect(0,0,0,0)" v:tabSpace="42.5197"/>
			<v:textRect cx="30.7871" cy="16.8281" width="61.58" height="24.4823"/>
			<rect x="0" y="4.58702" width="61.5743" height="24.4823" class="st1"/>
			<text x="0" y="13.19" class="st2" v:langID="1028"><v:paragraph v:spLine="-1.4"/><v:tabList/>不愛敬養眾生<v:newlineChar/><tspan
						x="0" dy="1.453em" class="st3">不瞋加惡眾生</tspan></text>		</g>
		<g id="shape2-5" v:mID="2" v:groupContext="shape" transform="translate(0.75,-7.16777)">
			<title>工作表.2</title>
			<desc>生忍</desc>
			<v:textBlock v:margins="rect(0,0,0,0)" v:tabSpace="42.5197"/>
			<v:textRect cx="11.2874" cy="22.2968" width="22.58" height="13.5449"/>
			<rect x="0" y="15.5244" width="22.5748" height="13.5449" class="st1"/>
			<text x="-0" y="25.41" class="st2" v:langID="1028"><v:paragraph/><v:tabList/>生忍</text>		</g>
		<g id="shape11-8" v:mID="11" v:groupContext="shape" transform="translate(50.7957,7.48596) rotate(90)">
			<title>工作表.11</title>
			<path d="M0 21.98 C0 23.96 0.58 25.53 1.33 25.53 L6.51 25.53 C7.25 25.53 7.83 27.13 7.83 29.07 C7.83 27.13 8.42 25.53
						 9.12 25.53 L14.3 25.53 C15.01 25.53 15.59 23.96 15.59 21.98 L0 21.98 Z" class="st4"/>
			<path d="M0 21.98 C0 23.96 0.58 25.53 1.33 25.53 L6.51 25.53 C7.25 25.53 7.83 27.13 7.83 29.07 C7.83 27.13 8.42 25.53
						 9.12 25.53 L14.3 25.53 C15.01 25.53 15.59 23.96 15.59 21.98" class="st5"/>
		</g>
	</g>
</svg>
