<?xml version="1.0" encoding="UTF-8" standalone="no"?>
<!DOCTYPE svg PUBLIC "-//W3C//DTD SVG 1.1//EN" "http://www.w3.org/Graphics/SVG/1.1/DTD/svg11.dtd">
<!-- 由 Microsoft Visio, SVG Export 產生 A00506.svg 頁-1 -->
<svg xmlns="http://www.w3.org/2000/svg" xmlns:xlink="http://www.w3.org/1999/xlink" xmlns:ev="http://www.w3.org/2001/xml-events"
		xmlns:v="http://schemas.microsoft.com/visio/2003/SVGExtensions/" width="2.17241in" height="0.627264in"
		viewBox="0 0 156.413 45.163" xml:space="preserve" color-interpolation-filters="sRGB" class="st5">
	<v:documentProperties v:langID="1028" v:viewMarkup="false"/>

	<style type="text/css">
	<![CDATA[
		.st1 {fill:none;stroke:none;stroke-linecap:butt;stroke-width:0.75}
		.st2 {fill:#000000;font-family:新細明體;font-size:0.833336em}
		.st3 {fill:none}
		.st4 {stroke:#040000;stroke-linecap:round;stroke-linejoin:round;stroke-width:0.705463}
		.st5 {fill:none;fill-rule:evenodd;font-size:12px;overflow:visible;stroke-linecap:square;stroke-miterlimit:3}
	]]>
	</style>

	<g v:mID="0" v:index="1" v:groupContext="foregroundPage">
		<title>頁-1</title>
		<v:pageProperties v:drawingScale="0.0393701" v:pageScale="0.0393701" v:drawingUnits="24" v:shadowOffsetX="9"
				v:shadowOffsetY="-9"/>
		<g id="shape1-1" v:mID="1" v:groupContext="shape" transform="translate(73.2348,-30.8681)">
			<title>工作表.1</title>
			<desc>不見忍辱法</desc>
			<v:textBlock v:margins="rect(0,0,0,0)" v:tabSpace="42.5197"/>
			<v:textRect cx="28.2185" cy="38.3906" width="56.44" height="13.5449"/>
			<rect x="0" y="31.6181" width="56.4371" height="13.5449" class="st1"/>
			<text x="-0" y="41.5" class="st2" v:langID="1028"><v:paragraph/><v:tabList/>不見忍辱法</text>		</g>
		<g id="shape2-4" v:mID="2" v:groupContext="shape" transform="translate(0.75,-15.5516)">
			<title>工作表.2</title>
			<desc>法忍三種清淨</desc>
			<v:textBlock v:margins="rect(0,0,0,0)" v:tabSpace="42.5197"/>
			<v:textRect cx="33.8622" cy="38.3906" width="67.73" height="13.5449"/>
			<rect x="0" y="31.6181" width="67.7245" height="13.5449" class="st1"/>
			<text x="0" y="41.5" class="st2" v:langID="1028"><v:paragraph/><v:tabList/>法忍三種清淨</text>		</g>
		<g id="shape3-7" v:mID="3" v:groupContext="shape" transform="translate(73.2353,-15.8091)">
			<title>工作表.3</title>
			<desc>不見己身、駡辱人</desc>
			<v:textBlock v:margins="rect(0,0,0,0)" v:tabSpace="42.5197"/>
			<v:textRect cx="41.214" cy="38.3906" width="82.43" height="13.5449"/>
			<rect x="0" y="31.6181" width="82.4281" height="13.5449" class="st1"/>
			<text x="-0" y="41.5" class="st2" v:langID="1028"><v:paragraph/><v:tabList/>不見己身、駡辱人</text>		</g>
		<g id="shape4-10" v:mID="4" v:groupContext="shape" transform="translate(73.2362,-0.75)">
			<title>工作表.4</title>
			<desc>不戲諸法</desc>
			<v:textBlock v:margins="rect(0,0,0,0)" v:tabSpace="42.5197"/>
			<v:textRect cx="22.5748" cy="38.3906" width="45.15" height="13.5449"/>
			<rect x="0" y="31.6181" width="45.1496" height="13.5449" class="st1"/>
			<text x="-0" y="41.5" class="st2" v:langID="1028"><v:paragraph/><v:tabList/>不戲諸法</text>		</g>
		<g id="shape11-13" v:mID="11" v:groupContext="shape" transform="translate(107.933,6.85393) rotate(90)">
			<title>工作表.11</title>
			<path d="M0 36.7 C0 39.05 1.14 40.93 2.57 40.93 L12.97 40.93 C14.4 40.93 15.59 42.81 15.59 45.16 C15.59 42.81 16.73 40.93
						 18.16 40.93 L28.56 40.93 C29.99 40.93 31.18 39.05 31.18 36.7 L0 36.7 Z" class="st3"/>
			<path d="M0 36.7 C0 39.05 1.14 40.93 2.57 40.93 L12.97 40.93 C14.4 40.93 15.59 42.81 15.59 45.16 C15.59 42.81 16.73 40.93
						 18.16 40.93 L28.56 40.93 C29.99 40.93 31.18 39.05 31.18 36.7" class="st4"/>
		</g>
	</g>
</svg>
