<?xml version="1.0" encoding="UTF-8" standalone="no"?>
<!DOCTYPE svg PUBLIC "-//W3C//DTD SVG 1.1//EN" "http://www.w3.org/Graphics/SVG/1.1/DTD/svg11.dtd">
<!-- 由 Microsoft Visio, SVG Export 產生 A02801.svg 頁-1 -->
<svg xmlns="http://www.w3.org/2000/svg" xmlns:xlink="http://www.w3.org/1999/xlink" xmlns:ev="http://www.w3.org/2001/xml-events"
		xmlns:v="http://schemas.microsoft.com/visio/2003/SVGExtensions/" width="5.83826in" height="3.04747in"
		viewBox="0 0 420.355 219.418" xml:space="preserve" color-interpolation-filters="sRGB" class="st10">
	<v:documentProperties v:langID="1028" v:viewMarkup="false"/>

	<style type="text/css">
	<![CDATA[
		.st1 {fill:none;stroke:none;stroke-linecap:butt;stroke-width:0.75}
		.st2 {fill:#000000;font-family:Times New Roman;font-size:0.833336em}
		.st3 {font-family:新細明體;font-size:1em}
		.st4 {font-size:1em}
		.st5 {fill:#000000;font-family:新細明體;font-size:0.833336em}
		.st6 {fill:#040000}
		.st7 {stroke:none;stroke-linecap:butt;stroke-width:0.940618}
		.st8 {fill:none}
		.st9 {stroke:#040000;stroke-linecap:round;stroke-linejoin:round;stroke-width:0.705463}
		.st10 {fill:none;fill-rule:evenodd;font-size:12px;overflow:visible;stroke-linecap:square;stroke-miterlimit:3}
	]]>
	</style>

	<g v:mID="0" v:index="1" v:groupContext="foregroundPage">
		<title>頁-1</title>
		<v:pageProperties v:drawingScale="0.0393701" v:pageScale="0.0393701" v:drawingUnits="24" v:shadowOffsetX="9"
				v:shadowOffsetY="-9"/>
		<g id="shape3-1" v:mID="3" v:groupContext="shape" transform="translate(152.603,-133.299)">
			<title>工作表.3</title>
			<desc>1.有無墮斷滅故。 2.但假名和合法無名亦無故。 3.以心識知離心不可得故。 4.四大等相悉捨相故。 5.諸賢聖人能令轉變...</desc>
			<v:textBlock v:margins="rect(0,0,0,0)" v:tabSpace="42.5197"/>
			<v:textRect cx="73.3682" cy="176.902" width="146.74" height="85.0318"/>
			<rect x="0" y="134.386" width="146.736" height="85.0318" class="st1"/>
			<text x="0" y="144.2" class="st2" v:langID="1028"><v:paragraph v:spLine="-1.4"/><v:tabList/>1.<tspan class="st3">有無墮斷滅故</tspan><tspan
						class="st3">。<v:newlineChar/></tspan><tspan x="0" dy="1.453em" class="st4">2.</tspan><tspan class="st3">但假名和合</tspan><tspan
						class="st3">，</tspan><tspan class="st3">法無名亦無故</tspan><tspan class="st3">。<v:newlineChar/></tspan><tspan
						x="0" dy="1.453em" class="st4">3.</tspan><tspan class="st3">以心識知離心不可得故</tspan><tspan class="st3">。<v:newlineChar/></tspan><tspan
						x="0" dy="1.453em" class="st4">4.</tspan><tspan class="st3">四大等相悉捨相故</tspan><tspan class="st3">。<v:newlineChar/></tspan><tspan
						x="0" dy="1.453em" class="st4">5.</tspan><tspan class="st3">諸賢聖人能令轉變故</tspan><tspan class="st3">。<v:newlineChar/></tspan><tspan
						x="0" dy="1.453em" class="st4">6.</tspan><tspan class="st3">有見為貪瞋癡等所繫諍故</tspan><tspan class="st3">。</tspan></text>		</g>
		<g id="shape7-23" v:mID="7" v:groupContext="shape" transform="translate(121.899,-168.284)">
			<title>工作表.7</title>
			<desc>總破</desc>
			<v:textBlock v:margins="rect(0,0,0,0)" v:tabSpace="42.5197"/>
			<v:textRect cx="11.2874" cy="211.884" width="22.58" height="15.068"/>
			<rect x="0" y="204.35" width="22.5748" height="15.068" class="st1"/>
			<text x="-0" y="215.52" class="st5" v:langID="1028"><v:paragraph v:spLine="-1.4"/><v:tabList/>總破</text>		</g>
		<g id="shape15-26" v:mID="15" v:groupContext="shape" transform="translate(7.1502,-130.8)">
			<title>工作表.15</title>
			<desc>見生住起有見</desc>
			<v:textBlock v:margins="rect(0,0,0,0)" v:tabSpace="42.5197"/>
			<v:textRect cx="31.3935" cy="212.646" width="62.79" height="13.5449"/>
			<rect x="0" y="205.873" width="62.7869" height="13.5449" class="st1"/>
			<text x="0" y="216.28" class="st5" v:langID="1028"><v:paragraph v:spLine="-1.4"/><v:tabList/>見生住起有見  </text>		</g>
		<g id="shape16-29" v:mID="16" v:groupContext="shape" transform="translate(81.5576,-129.591)">
			<title>工作表.16</title>
			<desc>破有見</desc>
			<v:textBlock v:margins="rect(0,0,0,0)" v:tabSpace="42.5197"/>
			<v:textRect cx="16.9311" cy="211.884" width="33.87" height="15.068"/>
			<rect x="0" y="204.35" width="33.8622" height="15.068" class="st1"/>
			<text x="0" y="215.52" class="st5" v:langID="1028"><v:paragraph v:spLine="-1.4"/><v:tabList/>破有見 </text>		</g>
		<g id="shape20-32" v:mID="20" v:groupContext="shape" transform="translate(152.394,-89.2713)">
			<title>工作表.20</title>
			<desc>色法分析破散無餘故。 心法即生即滅無常空故。 心數、心不相應行例破。</desc>
			<v:textBlock v:margins="rect(0,0,0,0)" v:tabSpace="42.5197"/>
			<v:textRect cx="67.7245" cy="198.113" width="135.45" height="42.61"/>
			<rect x="0" y="176.808" width="135.449" height="42.61" class="st1"/>
			<text x="0" y="187.21" class="st5" v:langID="1028"><v:paragraph v:spLine="-1.4"/><v:tabList/>色法：分析破散無餘故。<v:newlineChar/><tspan
						x="0" dy="1.453em" class="st4">心法</tspan>：即生即滅，無常空故。<v:newlineChar/><tspan x="0" dy="1.453em" class="st4">心數</tspan>、心不相應行：例破。</text>		</g>
		<g id="shape26-37" v:mID="26" v:groupContext="shape" transform="translate(0.75,-77.256)">
			<title>工作表.26</title>
			<desc>離有無見得中道</desc>
			<v:textBlock v:margins="rect(0,0,0,0)" v:tabSpace="42.5197"/>
			<v:textRect cx="39.5059" cy="212.646" width="79.02" height="13.5449"/>
			<rect x="0" y="205.873" width="79.0119" height="13.5449" class="st1"/>
			<text x="0" y="216.28" class="st5" v:langID="1028"><v:paragraph v:spLine="-1.4"/><v:tabList/>離有無見得中道</text>		</g>
		<g id="shape28-40" v:mID="28" v:groupContext="shape" transform="translate(152.394,-66.9084)">
			<title>工作表.28</title>
			<desc>無為法</desc>
			<v:textBlock v:margins="rect(0,0,0,0)" v:tabSpace="42.5197"/>
			<v:textRect cx="16.9311" cy="212.646" width="33.87" height="13.5449"/>
			<rect x="0" y="205.873" width="33.8622" height="13.5449" class="st1"/>
			<text x="0" y="216.28" class="st5" v:langID="1028"><v:paragraph v:spLine="-1.4"/><v:tabList/>無為法</text>		</g>
		<g id="shape29-43" v:mID="29" v:groupContext="shape" transform="translate(192.701,-59.5414)">
			<title>工作表.29</title>
			<desc>因有為而施設故。 見作無常知不作常今見作法有不作應無故。</desc>
			<v:textBlock v:margins="rect(0,0,0,0)" v:tabSpace="42.5197"/>
			<v:textRect cx="113.452" cy="205.262" width="226.91" height="28.3126"/>
			<rect x="0" y="191.105" width="226.904" height="28.3126" class="st1"/>
			<text x="0" y="201.63" class="st5" v:langID="1028"><v:paragraph v:spLine="-1.4"/><v:tabList/>因有為而施設故。<v:newlineChar/><tspan
						x="0" dy="1.453em" class="st4">見作無常</tspan>，知不作常；今見作法有，不作應無故。</text>		</g>
		<g id="shape32-47" v:mID="32" v:groupContext="shape" transform="translate(121.643,-0.839008)">
			<title>工作表.32</title>
			<desc>破斷無 破常無</desc>
			<v:textBlock v:margins="rect(0,0,0,0)" v:tabSpace="42.5197"/>
			<v:textRect cx="16.9311" cy="190.747" width="33.87" height="57.3414"/>
			<rect x="0" y="162.077" width="33.8622" height="57.3414" class="st1"/>
			<text x="-0" y="180.11" class="st5" v:langID="1028"><v:paragraph v:spLine="-1.4"/><v:tabList/>破斷無<v:newlineChar/><v:newlineChar/><tspan
						x="-0" dy="2.853em" class="st4">破常無</tspan></text>		</g>
		<g id="shape33-51" v:mID="33" v:groupContext="shape" transform="translate(162.516,-0.75)">
			<title>工作表.33</title>
			<desc>無因緣故一物應出一切物或一物中都無所出。 無罪福故後世不應有貧富等異。 壞世出世法故。 若言顛倒見有何不於一見二三耶</desc>
			<v:textBlock v:margins="rect(0,0,0,0)" v:tabSpace="42.5197"/>
			<v:textRect cx="113.452" cy="190.747" width="226.91" height="57.3414"/>
			<rect x="0" y="162.077" width="226.904" height="57.3414" class="st1"/>
			<text x="0" y="172.58" class="st5" v:langID="1028"><v:paragraph v:spLine="-1.4"/><v:tabList/>無因緣故，一物應出一切物，或一物中都無所出。<v:newlineChar/><tspan
						x="0" dy="1.453em" class="st4">無罪福故</tspan>，後世不應有貧富等異。<v:newlineChar/><tspan x="0" dy="1.453em" class="st4">壞世出世法故</tspan>。<v:newlineChar/><tspan
						x="0" dy="1.453em" class="st4">若言顛倒見有</tspan>，何不於一見二三耶？</text>		</g>
		<g id="shape34-57" v:mID="34" v:groupContext="shape" transform="translate(7.14973,-23.0835)">
			<title>工作表.34</title>
			<desc>見異滅起無見</desc>
			<v:textBlock v:margins="rect(0,0,0,0)" v:tabSpace="42.5197"/>
			<v:textRect cx="33.8622" cy="212.646" width="67.73" height="13.5449"/>
			<rect x="0" y="205.873" width="67.7245" height="13.5449" class="st1"/>
			<text x="0" y="216.28" class="st5" v:langID="1028"><v:paragraph v:spLine="-1.4"/><v:tabList/>見異滅起無見</text>		</g>
		<g id="shape63-60" v:mID="63" v:groupContext="shape" transform="translate(253.098,90.0353) rotate(90)">
			<title>工作表.63</title>
			<path d="M2.48 216.6 L4.14 219.42 L0 216.6 L4.14 213.77 L2.48 216.6 ZM37.27 216.88 L2.48 216.88 L2.4 216.78 L2.36 216.6
						 L2.4 216.31 L2.48 216.22 L37.27 216.22 L37.39 216.31 L37.44 216.6 L37.39 216.78 L37.27 216.88 Z"
					class="st6"/>
			<path d="M2.48 216.6 L4.14 219.42 L0 216.6 L4.14 213.77M37.27 216.88 L2.48 216.88 L2.4 216.78 L2.36 216.6 L2.4 216.31
						 L2.48 216.22 L37.27 216.22 L37.39 216.31 L37.44 216.6 L37.39 216.78 L37.27 216.88" class="st7"/>
		</g>
		<g id="shape64-63" v:mID="64" v:groupContext="shape" transform="translate(252.505,143.743) rotate(90)">
			<title>工作表.64</title>
			<path d="M36.53 216.6 L34.33 213.77 L39.84 216.6 L34.33 219.42 L36.53 216.6 ZM0.17 216.22 L36.53 216.22 L36.69 216.31
						 L36.75 216.6 L36.69 216.78 L36.53 216.88 L0.17 216.88 L0.06 216.78 L0 216.6 L0.06 216.31 L0.17 216.22 Z"
					class="st6"/>
			<path d="M36.53 216.6 L34.33 213.77 L39.84 216.6 L34.33 219.42M0.17 216.22 L36.53 216.22 L36.69 216.31 L36.75 216.6 L36.69
						 216.78 L36.53 216.88 L0.17 216.88 L0.06 216.78 L0 216.6 L0.06 216.31 L0.17 216.22" class="st7"/>
		</g>
		<g id="shape78-66" v:mID="78" v:groupContext="shape" transform="translate(373.357,168.614) rotate(90)">
			<title>工作表.78</title>
			<path d="M0 212.89 C0 214.69 0 216.18 0 216.18 L7.53 216.18 C7.53 216.18 7.53 217.62 7.53 219.42 C7.53 217.62 7.53 216.18
						 7.53 216.18 L15.07 216.18 C15.07 216.18 15.07 214.69 15.07 212.89 L0 212.89 Z" class="st8"/>
			<path d="M0 212.89 C0 214.69 0 216.18 0 216.18 L7.53 216.18 C7.53 216.18 7.53 217.62 7.53 219.42 C7.53 217.62 7.53 216.18
						 7.53 216.18 L15.07 216.18 C15.07 216.18 15.07 214.69 15.07 212.89" class="st9"/>
		</g>
		<g id="shape79-69" v:mID="79" v:groupContext="shape" transform="translate(373.357,196.961) rotate(90)">
			<title>工作表.79</title>
			<path d="M0 212.89 C0 214.69 0 216.18 0 216.18 L7.53 216.18 C7.53 216.18 7.53 217.62 7.53 219.42 C7.53 217.62 7.53 216.18
						 7.53 216.18 L15.07 216.18 C15.07 216.18 15.07 214.69 15.07 212.89 L0 212.89 Z" class="st8"/>
			<path d="M0 212.89 C0 214.69 0 216.18 0 216.18 L7.53 216.18 C7.53 216.18 7.53 217.62 7.53 219.42 C7.53 217.62 7.53 216.18
						 7.53 216.18 L15.07 216.18 C15.07 216.18 15.07 214.69 15.07 212.89" class="st9"/>
		</g>
		<g id="shape80-72" v:mID="80" v:groupContext="shape" transform="translate(403.914,139.173) rotate(90)">
			<title>工作表.80</title>
			<path d="M0 212.89 C0 214.69 0 216.18 0 216.18 L7.53 216.18 C7.53 216.18 7.53 217.62 7.53 219.42 C7.53 217.62 7.53 216.18
						 7.53 216.18 L15.07 216.18 C15.07 216.18 15.07 214.69 15.07 212.89 L0 212.89 Z" class="st8"/>
			<path d="M0 212.89 C0 214.69 0 216.18 0 216.18 L7.53 216.18 C7.53 216.18 7.53 217.62 7.53 219.42 C7.53 217.62 7.53 216.18
						 7.53 216.18 L15.07 216.18 C15.07 216.18 15.07 214.69 15.07 212.89" class="st9"/>
		</g>
		<g id="shape81-75" v:mID="81" v:groupContext="shape" transform="translate(363.184,94.7137) rotate(90)">
			<title>工作表.81</title>
			<path d="M0 212.89 C0 214.69 0 216.18 0 216.18 L25.94 216.18 C25.94 216.18 25.94 217.62 25.94 219.42 C25.94 217.62 25.94
						 216.18 25.94 216.18 L51.87 216.18 C51.87 216.18 51.87 214.69 51.87 212.89 L0 212.89 Z" class="st8"/>
			<path d="M0 212.89 C0 214.69 0 216.18 0 216.18 L25.94 216.18 C25.94 216.18 25.94 217.62 25.94 219.42 C25.94 217.62 25.94
						 216.18 25.94 216.18 L51.87 216.18 C51.87 216.18 51.87 214.69 51.87 212.89" class="st9"/>
		</g>
		<g id="shape83-78" v:mID="83" v:groupContext="shape" transform="translate(363.184,7.74155) rotate(90)">
			<title>工作表.83</title>
			<path d="M0 212.89 C0 214.69 0 216.18 0 216.18 L36.35 216.18 C36.35 216.18 36.35 217.62 36.35 219.42 C36.35 217.62 36.35
						 216.18 36.35 216.18 L72.71 216.18 C72.71 216.18 72.71 214.69 72.71 212.89 L0 212.89 Z" class="st8"/>
			<path d="M0 212.89 C0 214.69 0 216.18 0 216.18 L36.35 216.18 C36.35 216.18 36.35 217.62 36.35 219.42 C36.35 217.62 36.35
						 216.18 36.35 216.18 L72.71 216.18 C72.71 216.18 72.71 214.69 72.71 212.89" class="st9"/>
		</g>
		<g id="shape85-81" v:mID="85" v:groupContext="shape" transform="translate(121.899,-91.6586)">
			<title>工作表.85</title>
			<desc>別破</desc>
			<v:textBlock v:margins="rect(0,0,0,0)" v:tabSpace="42.5197"/>
			<v:textRect cx="11.2874" cy="211.884" width="22.58" height="15.068"/>
			<rect x="0" y="204.35" width="22.5748" height="15.068" class="st1"/>
			<text x="-0" y="215.52" class="st5" v:langID="1028"><v:paragraph v:spLine="-1.4"/><v:tabList/>別破</text>		</g>
		<g id="shape87-84" v:mID="87" v:groupContext="shape" transform="translate(332.99,43.5998) rotate(90)">
			<title>工作表.87</title>
			<path d="M0 212.89 C0 214.69 0 216.18 0 216.18 L38.69 216.18 C38.69 216.18 38.69 217.62 38.69 219.42 C38.69 217.62 38.69
						 216.18 38.69 216.18 L77.39 216.18 C77.39 216.18 77.39 214.69 77.39 212.89 L0 212.89 Z" class="st8"/>
			<path d="M0 212.89 C0 214.69 0 216.18 0 216.18 L38.69 216.18 C38.69 216.18 38.69 217.62 38.69 219.42 C38.69 217.62 38.69
						 216.18 38.69 216.18 L77.39 216.18 C77.39 216.18 77.39 214.69 77.39 212.89" class="st9"/>
		</g>
		<g id="shape88-87" v:mID="88" v:groupContext="shape" transform="translate(332.965,175.701) rotate(90)">
			<title>工作表.88</title>
			<path d="M0 212.89 C0 214.69 0 216.18 0 216.18 L14.4 216.18 C14.4 216.18 14.4 217.62 14.4 219.42 C14.4 217.62 14.4 216.18
						 14.4 216.18 L28.79 216.18 C28.79 216.18 28.79 214.69 28.79 212.89 L0 212.89 Z" class="st8"/>
			<path d="M0 212.89 C0 214.69 0 216.18 0 216.18 L14.4 216.18 C14.4 216.18 14.4 217.62 14.4 219.42 C14.4 217.62 14.4 216.18
						 14.4 216.18 L28.79 216.18 C28.79 216.18 28.79 214.69 28.79 212.89" class="st9"/>
		</g>
		<g id="shape89-90" v:mID="89" v:groupContext="shape" transform="translate(81.5576,-22.3)">
			<title>工作表.89</title>
			<desc>破無見</desc>
			<v:textBlock v:margins="rect(0,0,0,0)" v:tabSpace="42.5197"/>
			<v:textRect cx="16.9311" cy="211.884" width="33.87" height="15.068"/>
			<rect x="0" y="204.35" width="33.8622" height="15.068" class="st1"/>
			<text x="-0" y="215.52" class="st5" v:langID="1028"><v:paragraph v:spLine="-1.4"/><v:tabList/>破無見 </text>		</g>
		<g id="shape90-93" v:mID="90" v:groupContext="shape" transform="translate(292.875,82.2927) rotate(90)">
			<title>工作表.90</title>
			<path d="M0 212.89 C0 214.69 0 216.18 0 216.18 L53.93 216.18 C53.93 216.18 53.93 217.62 53.93 219.42 C53.93 217.62 53.93
						 216.18 53.93 216.18 L107.86 216.18 C107.86 216.18 107.86 214.69 107.86 212.89 L0 212.89 Z" class="st8"/>
			<path d="M0 212.89 C0 214.69 0 216.18 0 216.18 L53.93 216.18 C53.93 216.18 53.93 217.62 53.93 219.42 C53.93 217.62 53.93
						 216.18 53.93 216.18 L107.86 216.18 C107.86 216.18 107.86 214.69 107.86 212.89" class="st9"/>
		</g>
	</g>
</svg>
