<?xml version="1.0" encoding="UTF-8" standalone="no"?>
<!DOCTYPE svg PUBLIC "-//W3C//DTD SVG 1.1//EN" "http://www.w3.org/Graphics/SVG/1.1/DTD/svg11.dtd">
<!-- 由 Microsoft Visio, SVG Export 產生 A00504-1.svg 頁-1 -->
<svg xmlns="http://www.w3.org/2000/svg" xmlns:xlink="http://www.w3.org/1999/xlink" xmlns:ev="http://www.w3.org/2001/xml-events"
		xmlns:v="http://schemas.microsoft.com/visio/2003/SVGExtensions/" width="4.79052in" height="1.13757in"
		viewBox="0 0 344.917 81.9047" xml:space="preserve" color-interpolation-filters="sRGB" class="st7">
	<v:documentProperties v:langID="1028" v:viewMarkup="false"/>

	<style type="text/css">
	<![CDATA[
		.st1 {fill:none;stroke:none;stroke-linecap:butt;stroke-width:0.75}
		.st2 {fill:#000000;font-family:新細明體;font-size:0.833336em}
		.st3 {fill:#000000;font-family:Times New Roman;font-size:0.833336em}
		.st4 {fill:none}
		.st5 {stroke:#040000;stroke-linecap:round;stroke-linejoin:round;stroke-width:0.705463}
		.st6 {stroke:#040000;stroke-dasharray:0,1.41093;stroke-linecap:round;stroke-linejoin:round;stroke-width:0.470309}
		.st7 {fill:none;fill-rule:evenodd;font-size:12px;overflow:visible;stroke-linecap:square;stroke-miterlimit:3}
	]]>
	</style>

	<g v:mID="0" v:index="1" v:groupContext="foregroundPage">
		<title>頁-1</title>
		<v:pageProperties v:drawingScale="0.0393701" v:pageScale="0.0393701" v:drawingUnits="24" v:shadowOffsetX="9"
				v:shadowOffsetY="-9"/>
		<g id="shape1-1" v:mID="1" v:groupContext="shape" transform="translate(53.6033,-67.6099)">
			<title>工作表.1</title>
			<desc>眾生</desc>
			<v:textBlock v:margins="rect(0,0,0,0)" v:tabSpace="42.5197"/>
			<v:textRect cx="11.2874" cy="75.1323" width="22.58" height="13.5449"/>
			<rect x="0" y="68.3599" width="22.5748" height="13.5449" class="st1"/>
			<text x="0" y="78.25" class="st2" v:langID="1028"><v:paragraph/><v:tabList/>眾生</text>		</g>
		<g id="shape2-4" v:mID="2" v:groupContext="shape" transform="translate(77.1845,-67.6099)">
			<title>工作表.2</title>
			<desc>…………………………………………………</desc>
			<v:textBlock v:margins="rect(0,0,0,0)" v:tabSpace="42.5197"/>
			<v:textRect cx="118.518" cy="75.1323" width="237.04" height="13.5449"/>
			<rect x="0" y="68.3599" width="237.036" height="13.5449" class="st1"/>
			<text x="-0" y="78.13" class="st3" v:langID="1028"><v:paragraph/><v:tabList/>…………………………………………………</text>		</g>
		<g id="shape3-7" v:mID="3" v:groupContext="shape" transform="translate(269.112,-67.6099)">
			<title>工作表.3</title>
			<desc>是中忍名生忍。</desc>
			<v:textBlock v:margins="rect(0,0,0,0)" v:tabSpace="42.5197"/>
			<v:textRect cx="37.5277" cy="75.1323" width="75.06" height="13.5449"/>
			<rect x="0" y="68.3599" width="75.0554" height="13.5449" class="st1"/>
			<text x="0" y="78.25" class="st2" v:langID="1028"><v:paragraph/><v:tabList/>是中忍名生忍。</text>		</g>
		<g id="shape16-10" v:mID="16" v:groupContext="shape" transform="translate(0.75,-48.1981)">
			<title>工作表.16</title>
			<desc>法有二種</desc>
			<v:textBlock v:margins="rect(0,0,0,0)" v:tabSpace="42.5197"/>
			<v:textRect cx="22.5748" cy="75.1323" width="45.15" height="13.5449"/>
			<rect x="0" y="68.3599" width="45.1496" height="13.5449" class="st1"/>
			<text x="0" y="78.25" class="st2" v:langID="1028"><v:paragraph/><v:tabList/>法有二種</text>		</g>
		<g id="shape18-13" v:mID="18" v:groupContext="shape" transform="translate(141.459,-53.1909)">
			<title>工作表.18</title>
			<desc>內</desc>
			<v:textBlock v:margins="rect(0,0,0,0)" v:tabSpace="42.5197"/>
			<v:textRect cx="5.64371" cy="75.1323" width="11.29" height="13.5449"/>
			<rect x="0" y="68.3599" width="11.2874" height="13.5449" class="st1"/>
			<text x="0" y="78.25" class="st2" v:langID="1028"><v:paragraph/><v:tabList/>內</text>		</g>
		<g id="shape19-16" v:mID="19" v:groupContext="shape" transform="translate(151.482,-53.7549)">
			<title>工作表.19</title>
			<desc>………</desc>
			<v:textBlock v:margins="rect(0,0,0,0)" v:tabSpace="42.5197"/>
			<v:textRect cx="16.9311" cy="75.1323" width="33.87" height="13.5449"/>
			<rect x="0" y="68.3599" width="33.8622" height="13.5449" class="st1"/>
			<text x="0" y="78.13" class="st3" v:langID="1028"><v:paragraph/><v:tabList/>………</text>		</g>
		<g id="shape20-19" v:mID="20" v:groupContext="shape" transform="translate(181.511,-53.7549)">
			<title>工作表.20</title>
			<desc>飢渴老病等</desc>
			<v:textBlock v:margins="rect(0,0,0,0)" v:tabSpace="42.5197"/>
			<v:textRect cx="28.2185" cy="75.1323" width="56.44" height="13.5449"/>
			<rect x="0" y="68.3599" width="56.4371" height="13.5449" class="st1"/>
			<text x="0" y="78.25" class="st2" v:langID="1028"><v:paragraph/><v:tabList/>飢渴老病等</text>		</g>
		<g id="shape21-22" v:mID="21" v:groupContext="shape" transform="translate(83.2981,-44.4353)">
			<title>工作表.21</title>
			<desc>非心法</desc>
			<v:textBlock v:margins="rect(0,0,0,0)" v:tabSpace="42.5197"/>
			<v:textRect cx="16.9311" cy="75.1323" width="33.87" height="13.5449"/>
			<rect x="0" y="68.3599" width="33.8622" height="13.5449" class="st1"/>
			<text x="0" y="78.25" class="st2" v:langID="1028"><v:paragraph/><v:tabList/>非心法</text>		</g>
		<g id="shape22-25" v:mID="22" v:groupContext="shape" transform="translate(113.276,-43.2697)">
			<title>工作表.22</title>
			<v:textBlock v:margins="rect(0,0,0,0)" v:tabSpace="42.5197"/>
			<v:textRect cx="11.2874" cy="75.1323" width="22.58" height="13.5449"/>
			<rect x="0" y="68.3599" width="22.5748" height="13.5449" class="st1"/>
			<text x="0" y="78.25" class="st2" v:langID="1028"><v:paragraph/><v:tabList/>－－</text>		</g>
		<g id="shape23-28" v:mID="23" v:groupContext="shape" transform="translate(53.6028,-26.9692)">
			<title>工作表.23</title>
			<desc>諸法</desc>
			<v:textBlock v:margins="rect(0,0,0,0)" v:tabSpace="42.5197"/>
			<v:textRect cx="11.2874" cy="75.1323" width="22.58" height="13.5449"/>
			<rect x="0" y="68.3599" width="22.5748" height="13.5449" class="st1"/>
			<text x="0" y="78.25" class="st2" v:langID="1028"><v:paragraph/><v:tabList/>諸法</text>		</g>
		<g id="shape24-31" v:mID="24" v:groupContext="shape" transform="translate(141.459,-35.3941)">
			<title>工作表.24</title>
			<desc>外</desc>
			<v:textBlock v:margins="rect(0,0,0,0)" v:tabSpace="42.5197"/>
			<v:textRect cx="5.64371" cy="75.1323" width="11.29" height="13.5449"/>
			<rect x="0" y="68.3599" width="11.2874" height="13.5449" class="st1"/>
			<text x="0" y="78.25" class="st2" v:langID="1028"><v:paragraph/><v:tabList/>外</text>		</g>
		<g id="shape25-34" v:mID="25" v:groupContext="shape" transform="translate(151.483,-35.3941)">
			<title>工作表.25</title>
			<desc>………</desc>
			<v:textBlock v:margins="rect(0,0,0,0)" v:tabSpace="42.5197"/>
			<v:textRect cx="16.9311" cy="75.1323" width="33.87" height="13.5449"/>
			<rect x="0" y="68.3599" width="33.8622" height="13.5449" class="st1"/>
			<text x="0" y="78.13" class="st3" v:langID="1028"><v:paragraph/><v:tabList/>………</text>		</g>
		<g id="shape26-37" v:mID="26" v:groupContext="shape" transform="translate(181.512,-36.0866)">
			<title>工作表.26</title>
			<desc>寒熱風雨等</desc>
			<v:textBlock v:margins="rect(0,0,0,0)" v:tabSpace="42.5197"/>
			<v:textRect cx="28.2185" cy="75.1323" width="56.44" height="13.5449"/>
			<rect x="0" y="68.3599" width="56.4371" height="13.5449" class="st1"/>
			<text x="0" y="78.25" class="st2" v:langID="1028"><v:paragraph/><v:tabList/>寒熱風雨等</text>		</g>
		<g id="shape27-40" v:mID="27" v:groupContext="shape" transform="translate(258.904,-26.9383)">
			<title>工作表.27</title>
			<desc>是中忍名法忍</desc>
			<v:textBlock v:margins="rect(0,0,0,0)" v:tabSpace="42.5197"/>
			<v:textRect cx="39.5059" cy="75.1323" width="79.02" height="13.5449"/>
			<rect x="0" y="68.3599" width="79.0119" height="13.5449" class="st1"/>
			<text x="10" y="78.25" class="st2" v:langID="1028"><v:paragraph/><v:tabList/>是中忍名法忍</text>		</g>
		<g id="shape34-43" v:mID="34" v:groupContext="shape" transform="translate(141.715,-18.4183)">
			<title>工作表.34</title>
			<desc>瞋恚憂愁疑</desc>
			<v:textBlock v:margins="rect(0,0,0,0)" v:tabSpace="42.5197"/>
			<v:textRect cx="33.8622" cy="75.1323" width="67.73" height="13.5449"/>
			<rect x="0" y="68.3599" width="67.7245" height="13.5449" class="st1"/>
			<text x="0" y="78.25" class="st2" v:langID="1028"><v:paragraph/><v:tabList/>瞋恚憂愁疑</text>		</g>
		<g id="shape35-46" v:mID="35" v:groupContext="shape" transform="translate(83.2981,-9.56811)">
			<title>工作表.35</title>
			<desc>心　法</desc>
			<v:textBlock v:margins="rect(0,0,0,0)" v:tabSpace="42.5197"/>
			<v:textRect cx="16.9311" cy="75.1323" width="33.87" height="13.5449"/>
			<rect x="0" y="68.3599" width="33.8622" height="13.5449" class="st1"/>
			<text x="-0" y="78.25" class="st2" v:langID="1028"><v:paragraph/><v:tabList/>心　法</text>		</g>
		<g id="shape36-49" v:mID="36" v:groupContext="shape" transform="translate(113.276,-9.56811)">
			<title>工作表.36</title>
			<v:textBlock v:margins="rect(0,0,0,0)" v:tabSpace="42.5197"/>
			<v:textRect cx="11.2874" cy="75.1323" width="22.58" height="13.5449"/>
			<rect x="0" y="68.3599" width="22.5748" height="13.5449" class="st1"/>
			<text x="-0" y="78.25" class="st2" v:langID="1028"><v:paragraph/><v:tabList/>－－</text>		</g>
		<g id="shape37-52" v:mID="37" v:groupContext="shape" transform="translate(141.714,-0.75)">
			<title>工作表.37</title>
			<desc>婬欲憍慢等</desc>
			<v:textBlock v:margins="rect(0,0,0,0)" v:tabSpace="42.5197"/>
			<v:textRect cx="33.8622" cy="75.1323" width="67.73" height="13.5449"/>
			<rect x="0" y="68.3599" width="67.7245" height="13.5449" class="st1"/>
			<text x="0" y="78.25" class="st2" v:langID="1028"><v:paragraph/><v:tabList/>婬欲憍慢等</text>		</g>
		<g id="shape49-55" v:mID="49" v:groupContext="shape" transform="translate(125.416,6.77744) rotate(90)">
			<title>工作表.49</title>
			<path d="M0 73.44 C0 75.79 1.59 77.67 3.54 77.67 L17.72 77.67 C19.67 77.67 21.26 79.6 21.26 81.9 C21.26 79.6 22.85 77.67
						 24.8 77.67 L38.98 77.67 C40.93 77.67 42.52 75.79 42.52 73.44 L0 73.44 Z" class="st4"/>
			<path d="M0 73.44 C0 75.79 1.59 77.67 3.54 77.67 L17.72 77.67 C19.67 77.67 21.26 79.6 21.26 81.9 C21.26 79.6 22.85 77.67
						 24.8 77.67 L38.98 77.67 C40.93 77.67 42.52 75.79 42.52 73.44" class="st5"/>
		</g>
		<g id="shape51-58" v:mID="51" v:groupContext="shape" transform="translate(216.226,21.6272) rotate(90)">
			<title>工作表.51</title>
			<path d="M0 75.91 C0 77.58 0.75 78.91 1.63 78.91 L8.25 78.91 C9.17 78.91 9.92 80.24 9.92 81.9 C9.92 80.24 10.67 78.91
						 11.55 78.91 L18.17 78.91 C19.09 78.91 19.84 77.58 19.84 75.91 L0 75.91 Z" class="st4"/>
			<path d="M0 75.91 C0 77.58 0.75 78.91 1.63 78.91 L8.25 78.91 C9.17 78.91 9.92 80.24 9.92 81.9 C9.92 80.24 10.67 78.91
						 11.55 78.91 L18.17 78.91 C19.09 78.91 19.84 77.58 19.84 75.91" class="st5"/>
		</g>
		<g id="shape53-61" v:mID="53" v:groupContext="shape" transform="translate(286.649,-42.4944) rotate(39.2293)">
			<title>工作表.53</title>
			<path d="M0 81.9 L42.69 81.9" class="st6"/>
		</g>
		<g id="shape54-64" v:mID="54" v:groupContext="shape" transform="translate(170.374,-2.65959) rotate(-20.7683)">
			<title>工作表.54</title>
			<path d="M0 81.9 L73.26 81.9" class="st6"/>
		</g>
		<g id="shape56-67" v:mID="56" v:groupContext="shape" transform="translate(216.226,55.6429) rotate(90)">
			<title>工作表.56</title>
			<path d="M0 75.91 C0 77.58 0.75 78.91 1.63 78.91 L8.25 78.91 C9.17 78.91 9.92 80.24 9.92 81.9 C9.92 80.24 10.67 78.91
						 11.55 78.91 L18.17 78.91 C19.09 78.91 19.84 77.58 19.84 75.91 L0 75.91 Z" class="st4"/>
			<path d="M0 75.91 C0 77.58 0.75 78.91 1.63 78.91 L8.25 78.91 C9.17 78.91 9.92 80.24 9.92 81.9 C9.92 80.24 10.67 78.91
						 11.55 78.91 L18.17 78.91 C19.09 78.91 19.84 77.58 19.84 75.91" class="st5"/>
		</g>
		<g id="shape57-70" v:mID="57" v:groupContext="shape" transform="translate(156.352,28.9972) rotate(90)">
			<title>工作表.57</title>
			<path d="M0 74.31 C0 76.42 1.43 78.11 3.12 78.11 L15.78 78.11 C17.56 78.11 18.99 79.79 18.99 81.9 C18.99 79.79 20.43
						 78.11 22.12 78.11 L34.78 78.11 C36.55 78.11 37.98 76.42 37.98 74.31 L0 74.31 Z" class="st4"/>
			<path d="M0 74.31 C0 76.42 1.43 78.11 3.12 78.11 L15.78 78.11 C17.56 78.11 18.99 79.79 18.99 81.9 C18.99 79.79 20.43
						 78.11 22.12 78.11 L34.78 78.11 C36.55 78.11 37.98 76.42 37.98 74.31" class="st5"/>
		</g>
	</g>
</svg>
