<?xml version="1.0" encoding="UTF-8" standalone="no"?>
<!DOCTYPE svg PUBLIC "-//W3C//DTD SVG 1.1//EN" "http://www.w3.org/Graphics/SVG/1.1/DTD/svg11.dtd">
<!-- 由 Microsoft Visio, SVG Export 產生 A01502.svg 頁-1 -->
<svg xmlns="http://www.w3.org/2000/svg" xmlns:xlink="http://www.w3.org/1999/xlink" xmlns:ev="http://www.w3.org/2001/xml-events"
		xmlns:v="http://schemas.microsoft.com/visio/2003/SVGExtensions/" width="3.70783in" height="0.40374in"
		viewBox="0 0 266.964 29.0693" xml:space="preserve" color-interpolation-filters="sRGB" class="st7">
	<v:documentProperties v:langID="1028" v:viewMarkup="false"/>

	<style type="text/css">
	<![CDATA[
		.st1 {fill:none;stroke:none;stroke-linecap:butt;stroke-width:0.75}
		.st2 {fill:#000000;font-family:新細明體;font-size:0.833336em}
		.st3 {font-family:Times New Roman;font-size:1em}
		.st4 {font-size:1em}
		.st5 {fill:none}
		.st6 {stroke:#040000;stroke-linecap:round;stroke-linejoin:round;stroke-width:0.705463}
		.st7 {fill:none;fill-rule:evenodd;font-size:12px;overflow:visible;stroke-linecap:square;stroke-miterlimit:3}
	]]>
	</style>

	<g v:mID="0" v:index="1" v:groupContext="foregroundPage">
		<title>頁-1</title>
		<v:pageProperties v:drawingScale="0.0393701" v:pageScale="0.0393701" v:drawingUnits="24" v:shadowOffsetX="9"
				v:shadowOffsetY="-9"/>
		<g id="shape1-1" v:mID="1" v:groupContext="shape" transform="translate(23.3257,-1.33861)">
			<title>工作表.1</title>
			<desc>凡夫以無明毒——非常作常想乃至非有謂有有謂非有 聖人得實智慧——得實相</desc>
			<v:textBlock v:margins="rect(0,0,0,0)" v:tabSpace="42.5197"/>
			<v:textRect cx="121.444" cy="15.873" width="242.89" height="26.3925"/>
			<rect x="0" y="2.67674" width="242.888" height="26.3925" class="st1"/>
			<text x="0" y="12.24" class="st2" v:langID="1028"><v:paragraph v:spLine="-1.4"/><v:tabList/>凡夫以無明毒<tspan class="st3">——</tspan>非常作常想乃至非有謂有，有謂非有<v:newlineChar/><tspan
						x="0" dy="1.453em" class="st4">聖人得實智慧</tspan><tspan class="st3">——</tspan>得實相</text>		</g>
		<g id="shape2-7" v:mID="2" v:groupContext="shape" transform="translate(0.75,-7.27261)">
			<title>工作表.2</title>
			<desc>法</desc>
			<v:textBlock v:margins="rect(0,0,0,0)" v:tabSpace="42.5197"/>
			<v:textRect cx="5.64371" cy="22.2968" width="11.29" height="13.5449"/>
			<rect x="0" y="15.5244" width="11.2874" height="13.5449" class="st1"/>
			<text x="0" y="25.41" class="st2" v:langID="1028"><v:paragraph/><v:tabList/>法</text>		</g>
		<g id="shape11-10" v:mID="11" v:groupContext="shape" transform="translate(41.5821,6.47079) rotate(90)">
			<title>工作表.11</title>
			<path d="M0 19.71 C0 22.31 0.64 24.39 1.4 24.39 L7.08 24.39 C7.88 24.39 8.48 26.53 8.48 29.07 C8.48 26.53 9.12 24.39
						 9.92 24.39 L15.61 24.39 C16.37 24.39 17.01 22.31 17.01 19.71 L0 19.71 Z" class="st5"/>
			<path d="M0 19.71 C0 22.31 0.64 24.39 1.4 24.39 L7.08 24.39 C7.88 24.39 8.48 26.53 8.48 29.07 C8.48 26.53 9.12 24.39
						 9.92 24.39 L15.61 24.39 C16.37 24.39 17.01 22.31 17.01 19.71" class="st6"/>
		</g>
	</g>
</svg>
