<?xml version="1.0" encoding="UTF-8" standalone="no"?>
<!DOCTYPE svg PUBLIC "-//W3C//DTD SVG 1.1//EN" "http://www.w3.org/Graphics/SVG/1.1/DTD/svg11.dtd">
<!-- 由 Microsoft Visio, SVG Export 產生 M015.124.svg 頁-1 -->
<svg xmlns="http://www.w3.org/2000/svg" xmlns:xlink="http://www.w3.org/1999/xlink" xmlns:ev="http://www.w3.org/2001/xml-events"
		width="2.75374in" height="0.626706in" viewBox="0 0 198.269 45.1228" xml:space="preserve" color-interpolation-filters="sRGB"
		class="st9">
	<style type="text/css">
	<![CDATA[
		.st1 {fill:none;stroke:none;stroke-linecap:butt;stroke-width:0.750001}
		.st2 {fill:#000000;font-family:新細明體;font-size:0.833336em}
		.st3 {fill:none;stroke:none;stroke-width:1}
		.st4 {fill:none}
		.st5 {stroke:#040000;stroke-linecap:round;stroke-linejoin:round;stroke-width:0.705464}
		.st6 {stroke:#000000;stroke-linecap:round;stroke-linejoin:round;stroke-width:0.75}
		.st7 {marker-end:url(#mrkr5-34);stroke:#000000;stroke-linecap:round;stroke-linejoin:round;stroke-width:0.75}
		.st8 {fill:#000000;fill-opacity:1;stroke:#000000;stroke-opacity:1;stroke-width:0.29411764705882}
		.st9 {fill:none;fill-rule:evenodd;font-size:12px;overflow:visible;stroke-linecap:square;stroke-miterlimit:3}
	]]>
	</style>

	<defs id="Markers">
		<g id="lend5">
			<path d="M 2 1 L 0 0 L 1.98117 -0.993387 C 1.67173 -0.364515 1.67301 0.372641 1.98465 1.00043 " style="stroke:none"/>
		</g>
		<marker id="mrkr5-34" class="st8" refX="-5.95" orient="auto" markerUnits="strokeWidth" overflow="visible">
			<use xlink:href="#lend5" transform="scale(-3.4,-3.4) "/>
		</marker>
	</defs>
	<g>
		<title>頁-1</title>
		<g id="group14-1" transform="translate(0.750001,-0.750001)">
			<title>工作表.14</title>
			<g id="shape1-2" transform="translate(33.3862,-30.0779)">
				<title>工作表.1</title>
				<desc>施、戒、忍</desc>
				<rect x="0" y="31.5779" width="56.4371" height="13.5449" class="st1"/>
				<text x="-0" y="41.35" class="st2">施、戒、忍</text>			</g>
			<g id="shape3-5" transform="translate(113.387,-30.0779)">
				<title>工作表.3</title>
				<desc>世間常有</desc>
				<rect x="0" y="31.5779" width="45.1496" height="13.5449" class="st1"/>
				<text x="-0" y="41.35" class="st2">世間常有</text>			</g>
			<g id="shape4-8" transform="translate(0,-15.1465)">
				<title>工作表.4</title>
				<desc>六度</desc>
				<rect x="0" y="31.5779" width="22.5748" height="13.5449" class="st1"/>
				<text x="-0" y="41.35" class="st2">六度</text>			</g>
			<g id="shape5-11" transform="translate(33.387,-15.039)">
				<title>工作表.5</title>
				<desc>精進</desc>
				<rect x="0" y="31.5779" width="22.5748" height="13.5449" class="st1"/>
				<text x="-0" y="41.35" class="st2">精進</text>			</g>
			<g id="shape6-14" transform="translate(103.282,-14.2808)">
				<title>工作表.6</title>
				<desc>以精進力乃得後二</desc>
				<rect x="0" y="31.5779" width="93.487" height="13.5449" class="st1"/>
				<text x="-0" y="41.35" class="st2">以精進力乃得後二</text>			</g>
			<g id="shape7-17" transform="translate(33.3857,7.10543E-15)">
				<title>工作表.7</title>
				<desc>禪、實慧</desc>
				<rect x="0" y="31.5779" width="45.1496" height="13.5449" class="st1"/>
				<text x="-0" y="41.35" class="st2">禪、實慧</text>			</g>
			<g id="group8-20" transform="translate(67.2148,7.1693) rotate(90)">
				<title>工作表.16</title>
				<g id="shape9-21">
					<title>工作表.9</title>
					<path d="M0 36.66 C0 39.01 1.14 40.89 2.62 40.89 L13.02 40.89 C14.45 40.89 15.59 42.77 15.59 45.12 C15.59 42.77
								 16.73 40.89 18.21 40.89 L28.61 40.89 C30.04 40.89 31.18 39.01 31.18 36.66 L0 36.66 Z" class="st3"/>
				</g>
				<g id="shape10-23">
					<title>工作表.10</title>
					<path d="M0 36.66 C0 39.01 1.14 40.89 2.62 40.89 L13.02 40.89 C14.45 40.89 15.59 42.77 15.59 45.12 C15.59 42.77
								 16.73 40.89 18.21 40.89 L28.61 40.89 C30.04 40.89 31.18 39.01 31.18 36.66 L0 36.66 Z" class="st4"/>
					<path d="M0 36.66 C0 39.01 1.14 40.89 2.62 40.89 L13.02 40.89 C14.45 40.89 15.59 42.77 15.59 45.12 C15.59 42.77
								 16.73 40.89 18.21 40.89 L28.61 40.89 C30.04 40.89 31.18 39.01 31.18 36.66" class="st5"/>
				</g>
			</g>
			<g id="shape11-26" transform="translate(54.2421,-20.7933)">
				<title>工作表.11</title>
				<path d="M0 45.12 L48.19 45.12" class="st6"/>
			</g>
			<g id="shape12-29" transform="translate(124.273,63.8135) rotate(151.049)">
				<title>工作表.12</title>
				<path d="M0 45.12 L25.99 45.12" class="st7"/>
			</g>
			<g id="shape13-35" transform="translate(84.2893,-36.1004)">
				<title>工作表.13</title>
				<path d="M0 45.12 L28.16 45.12" class="st6"/>
			</g>
		</g>
	</g>
</svg>
