<?xml version="1.0" encoding="UTF-8" standalone="no"?>
<!DOCTYPE svg PUBLIC "-//W3C//DTD SVG 1.1//EN" "http://www.w3.org/Graphics/SVG/1.1/DTD/svg11.dtd">
<!-- 由 Microsoft Visio, SVG Export 產生 A00505.svg 頁-1 -->
<svg xmlns="http://www.w3.org/2000/svg" xmlns:xlink="http://www.w3.org/1999/xlink" xmlns:ev="http://www.w3.org/2001/xml-events"
		xmlns:v="http://schemas.microsoft.com/visio/2003/SVGExtensions/" width="1.72583in" height="0.436545in"
		viewBox="0 0 124.26 31.4312" xml:space="preserve" color-interpolation-filters="sRGB" class="st5">
	<v:documentProperties v:langID="1028" v:viewMarkup="false"/>

	<style type="text/css">
	<![CDATA[
		.st1 {fill:none;stroke:none;stroke-linecap:butt;stroke-width:0.75}
		.st2 {fill:#000000;font-family:新細明體;font-size:0.833336em}
		.st3 {fill:none}
		.st4 {stroke:#040000;stroke-linecap:round;stroke-linejoin:round;stroke-width:0.705463}
		.st5 {fill:none;fill-rule:evenodd;font-size:12px;overflow:visible;stroke-linecap:square;stroke-miterlimit:3}
	]]>
	</style>

	<g v:mID="0" v:index="1" v:groupContext="foregroundPage">
		<title>頁-1</title>
		<v:pageProperties v:drawingScale="0.0393701" v:pageScale="0.0393701" v:drawingUnits="24" v:shadowOffsetX="9"
				v:shadowOffsetY="-9"/>
		<g id="shape1-1" v:mID="1" v:groupContext="shape" transform="translate(50.4953,-17.1364)">
			<title>工作表.1</title>
			<desc>取相心著</desc>
			<v:textBlock v:margins="rect(0,0,0,0)" v:tabSpace="42.5197"/>
			<v:textRect cx="22.5748" cy="24.6588" width="45.15" height="13.5449"/>
			<rect x="0" y="17.8864" width="45.1496" height="13.5449" class="st1"/>
			<text x="0" y="27.77" class="st2" v:langID="1028"><v:paragraph/><v:tabList/>取相心著</text>		</g>
		<g id="shape2-4" v:mID="2" v:groupContext="shape" transform="translate(91.0899,-17.1364)">
			<title>工作表.2</title>
			<v:textBlock v:margins="rect(0,0,0,0)" v:tabSpace="42.5197"/>
			<v:textRect cx="5.64371" cy="24.6588" width="11.29" height="13.5449"/>
			<rect x="0" y="17.8864" width="11.2874" height="13.5449" class="st1"/>
			<text x="-0" y="27.77" class="st2" v:langID="1028"><v:paragraph/><v:tabList/>－</text>		</g>
		<g id="shape3-7" v:mID="3" v:groupContext="shape" transform="translate(100.934,-17.1364)">
			<title>工作表.3</title>
			<desc>惡邪</desc>
			<v:textBlock v:margins="rect(0,0,0,0)" v:tabSpace="42.5197"/>
			<v:textRect cx="11.2874" cy="24.6588" width="22.58" height="13.5449"/>
			<rect x="0" y="17.8864" width="22.5748" height="13.5449" class="st1"/>
			<text x="-0" y="27.77" class="st2" v:langID="1028"><v:paragraph/><v:tabList/>惡邪</text>		</g>
		<g id="shape4-10" v:mID="4" v:groupContext="shape" transform="translate(0.75,-9.4804)">
			<title>工作表.4</title>
			<desc>法性本空</desc>
			<v:textBlock v:margins="rect(0,0,0,0)" v:tabSpace="42.5197"/>
			<v:textRect cx="22.5748" cy="24.6588" width="45.15" height="13.5449"/>
			<rect x="0" y="17.8864" width="45.1496" height="13.5449" class="st1"/>
			<text x="0" y="27.77" class="st2" v:langID="1028"><v:paragraph/><v:tabList/>法性本空</text>		</g>
		<g id="shape5-13" v:mID="5" v:groupContext="shape" transform="translate(50.4961,-0.75)">
			<title>工作表.5</title>
			<desc>心不著空</desc>
			<v:textBlock v:margins="rect(0,0,0,0)" v:tabSpace="42.5197"/>
			<v:textRect cx="22.5748" cy="24.6588" width="45.15" height="13.5449"/>
			<rect x="0" y="17.8864" width="45.1496" height="13.5449" class="st1"/>
			<text x="0" y="27.77" class="st2" v:langID="1028"><v:paragraph/><v:tabList/>心不著空</text>		</g>
		<g id="shape6-16" v:mID="6" v:groupContext="shape" transform="translate(91.0907,-0.75)">
			<title>工作表.6</title>
			<v:textBlock v:margins="rect(0,0,0,0)" v:tabSpace="42.5197"/>
			<v:textRect cx="5.64371" cy="24.6588" width="11.29" height="13.5449"/>
			<rect x="0" y="17.8864" width="11.2874" height="13.5449" class="st1"/>
			<text x="-0" y="27.77" class="st2" v:langID="1028"><v:paragraph/><v:tabList/>－</text>		</g>
		<g id="shape7-19" v:mID="7" v:groupContext="shape" transform="translate(100.935,-0.75)">
			<title>工作表.7</title>
			<desc>法忍</desc>
			<v:textBlock v:margins="rect(0,0,0,0)" v:tabSpace="42.5197"/>
			<v:textRect cx="11.2874" cy="24.6588" width="22.58" height="13.5449"/>
			<rect x="0" y="17.8864" width="22.5748" height="13.5449" class="st1"/>
			<text x="-0" y="27.77" class="st2" v:langID="1028"><v:paragraph/><v:tabList/>法忍</text>		</g>
		<g id="shape16-22" v:mID="16" v:groupContext="shape" transform="translate(73.7088,6.50303) rotate(90)">
			<title>工作表.16</title>
			<path d="M0 24.87 C0 26.65 0.69 28.15 1.57 28.15 L7.69 28.15 C8.57 28.15 9.26 29.58 9.26 31.43 C9.26 29.65 9.95 28.15
						 10.78 28.15 L16.91 28.15 C17.73 28.15 18.43 26.65 18.43 24.87 L0 24.87 Z" class="st3"/>
			<path d="M0 24.87 C0 26.65 0.69 28.15 1.57 28.15 L7.69 28.15 C8.57 28.15 9.26 29.58 9.26 31.43 C9.26 29.65 9.95 28.15
						 10.78 28.15 L16.91 28.15 C17.73 28.15 18.43 26.65 18.43 24.87" class="st4"/>
		</g>
	</g>
</svg>
