<?xml version="1.0" encoding="UTF-8" standalone="no"?>
<!DOCTYPE svg PUBLIC "-//W3C//DTD SVG 1.1//EN" "http://www.w3.org/Graphics/SVG/1.1/DTD/svg11.dtd">
<!-- 由 Microsoft Visio, SVG Export 產生 M015.107=A01501.svg 頁-1 -->
<svg xmlns="http://www.w3.org/2000/svg" xmlns:xlink="http://www.w3.org/1999/xlink" xmlns:ev="http://www.w3.org/2001/xml-events"
		xmlns:v="http://schemas.microsoft.com/visio/2003/SVGExtensions/" width="3.49751in" height="0.808235in"
		viewBox="0 0 251.821 58.1929" xml:space="preserve" color-interpolation-filters="sRGB" class="st7">
	<v:documentProperties v:langID="1028" v:viewMarkup="false"/>

	<style type="text/css">
	<![CDATA[
		.st1 {fill:none;stroke:none;stroke-linecap:butt;stroke-width:0.75}
		.st2 {fill:#000000;font-family:新細明體;font-size:0.833336em}
		.st3 {font-size:1em}
		.st4 {font-family:Times New Roman;font-size:1em}
		.st5 {fill:none}
		.st6 {stroke:#040000;stroke-linecap:round;stroke-linejoin:round;stroke-width:0.705463}
		.st7 {fill:none;fill-rule:evenodd;font-size:12px;overflow:visible;stroke-linecap:square;stroke-miterlimit:3}
	]]>
	</style>

	<g v:mID="0" v:index="1" v:groupContext="foregroundPage">
		<title>頁-1</title>
		<v:pageProperties v:drawingScale="0.0393701" v:pageScale="0.0393701" v:drawingUnits="24" v:shadowOffsetX="9"
				v:shadowOffsetY="-9"/>
		<g id="group27-1" transform="translate(0.75,-0.75)" v:mID="27" v:groupContext="group">
			<title>工作表.27</title>
			<g id="shape1-2" v:mID="1" v:groupContext="shape" transform="translate(127.392,6.18172E-13)">
				<title>工作表.1</title>
				<desc>無前因緣今應一出一切 無今緣後應無罪福報 一切皆無壞世出世法 若言顛倒見有何不亂見</desc>
				<v:textBlock v:margins="rect(0,0,0,0)" v:tabSpace="42.5197"/>
				<v:textRect cx="61.4645" cy="29.8465" width="122.93" height="56.6929"/>
				<rect x="0" y="1.5" width="122.929" height="56.6929" class="st1"/>
				<text x="0" y="11.68" class="st2" v:langID="1028"><v:paragraph v:spLine="-1.4"/><v:tabList/>無前因緣，今應一出一切<v:newlineChar/><tspan
							x="0" dy="1.453em" class="st3">無今緣</tspan>，後應無罪福報<v:newlineChar/><tspan x="0" dy="1.453em" class="st3">一切皆無</tspan>，壞世出世法<v:newlineChar/><tspan
							x="0" dy="1.453em" class="st3">若言顛倒見有</tspan>，何不亂見？</text>			</g>
			<g id="shape2-8" v:mID="2" v:groupContext="shape" transform="translate(46.5717,-34.5472)">
				<title>工作表.2</title>
				<desc>一、斷滅無——</desc>
				<v:textBlock v:margins="rect(0,0,0,0)" v:tabSpace="42.5197"/>
				<v:textRect cx="38.095" cy="51.4205" width="76.2" height="13.5449"/>
				<rect x="0" y="44.648" width="76.19" height="13.5449" class="st1"/>
				<text x="0" y="54.53" class="st2" v:langID="1028"><v:paragraph/><v:tabList/>一、斷滅無<tspan class="st4">——</tspan></text>			</g>
			<g id="shape5-12" v:mID="5" v:groupContext="shape" transform="translate(-5.65734E-13,-20.6693)">
				<title>工作表.5</title>
				<desc>二種無</desc>
				<v:textBlock v:margins="rect(0,0,0,0)" v:tabSpace="42.5197"/>
				<v:textRect cx="16.9311" cy="51.4205" width="33.87" height="13.5449"/>
				<rect x="0" y="44.648" width="33.8622" height="13.5449" class="st1"/>
				<text x="0" y="54.53" class="st2" v:langID="1028"><v:paragraph/><v:tabList/>二種無</text>			</g>
			<g id="shape7-15" v:mID="7" v:groupContext="shape" transform="translate(46.5722,-7.0866)">
				<title>工作表.7</title>
				<desc>二、常　無——</desc>
				<v:textBlock v:margins="rect(0,0,0,0)" v:tabSpace="42.5197"/>
				<v:textRect cx="38.095" cy="51.4205" width="76.2" height="13.5449"/>
				<rect x="0" y="44.648" width="76.19" height="13.5449" class="st1"/>
				<text x="0" y="54.53" class="st2" v:langID="1028"><v:paragraph/><v:tabList/>二、常　無<tspan class="st4">——</tspan></text>			</g>
			<g id="shape19-19" v:mID="19" v:groupContext="shape" transform="translate(91.0102,16.0984) rotate(90)">
				<title>工作表.19</title>
				<path d="M0 46.91 C0 50.04 1.11 52.55 2.43 52.55 L12.07 52.55 C13.39 52.55 14.46 55.12 14.46 58.19 C14.46 55.12 15.56
							 52.55 16.88 52.55 L26.52 52.55 C27.84 52.55 28.91 50.04 28.91 46.91 L0 46.91 Z" class="st5"/>
				<path d="M0 46.91 C0 50.04 1.11 52.55 2.43 52.55 L12.07 52.55 C13.39 52.55 14.46 55.12 14.46 58.19 C14.46 55.12 15.56
							 52.55 16.88 52.55 L26.52 52.55 C27.84 52.55 28.91 50.04 28.91 46.91" class="st6"/>
			</g>
			<g id="shape20-22" v:mID="20" v:groupContext="shape" transform="translate(176.75,8.50622) rotate(90)">
				<title>工作表.20</title>
				<path d="M0 50.81 C0 52.84 0.55 54.5 1.26 54.5 L6.22 54.5 C6.93 54.5 7.48 56.16 7.48 58.19 C7.48 56.16 8.03 54.5
							 8.74 54.5 L13.7 54.5 C14.37 54.5 14.96 52.84 14.96 50.81 L0 50.81 Z" class="st5"/>
				<path d="M0 50.81 C0 52.84 0.55 54.5 1.26 54.5 L6.22 54.5 C6.93 54.5 7.48 56.16 7.48 58.19 C7.48 56.16 8.03 54.5
							 8.74 54.5 L13.7 54.5 C14.37 54.5 14.96 52.84 14.96 50.81" class="st6"/>
			</g>
			<g id="shape26-25" v:mID="26" v:groupContext="shape" transform="translate(176.75,36.8527) rotate(90)">
				<title>工作表.26</title>
				<path d="M0 50.81 C0 52.84 0.55 54.5 1.26 54.5 L6.22 54.5 C6.93 54.5 7.48 56.16 7.48 58.19 C7.48 56.16 8.03 54.5
							 8.74 54.5 L13.7 54.5 C14.37 54.5 14.96 52.84 14.96 50.81 L0 50.81 Z" class="st5"/>
				<path d="M0 50.81 C0 52.84 0.55 54.5 1.26 54.5 L6.22 54.5 C6.93 54.5 7.48 56.16 7.48 58.19 C7.48 56.16 8.03 54.5
							 8.74 54.5 L13.7 54.5 C14.37 54.5 14.96 52.84 14.96 50.81" class="st6"/>
			</g>
		</g>
	</g>
</svg>
