<?xml version="1.0" encoding="UTF-8" standalone="no"?>
<!DOCTYPE svg PUBLIC "-//W3C//DTD SVG 1.1//EN" "http://www.w3.org/Graphics/SVG/1.1/DTD/svg11.dtd">
<!-- 由 Microsoft Visio, SVG Export 產生 A00505.svg 頁-1 -->
<svg xmlns="http://www.w3.org/2000/svg" xmlns:xlink="http://www.w3.org/1999/xlink" xmlns:ev="http://www.w3.org/2001/xml-events"
		xmlns:v="http://schemas.microsoft.com/visio/2003/SVGExtensions/" width="3.41257in" height="0.484547in"
		viewBox="0 0 245.705 34.8874" xml:space="preserve" color-interpolation-filters="sRGB" class="st5">
	<v:documentProperties v:langID="1028" v:viewMarkup="false"/>

	<style type="text/css">
	<![CDATA[
		.st1 {fill:none;stroke:none;stroke-linecap:butt;stroke-width:0.75}
		.st2 {fill:#000000;font-family:新細明體;font-size:0.833336em}
		.st3 {fill:none}
		.st4 {stroke:#040000;stroke-linecap:round;stroke-linejoin:round;stroke-width:0.705463}
		.st5 {fill:none;fill-rule:evenodd;font-size:12px;overflow:visible;stroke-linecap:square;stroke-miterlimit:3}
	]]>
	</style>

	<g v:mID="0" v:index="1" v:groupContext="foregroundPage">
		<title>頁-1</title>
		<v:pageProperties v:drawingScale="0.0393701" v:pageScale="0.0393701" v:drawingUnits="24" v:shadowOffsetX="9"
				v:shadowOffsetY="-9"/>
		<g id="shape1-1" v:mID="1" v:groupContext="shape" transform="translate(60.0742,-20.5925)">
			<title>工作表.1</title>
			<desc>直語</desc>
			<v:textBlock v:margins="rect(0,0,0,0)" v:tabSpace="42.5197"/>
			<v:textRect cx="16.9311" cy="28.1149" width="33.87" height="13.5449"/>
			<rect x="0" y="21.3425" width="33.8622" height="13.5449" class="st1"/>
			<text x="10" y="31.23" class="st2" v:langID="1028"><v:paragraph/><v:tabList/>直語</text>		</g>
		<g id="shape2-4" v:mID="2" v:groupContext="shape" transform="translate(0.75,-10.0429)">
			<title>工作表.2</title>
			<desc>聖人有二種語</desc>
			<v:textBlock v:margins="rect(0,0,0,0)" v:tabSpace="42.5197"/>
			<v:textRect cx="33.8622" cy="28.1149" width="67.73" height="13.5449"/>
			<rect x="0" y="21.3425" width="67.7245" height="13.5449" class="st1"/>
			<text x="0" y="31.23" class="st2" v:langID="1028"><v:paragraph/><v:tabList/>聖人有二種語</text>		</g>
		<g id="shape3-7" v:mID="3" v:groupContext="shape" transform="translate(60.0734,-0.75)">
			<title>工作表.3</title>
			<desc>方便語</desc>
			<v:textBlock v:margins="rect(0,0,0,0)" v:tabSpace="42.5197"/>
			<v:textRect cx="22.5748" cy="28.1149" width="45.15" height="13.5449"/>
			<rect x="0" y="21.3425" width="45.1496" height="13.5449" class="st1"/>
			<text x="10" y="31.23" class="st2" v:langID="1028"><v:paragraph/><v:tabList/>方便語</text>		</g>
		<g id="shape4-10" v:mID="4" v:groupContext="shape" transform="translate(102.71,-0.75)">
			<title>工作表.4</title>
			<v:textBlock v:margins="rect(0,0,0,0)" v:tabSpace="42.5197"/>
			<v:textRect cx="5.64371" cy="28.1149" width="11.29" height="13.5449"/>
			<rect x="0" y="21.3425" width="11.2874" height="13.5449" class="st1"/>
			<text x="0" y="31.23" class="st2" v:langID="1028"><v:paragraph/><v:tabList/>－</text>		</g>
		<g id="shape5-13" v:mID="5" v:groupContext="shape" transform="translate(111.811,-0.75)">
			<title>工作表.5</title>
			<desc>為人說常說無常如對治悉檀</desc>
			<v:textBlock v:margins="rect(0,0,0,0)" v:tabSpace="42.5197"/>
			<v:textRect cx="66.572" cy="28.1149" width="133.15" height="13.5449"/>
			<rect x="0" y="21.3425" width="133.144" height="13.5449" class="st1"/>
			<text x="0" y="31.23" class="st2" v:langID="1028"><v:paragraph/><v:tabList/>為人說常說無常，如對治悉檀</text>		</g>
		<g id="shape12-16" v:mID="12" v:groupContext="shape" transform="translate(97.0075,7.52245) rotate(90)">
			<title>工作表.12</title>
			<path d="M0 28.9 C0 30.56 0.75 31.89 1.63 31.89 L8.25 31.89 C9.17 31.89 9.92 33.22 9.92 34.89 C9.92 33.22 10.67 31.89
						 11.55 31.89 L18.17 31.89 C19.09 31.89 19.84 30.56 19.84 28.9 L0 28.9 Z" class="st3"/>
			<path d="M0 28.9 C0 30.56 0.75 31.89 1.63 31.89 L8.25 31.89 C9.17 31.89 9.92 33.22 9.92 34.89 C9.92 33.22 10.67 31.89
						 11.55 31.89 L18.17 31.89 C19.09 31.89 19.84 30.56 19.84 28.9" class="st4"/>
		</g>
	</g>
</svg>
