<?xml version="1.0" encoding="UTF-8" standalone="no"?>
<!DOCTYPE svg PUBLIC "-//W3C//DTD SVG 1.1//EN" "http://www.w3.org/Graphics/SVG/1.1/DTD/svg11.dtd">
<!-- 由 Microsoft Visio, SVG Export 產生 A00602.svg 頁-1 -->
<svg xmlns="http://www.w3.org/2000/svg" xmlns:xlink="http://www.w3.org/1999/xlink" xmlns:ev="http://www.w3.org/2001/xml-events"
		xmlns:v="http://schemas.microsoft.com/visio/2003/SVGExtensions/" width="4.67241in" height="0.427529in"
		viewBox="0 0 336.413 30.7821" xml:space="preserve" color-interpolation-filters="sRGB" class="st6">
	<v:documentProperties v:langID="1028" v:viewMarkup="false"/>

	<style type="text/css">
	<![CDATA[
		.st1 {fill:none;stroke:none;stroke-linecap:butt;stroke-width:0.75}
		.st2 {fill:#000000;font-family:新細明體;font-size:0.833336em}
		.st3 {font-family:Times New Roman;font-size:1em}
		.st4 {fill:none}
		.st5 {stroke:#040000;stroke-linecap:round;stroke-linejoin:round;stroke-width:0.705463}
		.st6 {fill:none;fill-rule:evenodd;font-size:12px;overflow:visible;stroke-linecap:square;stroke-miterlimit:3}
	]]>
	</style>

	<g v:mID="0" v:index="1" v:groupContext="foregroundPage">
		<title>頁-1</title>
		<v:pageProperties v:drawingScale="0.0393701" v:pageScale="0.0393701" v:drawingUnits="24" v:shadowOffsetX="9"
				v:shadowOffsetY="-9"/>
		<g id="shape1-1" v:mID="1" v:groupContext="shape" transform="translate(32.258,-16.4872)">
			<title>工作表.1</title>
			<desc>福德門</desc>
			<v:textBlock v:margins="rect(0,0,0,0)" v:tabSpace="42.5197"/>
			<v:textRect cx="16.9311" cy="24.0097" width="33.87" height="13.5449"/>
			<rect x="0" y="17.2372" width="33.8622" height="13.5449" class="st1"/>
			<text x="0" y="27.12" class="st2" v:langID="1028"><v:paragraph/><v:tabList/>福德門</text>		</g>
		<g id="shape2-4" v:mID="2" v:groupContext="shape" transform="translate(64.069,-16.4872)">
			<title>工作表.2</title>
			<v:textBlock v:margins="rect(0,0,0,0)" v:tabSpace="42.5197"/>
			<v:textRect cx="5.64371" cy="24.0097" width="11.29" height="13.5449"/>
			<rect x="0" y="17.2372" width="11.2874" height="13.5449" class="st1"/>
			<text x="0" y="27.12" class="st2" v:langID="1028"><v:paragraph/><v:tabList/>－</text>		</g>
		<g id="shape3-7" v:mID="3" v:groupContext="shape" transform="translate(73.9902,-16.4872)">
			<title>工作表.3</title>
			<desc>施戒忍………得此遮一切罪</desc>
			<v:textBlock v:margins="rect(0,0,0,0)" v:tabSpace="42.5197"/>
			<v:textRect cx="61.5295" cy="24.0097" width="123.06" height="13.5449"/>
			<rect x="0" y="17.2372" width="123.059" height="13.5449" class="st1"/>
			<text x="-0" y="27.12" class="st2" v:langID="1028"><v:paragraph/><v:tabList/>施戒忍<tspan class="st3">………</tspan>得此遮一切罪</text>		</g>
		<g id="shape6-11" v:mID="6" v:groupContext="shape" transform="translate(0.75,-8.61163)">
			<title>工作表.6</title>
			<desc>六度</desc>
			<v:textBlock v:margins="rect(0,0,0,0)" v:tabSpace="42.5197"/>
			<v:textRect cx="11.2874" cy="24.0097" width="22.58" height="13.5449"/>
			<rect x="0" y="17.2372" width="22.5748" height="13.5449" class="st1"/>
			<text x="-0" y="27.12" class="st2" v:langID="1028"><v:paragraph/><v:tabList/>六度</text>		</g>
		<g id="shape8-14" v:mID="8" v:groupContext="shape" transform="translate(32.2589,-0.75)">
			<title>工作表.8</title>
			<desc>智慧門</desc>
			<v:textBlock v:margins="rect(0,0,0,0)" v:tabSpace="42.5197"/>
			<v:textRect cx="16.9311" cy="24.0097" width="33.87" height="13.5449"/>
			<rect x="0" y="17.2372" width="33.8622" height="13.5449" class="st1"/>
			<text x="0" y="27.12" class="st2" v:langID="1028"><v:paragraph/><v:tabList/>智慧門</text>		</g>
		<g id="shape9-17" v:mID="9" v:groupContext="shape" transform="translate(64.0698,-0.75)">
			<title>工作表.9</title>
			<v:textBlock v:margins="rect(0,0,0,0)" v:tabSpace="42.5197"/>
			<v:textRect cx="5.64371" cy="24.0097" width="11.29" height="13.5449"/>
			<rect x="0" y="17.2372" width="11.2874" height="13.5449" class="st1"/>
			<text x="0" y="27.12" class="st2" v:langID="1028"><v:paragraph/><v:tabList/>－</text>		</g>
		<g id="shape10-20" v:mID="10" v:groupContext="shape" transform="translate(73.9911,-0.75)">
			<title>工作表.10</title>
			<desc>由精進得禪定由禪定得智慧………得此等觀生死涅槃不二</desc>
			<v:textBlock v:margins="rect(0,0,0,0)" v:tabSpace="42.5197"/>
			<v:textRect cx="130.836" cy="24.0097" width="261.68" height="13.5449"/>
			<rect x="0" y="17.2372" width="261.672" height="13.5449" class="st1"/>
			<text x="-0" y="27.12" class="st2" v:langID="1028"><v:paragraph/><v:tabList/>由精進得禪定，由禪定得智慧<tspan class="st3">………</tspan>得此等觀生死涅槃不二</text>		</g>
		<g id="shape19-24" v:mID="19" v:groupContext="shape" transform="translate(54.3754,5.79094) rotate(90)">
			<title>工作表.19</title>
			<path d="M0 22.9 C0 25.09 0.72 26.84 1.64 26.84 L8.25 26.84 C9.17 26.84 9.92 28.59 9.92 30.78 C9.92 28.59 10.65 26.84
						 11.56 26.84 L18.17 26.84 C19.09 26.84 19.84 25.09 19.84 22.9 L0 22.9 Z" class="st4"/>
			<path d="M0 22.9 C0 25.09 0.72 26.84 1.64 26.84 L8.25 26.84 C9.17 26.84 9.92 28.59 9.92 30.78 C9.92 28.59 10.65 26.84
						 11.56 26.84 L18.17 26.84 C19.09 26.84 19.84 25.09 19.84 22.9" class="st5"/>
		</g>
	</g>
</svg>
