<?xml version="1.0" encoding="UTF-8" standalone="no"?>
<!DOCTYPE svg PUBLIC "-//W3C//DTD SVG 1.1//EN" "http://www.w3.org/Graphics/SVG/1.1/DTD/svg11.dtd">
<!-- 由 Microsoft Visio, SVG Export 產生 A01503.svg 頁-1 -->
<svg xmlns="http://www.w3.org/2000/svg" xmlns:xlink="http://www.w3.org/1999/xlink" xmlns:ev="http://www.w3.org/2001/xml-events"
		xmlns:v="http://schemas.microsoft.com/visio/2003/SVGExtensions/" width="4.92831in" height="0.40374in"
		viewBox="0 0 354.839 29.0693" xml:space="preserve" color-interpolation-filters="sRGB" class="st6">
	<v:documentProperties v:langID="1028" v:viewMarkup="false"/>

	<style type="text/css">
	<![CDATA[
		.st1 {fill:none;stroke:none;stroke-linecap:butt;stroke-width:0.75}
		.st2 {fill:#000000;font-family:新細明體;font-size:0.833336em}
		.st3 {font-size:1em}
		.st4 {fill:none}
		.st5 {stroke:#040000;stroke-linecap:round;stroke-linejoin:round;stroke-width:0.705463}
		.st6 {fill:none;fill-rule:evenodd;font-size:12px;overflow:visible;stroke-linecap:square;stroke-miterlimit:3}
	]]>
	</style>

	<g v:mID="0" v:index="1" v:groupContext="foregroundPage">
		<title>頁-1</title>
		<v:pageProperties v:drawingScale="0.0393701" v:pageScale="0.0393701" v:drawingUnits="24" v:shadowOffsetX="9"
				v:shadowOffsetY="-9"/>
		<g id="shape1-1" v:mID="1" v:groupContext="shape" transform="translate(110.686,-1.14094)">
			<title>工作表.1</title>
			<desc>一、實相無為無作以本願大悲故以精進力度脫一切 二、實相無為無作云何言與精進相異</desc>
			<v:textBlock v:margins="rect(0,0,0,0)" v:tabSpace="42.5197"/>
			<v:textRect cx="121.701" cy="15.6756" width="243.41" height="26.7874"/>
			<rect x="0" y="2.28187" width="243.402" height="26.7874" class="st1"/>
			<text x="0" y="12.04" class="st2" v:langID="1028"><v:paragraph v:spLine="-1.4"/><v:tabList/>一、實相無為無作，以本願大悲故，以精進力度脫一切<v:newlineChar/><tspan
						x="0" dy="1.453em" class="st3">二</tspan>、實相無為無作，云何言與精進相異</text>		</g>
		<g id="shape2-5" v:mID="2" v:groupContext="shape" transform="translate(0.75,-7.46938)">
			<title>工作表.2</title>
			<desc>實相慧與精進云何相應</desc>
			<v:textBlock v:margins="rect(0,0,0,0)" v:tabSpace="42.5197"/>
			<v:textRect cx="56.4371" cy="22.2968" width="112.88" height="13.5449"/>
			<rect x="0" y="15.5244" width="112.874" height="13.5449" class="st1"/>
			<text x="0" y="25.41" class="st2" v:langID="1028"><v:paragraph/><v:tabList/>實相慧與精進云何相應</text>		</g>
		<g id="shape13-8" v:mID="13" v:groupContext="shape" transform="translate(130.874,7.23539) rotate(90)">
			<title>工作表.13</title>
			<path d="M0 21.98 C0 23.96 0.62 25.53 1.35 25.53 L6.73 25.53 C7.46 25.53 8.08 27.14 8.08 29.07 C8.08 27.14 8.69 25.53
						 9.43 25.53 L14.81 25.53 C15.54 25.53 16.16 23.91 16.16 21.98 L0 21.98 Z" class="st4"/>
			<path d="M0 21.98 C0 23.96 0.62 25.53 1.35 25.53 L6.73 25.53 C7.46 25.53 8.08 27.14 8.08 29.07 C8.08 27.14 8.69 25.53
						 9.43 25.53 L14.81 25.53 C15.54 25.53 16.16 23.91 16.16 21.98" class="st5"/>
		</g>
	</g>
</svg>
