<?xml version="1.0" encoding="UTF-8" standalone="no"?>
<!DOCTYPE svg PUBLIC "-//W3C//DTD SVG 1.1//EN" "http://www.w3.org/Graphics/SVG/1.1/DTD/svg11.dtd">
<!-- 由 Microsoft Visio, SVG Export 產生 A00604.svg 頁-1 -->
<svg xmlns="http://www.w3.org/2000/svg" xmlns:xlink="http://www.w3.org/1999/xlink" xmlns:ev="http://www.w3.org/2001/xml-events"
		xmlns:v="http://schemas.microsoft.com/visio/2003/SVGExtensions/" width="4.1574in" height="1.29163in"
		viewBox="0 0 299.333 92.9976" xml:space="preserve" color-interpolation-filters="sRGB" class="st6">
	<v:documentProperties v:langID="1028" v:viewMarkup="false"/>

	<style type="text/css">
	<![CDATA[
		.st1 {fill:none;stroke:none;stroke-linecap:butt;stroke-width:0.75}
		.st2 {fill:#000000;font-family:新細明體;font-size:0.833336em}
		.st3 {fill:none}
		.st4 {stroke:#040000;stroke-linecap:round;stroke-linejoin:round;stroke-width:0.705463}
		.st5 {stroke:#040000;stroke-dasharray:0,1.41093;stroke-linecap:round;stroke-linejoin:round;stroke-width:0.470309}
		.st6 {fill:none;fill-rule:evenodd;font-size:12px;overflow:visible;stroke-linecap:square;stroke-miterlimit:3}
	]]>
	</style>

	<g v:mID="0" v:index="1" v:groupContext="foregroundPage">
		<title>頁-1</title>
		<v:pageProperties v:drawingScale="0.0393701" v:pageScale="0.0393701" v:drawingUnits="24" v:shadowOffsetX="9"
				v:shadowOffsetY="-9"/>
		<g id="shape2-1" v:mID="2" v:groupContext="shape" transform="translate(96.0856,-78.7027)">
			<title>工作表.2</title>
			<desc>愛多</desc>
			<v:textBlock v:margins="rect(0,0,0,0)" v:tabSpace="42.5197"/>
			<v:textRect cx="11.2874" cy="86.2252" width="22.58" height="13.5449"/>
			<rect x="0" y="79.4527" width="22.5748" height="13.5449" class="st1"/>
			<text x="-0" y="89.34" class="st2" v:langID="1028"><v:paragraph/><v:tabList/>愛多</text>		</g>
		<g id="shape3-4" v:mID="3" v:groupContext="shape" transform="translate(117.806,-78.7027)">
			<title>工作表.3</title>
			<v:textBlock v:margins="rect(0,0,0,0)" v:tabSpace="42.5197"/>
			<v:textRect cx="5.64371" cy="86.2252" width="11.29" height="13.5449"/>
			<rect x="0" y="79.4527" width="11.2874" height="13.5449" class="st1"/>
			<text x="-0" y="89.34" class="st2" v:langID="1028"><v:paragraph/><v:tabList/>－</text>		</g>
		<g id="shape4-7" v:mID="4" v:groupContext="shape" transform="translate(129.107,-78.7027)">
			<title>工作表.4</title>
			<desc>樂著於禪</desc>
			<v:textBlock v:margins="rect(0,0,0,0)" v:tabSpace="42.5197"/>
			<v:textRect cx="22.5748" cy="86.2252" width="45.15" height="13.5449"/>
			<rect x="0" y="79.4527" width="45.1496" height="13.5449" class="st1"/>
			<text x="0" y="89.34" class="st2" v:langID="1028"><v:paragraph/><v:tabList/>樂著於禪</text>		</g>
		<g id="shape5-10" v:mID="5" v:groupContext="shape" transform="translate(52.864,-65.5529)">
			<title>工作表.5</title>
			<desc>微</desc>
			<v:textBlock v:margins="rect(0,0,0,0)" v:tabSpace="42.5197"/>
			<v:textRect cx="11.2874" cy="86.2252" width="22.58" height="13.5449"/>
			<rect x="0" y="79.4527" width="22.5748" height="13.5449" class="st1"/>
			<text x="10" y="89.34" class="st2" v:langID="1028"><v:paragraph/><v:tabList/>微</text>		</g>
		<g id="shape6-13" v:mID="6" v:groupContext="shape" transform="translate(75.03,-65.5216)">
			<title>工作表.6</title>
			<v:textBlock v:margins="rect(0,0,0,0)" v:tabSpace="42.5197"/>
			<v:textRect cx="11.2874" cy="86.2252" width="22.58" height="13.5449"/>
			<rect x="0" y="79.4527" width="22.5748" height="13.5449" class="st1"/>
			<text x="0" y="89.34" class="st2" v:langID="1028"><v:paragraph/><v:tabList/>－ </text>		</g>
		<g id="shape7-16" v:mID="7" v:groupContext="shape" transform="translate(96.0851,-65.2723)">
			<title>工作表.7</title>
			<desc>慢多</desc>
			<v:textBlock v:margins="rect(0,0,0,0)" v:tabSpace="42.5197"/>
			<v:textRect cx="11.2874" cy="86.2252" width="22.58" height="13.5449"/>
			<rect x="0" y="79.4527" width="22.5748" height="13.5449" class="st1"/>
			<text x="0" y="89.34" class="st2" v:langID="1028"><v:paragraph/><v:tabList/>慢多</text>		</g>
		<g id="shape8-19" v:mID="8" v:groupContext="shape" transform="translate(117.807,-65.5529)">
			<title>工作表.8</title>
			<v:textBlock v:margins="rect(0,0,0,0)" v:tabSpace="42.5197"/>
			<v:textRect cx="5.64371" cy="86.2252" width="11.29" height="13.5449"/>
			<rect x="0" y="79.4527" width="11.2874" height="13.5449" class="st1"/>
			<text x="0" y="89.34" class="st2" v:langID="1028"><v:paragraph/><v:tabList/>－</text>		</g>
		<g id="shape9-22" v:mID="9" v:groupContext="shape" transform="translate(129.108,-65.2051)">
			<title>工作表.9</title>
			<desc>自謂已得</desc>
			<v:textBlock v:margins="rect(0,0,0,0)" v:tabSpace="42.5197"/>
			<v:textRect cx="22.5748" cy="86.2252" width="45.15" height="13.5449"/>
			<rect x="0" y="79.4527" width="45.1496" height="13.5449" class="st1"/>
			<text x="0" y="89.34" class="st2" v:langID="1028"><v:paragraph/><v:tabList/>自謂已得</text>		</g>
		<g id="shape10-25" v:mID="10" v:groupContext="shape" transform="translate(45.8996,-64.2629)">
			<title>工作表.10</title>
			<v:textBlock v:margins="rect(0,0,0,0)" v:tabSpace="42.5197"/>
			<rect x="0" y="79.4527" width="22.5748" height="13.5449" class="st1"/>
		</g>
		<g id="shape11-27" v:mID="11" v:groupContext="shape" transform="translate(87.7854,-51.8418)">
			<title>工作表.11</title>
			<desc>見多</desc>
			<v:textBlock v:margins="rect(0,0,0,0)" v:tabSpace="42.5197"/>
			<v:textRect cx="16.9311" cy="86.2252" width="33.87" height="13.5449"/>
			<rect x="0" y="79.4527" width="33.8622" height="13.5449" class="st1"/>
			<text x="10" y="89.34" class="st2" v:langID="1028"><v:paragraph/><v:tabList/>見多</text>		</g>
		<g id="shape12-30" v:mID="12" v:groupContext="shape" transform="translate(117.806,-52.4031)">
			<title>工作表.12</title>
			<v:textBlock v:margins="rect(0,0,0,0)" v:tabSpace="42.5197"/>
			<v:textRect cx="5.64371" cy="86.2252" width="11.29" height="13.5449"/>
			<rect x="0" y="79.4527" width="11.2874" height="13.5449" class="st1"/>
			<text x="-0" y="89.34" class="st2" v:langID="1028"><v:paragraph/><v:tabList/>－</text>		</g>
		<g id="shape13-33" v:mID="13" v:groupContext="shape" transform="translate(129.107,-51.6602)">
			<title>工作表.13</title>
			<desc>取相執實</desc>
			<v:textBlock v:margins="rect(0,0,0,0)" v:tabSpace="42.5197"/>
			<v:textRect cx="22.5748" cy="86.2252" width="45.15" height="13.5449"/>
			<rect x="0" y="79.4527" width="45.1496" height="13.5449" class="st1"/>
			<text x="0" y="89.34" class="st2" v:langID="1028"><v:paragraph/><v:tabList/>取相執實</text>		</g>
		<g id="shape14-36" v:mID="14" v:groupContext="shape" transform="translate(33.6717,-51.0565)">
			<title>工作表.14</title>
			<desc>亂</desc>
			<v:textBlock v:margins="rect(0,0,0,0)" v:tabSpace="42.5197"/>
			<v:textRect cx="5.64371" cy="86.2252" width="11.29" height="13.5449"/>
			<rect x="0" y="79.4527" width="11.2874" height="13.5449" class="st1"/>
			<text x="0" y="89.34" class="st2" v:langID="1028"><v:paragraph/><v:tabList/>亂</text>		</g>
		<g id="shape15-39" v:mID="15" v:groupContext="shape" transform="translate(86.215,-38.4114)">
			<title>工作表.15</title>
			<desc>貪</desc>
			<v:textBlock v:margins="rect(0,0,0,0)" v:tabSpace="42.5197"/>
			<v:textRect cx="11.2874" cy="86.2252" width="22.58" height="13.5449"/>
			<rect x="0" y="79.4527" width="22.5748" height="13.5449" class="st1"/>
			<text x="10" y="89.34" class="st2" v:langID="1028"><v:paragraph/><v:tabList/>貪</text>		</g>
		<g id="shape16-42" v:mID="16" v:groupContext="shape" transform="translate(196.996,-44.687)">
			<title>工作表.16</title>
			<desc>不亂不味名禪波羅蜜</desc>
			<v:textBlock v:margins="rect(0,0,0,0)" v:tabSpace="42.5197"/>
			<v:textRect cx="50.7933" cy="86.2252" width="101.59" height="13.5449"/>
			<rect x="0" y="79.4527" width="101.587" height="13.5449" class="st1"/>
			<text x="-0" y="89.34" class="st2" v:langID="1028"><v:paragraph/><v:tabList/>不亂不味名禪波羅蜜</text>		</g>
		<g id="shape17-45" v:mID="17" v:groupContext="shape" transform="translate(0.75,-26.2618)">
			<title>工作表.17</title>
			<desc>禪障</desc>
			<v:textBlock v:margins="rect(0,0,0,0)" v:tabSpace="42.5197"/>
			<v:textRect cx="11.2874" cy="86.2252" width="22.58" height="13.5449"/>
			<rect x="0" y="79.4527" width="22.5748" height="13.5449" class="st1"/>
			<text x="0" y="89.34" class="st2" v:langID="1028"><v:paragraph/><v:tabList/>禪障</text>		</g>
		<g id="shape18-48" v:mID="18" v:groupContext="shape" transform="translate(52.8636,-24.7569)">
			<title>工作表.18</title>
			<desc>粗</desc>
			<v:textBlock v:margins="rect(0,0,0,0)" v:tabSpace="42.5197"/>
			<v:textRect cx="11.2874" cy="86.2252" width="22.58" height="13.5449"/>
			<rect x="0" y="79.4527" width="22.5748" height="13.5449" class="st1"/>
			<text x="10" y="89.34" class="st2" v:langID="1028"><v:paragraph/><v:tabList/>粗</text>		</g>
		<g id="shape19-51" v:mID="19" v:groupContext="shape" transform="translate(75.0295,-24.7257)">
			<title>工作表.19</title>
			<v:textBlock v:margins="rect(0,0,0,0)" v:tabSpace="42.5197"/>
			<v:textRect cx="5.64371" cy="86.2252" width="11.29" height="13.5449"/>
			<rect x="0" y="79.4527" width="11.2874" height="13.5449" class="st1"/>
			<text x="-0" y="89.34" class="st2" v:langID="1028"><v:paragraph/><v:tabList/>－</text>		</g>
		<g id="shape20-54" v:mID="20" v:groupContext="shape" transform="translate(86.2146,-24.981)">
			<title>工作表.20</title>
			<desc>瞋</desc>
			<v:textBlock v:margins="rect(0,0,0,0)" v:tabSpace="42.5197"/>
			<v:textRect cx="11.2874" cy="86.2252" width="22.58" height="13.5449"/>
			<rect x="0" y="79.4527" width="22.5748" height="13.5449" class="st1"/>
			<text x="10" y="89.34" class="st2" v:langID="1028"><v:paragraph/><v:tabList/>瞋</text>		</g>
		<g id="shape21-57" v:mID="21" v:groupContext="shape" transform="translate(86.2155,-11.5506)">
			<title>工作表.21</title>
			<desc>癡</desc>
			<v:textBlock v:margins="rect(0,0,0,0)" v:tabSpace="42.5197"/>
			<v:textRect cx="11.2874" cy="86.2252" width="22.58" height="13.5449"/>
			<rect x="0" y="79.4527" width="22.5748" height="13.5449" class="st1"/>
			<text x="10" y="89.34" class="st2" v:langID="1028"><v:paragraph/><v:tabList/>癡</text>		</g>
		<g id="shape23-60" v:mID="23" v:groupContext="shape" transform="translate(45.1122,-0.820202)">
			<title>工作表.23</title>
			<v:textBlock v:margins="rect(0,0,0,0)" v:tabSpace="42.5197"/>
			<v:textRect cx="22.5748" cy="86.2252" width="45.15" height="13.5449"/>
			<rect x="0" y="79.4527" width="45.1496" height="13.5449" class="st1"/>
			<text x="0" y="89.34" class="st2" v:langID="1028"><v:paragraph/><v:tabList/>－－－－</text>		</g>
		<g id="shape24-63" v:mID="24" v:groupContext="shape" transform="translate(86.4193,-0.820202)">
			<title>工作表.24</title>
			<desc>一心愛樂</desc>
			<v:textBlock v:margins="rect(0,0,0,0)" v:tabSpace="42.5197"/>
			<v:textRect cx="22.5748" cy="86.2252" width="45.15" height="13.5449"/>
			<rect x="0" y="79.4527" width="45.1496" height="13.5449" class="st1"/>
			<text x="-0" y="89.34" class="st2" v:langID="1028"><v:paragraph/><v:tabList/>一心愛樂</text>		</g>
		<g id="shape32-66" v:mID="32" v:groupContext="shape" transform="translate(179.444,6.24915) rotate(90)">
			<title>工作表.32</title>
			<path d="M0 86.14 C0 88.05 1.11 89.57 2.42 89.57 L12.25 89.57 C13.63 89.57 14.74 91.09 14.74 93 C14.74 91.09 15.85 89.57
						 17.16 89.57 L26.99 89.57 C28.37 89.57 29.48 88.05 29.48 86.14 L0 86.14 Z" class="st3"/>
			<path d="M0 86.14 C0 88.05 1.11 89.57 2.42 89.57 L12.25 89.57 C13.63 89.57 14.74 91.09 14.74 93 C14.74 91.09 15.85 89.57
						 17.16 89.57 L26.99 89.57 C28.37 89.57 29.48 88.05 29.48 86.14" class="st4"/>
		</g>
		<g id="shape33-69" v:mID="33" v:groupContext="shape" transform="translate(115.371,34.7657) rotate(90)">
			<title>工作表.33</title>
			<path d="M0 84.53 C0 86.88 1.84 88.76 4.25 88.76 L20.69 88.76 C23.03 88.76 24.94 90.65 24.94 93 C24.94 90.65 26.86 88.76
						 29.2 88.76 L46.77 88.76 C49.11 88.76 51.02 86.88 51.02 84.53 L0 84.53 Z" class="st3"/>
			<path d="M0 84.53 C0 86.88 1.84 88.76 4.25 88.76 L20.69 88.76 C23.03 88.76 24.94 90.65 24.94 93 C24.94 90.65 26.86 88.76
						 29.2 88.76 L46.77 88.76 C49.11 88.76 51.02 86.88 51.02 84.53" class="st4"/>
		</g>
		<g id="shape34-72" v:mID="34" v:groupContext="shape" transform="translate(78.051,8.41619) rotate(-34.0721)">
			<title>工作表.34</title>
			<path d="M0 93 L77.82 93" class="st5"/>
		</g>
		<g id="shape35-75" v:mID="35" v:groupContext="shape" transform="translate(247.918,-44.8059) rotate(55.5239)">
			<title>工作表.35</title>
			<path d="M0 93 L41.26 93" class="st5"/>
		</g>
		<g id="shape36-78" v:mID="36" v:groupContext="shape" transform="translate(124.504,-11.9952) rotate(58.7979)">
			<title>工作表.36</title>
			<path d="M0 93 L30.39 93" class="st5"/>
		</g>
		<g id="shape37-81" v:mID="37" v:groupContext="shape" transform="translate(-21.0933,-29.2816) rotate(-45.2561)">
			<title>工作表.37</title>
			<path d="M0 93 L21.95 93" class="st5"/>
		</g>
		<g id="shape38-84" v:mID="38" v:groupContext="shape" transform="translate(181.014,45.9342) rotate(90)">
			<title>工作表.38</title>
			<path d="M0 86.14 C0 88.05 1.11 89.57 2.42 89.57 L12.25 89.57 C13.63 89.57 14.74 91.09 14.74 93 C14.74 91.09 15.85 89.57
						 17.16 89.57 L26.99 89.57 C28.37 89.57 29.48 88.05 29.48 86.14 L0 86.14 Z" class="st3"/>
			<path d="M0 86.14 C0 88.05 1.11 89.57 2.42 89.57 L12.25 89.57 C13.63 89.57 14.74 91.09 14.74 93 C14.74 91.09 15.85 89.57
						 17.16 89.57 L26.99 89.57 C28.37 89.57 29.48 88.05 29.48 86.14" class="st4"/>
		</g>
		<g id="shape39-87" v:mID="39" v:groupContext="shape" transform="translate(33.6717,-0.75)">
			<title>工作表.39</title>
			<desc>味</desc>
			<v:textBlock v:margins="rect(0,0,0,0)" v:tabSpace="42.5197"/>
			<v:textRect cx="5.64371" cy="86.2252" width="11.29" height="13.5449"/>
			<rect x="0" y="79.4527" width="11.2874" height="13.5449" class="st1"/>
			<text x="0" y="89.34" class="st2" v:langID="1028"><v:paragraph/><v:tabList/>味</text>		</g>
	</g>
</svg>
