<?xml version="1.0" encoding="UTF-8" standalone="no"?>
<!DOCTYPE svg PUBLIC "-//W3C//DTD SVG 1.1//EN" "http://www.w3.org/Graphics/SVG/1.1/DTD/svg11.dtd">
<!-- 由 Microsoft Visio, SVG Export 產生 M017.103.svg 頁-1 -->
<svg xmlns="http://www.w3.org/2000/svg" xmlns:xlink="http://www.w3.org/1999/xlink" xmlns:ev="http://www.w3.org/2001/xml-events"
		xmlns:v="http://schemas.microsoft.com/visio/2003/SVGExtensions/" width="7.22861in" height="1.77127in"
		viewBox="0 0 520.46 127.531" xml:space="preserve" color-interpolation-filters="sRGB" class="st8">
	<v:documentProperties v:langID="1028" v:viewMarkup="false"/>

	<style type="text/css">
	<![CDATA[
		.st1 {stroke:#000000;stroke-linecap:round;stroke-linejoin:round;stroke-width:0.75}
		.st2 {fill:none;stroke:none;stroke-linecap:round;stroke-linejoin:round;stroke-width:0.75}
		.st3 {fill:#000000;font-family:新細明體;font-size:0.833336em}
		.st4 {font-size:1em;font-weight:bold}
		.st5 {baseline-shift:32.4947%;font-family:Times New Roman;font-size:0.649894em;font-weight:bold}
		.st6 {font-size:1em}
		.st7 {fill:#0000ff;font-size:1em}
		.st8 {fill:none;fill-rule:evenodd;font-size:12px;overflow:visible;stroke-linecap:square;stroke-miterlimit:3}
	]]>
	</style>

	<g v:mID="0" v:index="1" v:groupContext="foregroundPage">
		<title>頁-1</title>
		<v:pageProperties v:drawingScale="0.0393701" v:pageScale="0.0393701" v:drawingUnits="24" v:shadowOffsetX="8.50394"
				v:shadowOffsetY="-8.50394"/>
		<g id="group143-1" transform="translate(0.375,-0.375)" v:mID="143" v:groupContext="group">
			<title>工作表.143</title>
			<g id="shape7-2" v:mID="7" v:groupContext="shape" transform="translate(213.227,23.6696) rotate(90)">
				<title>工作表.7</title>
				<path d="M0 127.53 L66.74 127.53" class="st1"/>
			</g>
			<g id="shape9-5" v:mID="9" v:groupContext="shape" transform="translate(85.4571,-103.862)">
				<title>工作表.9</title>
				<path d="M0 127.53 L8.12 127.53" class="st1"/>
			</g>
			<g id="shape13-8" v:mID="13" v:groupContext="shape" transform="translate(292.739,9.49637) rotate(90)">
				<title>工作表.13</title>
				<path d="M0 127.53 L28.35 127.53" class="st1"/>
			</g>
			<g id="shape14-11" v:mID="14" v:groupContext="shape" transform="translate(165.208,151.201) rotate(180)">
				<title>工作表.14</title>
				<path d="M0 127.53 L20.98 127.53" class="st1"/>
			</g>
			<g id="shape15-14" v:mID="15" v:groupContext="shape" transform="translate(165.208,-118.035)">
				<title>工作表.15</title>
				<path d="M0 127.53 L8.12 127.53" class="st1"/>
			</g>
			<g id="shape16-17" v:mID="16" v:groupContext="shape" transform="translate(165.208,-89.6886)">
				<title>工作表.16</title>
				<path d="M0 127.53 L8.12 127.53" class="st1"/>
			</g>
			<g id="shape17-20" v:mID="17" v:groupContext="shape" transform="translate(85.4571,-36.8224)">
				<title>工作表.17</title>
				<path d="M0 127.53 L9.61 127.53" class="st1"/>
			</g>
			<g id="shape19-23" v:mID="19" v:groupContext="shape" transform="translate(165.208,-22.3788)">
				<title>工作表.19</title>
				<path d="M8.86 99.18 L0 99.18 L0 127.53 L9.61 127.53" class="st1"/>
			</g>
			<g id="shape22-26" v:mID="22" v:groupContext="shape" transform="translate(165.208,218.511) rotate(180)">
				<title>工作表.22</title>
				<path d="M0 127.53 L20.98 127.53" class="st1"/>
			</g>
			<g id="shape29-29" v:mID="29" v:groupContext="shape" transform="translate(288.686,-22.3788)">
				<title>工作表.29</title>
				<path d="M0 127.53 L42.52 127.53" class="st1"/>
			</g>
			<g id="shape30-32" v:mID="30" v:groupContext="shape" transform="translate(288.686,-36.552)">
				<title>工作表.30</title>
				<path d="M0 127.53 L42.52 127.53" class="st1"/>
			</g>
			<g id="shape32-35" v:mID="32" v:groupContext="shape" transform="translate(288.686,-8.20555)">
				<title>工作表.32</title>
				<path d="M0 127.53 L42.52 127.53" class="st1"/>
			</g>
			<g id="shape33-38" v:mID="33" v:groupContext="shape" transform="translate(359.428,-29.3064) rotate(33.6901)">
				<title>工作表.33</title>
				<path d="M0 127.53 L51.1 127.53" class="st1"/>
			</g>
			<g id="shape35-41" v:mID="35" v:groupContext="shape" transform="translate(288.686,-89.6886)">
				<title>工作表.35</title>
				<path d="M0 127.53 L42.52 127.53" class="st1"/>
			</g>
			<g id="shape36-44" v:mID="36" v:groupContext="shape" transform="translate(288.686,-103.862)">
				<title>工作表.36</title>
				<path d="M0 127.53 L42.52 127.53" class="st1"/>
			</g>
			<g id="shape37-47" v:mID="37" v:groupContext="shape" transform="translate(359.428,-96.6162) rotate(33.6901)">
				<title>工作表.37</title>
				<path d="M0 127.53 L51.1 127.53" class="st1"/>
			</g>
			<g id="shape43-50" v:mID="43" v:groupContext="shape" transform="translate(288.686,-75.5153)">
				<title>工作表.43</title>
				<path d="M0 127.53 L42.52 127.53" class="st1"/>
			</g>
			<g id="shape45-53" v:mID="45" v:groupContext="shape" transform="translate(222.072,-22.3788)">
				<title>工作表.45</title>
				<path d="M0 127.53 L28.35 127.53" class="st1"/>
			</g>
			<g id="shape47-56" v:mID="47" v:groupContext="shape" transform="translate(222.072,-89.6886)">
				<title>工作表.47</title>
				<path d="M0 127.53 L28.35 127.53" class="st1"/>
			</g>
			<g id="shape48-59" v:mID="48" v:groupContext="shape" transform="translate(222.072,-118.035)">
				<title>工作表.48</title>
				<path d="M0 127.53 L28.35 127.53" class="st1"/>
			</g>
			<g id="shape51-62" v:mID="51" v:groupContext="shape" transform="translate(240.811,-8.20555)">
				<title>工作表.51</title>
				<path d="M0 113.36 L0 127.53 L9.61 127.53" class="st1"/>
			</g>
			<g id="shape52-65" v:mID="52" v:groupContext="shape" transform="translate(240.811,-36.552)">
				<title>工作表.52</title>
				<path d="M0 113.36 L0 127.53 L9.61 127.53" class="st1"/>
			</g>
			<g id="shape53-68" v:mID="53" v:groupContext="shape" transform="translate(240.811,-75.5153)">
				<title>工作表.53</title>
				<path d="M0 113.36 L0 127.53 L9.61 127.53" class="st1"/>
			</g>
			<g id="shape54-71" v:mID="54" v:groupContext="shape" transform="translate(240.811,-103.862)">
				<title>工作表.54</title>
				<path d="M0 113.36 L0 127.53 L9.61 127.53" class="st1"/>
			</g>
			<g id="shape57-74" v:mID="57" v:groupContext="shape" transform="translate(222.072,-50.7252)">
				<title>工作表.57</title>
				<path d="M0 127.53 L28.35 127.53" class="st1"/>
			</g>
			<g id="shape67-77" v:mID="67" v:groupContext="shape" transform="translate(331.206,-97.4838)">
				<title>工作表.67</title>
				<desc>二禪邊地漏無漏*初禪無漏及眷屬。</desc>
				<v:textBlock v:margins="rect(4,4,4,4)" v:tabSpace="42.5197"/>
				<v:textRect cx="87.874" cy="119.736" width="175.75" height="15.5906"/>
				<rect x="0" y="111.941" width="175.748" height="15.5906" class="st2"/>
				<text x="4" y="122.86" class="st3" v:langID="1033"><v:paragraph/><v:tabList/>二禪邊地<tspan class="st4">漏無漏</tspan><tspan
							dy="-0.198em" class="st5" v:langID="1028" v:baseFontSize="10">*</tspan><tspan dy="0.129em" class="st6">，</tspan>初禪無漏及眷屬。</text>			</g>
			<g id="shape68-83" v:mID="68" v:groupContext="shape" transform="translate(331.206,-81.8933)">
				<title>工作表.68</title>
				<desc>二禪邊地有漏。</desc>
				<v:textBlock v:margins="rect(4,4,4,4)" v:tabSpace="42.5197"/>
				<v:textRect cx="42.5197" cy="119.736" width="85.04" height="15.5906"/>
				<rect x="0" y="111.941" width="85.0393" height="15.5906" class="st2"/>
				<text x="4" y="122.85" class="st3" v:langID="1033"><v:paragraph/><v:tabList/>二禪邊地有漏。</text>			</g>
			<g id="shape69-86" v:mID="69" v:groupContext="shape" transform="translate(331.206,-57.3293)">
				<title>工作表.69</title>
				<desc>二禪邊地漏無漏初禪無漏及眷屬。 二禪淨無漏。</desc>
				<v:textBlock v:margins="rect(4,4,4,4)" v:tabSpace="42.5197"/>
				<v:textRect cx="94.252" cy="115.249" width="188.51" height="24.564"/>
				<rect x="0" y="102.967" width="188.504" height="24.564" class="st2"/>
				<text x="4" y="112.13" class="st3" v:langID="1033"><v:paragraph/><v:tabList/>二禪邊地（漏無漏），初禪無漏及眷屬<tspan class="st6"
							v:langID="1028">。<v:newlineChar/></tspan><tspan x="4" dy="1.246em" class="st6">二禪淨無漏</tspan>。</text>			</g>
			<g id="shape75-91" v:mID="75" v:groupContext="shape" transform="translate(331.206,-1.34273)">
				<title>工作表.75</title>
				<desc>初禪及眷漏無漏二禪淨、無漏。</desc>
				<v:textBlock v:margins="rect(4,4,4,4)" v:tabSpace="42.5197"/>
				<v:textRect cx="88.1575" cy="119.736" width="176.32" height="15.5906"/>
				<rect x="0" y="111.941" width="176.315" height="15.5906" class="st2"/>
				<text x="4" y="122.85" class="st3" v:langID="1033"><v:paragraph/><v:tabList/>初禪及眷<tspan class="st4">漏無漏</tspan>，二禪淨<tspan
							class="st7">、</tspan>無漏。</text>			</g>
			<g id="shape80-96" v:mID="80" v:groupContext="shape" transform="translate(331.206,-30.5097)">
				<title>工作表.80</title>
				<desc>初禪及眷漏無漏。</desc>
				<v:textBlock v:margins="rect(4,4,4,4)" v:tabSpace="42.5197"/>
				<v:textRect cx="52.7244" cy="119.736" width="105.45" height="15.5906"/>
				<rect x="0" y="111.941" width="105.449" height="15.5906" class="st2"/>
				<text x="4" y="122.85" class="st3" v:langID="1033"><v:paragraph/><v:tabList/>初禪及眷<tspan class="st4">漏無漏</tspan>。</text>			</g>
			<g id="shape81-100" v:mID="81" v:groupContext="shape" transform="translate(331.206,-14.9192)">
				<title>工作表.81</title>
				<desc>自地無漏道。</desc>
				<v:textBlock v:margins="rect(4,4,4,4)" v:tabSpace="42.5197"/>
				<v:textRect cx="37.4173" cy="119.736" width="74.84" height="15.5906"/>
				<rect x="0" y="111.941" width="74.8346" height="15.5906" class="st2"/>
				<text x="4" y="122.85" class="st3" v:langID="1033"><v:paragraph/><v:tabList/>自地無漏道。</text>			</g>
			<g id="shape93-103" v:mID="93" v:groupContext="shape" transform="translate(250.419,-109.084)">
				<title>工作表.93</title>
				<desc>現在修</desc>
				<v:textBlock v:margins="rect(4,4,4,4)" v:tabSpace="42.5197"/>
				<v:textRect cx="21.2598" cy="119.736" width="42.52" height="15.5906"/>
				<rect x="0" y="111.941" width="42.5197" height="15.5906" class="st2"/>
				<text x="4" y="122.85" class="st3" v:langID="1028"><v:paragraph/><v:tabList/>現在修</text>			</g>
			<g id="shape94-106" v:mID="94" v:groupContext="shape" transform="translate(250.419,-94.9103)">
				<title>工作表.94</title>
				<desc>未來修</desc>
				<v:textBlock v:margins="rect(4,4,4,4)" v:tabSpace="42.5197"/>
				<v:textRect cx="21.2598" cy="119.736" width="42.52" height="15.5906"/>
				<rect x="0" y="111.941" width="42.5197" height="15.5906" class="st2"/>
				<text x="4" y="122.85" class="st3" v:langID="1028"><v:paragraph/><v:tabList/>未來修</text>			</g>
			<g id="shape95-109" v:mID="95" v:groupContext="shape" transform="translate(250.419,-82.229)">
				<title>工作表.95</title>
				<desc>現　修</desc>
				<v:textBlock v:margins="rect(4,4,4,4)" v:tabSpace="42.5197"/>
				<v:textRect cx="21.2598" cy="119.736" width="42.52" height="15.5906"/>
				<rect x="0" y="111.941" width="42.5197" height="15.5906" class="st2"/>
				<text x="4" y="122.85" class="st3" v:langID="1028"><v:paragraph/><v:tabList/>現　修</text>			</g>
			<g id="shape96-112" v:mID="96" v:groupContext="shape" transform="translate(250.419,-68.0557)">
				<title>工作表.96</title>
				<desc>未來修</desc>
				<v:textBlock v:margins="rect(4,4,4,4)" v:tabSpace="42.5197"/>
				<v:textRect cx="21.2598" cy="119.736" width="42.52" height="15.5906"/>
				<rect x="0" y="111.941" width="42.5197" height="15.5906" class="st2"/>
				<text x="4" y="122.85" class="st3" v:langID="1028"><v:paragraph/><v:tabList/>未來修</text>			</g>
			<g id="shape97-115" v:mID="97" v:groupContext="shape" transform="translate(250.419,-43.2656)">
				<title>工作表.97</title>
				<desc>現　修</desc>
				<v:textBlock v:margins="rect(4,4,4,4)" v:tabSpace="42.5197"/>
				<v:textRect cx="21.2598" cy="119.736" width="42.52" height="15.5906"/>
				<rect x="0" y="111.941" width="42.5197" height="15.5906" class="st2"/>
				<text x="4" y="122.85" class="st3" v:langID="1028"><v:paragraph/><v:tabList/>現　修</text>			</g>
			<g id="shape98-118" v:mID="98" v:groupContext="shape" transform="translate(250.419,-29.0924)">
				<title>工作表.98</title>
				<desc>未來修</desc>
				<v:textBlock v:margins="rect(4,4,4,4)" v:tabSpace="42.5197"/>
				<v:textRect cx="21.2598" cy="119.736" width="42.52" height="15.5906"/>
				<rect x="0" y="111.941" width="42.5197" height="15.5906" class="st2"/>
				<text x="4" y="122.85" class="st3" v:langID="1028"><v:paragraph/><v:tabList/>未來修</text>			</g>
			<g id="shape99-121" v:mID="99" v:groupContext="shape" transform="translate(250.419,-14.1732)">
				<title>工作表.99</title>
				<desc>現在修</desc>
				<v:textBlock v:margins="rect(4,4,4,4)" v:tabSpace="42.5197"/>
				<v:textRect cx="21.2598" cy="119.736" width="42.52" height="15.5906"/>
				<rect x="0" y="111.941" width="42.5197" height="15.5906" class="st2"/>
				<text x="4" y="122.85" class="st3" v:langID="1028"><v:paragraph/><v:tabList/>現在修</text>			</g>
			<g id="shape100-124" v:mID="100" v:groupContext="shape" transform="translate(250.419,-2.84217E-14)">
				<title>工作表.100</title>
				<desc>未來修</desc>
				<v:textBlock v:margins="rect(4,4,4,4)" v:tabSpace="42.5197"/>
				<v:textRect cx="21.2598" cy="119.736" width="42.52" height="15.5906"/>
				<rect x="0" y="111.941" width="42.5197" height="15.5906" class="st2"/>
				<text x="4" y="122.85" class="st3" v:langID="1028"><v:paragraph/><v:tabList/>未來修</text>			</g>
			<g id="shape107-127" v:mID="107" v:groupContext="shape" transform="translate(177.053,-111.191)">
				<title>工作表.107</title>
				<desc>九無八解</desc>
				<v:textBlock v:margins="rect(4,4,4,4)" v:tabSpace="42.5197"/>
				<v:textRect cx="28.3465" cy="119.736" width="56.7" height="15.5906"/>
				<rect x="0" y="111.941" width="56.6929" height="15.5906" class="st2"/>
				<text x="4" y="122.85" class="st3" v:langID="1033"><v:paragraph/><v:tabList/>九無八解</text>			</g>
			<g id="shape108-130" v:mID="108" v:groupContext="shape" transform="translate(177.053,-80.9422)">
				<title>工作表.108</title>
				<desc>第九解脫</desc>
				<v:textBlock v:margins="rect(4,4,4,4)" v:tabSpace="42.5197"/>
				<v:textRect cx="28.3465" cy="119.736" width="56.7" height="15.5906"/>
				<rect x="0" y="111.941" width="56.6929" height="15.5906" class="st2"/>
				<text x="4" y="122.85" class="st3" v:langID="1033"><v:paragraph/><v:tabList/>第九解脫</text>			</g>
			<g id="shape109-133" v:mID="109" v:groupContext="shape" transform="translate(177.053,-43.8811)">
				<title>工作表.109</title>
				<desc>九無八解</desc>
				<v:textBlock v:margins="rect(4,4,4,4)" v:tabSpace="42.5197"/>
				<v:textRect cx="28.3465" cy="119.736" width="56.7" height="15.5906"/>
				<rect x="0" y="111.941" width="56.6929" height="15.5906" class="st2"/>
				<text x="4" y="122.85" class="st3" v:langID="1033"><v:paragraph/><v:tabList/>九無八解</text>			</g>
			<g id="shape110-136" v:mID="110" v:groupContext="shape" transform="translate(177.053,-13.6324)">
				<title>工作表.110</title>
				<desc>第九解脫</desc>
				<v:textBlock v:margins="rect(4,4,4,4)" v:tabSpace="42.5197"/>
				<v:textRect cx="28.3465" cy="119.736" width="56.7" height="15.5906"/>
				<rect x="0" y="111.941" width="56.6929" height="15.5906" class="st2"/>
				<text x="4" y="122.85" class="st3" v:langID="1033"><v:paragraph/><v:tabList/>第九解脫</text>			</g>
			<g id="shape117-139" v:mID="117" v:groupContext="shape" transform="translate(94.5131,-96.0665)">
				<title>工作表.117</title>
				<desc>依有漏道</desc>
				<v:textBlock v:margins="rect(4,4,4,4)" v:tabSpace="42.5197"/>
				<v:textRect cx="28.3465" cy="119.736" width="56.7" height="15.5906"/>
				<rect x="0" y="111.941" width="56.6929" height="15.5906" class="st2"/>
				<text x="4" y="122.85" class="st3" v:langID="1033"><v:paragraph/><v:tabList/>依有漏道</text>			</g>
			<g id="shape118-142" v:mID="118" v:groupContext="shape" transform="translate(94.5131,-28.7567)">
				<title>工作表.118</title>
				<desc>依無漏道</desc>
				<v:textBlock v:margins="rect(4,4,4,4)" v:tabSpace="42.5197"/>
				<v:textRect cx="28.3465" cy="119.736" width="56.7" height="15.5906"/>
				<rect x="0" y="111.941" width="56.6929" height="15.5906" class="st2"/>
				<text x="4" y="122.85" class="st3" v:langID="1033"><v:paragraph/><v:tabList/>依無漏道</text>			</g>
			<g id="shape123-145" v:mID="123" v:groupContext="shape" transform="translate(0,-67.7201)">
				<title>工作表.123</title>
				<desc>離初禪欲得二禪</desc>
				<v:textBlock v:margins="rect(4,4,4,4)" v:tabSpace="42.5197"/>
				<v:textRect cx="108.91" cy="119.736" width="217.83" height="15.5906"/>
				<rect x="0" y="111.941" width="217.82" height="15.5906" class="st2"/>
				<text x="4" y="122.85" class="st3" v:langID="1033"><v:paragraph/><v:tabList/>離初禪欲得二禪</text>			</g>
			<g id="shape129-148" v:mID="129" v:groupContext="shape" transform="translate(83.5475,-75.5153)">
				<title>工作表.129</title>
			</g>
			<g id="shape130-149" v:mID="130" v:groupContext="shape" transform="translate(76.0879,-75.5153)">
				<title>工作表.130</title>
				<path d="M0 127.53 L9.61 127.53" class="st1"/>
			</g>
			<g id="shape142-152" v:mID="142" v:groupContext="shape" transform="translate(94.513,-57.1388)">
				<title>工作表.142</title>
				<desc>至無所有同 依二地邊修</desc>
				<v:textBlock v:margins="rect(4,4,4,4)" v:tabSpace="42.5197"/>
				<v:textRect cx="42.5197" cy="115.249" width="85.04" height="24.564"/>
				<rect x="0" y="102.967" width="85.0393" height="24.564" class="st2"/>
				<text x="4" y="112.13" class="st3" v:langID="1033"><v:paragraph/><v:tabList/>（至無所有同）<v:newlineChar/><tspan x="4"
							dy="1.246em" class="st6">依二地邊修</tspan></text>			</g>
		</g>
	</g>
</svg>
