<?xml version="1.0" encoding="UTF-8" standalone="no"?>
<!DOCTYPE svg PUBLIC "-//W3C//DTD SVG 1.1//EN" "http://www.w3.org/Graphics/SVG/1.1/DTD/svg11.dtd">
<!-- 由 Microsoft Visio, SVG Export 產生 A02706.svg 頁-1 -->
<svg xmlns="http://www.w3.org/2000/svg" xmlns:xlink="http://www.w3.org/1999/xlink" xmlns:ev="http://www.w3.org/2001/xml-events"
		xmlns:v="http://schemas.microsoft.com/visio/2003/SVGExtensions/" width="3.52668in" height="0.819194in"
		viewBox="0 0 253.921 58.9819" xml:space="preserve" color-interpolation-filters="sRGB" class="st6">
	<v:documentProperties v:langID="1028" v:viewMarkup="false"/>

	<style type="text/css">
	<![CDATA[
		.st1 {fill:none;stroke:none;stroke-linecap:butt;stroke-width:0.75}
		.st2 {fill:#000000;font-family:新細明體;font-size:0.833336em}
		.st3 {font-size:1em}
		.st4 {stroke:#040000;stroke-linecap:round;stroke-linejoin:round;stroke-width:0.705463}
		.st5 {fill:none}
		.st6 {fill:none;fill-rule:evenodd;font-size:12px;overflow:visible;stroke-linecap:square;stroke-miterlimit:3}
	]]>
	</style>

	<g v:mID="0" v:index="1" v:groupContext="foregroundPage">
		<title>頁-1</title>
		<v:pageProperties v:drawingScale="0.0393701" v:pageScale="0.0393701" v:drawingUnits="24" v:shadowOffsetX="9"
				v:shadowOffsetY="-9"/>
		<g id="shape2-1" v:mID="2" v:groupContext="shape" transform="translate(101.155,-30.5473)">
			<title>工作表.2</title>
			<desc>外道禪不知實相著味 二乘禪無悲心不能盡行</desc>
			<v:textBlock v:margins="rect(0,0,0,0)" v:tabSpace="42.5197"/>
			<v:textRect cx="62.0808" cy="45.3806" width="124.17" height="27.2028"/>
			<rect x="0" y="31.7792" width="124.162" height="27.2028" class="st1"/>
			<text x="0" y="41.75" class="st2" v:langID="1028"><v:paragraph v:spLine="-1.4"/><v:tabList/>外道禪：不知實相，著味<v:newlineChar/><tspan
						x="0" dy="1.453em" class="st3">二乘禪</tspan>：無悲心，不能盡行</text>		</g>
		<g id="shape4-5" v:mID="4" v:groupContext="shape" transform="translate(0.75,-26.5015)">
			<title>工作表.4</title>
			<desc>外、小、菩薩禪之別</desc>
			<v:textBlock v:margins="rect(0,0,0,0)" v:tabSpace="42.5197"/>
			<v:textRect cx="47.6923" cy="52.2095" width="95.39" height="13.5449"/>
			<rect x="0" y="45.437" width="95.3845" height="13.5449" class="st1"/>
			<text x="-0" y="55.84" class="st2" v:langID="1028"><v:paragraph v:spLine="-1.4"/><v:tabList/>外、小、菩薩禪之別</text>		</g>
		<g id="shape6-8" v:mID="6" v:groupContext="shape" transform="translate(100.878,-8.62425)">
			<title>工作表.6</title>
			<desc>菩薩禪</desc>
			<v:textBlock v:margins="rect(0,0,0,0)" v:tabSpace="42.5197"/>
			<v:textRect cx="16.9311" cy="52.2095" width="33.87" height="13.5449"/>
			<rect x="0" y="45.437" width="33.8622" height="13.5449" class="st1"/>
			<text x="0" y="55.84" class="st2" v:langID="1028"><v:paragraph v:spLine="-1.4"/><v:tabList/>菩薩禪</text>		</g>
		<g id="shape7-11" v:mID="7" v:groupContext="shape" transform="translate(141.178,-0.75)">
			<title>工作表.7</title>
			<desc>有悲心能盡行 知實相不著</desc>
			<v:textBlock v:margins="rect(0,0,0,0)" v:tabSpace="42.5197"/>
			<v:textRect cx="39.5059" cy="44.3083" width="79.02" height="29.3473"/>
			<rect x="0" y="29.6347" width="79.0119" height="29.3473" class="st1"/>
			<text x="0" y="40.67" class="st2" v:langID="1028"><v:paragraph v:spLine="-1.4"/><v:tabList/>有悲心，能盡行<v:newlineChar/><tspan
						x="0" dy="1.453em" class="st3">知實相</tspan>，不著</text>		</g>
		<g id="shape9-15" v:mID="9" v:groupContext="shape" transform="translate(230.596,-15.2374)">
			<title>工作表.9</title>
			<desc>不著</desc>
			<v:textBlock v:margins="rect(0,0,0,0)" v:tabSpace="42.5197"/>
			<v:textRect cx="11.2874" cy="52.2095" width="22.58" height="13.5449"/>
			<rect x="0" y="45.437" width="22.5748" height="13.5449" class="st1"/>
			<text x="0" y="55.84" class="st2" v:langID="1028"><v:paragraph v:spLine="-1.4"/><v:tabList/>不著</text>		</g>
		<g id="shape22-18" v:mID="22" v:groupContext="shape" transform="translate(212.693,-50.3563)">
			<title>工作表.22</title>
			<path d="M0 58.98 L16.2 58.98" class="st4"/>
		</g>
		<g id="shape26-21" v:mID="26" v:groupContext="shape" transform="translate(191.875,36.6531) rotate(90)">
			<title>工作表.26</title>
			<path d="M0 52.45 C0 54.25 0 55.74 0 55.74 L7.53 55.74 C7.53 55.74 7.53 57.18 7.53 58.98 C7.53 57.18 7.53 55.74 7.53
						 55.74 L15.07 55.74 C15.07 55.74 15.07 54.25 15.07 52.45 L0 52.45 Z" class="st5"/>
			<path d="M0 52.45 C0 54.25 0 55.74 0 55.74 L7.53 55.74 C7.53 55.74 7.53 57.18 7.53 58.98 C7.53 57.18 7.53 55.74 7.53
						 55.74 L15.07 55.74 C15.07 55.74 15.07 54.25 15.07 52.45" class="st4"/>
		</g>
		<g id="shape27-24" v:mID="27" v:groupContext="shape" transform="translate(151.203,8.05869) rotate(90)">
			<title>工作表.27</title>
			<path d="M0 52.45 C0 54.25 0 55.74 0 55.74 L18.43 55.74 C18.43 55.74 18.43 57.18 18.43 58.98 C18.43 57.18 18.43 55.74
						 18.43 55.74 L36.85 55.74 C36.85 55.74 36.85 54.25 36.85 52.45 L0 52.45 Z" class="st5"/>
			<path d="M0 52.45 C0 54.25 0 55.74 0 55.74 L18.43 55.74 C18.43 55.74 18.43 57.18 18.43 58.98 C18.43 57.18 18.43 55.74
						 18.43 55.74 L36.85 55.74 C36.85 55.74 36.85 54.25 36.85 52.45" class="st4"/>
		</g>
		<g id="shape28-27" v:mID="28" v:groupContext="shape" transform="translate(170.163,22.7989) rotate(-90) scale(-1,1)">
			<title>工作表.28</title>
			<path d="M0 52.45 C0 54.25 0 55.74 0 55.74 L14.6 55.74 C14.6 55.74 14.6 57.18 14.6 58.98 C14.6 57.18 14.6 55.74 14.6
						 55.74 L29.2 55.74 C29.2 55.74 29.2 54.25 29.2 52.45 L0 52.45 Z" class="st5"/>
			<path d="M0 52.45 C0 54.25 0 55.74 0 55.74 L14.6 55.74 C14.6 55.74 14.6 57.18 14.6 58.98 C14.6 57.18 14.6 55.74 14.6
						 55.74 L29.2 55.74 C29.2 55.74 29.2 54.25 29.2 52.45" class="st4"/>
		</g>
		<g id="shape29-30" v:mID="29" v:groupContext="shape" transform="translate(230.596,-44.687)">
			<title>工作表.29</title>
			<desc>著</desc>
			<v:textBlock v:margins="rect(0,0,0,0)" v:tabSpace="42.5197"/>
			<v:textRect cx="11.2874" cy="52.2095" width="22.58" height="13.5449"/>
			<rect x="0" y="45.437" width="22.5748" height="13.5449" class="st1"/>
			<text x="0" y="55.84" class="st2" v:langID="1028"><v:paragraph v:spLine="-1.4"/><v:tabList/>著</text>		</g>
	</g>
</svg>
