<?xml version="1.0" encoding="UTF-8" standalone="no"?>
<!DOCTYPE svg PUBLIC "-//W3C//DTD SVG 1.1//EN" "http://www.w3.org/Graphics/SVG/1.1/DTD/svg11.dtd">
<!-- 由 Microsoft Visio, SVG Export 產生 A01507.svg 頁-1 -->
<svg xmlns="http://www.w3.org/2000/svg" xmlns:xlink="http://www.w3.org/1999/xlink" xmlns:ev="http://www.w3.org/2001/xml-events"
		xmlns:v="http://schemas.microsoft.com/visio/2003/SVGExtensions/" width="2.448in" height="0.605606in"
		viewBox="0 0 176.256 43.6036" xml:space="preserve" color-interpolation-filters="sRGB" class="st7">
	<v:documentProperties v:langID="1028" v:viewMarkup="false"/>

	<style type="text/css">
	<![CDATA[
		.st1 {fill:none;stroke:none;stroke-linecap:butt;stroke-width:0.75}
		.st2 {fill:#000000;font-family:新細明體;font-size:0.833336em}
		.st3 {font-size:1em}
		.st4 {font-family:Times New Roman;font-size:1em}
		.st5 {fill:none}
		.st6 {stroke:#040000;stroke-linecap:round;stroke-linejoin:round;stroke-width:0.705463}
		.st7 {fill:none;fill-rule:evenodd;font-size:12px;overflow:visible;stroke-linecap:square;stroke-miterlimit:3}
	]]>
	</style>

	<g v:mID="0" v:index="1" v:groupContext="foregroundPage">
		<title>頁-1</title>
		<v:pageProperties v:drawingScale="0.0393701" v:pageScale="0.0393701" v:drawingUnits="24" v:shadowOffsetX="9"
				v:shadowOffsetY="-9"/>
		<g id="shape1-1" v:mID="1" v:groupContext="shape" transform="translate(53.6161,-1.0546)">
			<title>工作表.1</title>
			<desc>無想天 無想定——凡夫滅心入此 滅盡定——佛弟子滅心入此</desc>
			<v:textBlock v:margins="rect(0,0,0,0)" v:tabSpace="42.5197"/>
			<v:textRect cx="60.9449" cy="22.8565" width="121.89" height="41.4944"/>
			<rect x="0" y="2.10928" width="121.89" height="41.4944" class="st1"/>
			<text x="0" y="11.96" class="st2" v:langID="1028"><v:paragraph v:spLine="-1.4"/><v:tabList/>無想天<v:newlineChar/><tspan
						x="0" dy="1.453em" class="st3">無想定</tspan><tspan class="st4">——</tspan>凡夫滅心入此<v:newlineChar/><tspan x="0"
						dy="1.453em" class="st3">滅盡定</tspan><tspan class="st4">——</tspan>佛弟子滅心入此</text>		</g>
		<g id="shape2-8" v:mID="2" v:groupContext="shape" transform="translate(0.75,-14.972)">
			<title>工作表.2</title>
			<desc>無想三種</desc>
			<v:textBlock v:margins="rect(0,0,0,0)" v:tabSpace="42.5197"/>
			<v:textRect cx="22.5748" cy="36.8312" width="45.15" height="13.5449"/>
			<rect x="0" y="30.0587" width="45.1496" height="13.5449" class="st1"/>
			<text x="-0" y="39.95" class="st2" v:langID="1028"><v:paragraph/><v:tabList/>無想三種</text>		</g>
		<g id="shape12-11" v:mID="12" v:groupContext="shape" transform="translate(85.8812,6.91998) rotate(90)">
			<title>工作表.12</title>
			<path d="M0 34.98 C0 37.37 1.11 39.29 2.51 39.29 L12.69 39.29 C14.1 39.29 15.21 41.21 15.21 43.6 C15.21 41.21 16.38 39.29
						 17.78 39.29 L27.9 39.29 C29.3 39.29 30.47 37.37 30.47 34.98 L0 34.98 Z" class="st5"/>
			<path d="M0 34.98 C0 37.37 1.11 39.29 2.51 39.29 L12.69 39.29 C14.1 39.29 15.21 41.21 15.21 43.6 C15.21 41.21 16.38 39.29
						 17.78 39.29 L27.9 39.29 C29.3 39.29 30.47 37.37 30.47 34.98" class="st6"/>
		</g>
	</g>
</svg>
