<?xml version="1.0" encoding="UTF-8" standalone="no"?>
<!DOCTYPE svg PUBLIC "-//W3C//DTD SVG 1.1//EN" "http://www.w3.org/Graphics/SVG/1.1/DTD/svg11.dtd">
<!-- 由 Microsoft Visio, SVG Export 產生 A02703.svg 頁-1 -->
<svg xmlns="http://www.w3.org/2000/svg" xmlns:xlink="http://www.w3.org/1999/xlink" xmlns:ev="http://www.w3.org/2001/xml-events"
		xmlns:v="http://schemas.microsoft.com/visio/2003/SVGExtensions/" width="4.0228in" height="0.866083in"
		viewBox="0 0 289.642 62.358" xml:space="preserve" color-interpolation-filters="sRGB" class="st6">
	<v:documentProperties v:langID="1028" v:viewMarkup="false"/>

	<style type="text/css">
	<![CDATA[
		.st1 {fill:none;stroke:none;stroke-linecap:butt;stroke-width:0.75}
		.st2 {fill:#000000;font-family:新細明體;font-size:0.833336em}
		.st3 {font-size:1em}
		.st4 {fill:none}
		.st5 {stroke:#040000;stroke-linecap:round;stroke-linejoin:round;stroke-width:0.705463}
		.st6 {fill:none;fill-rule:evenodd;font-size:12px;overflow:visible;stroke-linecap:square;stroke-miterlimit:3}
	]]>
	</style>

	<g v:mID="0" v:index="1" v:groupContext="foregroundPage">
		<title>頁-1</title>
		<v:pageProperties v:drawingScale="0.0393701" v:pageScale="0.0393701" v:drawingUnits="24" v:shadowOffsetX="9"
				v:shadowOffsetY="-9"/>
		<g id="shape1-1" v:mID="1" v:groupContext="shape" transform="translate(51.4657,-0.75)">
			<title>工作表.1</title>
			<desc>初禪離欲五欲不善五蓋法。 二禪離覺觀。 三禪離喜。 四禪憂喜先已除苦三禪樂動為苦樂今亦斷。</desc>
			<v:textBlock v:margins="rect(0,0,0,0)" v:tabSpace="42.5197"/>
			<v:textRect cx="118.713" cy="31.929" width="237.43" height="60.858"/>
			<rect x="0" y="1.5" width="237.426" height="60.858" class="st1"/>
			<text x="0" y="13.76" class="st2" v:langID="1028"><v:paragraph v:spLine="-1.4"/><v:tabList/>初禪：離欲（五欲）不善（五蓋）法。<v:newlineChar/><tspan
						x="0" dy="1.453em" class="st3">二禪</tspan>：離覺觀。<v:newlineChar/><tspan x="0" dy="1.453em" class="st3">三禪</tspan>：離喜。<v:newlineChar/><tspan
						x="0" dy="1.453em" class="st3">四禪</tspan>：憂喜先已除，苦（三禪樂動為苦）樂今亦斷。</text>		</g>
		<g id="shape2-7" v:mID="2" v:groupContext="shape" transform="translate(0.75,-25.7498)">
			<title>工作表.2</title>
			<desc>四禪所離</desc>
			<v:textBlock v:margins="rect(0,0,0,0)" v:tabSpace="42.5197"/>
			<v:textRect cx="22.5748" cy="55.5855" width="45.15" height="13.5449"/>
			<rect x="0" y="48.8131" width="45.1496" height="13.5449" class="st1"/>
			<text x="-0" y="59.22" class="st2" v:langID="1028"><v:paragraph v:spLine="-1.4"/><v:tabList/>四禪所離</text>		</g>
		<g id="shape34-10" v:mID="34" v:groupContext="shape" transform="translate(105.791,8.4319) rotate(90)">
			<title>工作表.34</title>
			<path d="M0 55.83 C0 57.63 0 59.12 0 59.12 L22.39 59.12 C22.39 59.12 22.39 60.56 22.39 62.36 C22.39 60.56 22.39 59.12
						 22.39 59.12 L44.79 59.12 C44.79 59.12 44.79 57.63 44.79 55.83 L0 55.83 Z" class="st4"/>
			<path d="M0 55.83 C0 57.63 0 59.12 0 59.12 L22.39 59.12 C22.39 59.12 22.39 60.56 22.39 62.36 C22.39 60.56 22.39 59.12
						 22.39 59.12 L44.79 59.12 C44.79 59.12 44.79 57.63 44.79 55.83" class="st5"/>
		</g>
	</g>
</svg>
