<?xml version="1.0" encoding="UTF-8" standalone="no"?>
<!DOCTYPE svg PUBLIC "-//W3C//DTD SVG 1.1//EN" "http://www.w3.org/Graphics/SVG/1.1/DTD/svg11.dtd">
<!-- 由 Microsoft Visio, SVG Export 產生 M017.101.svg 頁-1 -->
<svg xmlns="http://www.w3.org/2000/svg" xmlns:xlink="http://www.w3.org/1999/xlink" xmlns:ev="http://www.w3.org/2001/xml-events"
		width="3.3054in" height="0.396313in" viewBox="0 0 237.989 28.5345" xml:space="preserve" color-interpolation-filters="sRGB"
		class="st8">
	<style type="text/css">
	<![CDATA[
		.st1 {fill:none;stroke:none;stroke-linecap:butt;stroke-width:0.749999}
		.st2 {fill:#000000;font-family:新細明體;font-size:0.833336em}
		.st3 {font-family:Times New Roman;font-size:1em;letter-spacing:0.749998em}
		.st4 {font-size:1em}
		.st5 {fill:none;stroke:none;stroke-width:0.999999}
		.st6 {fill:none}
		.st7 {stroke:#040000;stroke-linecap:round;stroke-linejoin:round;stroke-width:0.705463}
		.st8 {fill:none;fill-rule:evenodd;font-size:12px;overflow:visible;stroke-linecap:square;stroke-miterlimit:3}
	]]>
	</style>

	<g>
		<title>頁-1</title>
		<g id="group6-1" transform="translate(0.749999,-1.23961)">
			<title>工作表.6</title>
			<g id="shape1-2" transform="translate(0,-6.99445)">
				<title>工作表.13</title>
				<desc>漏無漏定、離欲之別</desc>
				<rect x="0" y="14.9896" width="93.9684" height="13.5449" class="st1"/>
				<text x="-0" y="25.26" class="st2">漏無漏定離欲之別</text>			</g>
			<g id="shape2-5" transform="translate(89.7527,0)">
				<title>工作表.14</title>
				<desc>有漏定依上地邊離下地欲。 無漏定離自地欲及上地。</desc>
				<rect x="0" y="2.47943" width="146.736" height="26.0551" class="st1"/>
				<text x="-0" y="12.14" class="st2">有漏定：依上地邊，離下地欲。<tspan class="st3"> </tspan><tspan x="-0" dy="1.413em" class="st4">無漏定</tspan>：離自地欲及上地。</text>			</g>
			<g id="group3-10" transform="translate(109.674,8.32725) rotate(90)">
				<title>工作表.26</title>
				<g id="shape4-11">
					<title>工作表.4</title>
					<path d="M0 22 C0 23.8 0 25.29 0 25.29 L7.53 25.29 C7.53 25.29 7.53 26.73 7.53 28.53 C7.53 26.73 7.53 25.29 7.53
								 25.29 L15.07 25.29 C15.07 25.29 15.07 23.8 15.07 22 L0 22 Z" class="st5"/>
				</g>
				<g id="shape5-13">
					<title>工作表.5</title>
					<path d="M0 22 C0 23.8 0 25.29 0 25.29 L7.53 25.29 C7.53 25.29 7.53 26.73 7.53 28.53 C7.53 26.73 7.53 25.29 7.53
								 25.29 L15.07 25.29 C15.07 25.29 15.07 23.8 15.07 22 L0 22 Z" class="st6"/>
					<path d="M0 22 C0 23.8 0 25.29 0 25.29 L7.53 25.29 C7.53 25.29 7.53 26.73 7.53 28.53 C7.53 26.73 7.53 25.29 7.53
								 25.29 L15.07 25.29 C15.07 25.29 15.07 23.8 15.07 22" class="st7"/>
				</g>
			</g>
		</g>
	</g>
</svg>
