<?xml version="1.0" encoding="UTF-8" standalone="no"?>
<!DOCTYPE svg PUBLIC "-//W3C//DTD SVG 1.1//EN" "http://www.w3.org/Graphics/SVG/1.1/DTD/svg11.dtd">
<!-- 由 Microsoft Visio, SVG Export 產生 A01701.svg 頁-1 -->
<svg xmlns="http://www.w3.org/2000/svg" xmlns:xlink="http://www.w3.org/1999/xlink" xmlns:ev="http://www.w3.org/2001/xml-events"
		xmlns:v="http://schemas.microsoft.com/visio/2003/SVGExtensions/" width="2.75778in" height="0.605606in"
		viewBox="0 0 198.56 43.6036" xml:space="preserve" color-interpolation-filters="sRGB" class="st7">
	<v:documentProperties v:langID="1028" v:viewMarkup="false"/>

	<style type="text/css">
	<![CDATA[
		.st1 {fill:none;stroke:none;stroke-linecap:butt;stroke-width:0.75}
		.st2 {fill:#000000;font-family:新細明體;font-size:0.833336em}
		.st3 {font-family:Times New Roman;font-size:1em}
		.st4 {font-size:1em}
		.st5 {fill:none}
		.st6 {stroke:#040000;stroke-linecap:round;stroke-linejoin:round;stroke-width:0.705463}
		.st7 {fill:none;fill-rule:evenodd;font-size:12px;overflow:visible;stroke-linecap:square;stroke-miterlimit:3}
	]]>
	</style>

	<g v:mID="0" v:index="1" v:groupContext="foregroundPage">
		<title>頁-1</title>
		<v:pageProperties v:drawingScale="0.0393701" v:pageScale="0.0393701" v:drawingUnits="24" v:shadowOffsetX="9"
				v:shadowOffsetY="-9"/>
		<g id="shape1-1" v:mID="1" v:groupContext="shape" transform="translate(35.6063,-0.869881)">
			<title>工作表.1</title>
			<desc>聖行—— 梵行 天行</desc>
			<v:textBlock v:margins="rect(0,0,0,0)" v:tabSpace="42.5197"/>
			<v:textRect cx="22.5748" cy="22.6715" width="45.15" height="41.8642"/>
			<rect x="0" y="1.73945" width="45.1496" height="41.8642" class="st1"/>
			<text x="0" y="11.77" class="st2" v:langID="1028"><v:paragraph v:spLine="-1.4"/><v:tabList/>聖行<tspan class="st3">——<v:newlineChar/></tspan><tspan
						x="0" dy="1.453em" class="st4">梵行<v:newlineChar/></tspan><tspan x="0" dy="1.453em" class="st4">天行</tspan></text>		</g>
		<g id="shape2-7" v:mID="2" v:groupContext="shape" transform="translate(75.061,-0.869881)">
			<title>工作表.2</title>
			<desc>行無行故不離三解脫門故 取眾生相故生後皆有失 若以無著心行此二行無咎</desc>
			<v:textBlock v:margins="rect(0,0,0,0)" v:tabSpace="42.5197"/>
			<v:textRect cx="61.3745" cy="22.6715" width="122.75" height="41.8642"/>
			<rect x="0" y="1.73945" width="122.749" height="41.8642" class="st1"/>
			<text x="-0" y="11.77" class="st2" v:langID="1028"><v:paragraph v:spLine="-1.4"/><v:tabList/>行無行故，不離三解脫門故<v:newlineChar/><tspan
						x="-0" dy="1.453em" class="st4">取眾生相故生</tspan>，後皆有失<v:newlineChar/><tspan x="-0" dy="1.453em" class="st4">若以無著心行此二行無咎</tspan></text>		</g>
		<g id="shape3-12" v:mID="3" v:groupContext="shape" transform="translate(0.75,-14.8991)">
			<title>工作表.3</title>
			<desc>三行</desc>
			<v:textBlock v:margins="rect(0,0,0,0)" v:tabSpace="42.5197"/>
			<v:textRect cx="12.6935" cy="36.8312" width="25.39" height="13.5449"/>
			<rect x="0" y="30.0587" width="25.3871" height="13.5449" class="st1"/>
			<text x="-0" y="39.95" class="st2" v:langID="1028"><v:paragraph/><v:tabList/>三行</text>		</g>
		<g id="shape15-15" v:mID="15" v:groupContext="shape" transform="translate(111.877,20.9955) rotate(90)">
			<title>工作表.15</title>
			<path d="M0 37.37 C0 39.1 0.55 40.49 1.28 40.49 L6.38 40.49 C7.1 40.49 7.65 41.91 7.65 43.6 C7.65 41.91 8.21 40.49 8.93
						 40.49 L14.03 40.49 C14.75 40.49 15.31 39.1 15.31 37.37 L0 37.37 Z" class="st5"/>
			<path d="M0 37.37 C0 39.1 0.55 40.49 1.28 40.49 L6.38 40.49 C7.1 40.49 7.65 41.91 7.65 43.6 C7.65 41.91 8.21 40.49 8.93
						 40.49 L14.03 40.49 C14.75 40.49 15.31 39.1 15.31 37.37" class="st6"/>
		</g>
		<g id="shape16-18" v:mID="16" v:groupContext="shape" transform="translate(75.598,-16.185) rotate(25.5732)">
			<title>工作表.16</title>
			<path d="M0 43.6 L12.75 43.6" class="st6"/>
		</g>
		<g id="shape17-21" v:mID="17" v:groupContext="shape" transform="translate(93.5187,64.2011) rotate(144.622)">
			<title>工作表.17</title>
			<path d="M0 43.6 L13.22 43.6" class="st6"/>
		</g>
		<g id="shape22-24" v:mID="22" v:groupContext="shape" transform="translate(66.0387,6.5034) rotate(90)">
			<title>工作表.22</title>
			<path d="M0 32.32 C0 35.45 1.13 37.96 2.6 37.96 L13.02 37.96 C14.5 37.96 15.63 40.53 15.63 43.6 C15.63 40.53 16.75 37.96
						 18.23 37.96 L28.65 37.96 C30.12 37.96 31.25 35.45 31.25 32.32 L0 32.32 Z" class="st5"/>
			<path d="M0 32.32 C0 35.45 1.13 37.96 2.6 37.96 L13.02 37.96 C14.5 37.96 15.63 40.53 15.63 43.6 C15.63 40.53 16.75 37.96
						 18.23 37.96 L28.65 37.96 C30.12 37.96 31.25 35.45 31.25 32.32" class="st6"/>
		</g>
	</g>
</svg>
