<?xml version="1.0" encoding="UTF-8" standalone="no"?>
<!DOCTYPE svg PUBLIC "-//W3C//DTD SVG 1.1//EN" "http://www.w3.org/Graphics/SVG/1.1/DTD/svg11.dtd">
<!-- 由 Microsoft Visio, SVG Export 產生 A00605.svg 頁-1 -->
<svg xmlns="http://www.w3.org/2000/svg" xmlns:xlink="http://www.w3.org/1999/xlink" xmlns:ev="http://www.w3.org/2001/xml-events"
		xmlns:v="http://schemas.microsoft.com/visio/2003/SVGExtensions/" width="4.24586in" height="0.591994in"
		viewBox="0 0 305.702 42.6236" xml:space="preserve" color-interpolation-filters="sRGB" class="st5">
	<v:documentProperties v:langID="1028" v:viewMarkup="false"/>

	<style type="text/css">
	<![CDATA[
		.st1 {fill:none;stroke:none;stroke-linecap:butt;stroke-width:0.75}
		.st2 {fill:#000000;font-family:新細明體;font-size:0.833336em}
		.st3 {fill:none}
		.st4 {stroke:#040000;stroke-linecap:round;stroke-linejoin:round;stroke-width:0.705463}
		.st5 {fill:none;fill-rule:evenodd;font-size:12px;overflow:visible;stroke-linecap:square;stroke-miterlimit:3}
	]]>
	</style>

	<g v:mID="0" v:index="1" v:groupContext="foregroundPage">
		<title>頁-1</title>
		<v:pageProperties v:drawingScale="0.0393701" v:pageScale="0.0393701" v:drawingUnits="24" v:shadowOffsetX="9"
				v:shadowOffsetY="-9"/>
		<g id="shape1-1" v:mID="1" v:groupContext="shape" transform="translate(51.2539,-28.3287)">
			<title>工作表.1</title>
			<desc>因緣覺</desc>
			<v:textBlock v:margins="rect(0,0,0,0)" v:tabSpace="42.5197"/>
			<v:textRect cx="22.5748" cy="35.8511" width="45.15" height="13.5449"/>
			<rect x="0" y="29.0787" width="45.1496" height="13.5449" class="st1"/>
			<text x="10" y="38.97" class="st2" v:langID="1028"><v:paragraph/><v:tabList/>因緣覺</text>		</g>
		<g id="shape2-4" v:mID="2" v:groupContext="shape" transform="translate(0.75,-17.3043)">
			<title>工作表.2</title>
			<desc>辟支佛有二</desc>
			<v:textBlock v:margins="rect(0,0,0,0)" v:tabSpace="42.5197"/>
			<v:textRect cx="26.4331" cy="35.8511" width="52.87" height="13.5449"/>
			<rect x="0" y="29.0787" width="52.8661" height="13.5449" class="st1"/>
			<text x="0" y="38.97" class="st2" v:langID="1028"><v:paragraph/><v:tabList/>辟支佛有二</text>		</g>
		<g id="shape4-7" v:mID="4" v:groupContext="shape" transform="translate(100.777,-14.1554)">
			<title>工作表.4</title>
			<desc>本是學人七生滿已出無佛世名小辟支迦</desc>
			<v:textBlock v:margins="rect(0,0,0,0)" v:tabSpace="42.5197"/>
			<v:textRect cx="102.088" cy="35.8511" width="204.18" height="13.5449"/>
			<rect x="0" y="29.0787" width="204.175" height="13.5449" class="st1"/>
			<text x="0" y="38.97" class="st2" v:langID="1028"><v:paragraph/><v:tabList/>本是學人，七生滿已，出無佛世，名小辟支迦</text>		</g>
		<g id="shape5-10" v:mID="5" v:groupContext="shape" transform="translate(51.2544,-7.38299)">
			<title>工作表.5</title>
			<desc>獨　覺</desc>
			<v:textBlock v:margins="rect(0,0,0,0)" v:tabSpace="42.5197"/>
			<v:textRect cx="22.5748" cy="35.8511" width="45.15" height="13.5449"/>
			<rect x="0" y="29.0787" width="45.1496" height="13.5449" class="st1"/>
			<text x="10" y="38.97" class="st2" v:langID="1028"><v:paragraph/><v:tabList/>獨　覺</text>		</g>
		<g id="shape6-13" v:mID="6" v:groupContext="shape" transform="translate(100.388,-0.75)">
			<title>工作表.6</title>
			<desc>百劫作功德少具相好</desc>
			<v:textBlock v:margins="rect(0,0,0,0)" v:tabSpace="42.5197"/>
			<v:textRect cx="56.4371" cy="35.8511" width="112.88" height="13.5449"/>
			<rect x="0" y="29.0787" width="112.874" height="13.5449" class="st1"/>
			<text x="-0" y="38.97" class="st2" v:langID="1028"><v:paragraph/><v:tabList/>百劫作功德，少具相好</text>		</g>
		<g id="shape7-16" v:mID="7" v:groupContext="shape" transform="translate(200.844,-0.75)">
			<title>工作表.7</title>
			<v:textBlock v:margins="rect(0,0,0,0)" v:tabSpace="42.5197"/>
			<v:textRect cx="22.5748" cy="35.8511" width="45.15" height="13.5449"/>
			<rect x="0" y="29.0787" width="45.1496" height="13.5449" class="st1"/>
			<text x="0" y="38.97" class="st2" v:langID="1028"><v:paragraph/><v:tabList/>－－－－</text>		</g>
		<g id="shape8-19" v:mID="8" v:groupContext="shape" transform="translate(241.742,-0.75)">
			<title>工作表.8</title>
			<desc>名大辟支迦</desc>
			<v:textBlock v:margins="rect(0,0,0,0)" v:tabSpace="42.5197"/>
			<v:textRect cx="28.2185" cy="35.8511" width="56.44" height="13.5449"/>
			<rect x="0" y="29.0787" width="56.4371" height="13.5449" class="st1"/>
			<text x="0" y="38.97" class="st2" v:langID="1028"><v:paragraph/><v:tabList/>名大辟支迦</text>		</g>
		<g id="shape15-22" v:mID="15" v:groupContext="shape" transform="translate(96.0266,6.77645) rotate(90)">
			<title>工作表.15</title>
			<path d="M0 36.74 C0 38.38 0.86 39.68 1.91 39.68 L9.47 39.68 C10.48 39.68 11.34 40.99 11.34 42.62 C11.34 40.99 12.2 39.68
						 13.25 39.68 L20.81 39.68 C21.82 39.68 22.68 38.38 22.68 36.74 L0 36.74 Z" class="st3"/>
			<path d="M0 36.74 C0 38.38 0.86 39.68 1.91 39.68 L9.47 39.68 C10.48 39.68 11.34 40.99 11.34 42.62 C11.34 40.99 12.2 39.68
						 13.25 39.68 L20.81 39.68 C21.82 39.68 22.68 38.38 22.68 36.74" class="st4"/>
		</g>
		<g id="shape16-25" v:mID="16" v:groupContext="shape" transform="translate(135.925,20.8453) rotate(90)">
			<title>工作表.16</title>
			<path d="M0 36.74 C0 38.4 0.57 39.68 1.26 39.68 L6.24 39.68 C6.92 39.68 7.49 41.02 7.49 42.62 C7.49 41.02 8.06 39.68
						 8.75 39.68 L13.77 39.68 C14.46 39.68 15.02 38.35 15.02 36.74 L0 36.74 Z" class="st3"/>
			<path d="M0 36.74 C0 38.4 0.57 39.68 1.26 39.68 L6.24 39.68 C6.92 39.68 7.49 41.02 7.49 42.62 C7.49 41.02 8.06 39.68
						 8.75 39.68 L13.77 39.68 C14.46 39.68 15.02 38.35 15.02 36.74" class="st4"/>
		</g>
	</g>
</svg>
