<?xml version="1.0" encoding="UTF-8" standalone="no"?>
<!DOCTYPE svg PUBLIC "-//W3C//DTD SVG 1.1//EN" "http://www.w3.org/Graphics/SVG/1.1/DTD/svg11.dtd">
<!-- 由 Microsoft Visio, SVG Export 產生 A00701.svg 頁-1 -->
<svg xmlns="http://www.w3.org/2000/svg" xmlns:xlink="http://www.w3.org/1999/xlink" xmlns:ev="http://www.w3.org/2001/xml-events"
		xmlns:v="http://schemas.microsoft.com/visio/2003/SVGExtensions/" width="3.3535in" height="0.421466in"
		viewBox="0 0 241.452 30.3455" xml:space="preserve" color-interpolation-filters="sRGB" class="st6">
	<v:documentProperties v:langID="1028" v:viewMarkup="false"/>

	<style type="text/css">
	<![CDATA[
		.st1 {fill:none;stroke:none;stroke-linecap:butt;stroke-width:0.75}
		.st2 {fill:#000000;font-family:新細明體;font-size:0.833336em}
		.st3 {font-family:Times New Roman;font-size:1em}
		.st4 {fill:none}
		.st5 {stroke:#040000;stroke-linecap:round;stroke-linejoin:round;stroke-width:0.705463}
		.st6 {fill:none;fill-rule:evenodd;font-size:12px;overflow:visible;stroke-linecap:square;stroke-miterlimit:3}
	]]>
	</style>

	<g v:mID="0" v:index="1" v:groupContext="foregroundPage">
		<title>頁-1</title>
		<v:pageProperties v:drawingScale="0.0393701" v:pageScale="0.0393701" v:drawingUnits="24" v:shadowOffsetX="9"
				v:shadowOffsetY="-9"/>
		<g id="shape1-1" v:mID="1" v:groupContext="shape" transform="translate(22.4346,-16.0506)">
			<title>工作表.1</title>
			<desc>可　得</desc>
			<v:textBlock v:margins="rect(0,0,0,0)" v:tabSpace="42.5197"/>
			<v:textRect cx="16.9311" cy="23.5731" width="33.87" height="13.5449"/>
			<rect x="0" y="16.8006" width="33.8622" height="13.5449" class="st1"/>
			<text x="0" y="26.69" class="st2" v:langID="1028"><v:paragraph/><v:tabList/>可　得</text>		</g>
		<g id="shape2-4" v:mID="2" v:groupContext="shape" transform="translate(53.6166,-16.0506)">
			<title>工作表.2</title>
			<v:textBlock v:margins="rect(0,0,0,0)" v:tabSpace="42.5197"/>
			<v:textRect cx="5.64371" cy="23.5731" width="11.29" height="13.5449"/>
			<rect x="0" y="16.8006" width="11.2874" height="13.5449" class="st1"/>
			<text x="0" y="26.69" class="st2" v:langID="1028"><v:paragraph/><v:tabList/>－</text>		</g>
		<g id="shape3-7" v:mID="3" v:groupContext="shape" transform="translate(65.5379,-16.0506)">
			<title>工作表.3</title>
			<desc>有罣礙……不應說諸法異相。</desc>
			<v:textBlock v:margins="rect(0,0,0,0)" v:tabSpace="42.5197"/>
			<v:textRect cx="67.7245" cy="23.5731" width="135.45" height="13.5449"/>
			<rect x="0" y="16.8006" width="135.449" height="13.5449" class="st1"/>
			<text x="-0" y="26.69" class="st2" v:langID="1028"><v:paragraph/><v:tabList/>有罣礙<tspan class="st3">……</tspan>不應說諸法異相。</text>		</g>
		<g id="shape6-11" v:mID="6" v:groupContext="shape" transform="translate(0.75,-9.27818)">
			<title>工作表.6</title>
			<desc>空</desc>
			<v:textBlock v:margins="rect(0,0,0,0)" v:tabSpace="42.5197"/>
			<v:textRect cx="5.64371" cy="23.5731" width="11.29" height="13.5449"/>
			<rect x="0" y="16.8006" width="11.2874" height="13.5449" class="st1"/>
			<text x="0" y="26.69" class="st2" v:langID="1028"><v:paragraph/><v:tabList/>空</text>		</g>
		<g id="shape8-14" v:mID="8" v:groupContext="shape" transform="translate(53.6157,-0.75)">
			<title>工作表.8</title>
			<v:textBlock v:margins="rect(0,0,0,0)" v:tabSpace="42.5197"/>
			<v:textRect cx="5.64371" cy="23.5731" width="11.29" height="13.5449"/>
			<rect x="0" y="16.8006" width="11.2874" height="13.5449" class="st1"/>
			<text x="0" y="26.69" class="st2" v:langID="1028"><v:paragraph/><v:tabList/>－</text>		</g>
		<g id="shape9-17" v:mID="9" v:groupContext="shape" transform="translate(65.537,-0.75)">
			<title>工作表.9</title>
			<desc>無罣礙……憐憫眾生還能分別諸法。</desc>
			<v:textBlock v:margins="rect(0,0,0,0)" v:tabSpace="42.5197"/>
			<v:textRect cx="87.5826" cy="23.5731" width="175.17" height="13.5449"/>
			<rect x="0" y="16.8006" width="175.165" height="13.5449" class="st1"/>
			<text x="0" y="26.69" class="st2" v:langID="1028"><v:paragraph/><v:tabList/>無罣礙<tspan class="st3">……</tspan>憐憫眾生，還能分別諸法。</text>		</g>
		<g id="shape18-21" v:mID="18" v:groupContext="shape" transform="translate(42.8588,5.79096) rotate(90)">
			<title>工作表.18</title>
			<path d="M0 21.74 C0 24.12 0.64 26 1.42 26 L7.09 26 C7.86 26 8.5 27.97 8.5 30.35 C8.5 27.97 9.14 26 9.92 26 L15.59 26
						 C16.37 26 17.01 24.12 17.01 21.74 L0 21.74 Z" class="st4"/>
			<path d="M0 21.74 C0 24.12 0.64 26 1.42 26 L7.09 26 C7.86 26 8.5 27.97 8.5 30.35 C8.5 27.97 9.14 26 9.92 26 L15.59 26
						 C16.37 26 17.01 24.12 17.01 21.74" class="st5"/>
		</g>
		<g id="shape24-24" v:mID="24" v:groupContext="shape" transform="translate(22.4346,-0.798483)">
			<title>工作表.24</title>
			<desc>不可得</desc>
			<v:textBlock v:margins="rect(0,0,0,0)" v:tabSpace="42.5197"/>
			<v:textRect cx="16.9311" cy="23.5731" width="33.87" height="13.5449"/>
			<rect x="0" y="16.8006" width="33.8622" height="13.5449" class="st1"/>
			<text x="0" y="26.69" class="st2" v:langID="1028"><v:paragraph/><v:tabList/>不可得</text>		</g>
	</g>
</svg>
