<?xml version="1.0" encoding="UTF-8" standalone="no"?>
<!DOCTYPE svg PUBLIC "-//W3C//DTD SVG 1.1//EN" "http://www.w3.org/Graphics/SVG/1.1/DTD/svg11.dtd">
<!-- 由 Microsoft Visio, SVG Export 產生 M018.248-2.svg 頁-1 -->
<svg xmlns="http://www.w3.org/2000/svg" xmlns:xlink="http://www.w3.org/1999/xlink" xmlns:ev="http://www.w3.org/2001/xml-events"
		width="5.04458in" height="0.685614in" viewBox="0 0 363.21 49.3642" xml:space="preserve" color-interpolation-filters="sRGB"
		class="st11">
	<style type="text/css">
	<![CDATA[
		.st1 {fill:none;stroke:none;stroke-linecap:round;stroke-linejoin:round;stroke-width:0.749999}
		.st2 {fill:none;stroke:none;stroke-linecap:butt;stroke-width:0.75}
		.st3 {fill:#000000;font-family:新細明體;font-size:0.833336em}
		.st4 {font-family:Times New Roman;font-size:1em}
		.st5 {stroke:#000000;stroke-linecap:round;stroke-linejoin:round;stroke-width:0.749999}
		.st6 {fill:#000001}
		.st7 {stroke:none;stroke-width:0.749999}
		.st8 {fill:#000000}
		.st9 {fill:none}
		.st10 {stroke:#000000;stroke-dasharray:0,3.75;stroke-linecap:round;stroke-linejoin:round;stroke-width:1.25}
		.st11 {fill:none;fill-rule:evenodd;font-size:12px;overflow:visible;stroke-linecap:square;stroke-miterlimit:3}
	]]>
	</style>

	<g>
		<title>頁-1</title>
		<g id="group28-1" transform="translate(0.375,-0.375)">
			<title>工作表.28</title>
			<g id="group3-2" transform="translate(0,-15.3071)">
				<title>工作表.68</title>
				<desc>善法後有過</desc>
				<g id="shape4-3">
					<title>工作表.4</title>
					<rect x="0" y="33.7736" width="62.3621" height="15.5906" class="st1"/>
				</g>
				<g id="shape5-5" transform="translate(4,-1.79419)">
					<title>工作表.5</title>
					<desc>善法後有過</desc>
					<rect x="0" y="37.3642" width="50.0002" height="12" class="st2"/>
					<text x="0" y="46.36" class="st3">善法後有過</text>				</g>
			</g>
			<g id="group6-8" transform="translate(90.7086,-33.0236)">
				<title>工作表.80</title>
				<desc>世間心行則有所得應捨</desc>
				<g id="shape7-9">
					<title>工作表.7</title>
					<rect x="0" y="33.7736" width="129.914" height="15.5906" class="st1"/>
				</g>
				<g id="shape8-11" transform="translate(4,-1.79419)">
					<title>工作表.8</title>
					<desc>世間心行則有所得應捨</desc>
					<rect x="0" y="37.3642" width="120" height="12" class="st2"/>
					<text x="-0" y="46.36" class="st3">世間心行則有所得（應捨）</text>				</g>
			</g>
			<g id="group9-14" transform="translate(93,-15.5345)">
				<title>工作表.81</title>
				<desc>無著心行則無所得　　菩薩無行而行因</desc>
				<g id="shape10-15">
					<title>工作表.10</title>
					<rect x="0" y="33.7736" width="74.2024" height="15.5906" class="st1"/>
				</g>
				<g id="shape11-17" transform="translate(1.31102,-1.79419)">
					<title>工作表.11</title>
					<desc>無著心行則無所得</desc>
					<rect x="0" y="37.3642" width="81.939" height="12" class="st2"/>
					<text x="0" y="46.36" class="st3">無著心行則無所得</text>				</g>
			</g>
			<g id="group12-20" transform="translate(169.704,7.10543E-15)">
				<title>工作表.200</title>
				<desc>煩惱不生如空清淨→無得而得實相果</desc>
				<g id="shape13-21">
					<title>工作表.13</title>
					<rect x="0" y="33.7736" width="192.756" height="15.5906" class="st1"/>
				</g>
				<g id="shape14-23" transform="translate(4,-1.68419)">
					<title>工作表.14</title>
					<desc>煩惱不生如空清淨→無得而得實相果</desc>
					<rect x="0" y="37.3642" width="180.001" height="12" class="st2"/>
					<text x="0" y="46.48" class="st3">煩惱不生如空清淨<tspan class="st4">→</tspan>無得而得（實相果）</text>				</g>
			</g>
			<g id="group15-27" transform="translate(59.5275,-24.1029)">
				<title>工作表.243</title>
				<g id="group16-28">
					<title>工作表.16</title>
					<g id="shape17-29">
						<title>工作表.17</title>
						<path d="M31.18 35.2 L26.3 37.41 L25.97 37.56 L0 49.36 L25.46 49.36 L31.18 49.36" class="st5"/>
						<path d="M21.44 34.83 L31.18 35.2 L25.1 42.71 C25.2 39.66 23.87 36.73 21.5 34.8 L21.44 34.83 Z" class="st6"/>
						<path d="M21.44 34.83 L31.18 35.2 L25.1 42.71 C25.2 39.66 23.87 36.73 21.5 34.8" class="st7"/>
					</g>
					<g id="group18-34" transform="translate(24.64,3.24837)">
						<title>mrkr5-23</title>
						<g id="shape19-35" transform="translate(6.54,92.2086) rotate(180)">
							<title>工作表.19</title>
							<path d="M6.54 49.36 L0 46.09 L6.48 42.84 C5.47 44.9 5.47 47.31 6.49 49.36 L6.54 49.36 Z" class="st8"/>
							<path d="M6.54 49.36 L0 46.09 L6.48 42.84 C5.47 44.9 5.47 47.31 6.49 49.36" class="st7"/>
						</g>
					</g>
				</g>
			</g>
			<g id="group20-38" transform="translate(178.583,-24.1029)">
				<title>工作表.244</title>
				<g id="group21-39">
					<title>工作表.21</title>
					<g id="shape22-40">
						<title>工作表.22</title>
						<path d="M0 49.36 L18.37 49.36 L25.08 49.36 L0 49.36 Z" class="st9"/>
						<path d="M0 49.36 L18.37 49.36 L25.08 49.36" class="st5"/>
					</g>
					<g id="group23-43" transform="translate(24.2625,3.24837)">
						<title>mrkr5-29</title>
						<g id="shape24-44" transform="translate(6.54,92.2086) rotate(180)">
							<title>工作表.24</title>
							<path d="M6.54 49.36 L0 46.09 L6.48 42.84 C5.47 44.9 5.47 47.31 6.49 49.36 L6.54 49.36 Z" class="st8"/>
							<path d="M6.54 49.36 L0 46.09 L6.48 42.84 C5.47 44.9 5.47 47.31 6.49 49.36" class="st7"/>
						</g>
					</g>
				</g>
			</g>
			<g id="group25-47" transform="translate(219.265,78.5348) rotate(170.134)">
				<title>工作表.7</title>
				<g id="shape26-48">
					<title>工作表.26</title>
					<path d="M0 49.36 L33.09 49.36 L0 49.36 Z" class="st9"/>
					<path d="M0 49.36 L33.09 49.36" class="st10"/>
				</g>
			</g>
			<g id="shape27-51" transform="translate(215.625,-17.6251)">
				<title>工作表.27</title>
				<desc>菩薩無行而行因</desc>
				<rect x="0" y="37.3642" width="90.4939" height="12" class="st2"/>
				<text x="-0" y="46.36" class="st3">菩薩無行而行（因）</text>			</g>
		</g>
	</g>
</svg>
