<?xml version="1.0" encoding="UTF-8" standalone="no"?>
<!DOCTYPE svg PUBLIC "-//W3C//DTD SVG 1.1//EN" "http://www.w3.org/Graphics/SVG/1.1/DTD/svg11.dtd">
<!-- 由 Microsoft Visio, SVG Export 產生 A01603.svg 頁-1 -->
<svg xmlns="http://www.w3.org/2000/svg" xmlns:xlink="http://www.w3.org/1999/xlink" xmlns:ev="http://www.w3.org/2001/xml-events"
		xmlns:v="http://schemas.microsoft.com/visio/2003/SVGExtensions/" width="3.43225in" height="0.642028in"
		viewBox="0 0 247.122 46.226" xml:space="preserve" color-interpolation-filters="sRGB" class="st7">
	<v:documentProperties v:langID="1028" v:viewMarkup="false"/>

	<style type="text/css">
	<![CDATA[
		.st1 {fill:none;stroke:none;stroke-linecap:butt;stroke-width:0.75}
		.st2 {fill:#000000;font-family:新細明體;font-size:0.833336em}
		.st3 {font-family:Times New Roman;font-size:1em}
		.st4 {font-size:1em}
		.st5 {fill:none}
		.st6 {stroke:#040000;stroke-linecap:round;stroke-linejoin:round;stroke-width:0.705463}
		.st7 {fill:none;fill-rule:evenodd;font-size:12px;overflow:visible;stroke-linecap:square;stroke-miterlimit:3}
	]]>
	</style>

	<g v:mID="0" v:index="1" v:groupContext="foregroundPage">
		<title>頁-1</title>
		<v:pageProperties v:drawingScale="0.0393701" v:pageScale="0.0393701" v:drawingUnits="24" v:shadowOffsetX="9"
				v:shadowOffsetY="-9"/>
		<g id="shape1-1" v:mID="1" v:groupContext="shape" transform="translate(83.0091,-15.7201)">
			<title>工作表.1</title>
			<desc>破常顛倒——說無常 破不信後世——說行業百千萬世不失</desc>
			<v:textBlock v:margins="rect(0,0,0,0)" v:tabSpace="42.5197"/>
			<v:textRect cx="81.6815" cy="31.3481" width="163.37" height="29.7558"/>
			<rect x="0" y="16.4701" width="163.363" height="29.7558" class="st1"/>
			<text x="-0" y="27.71" class="st2" v:langID="1028"><v:paragraph v:spLine="-1.4"/><v:tabList/>破常顛倒<tspan class="st3">——</tspan>說無常<v:newlineChar/><tspan
						x="-0" dy="1.453em" class="st4">破不信後世</tspan><tspan class="st3">——</tspan>說行業百千萬世不失</text>		</g>
		<g id="shape5-7" v:mID="5" v:groupContext="shape" transform="translate(31.7264,-22.9689)">
			<title>工作表.5</title>
			<desc>對治悉檀</desc>
			<v:textBlock v:margins="rect(0,0,0,0)" v:tabSpace="42.5197"/>
			<v:textRect cx="22.5748" cy="39.4535" width="45.15" height="13.5449"/>
			<rect x="0" y="32.6811" width="45.1496" height="13.5449" class="st1"/>
			<text x="0" y="42.57" class="st2" v:langID="1028"><v:paragraph/><v:tabList/>對治悉檀</text>		</g>
		<g id="shape6-10" v:mID="6" v:groupContext="shape" transform="translate(0.75,-12.9678)">
			<title>工作表.6</title>
			<desc>佛法</desc>
			<v:textBlock v:margins="rect(0,0,0,0)" v:tabSpace="42.5197"/>
			<v:textRect cx="11.2874" cy="39.4535" width="22.58" height="13.5449"/>
			<rect x="0" y="32.6811" width="22.5748" height="13.5449" class="st1"/>
			<text x="0" y="42.57" class="st2" v:langID="1028"><v:paragraph/><v:tabList/>佛法</text>		</g>
		<g id="shape10-13" v:mID="10" v:groupContext="shape" transform="translate(31.7256,-0.75)">
			<title>工作表.10</title>
			<desc>第一義悉檀——實相非常非無常</desc>
			<v:textBlock v:margins="rect(0,0,0,0)" v:tabSpace="42.5197"/>
			<v:textRect cx="71.1815" cy="39.4535" width="142.37" height="13.5449"/>
			<rect x="0" y="32.6811" width="142.363" height="13.5449" class="st1"/>
			<text x="0" y="42.57" class="st2" v:langID="1028"><v:paragraph/><v:tabList/>第一義悉檀<tspan class="st3">——</tspan>實相非常非無常</text>		</g>
		<g id="shape21-17" v:mID="21" v:groupContext="shape" transform="translate(119.685,8.21803) rotate(90)">
			<title>工作表.21</title>
			<path d="M0 38.66 C0 40.76 0.61 42.44 1.37 42.44 L6.77 42.44 C7.49 42.44 8.1 44.17 8.1 46.23 C8.1 44.17 8.71 42.44 9.47
						 42.44 L14.87 42.44 C15.59 42.44 16.2 40.76 16.2 38.66 L0 38.66 Z" class="st5"/>
			<path d="M0 38.66 C0 40.76 0.61 42.44 1.37 42.44 L6.77 42.44 C7.49 42.44 8.1 44.17 8.1 46.23 C8.1 44.17 8.71 42.44 9.47
						 42.44 L14.87 42.44 C15.59 42.44 16.2 40.76 16.2 38.66" class="st6"/>
		</g>
		<g id="shape29-20" v:mID="29" v:groupContext="shape" transform="translate(68.661,14.9232) rotate(90)">
			<title>工作表.29</title>
			<path d="M0 38.66 C0 40.76 0.91 42.44 2.03 42.44 L10.07 42.44 C11.14 42.44 12.05 44.17 12.05 46.23 C12.05 44.17 12.96
						 42.44 14.08 42.44 L22.11 42.44 C23.18 42.44 24.09 40.76 24.09 38.66 L0 38.66 Z" class="st5"/>
			<path d="M0 38.66 C0 40.76 0.91 42.44 2.03 42.44 L10.07 42.44 C11.14 42.44 12.05 44.17 12.05 46.23 C12.05 44.17 12.96
						 42.44 14.08 42.44 L22.11 42.44 C23.18 42.44 24.09 40.76 24.09 38.66" class="st6"/>
		</g>
	</g>
</svg>
