<?xml version="1.0" encoding="UTF-8" standalone="no"?>
<!DOCTYPE svg PUBLIC "-//W3C//DTD SVG 1.1//EN" "http://www.w3.org/Graphics/SVG/1.1/DTD/svg11.dtd">
<!-- 由 Microsoft Visio, SVG Export 產生 A03101.svg 頁-1 -->
<svg xmlns="http://www.w3.org/2000/svg" xmlns:xlink="http://www.w3.org/1999/xlink" xmlns:ev="http://www.w3.org/2001/xml-events"
		xmlns:v="http://schemas.microsoft.com/visio/2003/SVGExtensions/" width="5.62656in" height="2.04388in"
		viewBox="0 0 405.112 147.159" xml:space="preserve" color-interpolation-filters="sRGB" class="st4">
	<v:documentProperties v:langID="1028" v:viewMarkup="false"/>

	<style type="text/css">
	<![CDATA[
		.st1 {fill:none;stroke:none;stroke-linecap:round;stroke-linejoin:round;stroke-width:0.75}
		.st2 {fill:#000000;font-family:新細明體;font-size:0.833336em}
		.st3 {stroke:#000000;stroke-linecap:round;stroke-linejoin:round;stroke-width:0.75}
		.st4 {fill:none;fill-rule:evenodd;font-size:12px;overflow:visible;stroke-linecap:square;stroke-miterlimit:3}
	]]>
	</style>

	<g v:mID="0" v:index="1" v:groupContext="foregroundPage">
		<title>頁-1</title>
		<v:pageProperties v:drawingScale="0.0393701" v:pageScale="0.0393701" v:drawingUnits="24" v:shadowOffsetX="8.50394"
				v:shadowOffsetY="-8.50394"/>
		<g id="shape67-1" v:mID="67" v:groupContext="shape" transform="translate(56.0758,-127.225)">
			<title>工作表.67</title>
			<desc>甲、破四塵和合為地</desc>
			<v:textBlock v:margins="rect(4,4,4,4)" v:tabSpace="42.5197"/>
			<v:textRect cx="49.6063" cy="139.364" width="99.22" height="15.5906"/>
			<rect x="0" y="131.569" width="99.2126" height="15.5906" class="st1"/>
			<text x="4" y="142.48" class="st2" v:langID="1033"><v:paragraph/><v:tabList/>甲、破四塵和合為地</text>		</g>
		<g id="shape68-4" v:mID="68" v:groupContext="shape" transform="translate(56.0758,-104.406)">
			<title>工作表.68</title>
			<desc>乙、破四塵合時生地</desc>
			<v:textBlock v:margins="rect(4,4,4,4)" v:tabSpace="42.5197"/>
			<v:textRect cx="49.6063" cy="139.364" width="99.22" height="15.5906"/>
			<rect x="0" y="131.569" width="99.2126" height="15.5906" class="st1"/>
			<text x="4" y="142.48" class="st2" v:langID="1033"><v:paragraph/><v:tabList/>乙、破四塵合時生地</text>		</g>
		<g id="shape69-7" v:mID="69" v:groupContext="shape" transform="translate(56.0758,-40.2092)">
			<title>工作表.69</title>
			<desc>丙、破毘曇假實四大</desc>
			<v:textBlock v:margins="rect(4,4,4,4)" v:tabSpace="42.5197"/>
			<v:textRect cx="49.6063" cy="139.364" width="99.22" height="15.5906"/>
			<rect x="0" y="131.569" width="99.2126" height="15.5906" class="st1"/>
			<text x="4" y="142.48" class="st2" v:langID="1033"><v:paragraph/><v:tabList/>丙、破毘曇假實四大</text>		</g>
		<g id="shape75-10" v:mID="75" v:groupContext="shape" transform="translate(164.272,-104.265)">
			<title>工作表.75</title>
			<desc>能所既異應有異根異識知地</desc>
			<v:textBlock v:margins="rect(4,4,4,4)" v:tabSpace="42.5197"/>
			<v:textRect cx="69.4488" cy="139.364" width="138.9" height="15.5906"/>
			<rect x="0" y="131.569" width="138.898" height="15.5906" class="st1"/>
			<text x="4" y="142.48" class="st2" v:langID="1033"><v:paragraph/><v:tabList/>能所既異，應有異根異識知地</text>		</g>
		<g id="shape76-13" v:mID="76" v:groupContext="shape" transform="translate(164.272,-68.9734)">
			<title>工作表.76</title>
			<desc>難能所不同</desc>
			<v:textBlock v:margins="rect(4,4,4,4)" v:tabSpace="42.5197"/>
			<v:textRect cx="29.7638" cy="139.364" width="59.53" height="15.5906"/>
			<rect x="0" y="131.569" width="59.5276" height="15.5906" class="st1"/>
			<text x="4" y="142.48" class="st2" v:langID="1033"><v:paragraph/><v:tabList/>難能所不同</text>		</g>
		<g id="shape77-16" v:mID="77" v:groupContext="shape" transform="translate(164.272,-15.2569)">
			<title>工作表.77</title>
			<desc>難四大不離</desc>
			<v:textBlock v:margins="rect(4,4,4,4)" v:tabSpace="42.5197"/>
			<v:textRect cx="29.7638" cy="139.364" width="59.53" height="15.5906"/>
			<rect x="0" y="131.569" width="59.5276" height="15.5906" class="st1"/>
			<text x="4" y="142.48" class="st2" v:langID="1033"><v:paragraph/><v:tabList/>難四大不離</text>		</g>
		<g id="shape80-19" v:mID="80" v:groupContext="shape" transform="translate(164.272,-131.194)">
			<title>工作表.80</title>
			<desc>一法是地餘三應非</desc>
			<v:textBlock v:margins="rect(4,4,4,4)" v:tabSpace="42.5197"/>
			<v:textRect cx="49.6063" cy="139.364" width="99.22" height="15.5906"/>
			<rect x="0" y="131.569" width="99.2126" height="15.5906" class="st1"/>
			<text x="4" y="142.48" class="st2" v:langID="1033"><v:paragraph/><v:tabList/>一法是地，餘三應非</text>		</g>
		<g id="shape81-22" v:mID="81" v:groupContext="shape" transform="translate(164.272,-117.021)">
			<title>工作表.81</title>
			<desc>四法云何為一</desc>
			<v:textBlock v:margins="rect(4,4,4,4)" v:tabSpace="42.5197"/>
			<v:textRect cx="35.4331" cy="139.364" width="70.87" height="15.5906"/>
			<rect x="0" y="131.569" width="70.8661" height="15.5906" class="st1"/>
			<text x="4" y="142.48" class="st2" v:langID="1033"><v:paragraph/><v:tabList/>四法云何為一</text>		</g>
		<g id="shape127-25" v:mID="127" v:groupContext="shape" transform="translate(0.375,-85.4144)">
			<title>工作表.127</title>
			<desc>破四大</desc>
			<v:textBlock v:margins="rect(4,4,4,4)" v:tabSpace="42.5197"/>
			<v:textRect cx="19.3465" cy="139.364" width="38.7" height="15.5906"/>
			<rect x="0" y="131.569" width="38.6929" height="15.5906" class="st1"/>
			<text x="4" y="142.48" class="st2" v:langID="1033"><v:paragraph/><v:tabList/>破四大</text>		</g>
		<g id="shape173-28" v:mID="173" v:groupContext="shape" transform="translate(48.4222,201.109) rotate(180)">
			<title>工作表.173</title>
			<path d="M0 147.16 L9.4 147.16" class="st3"/>
		</g>
		<g id="shape174-31" v:mID="174" v:groupContext="shape" transform="translate(48.4222,-136.438)">
			<title>工作表.174</title>
			<path d="M0 147.16 L8.43 147.16" class="st3"/>
		</g>
		<g id="shape175-34" v:mID="175" v:groupContext="shape" transform="translate(48.4222,-48.564)">
			<title>工作表.175</title>
			<path d="M0 147.16 L7.06 147.16" class="st3"/>
		</g>
		<g id="shape177-37" v:mID="177" v:groupContext="shape" transform="translate(225.194,217.558) rotate(180)">
			<title>工作表.177</title>
			<path d="M0 147.16 L6.63 147.16" class="st3"/>
		</g>
		<g id="shape178-40" v:mID="178" v:groupContext="shape" transform="translate(225.194,-83.8479)">
			<title>工作表.178</title>
		</g>
		<g id="shape179-41" v:mID="179" v:groupContext="shape" transform="translate(225.194,-62.961)">
			<title>工作表.179</title>
			<path d="M0 147.16 L6.63 147.16" class="st3"/>
		</g>
		<g id="shape180-44" v:mID="180" v:groupContext="shape" transform="translate(225.194,-90.1885)">
			<title>工作表.180</title>
			<path d="M0 147.16 L6.17 147.16" class="st3"/>
		</g>
		<g id="shape181-47" v:mID="181" v:groupContext="shape" transform="translate(305.282,6.46949) rotate(90)">
			<title>工作表.181</title>
			<path d="M0 147.16 L14.17 147.16" class="st3"/>
		</g>
		<g id="shape182-50" v:mID="182" v:groupContext="shape" transform="translate(158.123,160.716) rotate(180)">
			<title>工作表.182</title>
			<path d="M0 147.16 L6.63 147.16" class="st3"/>
		</g>
		<g id="shape183-53" v:mID="183" v:groupContext="shape" transform="translate(158.123,-140.69)">
			<title>工作表.183</title>
		</g>
		<g id="shape184-54" v:mID="184" v:groupContext="shape" transform="translate(158.123,-126.517)">
			<title>工作表.184</title>
			<path d="M0 147.16 L6.63 147.16" class="st3"/>
		</g>
		<g id="shape185-57" v:mID="185" v:groupContext="shape" transform="translate(158.123,-140.69)">
			<title>工作表.185</title>
			<path d="M0 147.16 L6.17 147.16" class="st3"/>
		</g>
		<g id="shape186-60" v:mID="186" v:groupContext="shape" transform="translate(441.345,104.265) rotate(90)">
			<title>工作表.186</title>
			<path d="M0 147.16 L14.17 147.16" class="st3"/>
		</g>
		<g id="shape187-63" v:mID="187" v:groupContext="shape" transform="translate(294.186,258.511) rotate(180)">
			<title>工作表.187</title>
			<path d="M0 147.16 L6.63 147.16" class="st3"/>
		</g>
		<g id="shape188-66" v:mID="188" v:groupContext="shape" transform="translate(294.186,-42.8947)">
			<title>工作表.188</title>
		</g>
		<g id="shape189-67" v:mID="189" v:groupContext="shape" transform="translate(294.186,-28.7215)">
			<title>工作表.189</title>
			<path d="M0 147.16 L6.63 147.16" class="st3"/>
		</g>
		<g id="shape190-70" v:mID="190" v:groupContext="shape" transform="translate(294.186,-42.8947)">
			<title>工作表.190</title>
			<path d="M0 147.16 L6.17 147.16" class="st3"/>
		</g>
		<g id="shape200-73" v:mID="200" v:groupContext="shape" transform="translate(231.824,-83.2884)">
			<title>工作表.200</title>
			<desc>若所造但可見色香味觸應非地</desc>
			<v:textBlock v:margins="rect(4,4,4,4)" v:tabSpace="42.5197"/>
			<v:textRect cx="75.1181" cy="139.364" width="150.24" height="15.5906"/>
			<rect x="0" y="131.569" width="150.236" height="15.5906" class="st1"/>
			<text x="4" y="142.48" class="st2" v:langID="1033"><v:paragraph/><v:tabList/>若所造但可見色，香味觸應非地</text>		</g>
		<g id="shape201-76" v:mID="201" v:groupContext="shape" transform="translate(231.824,-69.1152)">
			<title>工作表.201</title>
			<desc>若能造是堅相水月等中應無堅可得</desc>
			<v:textBlock v:margins="rect(4,4,4,4)" v:tabSpace="42.5197"/>
			<v:textRect cx="86.4567" cy="139.364" width="172.92" height="15.5906"/>
			<rect x="0" y="131.569" width="172.913" height="15.5906" class="st1"/>
			<text x="4" y="142.48" class="st2" v:langID="1033"><v:paragraph/><v:tabList/>若能造是堅相，水月等中應無堅可得</text>		</g>
		<g id="shape202-79" v:mID="202" v:groupContext="shape" transform="translate(231.824,-54.9419)">
			<title>工作表.202</title>
			<desc>風及風種應分別地及地種應無異</desc>
			<v:textBlock v:margins="rect(4,4,4,4)" v:tabSpace="42.5197"/>
			<v:textRect cx="80.7874" cy="139.364" width="161.58" height="15.5906"/>
			<rect x="0" y="131.569" width="161.575" height="15.5906" class="st1"/>
			<text x="4" y="142.48" class="st2" v:langID="1033"><v:paragraph/><v:tabList/>風及風種應分別，地及地種應無異</text>		</g>
		<g id="shape203-82" v:mID="203" v:groupContext="shape" transform="translate(299.855,-35.8081)">
			<title>工作表.203</title>
			<desc>都熱應捨自相</desc>
			<v:textBlock v:margins="rect(4,4,4,4)" v:tabSpace="42.5197"/>
			<v:textRect cx="35.4331" cy="139.364" width="70.87" height="15.5906"/>
			<rect x="0" y="131.569" width="70.8661" height="15.5906" class="st1"/>
			<text x="4" y="142.48" class="st2" v:langID="1033"><v:paragraph/><v:tabList/>都熱應捨自相</text>		</g>
		<g id="shape204-85" v:mID="204" v:groupContext="shape" transform="translate(299.855,-20.2175)">
			<title>工作表.204</title>
			<desc>不熱應不名火</desc>
			<v:textBlock v:margins="rect(4,4,4,4)" v:tabSpace="42.5197"/>
			<v:textRect cx="35.4331" cy="139.364" width="70.87" height="15.5906"/>
			<rect x="0" y="131.569" width="70.8661" height="15.5906" class="st1"/>
			<text x="4" y="142.48" class="st2" v:langID="1033"><v:paragraph/><v:tabList/>不熱應不名火</text>		</g>
		<g id="shape206-88" v:mID="206" v:groupContext="shape" transform="translate(231.824,-28.0128)">
			<title>工作表.206</title>
			<desc>三大隨一大</desc>
			<v:textBlock v:margins="rect(4,4,4,4)" v:tabSpace="42.5197"/>
			<v:textRect cx="29.7638" cy="139.364" width="59.53" height="15.5906"/>
			<rect x="0" y="131.569" width="59.5276" height="15.5906" class="st1"/>
			<text x="4" y="142.48" class="st2" v:langID="1033"><v:paragraph/><v:tabList/>三大隨一大</text>		</g>
		<g id="shape207-91" v:mID="207" v:groupContext="shape" transform="translate(231.824,-0.375)">
			<title>工作表.207</title>
			<desc>細不可知應是無</desc>
			<v:textBlock v:margins="rect(4,4,4,4)" v:tabSpace="42.5197"/>
			<v:textRect cx="41.1024" cy="139.364" width="82.21" height="15.5906"/>
			<rect x="0" y="131.569" width="82.2047" height="15.5906" class="st1"/>
			<text x="4" y="142.48" class="st2" v:langID="1033"><v:paragraph/><v:tabList/>細不可知應是無</text>		</g>
		<g id="shape215-94" v:mID="215" v:groupContext="shape" transform="translate(372.354,56.9709) rotate(90)">
			<title>工作表.215</title>
			<path d="M0 147.16 L27.23 147.16" class="st3"/>
		</g>
		<g id="shape216-97" v:mID="216" v:groupContext="shape" transform="translate(225.194,271.08) rotate(180)">
			<title>工作表.216</title>
			<path d="M0 147.16 L6.63 147.16" class="st3"/>
		</g>
		<g id="shape217-100" v:mID="217" v:groupContext="shape" transform="translate(225.194,-30.3253)">
			<title>工作表.217</title>
		</g>
		<g id="shape218-101" v:mID="218" v:groupContext="shape" transform="translate(225.194,-9.43841)">
			<title>工作表.218</title>
			<path d="M0 147.16 L6.63 147.16" class="st3"/>
		</g>
		<g id="shape219-104" v:mID="219" v:groupContext="shape" transform="translate(225.194,-36.6659)">
			<title>工作表.219</title>
			<path d="M0 147.16 L6.17 147.16" class="st3"/>
		</g>
		<g id="shape220-107" v:mID="220" v:groupContext="shape" transform="translate(372.354,110.494) rotate(90)">
			<title>工作表.220</title>
			<path d="M0 147.16 L27.23 147.16" class="st3"/>
		</g>
		<g id="shape221-110" v:mID="221" v:groupContext="shape" transform="translate(158.297,246.128) rotate(180)">
			<title>工作表.221</title>
			<path d="M0 147.16 L6.63 147.16" class="st3"/>
		</g>
		<g id="shape222-113" v:mID="222" v:groupContext="shape" transform="translate(158.297,-55.2776)">
			<title>工作表.222</title>
		</g>
		<g id="shape223-114" v:mID="223" v:groupContext="shape" transform="translate(158.297,-23.0521)">
			<title>工作表.223</title>
			<path d="M0 147.16 L6.63 147.16" class="st3"/>
		</g>
		<g id="shape224-117" v:mID="224" v:groupContext="shape" transform="translate(158.297,-76.9104)">
			<title>工作表.224</title>
			<path d="M0 147.16 L6.17 147.16" class="st3"/>
		</g>
		<g id="shape226-120" v:mID="226" v:groupContext="shape" transform="translate(305.456,70.249) rotate(90)">
			<title>工作表.226</title>
			<path d="M0 147.16 L53.86 147.16" class="st3"/>
		</g>
		<g id="shape228-123" v:mID="228" v:groupContext="shape" transform="translate(195.582,10.7215) rotate(90)">
			<title>工作表.228</title>
			<path d="M0 147.16 L87.87 147.16" class="st3"/>
		</g>
		<g id="shape229-126" v:mID="229" v:groupContext="shape" transform="translate(151.603,-112.343)">
			<title>工作表.229</title>
			<path d="M0 147.16 L15.02 147.16" class="st3"/>
		</g>
	</g>
</svg>
