<?xml version="1.0" encoding="UTF-8" standalone="no"?>
<!DOCTYPE svg PUBLIC "-//W3C//DTD SVG 1.1//EN" "http://www.w3.org/Graphics/SVG/1.1/DTD/svg11.dtd">
<!-- 由 Microsoft Visio, SVG Export 產生 A02802.svg 頁-1 -->
<svg xmlns="http://www.w3.org/2000/svg" xmlns:xlink="http://www.w3.org/1999/xlink" xmlns:ev="http://www.w3.org/2001/xml-events"
		xmlns:v="http://schemas.microsoft.com/visio/2003/SVGExtensions/" width="4.69209in" height="0.621783in"
		viewBox="0 0 337.831 44.7684" xml:space="preserve" color-interpolation-filters="sRGB" class="st7">
	<v:documentProperties v:langID="1028" v:viewMarkup="false"/>

	<style type="text/css">
	<![CDATA[
		.st1 {fill:none;stroke:none;stroke-linecap:butt;stroke-width:0.75}
		.st2 {fill:#000000;font-family:新細明體;font-size:0.833336em}
		.st3 {font-size:1em}
		.st4 {font-family:Times New Roman;font-size:1em}
		.st5 {fill:none}
		.st6 {stroke:#040000;stroke-linecap:round;stroke-linejoin:round;stroke-width:0.705463}
		.st7 {fill:none;fill-rule:evenodd;font-size:12px;overflow:visible;stroke-linecap:square;stroke-miterlimit:3}
	]]>
	</style>

	<g v:mID="0" v:index="1" v:groupContext="foregroundPage">
		<title>頁-1</title>
		<v:pageProperties v:drawingScale="0.0393701" v:pageScale="0.0393701" v:drawingUnits="24" v:shadowOffsetX="9"
				v:shadowOffsetY="-9"/>
		<g id="shape1-1" v:mID="1" v:groupContext="shape" transform="translate(41.582,-0.75)">
			<title>工作表.1</title>
			<desc>學八忍、八智、九無礙中金剛三昧慧。 無學第九解脫智——盡、無生智。 非學非無學乾慧地、不淨、安那般那、欲界繫四念處、四加行。</desc>
			<v:textBlock v:margins="rect(0,0,0,0)" v:tabSpace="42.5197"/>
			<v:textRect cx="147.749" cy="23.1342" width="295.5" height="43.2684"/>
			<rect x="0" y="1.5" width="295.499" height="43.2684" class="st1"/>
			<text x="0" y="12.23" class="st2" v:langID="1028"><v:paragraph v:spLine="-1.4"/><v:tabList/>學：八忍、八智、九無礙中金剛三昧慧。<v:newlineChar/><tspan
						x="0" dy="1.453em" class="st3">無學</tspan>：第九解脫智<tspan class="st4">——</tspan>盡、無生智。<v:newlineChar/><tspan
						x="0" dy="1.453em" class="st3">非學非無學</tspan>：乾慧地、不淨、安那般那、欲界繫四念處、四加行。</text>		</g>
		<g id="shape2-7" v:mID="2" v:groupContext="shape" transform="translate(0.75,-16.5807)">
			<title>工作表.2</title>
			<desc>三學慧</desc>
			<v:textBlock v:margins="rect(0,0,0,0)" v:tabSpace="42.5197"/>
			<v:textRect cx="16.9311" cy="37.996" width="33.87" height="13.5449"/>
			<rect x="0" y="31.2235" width="33.8622" height="13.5449" class="st1"/>
			<text x="-0" y="41.63" class="st2" v:langID="1028"><v:paragraph v:spLine="-1.4"/><v:tabList/>三學慧</text>		</g>
		<g id="shape19-10" v:mID="19" v:groupContext="shape" transform="translate(77.6814,6.93269) rotate(90)">
			<title>工作表.19</title>
			<path d="M0 38.24 C0 40.04 0 41.53 0 41.53 L15.02 41.53 C15.02 41.53 15.02 42.97 15.02 44.77 C15.02 42.97 15.02 41.53
						 15.02 41.53 L30.05 41.53 C30.05 41.53 30.05 40.04 30.05 38.24 L0 38.24 Z" class="st5"/>
			<path d="M0 38.24 C0 40.04 0 41.53 0 41.53 L15.02 41.53 C15.02 41.53 15.02 42.97 15.02 44.77 C15.02 42.97 15.02 41.53
						 15.02 41.53 L30.05 41.53 C30.05 41.53 30.05 40.04 30.05 38.24" class="st6"/>
		</g>
	</g>
</svg>
