<?xml version="1.0" encoding="UTF-8" standalone="no"?>
<!DOCTYPE svg PUBLIC "-//W3C//DTD SVG 1.1//EN" "http://www.w3.org/Graphics/SVG/1.1/DTD/svg11.dtd">
<!-- 由 Microsoft Visio, SVG Export 產生 A01602.svg 頁-1 -->
<svg xmlns="http://www.w3.org/2000/svg" xmlns:xlink="http://www.w3.org/1999/xlink" xmlns:ev="http://www.w3.org/2001/xml-events"
		xmlns:v="http://schemas.microsoft.com/visio/2003/SVGExtensions/" width="4.2669in" height="1.00934in"
		viewBox="0 0 307.217 72.6726" xml:space="preserve" color-interpolation-filters="sRGB" class="st6">
	<v:documentProperties v:langID="1028" v:viewMarkup="false"/>

	<style type="text/css">
	<![CDATA[
		.st1 {fill:none;stroke:none;stroke-linecap:butt;stroke-width:0.75}
		.st2 {fill:#000000;font-family:新細明體;font-size:0.833336em}
		.st3 {font-size:1em}
		.st4 {fill:none}
		.st5 {stroke:#040000;stroke-linecap:round;stroke-linejoin:round;stroke-width:0.705463}
		.st6 {fill:none;fill-rule:evenodd;font-size:12px;overflow:visible;stroke-linecap:square;stroke-miterlimit:3}
	]]>
	</style>

	<g v:mID="0" v:index="1" v:groupContext="foregroundPage">
		<title>頁-1</title>
		<v:pageProperties v:drawingScale="0.0393701" v:pageScale="0.0393701" v:drawingUnits="24" v:shadowOffsetX="9"
				v:shadowOffsetY="-9"/>
		<g id="shape1-1" v:mID="1" v:groupContext="shape" transform="translate(83.9021,-1.58598)">
			<title>工作表.1</title>
			<desc>或說有或說無 或說常或說無常 或說苦或說樂 或說我或說無我 或說行諸善法或說無作</desc>
			<v:textBlock v:margins="rect(0,0,0,0)" v:tabSpace="42.5197"/>
			<v:textRect cx="51.016" cy="37.9222" width="102.04" height="69.5008"/>
			<rect x="0" y="3.17185" width="102.032" height="69.5008" class="st1"/>
			<text x="0" y="12.49" class="st2" v:langID="1028"><v:paragraph v:spLine="-1.4"/><v:tabList/>或說有或說無<v:newlineChar/><tspan
						x="0" dy="1.453em" class="st3">或說常或說無常<v:newlineChar/></tspan><tspan x="0" dy="1.453em" class="st3">或說苦或說樂<v:newlineChar/></tspan><tspan
						x="0" dy="1.453em" class="st3">或說我或說無我<v:newlineChar/></tspan><tspan x="0" dy="1.453em" class="st3">或說行諸善法或說無作</tspan></text>		</g>
		<g id="shape3-8" v:mID="3" v:groupContext="shape" transform="translate(233.691,-43.397)">
			<title>工作表.3</title>
			<desc>無智人謂為乖諍</desc>
			<v:textBlock v:margins="rect(0,0,0,0)" v:tabSpace="42.5197"/>
			<v:textRect cx="36.3879" cy="65.9002" width="72.78" height="13.5449"/>
			<rect x="0" y="59.1277" width="72.7758" height="13.5449" class="st1"/>
			<text x="0" y="69.01" class="st2" v:langID="1028"><v:paragraph/><v:tabList/>無智人謂為乖諍</text>		</g>
		<g id="shape4-11" v:mID="4" v:groupContext="shape" transform="translate(0.75,-29.9549)">
			<title>工作表.4</title>
			<desc>佛隨眾生種種說</desc>
			<v:textBlock v:margins="rect(0,0,0,0)" v:tabSpace="42.5197"/>
			<v:textRect cx="39.5059" cy="65.9002" width="79.02" height="13.5449"/>
			<rect x="0" y="59.1277" width="79.0119" height="13.5449" class="st1"/>
			<text x="0" y="69.01" class="st2" v:langID="1028"><v:paragraph/><v:tabList/>佛隨眾生種種說</text>		</g>
		<g id="shape6-14" v:mID="6" v:groupContext="shape" transform="translate(235.033,-17.8852)">
			<title>工作表.6</title>
			<desc>智者知皆是實</desc>
			<v:textBlock v:margins="rect(0,0,0,0)" v:tabSpace="42.5197"/>
			<v:textRect cx="31.4646" cy="65.9002" width="62.93" height="13.5449"/>
			<rect x="0" y="59.1277" width="62.9291" height="13.5449" class="st1"/>
			<text x="0" y="69.01" class="st2" v:langID="1028"><v:paragraph/><v:tabList/>智者知皆是實</text>		</g>
		<g id="shape15-17" v:mID="15" v:groupContext="shape" transform="translate(145.236,7.96378) rotate(90)">
			<title>工作表.15</title>
			<path d="M0 63.65 C0 66.15 2.1 68.16 4.72 68.16 L23.62 68.16 C26.19 68.16 28.35 70.22 28.35 72.67 C28.35 70.22 30.45
						 68.16 33.07 68.16 L51.97 68.16 C54.54 68.16 56.69 66.15 56.69 63.65 L0 63.65 Z" class="st4"/>
			<path d="M0 63.65 C0 66.15 2.1 68.16 4.72 68.16 L23.62 68.16 C26.19 68.16 28.35 70.22 28.35 72.67 C28.35 70.22 30.45
						 68.16 33.07 68.16 L51.97 68.16 C54.54 68.16 56.69 66.15 56.69 63.65" class="st5"/>
		</g>
		<g id="shape17-20" v:mID="17" v:groupContext="shape" transform="translate(170.744,-32.0705) rotate(-19.7898)">
			<title>工作表.17</title>
			<path d="M0 72.67 L38.72 72.67" class="st5"/>
		</g>
		<g id="shape18-23" v:mID="18" v:groupContext="shape" transform="translate(219.207,-32.3344) rotate(19.1656)">
			<title>工作表.18</title>
			<path d="M0 72.67 L39.01 72.67" class="st5"/>
		</g>
		<g id="shape23-26" v:mID="23" v:groupContext="shape" transform="translate(122.676,64.6567) rotate(-90)">
			<title>工作表.23</title>
			<path d="M0 63.65 C0 66.15 2.1 68.16 4.72 68.16 L23.62 68.16 C26.19 68.16 28.35 70.22 28.35 72.67 C28.35 70.22 30.45
						 68.16 33.07 68.16 L51.97 68.16 C54.54 68.16 56.69 66.15 56.69 63.65 L0 63.65 Z" class="st4"/>
			<path d="M0 63.65 C0 66.15 2.1 68.16 4.72 68.16 L23.62 68.16 C26.19 68.16 28.35 70.22 28.35 72.67 C28.35 70.22 30.45
						 68.16 33.07 68.16 L51.97 68.16 C54.54 68.16 56.69 66.15 56.69 63.65" class="st5"/>
		</g>
	</g>
</svg>
