<?xml version="1.0" encoding="UTF-8" standalone="no"?>
<!DOCTYPE svg PUBLIC "-//W3C//DTD SVG 1.1//EN" "http://www.w3.org/Graphics/SVG/1.1/DTD/svg11.dtd">
<!-- 由 Microsoft Visio, SVG Export 產生 M019.p532.svg 頁-1 -->
<svg xmlns="http://www.w3.org/2000/svg" xmlns:xlink="http://www.w3.org/1999/xlink" xmlns:ev="http://www.w3.org/2001/xml-events"
		width="5.72545in" height="8.52746in" viewBox="0 0 412.232 613.977" xml:space="preserve" color-interpolation-filters="sRGB"
		class="st7">
	<style type="text/css">
	<![CDATA[
		.st1 {fill:none;stroke:none;stroke-linecap:round;stroke-linejoin:round;stroke-width:0.5}
		.st2 {fill:#000000;font-family:新細明體;font-size:1.00001em}
		.st3 {font-size:1em}
		.st4 {stroke:#000000;stroke-linecap:round;stroke-linejoin:round;stroke-width:0.5}
		.st5 {fill:#000000;font-family:Times New Roman;font-size:1.00001em}
		.st6 {fill:#000000;font-family:標楷體;font-size:1.00001em;font-weight:bold;letter-spacing:0.416663em}
		.st7 {fill:none;fill-rule:evenodd;font-size:12px;overflow:visible;stroke-linecap:square;stroke-miterlimit:3}
	]]>
	</style>

	<g>
		<title>頁-1</title>
		<g id="group380-1" transform="translate(0.25,-0.25)">
			<title>工作表.380</title>
			<g id="shape203-2" transform="translate(57.4016,-552.532)">
				<title>工作表.203</title>
				<desc>無為 識蘊 行蘊 想蘊 受蘊 色蘊</desc>
				<rect x="0" y="567.205" width="354.331" height="46.7717" class="st1"/>
				<text x="312.17" y="571.21" writing-mode="tb-rl" class="st2">無為 <tspan dx="-4.5em" y="47.6em 48.6em" class="st3">識蘊 </tspan><tspan
							dx="-4.5em" y="47.6em 48.6em" class="st3">行蘊 </tspan><tspan dx="-4.5em" y="47.6em 48.6em" class="st3">想蘊 </tspan><tspan
							dx="-4.5em" y="47.6em 48.6em" class="st3">受蘊 </tspan><tspan dx="-4.5em" y="47.6em 48.6em" class="st3">色蘊</tspan></text>			</g>
			<g id="shape207-10" transform="translate(57.4016,-208.603)">
				<title>工作表.207</title>
				<desc>意識界 身識界 舌識界 鼻識界 耳識界 眼識眼 法界 觸界 味界 香界 聲界 色界 意界 身界 舌界 鼻界 耳界 眼界</desc>
				<rect x="0" y="562.953" width="354.331" height="51.0236" class="st1"/>
				<text x="330.17" y="566.95" writing-mode="tb-rl" class="st2">意識界 <tspan dx="-1.5em" y="47.246em 48.246em 49.246em"
							class="st3">身識界 </tspan><tspan dx="-1.5em" y="47.246em 48.246em 49.246em" class="st3">舌識界 </tspan><tspan
							dx="-1.5em" y="47.246em 48.246em 49.246em" class="st3">鼻識界 </tspan><tspan dx="-1.5em" y="47.246em 48.246em
								 49.246em" class="st3">耳識界 </tspan><tspan dx="-1.5em" y="47.246em 48.246em 49.246em" class="st3">眼識眼 </tspan><tspan
							dx="-1.5em" y="47.246em 48.246em" class="st3">法界 </tspan><tspan dx="-1.5em" y="47.246em 48.246em"
							class="st3">觸界 </tspan><tspan dx="-1.5em" y="47.246em 48.246em" class="st3">味界 </tspan><tspan
							dx="-1.5em" y="47.246em 48.246em" class="st3">香界 </tspan><tspan dx="-1.5em" y="47.246em 48.246em"
							class="st3">聲界 </tspan><tspan dx="-1.5em" y="47.246em 48.246em" class="st3">色界 </tspan><tspan
							dx="-1.5em" y="47.246em 48.246em" class="st3">意界 </tspan><tspan dx="-1.5em" y="47.246em 48.246em"
							class="st3">身界 </tspan><tspan dx="-1.5em" y="47.246em 48.246em" class="st3">舌界 </tspan><tspan
							dx="-1.5em" y="47.246em 48.246em" class="st3">鼻界 </tspan><tspan dx="-1.5em" y="47.246em 48.246em"
							class="st3">耳界 </tspan><tspan dx="-1.5em" y="47.246em 48.246em" class="st3">眼界</tspan></text>			</g>
			<g id="shape208-30" transform="translate(57.4016,-316.442)">
				<title>工作表.208</title>
				<desc>法處 觸處 味處 香處 聲處 色處 意處 身處 舌處 鼻處 耳處 眼處</desc>
				<rect x="0" y="567.205" width="354.331" height="46.7717" class="st1"/>
				<text x="276.17" y="571.21" writing-mode="tb-rl" class="st2">法處 <tspan dx="-1.5em" y="47.6em 48.6em" class="st3">觸處 </tspan><tspan
							dx="-1.5em" y="47.6em 48.6em" class="st3">味處 </tspan><tspan dx="-1.5em" y="47.6em 48.6em" class="st3">香處 </tspan><tspan
							dx="-1.5em" y="47.6em 48.6em" class="st3">聲處 </tspan><tspan dx="-1.5em" y="47.6em 48.6em" class="st3">色處 </tspan><tspan
							dx="-1.5em" y="47.6em 48.6em" class="st3">意處 </tspan><tspan dx="-1.5em" y="47.6em 48.6em" class="st3">身處 </tspan><tspan
							dx="-1.5em" y="47.6em 48.6em" class="st3">舌處 </tspan><tspan dx="-1.5em" y="47.6em 48.6em" class="st3">鼻處 </tspan><tspan
							dx="-1.5em" y="47.6em 48.6em" class="st3">耳處 </tspan><tspan dx="-1.5em" y="47.6em 48.6em" class="st3">眼處</tspan></text>			</g>
			<g id="shape209-44" transform="translate(248.74,-446.233)">
				<title>工作表.209</title>
				<desc>不相應行 受想以外之心所</desc>
				<rect x="0" y="517.599" width="42.5197" height="96.3779" class="st1"/>
				<text x="26.52" y="521.6" writing-mode="tb-rl" class="st2">不相應行 <tspan dx="-2em" y="43.466em 44.466em 45.466em 46.466em
								 47.466em 48.466em 49.466em" class="st3">受想以外之心所</tspan></text>			</g>
			<g id="shape210-48" transform="translate(71.5748,-491.587)">
				<title>工作表.210</title>
				<desc>無表色 五境 五根</desc>
				<rect x="0" y="562.953" width="57.4016" height="51.0236" class="st1"/>
				<text x="46.7" y="566.95" writing-mode="tb-rl" class="st2">無表色 <tspan dx="-1.5em" y="47.246em 48.246em" class="st3">五境 </tspan><tspan
							dx="-1.5em" y="47.246em 48.246em" class="st3">五根</tspan></text>			</g>
			<g id="shape212-53" transform="translate(57.4016,-12.4277)">
				<title>工作表.212</title>
				<desc>無為法 不相應行法 心所法 心法 色法</desc>
				<rect x="0" y="543.111" width="354.331" height="70.8661" class="st1"/>
				<text x="285.17" y="547.11" writing-mode="tb-rl" class="st2">無為法 <tspan dx="-4.5em" y="45.592em 46.592em 47.592em
								 48.592em 49.592em" class="st3">不相應行法 </tspan><tspan dx="-4.5em" y="45.592em 46.592em 47.592em"
							class="st3">心所法 </tspan><tspan dx="-4.5em" y="45.592em 46.592em" class="st3">心法 </tspan><tspan
							dx="-4.5em" y="45.592em 46.592em" class="st3">色法</tspan></text>			</g>
			<g id="shape211-60" transform="translate(249.422,-130.834)">
				<title>工作表.211</title>
				<desc>無為 不相應行 一切心所 無表色</desc>
				<rect x="0" y="551.615" width="70.8661" height="62.3622" class="st1"/>
				<text x="57.87" y="555.61" writing-mode="tb-rl" class="st2">無為 <tspan dx="-1.5em" y="46.301em 47.301em 48.301em 49.301em"
							class="st3">不相應行 </tspan><tspan dx="-1.5em" y="46.301em 47.301em 48.301em 49.301em" class="st3">一切心所 </tspan><tspan
							dx="-1.5em" y="46.301em 47.301em 48.301em" class="st3">無表色</tspan></text>			</g>
			<g id="shape224-66" transform="translate(893.163,398.12) rotate(90)">
				<title>工作表.224</title>
				<path d="M0 613.98 L15.57 613.98" class="st4"/>
			</g>
			<g id="shape219-69" transform="translate(253.481,-200.283)">
				<title>工作表.219</title>
				<path d="M0 613.98 L53.34 613.98" class="st4"/>
			</g>
			<g id="shape220-72" transform="translate(920.902,413.694) rotate(90)">
				<title>工作表.220</title>
				<path d="M0 613.98 L9.43 613.98" class="st4"/>
			</g>
			<g id="shape223-75" transform="translate(867.458,413.694) rotate(90)">
				<title>工作表.223</title>
				<path d="M0 613.98 L9.43 613.98" class="st4"/>
			</g>
			<g id="shape233-78" transform="translate(251.677,-550.619) rotate(0.000110009)">
				<title>工作表.233</title>
				<path d="M0 613.98 L23.18 613.98" class="st4"/>
			</g>
			<g id="shape234-81" transform="translate(888.836,63.3582) rotate(90)">
				<title>工作表.234</title>
				<path d="M0 613.98 L9.43 613.98" class="st4"/>
			</g>
			<g id="shape237-84" transform="translate(865.552,63.3582) rotate(90)">
				<title>工作表.237</title>
				<path d="M0 613.98 L9.43 613.98" class="st4"/>
			</g>
			<g id="shape238-87" transform="translate(81.4056,-550.406) rotate(-0.0651241)">
				<title>工作表.238</title>
				<path d="M0 613.98 L35.64 613.98" class="st4"/>
			</g>
			<g id="shape239-90" transform="translate(731.716,63.3582) rotate(90)">
				<title>工作表.239</title>
				<path d="M0 613.98 L9.43 613.98" class="st4"/>
			</g>
			<g id="shape240-93" transform="translate(696.081,63.3582) rotate(90)">
				<title>工作表.240</title>
				<path d="M0 613.98 L9.43 613.98" class="st4"/>
			</g>
			<g id="shape241-96" transform="translate(968.04,198.412) rotate(102.754)">
				<title>工作表.241</title>
				<path d="M0 613.98 L177.48 613.98" class="st4"/>
			</g>
			<g id="shape244-99" transform="translate(87.4488,-590.8)">
				<title>工作表.244</title>
				<desc>1.</desc>
				<rect x="0" y="591.3" width="24.9449" height="22.6772" class="st1"/>
				<text x="7.97" y="606.1" class="st5">1.</text>			</g>
			<g id="shape245-102" transform="translate(141.307,-590.8)">
				<title>工作表.245</title>
				<desc>2.</desc>
				<rect x="0" y="591.3" width="24.9449" height="22.6772" class="st1"/>
				<text x="7.97" y="606.1" class="st5">2.</text>			</g>
			<g id="shape246-105" transform="translate(195.165,-590.8)">
				<title>工作表.246</title>
				<desc>3.</desc>
				<rect x="0" y="591.3" width="24.9449" height="22.6772" class="st1"/>
				<text x="7.97" y="606.1" class="st5">3.</text>			</g>
			<g id="shape247-108" transform="translate(249.024,-590.8)">
				<title>工作表.247</title>
				<desc>4.</desc>
				<rect x="0" y="591.3" width="24.9449" height="22.6772" class="st1"/>
				<text x="7.97" y="606.1" class="st5">4.</text>			</g>
			<g id="shape248-111" transform="translate(302.882,-590.8)">
				<title>工作表.248</title>
				<desc>5.</desc>
				<rect x="0" y="591.3" width="24.9449" height="22.6772" class="st1"/>
				<text x="7.97" y="606.1" class="st5">5.</text>			</g>
			<g id="shape249-114" transform="translate(356.74,-590.8)">
				<title>工作表.249</title>
				<desc>◎</desc>
				<rect x="0" y="591.3" width="24.9449" height="22.6772" class="st1"/>
				<text x="6.47" y="606.51" class="st2">◎</text>			</g>
			<g id="shape250-117" transform="translate(82.9134,-551.115)">
				<title>工作表.250</title>
				<desc>(11)</desc>
				<rect x="0" y="591.3" width="34.0157" height="22.6772" class="st1"/>
				<text x="7.01" y="606.1" class="st5">(11)</text>			</g>
			<g id="shape256-120" transform="translate(137.1,-551.115)">
				<title>工作表.256</title>
				<desc>(1)</desc>
				<rect x="0" y="591.3" width="34.0157" height="22.6772" class="st1"/>
				<text x="10.01" y="606.1" class="st5">(1)</text>			</g>
			<g id="shape257-123" transform="translate(191.286,-551.115)">
				<title>工作表.257</title>
				<desc>(1)</desc>
				<rect x="0" y="591.3" width="34.0157" height="22.6772" class="st1"/>
				<text x="10.01" y="606.1" class="st5">(1)</text>			</g>
			<g id="shape258-126" transform="translate(245.473,-551.115)">
				<title>工作表.258</title>
				<desc>(58)</desc>
				<rect x="0" y="591.3" width="34.0157" height="22.6772" class="st1"/>
				<text x="7.01" y="606.1" class="st5">(58)</text>			</g>
			<g id="shape259-129" transform="translate(299.659,-551.115)">
				<title>工作表.259</title>
				<desc>(1)</desc>
				<rect x="0" y="591.3" width="34.0157" height="22.6772" class="st1"/>
				<text x="10.01" y="606.1" class="st5">(1)</text>			</g>
			<g id="shape260-132" transform="translate(353.846,-551.115)">
				<title>工作表.260</title>
				<desc>(3)</desc>
				<rect x="0" y="591.3" width="34.0157" height="22.6772" class="st1"/>
				<text x="10.01" y="606.1" class="st5">(3)</text>			</g>
			<g id="shape262-135" transform="translate(234.567,-434.894)">
				<title>工作表.262</title>
				<desc>(44)</desc>
				<rect x="0" y="591.3" width="34.0157" height="22.6772" class="st1"/>
				<text x="7.01" y="606.1" class="st5">(44)</text>			</g>
			<g id="shape263-138" transform="translate(258.054,-471.745)">
				<title>工作表.263</title>
				<desc>(14)</desc>
				<rect x="0" y="591.3" width="34.0157" height="22.6772" class="st1"/>
				<text x="7.01" y="606.1" class="st5">(14)</text>			</g>
			<g id="shape264-141" transform="translate(69.3071,-251.836)">
				<title>工作表.264</title>
				<desc>1.</desc>
				<rect x="0" y="591.3" width="24.9449" height="22.6772" class="st1"/>
				<text x="7.97" y="606.1" class="st5">1.</text>			</g>
			<g id="shape265-144" transform="translate(87.2821,-251.836)">
				<title>工作表.265</title>
				<desc>2.</desc>
				<rect x="0" y="591.3" width="24.9449" height="22.6772" class="st1"/>
				<text x="7.97" y="606.1" class="st5">2.</text>			</g>
			<g id="shape266-147" transform="translate(105.257,-251.836)">
				<title>工作表.266</title>
				<desc>3.</desc>
				<rect x="0" y="591.3" width="24.9449" height="22.6772" class="st1"/>
				<text x="7.97" y="606.1" class="st5">3.</text>			</g>
			<g id="shape267-150" transform="translate(123.232,-251.836)">
				<title>工作表.267</title>
				<desc>4.</desc>
				<rect x="0" y="591.3" width="24.9449" height="22.6772" class="st1"/>
				<text x="7.97" y="606.1" class="st5">4.</text>			</g>
			<g id="shape268-153" transform="translate(141.207,-251.836)">
				<title>工作表.268</title>
				<desc>5.</desc>
				<rect x="0" y="591.3" width="24.9449" height="22.6772" class="st1"/>
				<text x="7.97" y="606.1" class="st5">5.</text>			</g>
			<g id="shape269-156" transform="translate(159.182,-251.836)">
				<title>工作表.269</title>
				<desc>6.</desc>
				<rect x="0" y="591.3" width="24.9449" height="22.6772" class="st1"/>
				<text x="7.97" y="606.1" class="st5">6.</text>			</g>
			<g id="shape270-159" transform="translate(177.157,-251.836)">
				<title>工作表.270</title>
				<desc>7.</desc>
				<rect x="0" y="591.3" width="24.9449" height="22.6772" class="st1"/>
				<text x="7.97" y="606.1" class="st5">7.</text>			</g>
			<g id="shape271-162" transform="translate(195.132,-251.836)">
				<title>工作表.271</title>
				<desc>8.</desc>
				<rect x="0" y="591.3" width="24.9449" height="22.6772" class="st1"/>
				<text x="7.97" y="606.1" class="st5">8.</text>			</g>
			<g id="shape272-165" transform="translate(213.107,-251.836)">
				<title>工作表.272</title>
				<desc>9.</desc>
				<rect x="0" y="591.3" width="24.9449" height="22.6772" class="st1"/>
				<text x="7.97" y="606.1" class="st5">9.</text>			</g>
			<g id="shape273-168" transform="translate(231.082,-251.836)">
				<title>工作表.273</title>
				<desc>10.</desc>
				<rect x="0" y="591.3" width="24.9449" height="22.6772" class="st1"/>
				<text x="4.97" y="606.1" class="st5">10.</text>			</g>
			<g id="shape274-171" transform="translate(249.057,-251.836)">
				<title>工作表.274</title>
				<desc>11.</desc>
				<rect x="0" y="591.3" width="24.9449" height="22.6772" class="st1"/>
				<text x="4.97" y="606.1" class="st5">11.</text>			</g>
			<g id="shape275-174" transform="translate(267.032,-251.836)">
				<title>工作表.275</title>
				<desc>12.</desc>
				<rect x="0" y="591.3" width="24.9449" height="22.6772" class="st1"/>
				<text x="4.97" y="606.1" class="st5">12.</text>			</g>
			<g id="shape276-177" transform="translate(285.007,-251.836)">
				<title>工作表.276</title>
				<desc>13.</desc>
				<rect x="0" y="591.3" width="24.9449" height="22.6772" class="st1"/>
				<text x="4.97" y="606.1" class="st5">13.</text>			</g>
			<g id="shape277-180" transform="translate(302.982,-251.836)">
				<title>工作表.277</title>
				<desc>14.</desc>
				<rect x="0" y="591.3" width="24.9449" height="22.6772" class="st1"/>
				<text x="4.97" y="606.1" class="st5">14.</text>			</g>
			<g id="shape278-183" transform="translate(320.957,-251.836)">
				<title>工作表.278</title>
				<desc>15.</desc>
				<rect x="0" y="591.3" width="24.9449" height="22.6772" class="st1"/>
				<text x="4.97" y="606.1" class="st5">15.</text>			</g>
			<g id="shape279-186" transform="translate(338.932,-251.836)">
				<title>工作表.279</title>
				<desc>16.</desc>
				<rect x="0" y="591.3" width="24.9449" height="22.6772" class="st1"/>
				<text x="4.97" y="606.1" class="st5">16.</text>			</g>
			<g id="shape280-189" transform="translate(356.907,-251.836)">
				<title>工作表.280</title>
				<desc>17.</desc>
				<rect x="0" y="591.3" width="24.9449" height="22.6772" class="st1"/>
				<text x="4.97" y="606.1" class="st5">17.</text>			</g>
			<g id="shape281-192" transform="translate(374.882,-251.836)">
				<title>工作表.281</title>
				<desc>18.</desc>
				<rect x="0" y="591.3" width="24.9449" height="22.6772" class="st1"/>
				<text x="4.97" y="606.1" class="st5">18.</text>			</g>
			<g id="shape282-195" transform="translate(262.317,-212.27)">
				<title>工作表.282</title>
				<desc>(64)</desc>
				<rect x="0" y="591.3" width="34.0157" height="22.6772" class="st1"/>
				<text x="7.01" y="606.1" class="st5">(64)</text>			</g>
			<g id="shape283-198" transform="translate(253.898,-121.498)">
				<title>工作表.283</title>
				<desc>(46)</desc>
				<rect x="0" y="591.3" width="34.0157" height="22.6772" class="st1"/>
				<text x="7.01" y="606.1" class="st5">(46)</text>			</g>
			<g id="shape284-201" transform="translate(273.591,-121.528)">
				<title>工作表.284</title>
				<desc>(14)</desc>
				<rect x="0" y="591.3" width="34.0157" height="22.6772" class="st1"/>
				<text x="7.01" y="606.1" class="st5">(14)</text>			</g>
			<g id="shape285-204" transform="translate(236.592,-134.254)">
				<title>工作表.285</title>
				<desc>(1)</desc>
				<rect x="0" y="591.3" width="34.0157" height="22.6772" class="st1"/>
				<text x="10.01" y="606.1" class="st5">(1)</text>			</g>
			<g id="shape286-207" transform="translate(290.599,-147.039)">
				<title>工作表.286</title>
				<desc>(3)</desc>
				<rect x="0" y="591.3" width="34.0157" height="22.6772" class="st1"/>
				<text x="10.01" y="606.1" class="st5">(3)</text>			</g>
			<g id="shape287-210" transform="translate(124.299,-355.299)">
				<title>工作表.287</title>
				<desc>1.</desc>
				<rect x="0" y="591.3" width="24.9449" height="22.6772" class="st1"/>
				<text x="7.97" y="606.1" class="st5">1.</text>			</g>
			<g id="shape288-213" transform="translate(142.209,-355.299)">
				<title>工作表.288</title>
				<desc>2.</desc>
				<rect x="0" y="591.3" width="24.9449" height="22.6772" class="st1"/>
				<text x="7.97" y="606.1" class="st5">2.</text>			</g>
			<g id="shape289-216" transform="translate(160.119,-355.299)">
				<title>工作表.289</title>
				<desc>3.</desc>
				<rect x="0" y="591.3" width="24.9449" height="22.6772" class="st1"/>
				<text x="7.97" y="606.1" class="st5">3.</text>			</g>
			<g id="shape290-219" transform="translate(178.029,-355.299)">
				<title>工作表.290</title>
				<desc>4.</desc>
				<rect x="0" y="591.3" width="24.9449" height="22.6772" class="st1"/>
				<text x="7.97" y="606.1" class="st5">4.</text>			</g>
			<g id="shape291-222" transform="translate(195.938,-355.299)">
				<title>工作表.291</title>
				<desc>5.</desc>
				<rect x="0" y="591.3" width="24.9449" height="22.6772" class="st1"/>
				<text x="7.97" y="606.1" class="st5">5.</text>			</g>
			<g id="shape292-225" transform="translate(213.848,-355.299)">
				<title>工作表.292</title>
				<desc>6.</desc>
				<rect x="0" y="591.3" width="24.9449" height="22.6772" class="st1"/>
				<text x="7.97" y="606.1" class="st5">6.</text>			</g>
			<g id="shape293-228" transform="translate(231.758,-355.299)">
				<title>工作表.293</title>
				<desc>7.</desc>
				<rect x="0" y="591.3" width="24.9449" height="22.6772" class="st1"/>
				<text x="7.97" y="606.1" class="st5">7.</text>			</g>
			<g id="shape294-231" transform="translate(249.668,-355.299)">
				<title>工作表.294</title>
				<desc>8.</desc>
				<rect x="0" y="591.3" width="24.9449" height="22.6772" class="st1"/>
				<text x="7.97" y="606.1" class="st5">8.</text>			</g>
			<g id="shape295-234" transform="translate(267.578,-355.299)">
				<title>工作表.295</title>
				<desc>9.</desc>
				<rect x="0" y="591.3" width="24.9449" height="22.6772" class="st1"/>
				<text x="7.97" y="606.1" class="st5">9.</text>			</g>
			<g id="shape296-237" transform="translate(285.487,-355.299)">
				<title>工作表.296</title>
				<desc>10.</desc>
				<rect x="0" y="591.3" width="24.9449" height="22.6772" class="st1"/>
				<text x="4.97" y="606.1" class="st5">10.</text>			</g>
			<g id="shape297-240" transform="translate(303.397,-355.299)">
				<title>工作表.297</title>
				<desc>11.</desc>
				<rect x="0" y="591.3" width="24.9449" height="22.6772" class="st1"/>
				<text x="4.97" y="606.1" class="st5">11.</text>			</g>
			<g id="shape298-243" transform="translate(321.307,-355.299)">
				<title>工作表.298</title>
				<desc>12.</desc>
				<rect x="0" y="591.3" width="24.9449" height="22.6772" class="st1"/>
				<text x="4.97" y="606.1" class="st5">12.</text>			</g>
			<g id="shape299-246" transform="translate(114.094,-74.7898)">
				<title>工作表.299</title>
				<desc>1.</desc>
				<rect x="0" y="591.3" width="24.9449" height="22.6772" class="st1"/>
				<text x="7.97" y="606.1" class="st5">1.</text>			</g>
			<g id="shape300-249" transform="translate(168.094,-74.7898)">
				<title>工作表.300</title>
				<desc>2.</desc>
				<rect x="0" y="591.3" width="24.9449" height="22.6772" class="st1"/>
				<text x="7.97" y="606.1" class="st5">2.</text>			</g>
			<g id="shape301-252" transform="translate(222.094,-74.7898)">
				<title>工作表.301</title>
				<desc>3.</desc>
				<rect x="0" y="591.3" width="24.9449" height="22.6772" class="st1"/>
				<text x="7.97" y="606.1" class="st5">3.</text>			</g>
			<g id="shape302-255" transform="translate(276.094,-74.7898)">
				<title>工作表.302</title>
				<desc>4.</desc>
				<rect x="0" y="591.3" width="24.9449" height="22.6772" class="st1"/>
				<text x="7.97" y="606.1" class="st5">4.</text>			</g>
			<g id="shape303-258" transform="translate(330.094,-74.7898)">
				<title>工作表.303</title>
				<desc>5.</desc>
				<rect x="0" y="591.3" width="24.9449" height="22.6772" class="st1"/>
				<text x="7.97" y="606.1" class="st5">5.</text>			</g>
			<g id="shape304-261" transform="translate(109.843,-36.5221)">
				<title>工作表.304</title>
				<desc>(11)</desc>
				<rect x="0" y="591.3" width="34.0157" height="22.6772" class="st1"/>
				<text x="7.01" y="606.1" class="st5">(11)</text>			</g>
			<g id="shape305-264" transform="translate(164.055,-36.5221)">
				<title>工作表.305</title>
				<desc>(1)</desc>
				<rect x="0" y="591.3" width="34.0157" height="22.6772" class="st1"/>
				<text x="10.01" y="606.1" class="st5">(1)</text>			</g>
			<g id="shape306-267" transform="translate(218.268,-23.7663)">
				<title>工作表.306</title>
				<desc>(46)</desc>
				<rect x="0" y="591.3" width="34.0157" height="22.6772" class="st1"/>
				<text x="7.01" y="606.1" class="st5">(46)</text>			</g>
			<g id="shape307-270" transform="translate(272.48,0)">
				<title>工作表.307</title>
				<desc>(14)</desc>
				<rect x="0" y="591.3" width="34.0157" height="22.6772" class="st1"/>
				<text x="7.01" y="606.1" class="st5">(14)</text>			</g>
			<g id="shape308-273" transform="translate(326.693,-23.7663)">
				<title>工作表.308</title>
				<desc>(3)</desc>
				<rect x="0" y="591.3" width="34.0157" height="22.6772" class="st1"/>
				<text x="10.01" y="606.1" class="st5">(3)</text>			</g>
			<g id="shape309-276" transform="translate(135.152,-383.268)">
				<title>工作表.309</title>
				<path d="M0 613.98 L71.07 613.98" class="st4"/>
			</g>
			<g id="shape310-279" transform="translate(820.197,230.709) rotate(90)">
				<title>工作表.310</title>
				<path d="M0 613.98 L9.43 613.98" class="st4"/>
			</g>
			<g id="shape311-282" transform="translate(749.129,230.709) rotate(90)">
				<title>工作表.311</title>
				<path d="M0 613.98 L9.43 613.98" class="st4"/>
			</g>
			<g id="shape312-285" transform="translate(242.97,-383.268)">
				<title>工作表.312</title>
				<path d="M0 613.98 L71.07 613.98" class="st4"/>
			</g>
			<g id="shape313-288" transform="translate(928.015,230.709) rotate(90)">
				<title>工作表.313</title>
				<path d="M0 613.98 L9.43 613.98" class="st4"/>
			</g>
			<g id="shape314-291" transform="translate(856.947,230.709) rotate(90)">
				<title>工作表.314</title>
				<path d="M0 613.98 L9.43 613.98" class="st4"/>
			</g>
			<g id="shape317-294" transform="translate(587.482,-245.862) rotate(55.2657)">
				<title>工作表.317</title>
				<path d="M0 613.98 L154.23 613.98" class="st4"/>
			</g>
			<g id="shape318-297" transform="translate(460.472,-394.023) rotate(35.798)">
				<title>工作表.318</title>
				<path d="M0 613.98 L216.68 613.98" class="st4"/>
			</g>
			<g id="shape319-300" transform="translate(430.922,-415.538) rotate(30.1643)">
				<title>工作表.319</title>
				<path d="M0 613.98 L240.21 613.98" class="st4"/>
			</g>
			<g id="shape320-303" transform="translate(629.427,-308.145) rotate(37.4806)">
				<title>工作表.320</title>
				<path d="M0 613.98 L93.39 613.98" class="st4"/>
			</g>
			<g id="shape321-306" transform="translate(811.919,-159.301) rotate(60.5861)">
				<title>工作表.321</title>
				<path d="M0 613.98 L107.65 613.98" class="st4"/>
			</g>
			<g id="shape322-309" transform="translate(702.424,-218.313) rotate(62.7447)">
				<title>工作表.322</title>
				<path d="M0 613.98 L105.23 613.98" class="st4"/>
			</g>
			<g id="shape323-312" transform="translate(532.976,-362.507) rotate(32.3102)">
				<title>工作表.323</title>
				<path d="M0 613.98 L148.92 613.98" class="st4"/>
			</g>
			<g id="shape324-315" transform="translate(815.038,-34.1403) rotate(80.9097)">
				<title>工作表.324</title>
				<path d="M0 613.98 L100.47 613.98" class="st4"/>
			</g>
			<g id="shape325-318" transform="translate(577.097,-340.663) rotate(35.0329)">
				<title>工作表.325</title>
				<path d="M0 613.98 L128.78 613.98" class="st4"/>
			</g>
			<g id="shape326-321" transform="translate(-210.069,-198.146) rotate(-45)">
				<title>工作表.326</title>
				<path d="M0 613.98 L104.68 613.98" class="st4"/>
			</g>
			<g id="shape327-324" transform="translate(919.623,193.046) rotate(102.242)">
				<title>工作表.327</title>
				<path d="M0 613.98 L101.42 613.98" class="st4"/>
			</g>
			<g id="shape329-327" transform="translate(135.152,906.446) scale(1,-1)">
				<title>工作表.329</title>
				<path d="M0 613.98 L71.07 613.98" class="st4"/>
			</g>
			<g id="shape330-330" transform="translate(820.197,292.469) rotate(90) scale(-1,1)">
				<title>工作表.330</title>
				<path d="M0 613.98 L9.43 613.98" class="st4"/>
			</g>
			<g id="shape331-333" transform="translate(749.129,292.469) rotate(90) scale(-1,1)">
				<title>工作表.331</title>
				<path d="M0 613.98 L9.43 613.98" class="st4"/>
			</g>
			<g id="shape333-336" transform="translate(242.97,906.446) scale(1,-1)">
				<title>工作表.333</title>
				<path d="M0 613.98 L71.07 613.98" class="st4"/>
			</g>
			<g id="shape334-339" transform="translate(928.015,292.469) rotate(90) scale(-1,1)">
				<title>工作表.334</title>
				<path d="M0 613.98 L9.43 613.98" class="st4"/>
			</g>
			<g id="shape335-342" transform="translate(856.947,292.469) rotate(90) scale(-1,1)">
				<title>工作表.335</title>
				<path d="M0 613.98 L9.43 613.98" class="st4"/>
			</g>
			<g id="shape336-345" transform="translate(759.673,728.479) rotate(136.079)">
				<title>工作表.336</title>
				<path d="M0 613.98 L76.74 613.98" class="st4"/>
			</g>
			<g id="shape338-348" transform="translate(80.0787,-282.284)">
				<title>工作表.338</title>
				<path d="M0 613.98 L71.07 613.98" class="st4"/>
			</g>
			<g id="shape339-351" transform="translate(765.124,331.693) rotate(90)">
				<title>工作表.339</title>
				<path d="M0 613.98 L9.43 613.98" class="st4"/>
			</g>
			<g id="shape340-354" transform="translate(694.056,331.693) rotate(90)">
				<title>工作表.340</title>
				<path d="M0 613.98 L9.43 613.98" class="st4"/>
			</g>
			<g id="shape342-357" transform="translate(189.111,-282.284)">
				<title>工作表.342</title>
				<path d="M0 613.98 L71.07 613.98" class="st4"/>
			</g>
			<g id="shape343-360" transform="translate(874.157,331.693) rotate(90)">
				<title>工作表.343</title>
				<path d="M0 613.98 L9.43 613.98" class="st4"/>
			</g>
			<g id="shape344-363" transform="translate(803.088,331.693) rotate(90)">
				<title>工作表.344</title>
				<path d="M0 613.98 L9.43 613.98" class="st4"/>
			</g>
			<g id="shape346-366" transform="translate(296.828,-282.284)">
				<title>工作表.346</title>
				<path d="M0 613.98 L89.39 613.98" class="st4"/>
			</g>
			<g id="shape347-369" transform="translate(1000.2,331.693) rotate(90)">
				<title>工作表.347</title>
				<path d="M0 613.98 L9.43 613.98" class="st4"/>
			</g>
			<g id="shape348-372" transform="translate(910.805,331.693) rotate(90)">
				<title>工作表.348</title>
				<path d="M0 613.98 L9.43 613.98" class="st4"/>
			</g>
			<g id="shape351-375" transform="translate(80.0787,1008.49) scale(1,-1)">
				<title>工作表.351</title>
				<path d="M0 613.98 L71.07 613.98" class="st4"/>
			</g>
			<g id="shape352-378" transform="translate(765.124,394.516) rotate(90) scale(-1,1)">
				<title>工作表.352</title>
				<path d="M0 613.98 L9.43 613.98" class="st4"/>
			</g>
			<g id="shape353-381" transform="translate(694.056,394.516) rotate(90) scale(-1,1)">
				<title>工作表.353</title>
				<path d="M0 613.98 L9.43 613.98" class="st4"/>
			</g>
			<g id="shape355-384" transform="translate(189.111,1008.49) scale(1,-1)">
				<title>工作表.355</title>
				<path d="M0 613.98 L71.07 613.98" class="st4"/>
			</g>
			<g id="shape356-387" transform="translate(874.157,394.516) rotate(90) scale(-1,1)">
				<title>工作表.356</title>
				<path d="M0 613.98 L9.43 613.98" class="st4"/>
			</g>
			<g id="shape357-390" transform="translate(803.088,394.516) rotate(90) scale(-1,1)">
				<title>工作表.357</title>
				<path d="M0 613.98 L9.43 613.98" class="st4"/>
			</g>
			<g id="shape359-393" transform="translate(296.828,1021.71) scale(1,-1)">
				<title>工作表.359</title>
				<path d="M0 613.98 L89.39 613.98" class="st4"/>
			</g>
			<g id="shape360-396" transform="translate(1000.2,407.732) rotate(90) scale(-1,1)">
				<title>工作表.360</title>
				<path d="M0 613.98 L9.43 613.98" class="st4"/>
			</g>
			<g id="shape361-399" transform="translate(910.805,407.732) rotate(90) scale(-1,1)">
				<title>工作表.361</title>
				<path d="M0 613.98 L9.43 613.98" class="st4"/>
			</g>
			<g id="shape362-402" transform="translate(630.673,797.378) rotate(145.322)">
				<title>工作表.362</title>
				<path d="M0 613.98 L68.94 613.98" class="st4"/>
			</g>
			<g id="shape363-405" transform="translate(522.956,797.378) rotate(145.322)">
				<title>工作表.363</title>
				<path d="M0 613.98 L68.94 613.98" class="st4"/>
			</g>
			<g id="shape364-408" transform="translate(675.754,697.626) rotate(132.715)">
				<title>工作表.364</title>
				<path d="M0 613.98 L79.4 613.98" class="st4"/>
			</g>
			<g id="shape365-411" transform="translate(169.748,921.095) rotate(-163.734)">
				<title>工作表.365</title>
				<path d="M0 613.98 L121.95 613.98" class="st4"/>
			</g>
			<g id="shape366-414" transform="translate(838.539,281.22) rotate(90)">
				<title>工作表.366</title>
				<path d="M0 613.98 L16.22 613.98" class="st4"/>
			</g>
			<g id="shape367-417" transform="translate(730.126,353.873) rotate(86.2045)">
				<title>工作表.367</title>
				<path d="M0 613.98 L122.21 613.98" class="st4"/>
			</g>
			<g id="shape368-420" transform="translate(783.439,347.085) rotate(86.3561)">
				<title>工作表.368</title>
				<path d="M0 613.98 L130.67 613.98" class="st4"/>
			</g>
			<g id="shape369-423" transform="translate(698.442,788.423) rotate(129.909)">
				<title>工作表.369</title>
				<path d="M0 613.98 L159.03 613.98" class="st4"/>
			</g>
			<g id="shape370-426" transform="translate(433.215,1063.93) rotate(162.791)">
				<title>工作表.370</title>
				<path d="M0 613.98 L132.04 613.98" class="st4"/>
			</g>
			<g id="shape371-429" transform="translate(628.109,989.349) rotate(144.492)">
				<title>工作表.371</title>
				<path d="M0 613.98 L46.41 613.98" class="st4"/>
			</g>
			<g id="shape372-432" transform="translate(902.23,535.05) rotate(94.1242)">
				<title>工作表.372</title>
				<path d="M0 613.98 L26.82 613.98" class="st4"/>
			</g>
			<g id="shape373-435" transform="translate(813.104,119.555) rotate(55.5427)">
				<title>工作表.373</title>
				<path d="M0 613.98 L61.42 613.98" class="st4"/>
			</g>
			<g id="shape374-438" transform="translate(82.3309,-89.7626) rotate(-9.0863)">
				<title>工作表.374</title>
				<path d="M0 613.98 L126.31 613.98" class="st4"/>
			</g>
			<g id="shape375-441" transform="translate(907.982,642.994) rotate(112.531)">
				<title>工作表.375</title>
				<path d="M0 613.98 L96.17 613.98" class="st4"/>
			</g>
			<g id="shape376-444" transform="translate(7.99361E-15,-315.839)">
				<title>工作表.376</title>
				<desc>十二處</desc>
				<rect x="0" y="551.615" width="57.4016" height="62.3622" class="st1"/>
				<text x="28.7" y="555.61" writing-mode="tb-rl" class="st6">十二處</text>			</g>
			<g id="shape377-447" transform="translate(7.99361E-15,-208.123)">
				<title>工作表.377</title>
				<desc>十八界</desc>
				<rect x="0" y="551.615" width="57.4016" height="62.3622" class="st1"/>
				<text x="28.7" y="555.61" writing-mode="tb-rl" class="st6">十八界</text>			</g>
			<g id="shape378-450" transform="translate(7.99361E-15,-548.28)">
				<title>工作表.378</title>
				<desc>五　蘊</desc>
				<rect x="0" y="551.615" width="57.4016" height="62.3622" class="st1"/>
				<text x="28.7" y="555.61" writing-mode="tb-rl" class="st6">五　蘊</text>			</g>
			<g id="shape379-453" transform="translate(7.99361E-15,-32.3746)">
				<title>工作表.379</title>
				<desc>五　位</desc>
				<rect x="0" y="551.615" width="57.4016" height="62.3622" class="st1"/>
				<text x="28.7" y="555.61" writing-mode="tb-rl" class="st6">五　位</text>			</g>
		</g>
	</g>
</svg>
