<?xml version="1.0" encoding="UTF-8" standalone="no"?>
<!DOCTYPE svg PUBLIC "-//W3C//DTD SVG 1.1//EN" "http://www.w3.org/Graphics/SVG/1.1/DTD/svg11.dtd">
<!-- 由 Microsoft Visio, SVG Export 產生 A01703.svg 頁-1 -->
<svg xmlns="http://www.w3.org/2000/svg" xmlns:xlink="http://www.w3.org/1999/xlink" xmlns:ev="http://www.w3.org/2001/xml-events"
		xmlns:v="http://schemas.microsoft.com/visio/2003/SVGExtensions/" width="3.17635in" height="0.605606in"
		viewBox="0 0 228.697 43.6036" xml:space="preserve" color-interpolation-filters="sRGB" class="st6">
	<v:documentProperties v:langID="1028" v:viewMarkup="false"/>

	<style type="text/css">
	<![CDATA[
		.st1 {fill:none;stroke:none;stroke-linecap:butt;stroke-width:0.75}
		.st2 {fill:#000000;font-family:新細明體;font-size:0.833336em}
		.st3 {font-size:1em}
		.st4 {fill:none}
		.st5 {stroke:#040000;stroke-linecap:round;stroke-linejoin:round;stroke-width:0.705463}
		.st6 {fill:none;fill-rule:evenodd;font-size:12px;overflow:visible;stroke-linecap:square;stroke-miterlimit:3}
	]]>
	</style>

	<g v:mID="0" v:index="1" v:groupContext="foregroundPage">
		<title>頁-1</title>
		<v:pageProperties v:drawingScale="0.0393701" v:pageScale="0.0393701" v:drawingUnits="24" v:shadowOffsetX="9"
				v:shadowOffsetY="-9"/>
		<g id="shape1-1" v:mID="1" v:groupContext="shape" transform="translate(50.7815,-1.03812)">
			<title>工作表.1</title>
			<desc>止大苦故小苦為樂 故苦為苦新苦為樂 婬樂似樂大苦轉深</desc>
			<v:textBlock v:margins="rect(0,0,0,0)" v:tabSpace="42.5197"/>
			<v:textRect cx="42.1771" cy="22.8398" width="84.36" height="41.5276"/>
			<rect x="0" y="2.07605" width="84.3543" height="41.5276" class="st1"/>
			<text x="-0" y="11.94" class="st2" v:langID="1028"><v:paragraph v:spLine="-1.4"/><v:tabList/>止大苦故小苦為樂<v:newlineChar/><tspan
						x="-0" dy="1.453em" class="st3">故苦為苦新苦為樂<v:newlineChar/></tspan><tspan x="-0" dy="1.453em" class="st3">婬樂似樂大苦轉深</tspan></text>		</g>
		<g id="shape2-6" v:mID="2" v:groupContext="shape" transform="translate(164.474,-28.256)">
			<title>工作表.2</title>
			<desc>愚惑以之為樂</desc>
			<v:textBlock v:margins="rect(0,0,0,0)" v:tabSpace="42.5197"/>
			<v:textRect cx="31.7362" cy="36.8312" width="63.48" height="13.5449"/>
			<rect x="0" y="30.0587" width="63.4725" height="13.5449" class="st1"/>
			<text x="-0" y="39.95" class="st2" v:langID="1028"><v:paragraph/><v:tabList/>愚惑以之為樂</text>		</g>
		<g id="shape3-9" v:mID="3" v:groupContext="shape" transform="translate(0.75,-14.8991)">
			<title>工作表.3</title>
			<desc>樂受是苦</desc>
			<v:textBlock v:margins="rect(0,0,0,0)" v:tabSpace="42.5197"/>
			<v:textRect cx="22.5748" cy="36.8312" width="45.15" height="13.5449"/>
			<rect x="0" y="30.0587" width="45.1496" height="13.5449" class="st1"/>
			<text x="-0" y="39.95" class="st2" v:langID="1028"><v:paragraph/><v:tabList/>樂受是苦</text>		</g>
		<g id="shape6-12" v:mID="6" v:groupContext="shape" transform="translate(164.474,-1.93532)">
			<title>工作表.6</title>
			<desc>聖人知實是苦</desc>
			<v:textBlock v:margins="rect(0,0,0,0)" v:tabSpace="42.5197"/>
			<v:textRect cx="31.7362" cy="36.8312" width="63.48" height="13.5449"/>
			<rect x="0" y="30.0587" width="63.4725" height="13.5449" class="st1"/>
			<text x="-0" y="39.95" class="st2" v:langID="1028"><v:paragraph/><v:tabList/>聖人知實是苦</text>		</g>
		<g id="shape13-15" v:mID="13" v:groupContext="shape" transform="translate(85.8812,8.42027) rotate(90)">
			<title>工作表.13</title>
			<path d="M0 35.27 C0 37.59 1.05 39.44 2.36 39.44 L11.81 39.44 C13.12 39.44 14.17 41.34 14.17 43.6 C14.17 41.34 15.22
						 39.44 16.54 39.44 L25.98 39.44 C27.3 39.44 28.35 37.59 28.35 35.27 L0 35.27 Z" class="st4"/>
			<path d="M0 35.27 C0 37.59 1.05 39.44 2.36 39.44 L11.81 39.44 C13.12 39.44 14.17 41.34 14.17 43.6 C14.17 41.34 15.22
						 39.44 16.54 39.44 L25.98 39.44 C27.3 39.44 28.35 37.59 28.35 35.27" class="st5"/>
		</g>
		<g id="shape14-18" v:mID="14" v:groupContext="shape" transform="translate(117.894,-14.1836) rotate(-32.4948)">
			<title>工作表.14</title>
			<path d="M0 43.6 L24.32 43.6" class="st5"/>
		</g>
		<g id="shape15-21" v:mID="15" v:groupContext="shape" transform="translate(161.843,-15.8781) rotate(28.0788)">
			<title>工作表.15</title>
			<path d="M0 43.6 L24.39 43.6" class="st5"/>
		</g>
		<g id="shape19-24" v:mID="19" v:groupContext="shape" transform="translate(97.7155,36.7667) rotate(-90)">
			<title>工作表.19</title>
			<path d="M0 35.27 C0 37.59 1.05 39.44 2.36 39.44 L11.81 39.44 C13.12 39.44 14.17 41.34 14.17 43.6 C14.17 41.34 15.22
						 39.44 16.54 39.44 L25.98 39.44 C27.3 39.44 28.35 37.59 28.35 35.27 L0 35.27 Z" class="st4"/>
			<path d="M0 35.27 C0 37.59 1.05 39.44 2.36 39.44 L11.81 39.44 C13.12 39.44 14.17 41.34 14.17 43.6 C14.17 41.34 15.22
						 39.44 16.54 39.44 L25.98 39.44 C27.3 39.44 28.35 37.59 28.35 35.27" class="st5"/>
		</g>
	</g>
</svg>
