<?xml version="1.0" encoding="UTF-8" standalone="no"?>
<!DOCTYPE svg PUBLIC "-//W3C//DTD SVG 1.1//EN" "http://www.w3.org/Graphics/SVG/1.1/DTD/svg11.dtd">
<!-- 由 Microsoft Visio, SVG Export 產生 A01801.svg 頁-1 -->
<svg xmlns="http://www.w3.org/2000/svg" xmlns:xlink="http://www.w3.org/1999/xlink" xmlns:ev="http://www.w3.org/2001/xml-events"
		xmlns:v="http://schemas.microsoft.com/visio/2003/SVGExtensions/" width="5.5976in" height="0.607684in"
		viewBox="0 0 403.028 43.7532" xml:space="preserve" color-interpolation-filters="sRGB" class="st7">
	<v:documentProperties v:langID="1028" v:viewMarkup="false"/>

	<style type="text/css">
	<![CDATA[
		.st1 {fill:none;stroke:none;stroke-linecap:butt;stroke-width:0.75}
		.st2 {fill:#000000;font-family:新細明體;font-size:0.833336em}
		.st3 {font-size:1em}
		.st4 {fill:none}
		.st5 {stroke:#040000;stroke-linecap:round;stroke-linejoin:round;stroke-width:0.705463}
		.st6 {fill:#19499d;font-size:1em}
		.st7 {fill:none;fill-rule:evenodd;font-size:12px;overflow:visible;stroke-linecap:square;stroke-miterlimit:3}
	]]>
	</style>

	<g v:mID="0" v:index="1" v:groupContext="foregroundPage">
		<title>頁-1</title>
		<v:pageProperties v:drawingScale="0.0393701" v:pageScale="0.0393701" v:drawingUnits="24" v:shadowOffsetX="9"
				v:shadowOffsetY="-9"/>
		<g id="shape1-1" v:mID="1" v:groupContext="shape" transform="translate(72.7278,-0.75)">
			<title>工作表.1</title>
			<desc>一、屬因緣故。 三、無常相常隨逐故。 五、相侵剋故。</desc>
			<v:textBlock v:margins="rect(0,0,0,0)" v:tabSpace="42.5197"/>
			<v:textRect cx="51.3891" cy="22.6266" width="102.78" height="42.2532"/>
			<rect x="0" y="1.5" width="102.778" height="42.2532" class="st1"/>
			<text x="-0" y="11.73" class="st2" v:langID="1028"><v:paragraph v:spLine="-1.4"/><v:tabList/>一、屬因緣故。<v:newlineChar/><tspan
						x="-0" dy="1.453em" class="st3">三</tspan>、無常相常隨逐故。<v:newlineChar/><tspan x="-0" dy="1.453em" class="st3">五</tspan>、相侵剋故。</text>		</g>
		<g id="shape4-6" v:mID="4" v:groupContext="shape" transform="translate(0.75,-14.9737)">
			<title>工作表.4</title>
			<desc>有為法皆無常</desc>
			<v:textBlock v:margins="rect(0,0,0,0)" v:tabSpace="42.5197"/>
			<v:textRect cx="33.8622" cy="36.9808" width="67.73" height="13.5449"/>
			<rect x="0" y="30.2083" width="67.7245" height="13.5449" class="st1"/>
			<text x="0" y="40.1" class="st2" v:langID="1028"><v:paragraph/><v:tabList/>有為法皆無常</text>		</g>
		<g id="shape18-9" v:mID="18" v:groupContext="shape" transform="translate(105.873,7.26967) rotate(90)">
			<title>工作表.18</title>
			<path d="M0 34.83 C0 37.28 1.12 39.29 2.54 39.29 L12.63 39.29 C13.99 39.29 15.17 41.3 15.17 43.75 C15.17 41.3 16.29 39.29
						 17.7 39.29 L27.79 39.29 C29.15 39.29 30.33 37.28 30.33 34.83 L0 34.83 Z" class="st4"/>
			<path d="M0 34.83 C0 37.28 1.12 39.29 2.54 39.29 L12.63 39.29 C13.99 39.29 15.17 41.3 15.17 43.75 C15.17 41.3 16.29 39.29
						 17.7 39.29 L27.79 39.29 C29.15 39.29 30.33 37.28 30.33 34.83" class="st5"/>
		</g>
		<g id="shape21-12" v:mID="21" v:groupContext="shape" transform="translate(199.6,-0.75)">
			<title>工作表.21</title>
			<desc>二、今有後無本無今有故。 四、無有增積故。〔增積大正藏增損〕 六、老死常逐故。</desc>
			<v:textBlock v:margins="rect(0,0,0,0)" v:tabSpace="42.5197"/>
			<v:textRect cx="101.339" cy="22.6266" width="202.68" height="42.2532"/>
			<rect x="0" y="1.5" width="202.677" height="42.2532" class="st1"/>
			<text x="0" y="11.73" class="st2" v:langID="1028"><v:paragraph v:spLine="-1.4"/><v:tabList/>二、今有後無，本無今有故。<v:newlineChar/><tspan
						x="0" dy="1.453em" class="st3">四</tspan>、無有增積故。<tspan class="st6">〔</tspan><tspan class="st6">增積</tspan><tspan
						class="st6">＝（</tspan><tspan class="st6">大正藏</tspan><tspan class="st6">）</tspan><tspan class="st6">增損</tspan><tspan
						class="st6">〕<v:newlineChar/></tspan><tspan x="0" dy="1.453em" class="st3">六</tspan>、老死常逐故。</text>		</g>
	</g>
</svg>
