<?xml version="1.0" encoding="UTF-8" standalone="no"?>
<!DOCTYPE svg PUBLIC "-//W3C//DTD SVG 1.1//EN" "http://www.w3.org/Graphics/SVG/1.1/DTD/svg11.dtd">
<!-- 由 Microsoft Visio, SVG Export 產生 A01704.svg 頁-1 -->
<svg xmlns="http://www.w3.org/2000/svg" xmlns:xlink="http://www.w3.org/1999/xlink" xmlns:ev="http://www.w3.org/2001/xml-events"
		xmlns:v="http://schemas.microsoft.com/visio/2003/SVGExtensions/" width="2.58913in" height="0.40374in"
		viewBox="0 0 186.418 29.0693" xml:space="preserve" color-interpolation-filters="sRGB" class="st7">
	<v:documentProperties v:langID="1028" v:viewMarkup="false"/>

	<style type="text/css">
	<![CDATA[
		.st1 {fill:none;stroke:none;stroke-linecap:butt;stroke-width:0.75}
		.st2 {fill:#000000;font-family:新細明體;font-size:0.833336em}
		.st3 {font-family:Times New Roman;font-size:1em}
		.st4 {font-size:1em}
		.st5 {fill:none}
		.st6 {stroke:#040000;stroke-linecap:round;stroke-linejoin:round;stroke-width:0.705463}
		.st7 {fill:none;fill-rule:evenodd;font-size:12px;overflow:visible;stroke-linecap:square;stroke-miterlimit:3}
	]]>
	</style>

	<g v:mID="0" v:index="1" v:groupContext="foregroundPage">
		<title>頁-1</title>
		<v:pageProperties v:drawingScale="0.0393701" v:pageScale="0.0393701" v:drawingUnits="24" v:shadowOffsetX="9"
				v:shadowOffsetY="-9"/>
		<g id="shape1-1" v:mID="1" v:groupContext="shape" transform="translate(51.7083,-0.877133)">
			<title>工作表.1</title>
			<desc>內苦——老病死等 外苦——刀杖、寒熱、飢渴等</desc>
			<v:textBlock v:margins="rect(0,0,0,0)" v:tabSpace="42.5197"/>
			<v:textRect cx="66.9796" cy="15.4117" width="133.96" height="27.3152"/>
			<rect x="0" y="1.75412" width="133.959" height="27.3152" class="st1"/>
			<text x="0" y="11.78" class="st2" v:langID="1028"><v:paragraph v:spLine="-1.4"/><v:tabList/>內苦<tspan class="st3">——</tspan>老病死等<v:newlineChar/><tspan
						x="0" dy="1.453em" class="st4">外苦</tspan><tspan class="st3">——</tspan>刀杖、寒熱、飢渴等</text>		</g>
		<g id="shape2-7" v:mID="2" v:groupContext="shape" transform="translate(0.75,-7.11602)">
			<title>工作表.2</title>
			<desc>內外二苦</desc>
			<v:textBlock v:margins="rect(0,0,0,0)" v:tabSpace="42.5197"/>
			<v:textRect cx="22.5748" cy="22.2968" width="45.15" height="13.5449"/>
			<rect x="0" y="15.5244" width="45.1496" height="13.5449" class="st1"/>
			<text x="0" y="25.41" class="st2" v:langID="1028"><v:paragraph/><v:tabList/>內外二苦</text>		</g>
		<g id="shape11-10" v:mID="11" v:groupContext="shape" transform="translate(71.3468,6.92016) rotate(90)">
			<title>工作表.11</title>
			<path d="M0 21.75 C0 23.77 0.6 25.41 1.36 25.41 L6.75 25.41 C7.51 25.41 8.11 27.05 8.11 29.07 C8.11 27.05 8.71 25.41
						 9.44 25.41 L14.83 25.41 C15.58 25.41 16.16 23.77 16.16 21.75 L0 21.75 Z" class="st5"/>
			<path d="M0 21.75 C0 23.77 0.6 25.41 1.36 25.41 L6.75 25.41 C7.51 25.41 8.11 27.05 8.11 29.07 C8.11 27.05 8.71 25.41
						 9.44 25.41 L14.83 25.41 C15.58 25.41 16.16 23.77 16.16 21.75" class="st6"/>
		</g>
	</g>
</svg>
