<?xml version="1.0" encoding="UTF-8" standalone="no"?>
<!DOCTYPE svg PUBLIC "-//W3C//DTD SVG 1.1//EN" "http://www.w3.org/Graphics/SVG/1.1/DTD/svg11.dtd">
<!-- 由 Microsoft Visio, SVG Export 產生 M020.061.svg 頁-1 -->
<svg xmlns="http://www.w3.org/2000/svg" xmlns:xlink="http://www.w3.org/1999/xlink" xmlns:ev="http://www.w3.org/2001/xml-events"
		width="8.43955in" height="0.893956in" viewBox="0 0 607.647 64.3648" xml:space="preserve" color-interpolation-filters="sRGB"
		class="st14">
	<style type="text/css">
	<![CDATA[
		.st1 {fill:none;stroke:none;stroke-linecap:butt;stroke-width:1.47541}
		.st2 {fill:none;stroke:none;stroke-linecap:butt;stroke-width:0.75}
		.st3 {fill:#000000;font-family:微軟正黑體;font-size:1.22951em}
		.st4 {fill:none;stroke:none;stroke-width:0.999999}
		.st5 {fill:none}
		.st6 {stroke:#000000;stroke-linecap:round;stroke-linejoin:round;stroke-width:1.10656}
		.st7 {stroke:none;stroke-linecap:butt;stroke-width:1.47541}
		.st8 {stroke:#000000;stroke-linecap:round;stroke-linejoin:round;stroke-width:0.368852}
		.st9 {fill:#000000;stroke:none;stroke-linecap:butt;stroke-width:1.47541}
		.st10 {fill:none;stroke:none;stroke-linecap:round;stroke-linejoin:round;stroke-width:0.75}
		.st11 {stroke:#000000;stroke-dasharray:0,2.25;stroke-linecap:round;stroke-linejoin:round;stroke-width:0.75}
		.st12 {marker-end:url(#mrkr5-270);marker-start:url(#mrkr5-268);stroke:#000000;stroke-linecap:round;stroke-linejoin:round;stroke-width:0.75}
		.st13 {fill:#000000;fill-opacity:1;stroke:#000000;stroke-opacity:1;stroke-width:0.22935779816514}
		.st14 {fill:none;fill-rule:evenodd;font-size:12px;overflow:visible;stroke-linecap:square;stroke-miterlimit:3}
	]]>
	</style>

	<defs id="Markers">
		<g id="lend5">
			<path d="M 2 1 L 0 0 L 1.98117 -0.993387 C 1.67173 -0.364515 1.67301 0.372641 1.98465 1.00043 " style="stroke:none"/>
		</g>
		<marker id="mrkr5-268" class="st13" refX="0" orient="auto" markerUnits="strokeWidth" overflow="visible">
			<use xlink:href="#lend5" transform="scale(4.36) "/>
		</marker>
		<marker id="mrkr5-270" class="st13" refX="-7.63" orient="auto" markerUnits="strokeWidth" overflow="visible">
			<use xlink:href="#lend5" transform="scale(-4.36,-4.36) "/>
		</marker>
	</defs>
	<g>
		<title>頁-1</title>
		<g id="group180-1" transform="translate(1.47541,-1.47541)">
			<title>工作表.180</title>
			<g id="group3-2" transform="translate(-1.19904E-14,-21.3296)">
				<title>工作表.127</title>
				<desc>三三昧</desc>
				<g id="group4-3">
					<title>工作表.3</title>
					<g id="group5-4">
						<title>工作表.4</title>
						<g id="shape6-5">
							<title>工作表.6</title>
							<rect x="0" y="41.3484" width="57.0984" height="23.0164" class="st1"/>
						</g>
					</g>
				</g>
				<g id="group7-7" transform="translate(5.8652,-2.11356)">
					<title>工作表.4</title>
					<desc>三三昧</desc>
					<g id="group8-8" transform="translate(0.0364426,-0.537978)">
						<title>工作表.6</title>
						<g id="shape9-9">
							<title>工作表.9</title>
							<rect x="0" y="46.6599" width="44.2623" height="17.7049" class="st1"/>
						</g>
					</g>
					<g id="group10-11">
						<title>工作表.7</title>
						<desc>三三昧</desc>
						<g id="shape11-12" transform="translate(2.07834E-13,-0.501536)">
							<title>工作表.11</title>
							<rect x="0" y="46.6599" width="44.2623" height="17.7049" class="st2"/>
						</g>
						<g id="shape12-14">
							<title>工作表.12</title>
							<desc>三三昧</desc>
							<rect x="0" y="46.6599" width="44.2623" height="17.7049" class="st2"/>
							<text x="0" y="59.94" class="st3">三三昧</text>						</g>
					</g>
				</g>
			</g>
			<g id="group13-17" transform="translate(62.6868,96.593) rotate(180)">
				<title>工作表.177</title>
				<g id="group14-18">
					<title>工作表.6</title>
					<g id="group15-19">
						<title>工作表.10</title>
						<g id="shape16-20">
							<title>工作表.16</title>
							<path d="M0 64.36 L9.74 64.36 L0 64.36 Z" class="st1"/>
						</g>
					</g>
				</g>
				<g id="group17-22">
					<title>工作表.7</title>
					<g id="group18-23">
						<title>工作表.12</title>
						<g id="shape19-24">
							<title>工作表.19</title>
							<path d="M0 64.36 L9.74 64.36 L0 64.36 Z" class="st1"/>
						</g>
					</g>
					<g id="group20-26">
						<title>工作表.13</title>
						<g id="shape21-27">
							<title>工作表.21</title>
							<path d="M0 64.36 L9.74 64.36 L0 64.36 Z" class="st4"/>
						</g>
						<g id="shape22-29">
							<title>工作表.22</title>
							<path d="M0 64.36 L9.74 64.36 L0 64.36 Z" class="st5"/>
							<path d="M0 64.36 L9.74 64.36" class="st6"/>
						</g>
					</g>
				</g>
			</g>
			<g id="group23-32" transform="translate(62.6868,-11.8276)">
				<title>工作表.179</title>
				<g id="group24-33">
					<title>工作表.9</title>
					<g id="group25-34">
						<title>工作表.16</title>
						<g id="shape26-35">
							<title>工作表.26</title>
							<path d="M0 64.36 L9.74 64.36 L0 64.36 Z" class="st1"/>
						</g>
					</g>
				</g>
				<g id="group27-37">
					<title>工作表.10</title>
					<g id="group28-38">
						<title>工作表.18</title>
						<g id="shape29-39">
							<title>工作表.29</title>
							<path d="M0 64.36 L9.74 64.36 L0 64.36 Z" class="st1"/>
						</g>
					</g>
					<g id="group30-41">
						<title>工作表.19</title>
						<g id="shape31-42">
							<title>工作表.31</title>
							<path d="M0 64.36 L9.74 64.36 L0 64.36 Z" class="st4"/>
						</g>
						<g id="shape32-44">
							<title>工作表.32</title>
							<path d="M0 64.36 L9.74 64.36 L0 64.36 Z" class="st5"/>
							<path d="M0 64.36 L9.74 64.36" class="st6"/>
						</g>
					</g>
				</g>
			</g>
			<g id="group33-47" transform="translate(62.6868,-51.9994)">
				<title>工作表.180</title>
				<g id="group34-48">
					<title>工作表.12</title>
					<g id="group35-49">
						<title>工作表.22</title>
						<g id="shape36-50">
							<title>工作表.36</title>
							<path d="M0 64.36 L9.15 64.36 L0 64.36 Z" class="st1"/>
						</g>
					</g>
				</g>
				<g id="group37-52">
					<title>工作表.13</title>
					<g id="group38-53">
						<title>工作表.24</title>
						<g id="shape39-54">
							<title>工作表.39</title>
							<path d="M0 64.36 L9.15 64.36 L0 64.36 Z" class="st1"/>
						</g>
					</g>
					<g id="group40-56">
						<title>工作表.25</title>
						<g id="shape41-57">
							<title>工作表.41</title>
							<path d="M0 64.36 L9.15 64.36 L0 64.36 Z" class="st4"/>
						</g>
						<g id="shape42-59">
							<title>工作表.42</title>
							<path d="M0 64.36 L9.15 64.36 L0 64.36 Z" class="st5"/>
							<path d="M0 64.36 L9.15 64.36" class="st6"/>
						</g>
					</g>
				</g>
			</g>
			<g id="group43-62" transform="translate(76.0346,-1.64764E-06)">
				<title>工作表.202</title>
				<desc>無作 不應求三界中生身</desc>
				<g id="group44-63">
					<title>工作表.18</title>
					<g id="group45-64">
						<title>工作表.36</title>
						<g id="shape46-65">
							<title>工作表.46</title>
							<rect x="0" y="41.3484" width="41.459" height="23.0164" class="st1"/>
						</g>
					</g>
				</g>
				<g id="group47-67" transform="translate(1.22798,-2.11356)">
					<title>工作表.19</title>
					<desc>無作</desc>
					<g id="group48-68" transform="translate(0.0364426,-0.537978)">
						<title>工作表.38</title>
						<g id="shape49-69">
							<title>工作表.49</title>
							<rect x="0" y="46.6599" width="32.0164" height="17.7049" class="st1"/>
						</g>
					</g>
					<g id="group50-71">
						<title>工作表.39</title>
						<desc>無作</desc>
						<g id="shape51-72" transform="translate(2.9976E-14,-0.501536)">
							<title>工作表.51</title>
							<rect x="0" y="46.6599" width="29.5082" height="17.7049" class="st2"/>
						</g>
						<g id="shape52-74">
							<title>工作表.52</title>
							<desc>無作</desc>
							<rect x="0" y="46.6599" width="29.5082" height="17.7049" class="st2"/>
							<text x="0" y="59.94" class="st3">無作</text>						</g>
					</g>
				</g>
			</g>
			<g id="group53-77" transform="translate(127.004,12.4653) rotate(90)">
				<title>工作表.215</title>
				<g id="group54-78">
					<title>工作表.21</title>
					<g id="group55-79">
						<title>工作表.42</title>
						<g id="shape56-80">
							<title>工作表.56</title>
							<path d="M0 64.36 L40.13 64.36 L0 64.36 Z" class="st1"/>
						</g>
					</g>
				</g>
				<g id="group57-82">
					<title>工作表.22</title>
					<g id="group58-83">
						<title>工作表.44</title>
						<g id="shape59-84">
							<title>工作表.59</title>
							<path d="M0 64.36 L40.13 64.36 L0 64.36 Z" class="st1"/>
						</g>
					</g>
					<g id="group60-86">
						<title>工作表.45</title>
						<g id="shape61-87">
							<title>工作表.61</title>
							<path d="M0 64.36 L40.13 64.36 L0 64.36 Z" class="st4"/>
						</g>
						<g id="shape62-89">
							<title>工作表.62</title>
							<path d="M0 64.36 L40.13 64.36 L0 64.36 Z" class="st5"/>
							<path d="M0 64.36 L40.13 64.36" class="st6"/>
						</g>
					</g>
				</g>
			</g>
			<g id="group63-92" transform="translate(85.7212,-16.3819)">
				<title>工作表.24 工作表.25</title>
				<g id="group67-93">
					<title>工作表.48</title>
					<g id="shape68-94">
						<title>工作表.68</title>
						<path d="M32.75 64.36 L0 47.99 L32.31 31.76 C27.3 42.09 27.3 54.04 32.31 64.36 L32.75 64.36 Z" class="st4"/>
					</g>
					<g id="shape69-96">
						<title>工作表.69</title>
						<path d="M32.75 64.36 L0 47.99 L32.31 31.76 C27.3 42.09 27.3 54.04 32.31 64.36 L32.75 64.36 Z" class="st5"/>
						<path d="M32.75 64.36 L0 47.99 L32.31 31.76 C27.3 42.09 27.3 54.04 32.31 64.36" class="st7"/>
					</g>
				</g>
			</g>
			<g id="group76-99" transform="translate(109.366,-7.34502)">
				<title>工作表.228</title>
				<g id="group77-100">
					<title>工作表.29</title>
					<g id="group78-101" transform="translate(-1.35891E-13,-4.24051)">
						<title>工作表.30</title>
						<g id="group79-102">
							<title>工作表.56</title>
							<g id="shape80-103">
								<title>工作表.80</title>
								<path d="M0 64.36 L20.36 64.36 L27.44 64.36 L0 64.36 Z" class="st1"/>
							</g>
						</g>
						<g id="group81-105">
							<title>工作表.57</title>
							<g id="shape82-106">
								<title>工作表.82</title>
								<path d="M0 64.36 L20.36 64.36 L27.44 64.36 L0 64.36 Z" class="st4"/>
							</g>
							<g id="shape83-108">
								<title>工作表.83</title>
								<path d="M0 64.36 L20.36 64.36 L27.44 64.36 L0 64.36 Z" class="st5"/>
								<path d="M0 64.36 L20.36 64.36 L27.44 64.36" class="st8"/>
							</g>
						</g>
					</g>
					<g id="group84-111" transform="translate(19.2588,-9.9476E-14)">
						<title>mrkr5-35</title>
						<g id="group85-112" transform="translate(8.10999,120.47) rotate(180)">
							<title>工作表.32</title>
							<g id="group86-113">
								<title>工作表.60</title>
								<g id="shape87-114">
									<title>工作表.87</title>
									<path d="M8.11 64.36 L0 60.23 L8.11 56.1 C6.79 58.76 6.79 61.86 8.11 64.36 Z" class="st9"/>
								</g>
							</g>
							<g id="group88-116">
								<title>工作表.61</title>
								<g id="shape89-117">
									<title>工作表.89</title>
									<path d="M8.11 64.36 L0 60.23 L8.11 56.1 C6.79 58.76 6.79 61.86 8.11 64.36 Z" class="st1"/>
								</g>
							</g>
						</g>
					</g>
				</g>
			</g>
			<g id="group90-119" transform="translate(388.38,79.41) rotate(146.31)">
				<title>工作表.18</title>
				<g id="group91-120">
					<title>工作表.34</title>
					<g id="group92-121" transform="translate(9.99201E-14,-4.19583)">
						<title>工作表.35</title>
						<g id="group93-122">
							<title>工作表.65</title>
							<g id="shape94-123">
								<title>工作表.94</title>
								<path d="M7.67 64.36 C2.07 62.89 0 57.43 0.89 54.92 C2.51 50.05 14.61 55.81 22.87 60.23 L23.31 60.53
											 L7.67 64.36 Z" class="st1"/>
							</g>
						</g>
						<g id="group95-125">
							<title>工作表.66</title>
							<g id="shape96-126">
								<title>工作表.96</title>
								<path d="M7.67 64.36 C2.07 62.89 0 57.43 0.89 54.92 C2.51 50.05 14.61 55.81 22.87 60.23 L23.31 60.53
											 L7.67 64.36 Z" class="st4"/>
							</g>
							<g id="shape97-128">
								<title>工作表.97</title>
								<path d="M7.67 64.36 C2.07 62.89 0 57.43 0.89 54.92 C2.51 50.05 14.61 55.81 22.87 60.23 L23.31 60.53
											 L7.67 64.36 Z" class="st5"/>
								<path d="M7.67 64.36 C2.07 62.89 0 57.43 0.89 54.92 C2.51 50.05 14.61 55.81 22.87 60.23 L23.31 60.53"
										class="st6"/>
							</g>
						</g>
					</g>
					<g id="group98-131" transform="translate(50.4011,3.31777) rotate(28.7398)">
						<title>mrkr5-59</title>
						<g id="group99-132" transform="translate(9.58999,119) rotate(180)">
							<title>工作表.37</title>
							<g id="group100-133">
								<title>工作表.69</title>
								<g id="shape101-134">
									<title>工作表.101</title>
									<path d="M9.59 64.36 L0 59.5 L9.59 54.63 C7.97 57.73 7.97 61.27 9.59 64.36 Z" class="st9"/>
								</g>
							</g>
							<g id="group102-136">
								<title>工作表.70</title>
								<g id="shape103-137">
									<title>工作表.103</title>
									<path d="M9.59 64.36 L0 59.5 L9.59 54.63 C7.97 57.73 7.97 61.27 9.59 64.36 Z" class="st1"/>
								</g>
							</g>
						</g>
					</g>
				</g>
			</g>
			<g id="group104-139" transform="translate(612.13,58.4987) rotate(146.31)">
				<title>工作表.19</title>
				<g id="group105-140">
					<title>工作表.39</title>
					<g id="group106-141" transform="translate(9.99201E-14,-4.19583)">
						<title>工作表.40</title>
						<g id="group107-142">
							<title>工作表.74</title>
							<g id="shape108-143">
								<title>工作表.108</title>
								<path d="M7.67 64.36 C2.07 62.89 0 57.43 0.89 54.92 C2.51 50.05 14.61 55.81 22.87 60.23 L23.31 60.53
											 L7.67 64.36 Z" class="st1"/>
							</g>
						</g>
						<g id="group109-145">
							<title>工作表.75</title>
							<g id="shape110-146">
								<title>工作表.110</title>
								<path d="M7.67 64.36 C2.07 62.89 0 57.43 0.89 54.92 C2.51 50.05 14.61 55.81 22.87 60.23 L23.31 60.53
											 L7.67 64.36 Z" class="st4"/>
							</g>
							<g id="shape111-148">
								<title>工作表.111</title>
								<path d="M7.67 64.36 C2.07 62.89 0 57.43 0.89 54.92 C2.51 50.05 14.61 55.81 22.87 60.23 L23.31 60.53
											 L7.67 64.36 Z" class="st5"/>
								<path d="M7.67 64.36 C2.07 62.89 0 57.43 0.89 54.92 C2.51 50.05 14.61 55.81 22.87 60.23 L23.31 60.53"
										class="st6"/>
							</g>
						</g>
					</g>
					<g id="group112-151" transform="translate(50.4011,3.31777) rotate(28.7398)">
						<title>mrkr5-59</title>
						<g id="group113-152" transform="translate(9.58999,119) rotate(180)">
							<title>工作表.42</title>
							<g id="group114-153">
								<title>工作表.78</title>
								<g id="shape115-154">
									<title>工作表.115</title>
									<path d="M9.59 64.36 L0 59.5 L9.59 54.63 C7.97 57.73 7.97 61.27 9.59 64.36 Z" class="st9"/>
								</g>
							</g>
							<g id="group116-156">
								<title>工作表.79</title>
								<g id="shape117-157">
									<title>工作表.117</title>
									<path d="M9.59 64.36 L0 59.5 L9.59 54.63 C7.97 57.73 7.97 61.27 9.59 64.36 Z" class="st1"/>
								</g>
							</g>
						</g>
					</g>
				</g>
			</g>
			<g id="group118-159" transform="translate(79.0819,-43.1711)">
				<title>工作表.43</title>
				<desc>空</desc>
				<g id="group119-160" transform="translate(0.0364426,-0.537978)">
					<title>工作表.81</title>
					<g id="shape120-161">
						<title>工作表.120</title>
						<rect x="0" y="46.6599" width="22.5738" height="17.7049" class="st1"/>
					</g>
				</g>
				<g id="group121-163">
					<title>工作表.82</title>
					<desc>空</desc>
					<g id="shape122-164" transform="translate(2.89768E-14,-0.501536)">
						<title>工作表.122</title>
						<rect x="0" y="46.6599" width="14.7541" height="17.7049" class="st2"/>
					</g>
					<g id="shape123-166">
						<title>工作表.123</title>
						<desc>空</desc>
						<rect x="0" y="46.6599" width="14.7541" height="17.7049" class="st2"/>
						<text x="0" y="59.94" class="st3">空</text>					</g>
				</g>
			</g>
			<g id="group124-169" transform="translate(129.91,0)">
				<title>工作表.57</title>
				<desc>空 觀法空心離知世法虛誑如幻……取相則生憍慢自謂能知實相</desc>
				<g id="group125-170">
					<title>工作表.45</title>
					<g id="group126-171">
						<title>工作表.85</title>
						<g id="shape127-172">
							<title>工作表.127</title>
							<rect x="0" y="41.3484" width="474.787" height="23.0164" class="st1"/>
						</g>
					</g>
				</g>
			</g>
			<g id="group128-174" transform="translate(76.4096,-21.1422)">
				<title>工作表.60</title>
				<desc>無相 滅空相……於無相戲論欲有所作</desc>
				<g id="group129-175">
					<title>工作表.48</title>
					<g id="group130-176">
						<title>工作表.93</title>
						<g id="shape131-177">
							<title>工作表.131</title>
							<rect x="0" y="41.3484" width="35.8525" height="23.0164" class="st1"/>
						</g>
					</g>
				</g>
				<g id="group132-179" transform="translate(0.716151,-1.93651)">
					<title>工作表.49</title>
					<desc>無相</desc>
					<g id="group133-180" transform="translate(0.0364426,-0.537978)">
						<title>工作表.95</title>
						<g id="shape134-181">
							<title>工作表.134</title>
							<rect x="0" y="46.6599" width="32.0164" height="17.7049" class="st1"/>
						</g>
					</g>
					<g id="group135-183">
						<title>工作表.96</title>
						<desc>無相</desc>
						<g id="shape136-184" transform="translate(-7.19425E-14,-0.501536)">
							<title>工作表.136</title>
							<rect x="0" y="46.6599" width="29.5082" height="17.7049" class="st2"/>
						</g>
						<g id="shape137-186">
							<title>工作表.137</title>
							<desc>無相</desc>
							<rect x="0" y="46.6599" width="29.5082" height="17.7049" class="st2"/>
							<text x="0" y="59.94" class="st3">無相</text>						</g>
					</g>
				</g>
			</g>
			<g id="group138-189" transform="translate(137.248,-0.0117737)">
				<title>工作表.69</title>
				<desc>無作 不應求三界中生身</desc>
				<g id="group139-190">
					<title>工作表.51</title>
					<g id="group140-191">
						<title>工作表.99</title>
						<g id="shape141-192">
							<title>工作表.141</title>
							<rect x="0" y="41.3484" width="142.82" height="23.0164" class="st1"/>
						</g>
					</g>
				</g>
				<g id="group142-194" transform="translate(4.31199,-2.11356)">
					<title>工作表.52</title>
					<desc>不應求三界中生身</desc>
					<g id="group143-195" transform="translate(0.0364426,-0.537978)">
						<title>工作表.101</title>
						<g id="shape144-196">
							<title>工作表.144</title>
							<rect x="0" y="46.6599" width="119.656" height="17.7049" class="st1"/>
						</g>
					</g>
					<g id="group145-198">
						<title>工作表.102</title>
						<desc>不應求三界中生身</desc>
						<g id="shape146-199" transform="translate(6.63469E-13,-0.501536)">
							<title>工作表.146</title>
							<rect x="0" y="46.6599" width="118.033" height="17.7049" class="st2"/>
						</g>
						<g id="shape147-201">
							<title>工作表.147</title>
							<desc>不應求三界中生身</desc>
							<rect x="0" y="46.6599" width="118.033" height="17.7049" class="st2"/>
							<text x="0" y="59.94" class="st3">不應求三界中生身</text>						</g>
					</g>
				</g>
			</g>
			<g id="group148-204" transform="translate(95.2995,-50.103) rotate(-0.553875)">
				<title>工作表.53</title>
				<g id="group149-205">
					<title>工作表.104</title>
					<g id="shape150-206">
						<title>工作表.150</title>
						<path d="M0 64.36 L42.93 64.36 L0 64.36 Z" class="st4"/>
					</g>
					<g id="shape151-208">
						<title>工作表.151</title>
						<path d="M0 64.36 L42.93 64.36 L0 64.36 Z" class="st5"/>
						<path d="M0 64.36 L42.93 64.36" class="st6"/>
					</g>
				</g>
			</g>
			<g id="group152-211" transform="translate(112.869,-39.3982)">
				<title>工作表.105</title>
				<g id="shape153-212">
					<title>工作表.153</title>
					<path d="M23.75 58.02 L23.16 58.17 L8.11 62.15 L0 64.36 L23.75 58.02 Z" class="st4"/>
				</g>
				<g id="shape154-214">
					<title>工作表.154</title>
					<path d="M23.75 58.02 L23.16 58.17 L8.11 62.15 L0 64.36 L23.75 58.02 Z" class="st5"/>
					<path d="M23.75 58.02 L23.16 58.17 L8.11 62.15 L0 64.36" class="st8"/>
				</g>
			</g>
			<g id="group155-217" transform="translate(126.295,-28.4802)">
				<title>工作表.106</title>
				<g id="shape156-218">
					<title>工作表.156</title>
					<path d="M0 32.94 L35.85 40.32 L8.7 64.36 C10.92 53.15 7.82 41.5 0.15 32.94 L0 32.94 Z" class="st4"/>
				</g>
				<g id="shape157-220">
					<title>工作表.157</title>
					<path d="M0 32.94 L35.85 40.32 L8.7 64.36 C10.92 53.15 7.82 41.5 0.15 32.94 L0 32.94 Z" class="st5"/>
					<path d="M0 32.94 L35.85 40.32 L8.7 64.36 C10.92 53.15 7.82 41.5 0.15 32.94" class="st7"/>
				</g>
			</g>
			<g id="group158-223" transform="translate(121.78,83.4654) rotate(180)">
				<title>工作表.58</title>
				<g id="group159-224">
					<title>工作表.108</title>
					<g id="shape160-225">
						<title>工作表.160</title>
						<path d="M0 56.55 L9 58.32 L2.21 64.36 C2.8 61.56 1.92 58.76 0 56.55 Z" class="st9"/>
					</g>
				</g>
				<g id="group161-227">
					<title>工作表.109</title>
					<g id="shape162-228">
						<title>工作表.162</title>
						<path d="M0 56.55 L9 58.32 L2.21 64.36 C2.8 61.56 1.92 58.76 0 56.55 Z" class="st1"/>
					</g>
				</g>
			</g>
			<g id="group163-230" transform="translate(368.41,-40.0164)">
				<title>工作表.110</title>
				<desc>取相則生憍慢自謂能知實相</desc>
				<g id="shape164-231">
					<title>工作表.164</title>
					<rect x="0" y="44.3648" width="207.464" height="20" class="st10"/>
				</g>
				<g id="shape165-233" transform="translate(7.82999,-0.918563)">
					<title>工作表.165</title>
					<desc>取相則生憍慢自謂能知實相</desc>
					<rect x="0" y="46.6599" width="191.803" height="17.7049" class="st2"/>
					<text x="0" y="59.94" class="st3">取相則生憍慢，自謂能知實相</text>				</g>
			</g>
			<g id="group166-236" transform="translate(141.048,-40.81)">
				<title>工作表.113</title>
				<desc>觀法空心離知世法虛誑如幻</desc>
				<g id="shape167-237" transform="translate(7.99361E-13,-0.501536)">
					<title>工作表.167</title>
					<rect x="0" y="46.6599" width="209.362" height="17.7049" class="st2"/>
				</g>
				<g id="shape168-239">
					<title>工作表.168</title>
					<desc>觀法空心離知世法虛誑如幻</desc>
					<rect x="0" y="46.6599" width="206.558" height="17.7049" class="st2"/>
					<text x="0" y="59.94" class="st3">觀法空，心離，知世法虛誑如幻</text>				</g>
			</g>
			<g id="group169-242" transform="translate(139.648,-22.5149)">
				<title>工作表.114</title>
				<desc>滅空相</desc>
				<g id="shape170-243" transform="translate(2.71783E-13,-0.501536)">
					<title>工作表.170</title>
					<rect x="0" y="46.6599" width="44.2623" height="17.7049" class="st2"/>
				</g>
				<g id="shape171-245">
					<title>工作表.171</title>
					<desc>滅空相</desc>
					<rect x="0" y="46.6599" width="44.2623" height="17.7049" class="st2"/>
					<text x="-0" y="59.94" class="st3">滅空相</text>				</g>
			</g>
			<g id="group172-248" transform="translate(213.123,-22.5149)">
				<title>工作表.115</title>
				<desc>於無相戲論欲有所作</desc>
				<g id="shape173-249" transform="translate(-1.51879E-13,-0.501536)">
					<title>工作表.173</title>
					<rect x="0" y="46.6599" width="132.787" height="17.7049" class="st2"/>
				</g>
				<g id="shape174-251">
					<title>工作表.174</title>
					<desc>於無相戲論欲有所作</desc>
					<rect x="0" y="46.6599" width="132.787" height="17.7049" class="st2"/>
					<text x="0" y="59.94" class="st3">於無相戲論欲有所作</text>				</g>
			</g>
			<g id="group175-254" transform="translate(350.41,-50.0212)">
				<title>工作表.116</title>
				<g id="shape176-255">
					<title>工作表.176</title>
					<path d="M0 64.36 L22.5 64.36 L0 64.36 Z" class="st5"/>
					<path d="M0 64.36 L22.5 64.36" class="st11"/>
				</g>
			</g>
			<g id="group177-258" transform="translate(186.16,-32.0212)">
				<title>工作表.117</title>
				<g id="shape178-259">
					<title>工作表.178</title>
					<path d="M0 64.36 L22.5 64.36 L0 64.36 Z" class="st5"/>
					<path d="M0 64.36 L22.5 64.36" class="st11"/>
				</g>
			</g>
			<g id="shape179-262" transform="translate(106.634,-31.7554)">
				<title>工作表.179</title>
				<path d="M0 64.36 L5.63 64.36 L22.92 64.33" class="st12"/>
			</g>
		</g>
	</g>
</svg>
