<?xml version="1.0" encoding="UTF-8" standalone="no"?>
<!DOCTYPE svg PUBLIC "-//W3C//DTD SVG 1.1//EN" "http://www.w3.org/Graphics/SVG/1.1/DTD/svg11.dtd">
<!-- 由 Microsoft Visio, SVG Export 產生 F00701新.svg 頁-1 -->
<svg xmlns="http://www.w3.org/2000/svg" xmlns:xlink="http://www.w3.org/1999/xlink" xmlns:ev="http://www.w3.org/2001/xml-events"
		xmlns:v="http://schemas.microsoft.com/visio/2003/SVGExtensions/" width="4.48091in" height="1.00519in"
		viewBox="0 0 322.625 72.3737" xml:space="preserve" color-interpolation-filters="sRGB" class="st6">
	<v:documentProperties v:langID="1028" v:viewMarkup="false"/>

	<style type="text/css">
	<![CDATA[
		.st1 {fill:none;stroke:none;stroke-linecap:butt;stroke-width:0.75}
		.st2 {fill:#000000;font-family:新細明體;font-size:0.833336em}
		.st3 {fill:none}
		.st4 {stroke:#000000;stroke-linecap:round;stroke-linejoin:round;stroke-width:0.705463}
		.st5 {fill:#000000;font-family:Times New Roman;font-size:0.833336em}
		.st6 {fill:none;fill-rule:evenodd;font-size:12px;overflow:visible;stroke-linecap:square;stroke-miterlimit:3}
	]]>
	</style>

	<g v:mID="0" v:index="1" v:groupContext="foregroundPage">
		<title>頁-1</title>
		<v:pageProperties v:drawingScale="0.0393701" v:pageScale="0.0393701" v:drawingUnits="24" v:shadowOffsetX="9"
				v:shadowOffsetY="-9"/>
		<g id="shape11-1" v:mID="11" v:groupContext="shape" transform="translate(0.636137,-59.8924) rotate(-0.2)">
			<title>工作表.11</title>
			<v:textBlock v:margins="rect(0,0,0,0)"/>
			<rect x="0" y="61.0637" width="120.587" height="11.31" class="st1"/>
		</g>
		<g id="shape12-3" v:mID="12" v:groupContext="shape" transform="translate(89.649,-57.8779) rotate(-0.2)">
			<title>工作表.12</title>
			<desc>凡夫聲聞行</desc>
			<v:textBlock v:margins="rect(0,0,0,0)" v:tabSpace="42.5197"/>
			<v:textRect cx="27.637" cy="65.6013" width="55.28" height="13.5449"/>
			<rect x="0" y="58.8288" width="55.2739" height="13.5449" class="st1"/>
			<text x="0" y="68.72" class="st2" v:langID="1028"><v:paragraph/><v:tabList/>凡夫聲聞行</text>		</g>
		<g id="shape13-6" v:mID="13" v:groupContext="shape" transform="translate(0.695238,-42.9614) rotate(-0.2)">
			<title>工作表.13</title>
			<v:textBlock v:margins="rect(0,0,0,0)"/>
			<rect x="0" y="61.0637" width="278.874" height="11.31" class="st1"/>
		</g>
		<g id="shape14-8" v:mID="14" v:groupContext="shape" transform="translate(207.797,-43.5037) rotate(-0.2)">
			<title>工作表.14</title>
			<desc>在家作輪王多所饒益</desc>
			<v:textBlock v:margins="rect(0,0,0,0)" v:tabSpace="42.5197"/>
			<v:textRect cx="56.4371" cy="65.6013" width="112.88" height="13.5449"/>
			<rect x="0" y="58.8288" width="112.874" height="13.5449" class="st1"/>
			<text x="0" y="68.72" class="st2" v:langID="1028"><v:paragraph/><v:tabList/>在家作輪王，多所饒益</text>		</g>
		<g id="shape15-11" v:mID="15" v:groupContext="shape" transform="translate(0.754338,-26.0304) rotate(-0.2)">
			<title>工作表.15</title>
			<v:textBlock v:margins="rect(0,0,0,0)"/>
			<rect x="0" y="61.0637" width="120.587" height="11.31" class="st1"/>
		</g>
		<g id="shape16-13" v:mID="16" v:groupContext="shape" transform="translate(91.3098,-36.6928) rotate(-0.2)">
			<title>工作表.16</title>
			<desc>菩薩行</desc>
			<v:textBlock v:margins="rect(0,0,0,0)"/>
			<v:textRect cx="16.9311" cy="65.6013" width="33.87" height="13.5449"/>
			<rect x="0" y="58.8288" width="33.8622" height="13.5449" class="st1"/>
			<text x="0" y="68.72" class="st2" v:langID="1028"><v:paragraph/><v:tabList/>菩薩行</text>		</g>
		<g id="shape17-16" v:mID="17" v:groupContext="shape" transform="translate(128.696,-26.4777) rotate(-0.2)">
			<title>工作表.17</title>
			<v:textBlock v:margins="rect(0,0,0,0)" v:tabSpace="42.5197"/>
			<rect x="0" y="61.0637" width="9.42499" height="11.31" class="st1"/>
		</g>
		<g id="shape18-18" v:mID="18" v:groupContext="shape" transform="translate(150.31,-37.4946) rotate(-0.2)">
			<title>工作表.18</title>
			<desc>自教教它</desc>
			<v:textBlock v:margins="rect(0,0,0,0)" v:tabSpace="42.5197"/>
			<v:textRect cx="22.1215" cy="65.6013" width="44.25" height="13.5449"/>
			<rect x="0" y="58.8288" width="44.2431" height="13.5449" class="st1"/>
			<text x="-0" y="68.72" class="st2" v:langID="1028"><v:paragraph/><v:tabList/>自教教它</text>		</g>
		<g id="shape19-21" v:mID="19" v:groupContext="shape" transform="translate(205.844,-26.7465) rotate(-0.2)">
			<title>工作表.19</title>
			<v:textBlock v:margins="rect(0,0,0,0)" v:tabSpace="42.5197"/>
			<rect x="0" y="61.0637" width="9.42499" height="11.31" class="st1"/>
		</g>
		<g id="shape20-23" v:mID="20" v:groupContext="shape" transform="translate(0.544649,-29.2804) rotate(-0.2)">
			<title>工作表.20</title>
			<desc>行四無量心之別</desc>
			<v:textBlock v:margins="rect(0,0,0,0)" v:tabSpace="42.5197"/>
			<v:textRect cx="39.5059" cy="65.6013" width="79.02" height="13.5449"/>
			<rect x="0" y="58.8288" width="79.0119" height="13.5449" class="st1"/>
			<text x="-0" y="68.72" class="st2" v:langID="1028"><v:paragraph/><v:tabList/>行四無量心之別</text>		</g>
		<g id="shape21-26" v:mID="21" v:groupContext="shape" transform="translate(79.8248,-9.3754) rotate(-0.2)">
			<title>工作表.21</title>
			<v:textBlock v:margins="rect(0,0,0,0)"/>
			<rect x="0" y="61.0637" width="183.721" height="11.31" class="st1"/>
		</g>
		<g id="shape22-28" v:mID="22" v:groupContext="shape" transform="translate(208.749,-29.096) rotate(-0.2)">
			<title>工作表.22</title>
			<desc>出家行禪令生清淨界</desc>
			<v:textBlock v:margins="rect(0,0,0,0)" v:tabSpace="42.5197"/>
			<v:textRect cx="56.4371" cy="65.6013" width="112.88" height="13.5449"/>
			<rect x="0" y="58.8288" width="112.874" height="13.5449" class="st1"/>
			<text x="0" y="68.72" class="st2" v:langID="1028"><v:paragraph/><v:tabList/>出家行禪，令生清淨界</text>		</g>
		<g id="shape24-31" v:mID="24" v:groupContext="shape" transform="translate(146.702,-14.9228) rotate(-0.2)">
			<title>工作表.24</title>
			<desc>現在</desc>
			<v:textBlock v:margins="rect(0,0,0,0)" v:tabSpace="42.5197"/>
			<v:textRect cx="13.6779" cy="65.6013" width="27.36" height="13.5449"/>
			<rect x="0" y="58.8288" width="27.3558" height="13.5449" class="st1"/>
			<text x="-0" y="68.72" class="st2" v:langID="1028"><v:paragraph/><v:tabList/>現在</text>		</g>
		<g id="shape26-34" v:mID="26" v:groupContext="shape" transform="translate(91.6017,-7.83617) rotate(-0.2)">
			<title>工作表.26</title>
			<desc>佛行</desc>
			<v:textBlock v:margins="rect(0,0,0,0)" v:tabSpace="42.5197"/>
			<v:textRect cx="12.4873" cy="65.6013" width="24.98" height="13.5449"/>
			<rect x="0" y="58.8288" width="24.9746" height="13.5449" class="st1"/>
			<text x="0" y="68.72" class="st2" v:langID="1028"><v:paragraph/><v:tabList/>佛行</text>		</g>
		<g id="shape28-37" v:mID="28" v:groupContext="shape" transform="translate(147.794,-2.33439) rotate(-0.2)">
			<title>工作表.28</title>
			<desc>滅後</desc>
			<v:textBlock v:margins="rect(0,0,0,0)" v:tabSpace="42.5197"/>
			<v:textRect cx="11.3257" cy="65.6013" width="22.66" height="13.5449"/>
			<rect x="0" y="58.8288" width="22.6513" height="13.5449" class="st1"/>
			<text x="-0" y="68.72" class="st2" v:langID="1028"><v:paragraph/><v:tabList/>滅後</text>		</g>
		<g id="shape56-40" v:mID="56" v:groupContext="shape" transform="translate(152.172,4.78426) rotate(89.8)">
			<title>工作表.56</title>
			<path d="M0 63.91 C0 66.26 2.1 68.14 4.72 68.14 L24.72 68.14 C27.34 68.14 29.44 70.02 29.44 72.37 C29.44 70.02 31.59
						 68.14 34.17 68.14 L51.96 68.14 C54.53 68.14 56.68 66.26 56.68 63.91 L0 63.91 Z" class="st3"/>
			<path d="M0 63.91 C0 66.26 2.1 68.14 4.72 68.14 L24.72 68.14 C27.34 68.14 29.44 70.02 29.44 72.37 C29.44 70.02 31.59
						 68.14 34.17 68.14 L51.96 68.14 C54.53 68.14 56.68 66.26 56.68 63.91" class="st4"/>
		</g>
		<g id="shape57-43" v:mID="57" v:groupContext="shape" transform="translate(267.111,18.1217) rotate(89.8)">
			<title>工作表.57</title>
			<path d="M0 63.91 C0 66.26 0.78 68.14 1.79 68.14 L8.97 68.14 C9.92 68.14 10.76 70.02 10.76 72.37 C10.76 70.02 11.54 68.14
						 12.55 68.14 L19.72 68.14 C20.68 68.14 21.52 66.26 21.52 63.91 L0 63.91 Z" class="st3"/>
			<path d="M0 63.91 C0 66.26 0.78 68.14 1.79 68.14 L8.97 68.14 C9.92 68.14 10.76 70.02 10.76 72.37 C10.76 70.02 11.54 68.14
						 12.55 68.14 L19.72 68.14 C20.68 68.14 21.52 66.26 21.52 63.91" class="st4"/>
		</g>
		<g id="shape58-46" v:mID="58" v:groupContext="shape" transform="translate(210.432,47.3005) rotate(89.8)">
			<title>工作表.58</title>
			<path d="M0 66.74 C0 68.3 0.77 69.56 1.77 69.56 L8.85 69.56 C9.8 69.56 10.63 70.81 10.63 72.37 C10.63 70.81 11.39 69.56
						 12.4 69.56 L19.48 69.56 C20.42 69.56 21.25 68.3 21.25 66.74 L0 66.74 Z" class="st3"/>
			<path d="M0 66.74 C0 68.3 0.77 69.56 1.77 69.56 L8.85 69.56 C9.8 69.56 10.63 70.81 10.63 72.37 C10.63 70.81 11.39 69.56
						 12.4 69.56 L19.48 69.56 C20.42 69.56 21.25 68.3 21.25 66.74" class="st4"/>
		</g>
		<g id="shape61-49" v:mID="61" v:groupContext="shape" transform="translate(167.592,-57.7321) rotate(-0.2)">
			<title>工作表.61</title>
			<desc>自調自利空念眾生</desc>
			<v:textBlock v:margins="rect(0,0,0,0)" v:tabSpace="42.5197"/>
			<v:textRect cx="48.5342" cy="65.6013" width="97.07" height="13.5449"/>
			<rect x="0" y="58.8288" width="97.0685" height="13.5449" class="st1"/>
			<text x="0" y="68.72" class="st2" v:langID="1028"><v:paragraph/><v:tabList/>自調自利，空念眾生</text>		</g>
		<g id="shape62-52" v:mID="62" v:groupContext="shape" transform="translate(143.813,-58.0712)">
			<title>工作表.62</title>
			<desc>──</desc>
			<v:textBlock v:margins="rect(0,0,0,0)" v:tabSpace="42.5197"/>
			<v:textRect cx="11.311" cy="65.6013" width="22.63" height="13.5449"/>
			<rect x="0" y="58.8288" width="22.622" height="13.5449" class="st1"/>
			<text x="0" y="68.6" class="st5" v:langID="1028"><v:paragraph/><v:tabList/>──</text>		</g>
		<g id="shape63-55" v:mID="63" v:groupContext="shape" transform="translate(126.544,-36.1831)">
			<title>工作表.63</title>
			<desc>──</desc>
			<v:textBlock v:margins="rect(0,0,0,0)" v:tabSpace="42.5197"/>
			<v:textRect cx="11.311" cy="65.6013" width="22.63" height="13.5449"/>
			<rect x="0" y="58.8288" width="22.622" height="13.5449" class="st1"/>
			<text x="0" y="68.6" class="st5" v:langID="1028"><v:paragraph/><v:tabList/>──</text>		</g>
		<g id="shape64-58" v:mID="64" v:groupContext="shape" transform="translate(112.604,-8.15078)">
			<title>工作表.64</title>
			<desc>──</desc>
			<v:textBlock v:margins="rect(0,0,0,0)" v:tabSpace="42.5197"/>
			<v:textRect cx="11.311" cy="65.6013" width="22.63" height="13.5449"/>
			<rect x="0" y="58.8288" width="22.622" height="13.5449" class="st1"/>
			<text x="0" y="68.6" class="st5" v:langID="1028"><v:paragraph/><v:tabList/>──</text>		</g>
		<g id="shape65-61" v:mID="65" v:groupContext="shape" transform="translate(172.16,-15.7177)">
			<title>工作表.65</title>
			<desc>──</desc>
			<v:textBlock v:margins="rect(0,0,0,0)" v:tabSpace="42.5197"/>
			<v:textRect cx="11.311" cy="65.6013" width="22.63" height="13.5449"/>
			<rect x="0" y="58.8288" width="22.622" height="13.5449" class="st1"/>
			<text x="0" y="68.6" class="st5" v:langID="1028"><v:paragraph/><v:tabList/>──</text>		</g>
		<g id="shape66-64" v:mID="66" v:groupContext="shape" transform="translate(172.16,-1.06417)">
			<title>工作表.66</title>
			<desc>──</desc>
			<v:textBlock v:margins="rect(0,0,0,0)" v:tabSpace="42.5197"/>
			<v:textRect cx="11.311" cy="65.6013" width="22.63" height="13.5449"/>
			<rect x="0" y="58.8288" width="22.622" height="13.5449" class="st1"/>
			<text x="0" y="68.6" class="st5" v:langID="1028"><v:paragraph/><v:tabList/>──</text>		</g>
		<g id="shape68-67" v:mID="68" v:groupContext="shape" transform="translate(193.621,-15.2512) rotate(-0.2)">
			<title>工作表.68</title>
			<desc>令無量眾生入涅槃</desc>
			<v:textBlock v:margins="rect(0,0,0,0)" v:tabSpace="42.5197"/>
			<v:textRect cx="42.9736" cy="65.6013" width="85.95" height="13.5449"/>
			<rect x="0" y="58.8288" width="85.9473" height="13.5449" class="st1"/>
			<text x="0" y="68.72" class="st2" v:langID="1028"><v:paragraph/><v:tabList/>令無量眾生入涅槃</text>		</g>
		<g id="shape69-70" v:mID="69" v:groupContext="shape" transform="translate(195.023,-0.749559) rotate(-0.2)">
			<title>工作表.69</title>
			<desc>舍利餘法度眾生</desc>
			<v:textBlock v:margins="rect(0,0,0,0)" v:tabSpace="42.5197"/>
			<v:textRect cx="38.7293" cy="65.6013" width="77.46" height="13.5449"/>
			<rect x="0" y="58.8288" width="77.4586" height="13.5449" class="st1"/>
			<text x="0" y="68.72" class="st2" v:langID="1028"><v:paragraph/><v:tabList/>舍利餘法度眾生</text>		</g>
	</g>
</svg>
