<?xml version="1.0" encoding="UTF-8" standalone="no"?>
<!DOCTYPE svg PUBLIC "-//W3C//DTD SVG 1.1//EN" "http://www.w3.org/Graphics/SVG/1.1/DTD/svg11.dtd">
<!-- 由 Microsoft Visio, SVG Export 產生 A01805.svg 頁-1 -->
<svg xmlns="http://www.w3.org/2000/svg" xmlns:xlink="http://www.w3.org/1999/xlink" xmlns:ev="http://www.w3.org/2001/xml-events"
		xmlns:v="http://schemas.microsoft.com/visio/2003/SVGExtensions/" width="2.31107in" height="0.605606in"
		viewBox="0 0 166.397 43.6036" xml:space="preserve" color-interpolation-filters="sRGB" class="st7">
	<v:documentProperties v:langID="1028" v:viewMarkup="false"/>

	<style type="text/css">
	<![CDATA[
		.st1 {fill:none;stroke:none;stroke-linecap:butt;stroke-width:0.75}
		.st2 {fill:#000000;font-family:新細明體;font-size:0.833336em}
		.st3 {font-size:1em}
		.st4 {fill:none}
		.st5 {stroke:#040000;stroke-linecap:round;stroke-linejoin:round;stroke-width:0.705463}
		.st6 {stroke:#000000;stroke-linecap:round;stroke-linejoin:round;stroke-width:0.75}
		.st7 {fill:none;fill-rule:evenodd;font-size:12px;overflow:visible;stroke-linecap:square;stroke-miterlimit:3}
	]]>
	</style>

	<g v:mID="0" v:index="1" v:groupContext="foregroundPage">
		<title>頁-1</title>
		<v:pageProperties v:drawingScale="0.0393701" v:pageScale="0.0393701" v:drawingUnits="24" v:shadowOffsetX="9"
				v:shadowOffsetY="-9"/>
		<g id="shape1-1" v:mID="1" v:groupContext="shape" transform="translate(52.9474,-1.71963)">
			<title>工作表.1</title>
			<desc>受苦 受樂 受不苦樂</desc>
			<v:textBlock v:margins="rect(0,0,0,0)" v:tabSpace="42.5197"/>
			<v:textRect cx="20.9166" cy="23.5215" width="41.84" height="40.1644"/>
			<rect x="0" y="3.43927" width="41.8333" height="40.1644" class="st1"/>
			<text x="0" y="12.62" class="st2" v:langID="1028"><v:paragraph v:spLine="-1.4"/><v:tabList/>受苦<v:newlineChar/><tspan
						x="0" dy="1.453em" class="st3">受樂<v:newlineChar/></tspan><tspan x="0" dy="1.453em" class="st3">受不苦樂</tspan></text>		</g>
		<g id="shape3-6" v:mID="3" v:groupContext="shape" transform="translate(0.75,-14.8988)">
			<title>工作表.3</title>
			<desc>三種眾生</desc>
			<v:textBlock v:margins="rect(0,0,0,0)" v:tabSpace="42.5197"/>
			<v:textRect cx="22.5748" cy="36.8312" width="45.15" height="13.5449"/>
			<rect x="0" y="30.0587" width="45.1496" height="13.5449" class="st1"/>
			<text x="-0" y="40.46" class="st2" v:langID="1028"><v:paragraph v:spLine="-1.4"/><v:tabList/>三種眾生</text>		</g>
		<g id="shape15-9" v:mID="15" v:groupContext="shape" transform="translate(85.8812,7.53063) rotate(90)">
			<title>工作表.15</title>
			<path d="M0 34.98 C0 37.35 1.16 39.31 2.49 39.31 L12.54 39.31 C13.91 39.31 15.02 41.23 15.02 43.6 C15.02 41.23 16.19
						 39.31 17.51 39.31 L27.56 39.31 C28.94 39.31 30.05 37.4 30.05 34.98 L0 34.98 Z" class="st4"/>
			<path d="M0 34.98 C0 37.35 1.16 39.31 2.49 39.31 L12.54 39.31 C13.91 39.31 15.02 41.23 15.02 43.6 C15.02 41.23 16.19
						 39.31 17.51 39.31 L27.56 39.31 C28.94 39.31 30.05 37.4 30.05 34.98" class="st5"/>
		</g>
		<g id="shape22-12" v:mID="22" v:groupContext="shape" transform="translate(131.785,-1.71963)">
			<title>工作表.22</title>
			<desc>三惡趣 人 天</desc>
			<v:textBlock v:margins="rect(0,0,0,0)" v:tabSpace="42.5197"/>
			<v:textRect cx="16.9311" cy="23.5215" width="33.87" height="40.1644"/>
			<rect x="0" y="3.43927" width="33.8622" height="40.1644" class="st1"/>
			<text x="-0" y="12.62" class="st2" v:langID="1028"><v:paragraph v:spLine="-1.4"/><v:tabList/>三惡趣<v:newlineChar/><tspan
						x="-0" dy="1.453em" class="st3">人<v:newlineChar/></tspan><tspan x="-0" dy="1.453em" class="st3">天</tspan></text>		</g>
		<g id="shape26-17" v:mID="26" v:groupContext="shape" transform="translate(76.072,-34.3722)">
			<title>工作表.26</title>
			<path d="M0 43.6 L52.72 43.6" class="st6"/>
		</g>
		<g id="shape27-20" v:mID="27" v:groupContext="shape" transform="translate(76.072,-21.6909)">
			<title>工作表.27</title>
			<path d="M0 43.6 L52.72 43.6" class="st6"/>
		</g>
		<g id="shape28-23" v:mID="28" v:groupContext="shape" transform="translate(97.6153,-7.36849)">
			<title>工作表.28</title>
			<path d="M0 43.6 L31.18 43.6" class="st6"/>
		</g>
		<g id="shape29-26" v:mID="29" v:groupContext="shape" transform="translate(86.2688,-33.1632) rotate(13.5239)">
			<title>工作表.29</title>
			<path d="M0 43.6 L54.23 43.6" class="st6"/>
		</g>
		<g id="shape30-29" v:mID="30" v:groupContext="shape" transform="translate(157.342,42.1926) rotate(139.106)">
			<title>工作表.30</title>
			<path d="M0 43.6 L41.25 43.6" class="st6"/>
		</g>
		<g id="shape31-32" v:mID="31" v:groupContext="shape" transform="translate(87.5026,-20.166) rotate(15.1975)">
			<title>工作表.31</title>
			<path d="M0 43.6 L54.64 43.6" class="st6"/>
		</g>
		<g id="shape32-35" v:mID="32" v:groupContext="shape" transform="translate(146.997,61.5363) rotate(155.329)">
			<title>工作表.32</title>
			<path d="M0 43.6 L34.31 43.6" class="st6"/>
		</g>
	</g>
</svg>
