<?xml version="1.0" encoding="UTF-8" standalone="no"?>
<!DOCTYPE svg PUBLIC "-//W3C//DTD SVG 1.1//EN" "http://www.w3.org/Graphics/SVG/1.1/DTD/svg11.dtd">
<!-- 由 Microsoft Visio, SVG Export 產生 A00803.svg 頁-1 -->
<svg xmlns="http://www.w3.org/2000/svg" xmlns:xlink="http://www.w3.org/1999/xlink" xmlns:ev="http://www.w3.org/2001/xml-events"
		xmlns:v="http://schemas.microsoft.com/visio/2003/SVGExtensions/" width="2.56327in" height="0.75765in"
		viewBox="0 0 184.555 54.5508" xml:space="preserve" color-interpolation-filters="sRGB" class="st8">
	<v:documentProperties v:langID="1028" v:viewMarkup="false"/>

	<style type="text/css">
	<![CDATA[
		.st1 {fill:none;stroke:none;stroke-linecap:butt;stroke-width:0.75}
		.st2 {fill:#000000;font-family:新細明體;font-size:0.833336em}
		.st3 {fill:none}
		.st4 {stroke:#040000;stroke-linecap:round;stroke-linejoin:round;stroke-width:0.705463}
		.st5 {fill:#040000}
		.st6 {stroke:none;stroke-linecap:butt;stroke-width:0.940618}
		.st7 {stroke:#000000;stroke-linecap:round;stroke-linejoin:round;stroke-width:0.75}
		.st8 {fill:none;fill-rule:evenodd;font-size:12px;overflow:visible;stroke-linecap:square;stroke-miterlimit:3}
	]]>
	</style>

	<g v:mID="0" v:index="1" v:groupContext="foregroundPage">
		<title>頁-1</title>
		<v:pageProperties v:drawingScale="0.0393701" v:pageScale="0.0393701" v:drawingUnits="24" v:shadowOffsetX="9"
				v:shadowOffsetY="-9"/>
		<g id="shape1-1" v:mID="1" v:groupContext="shape" transform="translate(34.2853,-40.2559)">
			<title>工作表.1</title>
			<desc>得解觀易得</desc>
			<v:textBlock v:margins="rect(0,0,0,0)" v:tabSpace="42.5197"/>
			<v:textRect cx="41.6969" cy="47.7784" width="83.4" height="13.5449"/>
			<rect x="0" y="41.0059" width="83.3938" height="13.5449" class="st1"/>
			<text x="10" y="50.89" class="st2" v:langID="1028"><v:paragraph/><v:tabList/>得解觀（易得）</text>		</g>
		<g id="shape2-4" v:mID="2" v:groupContext="shape" transform="translate(138.656,-40.2559)">
			<title>工作表.2</title>
			<desc>八背捨等</desc>
			<v:textBlock v:margins="rect(0,0,0,0)" v:tabSpace="42.5197"/>
			<v:textRect cx="22.5748" cy="47.7784" width="45.15" height="13.5449"/>
			<rect x="0" y="41.0059" width="45.1496" height="13.5449" class="st1"/>
			<text x="0" y="50.89" class="st2" v:langID="1028"><v:paragraph/><v:tabList/>八背捨等</text>		</g>
		<g id="shape3-7" v:mID="3" v:groupContext="shape" transform="translate(0.75,-23.6831)">
			<title>工作表.3</title>
			<desc>二種觀</desc>
			<v:textBlock v:margins="rect(0,0,0,0)" v:tabSpace="42.5197"/>
			<v:textRect cx="16.9311" cy="47.7784" width="33.87" height="13.5449"/>
			<rect x="0" y="41.0059" width="33.8622" height="13.5449" class="st1"/>
			<text x="0" y="50.89" class="st2" v:langID="1028"><v:paragraph/><v:tabList/>二種觀</text>		</g>
		<g id="shape5-10" v:mID="5" v:groupContext="shape" transform="translate(79.3326,-12.9016)">
			<title>工作表.5</title>
			<desc>由易入難</desc>
			<v:textBlock v:margins="rect(0,0,0,0)" v:tabSpace="42.5197"/>
			<v:textRect cx="22.5748" cy="47.7784" width="45.15" height="13.5449"/>
			<rect x="0" y="41.0059" width="45.1496" height="13.5449" class="st1"/>
			<text x="0" y="50.89" class="st2" v:langID="1028"><v:paragraph/><v:tabList/>由易入難</text>		</g>
		<g id="shape6-13" v:mID="6" v:groupContext="shape" transform="translate(43.3219,-0.75)">
			<title>工作表.6</title>
			<desc>實觀</desc>
			<v:textBlock v:margins="rect(0,0,0,0)" v:tabSpace="42.5197"/>
			<v:textRect cx="11.2874" cy="47.7784" width="22.58" height="13.5449"/>
			<rect x="0" y="41.0059" width="22.5748" height="13.5449" class="st1"/>
			<text x="0" y="50.89" class="st2" v:langID="1028"><v:paragraph/><v:tabList/>實觀</text>		</g>
		<g id="shape8-16" v:mID="8" v:groupContext="shape" transform="translate(138.072,-0.75)">
			<title>工作表.8</title>
			<desc>三十七品</desc>
			<v:textBlock v:margins="rect(0,0,0,0)" v:tabSpace="42.5197"/>
			<v:textRect cx="22.5748" cy="47.7784" width="45.15" height="13.5449"/>
			<rect x="0" y="41.0059" width="45.1496" height="13.5449" class="st1"/>
			<text x="0" y="50.89" class="st2" v:langID="1028"><v:paragraph/><v:tabList/>三十七品</text>		</g>
		<g id="shape21-19" v:mID="21" v:groupContext="shape" transform="translate(87.3868,5.42714) rotate(90)">
			<title>工作表.21</title>
			<path d="M0 45.9 C0 48.25 1.57 50.22 3.55 50.22 L14.61 50.22 C16.51 50.22 18.16 52.11 18.16 54.55 C18.16 52.2 19.73 50.22
						 21.71 50.22 L38.97 50.22 C40.95 50.22 42.52 48.34 42.52 45.9 L0 45.9 Z" class="st3"/>
			<path d="M0 45.9 C0 48.25 1.57 50.22 3.55 50.22 L14.61 50.22 C16.51 50.22 18.16 52.11 18.16 54.55 C18.16 52.2 19.73 50.22
						 21.71 50.22 L38.97 50.22 C40.95 50.22 42.52 48.34 42.52 45.9" class="st4"/>
		</g>
		<g id="shape22-22" v:mID="22" v:groupContext="shape" transform="translate(118.119,14.6525) rotate(90)">
			<title>工作表.22</title>
			<path d="M22.57 48.25 L22.67 54.55 L17.59 50.79 L22.57 48.25 ZM0.47 10.72 L20.88 50.22 L20.98 50.51 L20.79 50.69 L20.6
						 50.79 L20.41 50.6 L0 11.09 L0 10.81 L0.19 10.62 L0.47 10.62 L0.47 10.72 Z" class="st5"/>
			<path d="M22.57 48.25 L22.67 54.55 L17.59 50.79M0.47 10.72 L20.88 50.22 L20.98 50.51 L20.79 50.69 L20.6 50.79 L20.41
						 50.6 L0 11.09 L0 10.81 L0.19 10.62 L0.47 10.62 L0.47 10.72" class="st6"/>
		</g>
		<g id="shape26-25" v:mID="26" v:groupContext="shape" transform="translate(65.8967,-6.60401)">
			<title>工作表.26</title>
			<path d="M0 54.55 L69.92 54.55" class="st7"/>
		</g>
		<g id="shape27-28" v:mID="27" v:groupContext="shape" transform="translate(115.083,-46.289)">
			<title>工作表.27</title>
			<path d="M0 54.55 L20.74 54.55" class="st7"/>
		</g>
	</g>
</svg>
