<?xml version="1.0" encoding="UTF-8" standalone="no"?>
<!DOCTYPE svg PUBLIC "-//W3C//DTD SVG 1.1//EN" "http://www.w3.org/Graphics/SVG/1.1/DTD/svg11.dtd">
<!-- 由 Microsoft Visio, SVG Export 產生 F00703更正.svg 頁-1 -->
<svg xmlns="http://www.w3.org/2000/svg" xmlns:xlink="http://www.w3.org/1999/xlink" xmlns:ev="http://www.w3.org/2001/xml-events"
		xmlns:v="http://schemas.microsoft.com/visio/2003/SVGExtensions/" width="5.07076in" height="0.722506in"
		viewBox="0 0 365.095 52.0204" xml:space="preserve" color-interpolation-filters="sRGB" class="st7">
	<v:documentProperties v:langID="1028" v:viewMarkup="false"/>

	<style type="text/css">
	<![CDATA[
		.st1 {fill:none;stroke:none;stroke-linecap:butt;stroke-width:0.75}
		.st2 {fill:#000000;font-family:新細明體;font-size:0.833336em}
		.st3 {font-size:1em}
		.st4 {fill:none}
		.st5 {stroke:#000000;stroke-linecap:round;stroke-linejoin:round;stroke-width:0.705463}
		.st6 {stroke:#000000;stroke-linecap:round;stroke-linejoin:round;stroke-width:0.75}
		.st7 {fill:none;fill-rule:evenodd;font-size:12px;overflow:visible;stroke-linecap:square;stroke-miterlimit:3}
	]]>
	</style>

	<g v:mID="0" v:index="1" v:groupContext="foregroundPage">
		<title>頁-1</title>
		<v:pageProperties v:drawingScale="0.0393701" v:pageScale="0.0393701" v:drawingUnits="24" v:shadowOffsetX="9"
				v:shadowOffsetY="-9"/>
		<g id="shape53-1" v:mID="53" v:groupContext="shape" transform="translate(112.773,-23.4551) rotate(-0.2)">
			<title>工作表.53</title>
			<desc>不淨　　初二背捨　　前四勝處 淨觀　　第三背捨　　後四勝處　　前八一切處</desc>
			<v:textBlock v:margins="rect(0,0,0,0)" v:tabSpace="42.5197"/>
			<v:textRect cx="125.696" cy="38.8623" width="251.4" height="26.3162"/>
			<rect x="0" y="25.7042" width="251.392" height="26.3162" class="st1"/>
			<text x="0" y="35.23" class="st2" v:langID="1028"><v:paragraph v:spLine="-1.4"/><v:tabList/>不淨　　初二背捨　　（前）四勝處<v:newlineChar/><tspan
						x="0" dy="1.453em" class="st3">淨觀</tspan>　　第三背捨　　（後）四勝處　　（前）八一切處</text>		</g>
		<g id="shape60-5" v:mID="60" v:groupContext="shape" transform="translate(154.167,4.26969) rotate(89.8)">
			<title>工作表.60</title>
			<path d="M0 43.55 C0 45.91 0.83 47.79 1.91 47.79 L9.57 47.79 C10.59 47.79 11.48 49.67 11.48 52.02 C11.48 49.67 12.31
						 47.79 13.39 47.79 L21.05 47.79 C22.07 47.79 22.96 45.91 22.96 43.55 L0 43.55 Z" class="st4"/>
			<path d="M0 43.55 C0 45.91 0.83 47.79 1.91 47.79 L9.57 47.79 C10.59 47.79 11.48 49.67 11.48 52.02 C11.48 49.67 12.31
						 47.79 13.39 47.79 L21.05 47.79 C22.07 47.79 22.96 45.91 22.96 43.55" class="st5"/>
		</g>
		<g id="shape64-8" v:mID="64" v:groupContext="shape" transform="translate(0.615695,-29.7255) rotate(-0.2)">
			<title>工作表.64</title>
			<desc>背捨、勝處、遍處之別</desc>
			<v:textBlock v:margins="rect(0,0,0,0)" v:tabSpace="42.5197"/>
			<v:textRect cx="56.4371" cy="45.248" width="112.88" height="13.5449"/>
			<rect x="0" y="38.4755" width="112.874" height="13.5449" class="st1"/>
			<text x="0" y="48.88" class="st2" v:langID="1028"><v:paragraph v:spLine="-1.4"/><v:tabList/>背捨、勝處、遍處之別</text>		</g>
		<g id="shape72-11" v:mID="72" v:groupContext="shape" transform="translate(152.475,-1.41175) rotate(-0.2)">
			<title>工作表.72</title>
			<desc>初行或著</desc>
			<v:textBlock v:margins="rect(0,0,0,0)" v:tabSpace="42.5197"/>
			<v:textRect cx="20.7899" cy="45.248" width="41.58" height="13.5449"/>
			<rect x="0" y="38.4755" width="41.5798" height="13.5449" class="st1"/>
			<text x="0" y="48.88" class="st2" v:langID="1028"><v:paragraph v:spLine="-1.4"/><v:tabList/>初行或著</text>		</g>
		<g id="shape74-14" v:mID="74" v:groupContext="shape" transform="translate(209.815,-1.18819) rotate(-0.2)">
			<title>工作表.74</title>
			<desc>中行能不隨所緣</desc>
			<v:textBlock v:margins="rect(0,0,0,0)" v:tabSpace="42.5197"/>
			<v:textRect cx="35.2657" cy="45.248" width="70.54" height="13.5449"/>
			<rect x="0" y="38.4755" width="70.5315" height="13.5449" class="st1"/>
			<text x="-0" y="48.88" class="st2" v:langID="1028"><v:paragraph v:spLine="-1.4"/><v:tabList/>中行能不隨所緣</text>		</g>
		<g id="shape76-17" v:mID="76" v:groupContext="shape" transform="translate(302.779,-0.749683) rotate(-0.2)">
			<title>工作表.76</title>
			<desc>久行能廣大</desc>
			<v:textBlock v:margins="rect(0,0,0,0)" v:tabSpace="42.5197"/>
			<v:textRect cx="25.9234" cy="45.248" width="51.85" height="13.5449"/>
			<rect x="0" y="38.4755" width="51.8467" height="13.5449" class="st1"/>
			<text x="0" y="48.88" class="st2" v:langID="1028"><v:paragraph v:spLine="-1.4"/><v:tabList/>久行能廣大</text>		</g>
		<g id="shape168-20" v:mID="168" v:groupContext="shape" transform="translate(224.975,30.3523) rotate(90)">
			<title>工作表.168</title>
			<path d="M0 52.02 L6.3 52.02" class="st5"/>
		</g>
		<g id="shape169-23" v:mID="169" v:groupContext="shape" transform="translate(296.265,30.0651) rotate(90)">
			<title>工作表.169</title>
			<path d="M0 52.02 L6.82 52.02" class="st5"/>
		</g>
		<g id="shape170-26" v:mID="170" v:groupContext="shape" transform="translate(379.463,30.7848) rotate(90)">
			<title>工作表.170</title>
			<path d="M0 52.02 L6.39 52.02" class="st5"/>
		</g>
		<g id="shape224-29" v:mID="224" v:groupContext="shape" transform="translate(133.837,-43.5814)">
			<title>工作表.224</title>
			<path d="M0 52.02 L17.86 52.02" class="st6"/>
		</g>
		<g id="shape225-32" v:mID="225" v:groupContext="shape" transform="translate(133.837,-29.1247)">
			<title>工作表.225</title>
			<path d="M0 52.02 L17.86 52.02" class="st6"/>
		</g>
	</g>
</svg>
