<?xml version="1.0" encoding="UTF-8" standalone="no"?>
<!DOCTYPE svg PUBLIC "-//W3C//DTD SVG 1.1//EN" "http://www.w3.org/Graphics/SVG/1.1/DTD/svg11.dtd">
<!-- 由 Microsoft Visio, SVG Export 產生 F00803.svg 頁-1 -->
<svg xmlns="http://www.w3.org/2000/svg" xmlns:xlink="http://www.w3.org/1999/xlink" xmlns:ev="http://www.w3.org/2001/xml-events"
		xmlns:v="http://schemas.microsoft.com/visio/2003/SVGExtensions/" width="2.29428in" height="0.625755in"
		viewBox="0 0 165.188 45.0543" xml:space="preserve" color-interpolation-filters="sRGB" class="st5">
	<v:documentProperties v:langID="1028" v:viewMarkup="false"/>

	<style type="text/css">
	<![CDATA[
		.st1 {fill:none;stroke:none;stroke-linecap:butt;stroke-width:0.75}
		.st2 {fill:#000000;font-family:新細明體;font-size:0.833336em}
		.st3 {fill:none}
		.st4 {stroke:#000000;stroke-linecap:round;stroke-linejoin:round;stroke-width:0.705463}
		.st5 {fill:none;fill-rule:evenodd;font-size:12px;overflow:visible;stroke-linecap:square;stroke-miterlimit:3}
	]]>
	</style>

	<g v:mID="0" v:index="1" v:groupContext="foregroundPage">
		<title>頁-1</title>
		<v:pageProperties v:drawingScale="0.0393701" v:pageScale="0.0393701" v:drawingUnits="24" v:shadowOffsetX="9"
				v:shadowOffsetY="-9"/>
		<g id="shape36-1" v:mID="36" v:groupContext="shape" transform="translate(36.2241,-30.5623) rotate(-0.2)">
			<title>工作表.36</title>
			<desc>集一切佛法</desc>
			<v:textBlock v:margins="rect(0,0,0,0)" v:tabSpace="42.5197"/>
			<v:textRect cx="28.2185" cy="38.2819" width="56.44" height="13.5449"/>
			<rect x="0" y="31.5095" width="56.4371" height="13.5449" class="st1"/>
			<text x="0" y="41.4" class="st2" v:langID="1028"><v:paragraph/><v:tabList/>集一切佛法</text>		</g>
		<g id="shape37-4" v:mID="37" v:groupContext="shape" transform="translate(0.640011,-15.5378) rotate(-0.2)">
			<title>工作表.37</title>
			<desc>菩薩</desc>
			<v:textBlock v:margins="rect(0,0,0,0)" v:tabSpace="42.5197"/>
			<v:textRect cx="11.2874" cy="38.2819" width="22.58" height="13.5449"/>
			<rect x="0" y="31.5095" width="22.5748" height="13.5449" class="st1"/>
			<text x="0" y="41.4" class="st2" v:langID="1028"><v:paragraph/><v:tabList/>菩薩</text>		</g>
		<g id="shape38-7" v:mID="38" v:groupContext="shape" transform="translate(36.2837,-15.656) rotate(-0.2)">
			<title>工作表.38</title>
			<desc>度一切眾生</desc>
			<v:textBlock v:margins="rect(0,0,0,0)" v:tabSpace="42.5197"/>
			<v:textRect cx="28.2185" cy="38.2819" width="56.44" height="13.5449"/>
			<rect x="0" y="31.5095" width="56.4371" height="13.5449" class="st1"/>
			<text x="0" y="41.4" class="st2" v:langID="1028"><v:paragraph/><v:tabList/>度一切眾生</text>		</g>
		<g id="shape39-10" v:mID="39" v:groupContext="shape" transform="translate(107.844,-16.7417) rotate(-0.2)">
			<title>工作表.39</title>
			<desc>不疾入涅槃</desc>
			<v:textBlock v:margins="rect(0,0,0,0)" v:tabSpace="42.5197"/>
			<v:textRect cx="28.2185" cy="38.2819" width="56.44" height="13.5449"/>
			<rect x="0" y="31.5095" width="56.4371" height="13.5449" class="st1"/>
			<text x="0" y="41.4" class="st2" v:langID="1028"><v:paragraph/><v:tabList/>不疾入涅槃</text>		</g>
		<g id="shape40-13" v:mID="40" v:groupContext="shape" transform="translate(36.3428,-0.749726) rotate(-0.2)">
			<title>工作表.40</title>
			<desc>憫一切眾生</desc>
			<v:textBlock v:margins="rect(0,0,0,0)" v:tabSpace="42.5197"/>
			<v:textRect cx="28.2185" cy="38.2819" width="56.44" height="13.5449"/>
			<rect x="0" y="31.5095" width="56.4371" height="13.5449" class="st1"/>
			<text x="0" y="41.4" class="st2" v:langID="1028"><v:paragraph/><v:tabList/>憫一切眾生</text>		</g>
		<g id="shape105-16" v:mID="105" v:groupContext="shape" transform="translate(68.9798,3.30322) rotate(89.8)">
			<title>工作表.105</title>
			<path d="M0 35.51 C0 38.16 1.49 40.28 3.18 40.28 L15.91 40.28 C17.72 40.28 19.09 42.4 19.09 45.05 C19.09 42.4 20.58 40.28
						 22.28 40.28 L35.01 40.28 C36.81 40.28 38.19 38.16 38.19 35.51 L0 35.51 Z" class="st3"/>
			<path d="M0 35.51 C0 38.16 1.49 40.28 3.18 40.28 L15.91 40.28 C17.72 40.28 19.09 42.4 19.09 45.05 C19.09 42.4 20.58 40.28
						 22.28 40.28 L35.01 40.28 C36.81 40.28 38.19 38.16 38.19 35.51" class="st4"/>
		</g>
		<g id="shape106-19" v:mID="106" v:groupContext="shape" transform="translate(121.523,-24.4193) rotate(44.8)">
			<title>工作表.106</title>
			<path d="M0 45.05 L20.23 45.05" class="st4"/>
		</g>
		<g id="shape107-22" v:mID="107" v:groupContext="shape" transform="translate(56.6241,5.60045) rotate(-45)">
			<title>工作表.107</title>
			<path d="M0 45.05 L22.13 45.05" class="st4"/>
		</g>
	</g>
</svg>
