<?xml version="1.0" encoding="UTF-8" standalone="no"?>
<!DOCTYPE svg PUBLIC "-//W3C//DTD SVG 1.1//EN" "http://www.w3.org/Graphics/SVG/1.1/DTD/svg11.dtd">
<!-- 由 Microsoft Visio, SVG Export 產生 F00805.svg 頁-1 -->
<svg xmlns="http://www.w3.org/2000/svg" xmlns:xlink="http://www.w3.org/1999/xlink" xmlns:ev="http://www.w3.org/2001/xml-events"
		xmlns:v="http://schemas.microsoft.com/visio/2003/SVGExtensions/" width="7.57712in" height="1.64984in"
		viewBox="0 0 545.553 118.789" xml:space="preserve" color-interpolation-filters="sRGB" class="st6">
	<v:documentProperties v:langID="1028" v:viewMarkup="false"/>

	<style type="text/css">
	<![CDATA[
		.st1 {fill:none;stroke:none;stroke-linecap:butt;stroke-width:0.75}
		.st2 {fill:#000000;font-family:Times New Roman;font-size:0.833336em}
		.st3 {fill:#000000;font-family:新細明體;font-size:0.833336em}
		.st4 {fill:none}
		.st5 {stroke:#000000;stroke-linecap:round;stroke-linejoin:round;stroke-width:0.705463}
		.st6 {fill:none;fill-rule:evenodd;font-size:12px;overflow:visible;stroke-linecap:square;stroke-miterlimit:3}
	]]>
	</style>

	<g v:mID="0" v:index="1" v:groupContext="foregroundPage">
		<title>頁-1</title>
		<v:pageProperties v:drawingScale="0.0393701" v:pageScale="0.0393701" v:drawingUnits="24" v:shadowOffsetX="9"
				v:shadowOffsetY="-9"/>
		<g id="shape67-1" v:mID="67" v:groupContext="shape" transform="translate(0.38263,-102.818) rotate(-0.2)">
			<title>工作表.67</title>
			<desc>1.</desc>
			<v:textBlock v:margins="rect(0,0,0,0)"/>
			<v:textRect cx="108.641" cy="112.016" width="217.29" height="13.5449"/>
			<rect x="0" y="105.244" width="217.283" height="13.5449" class="st1"/>
			<text x="74.2" y="115.02" class="st2" v:langID="1028"><v:paragraph/><v:tabList/>1.</text>		</g>
		<g id="shape68-4" v:mID="68" v:groupContext="shape" transform="translate(87.4234,-103.124) rotate(-0.2)">
			<title>工作表.68</title>
			<desc>佛語皆實、</desc>
			<v:textBlock v:margins="rect(0,0,0,0)" v:tabSpace="42.5197"/>
			<v:textRect cx="28.2185" cy="112.016" width="56.44" height="13.5449"/>
			<rect x="0" y="105.244" width="56.4371" height="13.5449" class="st1"/>
			<text x="-0" y="115.13" class="st3" v:langID="1028"><v:paragraph/><v:tabList/>佛語皆實、</text>		</g>
		<g id="shape69-7" v:mID="69" v:groupContext="shape" transform="translate(144.296,-103.321) rotate(-0.2)">
			<title>工作表.69</title>
			<desc>2.</desc>
			<v:textBlock v:margins="rect(0,0,0,0)" v:tabSpace="42.5197"/>
			<v:textRect cx="11.2874" cy="112.016" width="22.58" height="13.5449"/>
			<rect x="0" y="105.244" width="22.5748" height="13.5449" class="st1"/>
			<text x="0" y="115.02" class="st2" v:langID="1028"><v:paragraph/><v:tabList/>2.</text>		</g>
		<g id="shape70-10" v:mID="70" v:groupContext="shape" transform="translate(152.762,-103.35) rotate(-0.2)">
			<title>工作表.70</title>
			<desc>亦深亦淺、</desc>
			<v:textBlock v:margins="rect(0,0,0,0)" v:tabSpace="42.5197"/>
			<v:textRect cx="28.2185" cy="112.016" width="56.44" height="13.5449"/>
			<rect x="0" y="105.244" width="56.4371" height="13.5449" class="st1"/>
			<text x="0" y="115.13" class="st3" v:langID="1028"><v:paragraph/><v:tabList/>亦深亦淺、</text>		</g>
		<g id="shape71-13" v:mID="71" v:groupContext="shape" transform="translate(209.198,-103.547) rotate(-0.2)">
			<title>工作表.71</title>
			<desc>3.</desc>
			<v:textBlock v:margins="rect(0,0,0,0)" v:tabSpace="42.5197"/>
			<v:textRect cx="11.2874" cy="112.016" width="22.58" height="13.5449"/>
			<rect x="0" y="105.244" width="22.5748" height="13.5449" class="st1"/>
			<text x="0" y="115.02" class="st2" v:langID="1028"><v:paragraph/><v:tabList/>3.</text>		</g>
		<g id="shape72-16" v:mID="72" v:groupContext="shape" transform="translate(217.664,-103.577) rotate(-0.2)">
			<title>工作表.72</title>
			<desc>重語無失、</desc>
			<v:textBlock v:margins="rect(0,0,0,0)" v:tabSpace="42.5197"/>
			<v:textRect cx="28.2185" cy="112.016" width="56.44" height="13.5449"/>
			<rect x="0" y="105.244" width="56.4371" height="13.5449" class="st1"/>
			<text x="-0" y="115.13" class="st3" v:langID="1028"><v:paragraph/><v:tabList/>重語無失、</text>		</g>
		<g id="shape73-19" v:mID="73" v:groupContext="shape" transform="translate(274.101,-103.774) rotate(-0.2)">
			<title>工作表.73</title>
			<desc>4.</desc>
			<v:textBlock v:margins="rect(0,0,0,0)" v:tabSpace="42.5197"/>
			<v:textRect cx="11.2874" cy="112.016" width="22.58" height="13.5449"/>
			<rect x="0" y="105.244" width="22.5748" height="13.5449" class="st1"/>
			<text x="-0" y="115.02" class="st2" v:langID="1028"><v:paragraph/><v:tabList/>4.</text>		</g>
		<g id="shape74-22" v:mID="74" v:groupContext="shape" transform="translate(282.566,-103.803) rotate(-0.2)">
			<title>工作表.74</title>
			<desc>四處莊嚴、</desc>
			<v:textBlock v:margins="rect(0,0,0,0)" v:tabSpace="42.5197"/>
			<v:textRect cx="28.2185" cy="112.016" width="56.44" height="13.5449"/>
			<rect x="0" y="105.244" width="56.4371" height="13.5449" class="st1"/>
			<text x="-0" y="115.13" class="st3" v:langID="1028"><v:paragraph/><v:tabList/>四處莊嚴、</text>		</g>
		<g id="shape75-25" v:mID="75" v:groupContext="shape" transform="translate(339.003,-104.001) rotate(-0.2)">
			<title>工作表.75</title>
			<desc>5.</desc>
			<v:textBlock v:margins="rect(0,0,0,0)" v:tabSpace="42.5197"/>
			<v:textRect cx="11.2874" cy="112.016" width="22.58" height="13.5449"/>
			<rect x="0" y="105.244" width="22.5748" height="13.5449" class="st1"/>
			<text x="0" y="115.02" class="st2" v:langID="1028"><v:paragraph/><v:tabList/>5.</text>		</g>
		<g id="shape76-28" v:mID="76" v:groupContext="shape" transform="translate(347.468,-104.03) rotate(-0.2)">
			<title>工作表.76</title>
			<desc>四答故不可壞、</desc>
			<v:textBlock v:margins="rect(0,0,0,0)" v:tabSpace="42.5197"/>
			<v:textRect cx="39.5059" cy="112.016" width="79.02" height="13.5449"/>
			<rect x="0" y="105.244" width="79.0119" height="13.5449" class="st1"/>
			<text x="0" y="115.13" class="st3" v:langID="1028"><v:paragraph/><v:tabList/>四答故不可壞、</text>		</g>
		<g id="shape77-31" v:mID="77" v:groupContext="shape" transform="translate(426.48,-104.306) rotate(-0.2)">
			<title>工作表.77</title>
			<desc>6.</desc>
			<v:textBlock v:margins="rect(0,0,0,0)" v:tabSpace="42.5197"/>
			<v:textRect cx="11.2874" cy="112.016" width="22.58" height="13.5449"/>
			<rect x="0" y="105.244" width="22.5748" height="13.5449" class="st1"/>
			<text x="0" y="115.02" class="st2" v:langID="1028"><v:paragraph/><v:tabList/>6.</text>		</g>
		<g id="shape78-34" v:mID="78" v:groupContext="shape" transform="translate(434.945,-104.336) rotate(-0.2)">
			<title>工作表.78</title>
			<desc>遮聽不定</desc>
			<v:textBlock v:margins="rect(0,0,0,0)" v:tabSpace="42.5197"/>
			<v:textRect cx="22.5748" cy="112.016" width="45.15" height="13.5449"/>
			<rect x="0" y="105.244" width="45.1496" height="13.5449" class="st1"/>
			<text x="-0" y="115.13" class="st3" v:langID="1028"><v:paragraph/><v:tabList/>遮聽不定</text>		</g>
		<g id="shape79-37" v:mID="79" v:groupContext="shape" transform="translate(75.9634,-87.4713) rotate(-0.2)">
			<title>工作表.79</title>
			<desc>7.</desc>
			<v:textBlock v:margins="rect(0,0,0,0)" v:tabSpace="42.5197"/>
			<v:textRect cx="11.2874" cy="112.016" width="22.58" height="13.5449"/>
			<rect x="0" y="105.244" width="22.5748" height="13.5449" class="st1"/>
			<text x="0" y="115.02" class="st2" v:langID="1028"><v:paragraph/><v:tabList/>7.</text>		</g>
		<g id="shape80-40" v:mID="80" v:groupContext="shape" transform="translate(87.4816,-87.5008) rotate(-0.2)">
			<title>工作表.80</title>
			<desc>無戲論而破有無論、</desc>
			<v:textBlock v:margins="rect(0,0,0,0)" v:tabSpace="42.5197"/>
			<v:textRect cx="50.7933" cy="112.016" width="101.59" height="13.5449"/>
			<rect x="0" y="105.244" width="101.587" height="13.5449" class="st1"/>
			<text x="0" y="115.13" class="st3" v:langID="1028"><v:paragraph/><v:tabList/>無戲論而破有無論、</text>		</g>
		<g id="shape81-43" v:mID="81" v:groupContext="shape" transform="translate(186.015,-87.8554) rotate(-0.2)">
			<title>工作表.81</title>
			<desc>8.</desc>
			<v:textBlock v:margins="rect(0,0,0,0)" v:tabSpace="42.5197"/>
			<v:textRect cx="11.2874" cy="112.016" width="22.58" height="13.5449"/>
			<rect x="0" y="105.244" width="22.5748" height="13.5449" class="st1"/>
			<text x="-0" y="115.02" class="st2" v:langID="1028"><v:paragraph/><v:tabList/>8.</text>		</g>
		<g id="shape82-46" v:mID="82" v:groupContext="shape" transform="translate(194.48,-87.885) rotate(-0.2)">
			<title>工作表.82</title>
			<desc>順第一義說世間無咎、</desc>
			<v:textBlock v:margins="rect(0,0,0,0)" v:tabSpace="42.5197"/>
			<v:textRect cx="56.4371" cy="112.016" width="112.88" height="13.5449"/>
			<rect x="0" y="105.244" width="112.874" height="13.5449" class="st1"/>
			<text x="0" y="115.13" class="st3" v:langID="1028"><v:paragraph/><v:tabList/>順第一義說世間無咎、</text>		</g>
		<g id="shape83-49" v:mID="83" v:groupContext="shape" transform="translate(307.354,-88.279) rotate(-0.2)">
			<title>工作表.83</title>
			<desc>9.</desc>
			<v:textBlock v:margins="rect(0,0,0,0)" v:tabSpace="42.5197"/>
			<v:textRect cx="11.2874" cy="112.016" width="22.58" height="13.5449"/>
			<rect x="0" y="105.244" width="22.5748" height="13.5449" class="st1"/>
			<text x="0" y="115.02" class="st2" v:langID="1028"><v:paragraph/><v:tabList/>9.</text>		</g>
		<g id="shape84-52" v:mID="84" v:groupContext="shape" transform="translate(315.819,-88.3085) rotate(-0.2)">
			<title>工作表.84</title>
			<desc>於淨人為美於不淨人為惡、</desc>
			<v:textBlock v:margins="rect(0,0,0,0)" v:tabSpace="42.5197"/>
			<v:textRect cx="67.7245" cy="112.016" width="135.45" height="13.5449"/>
			<rect x="0" y="105.244" width="135.449" height="13.5449" class="st1"/>
			<text x="0" y="115.13" class="st3" v:langID="1028"><v:paragraph/><v:tabList/>於淨人為美於不淨人為惡、</text>		</g>
		<g id="shape85-55" v:mID="85" v:groupContext="shape" transform="translate(451.268,-88.7818) rotate(-0.2)">
			<title>工作表.85</title>
			<desc>10.</desc>
			<v:textBlock v:margins="rect(0,0,0,0)" v:tabSpace="42.5197"/>
			<v:textRect cx="16.9311" cy="112.016" width="33.87" height="13.5449"/>
			<rect x="0" y="105.244" width="33.8622" height="13.5449" class="st1"/>
			<text x="0" y="115.02" class="st2" v:langID="1028"><v:paragraph/><v:tabList/>10.</text>		</g>
		<g id="shape86-58" v:mID="86" v:groupContext="shape" transform="translate(465.377,-88.8311) rotate(-0.2)">
			<title>工作表.86</title>
			<desc>於美語苦語無罪</desc>
			<v:textBlock v:margins="rect(0,0,0,0)" v:tabSpace="42.5197"/>
			<v:textRect cx="39.5059" cy="112.016" width="79.02" height="13.5449"/>
			<rect x="0" y="105.244" width="79.0119" height="13.5449" class="st1"/>
			<text x="0" y="115.13" class="st3" v:langID="1028"><v:paragraph/><v:tabList/>於美語苦語無罪</text>		</g>
		<g id="group102-61" transform="translate(170.345,8.64282) rotate(89.8)" v:mID="102" v:groupContext="group">
			<title>工作表.102</title>
			<g id="group103-62" v:mID="103" v:groupContext="group">
				<title>工作表.103</title>
				<g id="shape104-63" v:mID="104" v:groupContext="shape">
					<title>工作表.104</title>
					<path d="M0 101.86 C0 106.56 3.57 110.32 8 110.32 L41.67 110.32 C46.09 110.32 49.66 114.18 49.66 118.79 C49.66
								 114.18 53.24 110.32 57.66 110.32 L93.69 110.32 C98.11 110.32 101.68 106.56 101.68 101.86 L0 101.86
								 Z" class="st4"/>
					<path d="M0 101.86 C0 106.56 3.57 110.32 8 110.32 L41.67 110.32 C46.09 110.32 49.66 114.18 49.66 118.79 C49.66
								 114.18 53.24 110.32 57.66 110.32 L93.69 110.32 C98.11 110.32 101.68 106.56 101.68 101.86"
							class="st5"/>
				</g>
			</g>
		</g>
		<g id="shape111-66" v:mID="111" v:groupContext="shape" transform="translate(74.1017,-68.4733) rotate(-0.2)">
			<title>工作表.111</title>
			<desc>11.</desc>
			<v:textBlock v:margins="rect(0,0,0,0)"/>
			<v:textRect cx="16.9311" cy="112.016" width="33.87" height="13.5449"/>
			<rect x="0" y="105.244" width="33.8622" height="13.5449" class="st1"/>
			<text x="-0" y="115.02" class="st2" v:langID="1028"><v:paragraph/><v:tabList/>11.</text>		</g>
		<g id="shape112-69" v:mID="112" v:groupContext="shape" transform="translate(87.8159,-68.5217) rotate(-0.2)">
			<title>工作表.112</title>
			<desc>隨善法不著善法、</desc>
			<v:textBlock v:margins="rect(0,0,0,0)" v:tabSpace="42.5197"/>
			<v:textRect cx="45.1496" cy="112.016" width="90.3" height="13.5449"/>
			<rect x="0" y="105.244" width="90.2993" height="13.5449" class="st1"/>
			<text x="-0" y="115.13" class="st3" v:langID="1028"><v:paragraph/><v:tabList/>隨善法不著善法、</text>		</g>
		<g id="shape113-72" v:mID="113" v:groupContext="shape" transform="translate(178.115,-68.8369) rotate(-0.2)">
			<title>工作表.113</title>
			<desc>12.</desc>
			<v:textBlock v:margins="rect(0,0,0,0)" v:tabSpace="42.5197"/>
			<v:textRect cx="16.9311" cy="112.016" width="33.87" height="13.5449"/>
			<rect x="0" y="105.244" width="33.8622" height="13.5449" class="st1"/>
			<text x="-0" y="115.02" class="st2" v:langID="1028"><v:paragraph/><v:tabList/>12.</text>		</g>
		<g id="shape114-75" v:mID="114" v:groupContext="shape" transform="translate(192.224,-68.8861) rotate(-0.2)">
			<title>工作表.114</title>
			<desc>訶讚而無所依、</desc>
			<v:textBlock v:margins="rect(0,0,0,0)" v:tabSpace="42.5197"/>
			<v:textRect cx="39.5059" cy="112.016" width="79.02" height="13.5449"/>
			<rect x="0" y="105.244" width="79.0119" height="13.5449" class="st1"/>
			<text x="-0" y="115.13" class="st3" v:langID="1028"><v:paragraph/><v:tabList/>訶讚而無所依、</text>		</g>
		<g id="shape115-78" v:mID="115" v:groupContext="shape" transform="translate(271.235,-69.1619) rotate(-0.2)">
			<title>工作表.115</title>
			<desc>13.</desc>
			<v:textBlock v:margins="rect(0,0,0,0)" v:tabSpace="42.5197"/>
			<v:textRect cx="16.9311" cy="112.016" width="33.87" height="13.5449"/>
			<rect x="0" y="105.244" width="33.8622" height="13.5449" class="st1"/>
			<text x="0" y="115.02" class="st2" v:langID="1028"><v:paragraph/><v:tabList/>13.</text>		</g>
		<g id="shape116-81" v:mID="116" v:groupContext="shape" transform="translate(285.344,-69.2112) rotate(-0.2)">
			<title>工作表.116</title>
			<desc>無增減而有略廣、</desc>
			<v:textBlock v:margins="rect(0,0,0,0)" v:tabSpace="42.5197"/>
			<v:textRect cx="45.1496" cy="112.016" width="90.3" height="13.5449"/>
			<rect x="0" y="105.244" width="90.2993" height="13.5449" class="st1"/>
			<text x="0" y="115.13" class="st3" v:langID="1028"><v:paragraph/><v:tabList/>無增減而有略廣、</text>		</g>
		<g id="shape117-84" v:mID="117" v:groupContext="shape" transform="translate(375.643,-69.5269) rotate(-0.2)">
			<title>工作表.117</title>
			<desc>14.</desc>
			<v:textBlock v:margins="rect(0,0,0,0)" v:tabSpace="42.5197"/>
			<v:textRect cx="16.9311" cy="112.016" width="33.87" height="13.5449"/>
			<rect x="0" y="105.244" width="33.8622" height="13.5449" class="st1"/>
			<text x="0" y="115.02" class="st2" v:langID="1028"><v:paragraph/><v:tabList/>14.</text>		</g>
		<g id="shape118-87" v:mID="118" v:groupContext="shape" transform="translate(389.316,-70.0122) rotate(-0.2)">
			<title>工作表.118</title>
			<desc>初善久久研求亦善</desc>
			<v:textBlock v:margins="rect(0,0,0,0)" v:tabSpace="42.5197"/>
			<v:textRect cx="45.1496" cy="112.016" width="90.3" height="13.5449"/>
			<rect x="0" y="105.244" width="90.2993" height="13.5449" class="st1"/>
			<text x="0" y="115.13" class="st3" v:langID="1028"><v:paragraph/><v:tabList/>初善久久研求亦善</text>		</g>
		<g id="shape119-90" v:mID="119" v:groupContext="shape" transform="translate(4.74362,-53.0114) rotate(-0.2)">
			<title>工作表.119</title>
			<desc>佛說甚奇</desc>
			<v:textBlock v:margins="rect(0,0,0,0)" v:tabSpace="42.5197"/>
			<v:textRect cx="22.5748" cy="112.016" width="45.15" height="13.5449"/>
			<rect x="0" y="105.244" width="45.1496" height="13.5449" class="st1"/>
			<text x="0" y="115.13" class="st3" v:langID="1028"><v:paragraph/><v:tabList/>佛說甚奇</text>		</g>
		<g id="shape120-93" v:mID="120" v:groupContext="shape" transform="translate(41.3424,-51.2232) rotate(-0.2)">
			<title>工作表.120</title>
			<desc>15.</desc>
			<v:textBlock v:margins="rect(0,0,0,0)"/>
			<v:textRect cx="57.848" cy="112.016" width="115.7" height="13.5449"/>
			<rect x="0" y="105.244" width="115.696" height="13.5449" class="st1"/>
			<text x="31.8" y="115.02" class="st2" v:langID="1028"><v:paragraph/><v:tabList/>15.</text>		</g>
		<g id="shape121-96" v:mID="121" v:groupContext="shape" transform="translate(88.27,-51.5916) rotate(-0.2)">
			<title>工作表.121</title>
			<desc>語多而義不薄、</desc>
			<v:textBlock v:margins="rect(0,0,0,0)" v:tabSpace="42.5197"/>
			<v:textRect cx="39.5059" cy="112.016" width="79.02" height="13.5449"/>
			<rect x="0" y="105.244" width="79.0119" height="13.5449" class="st1"/>
			<text x="-0" y="115.13" class="st3" v:langID="1028"><v:paragraph/><v:tabList/>語多而義不薄、</text>		</g>
		<g id="shape122-99" v:mID="122" v:groupContext="shape" transform="translate(167.281,-51.8674) rotate(-0.2)">
			<title>工作表.122</title>
			<desc>16.</desc>
			<v:textBlock v:margins="rect(0,0,0,0)" v:tabSpace="42.5197"/>
			<v:textRect cx="16.9311" cy="112.016" width="33.87" height="13.5449"/>
			<rect x="0" y="105.244" width="33.8622" height="13.5449" class="st1"/>
			<text x="0" y="115.02" class="st2" v:langID="1028"><v:paragraph/><v:tabList/>16.</text>		</g>
		<g id="shape123-102" v:mID="123" v:groupContext="shape" transform="translate(181.391,-51.9166) rotate(-0.2)">
			<title>工作表.123</title>
			<desc>語雜而義不亂、</desc>
			<v:textBlock v:margins="rect(0,0,0,0)" v:tabSpace="42.5197"/>
			<v:textRect cx="39.5059" cy="112.016" width="79.02" height="13.5449"/>
			<rect x="0" y="105.244" width="79.0119" height="13.5449" class="st1"/>
			<text x="0" y="115.13" class="st3" v:langID="1028"><v:paragraph/><v:tabList/>語雜而義不亂、</text>		</g>
		<g id="shape124-105" v:mID="124" v:groupContext="shape" transform="translate(260.402,-52.1924) rotate(-0.2)">
			<title>工作表.124</title>
			<desc>17.</desc>
			<v:textBlock v:margins="rect(0,0,0,0)" v:tabSpace="42.5197"/>
			<v:textRect cx="16.9311" cy="112.016" width="33.87" height="13.5449"/>
			<rect x="0" y="105.244" width="33.8622" height="13.5449" class="st1"/>
			<text x="-0" y="115.02" class="st2" v:langID="1028"><v:paragraph/><v:tabList/>17.</text>		</g>
		<g id="shape125-108" v:mID="125" v:groupContext="shape" transform="translate(274.511,-52.2417) rotate(-0.2)">
			<title>工作表.125</title>
			<desc>引人心不令人著、</desc>
			<v:textBlock v:margins="rect(0,0,0,0)" v:tabSpace="42.5197"/>
			<v:textRect cx="45.1496" cy="112.016" width="90.3" height="13.5449"/>
			<rect x="0" y="105.244" width="90.2993" height="13.5449" class="st1"/>
			<text x="-0" y="115.13" class="st3" v:langID="1028"><v:paragraph/><v:tabList/>引人心不令人著、</text>		</g>
		<g id="shape126-111" v:mID="126" v:groupContext="shape" transform="translate(364.81,-52.5573) rotate(-0.2)">
			<title>工作表.126</title>
			<desc>18.</desc>
			<v:textBlock v:margins="rect(0,0,0,0)" v:tabSpace="42.5197"/>
			<v:textRect cx="16.9311" cy="112.016" width="33.87" height="13.5449"/>
			<rect x="0" y="105.244" width="33.8622" height="13.5449" class="st1"/>
			<text x="0" y="115.02" class="st2" v:langID="1028"><v:paragraph/><v:tabList/>18.</text>		</g>
		<g id="shape127-114" v:mID="127" v:groupContext="shape" transform="translate(378.919,-52.6066) rotate(-0.2)">
			<title>工作表.127</title>
			<desc>高顯而人不難</desc>
			<v:textBlock v:margins="rect(0,0,0,0)" v:tabSpace="42.5197"/>
			<v:textRect cx="33.8622" cy="112.016" width="67.73" height="13.5449"/>
			<rect x="0" y="105.244" width="67.7245" height="13.5449" class="st1"/>
			<text x="0" y="115.13" class="st3" v:langID="1028"><v:paragraph/><v:tabList/>高顯而人不難</text>		</g>
		<g id="shape128-117" v:mID="128" v:groupContext="shape" transform="translate(73.7838,-34.6113) rotate(-0.2)">
			<title>工作表.128</title>
			<desc>19.</desc>
			<v:textBlock v:margins="rect(0,0,0,0)" v:tabSpace="42.5197"/>
			<v:textRect cx="16.9311" cy="112.016" width="33.87" height="13.5449"/>
			<rect x="0" y="105.244" width="33.8622" height="13.5449" class="st1"/>
			<text x="0" y="115.02" class="st2" v:langID="1028"><v:paragraph/><v:tabList/>19.</text>		</g>
		<g id="shape129-120" v:mID="129" v:groupContext="shape" transform="translate(87.893,-34.6606) rotate(-0.2)">
			<title>工作表.129</title>
			<desc>遍而小人不解、</desc>
			<v:textBlock v:margins="rect(0,0,0,0)" v:tabSpace="42.5197"/>
			<v:textRect cx="39.5059" cy="112.016" width="79.02" height="13.5449"/>
			<rect x="0" y="105.244" width="79.0119" height="13.5449" class="st1"/>
			<text x="0" y="115.13" class="st3" v:langID="1028"><v:paragraph/><v:tabList/>遍而小人不解、</text>		</g>
		<g id="shape130-123" v:mID="130" v:groupContext="shape" transform="translate(167.341,-34.9364) rotate(-0.2)">
			<title>工作表.130</title>
			<desc>20.</desc>
			<v:textBlock v:margins="rect(0,0,0,0)" v:tabSpace="42.5197"/>
			<v:textRect cx="16.9311" cy="112.016" width="33.87" height="13.5449"/>
			<rect x="0" y="105.244" width="33.8622" height="13.5449" class="st1"/>
			<text x="-0" y="115.02" class="st2" v:langID="1028"><v:paragraph/><v:tabList/>20.</text>		</g>
		<g id="shape131-126" v:mID="131" v:groupContext="shape" transform="translate(181.45,-34.9856) rotate(-0.2)">
			<title>工作表.131</title>
			<desc>令人汗出毛豎、</desc>
			<v:textBlock v:margins="rect(0,0,0,0)" v:tabSpace="42.5197"/>
			<v:textRect cx="39.5059" cy="112.016" width="79.02" height="13.5449"/>
			<rect x="0" y="105.244" width="79.0119" height="13.5449" class="st1"/>
			<text x="-0" y="115.13" class="st3" v:langID="1028"><v:paragraph/><v:tabList/>令人汗出毛豎、</text>		</g>
		<g id="shape132-129" v:mID="132" v:groupContext="shape" transform="translate(260.461,-35.2614) rotate(-0.2)">
			<title>工作表.132</title>
			<desc>21.</desc>
			<v:textBlock v:margins="rect(0,0,0,0)" v:tabSpace="42.5197"/>
			<v:textRect cx="16.9311" cy="112.016" width="33.87" height="13.5449"/>
			<rect x="0" y="105.244" width="33.8622" height="13.5449" class="st1"/>
			<text x="0" y="115.02" class="st2" v:langID="1028"><v:paragraph/><v:tabList/>21.</text>		</g>
		<g id="shape133-132" v:mID="133" v:groupContext="shape" transform="translate(274.57,-35.3107) rotate(-0.2)">
			<title>工作表.133</title>
			<desc>令天心厭、</desc>
			<v:textBlock v:margins="rect(0,0,0,0)" v:tabSpace="42.5197"/>
			<v:textRect cx="28.2185" cy="112.016" width="56.44" height="13.5449"/>
			<rect x="0" y="105.244" width="56.4371" height="13.5449" class="st1"/>
			<text x="0" y="115.13" class="st3" v:langID="1028"><v:paragraph/><v:tabList/>令天心厭、</text>		</g>
		<g id="shape134-135" v:mID="134" v:groupContext="shape" transform="translate(331.007,-35.5081) rotate(-0.2)">
			<title>工作表.134</title>
			<desc>22.</desc>
			<v:textBlock v:margins="rect(0,0,0,0)" v:tabSpace="42.5197"/>
			<v:textRect cx="16.9311" cy="112.016" width="33.87" height="13.5449"/>
			<rect x="0" y="105.244" width="33.8622" height="13.5449" class="st1"/>
			<text x="0" y="115.02" class="st2" v:langID="1028"><v:paragraph/><v:tabList/>22.</text>		</g>
		<g id="shape135-138" v:mID="135" v:groupContext="shape" transform="translate(345.116,-35.5574) rotate(-0.2)">
			<title>工作表.135</title>
			<desc>令捨久所著而樂所不著</desc>
			<v:textBlock v:margins="rect(0,0,0,0)" v:tabSpace="42.5197"/>
			<v:textRect cx="56.4371" cy="112.016" width="112.88" height="13.5449"/>
			<rect x="0" y="105.244" width="112.874" height="13.5449" class="st1"/>
			<text x="0" y="115.13" class="st3" v:langID="1028"><v:paragraph/><v:tabList/>令捨久所著而樂所不著</text>		</g>
		<g id="shape136-141" v:mID="136" v:groupContext="shape" transform="translate(74.279,-17.6803) rotate(-0.2)">
			<title>工作表.136</title>
			<desc>23.</desc>
			<v:textBlock v:margins="rect(0,0,0,0)" v:tabSpace="42.5197"/>
			<v:textRect cx="16.9311" cy="112.016" width="33.87" height="13.5449"/>
			<rect x="0" y="105.244" width="33.8622" height="13.5449" class="st1"/>
			<text x="-0" y="115.02" class="st2" v:langID="1028"><v:paragraph/><v:tabList/>23.</text>		</g>
		<g id="shape137-144" v:mID="137" v:groupContext="shape" transform="translate(88.3882,-17.7295) rotate(-0.2)">
			<title>工作表.137</title>
			<desc>惡人聞憂怖善人聞如甘露味、</desc>
			<v:textBlock v:margins="rect(0,0,0,0)" v:tabSpace="42.5197"/>
			<v:textRect cx="79.0119" cy="112.016" width="158.03" height="13.5449"/>
			<rect x="0" y="105.244" width="158.024" height="13.5449" class="st1"/>
			<text x="-0" y="115.13" class="st3" v:langID="1028"><v:paragraph/><v:tabList/>惡人聞憂怖，善人聞如甘露味、</text>		</g>
		<g id="shape138-147" v:mID="138" v:groupContext="shape" transform="translate(246.411,-18.2811) rotate(-0.2)">
			<title>工作表.138</title>
			<desc>24.</desc>
			<v:textBlock v:margins="rect(0,0,0,0)" v:tabSpace="42.5197"/>
			<v:textRect cx="16.9311" cy="112.016" width="33.87" height="13.5449"/>
			<rect x="0" y="105.244" width="33.8622" height="13.5449" class="st1"/>
			<text x="-0" y="115.02" class="st2" v:langID="1028"><v:paragraph/><v:tabList/>24.</text>		</g>
		<g id="shape139-150" v:mID="139" v:groupContext="shape" transform="translate(260.52,-18.3304) rotate(-0.2)">
			<title>工作表.139</title>
			<desc>一音普被同聞異解、</desc>
			<v:textBlock v:margins="rect(0,0,0,0)" v:tabSpace="42.5197"/>
			<v:textRect cx="50.7933" cy="112.016" width="101.59" height="13.5449"/>
			<rect x="0" y="105.244" width="101.587" height="13.5449" class="st1"/>
			<text x="0" y="115.13" class="st3" v:langID="1028"><v:paragraph/><v:tabList/>一音普被同聞異解、</text>		</g>
		<g id="shape140-153" v:mID="140" v:groupContext="shape" transform="translate(362.106,-18.6859) rotate(-0.2)">
			<title>工作表.140</title>
			<desc>25.</desc>
			<v:textBlock v:margins="rect(0,0,0,0)" v:tabSpace="42.5197"/>
			<v:textRect cx="16.9311" cy="112.016" width="33.87" height="13.5449"/>
			<rect x="0" y="105.244" width="33.8622" height="13.5449" class="st1"/>
			<text x="0" y="115.02" class="st2" v:langID="1028"><v:paragraph/><v:tabList/>25.</text>		</g>
		<g id="shape141-156" v:mID="141" v:groupContext="shape" transform="translate(376.215,-18.7352) rotate(-0.2)">
			<title>工作表.141</title>
			<desc>處有遠近聲無增減</desc>
			<v:textBlock v:margins="rect(0,0,0,0)" v:tabSpace="42.5197"/>
			<v:textRect cx="50.7933" cy="112.016" width="101.59" height="13.5449"/>
			<rect x="0" y="105.244" width="101.587" height="13.5449" class="st1"/>
			<text x="0" y="115.13" class="st3" v:langID="1028"><v:paragraph/><v:tabList/>處有遠近，聲無增減</text>		</g>
		<g id="shape142-159" v:mID="142" v:groupContext="shape" transform="translate(74.3381,-0.749276) rotate(-0.2)">
			<title>工作表.142</title>
			<desc>26.</desc>
			<v:textBlock v:margins="rect(0,0,0,0)" v:tabSpace="42.5197"/>
			<v:textRect cx="16.9311" cy="112.016" width="33.87" height="13.5449"/>
			<rect x="0" y="105.244" width="33.8622" height="13.5449" class="st1"/>
			<text x="0" y="115.02" class="st2" v:langID="1028"><v:paragraph/><v:tabList/>26.</text>		</g>
		<g id="shape143-162" v:mID="143" v:groupContext="shape" transform="translate(88.4473,-0.798527) rotate(-0.2)">
			<title>工作表.143</title>
			<desc>應度者聞不度者不聞</desc>
			<v:textBlock v:margins="rect(0,0,0,0)" v:tabSpace="42.5197"/>
			<v:textRect cx="56.4371" cy="112.016" width="112.88" height="13.5449"/>
			<rect x="0" y="105.244" width="112.874" height="13.5449" class="st1"/>
			<text x="-0" y="115.13" class="st3" v:langID="1028"><v:paragraph/><v:tabList/>應度者聞，不度者不聞</text>		</g>
	</g>
</svg>
