<?xml version="1.0" encoding="UTF-8" standalone="no"?>
<!DOCTYPE svg PUBLIC "-//W3C//DTD SVG 1.1//EN" "http://www.w3.org/Graphics/SVG/1.1/DTD/svg11.dtd">
<!-- 由 Microsoft Visio, SVG Export 產生 F00902.svg 頁-1 -->
<svg xmlns="http://www.w3.org/2000/svg" xmlns:xlink="http://www.w3.org/1999/xlink" xmlns:ev="http://www.w3.org/2001/xml-events"
		xmlns:v="http://schemas.microsoft.com/visio/2003/SVGExtensions/" width="4.75868in" height="0.432985in"
		viewBox="0 0 342.625 31.1749" xml:space="preserve" color-interpolation-filters="sRGB" class="st5">
	<v:documentProperties v:langID="1028" v:viewMarkup="false"/>

	<style type="text/css">
	<![CDATA[
		.st1 {fill:none;stroke:none;stroke-linecap:butt;stroke-width:0.75}
		.st2 {fill:#000000;font-family:新細明體;font-size:0.833336em}
		.st3 {fill:none}
		.st4 {stroke:#000000;stroke-linecap:round;stroke-linejoin:round;stroke-width:0.705463}
		.st5 {fill:none;fill-rule:evenodd;font-size:12px;overflow:visible;stroke-linecap:square;stroke-miterlimit:3}
	]]>
	</style>

	<g v:mID="0" v:index="1" v:groupContext="foregroundPage">
		<title>頁-1</title>
		<v:pageProperties v:drawingScale="0.0393701" v:pageScale="0.0393701" v:drawingUnits="24" v:shadowOffsetX="9"
				v:shadowOffsetY="-9"/>
		<g id="shape4-1" v:mID="4" v:groupContext="shape" transform="translate(0.68846,-7.69197) rotate(-0.2)">
			<title>工作表.4</title>
			<desc>財、法二施之比較</desc>
			<v:textBlock v:margins="rect(0,0,0,0)"/>
			<v:textRect cx="43.8546" cy="24.4025" width="87.71" height="13.5449"/>
			<rect x="0" y="17.63" width="87.7092" height="13.5449" class="st1"/>
			<text x="0" y="27.52" class="st2" v:langID="1028"><v:paragraph/><v:tabList/>財、法二施之比較 </text>		</g>
		<g id="shape5-4" v:mID="5" v:groupContext="shape" transform="translate(107.651,-16.0924) rotate(-0.2)">
			<title>工作表.5</title>
			<desc>有量、欲界報、施則物少、舊法、救飢渴等</desc>
			<v:textBlock v:margins="rect(0,0,0,0)"/>
			<v:textRect cx="112.801" cy="24.4025" width="225.61" height="13.5449"/>
			<rect x="0" y="17.63" width="225.602" height="13.5449" class="st1"/>
			<text x="30" y="27.52" class="st2" v:langID="1028"><v:paragraph/><v:tabList/>有量、欲界報、施則物少、舊法、救飢渴等</text>		</g>
		<g id="shape6-7" v:mID="6" v:groupContext="shape" transform="translate(92.3457,-0.74981) rotate(-0.2)">
			<title>工作表.6</title>
			<desc>法</desc>
			<v:textBlock v:margins="rect(0,0,0,0)"/>
			<v:textRect cx="6.97476" cy="24.4025" width="13.95" height="13.5449"/>
			<rect x="0" y="17.63" width="13.9495" height="13.5449" class="st1"/>
			<text x="0" y="27.52" class="st2" v:langID="1028"><v:paragraph/><v:tabList/>法   </text>		</g>
		<g id="shape7-10" v:mID="7" v:groupContext="shape" transform="translate(137.805,-1.69766) rotate(-0.2)">
			<title>工作表.7</title>
			<desc>無量、三界報或出、施則法增、新法、除結使</desc>
			<v:textBlock v:margins="rect(0,0,0,0)" v:tabSpace="42.5197"/>
			<v:textRect cx="101.981" cy="24.4025" width="203.97" height="13.5449"/>
			<rect x="0" y="17.63" width="203.962" height="13.5449" class="st1"/>
			<text x="0" y="27.52" class="st2" v:langID="1028"><v:paragraph/><v:tabList/>無量、三界報或出、施則法增、新法、除結使</text>		</g>
		<g id="shape88-13" v:mID="88" v:groupContext="shape" transform="translate(114.562,1.41108) rotate(89.8)">
			<title>工作表.88</title>
			<path d="M0 22.71 C0 25.06 1.02 26.94 2.35 26.94 L11.75 26.94 C13 26.94 14.1 28.82 14.1 31.17 C14.1 28.82 15.11 26.94
						 16.45 26.94 L25.84 26.94 C27.1 26.94 28.19 25.06 28.19 22.71 L0 22.71 Z" class="st3"/>
			<path d="M0 22.71 C0 25.06 1.02 26.94 2.35 26.94 L11.75 26.94 C13 26.94 14.1 28.82 14.1 31.17 C14.1 28.82 15.11 26.94
						 16.45 26.94 L25.84 26.94 C27.1 26.94 28.19 25.06 28.19 22.71" class="st4"/>
		</g>
		<g id="shape90-16" v:mID="90" v:groupContext="shape" transform="translate(107.623,-23.0487) rotate(-0.2)">
			<title>工作表.90</title>
			<path d="M0 31.17 L25.4 31.17" class="st4"/>
		</g>
		<g id="shape91-19" v:mID="91" v:groupContext="shape" transform="translate(107.585,-8.64054) rotate(-0.2)">
			<title>工作表.91</title>
			<path d="M0 31.17 L25.4 31.17" class="st4"/>
		</g>
		<g id="shape103-22" v:mID="103" v:groupContext="shape" transform="translate(92.647,-16.1397)">
			<title>工作表.103</title>
			<desc>財</desc>
			<v:textBlock v:margins="rect(0,0,0,0)"/>
			<v:textRect cx="5.66731" cy="24.4025" width="11.34" height="13.5449"/>
			<rect x="0" y="17.63" width="11.3346" height="13.5449" class="st1"/>
			<text x="0" y="27.52" class="st2" v:langID="1028"><v:paragraph/><v:tabList/>財</text>		</g>
	</g>
</svg>
