<?xml version="1.0" encoding="UTF-8" standalone="no"?>
<!DOCTYPE svg PUBLIC "-//W3C//DTD SVG 1.1//EN" "http://www.w3.org/Graphics/SVG/1.1/DTD/svg11.dtd">
<!-- 由 Microsoft Visio, SVG Export 產生 A00805.svg 頁-1 -->
<svg xmlns="http://www.w3.org/2000/svg" xmlns:xlink="http://www.w3.org/1999/xlink" xmlns:ev="http://www.w3.org/2001/xml-events"
		xmlns:v="http://schemas.microsoft.com/visio/2003/SVGExtensions/" width="2.3444in" height="0.649805in"
		viewBox="0 0 168.797 46.786" xml:space="preserve" color-interpolation-filters="sRGB" class="st6">
	<v:documentProperties v:langID="1028" v:viewMarkup="false"/>

	<style type="text/css">
	<![CDATA[
		.st1 {fill:none;stroke:none;stroke-linecap:butt;stroke-width:0.75}
		.st2 {fill:#000000;font-family:新細明體;font-size:0.833336em}
		.st3 {fill:none}
		.st4 {stroke:#040000;stroke-linecap:round;stroke-linejoin:round;stroke-width:0.705463}
		.st5 {stroke:#040000;stroke-linecap:round;stroke-linejoin:round;stroke-width:0.470309}
		.st6 {fill:none;fill-rule:evenodd;font-size:12px;overflow:visible;stroke-linecap:square;stroke-miterlimit:3}
	]]>
	</style>

	<g v:mID="0" v:index="1" v:groupContext="foregroundPage">
		<title>頁-1</title>
		<v:pageProperties v:drawingScale="0.0393701" v:pageScale="0.0393701" v:drawingUnits="24" v:shadowOffsetX="9"
				v:shadowOffsetY="-9"/>
		<g id="shape1-1" v:mID="1" v:groupContext="shape" transform="translate(61.1887,-32.4911)">
			<title>工作表.1</title>
			<desc>律儀戒</desc>
			<v:textBlock v:margins="rect(0,0,0,0)" v:tabSpace="42.5197"/>
			<v:textRect cx="16.9311" cy="40.0135" width="33.87" height="13.5449"/>
			<rect x="0" y="33.2411" width="33.8622" height="13.5449" class="st1"/>
			<text x="0" y="43.13" class="st2" v:langID="1028"><v:paragraph/><v:tabList/>律儀戒</text>		</g>
		<g id="shape2-4" v:mID="2" v:groupContext="shape" transform="translate(20.9665,-24.6155)">
			<title>工作表.2</title>
			<desc>有漏戒</desc>
			<v:textBlock v:margins="rect(0,0,0,0)" v:tabSpace="42.5197"/>
			<v:textRect cx="16.9311" cy="40.0135" width="33.87" height="13.5449"/>
			<rect x="0" y="33.2411" width="33.8622" height="13.5449" class="st1"/>
			<text x="0" y="43.13" class="st2" v:langID="1028"><v:paragraph/><v:tabList/>有漏戒</text>		</g>
		<g id="shape3-7" v:mID="3" v:groupContext="shape" transform="translate(125.009,-24.6155)">
			<title>工作表.3</title>
			<desc>初學念三</desc>
			<v:textBlock v:margins="rect(0,0,0,0)" v:tabSpace="42.5197"/>
			<v:textRect cx="21.1562" cy="40.0135" width="42.32" height="13.5449"/>
			<rect x="0" y="33.2411" width="42.3125" height="13.5449" class="st1"/>
			<text x="-0" y="43.13" class="st2" v:langID="1028"><v:paragraph/><v:tabList/>初學念三</text>		</g>
		<g id="shape4-10" v:mID="4" v:groupContext="shape" transform="translate(0.75,-12.3344)">
			<title>工作表.4</title>
			<desc>戒</desc>
			<v:textBlock v:margins="rect(0,0,0,0)" v:tabSpace="42.5197"/>
			<v:textRect cx="5.64371" cy="40.0135" width="11.29" height="13.5449"/>
			<rect x="0" y="33.2411" width="11.2874" height="13.5449" class="st1"/>
			<text x="-0" y="43.13" class="st2" v:langID="1028"><v:paragraph/><v:tabList/>戒</text>		</g>
		<g id="shape6-13" v:mID="6" v:groupContext="shape" transform="translate(61.1879,-16.1115)">
			<title>工作表.6</title>
			<desc>定共戒</desc>
			<v:textBlock v:margins="rect(0,0,0,0)" v:tabSpace="42.5197"/>
			<v:textRect cx="16.9311" cy="40.0135" width="33.87" height="13.5449"/>
			<rect x="0" y="33.2411" width="33.8622" height="13.5449" class="st1"/>
			<text x="0" y="43.13" class="st2" v:langID="1028"><v:paragraph/><v:tabList/>定共戒</text>		</g>
		<g id="shape7-16" v:mID="7" v:groupContext="shape" transform="translate(11.0965,-0.75)">
			<title>工作表.7</title>
			<desc>無漏戒</desc>
			<v:textBlock v:margins="rect(0,0,0,0)" v:tabSpace="42.5197"/>
			<v:textRect cx="22.5748" cy="40.0135" width="45.15" height="13.5449"/>
			<rect x="0" y="33.2411" width="45.1496" height="13.5449" class="st1"/>
			<text x="10" y="43.13" class="st2" v:langID="1028"><v:paragraph/><v:tabList/>無漏戒</text>		</g>
		<g id="shape8-19" v:mID="8" v:groupContext="shape" transform="translate(125.735,-0.75)">
			<title>工作表.8</title>
			<desc>後但會一</desc>
			<v:textBlock v:margins="rect(0,0,0,0)" v:tabSpace="42.5197"/>
			<v:textRect cx="21.1562" cy="40.0135" width="42.32" height="13.5449"/>
			<rect x="0" y="33.2411" width="42.3125" height="13.5449" class="st1"/>
			<text x="-0" y="43.13" class="st2" v:langID="1028"><v:paragraph/><v:tabList/>後但會一</text>		</g>
		<g id="shape15-22" v:mID="15" v:groupContext="shape" transform="translate(59.8667,14.9232) rotate(90)">
			<title>工作表.15</title>
			<path d="M0 40.52 C0 42.25 0.92 43.68 2.13 43.68 L10.63 43.68 C11.83 43.68 12.76 45.05 12.76 46.79 C12.76 45.05 13.68
						 43.68 14.88 43.68 L23.39 43.68 C24.59 43.68 25.51 42.31 25.51 40.52 L0 40.52 Z" class="st3"/>
			<path d="M0 40.52 C0 42.25 0.92 43.68 2.13 43.68 L10.63 43.68 C11.83 43.68 12.76 45.05 12.76 46.79 C12.76 45.05 13.68
						 43.68 14.88 43.68 L23.39 43.68 C24.59 43.68 25.51 42.31 25.51 40.52" class="st4"/>
		</g>
		<g id="shape16-25" v:mID="16" v:groupContext="shape" transform="translate(99.7057,5.79096) rotate(90)">
			<title>工作表.16</title>
			<path d="M0 40.52 C0 42.26 0.75 43.65 1.63 43.65 L8.25 43.65 C9.17 43.65 9.92 45.04 9.92 46.79 C9.92 45.04 10.67 43.65
						 11.55 43.65 L18.17 43.65 C19.09 43.65 19.84 42.26 19.84 40.52 L0 40.52 Z" class="st3"/>
			<path d="M0 40.52 C0 42.26 0.75 43.65 1.63 43.65 L8.25 43.65 C9.17 43.65 9.92 45.04 9.92 46.79 C9.92 45.04 10.67 43.65
						 11.55 43.65 L18.17 43.65 C19.09 43.65 19.84 42.26 19.84 40.52" class="st4"/>
		</g>
		<g id="shape17-28" v:mID="17" v:groupContext="shape" transform="translate(106.583,-36.4948) rotate(16.1337)">
			<title>工作表.17</title>
			<path d="M0 46.79 L31.24 46.79" class="st5"/>
		</g>
		<g id="shape18-31" v:mID="18" v:groupContext="shape" transform="translate(81.6906,-19.2046) rotate(-16.5914)">
			<title>工作表.18</title>
			<path d="M0 46.79 L29.78 46.79" class="st5"/>
		</g>
		<g id="shape19-34" v:mID="19" v:groupContext="shape" transform="translate(54.8183,-6.97928)">
			<title>工作表.19</title>
			<path d="M0 46.79 L68.57 46.79" class="st5"/>
		</g>
		<g id="shape20-37" v:mID="20" v:groupContext="shape" transform="translate(65.4735,2.59165) rotate(-37.3039)">
			<title>工作表.20</title>
			<path d="M0 46.79 L37.42 46.79" class="st5"/>
		</g>
	</g>
</svg>
