<?xml version="1.0" encoding="UTF-8" standalone="no"?>
<!DOCTYPE svg PUBLIC "-//W3C//DTD SVG 1.1//EN" "http://www.w3.org/Graphics/SVG/1.1/DTD/svg11.dtd">
<!-- 由 Microsoft Visio, SVG Export 產生 F01001.svg 頁-1 -->
<svg xmlns="http://www.w3.org/2000/svg" xmlns:xlink="http://www.w3.org/1999/xlink" xmlns:ev="http://www.w3.org/2001/xml-events"
		xmlns:v="http://schemas.microsoft.com/visio/2003/SVGExtensions/" width="3.5453in" height="0.951097in"
		viewBox="0 0 255.261 68.4789" xml:space="preserve" color-interpolation-filters="sRGB" class="st6">
	<v:documentProperties v:langID="1028" v:viewMarkup="false"/>

	<style type="text/css">
	<![CDATA[
		.st1 {fill:none;stroke:none;stroke-linecap:butt;stroke-width:0.75}
		.st2 {fill:#000000;font-family:新細明體;font-size:0.940613em}
		.st3 {fill:#000000;font-family:新細明體;font-size:0.833336em}
		.st4 {fill:none}
		.st5 {stroke:#000000;stroke-linecap:round;stroke-linejoin:round;stroke-width:0.705463}
		.st6 {fill:none;fill-rule:evenodd;font-size:12px;overflow:visible;stroke-linecap:square;stroke-miterlimit:3}
	]]>
	</style>

	<g v:mID="0" v:index="1" v:groupContext="foregroundPage">
		<title>頁-1</title>
		<v:pageProperties v:drawingScale="0.0393701" v:pageScale="0.0393701" v:drawingUnits="24" v:shadowOffsetX="9"
				v:shadowOffsetY="-9"/>
		<g id="shape28-1" v:mID="28" v:groupContext="shape" transform="translate(111.694,-52.4291) rotate(-0.2)">
			<title>工作表.28</title>
			<desc>凡夫</desc>
			<v:textBlock v:margins="rect(0,0,0,0)"/>
			<v:textRect cx="14.1731" cy="61.7065" width="28.35" height="13.5449"/>
			<rect x="0" y="54.9341" width="28.3463" height="13.5449" class="st1"/>
			<text x="0" y="65.22" class="st2" v:langID="1028"><v:paragraph/><v:tabList/>凡夫        </text>		</g>
		<g id="shape29-4" v:mID="29" v:groupContext="shape" transform="translate(209.123,-54.0261) rotate(-0.2)">
			<title>工作表.29</title>
			<desc>無常故苦</desc>
			<v:textBlock v:margins="rect(0,0,0,0)" v:tabSpace="42.5197"/>
			<v:textRect cx="22.5748" cy="61.7065" width="45.15" height="13.5449"/>
			<rect x="0" y="54.9341" width="45.1496" height="13.5449" class="st1"/>
			<text x="0" y="64.82" class="st3" v:langID="1028"><v:paragraph/><v:tabList/>無常故苦</text>		</g>
		<g id="shape31-7" v:mID="31" v:groupContext="shape" transform="translate(57.304,-35.7187) rotate(-0.2)">
			<title>工作表.31</title>
			<desc>有為有漏</desc>
			<v:textBlock v:margins="rect(0,0,0,0)" v:tabSpace="42.5197"/>
			<v:textRect cx="22.5748" cy="61.7065" width="45.15" height="13.5449"/>
			<rect x="0" y="54.9341" width="45.1496" height="13.5449" class="st1"/>
			<text x="0" y="64.82" class="st3" v:langID="1028"><v:paragraph/><v:tabList/>有為有漏</text>		</g>
		<g id="shape32-10" v:mID="32" v:groupContext="shape" transform="translate(89.3494,-36.643) rotate(-0.2)">
			<title>工作表.32</title>
			<desc>苦微少</desc>
			<v:textBlock v:margins="rect(0,0,0,0)"/>
			<v:textRect cx="79.3316" cy="61.7065" width="158.67" height="13.5449"/>
			<rect x="0" y="54.9341" width="158.663" height="13.5449" class="st1"/>
			<text x="120" y="64.82" class="st3" v:langID="1028"><v:paragraph/><v:tabList/>苦微少</text>		</g>
		<g id="shape33-13" v:mID="33" v:groupContext="shape" transform="translate(1.44976,-27.2965) rotate(-0.2)">
			<title>工作表.33</title>
			<desc>聖人身</desc>
			<v:textBlock v:margins="rect(0,0,0,0)"/>
			<v:textRect cx="75.8165" cy="61.7065" width="151.64" height="13.5449"/>
			<rect x="0" y="54.9341" width="151.633" height="13.5449" class="st1"/>
			<text x="110" y="64.82" class="st3" v:langID="1028"><v:paragraph/><v:tabList/>聖人身</text>		</g>
		<g id="shape34-16" v:mID="34" v:groupContext="shape" transform="translate(0.558244,-16.7727) rotate(-0.2)">
			<title>工作表.34</title>
			<desc>諸行無常</desc>
			<v:textBlock v:margins="rect(0,0,0,0)" v:tabSpace="42.5197"/>
			<v:textRect cx="22.5748" cy="61.7065" width="45.15" height="13.5449"/>
			<rect x="0" y="54.9341" width="45.1496" height="13.5449" class="st1"/>
			<text x="0" y="64.82" class="st3" v:langID="1028"><v:paragraph/><v:tabList/>諸行無常</text>		</g>
		<g id="shape35-19" v:mID="35" v:groupContext="shape" transform="translate(209.634,-19.7066) rotate(-0.2)">
			<title>工作表.35</title>
			<desc>但身苦</desc>
			<v:textBlock v:margins="rect(0,0,0,0)"/>
			<v:textRect cx="21.8181" cy="61.7065" width="43.64" height="13.5449"/>
			<rect x="0" y="54.9341" width="43.6362" height="13.5449" class="st1"/>
			<text x="0" y="65.22" class="st2" v:langID="1028"><v:paragraph/><v:tabList/>但身苦</text>		</g>
		<g id="shape37-22" v:mID="37" v:groupContext="shape" transform="translate(55.6893,-0.749583) rotate(-0.2)">
			<title>工作表.37</title>
			<desc>有為無漏</desc>
			<v:textBlock v:margins="rect(0,0,0,0)" v:tabSpace="42.5197"/>
			<v:textRect cx="22.5748" cy="61.7065" width="45.15" height="13.5449"/>
			<rect x="0" y="54.9341" width="45.1496" height="13.5449" class="st1"/>
			<text x="0" y="64.82" class="st3" v:langID="1028"><v:paragraph/><v:tabList/>有為無漏</text>		</g>
		<g id="shape38-25" v:mID="38" v:groupContext="shape" transform="translate(90.217,-0.805734) rotate(-0.2)">
			<title>工作表.38</title>
			<desc>非苦</desc>
			<v:textBlock v:margins="rect(0,0,0,0)"/>
			<v:textRect cx="75.3553" cy="61.7065" width="150.72" height="13.5449"/>
			<rect x="0" y="54.9341" width="150.711" height="13.5449" class="st1"/>
			<text x="120" y="64.82" class="st3" v:langID="1028"><v:paragraph/><v:tabList/>非苦</text>		</g>
		<g id="shape92-28" v:mID="92" v:groupContext="shape" transform="translate(111.727,22.7988) rotate(89.8)">
			<title>工作表.92</title>
			<path d="M0 60.01 C0 62.36 1.55 64.25 3.48 64.25 L17.42 64.25 C19.35 64.25 20.9 66.13 20.9 68.48 C20.9 66.13 22.45 64.25
						 24.38 64.25 L38.31 64.25 C40.25 64.25 41.8 62.36 41.8 60.01 L0 60.01 Z" class="st4"/>
			<path d="M0 60.01 C0 62.36 1.55 64.25 3.48 64.25 L17.42 64.25 C19.35 64.25 20.9 66.13 20.9 68.48 C20.9 66.13 22.45 64.25
						 24.38 64.25 L38.31 64.25 C40.25 64.25 41.8 62.36 41.8 60.01" class="st5"/>
		</g>
		<g id="shape93-31" v:mID="93" v:groupContext="shape" transform="translate(169.797,7.86615) rotate(89.8)">
			<title>工作表.93</title>
			<path d="M0 60.01 C0 62.36 1.11 64.25 2.55 64.25 L12.77 64.25 C14.13 64.25 15.33 66.13 15.33 68.48 C15.33 66.13 16.43
						 64.25 17.88 64.25 L28.1 64.25 C29.46 64.25 30.65 62.36 30.65 60.01 L0 60.01 Z" class="st4"/>
			<path d="M0 60.01 C0 62.36 1.11 64.25 2.55 64.25 L12.77 64.25 C14.13 64.25 15.33 66.13 15.33 68.48 C15.33 66.13 16.43
						 64.25 17.88 64.25 L28.1 64.25 C29.46 64.25 30.65 62.36 30.65 60.01" class="st5"/>
		</g>
		<g id="shape94-34" v:mID="94" v:groupContext="shape" transform="translate(101.337,-8.4017)">
			<title>工作表.94</title>
			<path d="M0 68.48 L104.04 68.48" class="st5"/>
		</g>
		<g id="shape95-37" v:mID="95" v:groupContext="shape" transform="translate(136.58,-60.5506) rotate(-0.2)">
			<title>工作表.95</title>
			<path d="M0 68.48 L67.72 68.48" class="st5"/>
		</g>
		<g id="shape98-40" v:mID="98" v:groupContext="shape" transform="translate(213.823,24.5903) rotate(89.8)">
			<title>工作表.98</title>
			<path d="M0 60.01 C0 62.36 0.64 64.25 1.48 64.25 L7.42 64.25 C8.21 64.25 8.9 66.13 8.9 68.48 C8.9 66.13 9.55 64.25 10.39
						 64.25 L16.32 64.25 C17.11 64.25 17.81 62.36 17.81 60.01 L0 60.01 Z" class="st4"/>
			<path d="M0 60.01 C0 62.36 0.64 64.25 1.48 64.25 L7.42 64.25 C8.21 64.25 8.9 66.13 8.9 68.48 C8.9 66.13 9.55 64.25 10.39
						 64.25 L16.32 64.25 C17.11 64.25 17.81 62.36 17.81 60.01" class="st5"/>
		</g>
		<g id="shape99-43" v:mID="99" v:groupContext="shape" transform="translate(162.036,-43.7083) rotate(-0.2)">
			<title>工作表.99</title>
			<path d="M0 68.48 L42.33 68.48" class="st5"/>
		</g>
		<g id="shape100-46" v:mID="100" v:groupContext="shape" transform="translate(162.154,-26.2574) rotate(-0.2)">
			<title>工作表.100</title>
			<path d="M0 68.48 L42.33 68.48" class="st5"/>
		</g>
	</g>
</svg>
