<?xml version="1.0" encoding="UTF-8" standalone="no"?>
<!DOCTYPE svg PUBLIC "-//W3C//DTD SVG 1.1//EN" "http://www.w3.org/Graphics/SVG/1.1/DTD/svg11.dtd">
<!-- 由 Microsoft Visio, SVG Export 產生 F01002.svg 頁-1 -->
<svg xmlns="http://www.w3.org/2000/svg" xmlns:xlink="http://www.w3.org/1999/xlink" xmlns:ev="http://www.w3.org/2001/xml-events"
		xmlns:v="http://schemas.microsoft.com/visio/2003/SVGExtensions/" width="7.90279in" height="0.951403in"
		viewBox="0 0 569.001 68.501" xml:space="preserve" color-interpolation-filters="sRGB" class="st6">
	<v:documentProperties v:langID="1028" v:viewMarkup="false"/>

	<style type="text/css">
	<![CDATA[
		.st1 {fill:none;stroke:none;stroke-linecap:butt;stroke-width:0.75}
		.st2 {fill:#000000;font-family:新細明體;font-size:0.833336em}
		.st3 {fill:#000000;font-family:Times New Roman;font-size:0.833336em}
		.st4 {fill:none}
		.st5 {stroke:#000000;stroke-linecap:round;stroke-linejoin:round;stroke-width:0.705463}
		.st6 {fill:none;fill-rule:evenodd;font-size:12px;overflow:visible;stroke-linecap:square;stroke-miterlimit:3}
	]]>
	</style>

	<g v:mID="0" v:index="1" v:groupContext="foregroundPage">
		<title>頁-1</title>
		<v:pageProperties v:drawingScale="0.0393701" v:pageScale="0.0393701" v:drawingUnits="24" v:shadowOffsetX="9"
				v:shadowOffsetY="-9"/>
		<g id="shape52-1" v:mID="52" v:groupContext="shape" transform="translate(0.558167,-52.1565) rotate(-0.2)">
			<title>工作表.52</title>
			<v:textBlock v:margins="rect(0,0,0,0)"/>
			<rect x="0" y="54.9561" width="135.449" height="13.5449" class="st1"/>
		</g>
		<g id="shape53-3" v:mID="53" v:groupContext="shape" transform="translate(80.8175,-52.4717) rotate(-0.2)">
			<title>工作表.53</title>
			<desc>無常想</desc>
			<v:textBlock v:margins="rect(0,0,0,0)" v:tabSpace="42.5197"/>
			<v:textRect cx="22.5748" cy="61.7285" width="45.15" height="13.5449"/>
			<rect x="0" y="54.9561" width="45.1496" height="13.5449" class="st1"/>
			<text x="0" y="64.84" class="st2" v:langID="1028"><v:paragraph/><v:tabList/>無常想：</text>		</g>
		<g id="shape54-6" v:mID="54" v:groupContext="shape" transform="translate(125.967,-52.6293) rotate(-0.2)">
			<title>工作表.54</title>
			<desc>1</desc>
			<v:textBlock v:margins="rect(0,0,0,0)" v:tabSpace="42.5197"/>
			<v:textRect cx="5.64371" cy="61.7285" width="11.29" height="13.5449"/>
			<rect x="0" y="54.9561" width="11.2874" height="13.5449" class="st1"/>
			<text x="0" y="64.73" class="st3" v:langID="1028"><v:paragraph/><v:tabList/>1</text>		</g>
		<g id="shape55-9" v:mID="55" v:groupContext="shape" transform="translate(131.611,-52.649) rotate(-0.2)">
			<title>工作表.55</title>
			<desc>、無常行相應</desc>
			<v:textBlock v:margins="rect(0,0,0,0)" v:tabSpace="42.5197"/>
			<v:textRect cx="39.5059" cy="61.7285" width="79.02" height="13.5449"/>
			<rect x="0" y="54.9561" width="79.0119" height="13.5449" class="st1"/>
			<text x="0" y="64.84" class="st2" v:langID="1028"><v:paragraph/><v:tabList/>、無常行相應；</text>		</g>
		<g id="shape56-12" v:mID="56" v:groupContext="shape" transform="translate(208.85,-52.9248) rotate(-0.2)">
			<title>工作表.56</title>
			<desc>2</desc>
			<v:textBlock v:margins="rect(0,0,0,0)" v:tabSpace="42.5197"/>
			<v:textRect cx="5.64371" cy="61.7285" width="11.29" height="13.5449"/>
			<rect x="0" y="54.9561" width="11.2874" height="13.5449" class="st1"/>
			<text x="-0" y="64.73" class="st3" v:langID="1028"><v:paragraph/><v:tabList/>2</text>		</g>
		<g id="shape57-15" v:mID="57" v:groupContext="shape" transform="translate(214.494,-52.9445) rotate(-0.2)">
			<title>工作表.57</title>
			<desc>、不令入三界</desc>
			<v:textBlock v:margins="rect(0,0,0,0)" v:tabSpace="42.5197"/>
			<v:textRect cx="39.5059" cy="61.7285" width="79.02" height="13.5449"/>
			<rect x="0" y="54.9561" width="79.0119" height="13.5449" class="st1"/>
			<text x="0" y="64.84" class="st2" v:langID="1028"><v:paragraph/><v:tabList/>、不令入三界；</text>		</g>
		<g id="shape58-18" v:mID="58" v:groupContext="shape" transform="translate(293.505,-53.2203) rotate(-0.2)">
			<title>工作表.58</title>
			<desc>3</desc>
			<v:textBlock v:margins="rect(0,0,0,0)" v:tabSpace="42.5197"/>
			<v:textRect cx="5.64371" cy="61.7285" width="11.29" height="13.5449"/>
			<rect x="0" y="54.9561" width="11.2874" height="13.5449" class="st1"/>
			<text x="0" y="64.73" class="st3" v:langID="1028"><v:paragraph/><v:tabList/>3</text>		</g>
		<g id="shape59-21" v:mID="59" v:groupContext="shape" transform="translate(299.149,-53.24) rotate(-0.2)">
			<title>工作表.59</title>
			<desc>、生厭</desc>
			<v:textBlock v:margins="rect(0,0,0,0)" v:tabSpace="42.5197"/>
			<v:textRect cx="22.5748" cy="61.7285" width="45.15" height="13.5449"/>
			<rect x="0" y="54.9561" width="45.1496" height="13.5449" class="st1"/>
			<text x="0" y="64.84" class="st2" v:langID="1028"><v:paragraph/><v:tabList/>、生厭；</text>		</g>
		<g id="shape60-24" v:mID="60" v:groupContext="shape" transform="translate(344.298,-53.3981) rotate(-0.2)">
			<title>工作表.60</title>
			<desc>4</desc>
			<v:textBlock v:margins="rect(0,0,0,0)" v:tabSpace="42.5197"/>
			<v:textRect cx="5.64371" cy="61.7285" width="11.29" height="13.5449"/>
			<rect x="0" y="54.9561" width="11.2874" height="13.5449" class="st1"/>
			<text x="0" y="64.73" class="st3" v:langID="1028"><v:paragraph/><v:tabList/>4</text>		</g>
		<g id="shape61-27" v:mID="61" v:groupContext="shape" transform="translate(349.942,-53.4178) rotate(-0.2)">
			<title>工作表.61</title>
			<desc>、五受眾是</desc>
			<v:textBlock v:margins="rect(0,0,0,0)" v:tabSpace="42.5197"/>
			<v:textRect cx="33.8622" cy="61.7285" width="67.73" height="13.5449"/>
			<rect x="0" y="54.9561" width="67.7245" height="13.5449" class="st1"/>
			<text x="0" y="64.84" class="st2" v:langID="1028"><v:paragraph/><v:tabList/>、五受眾是；</text>		</g>
		<g id="shape62-30" v:mID="62" v:groupContext="shape" transform="translate(417.666,-53.6542) rotate(-0.2)">
			<title>工作表.62</title>
			<desc>5</desc>
			<v:textBlock v:margins="rect(0,0,0,0)" v:tabSpace="42.5197"/>
			<v:textRect cx="5.64371" cy="61.7285" width="11.29" height="13.5449"/>
			<rect x="0" y="54.9561" width="11.2874" height="13.5449" class="st1"/>
			<text x="-0" y="64.73" class="st3" v:langID="1028"><v:paragraph/><v:tabList/>5</text>		</g>
		<g id="shape63-33" v:mID="63" v:groupContext="shape" transform="translate(423.31,-53.6739) rotate(-0.2)">
			<title>工作表.63</title>
			<desc>、示五受眾盡滅相</desc>
			<v:textBlock v:margins="rect(0,0,0,0)" v:tabSpace="42.5197"/>
			<v:textRect cx="50.7933" cy="61.7285" width="101.59" height="13.5449"/>
			<rect x="0" y="54.9561" width="101.587" height="13.5449" class="st1"/>
			<text x="-0" y="64.84" class="st2" v:langID="1028"><v:paragraph/><v:tabList/>、示五受眾盡滅相；</text>		</g>
		<g id="shape64-36" v:mID="64" v:groupContext="shape" transform="translate(517.219,-54.0285) rotate(-0.2)">
			<title>工作表.64</title>
			<desc>6</desc>
			<v:textBlock v:margins="rect(0,0,0,0)" v:tabSpace="42.5197"/>
			<v:textRect cx="5.64371" cy="61.7285" width="11.29" height="13.5449"/>
			<rect x="0" y="54.9561" width="11.2874" height="13.5449" class="st1"/>
			<text x="0" y="64.73" class="st3" v:langID="1028"><v:paragraph/><v:tabList/>6</text>		</g>
		<g id="shape65-39" v:mID="65" v:groupContext="shape" transform="translate(522.862,-54.0482) rotate(-0.2)">
			<title>工作表.65</title>
			<desc>、斷愛</desc>
			<v:textBlock v:margins="rect(0,0,0,0)" v:tabSpace="42.5197"/>
			<v:textRect cx="22.5748" cy="61.7285" width="45.15" height="13.5449"/>
			<rect x="0" y="54.9561" width="45.1496" height="13.5449" class="st1"/>
			<text x="0" y="64.84" class="st2" v:langID="1028"><v:paragraph/><v:tabList/>、斷愛；</text>		</g>
		<g id="shape66-42" v:mID="66" v:groupContext="shape" transform="translate(126.033,-35.2243) rotate(-0.2)">
			<title>工作表.66</title>
			<desc>7</desc>
			<v:textBlock v:margins="rect(0,0,0,0)" v:tabSpace="42.5197"/>
			<v:textRect cx="5.64371" cy="61.7285" width="11.29" height="13.5449"/>
			<rect x="0" y="54.9561" width="11.2874" height="13.5449" class="st1"/>
			<text x="0" y="64.73" class="st3" v:langID="1028"><v:paragraph/><v:tabList/>7</text>		</g>
		<g id="shape67-45" v:mID="67" v:groupContext="shape" transform="translate(131.676,-35.244) rotate(-0.2)">
			<title>工作表.67</title>
			<desc>、遮常</desc>
			<v:textBlock v:margins="rect(0,0,0,0)" v:tabSpace="42.5197"/>
			<v:textRect cx="22.5748" cy="61.7285" width="45.15" height="13.5449"/>
			<rect x="0" y="54.9561" width="45.1496" height="13.5449" class="st1"/>
			<text x="0" y="64.84" class="st2" v:langID="1028"><v:paragraph/><v:tabList/>、遮常；</text>		</g>
		<g id="shape68-48" v:mID="68" v:groupContext="shape" transform="translate(0.617268,-35.2255) rotate(-0.2)">
			<title>工作表.68</title>
			<v:textBlock v:margins="rect(0,0,0,0)"/>
			<rect x="0" y="54.9561" width="210.698" height="13.5449" class="st1"/>
		</g>
		<g id="shape69-50" v:mID="69" v:groupContext="shape" transform="translate(182.719,-35.6983) rotate(-0.2)">
			<title>工作表.69</title>
			<desc>8</desc>
			<v:textBlock v:margins="rect(0,0,0,0)" v:tabSpace="42.5197"/>
			<v:textRect cx="5.64371" cy="61.7285" width="11.29" height="13.5449"/>
			<rect x="0" y="54.9561" width="11.2874" height="13.5449" class="st1"/>
			<text x="-0" y="64.73" class="st3" v:langID="1028"><v:paragraph/><v:tabList/>8</text>		</g>
		<g id="shape70-53" v:mID="70" v:groupContext="shape" transform="translate(188.363,-35.718) rotate(-0.2)">
			<title>工作表.70</title>
			<desc>、所著常是</desc>
			<v:textBlock v:margins="rect(0,0,0,0)" v:tabSpace="42.5197"/>
			<v:textRect cx="28.2185" cy="61.7285" width="56.44" height="13.5449"/>
			<rect x="0" y="54.9561" width="56.4371" height="13.5449" class="st1"/>
			<text x="0" y="64.84" class="st2" v:langID="1028"><v:paragraph/><v:tabList/>、所著常是</text>		</g>
		<g id="shape71-56" v:mID="71" v:groupContext="shape" transform="translate(0.676369,-21.8378) rotate(-0.2)">
			<title>工作表.71</title>
			<desc>一事三想分別</desc>
			<v:textBlock v:margins="rect(0,0,0,0)" v:tabSpace="42.5197"/>
			<v:textRect cx="33.8622" cy="61.7285" width="67.73" height="13.5449"/>
			<rect x="0" y="54.9561" width="67.7245" height="13.5449" class="st1"/>
			<text x="-0" y="64.84" class="st2" v:langID="1028"><v:paragraph/><v:tabList/>一事三想分別</text>		</g>
		<g id="shape72-59" v:mID="72" v:groupContext="shape" transform="translate(81.4515,-19.2034) rotate(-0.2)">
			<title>工作表.72</title>
			<desc>苦想</desc>
			<v:textBlock v:margins="rect(0,0,0,0)"/>
			<v:textRect cx="11.4099" cy="61.7285" width="22.82" height="13.5449"/>
			<rect x="0" y="54.9561" width="22.8199" height="13.5449" class="st1"/>
			<text x="-0" y="64.84" class="st2" v:langID="1028"><v:paragraph/><v:tabList/>苦想</text>		</g>
		<g id="shape73-62" v:mID="73" v:groupContext="shape" transform="translate(0.735469,-1.36344) rotate(-0.2)">
			<title>工作表.73</title>
			<v:textBlock v:margins="rect(0,0,0,0)"/>
			<rect x="0" y="54.9561" width="135.449" height="13.5449" class="st1"/>
		</g>
		<g id="shape74-64" v:mID="74" v:groupContext="shape" transform="translate(80.9948,-1.67864) rotate(-0.2)">
			<title>工作表.74</title>
			<desc>無我想</desc>
			<v:textBlock v:margins="rect(0,0,0,0)" v:tabSpace="42.5197"/>
			<v:textRect cx="15.9668" cy="61.7285" width="31.94" height="13.5449"/>
			<rect x="0" y="54.9561" width="31.9335" height="13.5449" class="st1"/>
			<text x="0" y="64.84" class="st2" v:langID="1028"><v:paragraph/><v:tabList/>無我想</text>		</g>
		<g id="shape102-67" v:mID="102" v:groupContext="shape" transform="translate(137.597,4.17162) rotate(89.8)">
			<title>工作表.102</title>
			<path d="M0 62.24 C0 63.98 2.21 65.37 5.1 65.37 L29.64 65.37 C32.43 65.37 34.64 66.76 34.64 68.5 C34.64 66.76 36.86 65.37
						 39.75 65.37 L55.62 65.37 C58.41 65.37 60.63 63.98 60.63 62.24 L0 62.24 Z" class="st4"/>
			<path d="M0 62.24 C0 63.98 2.21 65.37 5.1 65.37 L29.64 65.37 C32.43 65.37 34.64 66.76 34.64 68.5 C34.64 66.76 36.86 65.37
						 39.75 65.37 L55.62 65.37 C58.41 65.37 60.63 63.98 60.63 62.24" class="st5"/>
		</g>
		<g id="shape107-70" v:mID="107" v:groupContext="shape" transform="translate(111.161,-0.75)">
			<title>工作表.107</title>
			<v:textBlock v:margins="rect(0,0,0,0)" v:tabSpace="42.5197"/>
			<v:textRect cx="5.66731" cy="61.7285" width="11.34" height="13.5449"/>
			<rect x="0" y="54.9561" width="11.3346" height="13.5449" class="st1"/>
			<text x="0" y="64.84" class="st2" v:langID="1028"><v:paragraph/><v:tabList/>：</text>		</g>
		<g id="shape108-73" v:mID="108" v:groupContext="shape" transform="translate(121.891,-1.99238)">
			<title>工作表.108</title>
			<desc>無我行相應</desc>
			<v:textBlock v:margins="rect(0,0,0,0)" v:tabSpace="42.5197"/>
			<v:textRect cx="28.242" cy="61.7285" width="56.49" height="13.5449"/>
			<rect x="0" y="54.9561" width="56.484" height="13.5449" class="st1"/>
			<text x="0" y="64.84" class="st2" v:langID="1028"><v:paragraph/><v:tabList/>無我行相應</text>		</g>
		<g id="shape109-76" v:mID="109" v:groupContext="shape" transform="translate(182.935,-1.84692)">
			<title>工作表.109</title>
			<desc>捨世間</desc>
			<v:textBlock v:margins="rect(0,0,0,0)" v:tabSpace="42.5197"/>
			<v:textRect cx="15.8883" cy="61.7285" width="31.78" height="13.5449"/>
			<rect x="0" y="54.9561" width="31.7766" height="13.5449" class="st1"/>
			<text x="0" y="64.84" class="st2" v:langID="1028"><v:paragraph/><v:tabList/>捨世間</text>		</g>
		<g id="shape112-79" v:mID="112" v:groupContext="shape" transform="translate(401.138,-0.864919)">
			<title>工作表.112</title>
			<desc>、</desc>
			<v:textBlock v:margins="rect(0,0,0,0)" v:tabSpace="42.5197"/>
			<v:textRect cx="5.66731" cy="61.7285" width="11.34" height="13.5449"/>
			<rect x="0" y="54.9561" width="11.3346" height="13.5449" class="st1"/>
			<text x="0" y="64.84" class="st2" v:langID="1028"><v:paragraph/><v:tabList/>、</text>		</g>
		<g id="shape113-82" v:mID="113" v:groupContext="shape" transform="translate(214.608,-1.6242)">
			<title>工作表.113</title>
			<desc>、</desc>
			<v:textBlock v:margins="rect(0,0,0,0)" v:tabSpace="42.5197"/>
			<v:textRect cx="5.66731" cy="61.7285" width="11.34" height="13.5449"/>
			<rect x="0" y="54.9561" width="11.3346" height="13.5449" class="st1"/>
			<text x="0" y="64.84" class="st2" v:langID="1028"><v:paragraph/><v:tabList/>、</text>		</g>
		<g id="shape114-85" v:mID="114" v:groupContext="shape" transform="translate(244.79,-1.37111)">
			<title>工作表.114</title>
			<desc>、</desc>
			<v:textBlock v:margins="rect(0,0,0,0)" v:tabSpace="42.5197"/>
			<v:textRect cx="5.66731" cy="61.7285" width="11.34" height="13.5449"/>
			<rect x="0" y="54.9561" width="11.3346" height="13.5449" class="st1"/>
			<text x="0" y="64.84" class="st2" v:langID="1028"><v:paragraph/><v:tabList/>、</text>		</g>
		<g id="shape115-88" v:mID="115" v:groupContext="shape" transform="translate(274.467,-1.6242)">
			<title>工作表.115</title>
			<desc>、</desc>
			<v:textBlock v:margins="rect(0,0,0,0)" v:tabSpace="42.5197"/>
			<v:textRect cx="5.66731" cy="61.7285" width="11.34" height="13.5449"/>
			<rect x="0" y="54.9561" width="11.3346" height="13.5449" class="st1"/>
			<text x="0" y="64.84" class="st2" v:langID="1028"><v:paragraph/><v:tabList/>、</text>		</g>
		<g id="shape116-91" v:mID="116" v:groupContext="shape" transform="translate(316.974,-1.14182)">
			<title>工作表.116</title>
			<desc>、</desc>
			<v:textBlock v:margins="rect(0,0,0,0)" v:tabSpace="42.5197"/>
			<v:textRect cx="5.66731" cy="61.7285" width="11.34" height="13.5449"/>
			<rect x="0" y="54.9561" width="11.3346" height="13.5449" class="st1"/>
			<text x="0" y="64.84" class="st2" v:langID="1028"><v:paragraph/><v:tabList/>、</text>		</g>
		<g id="shape117-94" v:mID="117" v:groupContext="shape" transform="translate(359.545,-0.864919)">
			<title>工作表.117</title>
			<desc>、</desc>
			<v:textBlock v:margins="rect(0,0,0,0)" v:tabSpace="42.5197"/>
			<v:textRect cx="5.66731" cy="61.7285" width="11.34" height="13.5449"/>
			<rect x="0" y="54.9561" width="11.3346" height="13.5449" class="st1"/>
			<text x="0" y="64.84" class="st2" v:langID="1028"><v:paragraph/><v:tabList/>、</text>		</g>
		<g id="shape118-97" v:mID="118" v:groupContext="shape" transform="translate(224.827,-1.84692)">
			<title>工作表.118</title>
			<desc>令脫</desc>
			<v:textBlock v:margins="rect(0,0,0,0)" v:tabSpace="42.5197"/>
			<v:textRect cx="11.1725" cy="61.7285" width="22.35" height="13.5449"/>
			<rect x="0" y="54.9561" width="22.345" height="13.5449" class="st1"/>
			<text x="0" y="64.84" class="st2" v:langID="1028"><v:paragraph/><v:tabList/>令脫</text>		</g>
		<g id="shape119-100" v:mID="119" v:groupContext="shape" transform="translate(255.009,-1.87729)">
			<title>工作表.119</title>
			<desc>苦是</desc>
			<v:textBlock v:margins="rect(0,0,0,0)" v:tabSpace="42.5197"/>
			<v:textRect cx="11.1725" cy="61.7285" width="22.35" height="13.5449"/>
			<rect x="0" y="54.9561" width="22.345" height="13.5449" class="st1"/>
			<text x="0" y="64.84" class="st2" v:langID="1028"><v:paragraph/><v:tabList/>苦是</text>		</g>
		<g id="shape120-103" v:mID="120" v:groupContext="shape" transform="translate(285.445,-1.87729)">
			<title>工作表.120</title>
			<desc>示捨離</desc>
			<v:textBlock v:margins="rect(0,0,0,0)" v:tabSpace="42.5197"/>
			<v:textRect cx="15.8883" cy="61.7285" width="31.78" height="13.5449"/>
			<rect x="0" y="54.9561" width="31.7766" height="13.5449" class="st1"/>
			<text x="0" y="64.84" class="st2" v:langID="1028"><v:paragraph/><v:tabList/>示捨離</text>		</g>
		<g id="shape121-106" v:mID="121" v:groupContext="shape" transform="translate(328.303,-1.84692)">
			<title>工作表.121</title>
			<desc>斷邪見</desc>
			<v:textBlock v:margins="rect(0,0,0,0)" v:tabSpace="42.5197"/>
			<v:textRect cx="15.8883" cy="61.7285" width="31.78" height="13.5449"/>
			<rect x="0" y="54.9561" width="31.7766" height="13.5449" class="st1"/>
			<text x="0" y="64.84" class="st2" v:langID="1028"><v:paragraph/><v:tabList/>斷邪見</text>		</g>
		<g id="shape122-109" v:mID="122" v:groupContext="shape" transform="translate(369.782,-1.87729)">
			<title>工作表.122</title>
			<desc>遮著處</desc>
			<v:textBlock v:margins="rect(0,0,0,0)" v:tabSpace="42.5197"/>
			<v:textRect cx="15.8883" cy="61.7285" width="31.78" height="13.5449"/>
			<rect x="0" y="54.9561" width="31.7766" height="13.5449" class="st1"/>
			<text x="0" y="64.84" class="st2" v:langID="1028"><v:paragraph/><v:tabList/>遮著處</text>		</g>
		<g id="shape123-112" v:mID="123" v:groupContext="shape" transform="translate(412.052,-1.87729)">
			<title>工作表.123</title>
			<desc>所著我牢固是</desc>
			<v:textBlock v:margins="rect(0,0,0,0)" v:tabSpace="42.5197"/>
			<v:textRect cx="33.8857" cy="61.7285" width="67.78" height="13.5449"/>
			<rect x="0" y="54.9561" width="67.7713" height="13.5449" class="st1"/>
			<text x="0" y="64.84" class="st2" v:langID="1028"><v:paragraph/><v:tabList/>所著我牢固是</text>		</g>
		<g id="shape124-115" v:mID="124" v:groupContext="shape" transform="translate(210.431,-18.0858)">
			<title>工作表.124</title>
			<desc>、</desc>
			<v:textBlock v:margins="rect(0,0,0,0)" v:tabSpace="42.5197"/>
			<v:textRect cx="5.66731" cy="61.7285" width="11.34" height="13.5449"/>
			<rect x="0" y="54.9561" width="11.3346" height="13.5449" class="st1"/>
			<text x="0" y="64.84" class="st2" v:langID="1028"><v:paragraph/><v:tabList/>、</text>		</g>
		<g id="shape125-118" v:mID="125" v:groupContext="shape" transform="translate(240.976,-18.3108)">
			<title>工作表.125</title>
			<desc>、</desc>
			<v:textBlock v:margins="rect(0,0,0,0)" v:tabSpace="42.5197"/>
			<v:textRect cx="5.66731" cy="61.7285" width="11.34" height="13.5449"/>
			<rect x="0" y="54.9561" width="11.3346" height="13.5449" class="st1"/>
			<text x="0" y="64.84" class="st2" v:langID="1028"><v:paragraph/><v:tabList/>、</text>		</g>
		<g id="shape127-121" v:mID="127" v:groupContext="shape" transform="translate(280.77,-18.3362)">
			<title>工作表.127</title>
			<desc>、</desc>
			<v:textBlock v:margins="rect(0,0,0,0)" v:tabSpace="42.5197"/>
			<v:textRect cx="5.66731" cy="61.7285" width="11.34" height="13.5449"/>
			<rect x="0" y="54.9561" width="11.3346" height="13.5449" class="st1"/>
			<text x="0" y="64.84" class="st2" v:langID="1028"><v:paragraph/><v:tabList/>、</text>		</g>
		<g id="shape128-124" v:mID="128" v:groupContext="shape" transform="translate(341.224,-18.1472)">
			<title>工作表.128</title>
			<desc>、</desc>
			<v:textBlock v:margins="rect(0,0,0,0)" v:tabSpace="42.5197"/>
			<v:textRect cx="5.66731" cy="61.7285" width="11.34" height="13.5449"/>
			<rect x="0" y="54.9561" width="11.3346" height="13.5449" class="st1"/>
			<text x="0" y="64.84" class="st2" v:langID="1028"><v:paragraph/><v:tabList/>、</text>		</g>
		<g id="shape129-127" v:mID="129" v:groupContext="shape" transform="translate(389.668,-18.211)">
			<title>工作表.129</title>
			<desc>、</desc>
			<v:textBlock v:margins="rect(0,0,0,0)" v:tabSpace="42.5197"/>
			<v:textRect cx="5.66731" cy="61.7285" width="11.34" height="13.5449"/>
			<rect x="0" y="54.9561" width="11.3346" height="13.5449" class="st1"/>
			<text x="0" y="64.84" class="st2" v:langID="1028"><v:paragraph/><v:tabList/>、</text>		</g>
		<g id="shape130-130" v:mID="130" v:groupContext="shape" transform="translate(430.439,-18.3362)">
			<title>工作表.130</title>
			<desc>、</desc>
			<v:textBlock v:margins="rect(0,0,0,0)" v:tabSpace="42.5197"/>
			<v:textRect cx="5.66731" cy="61.7285" width="11.34" height="13.5449"/>
			<rect x="0" y="54.9561" width="11.3346" height="13.5449" class="st1"/>
			<text x="0" y="64.84" class="st2" v:langID="1028"><v:paragraph/><v:tabList/>、</text>		</g>
		<g id="shape131-133" v:mID="131" v:groupContext="shape" transform="translate(171.538,-1.50148)">
			<title>工作表.131</title>
			<desc>、</desc>
			<v:textBlock v:margins="rect(0,0,0,0)" v:tabSpace="42.5197"/>
			<v:textRect cx="5.66731" cy="61.7285" width="11.34" height="13.5449"/>
			<rect x="0" y="54.9561" width="11.3346" height="13.5449" class="st1"/>
			<text x="0" y="64.84" class="st2" v:langID="1028"><v:paragraph/><v:tabList/>、</text>		</g>
		<g id="shape132-136" v:mID="132" v:groupContext="shape" transform="translate(440.986,-19.2495)">
			<title>工作表.132</title>
			<desc>所著樂是</desc>
			<v:textBlock v:margins="rect(0,0,0,0)"/>
			<v:textRect cx="22.5983" cy="61.7285" width="45.2" height="13.5449"/>
			<rect x="0" y="54.9561" width="45.1966" height="13.5449" class="st1"/>
			<text x="0" y="64.84" class="st2" v:langID="1028"><v:paragraph/><v:tabList/>所著樂是</text>		</g>
		<g id="shape133-139" v:mID="133" v:groupContext="shape" transform="translate(399.9,-19.281)">
			<title>工作表.133</title>
			<desc>遮現樂</desc>
			<v:textBlock v:margins="rect(0,0,0,0)"/>
			<v:textRect cx="16.9547" cy="61.7285" width="33.91" height="13.5449"/>
			<rect x="0" y="54.9561" width="33.9093" height="13.5449" class="st1"/>
			<text x="0" y="64.84" class="st2" v:langID="1028"><v:paragraph/><v:tabList/>遮現樂</text>		</g>
		<g id="shape134-142" v:mID="134" v:groupContext="shape" transform="translate(350.687,-19.2196)">
			<title>工作表.134</title>
			<desc>斷我習慢</desc>
			<v:textBlock v:margins="rect(0,0,0,0)"/>
			<v:textRect cx="21.4016" cy="61.7285" width="42.81" height="13.5449"/>
			<rect x="0" y="54.9561" width="42.8031" height="13.5449" class="st1"/>
			<text x="0" y="64.84" class="st2" v:langID="1028"><v:paragraph/><v:tabList/>斷我習慢</text>		</g>
		<g id="shape135-145" v:mID="135" v:groupContext="shape" transform="translate(290.781,-19.4086)">
			<title>工作表.135</title>
			<desc>示如箭入心</desc>
			<v:textBlock v:margins="rect(0,0,0,0)"/>
			<v:textRect cx="25.5591" cy="61.7285" width="51.12" height="13.5449"/>
			<rect x="0" y="54.9561" width="51.1181" height="13.5449" class="st1"/>
			<text x="0" y="64.84" class="st2" v:langID="1028"><v:paragraph/><v:tabList/>示如箭入心</text>		</g>
		<g id="shape136-148" v:mID="136" v:groupContext="shape" transform="translate(250.778,-19.2754)">
			<title>工作表.136</title>
			<desc>無常是</desc>
			<v:textBlock v:margins="rect(0,0,0,0)"/>
			<v:textRect cx="16.9547" cy="61.7285" width="33.91" height="13.5449"/>
			<rect x="0" y="54.9561" width="33.9093" height="13.5449" class="st1"/>
			<text x="0" y="64.84" class="st2" v:langID="1028"><v:paragraph/><v:tabList/>無常是</text>		</g>
		<g id="shape137-151" v:mID="137" v:groupContext="shape" transform="translate(220.693,-19.0864)">
			<title>工作表.137</title>
			<desc>生畏</desc>
			<v:textBlock v:margins="rect(0,0,0,0)"/>
			<v:textRect cx="11.311" cy="61.7285" width="22.63" height="13.5449"/>
			<rect x="0" y="54.9561" width="22.622" height="13.5449" class="st1"/>
			<text x="0" y="64.84" class="st2" v:langID="1028"><v:paragraph/><v:tabList/>生畏</text>		</g>
		<g id="shape138-154" v:mID="138" v:groupContext="shape" transform="translate(160.488,-19.0921)">
			<title>工作表.138</title>
			<desc>令知三界過</desc>
			<v:textBlock v:margins="rect(0,0,0,0)"/>
			<v:textRect cx="28.242" cy="61.7285" width="56.49" height="13.5449"/>
			<rect x="0" y="54.9561" width="56.484" height="13.5449" class="st1"/>
			<text x="0" y="64.84" class="st2" v:langID="1028"><v:paragraph/><v:tabList/>令知三界過</text>		</g>
		<g id="shape139-157" v:mID="139" v:groupContext="shape" transform="translate(110.269,-19.2307)">
			<title>工作表.139</title>
			<desc>苦行相應</desc>
			<v:textBlock v:margins="rect(0,0,0,0)"/>
			<v:textRect cx="22.5983" cy="61.7285" width="45.2" height="13.5449"/>
			<rect x="0" y="54.9561" width="45.1966" height="13.5449" class="st1"/>
			<text x="0" y="64.84" class="st2" v:langID="1028"><v:paragraph/><v:tabList/>苦行相應</text>		</g>
		<g id="shape140-160" v:mID="140" v:groupContext="shape" transform="translate(101.671,-18.0591)">
			<title>工作表.140</title>
			<v:textBlock v:margins="rect(0,0,0,0)" v:tabSpace="42.5197"/>
			<v:textRect cx="5.66731" cy="61.7285" width="11.34" height="13.5449"/>
			<rect x="0" y="54.9561" width="11.3346" height="13.5449" class="st1"/>
			<text x="0" y="64.84" class="st2" v:langID="1028"><v:paragraph/><v:tabList/>：</text>		</g>
		<g id="shape141-163" v:mID="141" v:groupContext="shape" transform="translate(150.398,-18.0991)">
			<title>工作表.141</title>
			<desc>、</desc>
			<v:textBlock v:margins="rect(0,0,0,0)" v:tabSpace="42.5197"/>
			<v:textRect cx="5.66731" cy="61.7285" width="11.34" height="13.5449"/>
			<rect x="0" y="54.9561" width="11.3346" height="13.5449" class="st1"/>
			<text x="0" y="64.84" class="st2" v:langID="1028"><v:paragraph/><v:tabList/>、</text>		</g>
	</g>
</svg>
