<?xml version="1.0" encoding="UTF-8" standalone="no"?>
<!DOCTYPE svg PUBLIC "-//W3C//DTD SVG 1.1//EN" "http://www.w3.org/Graphics/SVG/1.1/DTD/svg11.dtd">
<!-- 由 Microsoft Visio, SVG Export 產生 (M023.p660-2).svg Page-1 -->
<svg xmlns="http://www.w3.org/2000/svg" xmlns:xlink="http://www.w3.org/1999/xlink" xmlns:ev="http://www.w3.org/2001/xml-events"
		xmlns:v="http://schemas.microsoft.com/visio/2003/SVGExtensions/" width="8.26772in" height="11.6929in"
		viewBox="0 0 595.276 841.89" xml:space="preserve" color-interpolation-filters="sRGB" class="st5">
	<v:documentProperties v:langID="1028" v:metric="true" v:viewMarkup="false">
		<v:userDefs>
			<v:ud v:nameU="msvNoAutoConnect" v:val="VT0(1):26"/>
		</v:userDefs>
	</v:documentProperties>

	<style type="text/css">
	<![CDATA[
		.st1 {fill:none;stroke:none;stroke-linecap:round;stroke-linejoin:round;stroke-width:0.5}
		.st2 {fill:#000000;font-family:新細明體;font-size:1.00001em}
		.st3 {font-size:1em}
		.st4 {stroke:#000000;stroke-linecap:round;stroke-linejoin:round;stroke-width:0.5}
		.st5 {fill:none;fill-rule:evenodd;font-size:12px;overflow:visible;stroke-linecap:square;stroke-miterlimit:3}
	]]>
	</style>

	<g v:mID="0" v:index="1" v:groupContext="foregroundPage">
		<title>頁-1</title>
		<v:pageProperties v:drawingScale="0.0393701" v:pageScale="0.0393701" v:drawingUnits="24" v:shadowOffsetX="8.50394"
				v:shadowOffsetY="-8.50394"/>
		<g id="shape1-1" v:mID="1" v:groupContext="shape" transform="translate(207.324,-549.496)">
			<title>工作表.1</title>
			<desc>苦法智忍 苦法智 苦類智忍 苦類智 集法智忍 集法智 集類智忍 集類智 滅法智忍 滅法智 滅類智忍 滅類智 道法智忍 道法...</desc>
			<v:textBlock v:margins="rect(4,4,4,4)" v:tabSpace="42.5197"/>
			<v:textRect cx="28.4322" cy="704.693" width="56.87" height="274.394"/>
			<rect x="0" y="567.496" width="56.8645" height="274.394" class="st1"/>
			<text x="0.333em 1.357em 2.381em 3.405em" y="578.24" class="st2" v:langID="1033"><v:paragraph v:spLine="-1.4"
						v:horizAlign="4" v:bulletSize="0.166667"/><v:tabList/>苦法智忍<v:newlineChar/><tspan x="0.333em 1.869em 3.405em"
						dy="1.453em" class="st3">苦法智<v:newlineChar/></tspan><tspan x="0.333em 1.357em 2.381em 3.405em" dy="1.453em"
						class="st3">苦類智忍<v:newlineChar/></tspan><tspan x="0.333em 1.869em 3.405em" dy="1.453em" class="st3">苦類智<v:newlineChar/></tspan><tspan
						x="0.333em 1.357em 2.381em 3.405em" dy="1.453em" class="st3">集法智忍<v:newlineChar/></tspan><tspan x="0.333em
							 1.869em 3.405em" dy="1.453em" class="st3">集法智<v:newlineChar/></tspan><tspan x="0.333em 1.357em 2.381em
							 3.405em" dy="1.453em" class="st3">集類智忍<v:newlineChar/></tspan><tspan x="0.333em 1.869em 3.405em"
						dy="1.453em" class="st3">集類智<v:newlineChar/></tspan><tspan x="0.333em 1.357em 2.381em 3.405em" dy="1.453em"
						class="st3">滅法智忍<v:newlineChar/></tspan><tspan x="0.333em 1.869em 3.405em" dy="1.453em" class="st3">滅法智<v:newlineChar/></tspan><tspan
						x="0.333em 1.357em 2.381em 3.405em" dy="1.453em" class="st3">滅類智忍<v:newlineChar/></tspan><tspan x="0.333em
							 1.869em 3.405em" dy="1.453em" class="st3">滅類智<v:newlineChar/></tspan><tspan x="0.333em 1.357em 2.381em
							 3.405em" dy="1.453em" class="st3">道法智忍<v:newlineChar/></tspan><tspan x="0.333em 1.869em 3.405em"
						dy="1.453em" class="st3">道法智<v:newlineChar/></tspan><tspan x="0.333em 1.357em 2.381em 3.405em" dy="1.453em"
						class="st3">道類智忍<v:newlineChar/></tspan><tspan x="0.333em 1.869em 3.405em" dy="1.453em" class="st3">道類智</tspan></text>		</g>
		<g id="shape4-19" v:mID="4" v:groupContext="shape" transform="translate(161.15,-549.496)">
			<title>工作表.4</title>
			<desc>苦諦 苦諦 集諦 集諦 滅諦 滅諦 道諦 道諦</desc>
			<v:textBlock v:margins="rect(4,4,4,4)" v:tabSpace="42.5197"/>
			<v:textRect cx="19.8425" cy="704.693" width="39.69" height="274.394"/>
			<rect x="0" y="567.496" width="39.685" height="274.394" class="st1"/>
			<text x="4" y="590.86" class="st2" v:langID="1028"><v:paragraph v:spLine="-1.38" v:bulletSize="0.166667"/><v:tabList/>苦諦<v:newlineChar/><v:newlineChar/><tspan
						x="4" dy="2.813em" class="st3">苦諦<v:newlineChar/><v:newlineChar/></tspan><tspan x="4" dy="2.813em"
						class="st3">集諦<v:newlineChar/><v:newlineChar/></tspan><tspan x="4" dy="2.813em" class="st3">集諦<v:newlineChar/><v:newlineChar/></tspan><tspan
						x="4" dy="2.813em" class="st3">滅諦<v:newlineChar/><v:newlineChar/></tspan><tspan x="4" dy="2.813em"
						class="st3">滅諦<v:newlineChar/><v:newlineChar/></tspan><tspan x="4" dy="2.813em" class="st3">道諦<v:newlineChar/><v:newlineChar/></tspan><tspan
						x="4" dy="2.813em" class="st3">道諦</tspan></text>		</g>
		<g id="shape5-29" v:mID="5" v:groupContext="shape" transform="translate(86.0315,-562.11)">
			<title>工作表.5</title>
			<desc>欲界 上界</desc>
			<v:textBlock v:margins="rect(4,4,4,4)" v:tabSpace="42.5197"/>
			<v:textRect cx="19.8425" cy="717.165" width="39.69" height="249.449"/>
			<rect x="0" y="592.441" width="39.685" height="249.449" class="st1"/>
			<text x="4" y="654" class="st2" v:langID="1028"><v:paragraph v:spLine="-1.4" v:bulletSize="0.166667"/><v:tabList/>欲界<v:newlineChar/><v:newlineChar/><v:newlineChar/><v:newlineChar/><v:newlineChar/><v:newlineChar/><v:newlineChar/><v:newlineChar/><tspan
						x="4" dy="11.253em" class="st3">上界</tspan></text>		</g>
		<g id="shape6-33" v:mID="6" v:groupContext="shape" transform="translate(18,-666.992)">
			<title>工作表.6</title>
			<desc>上下八位</desc>
			<v:textBlock v:margins="rect(4,4,4,4)" v:tabSpace="42.5197"/>
			<v:textRect cx="31.1811" cy="823.465" width="62.37" height="36.8504"/>
			<rect x="0" y="805.039" width="62.3622" height="36.8504" class="st1"/>
			<text x="4" y="827.83" class="st2" v:langID="1028"><v:paragraph v:spLine="-1.4" v:bulletSize="0.166667"/><v:tabList/>上下八位</text>		</g>
		<g id="shape7-36" v:mID="7" v:groupContext="shape" transform="translate(386.765,-673.228)">
			<title>工作表.7</title>
			<desc>見道</desc>
			<v:textBlock v:margins="rect(4,4,4,4)" v:tabSpace="42.5197"/>
			<v:textRect cx="19.8425" cy="823.465" width="39.69" height="36.8504"/>
			<rect x="0" y="805.039" width="39.685" height="36.8504" class="st1"/>
			<text x="4" y="827.83" class="st2" v:langID="1028"><v:paragraph v:spLine="-1.4" v:bulletSize="0.166667"/><v:tabList/>見道</text>		</g>
		<g id="shape8-39" v:mID="8" v:groupContext="shape" transform="translate(386.765,-542.365)">
			<title>工作表.8</title>
			<desc>修道</desc>
			<v:textBlock v:margins="rect(4,4,4,4)" v:tabSpace="42.5197"/>
			<v:textRect cx="19.8425" cy="823.465" width="39.69" height="36.8504"/>
			<rect x="0" y="805.039" width="39.685" height="36.8504" class="st1"/>
			<text x="4" y="827.83" class="st2" v:langID="1028"><v:paragraph v:spLine="-1.4" v:bulletSize="0.166667"/><v:tabList/>修道</text>		</g>
		<g id="group13-42" transform="translate(190.913,-795.543)" v:mID="13" v:groupContext="group">
			<title>工作表.13</title>
			<g id="shape9-43" v:mID="9" v:groupContext="shape" transform="translate(16.5305,1666.85) rotate(180)">
				<title>工作表.9</title>
				<path d="M0 841.89 L8.27 841.89" class="st4"/>
			</g>
			<g id="shape10-46" v:mID="10" v:groupContext="shape" transform="translate(16.5305,1683.78) rotate(180)">
				<title>工作表.10</title>
				<path d="M0 841.89 L8.27 841.89" class="st4"/>
			</g>
			<g id="shape11-49" v:mID="11" v:groupContext="shape" transform="translate(850.155,824.882) rotate(90)">
				<title>工作表.11</title>
				<path d="M0 841.89 L17.01 841.89" class="st4"/>
			</g>
			<g id="shape12-52" v:mID="12" v:groupContext="shape" transform="translate(8.26523,1675.52) rotate(180)">
				<title>工作表.12</title>
				<path d="M0 841.89 L8.27 841.89" class="st4"/>
			</g>
		</g>
		<g id="shape49-55" v:mID="49" v:groupContext="shape" transform="translate(-521.266,-459.881) rotate(-49.3223)">
			<title>工作表.49</title>
			<path d="M0 841.89 L69.15 841.89" class="st4"/>
		</g>
		<g id="shape50-58" v:mID="50" v:groupContext="shape" transform="translate(410.409,-700.32) rotate(20.3809)">
			<title>工作表.50</title>
			<path d="M0 841.89 L48.84 841.89" class="st4"/>
		</g>
		<g id="shape51-61" v:mID="51" v:groupContext="shape" transform="translate(857.393,-312.272) rotate(61.5447)">
			<title>工作表.51</title>
			<path d="M0 841.89 L96.08 841.89" class="st4"/>
		</g>
		<g id="shape52-64" v:mID="52" v:groupContext="shape" transform="translate(923.493,-153.393) rotate(73.2763)">
			<title>工作表.52</title>
			<path d="M0 841.89 L159.09 841.89" class="st4"/>
		</g>
		<g id="shape53-67" v:mID="53" v:groupContext="shape" transform="translate(-690.193,-14.9719) rotate(-73.5444)">
			<title>工作表.53</title>
			<path d="M0 841.89 L159.61 841.89" class="st4"/>
		</g>
		<g id="shape54-70" v:mID="54" v:groupContext="shape" transform="translate(-622.968,-177.626) rotate(-61.5447)">
			<title>工作表.54</title>
			<path d="M0 841.89 L96.08 841.89" class="st4"/>
		</g>
		<g id="shape55-73" v:mID="55" v:groupContext="shape" transform="translate(-165.168,-569.608) rotate(-19.5976)">
			<title>工作表.55</title>
			<path d="M0 841.89 L48.59 841.89" class="st4"/>
		</g>
		<g id="shape56-76" v:mID="56" v:groupContext="shape" transform="translate(747.686,-334.414) rotate(48.4934)">
			<title>工作表.56</title>
			<path d="M0 841.89 L69.08 841.89" class="st4"/>
		</g>
		<g id="group57-79" transform="translate(71.8583,-618.378)" v:mID="57" v:groupContext="group">
			<title>工作表.57</title>
			<g id="shape58-80" v:mID="58" v:groupContext="shape" transform="translate(16.5305,1549.15) rotate(180)">
				<title>工作表.58</title>
				<path d="M0 841.89 L8.27 841.89" class="st4"/>
			</g>
			<g id="shape59-83" v:mID="59" v:groupContext="shape" transform="translate(16.5305,1683.78) rotate(180)">
				<title>工作表.59</title>
				<path d="M0 841.89 L8.27 841.89" class="st4"/>
			</g>
			<g id="shape60-86" v:mID="60" v:groupContext="shape" transform="translate(850.155,707.244) rotate(90)">
				<title>工作表.60</title>
				<path d="M0 841.89 L134.65 841.89" class="st4"/>
			</g>
			<g id="shape61-89" v:mID="61" v:groupContext="shape" transform="translate(8.26523,1618.38) rotate(180)">
				<title>工作表.61</title>
				<path d="M0 841.89 L8.27 841.89" class="st4"/>
			</g>
		</g>
		<g id="group62-92" transform="translate(387.869,-575.433) scale(-1,1)" v:mID="62" v:groupContext="group">
			<title>工作表.62</title>
			<g id="shape63-93" v:mID="63" v:groupContext="shape" transform="translate(16.5305,1446.38) rotate(180)">
				<title>工作表.63</title>
				<path d="M0 841.89 L8.27 841.89" class="st4"/>
			</g>
			<g id="shape64-96" v:mID="64" v:groupContext="shape" transform="translate(16.5305,1683.78) rotate(180)">
				<title>工作表.64</title>
				<path d="M0 841.89 L8.27 841.89" class="st4"/>
			</g>
			<g id="shape65-99" v:mID="65" v:groupContext="shape" transform="translate(850.155,604.642) rotate(90)">
				<title>工作表.65</title>
				<path d="M0 841.89 L237.25 841.89" class="st4"/>
			</g>
			<g id="shape66-102" v:mID="66" v:groupContext="shape" transform="translate(8.26523,1567.92) rotate(180)">
				<title>工作表.66</title>
				<path d="M0 841.89 L8.27 841.89" class="st4"/>
			</g>
		</g>
		<g id="shape67-105" v:mID="67" v:groupContext="shape" transform="translate(371.339,-559.373)">
			<title>工作表.67</title>
			<path d="M0 841.89 L15.72 841.89" class="st4"/>
		</g>
		<g id="group70-108" transform="translate(190.913,-761.73)" v:mID="70" v:groupContext="group">
			<title>工作表.70</title>
			<g id="shape71-109" v:mID="71" v:groupContext="shape" transform="translate(16.5305,1666.85) rotate(180)">
				<title>工作表.71</title>
				<path d="M0 841.89 L8.27 841.89" class="st4"/>
			</g>
			<g id="shape72-112" v:mID="72" v:groupContext="shape" transform="translate(16.5305,1683.78) rotate(180)">
				<title>工作表.72</title>
				<path d="M0 841.89 L8.27 841.89" class="st4"/>
			</g>
			<g id="shape73-115" v:mID="73" v:groupContext="shape" transform="translate(850.155,824.882) rotate(90)">
				<title>工作表.73</title>
				<path d="M0 841.89 L17.01 841.89" class="st4"/>
			</g>
			<g id="shape74-118" v:mID="74" v:groupContext="shape" transform="translate(8.26523,1675.52) rotate(180)">
				<title>工作表.74</title>
				<path d="M0 841.89 L8.27 841.89" class="st4"/>
			</g>
		</g>
		<g id="group75-121" transform="translate(190.913,-727.917)" v:mID="75" v:groupContext="group">
			<title>工作表.75</title>
			<g id="shape76-122" v:mID="76" v:groupContext="shape" transform="translate(16.5305,1666.85) rotate(180)">
				<title>工作表.76</title>
				<path d="M0 841.89 L8.27 841.89" class="st4"/>
			</g>
			<g id="shape77-125" v:mID="77" v:groupContext="shape" transform="translate(16.5305,1683.78) rotate(180)">
				<title>工作表.77</title>
				<path d="M0 841.89 L8.27 841.89" class="st4"/>
			</g>
			<g id="shape78-128" v:mID="78" v:groupContext="shape" transform="translate(850.155,824.882) rotate(90)">
				<title>工作表.78</title>
				<path d="M0 841.89 L17.01 841.89" class="st4"/>
			</g>
			<g id="shape79-131" v:mID="79" v:groupContext="shape" transform="translate(8.26523,1675.52) rotate(180)">
				<title>工作表.79</title>
				<path d="M0 841.89 L8.27 841.89" class="st4"/>
			</g>
		</g>
		<g id="group80-134" transform="translate(190.913,-694.104)" v:mID="80" v:groupContext="group">
			<title>工作表.80</title>
			<g id="shape81-135" v:mID="81" v:groupContext="shape" transform="translate(16.5305,1666.85) rotate(180)">
				<title>工作表.81</title>
				<path d="M0 841.89 L8.27 841.89" class="st4"/>
			</g>
			<g id="shape82-138" v:mID="82" v:groupContext="shape" transform="translate(16.5305,1683.78) rotate(180)">
				<title>工作表.82</title>
				<path d="M0 841.89 L8.27 841.89" class="st4"/>
			</g>
			<g id="shape83-141" v:mID="83" v:groupContext="shape" transform="translate(850.155,824.882) rotate(90)">
				<title>工作表.83</title>
				<path d="M0 841.89 L17.01 841.89" class="st4"/>
			</g>
			<g id="shape84-144" v:mID="84" v:groupContext="shape" transform="translate(8.26523,1675.52) rotate(180)">
				<title>工作表.84</title>
				<path d="M0 841.89 L8.27 841.89" class="st4"/>
			</g>
		</g>
		<g id="group85-147" transform="translate(190.913,-660.29)" v:mID="85" v:groupContext="group">
			<title>工作表.85</title>
			<g id="shape86-148" v:mID="86" v:groupContext="shape" transform="translate(16.5305,1666.85) rotate(180)">
				<title>工作表.86</title>
				<path d="M0 841.89 L8.27 841.89" class="st4"/>
			</g>
			<g id="shape87-151" v:mID="87" v:groupContext="shape" transform="translate(16.5305,1683.78) rotate(180)">
				<title>工作表.87</title>
				<path d="M0 841.89 L8.27 841.89" class="st4"/>
			</g>
			<g id="shape88-154" v:mID="88" v:groupContext="shape" transform="translate(850.155,824.882) rotate(90)">
				<title>工作表.88</title>
				<path d="M0 841.89 L17.01 841.89" class="st4"/>
			</g>
			<g id="shape89-157" v:mID="89" v:groupContext="shape" transform="translate(8.26523,1675.52) rotate(180)">
				<title>工作表.89</title>
				<path d="M0 841.89 L8.27 841.89" class="st4"/>
			</g>
		</g>
		<g id="group90-160" transform="translate(190.913,-626.477)" v:mID="90" v:groupContext="group">
			<title>工作表.90</title>
			<g id="shape91-161" v:mID="91" v:groupContext="shape" transform="translate(16.5305,1666.85) rotate(180)">
				<title>工作表.91</title>
				<path d="M0 841.89 L8.27 841.89" class="st4"/>
			</g>
			<g id="shape92-164" v:mID="92" v:groupContext="shape" transform="translate(16.5305,1683.78) rotate(180)">
				<title>工作表.92</title>
				<path d="M0 841.89 L8.27 841.89" class="st4"/>
			</g>
			<g id="shape93-167" v:mID="93" v:groupContext="shape" transform="translate(850.155,824.882) rotate(90)">
				<title>工作表.93</title>
				<path d="M0 841.89 L17.01 841.89" class="st4"/>
			</g>
			<g id="shape94-170" v:mID="94" v:groupContext="shape" transform="translate(8.26523,1675.52) rotate(180)">
				<title>工作表.94</title>
				<path d="M0 841.89 L8.27 841.89" class="st4"/>
			</g>
		</g>
		<g id="group95-173" transform="translate(190.913,-592.664)" v:mID="95" v:groupContext="group">
			<title>工作表.95</title>
			<g id="shape96-174" v:mID="96" v:groupContext="shape" transform="translate(16.5305,1666.85) rotate(180)">
				<title>工作表.96</title>
				<path d="M0 841.89 L8.27 841.89" class="st4"/>
			</g>
			<g id="shape97-177" v:mID="97" v:groupContext="shape" transform="translate(16.5305,1683.78) rotate(180)">
				<title>工作表.97</title>
				<path d="M0 841.89 L8.27 841.89" class="st4"/>
			</g>
			<g id="shape98-180" v:mID="98" v:groupContext="shape" transform="translate(850.155,824.882) rotate(90)">
				<title>工作表.98</title>
				<path d="M0 841.89 L17.01 841.89" class="st4"/>
			</g>
			<g id="shape99-183" v:mID="99" v:groupContext="shape" transform="translate(8.26523,1675.52) rotate(180)">
				<title>工作表.99</title>
				<path d="M0 841.89 L8.27 841.89" class="st4"/>
			</g>
		</g>
		<g id="group100-186" transform="translate(190.913,-558.85)" v:mID="100" v:groupContext="group">
			<title>工作表.100</title>
			<g id="shape101-187" v:mID="101" v:groupContext="shape" transform="translate(16.5305,1666.85) rotate(180)">
				<title>工作表.101</title>
				<path d="M0 841.89 L8.27 841.89" class="st4"/>
			</g>
			<g id="shape102-190" v:mID="102" v:groupContext="shape" transform="translate(16.5305,1683.78) rotate(180)">
				<title>工作表.102</title>
				<path d="M0 841.89 L8.27 841.89" class="st4"/>
			</g>
			<g id="shape103-193" v:mID="103" v:groupContext="shape" transform="translate(850.155,824.882) rotate(90)">
				<title>工作表.103</title>
				<path d="M0 841.89 L17.01 841.89" class="st4"/>
			</g>
			<g id="shape104-196" v:mID="104" v:groupContext="shape" transform="translate(8.26523,1675.52) rotate(180)">
				<title>工作表.104</title>
				<path d="M0 841.89 L8.27 841.89" class="st4"/>
			</g>
		</g>
		<g id="shape105-199" v:mID="105" v:groupContext="shape" transform="translate(256.535,-549.496)">
			<title>工作表.105</title>
			<desc>無間道 解脫道 無間道 解脫道 無間道 解脫道 無間道 解脫道 無間道 解脫道 無間道 解脫道 無間道 解脫道 無間道 解脫道</desc>
			<v:textBlock v:margins="rect(4,4,4,4)" v:tabSpace="42.5197"/>
			<v:textRect cx="34.0157" cy="704.693" width="68.04" height="274.394"/>
			<rect x="0" y="567.496" width="68.0315" height="274.394" class="st1"/>
			<text x="0.333em" y="578.24" class="st2" v:langID="1033"><v:paragraph v:spLine="-1.4" v:horizAlign="3"
						v:bulletSize="0.166667"/><v:tabList/>－<tspan x="1.333em 2.333em 3.333em" dy="0em" class="st3">無間道</tspan><tspan
						x="4.333em" dy="0em" class="st3">－<v:newlineChar/></tspan><tspan x="0.333em" dy="1.453em" class="st3">－</tspan><tspan
						x="1.333em 2.333em 3.333em" dy="0em" class="st3">解脫道</tspan><tspan x="4.333em" dy="0em" class="st3">－<v:newlineChar/></tspan><tspan
						x="0.333em" dy="1.453em" class="st3">－</tspan><tspan x="1.333em 2.333em 3.333em" dy="0em" class="st3">無間道</tspan><tspan
						x="4.333em" dy="0em" class="st3">－<v:newlineChar/></tspan><tspan x="0.333em" dy="1.453em" class="st3">－</tspan><tspan
						x="1.333em 2.333em 3.333em" dy="0em" class="st3">解脫道</tspan><tspan x="4.333em" dy="0em" class="st3">－<v:newlineChar/></tspan><tspan
						x="0.333em" dy="1.453em" class="st3">－</tspan><tspan x="1.333em 2.333em 3.333em" dy="0em" class="st3">無間道</tspan><tspan
						x="4.333em" dy="0em" class="st3">－<v:newlineChar/></tspan><tspan x="0.333em" dy="1.453em" class="st3">－</tspan><tspan
						x="1.333em 2.333em 3.333em" dy="0em" class="st3">解脫道</tspan><tspan x="4.333em" dy="0em" class="st3">－<v:newlineChar/></tspan><tspan
						x="0.333em" dy="1.453em" class="st3">－</tspan><tspan x="1.333em 2.333em 3.333em" dy="0em" class="st3">無間道</tspan><tspan
						x="4.333em" dy="0em" class="st3">－<v:newlineChar/></tspan><tspan x="0.333em" dy="1.453em" class="st3">－</tspan><tspan
						x="1.333em 2.333em 3.333em" dy="0em" class="st3">解脫道</tspan><tspan x="4.333em" dy="0em" class="st3">－<v:newlineChar/></tspan><tspan
						x="0.333em" dy="1.453em" class="st3">－</tspan><tspan x="1.333em 2.333em 3.333em" dy="0em" class="st3">無間道</tspan><tspan
						x="4.333em" dy="0em" class="st3">－<v:newlineChar/></tspan><tspan x="0.333em" dy="1.453em" class="st3">－</tspan><tspan
						x="1.333em 2.333em 3.333em" dy="0em" class="st3">解脫道</tspan><tspan x="4.333em" dy="0em" class="st3">－<v:newlineChar/></tspan><tspan
						x="0.333em" dy="1.453em" class="st3">－</tspan><tspan x="1.333em 2.333em 3.333em" dy="0em" class="st3">無間道</tspan><tspan
						x="4.333em" dy="0em" class="st3">－<v:newlineChar/></tspan><tspan x="0.333em" dy="1.453em" class="st3">－</tspan><tspan
						x="1.333em 2.333em 3.333em" dy="0em" class="st3">解脫道</tspan><tspan x="4.333em" dy="0em" class="st3">－<v:newlineChar/></tspan><tspan
						x="0.333em" dy="1.453em" class="st3">－</tspan><tspan x="1.333em 2.333em 3.333em" dy="0em" class="st3">無間道</tspan><tspan
						x="4.333em" dy="0em" class="st3">－<v:newlineChar/></tspan><tspan x="0.333em" dy="1.453em" class="st3">－</tspan><tspan
						x="1.333em 2.333em 3.333em" dy="0em" class="st3">解脫道</tspan><tspan x="4.333em" dy="0em" class="st3">－<v:newlineChar/></tspan><tspan
						x="0.333em" dy="1.453em" class="st3">－</tspan><tspan x="1.333em 2.333em 3.333em" dy="0em" class="st3">無間道</tspan><tspan
						x="4.333em" dy="0em" class="st3">－<v:newlineChar/></tspan><tspan x="0.333em" dy="1.453em" class="st3">－</tspan><tspan
						x="1.333em 2.333em 3.333em" dy="0em" class="st3">解脫道</tspan><tspan x="4.333em" dy="0em" class="st3">－</tspan></text>		</g>
		<g id="shape106-249" v:mID="106" v:groupContext="shape" transform="translate(316.63,-549.496)">
			<title>工作表.106</title>
			<desc>第一心 第二心 第三心 第四心 第五心 第六心 第七心 第八心 第九心 第十心 第十一心 第十二心 第十三心 第十四心 第...</desc>
			<v:textBlock v:margins="rect(4,4,4,4)" v:tabSpace="42.5197"/>
			<v:textRect cx="28.063" cy="704.693" width="56.13" height="274.394"/>
			<rect x="0" y="567.496" width="56.126" height="274.394" class="st1"/>
			<text x="0.333em 1.839em 3.344em" y="578.24" class="st2" v:langID="1033"><v:paragraph v:spLine="-1.4" v:horizAlign="4"
						v:bulletSize="0.166667"/><v:tabList/>第一心<v:newlineChar/><tspan x="0.333em 1.839em 3.344em" dy="1.453em"
						class="st3">第二心<v:newlineChar/></tspan><tspan x="0.333em 1.839em 3.344em" dy="1.453em" class="st3">第三心<v:newlineChar/></tspan><tspan
						x="0.333em 1.839em 3.344em" dy="1.453em" class="st3">第四心<v:newlineChar/></tspan><tspan x="0.333em 1.839em
							 3.344em" dy="1.453em" class="st3">第五心<v:newlineChar/></tspan><tspan x="0.333em 1.839em 3.344em"
						dy="1.453em" class="st3">第六心<v:newlineChar/></tspan><tspan x="0.333em 1.839em 3.344em" dy="1.453em"
						class="st3">第七心<v:newlineChar/></tspan><tspan x="0.333em 1.839em 3.344em" dy="1.453em" class="st3">第八心<v:newlineChar/></tspan><tspan
						x="0.333em 1.839em 3.344em" dy="1.453em" class="st3">第九心<v:newlineChar/></tspan><tspan x="0.333em 1.839em
							 3.344em" dy="1.453em" class="st3">第十心<v:newlineChar/></tspan><tspan x="0.333em 1.337em 2.34em 3.344em"
						dy="1.453em" class="st3">第十一心<v:newlineChar/></tspan><tspan x="0.333em 1.337em 2.34em 3.344em" dy="1.453em"
						class="st3">第十二心<v:newlineChar/></tspan><tspan x="0.333em 1.337em 2.34em 3.344em" dy="1.453em" class="st3">第十三心<v:newlineChar/></tspan><tspan
						x="0.333em 1.337em 2.34em 3.344em" dy="1.453em" class="st3">第十四心<v:newlineChar/></tspan><tspan x="0.333em
							 1.337em 2.34em 3.344em" dy="1.453em" class="st3">第十五心<v:newlineChar/></tspan><tspan x="0.333em 1.337em
							 2.34em 3.344em" dy="1.453em" class="st3">第十六心</tspan></text>		</g>
	</g>
</svg>
