<?xml version="1.0" encoding="UTF-8" standalone="no"?>
<!DOCTYPE svg PUBLIC "-//W3C//DTD SVG 1.1//EN" "http://www.w3.org/Graphics/SVG/1.1/DTD/svg11.dtd">
<!-- 由 Microsoft Visio, SVG Export 產生 (M023.p660-1).svg Page-1 -->
<svg xmlns="http://www.w3.org/2000/svg" xmlns:xlink="http://www.w3.org/1999/xlink" xmlns:ev="http://www.w3.org/2001/xml-events"
		xmlns:v="http://schemas.microsoft.com/visio/2003/SVGExtensions/" width="8.26772in" height="11.6929in"
		viewBox="0 0 595.276 841.89" xml:space="preserve" color-interpolation-filters="sRGB" class="st7">
	<v:documentProperties v:langID="1028" v:metric="true" v:viewMarkup="false">
		<v:userDefs>
			<v:ud v:nameU="msvNoAutoConnect" v:val="VT0(1):26"/>
		</v:userDefs>
	</v:documentProperties>

	<style type="text/css">
	<![CDATA[
		.st1 {fill:none;stroke:none;stroke-linecap:round;stroke-linejoin:round;stroke-width:0.75}
		.st2 {fill:#000000;font-family:新細明體;font-size:1.00001em;letter-spacing:0.499996em}
		.st3 {font-size:1em;letter-spacing:0em}
		.st4 {fill:#000000;font-family:新細明體;font-size:1.00001em}
		.st5 {font-size:1em}
		.st6 {stroke:#000000;stroke-linecap:round;stroke-linejoin:round;stroke-width:0.75}
		.st7 {fill:none;fill-rule:evenodd;font-size:12px;overflow:visible;stroke-linecap:square;stroke-miterlimit:3}
	]]>
	</style>

	<g v:mID="0" v:index="1" v:groupContext="foregroundPage">
		<title>頁-1</title>
		<v:pageProperties v:drawingScale="0.0393701" v:pageScale="0.0393701" v:drawingUnits="24" v:shadowOffsetX="8.50394"
				v:shadowOffsetY="-8.50394"/>
		<g id="group80-1" transform="translate(18,-557.433)" v:mID="80" v:groupContext="group">
			<title>工作表.80</title>
			<g id="shape1-2" v:mID="1" v:groupContext="shape" transform="translate(120.472,-141.732)">
				<title>工作表.1</title>
				<desc>五停心 別相念住 總相念住 煖 頂 忍 世第一法</desc>
				<v:textBlock v:margins="rect(4,4,4,4)" v:tabSpace="42.5197" v:verticalAlign="0"/>
				<v:textRect cx="29.7638" cy="779.528" width="59.53" height="124.724"/>
				<rect x="0" y="717.165" width="59.5276" height="124.724" class="st1"/>
				<text x="4" y="734.25" class="st2" v:langID="1033"><v:paragraph v:spLine="-1.4" v:bulletSize="0.166667"/><v:tabList/>五停<tspan
							class="st3">心<v:newlineChar/></tspan><tspan x="4" dy="1.453em" class="st3">別相念住<v:newlineChar/></tspan><tspan
							x="4" dy="1.453em" class="st3">總相念住<v:newlineChar/></tspan><tspan x="4" dy="1.453em" class="st3">煖<v:newlineChar/></tspan><tspan
							x="4" dy="1.453em" class="st3">頂<v:newlineChar/></tspan><tspan x="4" dy="1.453em" class="st3">忍<v:newlineChar/></tspan><tspan
							x="4" dy="1.453em" class="st3">世第一法</tspan></text>			</g>
			<g id="shape3-12" v:mID="3" v:groupContext="shape" transform="translate(191.339,-5.66929)">
				<title>工作表.3</title>
				<desc>向 果 向 果 向 果 向 果</desc>
				<v:textBlock v:margins="rect(4,4,4,4)" v:tabSpace="42.5197" v:verticalAlign="0"/>
				<v:textRect cx="11.3386" cy="771.024" width="22.68" height="141.732"/>
				<rect x="0" y="700.157" width="22.6772" height="141.732" class="st1"/>
				<text x="4" y="717.24" class="st4" v:langID="1028"><v:paragraph v:spLine="-1.4" v:bulletSize="0.166667"/><v:tabList/>向<v:newlineChar/><tspan
							x="4" dy="1.453em" class="st5">果<v:newlineChar/><v:paragraph v:spLine="-1.4" v:bulletSize="0.166667"/></tspan><tspan
							x="4" dy="1.453em" class="st5">向<v:newlineChar/><v:paragraph v:spLine="-1.4" v:bulletSize="0.166667"/></tspan><tspan
							x="4" dy="1.453em" class="st5">果<v:newlineChar/><v:paragraph v:spLine="-1.4" v:bulletSize="0.166667"/></tspan><tspan
							x="4" dy="1.453em" class="st5">向<v:newlineChar/><v:paragraph v:spLine="-1.4" v:bulletSize="0.166667"/></tspan><tspan
							x="4" dy="1.453em" class="st5">果<v:newlineChar/><v:paragraph v:spLine="-1.4" v:bulletSize="0.166667"/></tspan><tspan
							x="4" dy="1.453em" class="st5">向<v:newlineChar/><v:paragraph v:spLine="-1.4" v:bulletSize="0.166667"/></tspan><tspan
							x="4" dy="1.453em" class="st5">果</tspan></text>			</g>
			<g id="shape7-22" v:mID="7" v:groupContext="shape" transform="translate(120.472,-6.66139)">
				<title>工作表.7</title>
				<desc>預　流 一　來 不　還 阿羅漢</desc>
				<v:textBlock v:margins="rect(4,4,4,4)" v:tabSpace="42.5197"/>
				<v:textRect cx="29.7638" cy="775.276" width="59.53" height="133.228"/>
				<rect x="0" y="708.661" width="59.5276" height="133.228" class="st1"/>
				<text x="4" y="728.27" class="st4" v:langID="1028"><v:paragraph v:spLine="-1.4" v:bulletSize="0.166667"/><v:tabList/>預　流<v:newlineChar/><v:newlineChar/><tspan
							x="4" dy="2.853em" class="st5">一</tspan>　來<v:newlineChar/><v:newlineChar/><tspan x="4" dy="2.853em"
							class="st5">不</tspan>　還<v:newlineChar/><v:newlineChar/><tspan x="4" dy="2.853em" class="st5">阿羅漢</tspan></text>			</g>
			<g id="shape8-28" v:mID="8" v:groupContext="shape" transform="translate(78.0274,-188.504)">
				<title>工作表.8</title>
				<desc>賢</desc>
				<v:textBlock v:margins="rect(4,4,4,4)" v:tabSpace="42.5197" v:verticalAlign="0"/>
				<v:textRect cx="11.3386" cy="829.134" width="22.68" height="25.5118"/>
				<rect x="0" y="816.378" width="22.6772" height="25.5118" class="st1"/>
				<text x="4" y="833.46" class="st4" v:langID="1028"><v:paragraph v:spLine="-1.4" v:bulletSize="0.166667"/><v:tabList/>賢</text>			</g>
			<g id="shape9-31" v:mID="9" v:groupContext="shape" transform="translate(3.59712E-14,-124.724)">
				<title>工作表.9</title>
				<desc>修行位次</desc>
				<v:textBlock v:margins="rect(4,4,4,4)" v:tabSpace="42.5197" v:verticalAlign="0"/>
				<v:textRect cx="29.7638" cy="829.134" width="59.53" height="25.5118"/>
				<rect x="0" y="816.378" width="59.5276" height="25.5118" class="st1"/>
				<text x="4" y="833.46" class="st4" v:langID="1028"><v:paragraph v:spLine="-1.4" v:bulletSize="0.166667"/><v:tabList/>修行位次</text>			</g>
			<g id="shape10-34" v:mID="10" v:groupContext="shape" transform="translate(235.276,-222.52)">
				<title>工作表.10</title>
				<desc>三　賢外凡</desc>
				<v:textBlock v:margins="rect(4,4,4,4)" v:tabSpace="42.5197" v:verticalAlign="0"/>
				<v:textRect cx="51.0236" cy="829.134" width="102.05" height="25.5118"/>
				<rect x="0" y="816.378" width="102.047" height="25.5118" class="st1"/>
				<text x="4" y="833.46" class="st4" v:langID="1028"><v:paragraph v:spLine="-1.4" v:bulletSize="0.166667"/><v:tabList/>三　賢（外凡）</text>			</g>
			<g id="shape11-37" v:mID="11" v:groupContext="shape" transform="translate(235.276,-162.342)">
				<title>工作表.11</title>
				<desc>四善根內凡</desc>
				<v:textBlock v:margins="rect(4,4,4,4)" v:tabSpace="42.5197" v:verticalAlign="0"/>
				<v:textRect cx="51.0236" cy="829.134" width="102.05" height="25.5118"/>
				<rect x="0" y="816.378" width="102.047" height="25.5118" class="st1"/>
				<text x="4" y="833.46" class="st4" v:langID="1028"><v:paragraph v:spLine="-1.4" v:bulletSize="0.166667"/><v:tabList/>四善根（內凡）</text>			</g>
			<g id="shape12-40" v:mID="12" v:groupContext="shape" transform="translate(270.709,-121.89)">
				<title>工作表.12</title>
				<desc>見道</desc>
				<v:textBlock v:margins="rect(4,4,4,4)" v:tabSpace="42.5197" v:verticalAlign="0"/>
				<v:textRect cx="24.8031" cy="829.134" width="49.61" height="25.5118"/>
				<rect x="0" y="816.378" width="49.6063" height="25.5118" class="st1"/>
				<text x="4" y="833.46" class="st4" v:langID="1028"><v:paragraph v:spLine="-1.4" v:bulletSize="0.166667"/><v:tabList/>見道</text>			</g>
			<g id="shape13-43" v:mID="13" v:groupContext="shape" transform="translate(270.709,-60.9449)">
				<title>工作表.13</title>
				<desc>修道</desc>
				<v:textBlock v:margins="rect(4,4,4,4)" v:tabSpace="42.5197" v:verticalAlign="0"/>
				<v:textRect cx="24.8031" cy="829.134" width="49.61" height="25.5118"/>
				<rect x="0" y="816.378" width="49.6063" height="25.5118" class="st1"/>
				<text x="4" y="833.46" class="st4" v:langID="1028"><v:paragraph v:spLine="-1.4" v:bulletSize="0.166667"/><v:tabList/>修道</text>			</g>
			<g id="shape14-46" v:mID="14" v:groupContext="shape" transform="translate(270.709,0)">
				<title>工作表.14</title>
				<desc>無學道</desc>
				<v:textBlock v:margins="rect(4,4,4,4)" v:tabSpace="42.5197" v:verticalAlign="0"/>
				<v:textRect cx="24.8031" cy="829.134" width="49.61" height="25.5118"/>
				<rect x="0" y="816.378" width="49.6063" height="25.5118" class="st1"/>
				<text x="4" y="833.46" class="st4" v:langID="1028"><v:paragraph v:spLine="-1.4" v:bulletSize="0.166667"/><v:tabList/>無學道</text>			</g>
			<g id="shape15-49" v:mID="15" v:groupContext="shape" transform="translate(352.205,-192.756)">
				<title>工作表.15</title>
				<desc>七加行</desc>
				<v:textBlock v:margins="rect(4,4,4,4)" v:tabSpace="42.5197" v:verticalAlign="0"/>
				<v:textRect cx="24.8031" cy="829.134" width="49.61" height="25.5118"/>
				<rect x="0" y="816.378" width="49.6063" height="25.5118" class="st1"/>
				<text x="4" y="833.46" class="st4" v:langID="1028"><v:paragraph v:spLine="-1.4" v:bulletSize="0.166667"/><v:tabList/>七加行</text>			</g>
			<g id="shape16-52" v:mID="16" v:groupContext="shape" transform="translate(352.205,-89.2913)">
				<title>工作表.16</title>
				<desc>有學</desc>
				<v:textBlock v:margins="rect(4,4,4,4)" v:tabSpace="42.5197" v:verticalAlign="0"/>
				<v:textRect cx="24.8031" cy="829.134" width="49.61" height="25.5118"/>
				<rect x="0" y="816.378" width="49.6063" height="25.5118" class="st1"/>
				<text x="4" y="833.46" class="st4" v:langID="1028"><v:paragraph v:spLine="-1.4" v:bulletSize="0.166667"/><v:tabList/>有學</text>			</g>
			<g id="shape17-55" v:mID="17" v:groupContext="shape" transform="translate(352.205,-0.826738)">
				<title>工作表.17</title>
				<desc>無學</desc>
				<v:textBlock v:margins="rect(4,4,4,4)" v:tabSpace="42.5197" v:verticalAlign="0"/>
				<v:textRect cx="24.8031" cy="829.134" width="49.61" height="25.5118"/>
				<rect x="0" y="816.378" width="49.6063" height="25.5118" class="st1"/>
				<text x="4" y="833.46" class="st4" v:langID="1028"><v:paragraph v:spLine="-1.4" v:bulletSize="0.166667"/><v:tabList/>無學</text>			</g>
			<g id="group25-58" transform="translate(97.3838,-148.297)" v:mID="25" v:groupContext="group">
				<title>工作表.25</title>
				<g id="shape18-59" v:mID="18" v:groupContext="shape" transform="translate(24.506,1579.79) rotate(180)">
					<title>工作表.18</title>
					<path d="M0 841.89 L12.25 841.89" class="st6"/>
				</g>
				<g id="shape19-62" v:mID="19" v:groupContext="shape" transform="translate(24.506,1683.78) rotate(180)">
					<title>工作表.19</title>
					<path d="M0 841.89 L12.25 841.89" class="st6"/>
				</g>
				<g id="shape21-65" v:mID="21" v:groupContext="shape" transform="translate(854.143,737.903) rotate(90)">
					<title>工作表.21</title>
					<path d="M0 841.89 L103.99 841.89" class="st6"/>
				</g>
				<g id="shape24-68" v:mID="24" v:groupContext="shape" transform="translate(12.253,1631.71) rotate(180)">
					<title>工作表.24</title>
					<path d="M0 841.89 L12.25 841.89" class="st6"/>
				</g>
			</g>
			<g id="group26-71" transform="translate(97.3838,-21.7074)" v:mID="26" v:groupContext="group">
				<title>工作表.26</title>
				<g id="shape27-72" v:mID="27" v:groupContext="shape" transform="translate(24.506,1579.79) rotate(180)">
					<title>工作表.27</title>
					<path d="M0 841.89 L12.25 841.89" class="st6"/>
				</g>
				<g id="shape28-75" v:mID="28" v:groupContext="shape" transform="translate(24.506,1683.78) rotate(180)">
					<title>工作表.28</title>
					<path d="M0 841.89 L12.25 841.89" class="st6"/>
				</g>
				<g id="shape29-78" v:mID="29" v:groupContext="shape" transform="translate(854.143,737.903) rotate(90)">
					<title>工作表.29</title>
					<path d="M0 841.89 L103.99 841.89" class="st6"/>
				</g>
				<g id="shape30-81" v:mID="30" v:groupContext="shape" transform="translate(12.253,1631.71) rotate(180)">
					<title>工作表.30</title>
					<path d="M0 841.89 L12.25 841.89" class="st6"/>
				</g>
			</g>
			<g id="shape31-84" v:mID="31" v:groupContext="shape" transform="translate(78.0274,-61.7953)">
				<title>工作表.31</title>
				<desc>聖</desc>
				<v:textBlock v:margins="rect(4,4,4,4)" v:tabSpace="42.5197" v:verticalAlign="0"/>
				<v:textRect cx="11.3386" cy="829.134" width="22.68" height="25.5118"/>
				<rect x="0" y="816.378" width="22.6772" height="25.5118" class="st1"/>
				<text x="4" y="833.46" class="st4" v:langID="1028"><v:paragraph v:spLine="-1.4" v:bulletSize="0.166667"/><v:tabList/>聖</text>			</g>
			<g id="group32-87" transform="translate(55.6032,-73.7008)" v:mID="32" v:groupContext="group">
				<title>工作表.32</title>
				<g id="shape33-88" v:mID="33" v:groupContext="shape" transform="translate(24.506,1557.12) rotate(180)">
					<title>工作表.33</title>
					<path d="M0 841.89 L12.25 841.89" class="st6"/>
				</g>
				<g id="shape34-91" v:mID="34" v:groupContext="shape" transform="translate(24.506,1683.78) rotate(180)">
					<title>工作表.34</title>
					<path d="M0 841.89 L12.25 841.89" class="st6"/>
				</g>
				<g id="shape35-94" v:mID="35" v:groupContext="shape" transform="translate(854.143,715.226) rotate(90)">
					<title>工作表.35</title>
					<path d="M0 841.89 L126.66 841.89" class="st6"/>
				</g>
				<g id="shape36-97" v:mID="36" v:groupContext="shape" transform="translate(12.253,1620.36) rotate(180)">
					<title>工作表.36</title>
					<path d="M0 841.89 L12.25 841.89" class="st6"/>
				</g>
			</g>
			<g id="shape37-100" v:mID="37" v:groupContext="shape" transform="translate(176.315,-251.717)">
				<title>工作表.37</title>
				<path d="M0 841.89 L30.61 841.89" class="st6"/>
			</g>
			<g id="group38-103" transform="translate(167.747,-116.102)" v:mID="38" v:groupContext="group">
				<title>工作表.38</title>
				<g id="shape39-104" v:mID="39" v:groupContext="shape" transform="translate(24.506,1665.8) rotate(180)">
					<title>工作表.39</title>
					<path d="M0 841.89 L12.25 841.89" class="st6"/>
				</g>
				<g id="shape40-107" v:mID="40" v:groupContext="shape" transform="translate(24.506,1683.78) rotate(180)">
					<title>工作表.40</title>
					<path d="M0 841.89 L12.25 841.89" class="st6"/>
				</g>
				<g id="shape41-110" v:mID="41" v:groupContext="shape" transform="translate(854.143,823.912) rotate(90)">
					<title>工作表.41</title>
					<path d="M0 841.89 L17.98 841.89" class="st6"/>
				</g>
				<g id="shape42-113" v:mID="42" v:groupContext="shape" transform="translate(12.253,1674.78) rotate(180)">
					<title>工作表.42</title>
					<path d="M0 841.89 L16.18 841.89" class="st6"/>
				</g>
			</g>
			<g id="group43-116" transform="translate(167.747,-81.5292)" v:mID="43" v:groupContext="group">
				<title>工作表.43</title>
				<g id="shape44-117" v:mID="44" v:groupContext="shape" transform="translate(24.506,1665.8) rotate(180)">
					<title>工作表.44</title>
					<path d="M0 841.89 L12.25 841.89" class="st6"/>
				</g>
				<g id="shape45-120" v:mID="45" v:groupContext="shape" transform="translate(24.506,1683.78) rotate(180)">
					<title>工作表.45</title>
					<path d="M0 841.89 L12.25 841.89" class="st6"/>
				</g>
				<g id="shape46-123" v:mID="46" v:groupContext="shape" transform="translate(854.143,823.912) rotate(90)">
					<title>工作表.46</title>
					<path d="M0 841.89 L17.98 841.89" class="st6"/>
				</g>
				<g id="shape47-126" v:mID="47" v:groupContext="shape" transform="translate(12.253,1674.78) rotate(180)">
					<title>工作表.47</title>
					<path d="M0 841.89 L16.18 841.89" class="st6"/>
				</g>
			</g>
			<g id="group48-129" transform="translate(167.747,-46.9561)" v:mID="48" v:groupContext="group">
				<title>工作表.48</title>
				<g id="shape49-130" v:mID="49" v:groupContext="shape" transform="translate(24.506,1665.8) rotate(180)">
					<title>工作表.49</title>
					<path d="M0 841.89 L12.25 841.89" class="st6"/>
				</g>
				<g id="shape50-133" v:mID="50" v:groupContext="shape" transform="translate(24.506,1683.78) rotate(180)">
					<title>工作表.50</title>
					<path d="M0 841.89 L12.25 841.89" class="st6"/>
				</g>
				<g id="shape51-136" v:mID="51" v:groupContext="shape" transform="translate(854.143,823.912) rotate(90)">
					<title>工作表.51</title>
					<path d="M0 841.89 L17.98 841.89" class="st6"/>
				</g>
				<g id="shape52-139" v:mID="52" v:groupContext="shape" transform="translate(12.253,1674.78) rotate(180)">
					<title>工作表.52</title>
					<path d="M0 841.89 L16.18 841.89" class="st6"/>
				</g>
			</g>
			<g id="group53-142" transform="translate(167.747,-12.3829)" v:mID="53" v:groupContext="group">
				<title>工作表.53</title>
				<g id="shape54-143" v:mID="54" v:groupContext="shape" transform="translate(24.506,1665.8) rotate(180)">
					<title>工作表.54</title>
					<path d="M0 841.89 L12.25 841.89" class="st6"/>
				</g>
				<g id="shape55-146" v:mID="55" v:groupContext="shape" transform="translate(24.506,1683.78) rotate(180)">
					<title>工作表.55</title>
					<path d="M0 841.89 L12.25 841.89" class="st6"/>
				</g>
				<g id="shape56-149" v:mID="56" v:groupContext="shape" transform="translate(854.143,823.912) rotate(90)">
					<title>工作表.56</title>
					<path d="M0 841.89 L17.98 841.89" class="st6"/>
				</g>
				<g id="shape57-152" v:mID="57" v:groupContext="shape" transform="translate(12.253,1674.78) rotate(180)">
					<title>工作表.57</title>
					<path d="M0 841.89 L16.18 841.89" class="st6"/>
				</g>
			</g>
			<g id="shape58-155" v:mID="58" v:groupContext="shape" transform="translate(176.315,-217.223)">
				<title>工作表.58</title>
				<path d="M0 841.89 L30.61 841.89" class="st6"/>
			</g>
			<g id="shape59-158" v:mID="59" v:groupContext="shape" transform="translate(140.539,-201.26)">
				<title>工作表.59</title>
				<path d="M0 841.89 L66.39 841.89" class="st6"/>
			</g>
			<g id="shape60-161" v:mID="60" v:groupContext="shape" transform="translate(176.315,-147.402)">
				<title>工作表.60</title>
				<path d="M0 841.89 L30.61 841.89" class="st6"/>
			</g>
			<g id="shape61-164" v:mID="61" v:groupContext="shape" transform="translate(1048.82,590.173) rotate(90)">
				<title>工作表.61</title>
				<path d="M0 841.89 L34.49 841.89" class="st6"/>
			</g>
			<g id="shape62-167" v:mID="62" v:groupContext="shape" transform="translate(1048.82,640.63) rotate(90)">
				<title>工作表.62</title>
				<path d="M0 841.89 L53.86 841.89" class="st6"/>
			</g>
			<g id="shape63-170" v:mID="63" v:groupContext="shape" transform="translate(206.929,-234.38)">
				<title>工作表.63</title>
				<path d="M0 841.89 L30.61 841.89" class="st6"/>
			</g>
			<g id="shape64-173" v:mID="64" v:groupContext="shape" transform="translate(206.929,-174.449)">
				<title>工作表.64</title>
				<path d="M0 841.89 L30.61 841.89" class="st6"/>
			</g>
			<g id="shape65-176" v:mID="65" v:groupContext="shape" transform="translate(209.587,-133.405)">
				<title>工作表.65</title>
				<path d="M0 841.89 L60.75 841.89" class="st6"/>
			</g>
			<g id="shape66-179" v:mID="66" v:groupContext="shape" transform="translate(209.587,-115.613)">
				<title>工作表.66</title>
				<path d="M0 841.89 L30.61 841.89" class="st6"/>
			</g>
			<g id="shape67-182" v:mID="67" v:groupContext="shape" transform="translate(209.587,-30.4724)">
				<title>工作表.67</title>
				<path d="M0 841.89 L30.61 841.89" class="st6"/>
			</g>
			<g id="shape68-185" v:mID="68" v:groupContext="shape" transform="translate(209.587,-12.0472)">
				<title>工作表.68</title>
				<path d="M0 841.89 L61.53 841.89" class="st6"/>
			</g>
			<g id="shape69-188" v:mID="69" v:groupContext="shape" transform="translate(1082.09,726.277) rotate(90)">
				<title>工作表.69</title>
				<path d="M0 841.89 L85.14 841.89" class="st6"/>
			</g>
			<g id="shape70-191" v:mID="70" v:groupContext="shape" transform="translate(240.094,-72.2835)">
				<title>工作表.70</title>
				<path d="M0 841.89 L30.61 841.89" class="st6"/>
			</g>
			<g id="shape71-194" v:mID="71" v:groupContext="shape" transform="translate(301.606,-133.228)">
				<title>工作表.71</title>
				<path d="M0 841.89 L25.23 841.89" class="st6"/>
			</g>
			<g id="shape72-197" v:mID="72" v:groupContext="shape" transform="translate(301.606,-72.2834)">
				<title>工作表.72</title>
				<path d="M0 841.89 L25.23 841.89" class="st6"/>
			</g>
			<g id="shape73-200" v:mID="73" v:groupContext="shape" transform="translate(1168.72,708.661) rotate(90)">
				<title>工作表.73</title>
				<path d="M0 841.89 L60.94 841.89" class="st6"/>
			</g>
			<g id="shape74-203" v:mID="74" v:groupContext="shape" transform="translate(326.835,-102.598)">
				<title>工作表.74</title>
				<path d="M0 841.89 L25.23 841.89" class="st6"/>
			</g>
			<g id="shape75-206" v:mID="75" v:groupContext="shape" transform="translate(327.402,-235.276)">
				<title>工作表.75</title>
				<path d="M0 841.89 L12.33 841.89" class="st6"/>
			</g>
			<g id="shape76-209" v:mID="76" v:groupContext="shape" transform="translate(327.402,-174.331)">
				<title>工作表.76</title>
				<path d="M0 841.89 L12.33 841.89" class="st6"/>
			</g>
			<g id="shape77-212" v:mID="77" v:groupContext="shape" transform="translate(1181.62,606.614) rotate(90)">
				<title>工作表.77</title>
				<path d="M0 841.89 L60.94 841.89" class="st6"/>
			</g>
			<g id="shape78-215" v:mID="78" v:groupContext="shape" transform="translate(339.732,-204.645)">
				<title>工作表.78</title>
				<path d="M0 841.89 L12.33 841.89" class="st6"/>
			</g>
			<g id="shape79-218" v:mID="79" v:groupContext="shape" transform="translate(313.228,-12.0472)">
				<title>工作表.79</title>
				<path d="M0 841.89 L38.98 841.89" class="st6"/>
			</g>
		</g>
	</g>
</svg>
