<?xml version="1.0" encoding="UTF-8" standalone="no"?>
<!DOCTYPE svg PUBLIC "-//W3C//DTD SVG 1.1//EN" "http://www.w3.org/Graphics/SVG/1.1/DTD/svg11.dtd">
<!-- 由 Microsoft Visio, SVG Export 產生 F01101.svg 頁-1 -->
<svg xmlns="http://www.w3.org/2000/svg" xmlns:xlink="http://www.w3.org/1999/xlink" xmlns:ev="http://www.w3.org/2001/xml-events"
		xmlns:v="http://schemas.microsoft.com/visio/2003/SVGExtensions/" width="4.91319in" height="0.830443in"
		viewBox="0 0 353.749 59.7919" xml:space="preserve" color-interpolation-filters="sRGB" class="st6">
	<v:documentProperties v:langID="1028" v:viewMarkup="false"/>

	<style type="text/css">
	<![CDATA[
		.st1 {fill:none;stroke:none;stroke-linecap:butt;stroke-width:0.75}
		.st2 {fill:#000000;font-family:新細明體;font-size:0.833336em}
		.st3 {fill:#000000;font-family:Times New Roman;font-size:0.833336em}
		.st4 {fill:none}
		.st5 {stroke:#000000;stroke-linecap:round;stroke-linejoin:round;stroke-width:0.705463}
		.st6 {fill:none;fill-rule:evenodd;font-size:12px;overflow:visible;stroke-linecap:square;stroke-miterlimit:3}
	]]>
	</style>

	<g v:mID="0" v:index="1" v:groupContext="foregroundPage">
		<title>頁-1</title>
		<v:pageProperties v:drawingScale="0.0393701" v:pageScale="0.0393701" v:drawingUnits="24" v:shadowOffsetX="9"
				v:shadowOffsetY="-9"/>
		<g id="shape52-1" v:mID="52" v:groupContext="shape" transform="translate(21.574,-32.3923) rotate(-0.2)">
			<title>工作表.52</title>
			<v:textBlock v:margins="rect(0,0,0,0)"/>
			<rect x="0" y="46.247" width="210.698" height="13.5449" class="st1"/>
		</g>
		<g id="shape53-3" v:mID="53" v:groupContext="shape" transform="translate(97.7591,-45.0633) rotate(-0.2)">
			<title>工作表.53</title>
			<desc>六波羅密菩薩所應用</desc>
			<v:textBlock v:margins="rect(0,0,0,0)" v:tabSpace="42.5197"/>
			<v:textRect cx="62.0808" cy="53.0194" width="124.17" height="13.5449"/>
			<rect x="0" y="46.247" width="124.162" height="13.5449" class="st1"/>
			<text x="0" y="56.13" class="st2" v:langID="1028"><v:paragraph/><v:tabList/>六波羅密（菩薩所應用）</text>		</g>
		<g id="shape54-6" v:mID="54" v:groupContext="shape" transform="translate(21.6331,-15.4612) rotate(-0.2)">
			<title>工作表.54</title>
			<v:textBlock v:margins="rect(0,0,0,0)"/>
			<rect x="0" y="46.247" width="116.637" height="13.5449" class="st1"/>
		</g>
		<g id="shape55-8" v:mID="55" v:groupContext="shape" transform="translate(52.6378,-36.8806) rotate(-0.2)">
			<title>工作表.55</title>
			<desc>應具足</desc>
			<v:textBlock v:margins="rect(0,0,0,0)"/>
			<v:textRect cx="18.4449" cy="53.0194" width="36.89" height="13.5449"/>
			<rect x="0" y="46.247" width="36.8898" height="13.5449" class="st1"/>
			<text x="0" y="56.13" class="st2" v:langID="1028"><v:paragraph/><v:tabList/>應具足              </text>		</g>
		<g id="shape56-11" v:mID="56" v:groupContext="shape" transform="translate(0.588568,-24.0792) rotate(-0.2)">
			<title>工作表.56</title>
			<desc>勸學之別</desc>
			<v:textBlock v:margins="rect(0,0,0,0)" v:tabSpace="42.5197"/>
			<v:textRect cx="22.5748" cy="53.0194" width="45.15" height="13.5449"/>
			<rect x="0" y="46.247" width="45.1496" height="13.5449" class="st1"/>
			<text x="-0" y="56.13" class="st2" v:langID="1028"><v:paragraph/><v:tabList/>勸學之別</text>		</g>
		<g id="shape58-14" v:mID="58" v:groupContext="shape" transform="translate(205.627,-31.4862) rotate(-0.2)">
			<title>工作表.58</title>
			<desc>是聲聞法</desc>
			<v:textBlock v:margins="rect(0,0,0,0)" v:tabSpace="42.5197"/>
			<v:textRect cx="21.5548" cy="53.0194" width="43.11" height="13.5449"/>
			<rect x="0" y="46.247" width="43.1095" height="13.5449" class="st1"/>
			<text x="-0" y="56.13" class="st2" v:langID="1028"><v:paragraph/><v:tabList/>是聲聞法</text>		</g>
		<g id="shape60-17" v:mID="60" v:groupContext="shape" transform="translate(98.2423,-23.4629) rotate(-0.2)">
			<title>工作表.60</title>
			<desc>三十七品至三無漏根</desc>
			<v:textBlock v:margins="rect(0,0,0,0)" v:tabSpace="42.5197"/>
			<v:textRect cx="50.7933" cy="53.0194" width="101.59" height="13.5449"/>
			<rect x="0" y="46.247" width="101.587" height="13.5449" class="st1"/>
			<text x="0" y="56.13" class="st2" v:langID="1028"><v:paragraph/><v:tabList/>三十七品至三無漏根</text>		</g>
		<g id="shape62-20" v:mID="62" v:groupContext="shape" transform="translate(205.745,-18.0293) rotate(-0.2)">
			<title>工作表.62</title>
			<desc>是菩薩法</desc>
			<v:textBlock v:margins="rect(0,0,0,0)" v:tabSpace="42.5197"/>
			<v:textRect cx="21.0692" cy="53.0194" width="42.14" height="13.5449"/>
			<rect x="0" y="46.247" width="42.1384" height="13.5449" class="st1"/>
			<text x="-0" y="56.13" class="st2" v:langID="1028"><v:paragraph/><v:tabList/>是菩薩法</text>		</g>
		<g id="shape63-23" v:mID="63" v:groupContext="shape" transform="translate(52.6938,-0.749636) rotate(-0.2)">
			<title>工作表.63</title>
			<desc>應學</desc>
			<v:textBlock v:margins="rect(0,0,0,0)"/>
			<v:textRect cx="11.6829" cy="53.0194" width="23.37" height="13.5449"/>
			<rect x="0" y="46.247" width="23.3659" height="13.5449" class="st1"/>
			<text x="0" y="56.13" class="st2" v:langID="1028"><v:paragraph/><v:tabList/>應學 </text>		</g>
		<g id="shape64-26" v:mID="64" v:groupContext="shape" transform="translate(78.5438,-2.34861) rotate(-0.2)">
			<title>工作表.64</title>
			<desc>-----------</desc>
			<v:textBlock v:margins="rect(0,0,0,0)" v:tabSpace="42.5197"/>
			<v:textRect cx="62.0808" cy="53.0194" width="124.17" height="13.5449"/>
			<rect x="0" y="46.247" width="124.162" height="13.5449" class="st1"/>
			<text x="0" y="56.02" class="st3" v:langID="1028"><v:paragraph/><v:tabList/>-----------</text>		</g>
		<g id="shape65-29" v:mID="65" v:groupContext="shape" transform="translate(117.301,-2.49339) rotate(-0.2)">
			<title>工作表.65</title>
			<desc>十力以上</desc>
			<v:textBlock v:margins="rect(0,0,0,0)" v:tabSpace="42.5197"/>
			<v:textRect cx="28.2185" cy="53.0194" width="56.44" height="13.5449"/>
			<rect x="0" y="46.247" width="56.4371" height="13.5449" class="st1"/>
			<text x="0" y="56.13" class="st2" v:langID="1028"><v:paragraph/><v:tabList/>十力以上 </text>		</g>
		<g id="shape66-32" v:mID="66" v:groupContext="shape" transform="translate(163.295,-2.69039) rotate(-0.2)">
			<title>工作表.66</title>
			<desc>-----------------</desc>
			<v:textBlock v:margins="rect(0,0,0,0)" v:tabSpace="42.5197"/>
			<v:textRect cx="29.5404" cy="53.0194" width="59.09" height="13.5449"/>
			<rect x="0" y="46.247" width="59.0808" height="13.5449" class="st1"/>
			<text x="-0" y="56.02" class="st3" v:langID="1028"><v:paragraph/><v:tabList/>-----------------</text>		</g>
		<g id="shape67-35" v:mID="67" v:groupContext="shape" transform="translate(222.387,-3.65917) rotate(-0.2)">
			<title>工作表.67</title>
			<desc>是佛法是佛菩薩法</desc>
			<v:textBlock v:margins="rect(0,0,0,0)" v:tabSpace="42.5197"/>
			<v:textRect cx="53.1419" cy="53.0194" width="106.29" height="13.5449"/>
			<rect x="0" y="46.247" width="106.284" height="13.5449" class="st1"/>
			<text x="-0" y="56.13" class="st2" v:langID="1028"><v:paragraph/><v:tabList/>是佛法（是佛菩薩法）</text>		</g>
		<g id="shape91-38" v:mID="91" v:groupContext="shape" transform="translate(100.853,12.0301) rotate(89.8)">
			<title>工作表.91</title>
			<path d="M0 51.33 C0 53.68 1.63 55.56 3.77 55.56 L13.19 55.56 C15.26 55.56 16.96 57.44 16.96 59.79 C16.96 57.44 18.59
						 55.56 20.73 55.56 L41.45 55.56 C43.52 55.56 45.22 53.68 45.22 51.33 L0 51.33 Z" class="st4"/>
			<path d="M0 51.33 C0 53.68 1.63 55.56 3.77 55.56 L13.19 55.56 C15.26 55.56 16.96 57.44 16.96 59.79 C16.96 57.44 18.59
						 55.56 20.73 55.56 L41.45 55.56 C43.52 55.56 45.22 53.68 45.22 51.33" class="st5"/>
		</g>
		<g id="shape92-41" v:mID="92" v:groupContext="shape" transform="translate(145.322,4.57176) rotate(89.8)">
			<title>工作表.92</title>
			<path d="M0 51.33 C0 53.68 1.06 55.56 2.38 55.56 L7.94 55.56 C9.26 55.56 10.32 57.44 10.32 59.79 C10.32 57.44 11.38 55.56
						 12.7 55.56 L26.19 55.56 C27.52 55.56 28.58 53.68 28.58 51.33 L0 51.33 Z" class="st4"/>
			<path d="M0 51.33 C0 53.68 1.06 55.56 2.38 55.56 L7.94 55.56 C9.26 55.56 10.32 57.44 10.32 59.79 C10.32 57.44 11.38 55.56
						 12.7 55.56 L26.19 55.56 C27.52 55.56 28.58 53.68 28.58 51.33" class="st5"/>
		</g>
		<g id="shape93-44" v:mID="93" v:groupContext="shape" transform="translate(252.374,16.8111) rotate(89.8)">
			<title>工作表.93</title>
			<path d="M0 51.33 C0 53.68 0.82 55.56 1.89 55.56 L9.47 55.56 C10.48 55.56 11.36 57.44 11.36 59.79 C11.36 57.44 12.18
						 55.56 13.25 55.56 L20.83 55.56 C21.84 55.56 22.72 53.68 22.72 51.33 L0 51.33 Z" class="st4"/>
			<path d="M0 51.33 C0 53.68 0.82 55.56 1.89 55.56 L9.47 55.56 C10.48 55.56 11.36 57.44 11.36 59.79 C11.36 57.44 12.18
						 55.56 13.25 55.56 L20.83 55.56 C21.84 55.56 22.72 53.68 22.72 51.33" class="st5"/>
		</g>
		<g id="shape94-47" v:mID="94" v:groupContext="shape" transform="translate(296.038,-32.5803)">
			<title>工作表.94</title>
			<desc>過它而學</desc>
			<v:textBlock v:margins="rect(0,0,0,0)" v:tabSpace="42.5197"/>
			<v:textRect cx="22.5983" cy="53.0194" width="45.2" height="13.5449"/>
			<rect x="0" y="46.247" width="45.1966" height="13.5449" class="st1"/>
			<text x="0" y="56.13" class="st2" v:langID="1028"><v:paragraph/><v:tabList/>過它而學</text>		</g>
		<g id="shape95-50" v:mID="95" v:groupContext="shape" transform="translate(286.268,-31.0884)">
			<title>工作表.95</title>
			<desc>、</desc>
			<v:textBlock v:margins="rect(0,0,0,0)" v:tabSpace="42.5197"/>
			<v:textRect cx="5.66731" cy="52.6517" width="11.34" height="14.2803"/>
			<rect x="0" y="45.5116" width="11.3346" height="14.2803" class="st1"/>
			<text x="0" y="55.77" class="st2" v:langID="1028"><v:paragraph/><v:tabList/>、</text>		</g>
		<g id="shape96-53" v:mID="96" v:groupContext="shape" transform="translate(256.55,-32.0209)">
			<title>工作表.96</title>
			<desc>為化它</desc>
			<v:textBlock v:margins="rect(0,0,0,0)" v:tabSpace="42.5197"/>
			<v:textRect cx="16.0202" cy="53.0194" width="32.05" height="13.5449"/>
			<rect x="0" y="46.247" width="32.0403" height="13.5449" class="st1"/>
			<text x="0" y="56.13" class="st2" v:langID="1028"><v:paragraph/><v:tabList/>為化它</text>		</g>
		<g id="shape97-56" v:mID="97" v:groupContext="shape" transform="translate(246.286,-31.4614)">
			<title>工作表.97</title>
			<v:textBlock v:margins="rect(0,0,0,0)" v:tabSpace="42.5197"/>
			<v:textRect cx="5.66731" cy="53.0194" width="11.34" height="13.5449"/>
			<rect x="0" y="46.247" width="11.3346" height="13.5449" class="st1"/>
			<text x="0" y="56.13" class="st2" v:langID="1028"><v:paragraph/><v:tabList/>，</text>		</g>
		<g id="shape98-59" v:mID="98" v:groupContext="shape" transform="translate(246.286,-17.6527)">
			<title>工作表.98</title>
			<v:textBlock v:margins="rect(0,0,0,0)" v:tabSpace="42.5197"/>
			<v:textRect cx="5.66731" cy="53.0194" width="11.34" height="13.5449"/>
			<rect x="0" y="46.247" width="11.3346" height="13.5449" class="st1"/>
			<text x="0" y="56.13" class="st2" v:langID="1028"><v:paragraph/><v:tabList/>，</text>		</g>
		<g id="shape99-62" v:mID="99" v:groupContext="shape" transform="translate(286.341,-17.8965)">
			<title>工作表.99</title>
			<v:textBlock v:margins="rect(0,0,0,0)" v:tabSpace="42.5197"/>
			<v:textRect cx="5.66731" cy="53.0194" width="11.34" height="13.5449"/>
			<rect x="0" y="46.247" width="11.3346" height="13.5449" class="st1"/>
			<text x="0" y="56.13" class="st2" v:langID="1028"><v:paragraph/><v:tabList/>，</text>		</g>
		<g id="shape100-65" v:mID="100" v:groupContext="shape" transform="translate(296.515,-18.3054)">
			<title>工作表.100</title>
			<desc>與空智合故</desc>
			<v:textBlock v:margins="rect(0,0,0,0)" v:tabSpace="42.5197"/>
			<v:textRect cx="28.242" cy="53.0194" width="56.49" height="13.5449"/>
			<rect x="0" y="46.247" width="56.484" height="13.5449" class="st1"/>
			<text x="0" y="56.13" class="st2" v:langID="1028"><v:paragraph/><v:tabList/>與空智合故</text>		</g>
		<g id="shape101-68" v:mID="101" v:groupContext="shape" transform="translate(256.875,-18.2695)">
			<title>工作表.101</title>
			<desc>不捨眾</desc>
			<v:textBlock v:margins="rect(0,0,0,0)" v:tabSpace="42.5197"/>
			<v:textRect cx="16.9547" cy="53.0194" width="33.91" height="13.5449"/>
			<rect x="0" y="46.247" width="33.9093" height="13.5449" class="st1"/>
			<text x="0" y="56.13" class="st2" v:langID="1028"><v:paragraph/><v:tabList/>不捨眾</text>		</g>
	</g>
</svg>
