<?xml version="1.0" encoding="UTF-8" standalone="no"?>
<!DOCTYPE svg PUBLIC "-//W3C//DTD SVG 1.1//EN" "http://www.w3.org/Graphics/SVG/1.1/DTD/svg11.dtd">
<!-- 由 Microsoft Visio, SVG Export 產生 F01104.svg 頁-1 -->
<svg xmlns="http://www.w3.org/2000/svg" xmlns:xlink="http://www.w3.org/1999/xlink" xmlns:ev="http://www.w3.org/2001/xml-events"
		xmlns:v="http://schemas.microsoft.com/visio/2003/SVGExtensions/" width="5.33163in" height="1.51291in"
		viewBox="0 0 383.877 108.93" xml:space="preserve" color-interpolation-filters="sRGB" class="st6">
	<v:documentProperties v:langID="1028" v:viewMarkup="false"/>

	<style type="text/css">
	<![CDATA[
		.st1 {fill:none;stroke:none;stroke-linecap:butt;stroke-width:0.75}
		.st2 {fill:#000000;font-family:Times New Roman;font-size:0.833336em}
		.st3 {fill:#000000;font-family:新細明體;font-size:0.833336em}
		.st4 {fill:none}
		.st5 {stroke:#000000;stroke-linecap:round;stroke-linejoin:round;stroke-width:0.705463}
		.st6 {fill:none;fill-rule:evenodd;font-size:12px;overflow:visible;stroke-linecap:square;stroke-miterlimit:3}
	]]>
	</style>

	<g v:mID="0" v:index="1" v:groupContext="foregroundPage">
		<title>頁-1</title>
		<v:pageProperties v:drawingScale="0.0393701" v:pageScale="0.0393701" v:drawingUnits="24" v:shadowOffsetX="9"
				v:shadowOffsetY="-9"/>
		<g id="shape2-1" v:mID="2" v:groupContext="shape" transform="translate(93.6417,-94.4856) rotate(-0.2)">
			<title>工作表.2</title>
			<desc>1</desc>
			<v:textBlock v:margins="rect(0,0,0,0)" v:tabSpace="42.5197"/>
			<v:textRect cx="5.64371" cy="102.157" width="11.29" height="13.5449"/>
			<rect x="0" y="95.3849" width="11.2874" height="13.5449" class="st1"/>
			<text x="0" y="105.16" class="st2" v:langID="1028"><v:paragraph/><v:tabList/>1</text>		</g>
		<g id="shape3-4" v:mID="3" v:groupContext="shape" transform="translate(99.344,-93.6451) rotate(-0.2)">
			<title>工作表.3</title>
			<desc>、於一字一語一法中說一切字一切法一切語無不真實無不利益。</desc>
			<v:textBlock v:margins="rect(0,0,0,0)" v:tabSpace="42.5197"/>
			<v:textRect cx="141.702" cy="102.157" width="283.41" height="13.5449"/>
			<rect x="0" y="95.3849" width="283.404" height="13.5449" class="st1"/>
			<text x="0" y="105.27" class="st3" v:langID="1028"><v:paragraph/><v:tabList/>、於一字一語一法中說一切字一切法一切語無不真實無不利益。</text>		</g>
		<g id="shape5-7" v:mID="5" v:groupContext="shape" transform="translate(93.7008,-78.8629) rotate(-0.2)">
			<title>工作表.5</title>
			<desc>2</desc>
			<v:textBlock v:margins="rect(0,0,0,0)" v:tabSpace="42.5197"/>
			<v:textRect cx="5.64371" cy="102.157" width="11.29" height="13.5449"/>
			<rect x="0" y="95.3849" width="11.2874" height="13.5449" class="st1"/>
			<text x="0" y="105.16" class="st2" v:langID="1028"><v:paragraph/><v:tabList/>2</text>		</g>
		<g id="shape6-10" v:mID="6" v:groupContext="shape" transform="translate(99.3445,-78.8826) rotate(-0.2)">
			<title>工作表.6</title>
			<desc>、隨機為說十二部經</desc>
			<v:textBlock v:margins="rect(0,0,0,0)" v:tabSpace="42.5197"/>
			<v:textRect cx="50.7933" cy="102.157" width="101.59" height="13.5449"/>
			<rect x="0" y="95.3849" width="101.587" height="13.5449" class="st1"/>
			<text x="0" y="105.27" class="st3" v:langID="1028"><v:paragraph/><v:tabList/>、隨機為說十二部經</text>		</g>
		<g id="shape8-13" v:mID="8" v:groupContext="shape" transform="translate(93.7595,-63.2402) rotate(-0.2)">
			<title>工作表.8</title>
			<desc>3</desc>
			<v:textBlock v:margins="rect(0,0,0,0)" v:tabSpace="42.5197"/>
			<v:textRect cx="5.64371" cy="102.157" width="11.29" height="13.5449"/>
			<rect x="0" y="95.3849" width="11.2874" height="13.5449" class="st1"/>
			<text x="0" y="105.16" class="st2" v:langID="1028"><v:paragraph/><v:tabList/>3</text>		</g>
		<g id="shape9-16" v:mID="9" v:groupContext="shape" transform="translate(99.4032,-63.2599) rotate(-0.2)">
			<title>工作表.9</title>
			<desc>、隨機為各各說諸善根</desc>
			<v:textBlock v:margins="rect(0,0,0,0)" v:tabSpace="42.5197"/>
			<v:textRect cx="56.4371" cy="102.157" width="112.88" height="13.5449"/>
			<rect x="0" y="95.3849" width="112.874" height="13.5449" class="st1"/>
			<text x="0" y="105.27" class="st3" v:langID="1028"><v:paragraph/><v:tabList/>、隨機為各各說諸善根</text>		</g>
		<g id="shape10-19" v:mID="10" v:groupContext="shape" transform="translate(0.417044,-47.1447) rotate(-0.2)">
			<title>工作表.10</title>
			<desc>菩薩樂說無礙智</desc>
			<v:textBlock v:margins="rect(0,0,0,0)" v:tabSpace="42.5197"/>
			<v:textRect cx="39.5059" cy="102.157" width="79.02" height="13.5449"/>
			<rect x="0" y="95.3849" width="79.0119" height="13.5449" class="st1"/>
			<text x="-0" y="105.27" class="st3" v:langID="1028"><v:paragraph/><v:tabList/>菩薩樂說無礙智</text>		</g>
		<g id="shape12-22" v:mID="12" v:groupContext="shape" transform="translate(93.8186,-47.6175) rotate(-0.2)">
			<title>工作表.12</title>
			<desc>4</desc>
			<v:textBlock v:margins="rect(0,0,0,0)" v:tabSpace="42.5197"/>
			<v:textRect cx="5.64371" cy="102.157" width="11.29" height="13.5449"/>
			<rect x="0" y="95.3849" width="11.2874" height="13.5449" class="st1"/>
			<text x="0" y="105.16" class="st2" v:langID="1028"><v:paragraph/><v:tabList/>4</text>		</g>
		<g id="shape13-25" v:mID="13" v:groupContext="shape" transform="translate(99.4623,-47.6372) rotate(-0.2)">
			<title>工作表.13</title>
			<desc>、隨機說八萬四千法治八萬四千煩惱</desc>
			<v:textBlock v:margins="rect(0,0,0,0)" v:tabSpace="42.5197"/>
			<v:textRect cx="90.2993" cy="102.157" width="180.6" height="13.5449"/>
			<rect x="0" y="95.3849" width="180.599" height="13.5449" class="st1"/>
			<text x="-0" y="105.27" class="st3" v:langID="1028"><v:paragraph/><v:tabList/>、隨機說八萬四千法治八萬四千煩惱</text>		</g>
		<g id="shape15-28" v:mID="15" v:groupContext="shape" transform="translate(93.8777,-31.5587) rotate(-0.2)">
			<title>工作表.15</title>
			<desc>5</desc>
			<v:textBlock v:margins="rect(0,0,0,0)" v:tabSpace="42.5197"/>
			<v:textRect cx="5.64371" cy="102.157" width="11.29" height="13.5449"/>
			<rect x="0" y="95.3849" width="11.2874" height="13.5449" class="st1"/>
			<text x="0" y="105.16" class="st2" v:langID="1028"><v:paragraph/><v:tabList/>5</text>		</g>
		<g id="shape16-31" v:mID="16" v:groupContext="shape" transform="translate(99.5214,-31.5784) rotate(-0.2)">
			<title>工作表.16</title>
			<desc>、莊嚴說法不壞法相</desc>
			<v:textBlock v:margins="rect(0,0,0,0)" v:tabSpace="42.5197"/>
			<v:textRect cx="50.7933" cy="102.157" width="101.59" height="13.5449"/>
			<rect x="0" y="95.3849" width="101.587" height="13.5449" class="st1"/>
			<text x="-0" y="105.27" class="st3" v:langID="1028"><v:paragraph/><v:tabList/>、莊嚴說法不壞法相</text>		</g>
		<g id="shape18-34" v:mID="18" v:groupContext="shape" transform="translate(93.9368,-16.3721) rotate(-0.2)">
			<title>工作表.18</title>
			<desc>6</desc>
			<v:textBlock v:margins="rect(0,0,0,0)" v:tabSpace="42.5197"/>
			<v:textRect cx="5.64371" cy="102.157" width="11.29" height="13.5449"/>
			<rect x="0" y="95.3849" width="11.2874" height="13.5449" class="st1"/>
			<text x="0" y="105.16" class="st2" v:langID="1028"><v:paragraph/><v:tabList/>6</text>		</g>
		<g id="shape19-37" v:mID="19" v:groupContext="shape" transform="translate(99.5805,-16.3918) rotate(-0.2)">
			<title>工作表.19</title>
			<desc>、或隱身不現用毛孔說法</desc>
			<v:textBlock v:margins="rect(0,0,0,0)" v:tabSpace="42.5197"/>
			<v:textRect cx="67.7245" cy="102.157" width="135.45" height="13.5449"/>
			<rect x="0" y="95.3849" width="135.449" height="13.5449" class="st1"/>
			<text x="-0" y="105.27" class="st3" v:langID="1028"><v:paragraph/><v:tabList/>、或隱身不現，用毛孔說法</text>		</g>
		<g id="shape21-40" v:mID="21" v:groupContext="shape" transform="translate(93.9959,-0.749336) rotate(-0.2)">
			<title>工作表.21</title>
			<desc>7</desc>
			<v:textBlock v:margins="rect(0,0,0,0)" v:tabSpace="42.5197"/>
			<v:textRect cx="5.64371" cy="102.157" width="11.29" height="13.5449"/>
			<rect x="0" y="95.3849" width="11.2874" height="13.5449" class="st1"/>
			<text x="0" y="105.16" class="st2" v:langID="1028"><v:paragraph/><v:tabList/>7</text>		</g>
		<g id="shape22-43" v:mID="22" v:groupContext="shape" transform="translate(99.6396,-0.769037) rotate(-0.2)">
			<title>工作表.22</title>
			<desc>、外書無不盡知</desc>
			<v:textBlock v:margins="rect(0,0,0,0)" v:tabSpace="42.5197"/>
			<v:textRect cx="39.5059" cy="102.157" width="79.02" height="13.5449"/>
			<rect x="0" y="95.3849" width="79.0119" height="13.5449" class="st1"/>
			<text x="0" y="105.27" class="st3" v:langID="1028"><v:paragraph/><v:tabList/>、外書無不盡知</text>		</g>
		<g id="shape36-46" v:mID="36" v:groupContext="shape" transform="translate(186.604,3.87986) rotate(89.8)">
			<title>工作表.36</title>
			<path d="M0 100.46 C0 102.82 3.76 104.7 8.47 104.7 L42.33 104.7 C46.94 104.7 50.79 106.58 50.79 108.93 C50.79 106.58
						 54.56 104.7 59.26 104.7 L93.12 104.7 C97.73 104.7 101.59 102.82 101.59 100.46 L0 100.46 Z" class="st4"/>
			<path d="M0 100.46 C0 102.82 3.76 104.7 8.47 104.7 L42.33 104.7 C46.94 104.7 50.79 106.58 50.79 108.93 C50.79 106.58
						 54.56 104.7 59.26 104.7 L93.12 104.7 C97.73 104.7 101.59 102.82 101.59 100.46" class="st5"/>
		</g>
	</g>
</svg>
