<?xml version="1.0" encoding="UTF-8" standalone="no"?>
<!DOCTYPE svg PUBLIC "-//W3C//DTD SVG 1.1//EN" "http://www.w3.org/Graphics/SVG/1.1/DTD/svg11.dtd">
<!-- 由 Microsoft Visio, SVG Export 產生 A00904.svg 頁-1 -->
<svg xmlns="http://www.w3.org/2000/svg" xmlns:xlink="http://www.w3.org/1999/xlink" xmlns:ev="http://www.w3.org/2001/xml-events"
		xmlns:v="http://schemas.microsoft.com/visio/2003/SVGExtensions/" width="5.18422in" height="0.428428in"
		viewBox="0 0 373.264 30.8468" xml:space="preserve" color-interpolation-filters="sRGB" class="st6">
	<v:documentProperties v:langID="1028" v:viewMarkup="false"/>

	<style type="text/css">
	<![CDATA[
		.st1 {fill:none;stroke:none;stroke-linecap:butt;stroke-width:0.75}
		.st2 {fill:#000000;font-family:新細明體;font-size:0.833336em}
		.st3 {fill:none}
		.st4 {stroke:#040000;stroke-linecap:round;stroke-linejoin:round;stroke-width:0.705463}
		.st5 {stroke:#000000;stroke-linecap:round;stroke-linejoin:round;stroke-width:0.75}
		.st6 {fill:none;fill-rule:evenodd;font-size:12px;overflow:visible;stroke-linecap:square;stroke-miterlimit:3}
	]]>
	</style>

	<g v:mID="0" v:index="1" v:groupContext="foregroundPage">
		<title>頁-1</title>
		<v:pageProperties v:drawingScale="0.0393701" v:pageScale="0.0393701" v:drawingUnits="24" v:shadowOffsetX="9"
				v:shadowOffsetY="-9"/>
		<g id="shape1-1" v:mID="1" v:groupContext="shape" transform="translate(51.4648,-16.5519)">
			<title>工作表.1</title>
			<desc>取無我相著無我</desc>
			<v:textBlock v:margins="rect(0,0,0,0)" v:tabSpace="42.5197"/>
			<v:textRect cx="39.5059" cy="24.0744" width="79.02" height="13.5449"/>
			<rect x="0" y="17.3019" width="79.0119" height="13.5449" class="st1"/>
			<text x="0" y="27.19" class="st2" v:langID="1028"><v:paragraph/><v:tabList/>取無我相著無我</text>		</g>
		<g id="shape3-4" v:mID="3" v:groupContext="shape" transform="translate(187.766,-16.5519)">
			<title>工作表.3</title>
			<desc>此無我是邊故說非我、非無我名中道。</desc>
			<v:textBlock v:margins="rect(0,0,0,0)" v:tabSpace="42.5197"/>
			<v:textRect cx="92.3741" cy="24.0744" width="184.75" height="13.5449"/>
			<rect x="0" y="17.3019" width="184.748" height="13.5449" class="st1"/>
			<text x="-0" y="27.19" class="st2" v:langID="1028"><v:paragraph/><v:tabList/>此無我是邊，故說非我、非無我名中道。</text>		</g>
		<g id="shape4-7" v:mID="4" v:groupContext="shape" transform="translate(0.75,-9.33364)">
			<title>工作表.4</title>
			<desc>二種無我</desc>
			<v:textBlock v:margins="rect(0,0,0,0)" v:tabSpace="42.5197"/>
			<v:textRect cx="22.5748" cy="24.0744" width="45.15" height="13.5449"/>
			<rect x="0" y="17.3019" width="45.1496" height="13.5449" class="st1"/>
			<text x="0" y="27.19" class="st2" v:langID="1028"><v:paragraph/><v:tabList/>二種無我</text>		</g>
		<g id="shape5-10" v:mID="5" v:groupContext="shape" transform="translate(51.4661,-0.75)">
			<title>工作表.5</title>
			<desc>破我不取無我不著無我</desc>
			<v:textBlock v:margins="rect(0,0,0,0)" v:tabSpace="42.5197"/>
			<v:textRect cx="62.0808" cy="24.0744" width="124.17" height="13.5449"/>
			<rect x="0" y="17.3019" width="124.162" height="13.5449" class="st1"/>
			<text x="0" y="27.19" class="st2" v:langID="1028"><v:paragraph/><v:tabList/>破我不取無我，不著無我</text>		</g>
		<g id="shape7-13" v:mID="7" v:groupContext="shape" transform="translate(187.767,-0.75)">
			<title>工作表.7</title>
			<desc>此無我是中道、是法印、是實相。</desc>
			<v:textBlock v:margins="rect(0,0,0,0)" v:tabSpace="42.5197"/>
			<v:textRect cx="76.7829" cy="24.0744" width="153.57" height="13.5449"/>
			<rect x="0" y="17.3019" width="153.566" height="13.5449" class="st1"/>
			<text x="0" y="27.19" class="st2" v:langID="1028"><v:paragraph/><v:tabList/>此無我是中道、是法印、是實相。</text>		</g>
		<g id="shape14-16" v:mID="14" v:groupContext="shape" transform="translate(73.1244,6.10511) rotate(90)">
			<title>工作表.14</title>
			<path d="M0 23.07 C0 25.2 0.71 26.96 1.54 26.96 L7.67 26.96 C8.5 26.96 9.21 28.72 9.21 30.85 C9.21 28.72 9.88 26.96 10.75
						 26.96 L16.88 26.96 C17.72 26.96 18.43 25.2 18.43 23.07 L0 23.07 Z" class="st3"/>
			<path d="M0 23.07 C0 25.2 0.71 26.96 1.54 26.96 L7.67 26.96 C8.5 26.96 9.21 28.72 9.21 30.85 C9.21 28.72 9.88 26.96 10.75
						 26.96 L16.88 26.96 C17.72 26.96 18.43 25.2 18.43 23.07" class="st4"/>
		</g>
		<g id="shape15-19" v:mID="15" v:groupContext="shape" transform="translate(124.482,-22.7575)">
			<title>工作表.15</title>
			<path d="M0 30.85 L60.57 30.85" class="st5"/>
		</g>
		<g id="shape16-22" v:mID="16" v:groupContext="shape" transform="translate(164.167,-7.73385)">
			<title>工作表.16</title>
			<path d="M0 30.85 L19.84 30.85" class="st5"/>
		</g>
	</g>
</svg>
