<?xml version="1.0" encoding="UTF-8" standalone="no"?>
<!DOCTYPE svg PUBLIC "-//W3C//DTD SVG 1.1//EN" "http://www.w3.org/Graphics/SVG/1.1/DTD/svg11.dtd">
<!-- 由 Microsoft Visio, SVG Export 產生 A00903.svg 頁-1 -->
<svg xmlns="http://www.w3.org/2000/svg" xmlns:xlink="http://www.w3.org/1999/xlink" xmlns:ev="http://www.w3.org/2001/xml-events"
		xmlns:v="http://schemas.microsoft.com/visio/2003/SVGExtensions/" width="3.76818in" height="0.651345in"
		viewBox="0 0 271.309 46.8969" xml:space="preserve" color-interpolation-filters="sRGB" class="st5">
	<v:documentProperties v:langID="1028" v:viewMarkup="false"/>

	<style type="text/css">
	<![CDATA[
		.st1 {fill:none;stroke:none;stroke-linecap:butt;stroke-width:0.75}
		.st2 {fill:#000000;font-family:新細明體;font-size:0.833336em}
		.st3 {fill:none}
		.st4 {stroke:#040000;stroke-linecap:round;stroke-linejoin:round;stroke-width:0.705463}
		.st5 {fill:none;fill-rule:evenodd;font-size:12px;overflow:visible;stroke-linecap:square;stroke-miterlimit:3}
	]]>
	</style>

	<g v:mID="0" v:index="1" v:groupContext="foregroundPage">
		<title>頁-1</title>
		<v:pageProperties v:drawingScale="0.0393701" v:pageScale="0.0393701" v:drawingUnits="24" v:shadowOffsetX="9"
				v:shadowOffsetY="-9"/>
		<g id="shape1-1" v:mID="1" v:groupContext="shape" transform="translate(55.8102,-32.602)">
			<title>工作表.1</title>
			<desc>說無我示眾生空說無有我所法示法空。</desc>
			<v:textBlock v:margins="rect(0,0,0,0)" v:tabSpace="42.5197"/>
			<v:textRect cx="91.0289" cy="40.1244" width="182.06" height="13.5449"/>
			<rect x="0" y="33.352" width="182.058" height="13.5449" class="st1"/>
			<text x="0" y="43.24" class="st2" v:langID="1028"><v:paragraph/><v:tabList/>說無我示眾生空，說無有我所法示法空。</text>		</g>
		<g id="shape2-4" v:mID="2" v:groupContext="shape" transform="translate(0.75,-17.1296)">
			<title>工作表.2</title>
			<desc>無我與空</desc>
			<v:textBlock v:margins="rect(0,0,0,0)" v:tabSpace="42.5197"/>
			<v:textRect cx="22.5748" cy="40.1244" width="45.15" height="13.5449"/>
			<rect x="0" y="33.352" width="45.1496" height="13.5449" class="st1"/>
			<text x="-0" y="43.24" class="st2" v:langID="1028"><v:paragraph/><v:tabList/>無我與空</text>		</g>
		<g id="shape3-7" v:mID="3" v:groupContext="shape" transform="translate(55.8098,-0.75)">
			<title>工作表.3</title>
			<desc>無法方便說言無我了了說言一切法空。</desc>
			<v:textBlock v:margins="rect(0,0,0,0)" v:tabSpace="42.5197"/>
			<v:textRect cx="101.587" cy="40.1244" width="203.18" height="13.5449"/>
			<rect x="0" y="33.352" width="203.173" height="13.5449" class="st1"/>
			<text x="0" y="43.24" class="st2" v:langID="1028"><v:paragraph/><v:tabList/>（無法）方便說言無我，了了說言一切法空。</text>		</g>
		<g id="shape12-10" v:mID="12" v:groupContext="shape" transform="translate(89.2925,6.80668) rotate(90)">
			<title>工作表.12</title>
			<path d="M0 35.61 C0 38.81 1.22 41.25 2.74 41.25 L13.7 41.25 C15.22 41.25 16.44 43.79 16.44 46.9 C16.44 43.79 17.66 41.25
						 19.18 41.25 L30.14 41.25 C31.66 41.25 32.88 38.81 32.88 35.61 L0 35.61 Z" class="st3"/>
			<path d="M0 35.61 C0 38.81 1.22 41.25 2.74 41.25 L13.7 41.25 C15.22 41.25 16.44 43.79 16.44 46.9 C16.44 43.79 17.66 41.25
						 19.18 41.25 L30.14 41.25 C31.66 41.25 32.88 38.81 32.88 35.61" class="st4"/>
		</g>
		<g id="shape14-13" v:mID="14" v:groupContext="shape" transform="translate(55.8102,-16.676)">
			<title>工作表.14</title>
			<desc>不大利根眾生為說無我利根眾生為說皆空。</desc>
			<v:textBlock v:margins="rect(0,0,0,0)" v:tabSpace="42.5197"/>
			<v:textRect cx="107.374" cy="40.1244" width="214.75" height="13.5449"/>
			<rect x="0" y="33.352" width="214.749" height="13.5449" class="st1"/>
			<text x="-0" y="43.24" class="st2" v:langID="1028"><v:paragraph/><v:tabList/>不大利根眾生，為說無我；利根眾生為說皆空。</text>		</g>
	</g>
</svg>
