<?xml version="1.0" encoding="UTF-8" standalone="no"?>
<!DOCTYPE svg PUBLIC "-//W3C//DTD SVG 1.1//EN" "http://www.w3.org/Graphics/SVG/1.1/DTD/svg11.dtd">
<!-- 由 Microsoft Visio, SVG Export 產生 A00902.svg 頁-1 -->
<svg xmlns="http://www.w3.org/2000/svg" xmlns:xlink="http://www.w3.org/1999/xlink" xmlns:ev="http://www.w3.org/2001/xml-events"
		xmlns:v="http://schemas.microsoft.com/visio/2003/SVGExtensions/" width="5.8732in" height="0.408743in"
		viewBox="0 0 422.87 29.4295" xml:space="preserve" color-interpolation-filters="sRGB" class="st5">
	<v:documentProperties v:langID="1028" v:viewMarkup="false"/>

	<style type="text/css">
	<![CDATA[
		.st1 {fill:none;stroke:none;stroke-linecap:butt;stroke-width:0.75}
		.st2 {fill:#000000;font-family:新細明體;font-size:0.833336em}
		.st3 {fill:none}
		.st4 {stroke:#040000;stroke-linecap:round;stroke-linejoin:round;stroke-width:0.705463}
		.st5 {fill:none;fill-rule:evenodd;font-size:12px;overflow:visible;stroke-linecap:square;stroke-miterlimit:3}
	]]>
	</style>

	<g v:mID="0" v:index="1" v:groupContext="foregroundPage">
		<title>頁-1</title>
		<v:pageProperties v:drawingScale="0.0393701" v:pageScale="0.0393701" v:drawingUnits="24" v:shadowOffsetX="9"
				v:shadowOffsetY="-9"/>
		<g id="shape2-1" v:mID="2" v:groupContext="shape" transform="translate(72.0221,-15.1346)">
			<title>工作表.2</title>
			<desc>根未熟者先有所求然後能捨為說有法。信等根成但求出離為說法空。</desc>
			<v:textBlock v:margins="rect(0,0,0,0)" v:tabSpace="42.5197"/>
			<v:textRect cx="175.049" cy="22.6571" width="350.1" height="13.5449"/>
			<rect x="0" y="15.8846" width="350.098" height="13.5449" class="st1"/>
			<text x="0" y="25.77" class="st2" v:langID="1028"><v:paragraph/><v:tabList/>根未熟者，先有所求，然後能捨，為說有法。信等根成，但求出離，為說法空。</text>		</g>
		<g id="shape3-4" v:mID="3" v:groupContext="shape" transform="translate(0.75,-8.36218)">
			<title>工作表.3</title>
			<desc>說有法說無法</desc>
			<v:textBlock v:margins="rect(0,0,0,0)" v:tabSpace="42.5197"/>
			<v:textRect cx="32.8014" cy="22.6571" width="65.61" height="13.5449"/>
			<rect x="0" y="15.8846" width="65.6029" height="13.5449" class="st1"/>
			<text x="0" y="25.77" class="st2" v:langID="1028"><v:paragraph/><v:tabList/>說有法說無法</text>		</g>
		<g id="shape4-7" v:mID="4" v:groupContext="shape" transform="translate(72.023,-0.75)">
			<title>工作表.4</title>
			<desc>說有說空更互通二諦。</desc>
			<v:textBlock v:margins="rect(0,0,0,0)" v:tabSpace="42.5197"/>
			<v:textRect cx="56.3499" cy="22.6571" width="112.7" height="13.5449"/>
			<rect x="0" y="15.8846" width="112.7" height="13.5449" class="st1"/>
			<text x="-0" y="25.77" class="st2" v:langID="1028"><v:paragraph/><v:tabList/>說有說空，更互通二諦。</text>		</g>
		<g id="shape5-10" v:mID="5" v:groupContext="shape" transform="translate(91.5496,4.97126) rotate(90)">
			<title>工作表.5</title>
			<path d="M0 20.96 C0 23.32 0.69 25.2 1.49 25.2 L7.54 25.2 C8.39 25.2 9.07 27.08 9.07 29.43 C9.07 27.08 9.76 25.2 10.56
						 25.2 L16.61 25.2 C17.46 25.2 18.14 23.32 18.14 20.96 L0 20.96 Z" class="st3"/>
			<path d="M0 20.96 C0 23.32 0.69 25.2 1.49 25.2 L7.54 25.2 C8.39 25.2 9.07 27.08 9.07 29.43 C9.07 27.08 9.76 25.2 10.56
						 25.2 L16.61 25.2 C17.46 25.2 18.14 23.32 18.14 20.96" class="st4"/>
		</g>
	</g>
</svg>
