<?xml version="1.0" encoding="UTF-8" standalone="no"?>
<!DOCTYPE svg PUBLIC "-//W3C//DTD SVG 1.1//EN" "http://www.w3.org/Graphics/SVG/1.1/DTD/svg11.dtd">
<!-- 由 Microsoft Visio, SVG Export 產生 M026.209=F01301.svg 頁-1 -->
<svg xmlns="http://www.w3.org/2000/svg" xmlns:xlink="http://www.w3.org/1999/xlink" xmlns:ev="http://www.w3.org/2001/xml-events"
		xmlns:v="http://schemas.microsoft.com/visio/2003/SVGExtensions/" width="5.38688in" height="1.82302in"
		viewBox="0 0 387.855 131.257" xml:space="preserve" color-interpolation-filters="sRGB" class="st6">
	<v:documentProperties v:langID="1028" v:viewMarkup="false"/>

	<style type="text/css">
	<![CDATA[
		.st1 {fill:none;stroke:none;stroke-linecap:butt;stroke-width:0.75}
		.st2 {fill:#000000;font-family:新細明體;font-size:0.833336em}
		.st3 {font-size:1em}
		.st4 {fill:none}
		.st5 {stroke:#040000;stroke-linecap:round;stroke-linejoin:round;stroke-width:0.705463}
		.st6 {fill:none;fill-rule:evenodd;font-size:12px;overflow:visible;stroke-linecap:square;stroke-miterlimit:3}
	]]>
	</style>

	<g v:mID="0" v:index="1" v:groupContext="foregroundPage">
		<title>頁-1</title>
		<v:pageProperties v:drawingScale="0.0393701" v:pageScale="0.0393701" v:drawingUnits="24" v:shadowOffsetX="9"
				v:shadowOffsetY="-9"/>
		<g id="group275-1" transform="translate(0.75,-0.75)" v:mID="275" v:groupContext="group">
			<title>工作表.275</title>
			<g id="shape153-2" v:mID="153" v:groupContext="shape" transform="translate(-0.410893,-69.1768) rotate(-0.2)">
				<title>工作表.153</title>
				<desc>三世有無之討論</desc>
				<v:textBlock v:margins="rect(0,0,0,0)"/>
				<v:textRect cx="36.5838" cy="124.485" width="73.17" height="13.5449"/>
				<rect x="0" y="117.712" width="73.1675" height="13.5449" class="st1"/>
				<text x="0" y="127.6" class="st2" v:langID="1028"><v:paragraph/><v:tabList/>三世有無之討論</text>			</g>
			<g id="shape155-5" v:mID="155" v:groupContext="shape" transform="translate(80.2426,-25.2956) rotate(-0.2)">
				<title>工作表.155</title>
				<desc>答</desc>
				<v:textBlock v:margins="rect(0,0,0,0)"/>
				<v:textRect cx="10.7502" cy="124.485" width="21.51" height="13.5449"/>
				<rect x="0" y="117.712" width="21.5003" height="13.5449" class="st1"/>
				<text x="0" y="127.6" class="st2" v:langID="1028"><v:paragraph/><v:tabList/>答：</text>			</g>
			<g id="shape212-8" v:mID="212" v:groupContext="shape" transform="translate(110.555,-51.0228) rotate(-0.2)">
				<title>工作表.212</title>
				<desc>遣難三世各有相不應作是難。</desc>
				<v:textBlock v:margins="rect(0,0,0,0)" v:tabSpace="42.5197"/>
				<v:textRect cx="84.6556" cy="124.485" width="169.32" height="13.5449"/>
				<rect x="0" y="117.712" width="169.311" height="13.5449" class="st1"/>
				<text x="0" y="127.6" class="st2" v:langID="1028"><v:paragraph/><v:tabList/>遣難：三世各有相，不應作是難。</text>			</g>
			<g id="shape213-11" v:mID="213" v:groupContext="shape" transform="translate(111.359,-25.9242) rotate(-0.2)">
				<title>工作表.213</title>
				<desc>反責無過未</desc>
				<v:textBlock v:margins="rect(0,0,0,0)"/>
				<v:textRect cx="30.8862" cy="124.485" width="61.78" height="13.5449"/>
				<rect x="0" y="117.712" width="61.7725" height="13.5449" class="st1"/>
				<text x="0" y="127.6" class="st2" v:langID="1028"><v:paragraph/><v:tabList/>反責無過未：</text>			</g>
			<g id="shape214-14" v:mID="214" v:groupContext="shape" transform="translate(111.372,0.000799664) rotate(-0.2)">
				<title>工作表.214</title>
				<desc>申明正義過未能生心、心數法說之為有不如現在。</desc>
				<v:textBlock v:margins="rect(0,0,0,0)" v:tabSpace="42.5197"/>
				<v:textRect cx="125.777" cy="124.485" width="251.56" height="13.5449"/>
				<rect x="0" y="117.712" width="251.554" height="13.5449" class="st1"/>
				<text x="0" y="127.6" class="st2" v:langID="1028"><v:paragraph/><v:tabList/>申明正義：過未能生心、心數法，說之為有，不如現在。</text>			</g>
			<g id="shape220-17" v:mID="220" v:groupContext="shape" transform="translate(180.635,-13.9486) rotate(-0.2)">
				<title>工作表.220</title>
				<desc>現在惡心中應無律儀。 聖人世俗心應是凡夫。 業入過去應無罪福。</desc>
				<v:textBlock v:margins="rect(0,0,0,0)" v:tabSpace="42.5197"/>
				<v:textRect cx="56.7267" cy="112.832" width="113.46" height="36.8502"/>
				<rect x="0" y="94.4071" width="113.453" height="36.8502" class="st1"/>
				<text x="0" y="103.49" class="st2" v:langID="1028"><v:paragraph/><v:tabList/>現在惡心中，應無律儀。<v:newlineChar/><tspan
							x="0" dy="1.246em" class="st3">聖人世俗心</tspan>，應是凡夫。<v:newlineChar/><tspan x="0" dy="1.246em" class="st3">業入過去</tspan>，應無罪福。</text>			</g>
			<g id="shape231-22" v:mID="231" v:groupContext="shape" transform="translate(80.5681,-99.9849) rotate(-0.2)">
				<title>工作表.231</title>
				<desc>難過去已滅未來未生現在不住云何能知三世 答若無過未但現在佛亦不得成就無量功德。如一心中無十力</desc>
				<v:textBlock v:margins="rect(0,0,0,0)" v:tabSpace="42.5197"/>
				<v:textRect cx="152.665" cy="116.904" width="305.34" height="28.7059"/>
				<rect x="0" y="102.551" width="305.331" height="28.7059" class="st1"/>
				<text x="-0" y="113.79" class="st2" v:langID="1028"><v:paragraph/><v:tabList/>難：過去已滅，未來未生，現在不住，云何能知三世？<v:newlineChar/><tspan
							x="-0" dy="1.246em" class="st3">答</tspan>：若無過未但現在，佛亦不得成就無量功德。（如一心中無十力）</text>			</g>
			<g id="shape233-26" v:mID="233" v:groupContext="shape" transform="translate(80.5151,-76.0338) rotate(-0.2)">
				<title>工作表.233</title>
				<desc>難</desc>
				<v:textBlock v:margins="rect(0,0,0,0)"/>
				<v:textRect cx="11.038" cy="124.485" width="22.08" height="13.5449"/>
				<rect x="0" y="117.712" width="22.076" height="13.5449" class="st1"/>
				<text x="0" y="127.6" class="st2" v:langID="1028"><v:paragraph/><v:tabList/>難： </text>			</g>
			<g id="shape236-29" v:mID="236" v:groupContext="shape" transform="translate(110.751,-65.368) rotate(-0.2)">
				<title>工作表.236</title>
				<desc>過去法有應非無常。 三世皆有如人從房入房應是常。 常非無常應無罪福、縛解。</desc>
				<v:textBlock v:margins="rect(0,0,0,0)" v:tabSpace="42.5197"/>
				<v:textRect cx="80.0472" cy="112.832" width="160.1" height="36.8502"/>
				<rect x="0" y="94.4071" width="160.094" height="36.8502" class="st1"/>
				<text x="0" y="103.49" class="st2" v:langID="1028"><v:paragraph/><v:tabList/>過去法有，應非無常。<v:newlineChar/><tspan x="0"
							dy="1.246em" class="st3">三世皆有</tspan>，如人從房入房，應是常。<v:newlineChar/><tspan x="0" dy="1.246em" class="st3">常非無常</tspan>，應無罪福、縛解。</text>			</g>
			<g id="shape263-34" v:mID="263" v:groupContext="shape" transform="translate(202.808,10.8622) rotate(90)">
				<title>工作表.263</title>
				<path d="M0 124.73 C0 126.53 0 128.02 0 128.02 L44.14 128.02 C44.14 128.02 44.14 129.46 44.14 131.26 C44.14 129.46
							 44.14 128.02 44.14 128.02 L88.28 128.02 C88.28 128.02 88.28 126.53 88.28 124.73 L0 124.73 Z"
						class="st4"/>
				<path d="M0 124.73 C0 126.53 0 128.02 0 128.02 L44.14 128.02 C44.14 128.02 44.14 129.46 44.14 131.26 C44.14 129.46
							 44.14 128.02 44.14 128.02 L88.28 128.02 C88.28 128.02 88.28 126.53 88.28 124.73" class="st5"/>
			</g>
			<g id="shape264-37" v:mID="264" v:groupContext="shape" transform="translate(233.834,73.147) rotate(90)">
				<title>工作表.264</title>
				<path d="M0 124.73 C0 126.53 0 128.02 0 128.02 L25.72 128.02 C25.72 128.02 25.72 129.46 25.72 131.26 C25.72 129.46
							 25.72 128.02 25.72 128.02 L51.45 128.02 C51.45 128.02 51.45 126.53 51.45 124.73 L0 124.73 Z"
						class="st4"/>
				<path d="M0 124.73 C0 126.53 0 128.02 0 128.02 L25.72 128.02 C25.72 128.02 25.72 129.46 25.72 131.26 C25.72 129.46
							 25.72 128.02 25.72 128.02 L51.45 128.02 C51.45 128.02 51.45 126.53 51.45 124.73" class="st5"/>
			</g>
			<g id="shape265-40" v:mID="265" v:groupContext="shape" transform="translate(303.991,85.9029) rotate(90)">
				<title>工作表.265</title>
				<path d="M0 124.73 C0 126.53 0 128.02 0 128.02 L12.76 128.02 C12.76 128.02 12.76 129.46 12.76 131.26 C12.76 129.46
							 12.76 128.02 12.76 128.02 L25.51 128.02 C25.51 128.02 25.51 126.53 25.51 124.73 L0 124.73 Z"
						class="st4"/>
				<path d="M0 124.73 C0 126.53 0 128.02 0 128.02 L12.76 128.02 C12.76 128.02 12.76 129.46 12.76 131.26 C12.76 129.46
							 12.76 128.02 12.76 128.02 L25.51 128.02 C25.51 128.02 25.51 126.53 25.51 124.73" class="st5"/>
			</g>
			<g id="shape266-43" v:mID="266" v:groupContext="shape" transform="translate(233.834,33.2393) rotate(90)">
				<title>工作表.266</title>
				<path d="M0 124.73 C0 126.53 0 128.02 0 128.02 L14.43 128.02 C14.43 128.02 14.43 129.46 14.43 131.26 C14.43 129.46
							 14.43 128.02 14.43 128.02 L28.86 128.02 C28.86 128.02 28.86 126.53 28.86 124.73 L0 124.73 Z"
						class="st4"/>
				<path d="M0 124.73 C0 126.53 0 128.02 0 128.02 L14.43 128.02 C14.43 128.02 14.43 129.46 14.43 131.26 C14.43 129.46
							 14.43 128.02 14.43 128.02 L28.86 128.02 C28.86 128.02 28.86 126.53 28.86 124.73" class="st5"/>
			</g>
		</g>
	</g>
</svg>
