<?xml version="1.0" encoding="UTF-8" standalone="no"?>
<!DOCTYPE svg PUBLIC "-//W3C//DTD SVG 1.1//EN" "http://www.w3.org/Graphics/SVG/1.1/DTD/svg11.dtd">
<!-- 由 Microsoft Visio, SVG Export 產生 F01205.svg 頁-1 -->
<svg xmlns="http://www.w3.org/2000/svg" xmlns:xlink="http://www.w3.org/1999/xlink" xmlns:ev="http://www.w3.org/2001/xml-events"
		xmlns:v="http://schemas.microsoft.com/visio/2003/SVGExtensions/" width="3.13822in" height="0.751454in"
		viewBox="0 0 225.952 54.1047" xml:space="preserve" color-interpolation-filters="sRGB" class="st8">
	<v:documentProperties v:langID="1028" v:viewMarkup="false"/>

	<style type="text/css">
	<![CDATA[
		.st1 {fill:none;stroke:none;stroke-linecap:butt;stroke-width:0.75}
		.st2 {fill:#000000;font-family:Times New Roman;font-size:0.833336em}
		.st3 {fill:#000000;font-family:新細明體;font-size:0.833336em}
		.st4 {stroke:#000000;stroke-linecap:round;stroke-linejoin:round;stroke-width:0.705463}
		.st5 {fill:#000000}
		.st6 {stroke:none;stroke-linecap:butt;stroke-width:0.940618}
		.st7 {fill:none}
		.st8 {fill:none;fill-rule:evenodd;font-size:12px;overflow:visible;stroke-linecap:square;stroke-miterlimit:3}
	]]>
	</style>

	<g v:mID="0" v:index="1" v:groupContext="foregroundPage">
		<title>頁-1</title>
		<v:pageProperties v:drawingScale="0.0393701" v:pageScale="0.0393701" v:drawingUnits="24" v:shadowOffsetX="9"
				v:shadowOffsetY="-9"/>
		<g id="shape24-1" v:mID="24" v:groupContext="shape" transform="translate(66.5386,-39.4258) rotate(-0.2)">
			<title>工作表.24</title>
			<desc>------------------------------</desc>
			<v:textBlock v:margins="rect(0,0,0,0)" v:tabSpace="42.5197"/>
			<v:textRect cx="54.9686" cy="47.3322" width="109.94" height="13.5449"/>
			<rect x="0" y="40.5598" width="109.937" height="13.5449" class="st1"/>
			<text x="0" y="50.33" class="st2" v:langID="1028"><v:paragraph/><v:tabList/>------------------------------</text>		</g>
		<g id="shape23-4" v:mID="23" v:groupContext="shape" transform="translate(48.8065,-37.4035) rotate(-0.2)">
			<title>工作表.23</title>
			<desc>我</desc>
			<v:textBlock v:margins="rect(0,0,0,0)"/>
			<v:textRect cx="7.55909" cy="47.3322" width="15.12" height="13.5449"/>
			<rect x="0" y="40.5598" width="15.1182" height="13.5449" class="st1"/>
			<text x="0" y="50.45" class="st3" v:langID="1028"><v:paragraph/><v:tabList/>我 </text>		</g>
		<g id="shape25-7" v:mID="25" v:groupContext="shape" transform="translate(142.119,-20.8853) rotate(-0.2)">
			<title>工作表.25</title>
			<desc>-------</desc>
			<v:textBlock v:margins="rect(0,0,0,0)" v:tabSpace="42.5197"/>
			<v:textRect cx="14.5198" cy="47.3322" width="29.04" height="13.5449"/>
			<rect x="0" y="40.5598" width="29.0396" height="13.5449" class="st1"/>
			<text x="0" y="50.33" class="st2" v:langID="1028"><v:paragraph/><v:tabList/>-------</text>		</g>
		<g id="shape26-10" v:mID="26" v:groupContext="shape" transform="translate(0.667521,-22.1008) rotate(-0.2)">
			<title>工作表.26</title>
			<v:textBlock v:margins="rect(0,0,0,0)"/>
			<rect x="0" y="40.5598" width="79.0119" height="13.5449" class="st1"/>
		</g>
		<g id="shape27-12" v:mID="27" v:groupContext="shape" transform="translate(188.447,-31.834) rotate(-0.2)">
			<title>工作表.27</title>
			<desc>二邊</desc>
			<v:textBlock v:margins="rect(0,0,0,0)" v:tabSpace="42.5197"/>
			<v:textRect cx="11.2874" cy="47.3322" width="22.58" height="13.5449"/>
			<rect x="0" y="40.5598" width="22.5748" height="13.5449" class="st1"/>
			<text x="-0" y="50.45" class="st3" v:langID="1028"><v:paragraph/><v:tabList/>二邊</text>		</g>
		<g id="shape28-15" v:mID="28" v:groupContext="shape" transform="translate(0.60842,-22.6655) rotate(-0.2)">
			<title>工作表.28</title>
			<desc>我無我</desc>
			<v:textBlock v:margins="rect(0,0,0,0)"/>
			<v:textRect cx="18.3404" cy="47.3322" width="36.69" height="13.5449"/>
			<rect x="0" y="40.5598" width="36.6809" height="13.5449" class="st1"/>
			<text x="-0" y="50.45" class="st3" v:langID="1028"><v:paragraph/><v:tabList/>我無我         </text>		</g>
		<g id="shape29-18" v:mID="29" v:groupContext="shape" transform="translate(89.735,-20.7133) rotate(-0.2)">
			<title>工作表.29</title>
			<desc>取著無我相</desc>
			<v:textBlock v:margins="rect(0,0,0,0)" v:tabSpace="42.5197"/>
			<v:textRect cx="28.2185" cy="47.3322" width="56.44" height="13.5449"/>
			<rect x="0" y="40.5598" width="56.4371" height="13.5449" class="st1"/>
			<text x="0" y="50.45" class="st3" v:langID="1028"><v:paragraph/><v:tabList/>取著無我相</text>		</g>
		<g id="shape31-21" v:mID="31" v:groupContext="shape" transform="translate(48.335,-9.61448) rotate(-0.2)">
			<title>工作表.31</title>
			<desc>無我</desc>
			<v:textBlock v:margins="rect(0,0,0,0)"/>
			<v:textRect cx="11.6756" cy="47.3322" width="23.36" height="13.5449"/>
			<rect x="0" y="40.5598" width="23.3513" height="13.5449" class="st1"/>
			<text x="-0" y="50.45" class="st3" v:langID="1028"><v:paragraph/><v:tabList/>無我</text>		</g>
		<g id="shape33-24" v:mID="33" v:groupContext="shape" transform="translate(89.5647,-0.74967) rotate(-0.2)">
			<title>工作表.33</title>
			<desc>不取著無我此無我是中道</desc>
			<v:textBlock v:margins="rect(0,0,0,0)" v:tabSpace="42.5197"/>
			<v:textRect cx="67.7245" cy="47.3322" width="135.45" height="13.5449"/>
			<rect x="0" y="40.5598" width="135.449" height="13.5449" class="st1"/>
			<text x="-0" y="50.45" class="st3" v:langID="1028"><v:paragraph/><v:tabList/>不取著無我，此無我是中道</text>		</g>
		<g id="shape45-27" v:mID="45" v:groupContext="shape" transform="translate(127.064,26.6397) rotate(90)">
			<title>工作表.45</title>
			<path d="M0 54.1 L19.71 54.1" class="st4"/>
		</g>
		<g id="shape46-30" v:mID="46" v:groupContext="shape" transform="translate(72.7702,-27.4646) rotate(-0.2)">
			<title>工作表.46</title>
			<path d="M0 54.1 L16.93 54.1" class="st4"/>
		</g>
		<g id="shape47-33" v:mID="47" v:groupContext="shape" transform="translate(72.6,-7.50104) rotate(-0.2)">
			<title>工作表.47</title>
			<path d="M0 54.1 L16.93 54.1" class="st4"/>
		</g>
		<g id="shape48-36" v:mID="48" v:groupContext="shape" transform="translate(219.972,8.45865) rotate(89.8)">
			<title>工作表.48</title>
			<path d="M7.82 38.79 L6.12 38.98 L8.68 37.11 L8.68 40.24 L7.82 38.79 ZM6.69 40.71 L7.16 39.77 L7.26 39.68 L7.4 39.73
						 L7.49 39.82 L7.49 39.96 L7.02 40.89 L6.92 40.99 L6.83 40.94 L6.73 40.85 L6.73 40.71 L6.69 40.71 ZM5.55 42.85
						 L6.02 41.92 L6.12 41.83 L6.26 41.83 L6.35 41.92 L6.35 42.06 L5.88 42.99 L5.79 43.09 L5.69 43.09 L5.6 42.99
						 L5.55 42.85 ZM4.46 45.05 L4.93 44.11 L5.03 44.02 L5.17 44.02 L5.26 44.11 L5.26 44.25 L4.79 45.19 L4.69 45.28
						 L4.55 45.28 L4.46 45.19 L4.46 45.05 ZM3.32 47.29 L3.79 46.36 L3.89 46.26 L4.03 46.26 L4.13 46.36 L4.08 46.5
						 L3.6 47.43 L3.51 47.52 L3.37 47.52 L3.27 47.43 L3.27 47.29 L3.32 47.29 ZM2.23 49.44 L2.7 48.5 L2.8 48.41
						 L2.89 48.46 L2.99 48.55 L2.94 48.69 L2.47 49.62 L2.37 49.72 L2.23 49.67 L2.13 49.58 L2.13 49.44 L2.23 49.44
						 ZM1.09 51.63 L1.56 50.7 L1.66 50.6 L1.75 50.6 L1.85 50.7 L1.85 50.84 L1.38 51.77 L1.28 51.86 L1.14 51.86
						 L1.04 51.77 L1.04 51.63 L1.09 51.63 ZM0 53.87 L0.47 52.94 L0.57 52.84 L0.71 52.84 L0.81 52.94 L0.81 53.08
						 L0.33 54.01 L0.24 54.1 L0.09 54.1 L0 54.01 L0 53.87 Z" class="st5"/>
			<path d="M7.82 38.79 L6.12 38.98 L8.68 37.11 L8.68 40.24M6.69 40.71 L7.16 39.77 L7.26 39.68 L7.4 39.73 L7.49 39.82 L7.49
						 39.96 L7.02 40.89 L6.92 40.99 L6.83 40.94 L6.73 40.85 L6.73 40.71 L6.69 40.71M5.55 42.85 L6.02 41.92 L6.12
						 41.83 L6.26 41.83 L6.35 41.92 L6.35 42.06 L5.88 42.99 L5.79 43.09 L5.69 43.09 L5.6 42.99 L5.55 42.85M4.46
						 45.05 L4.93 44.11 L5.03 44.02 L5.17 44.02 L5.26 44.11 L5.26 44.25 L4.79 45.19 L4.69 45.28 L4.55 45.28 L4.46
						 45.19 L4.46 45.05M3.32 47.29 L3.79 46.36 L3.89 46.26 L4.03 46.26 L4.13 46.36 L4.08 46.5 L3.6 47.43 L3.51
						 47.52 L3.37 47.52 L3.27 47.43 L3.27 47.29 L3.32 47.29M2.23 49.44 L2.7 48.5 L2.8 48.41 L2.89 48.46 L2.99
						 48.55 L2.94 48.69 L2.47 49.62 L2.37 49.72 L2.23 49.67 L2.13 49.58 L2.13 49.44 L2.23 49.44M1.09 51.63 L1.56
						 50.7 L1.66 50.6 L1.75 50.6 L1.85 50.7 L1.85 50.84 L1.38 51.77 L1.28 51.86 L1.14 51.86 L1.04 51.77 L1.04
						 51.63 L1.09 51.63M0 53.87 L0.47 52.94 L0.57 52.84 L0.71 52.84 L0.81 52.94 L0.81 53.08 L0.33 54.01 L0.24
						 54.1 L0.09 54.1 L0 54.01 L0 53.87" class="st6"/>
		</g>
		<g id="shape49-39" v:mID="49" v:groupContext="shape" transform="translate(219.939,16.5249) rotate(89.8)">
			<title>工作表.49</title>
			<path d="M0.95 38.63 L0.05 40.13 L0 36.9 L2.84 38.82 L0.95 38.63 ZM1.73 40.46 L1.21 39.5 L1.21 39.35 L1.31 39.26 L1.47
						 39.26 L1.58 39.35 L2.1 40.32 L2.15 40.46 L2.05 40.56 L1.89 40.56 L1.73 40.46 ZM2.99 42.68 L2.47 41.72 L2.47
						 41.57 L2.57 41.48 L2.73 41.48 L2.84 41.57 L3.36 42.54 L3.41 42.68 L3.31 42.78 L3.15 42.78 L2.99 42.68 ZM4.26
						 44.95 L3.73 43.98 L3.73 43.84 L3.83 43.74 L3.94 43.74 L4.04 43.84 L4.57 44.8 L4.57 44.95 L4.47 45.04 L4.36
						 45.04 L4.26 44.95 ZM5.52 47.21 L4.99 46.25 L4.94 46.1 L5.04 46.01 L5.2 46.01 L5.31 46.1 L5.83 47.07 L5.83
						 47.21 L5.73 47.31 L5.57 47.31 L5.52 47.21 ZM6.78 49.48 L6.2 48.51 L6.2 48.42 L6.3 48.32 L6.46 48.32 L6.57
						 48.42 L7.09 49.38 L7.09 49.53 L6.99 49.62 L6.83 49.62 L6.78 49.48 ZM8.04 51.74 L7.51 50.78 L7.51 50.68 L7.62
						 50.59 L7.77 50.59 L7.88 50.68 L8.41 51.65 L8.46 51.79 L8.35 51.89 L8.19 51.94 L8.04 51.74 ZM9.3 53.96 L8.77
						 53 L8.77 52.85 L8.88 52.75 L9.04 52.75 L9.14 52.85 L9.67 53.82 L9.72 53.96 L9.61 54.06 L9.46 54.1 L9.3 53.96
						 Z" class="st5"/>
			<path d="M0.95 38.63 L0.05 40.13 L0 36.9 L2.84 38.82M1.73 40.46 L1.21 39.5 L1.21 39.35 L1.31 39.26 L1.47 39.26 L1.58
						 39.35 L2.1 40.32 L2.15 40.46 L2.05 40.56 L1.89 40.56 L1.73 40.46M2.99 42.68 L2.47 41.72 L2.47 41.57 L2.57
						 41.48 L2.73 41.48 L2.84 41.57 L3.36 42.54 L3.41 42.68 L3.31 42.78 L3.15 42.78 L2.99 42.68M4.26 44.95 L3.73
						 43.98 L3.73 43.84 L3.83 43.74 L3.94 43.74 L4.04 43.84 L4.57 44.8 L4.57 44.95 L4.47 45.04 L4.36 45.04 L4.26
						 44.95M5.52 47.21 L4.99 46.25 L4.94 46.1 L5.04 46.01 L5.2 46.01 L5.31 46.1 L5.83 47.07 L5.83 47.21 L5.73
						 47.31 L5.57 47.31 L5.52 47.21M6.78 49.48 L6.2 48.51 L6.2 48.42 L6.3 48.32 L6.46 48.32 L6.57 48.42 L7.09
						 49.38 L7.09 49.53 L6.99 49.62 L6.83 49.62 L6.78 49.48M8.04 51.74 L7.51 50.78 L7.51 50.68 L7.62 50.59 L7.77
						 50.59 L7.88 50.68 L8.41 51.65 L8.46 51.79 L8.35 51.89 L8.19 51.94 L8.04 51.74M9.3 53.96 L8.77 53 L8.77 52.85
						 L8.88 52.75 L9.04 52.75 L9.14 52.85 L9.67 53.82 L9.72 53.96 L9.61 54.06 L9.46 54.1 L9.3 53.96" class="st6"/>
		</g>
		<g id="shape51-42" v:mID="51" v:groupContext="shape" transform="translate(90.8861,3.39201) rotate(89.8)">
			<title>工作表.51</title>
			<path d="M0 45.64 C0 47.99 1.57 49.87 3.54 49.87 L18.43 49.87 C20.35 49.87 21.97 51.75 21.97 54.1 C21.97 51.75 23.54
						 49.87 25.51 49.87 L38.98 49.87 C40.91 49.87 42.52 47.99 42.52 45.64 L0 45.64 Z" class="st7"/>
			<path d="M0 45.64 C0 47.99 1.57 49.87 3.54 49.87 L18.43 49.87 C20.35 49.87 21.97 51.75 21.97 54.1 C21.97 51.75 23.54
						 49.87 25.51 49.87 L38.98 49.87 C40.91 49.87 42.52 47.99 42.52 45.64" class="st4"/>
		</g>
	</g>
</svg>
