<?xml version="1.0" encoding="UTF-8" standalone="no"?>
<!DOCTYPE svg PUBLIC "-//W3C//DTD SVG 1.1//EN" "http://www.w3.org/Graphics/SVG/1.1/DTD/svg11.dtd">
<!-- 由 Microsoft Visio, SVG Export 產生 M026.187.svg 頁-1 -->
<svg xmlns="http://www.w3.org/2000/svg" xmlns:xlink="http://www.w3.org/1999/xlink" xmlns:ev="http://www.w3.org/2001/xml-events"
		width="3.76818in" height="0.695278in" viewBox="0 0 271.309 50.06" xml:space="preserve" color-interpolation-filters="sRGB"
		class="st7">
	<style type="text/css">
	<![CDATA[
		.st1 {fill:none;stroke:none;stroke-linecap:butt;stroke-width:0.749999}
		.st2 {fill:#000000;font-family:新細明體;font-size:0.833336em}
		.st3 {fill:none;stroke:none;stroke-width:0.999999}
		.st4 {fill:none}
		.st5 {stroke:#040000;stroke-linecap:round;stroke-linejoin:round;stroke-width:0.705462}
		.st6 {fill:none;stroke:none;stroke-linecap:round;stroke-linejoin:round;stroke-width:0.75}
		.st7 {fill:none;fill-rule:evenodd;font-size:12px;overflow:visible;stroke-linecap:square;stroke-miterlimit:3}
	]]>
	</style>

	<g>
		<title>頁-1</title>
		<g id="group10-1" transform="translate(0.749999,-0.749999)">
			<title>工作表.10</title>
			<g id="shape1-2" transform="translate(55.0601,-31.852)">
				<title>工作表.1</title>
				<desc>說無我示眾生空說無有我所法示法空。</desc>
				<rect x="0" y="36.5152" width="182.058" height="13.5449" class="st1"/>
				<text x="-0" y="46.29" class="st2">說無我示眾生空，說無有我所法示法空。</text>			</g>
			<g id="shape2-5" transform="translate(-1.59872E-14,-16.3796)">
				<title>工作表.2</title>
				<desc>無我與空</desc>
				<rect x="0" y="36.5152" width="45.1495" height="13.5449" class="st1"/>
				<text x="-0" y="46.29" class="st2">無我與空</text>			</g>
			<g id="shape3-8" transform="translate(55.0597,7.10543E-15)">
				<title>工作表.3</title>
				<desc>無法方便說言無我了了說言一切法空。</desc>
				<rect x="0" y="36.5152" width="203.173" height="13.5449" class="st1"/>
				<text x="-0" y="46.29" class="st2">方便說言無我，了了說言一切法空。</text>			</g>
			<g id="group4-11" transform="translate(91.7025,10.7199) rotate(90)">
				<title>工作表.12</title>
				<g id="shape5-12">
					<title>工作表.5</title>
					<path d="M0 38.77 C0 41.97 1.22 44.41 2.74 44.41 L13.7 44.41 C15.22 44.41 16.44 46.95 16.44 50.06 C16.44 46.95
								 17.66 44.41 19.18 44.41 L30.14 44.41 C31.66 44.41 32.88 41.97 32.88 38.77 L0 38.77 Z" class="st3"/>
				</g>
				<g id="shape6-14">
					<title>工作表.6</title>
					<path d="M0 38.77 C0 41.97 1.22 44.41 2.74 44.41 L13.7 44.41 C15.22 44.41 16.44 46.95 16.44 50.06 C16.44 46.95
								 17.66 44.41 19.18 44.41 L30.14 44.41 C31.66 44.41 32.88 41.97 32.88 38.77 L0 38.77 Z" class="st4"/>
					<path d="M0 38.77 C0 41.97 1.22 44.41 2.74 44.41 L13.7 44.41 C15.22 44.41 16.44 46.95 16.44 50.06 C16.44 46.95
								 17.66 44.41 19.18 44.41 L30.14 44.41 C31.66 44.41 32.88 41.97 32.88 38.77" class="st5"/>
				</g>
			</g>
			<g id="shape7-17" transform="translate(55.0601,-15.926)">
				<title>工作表.14</title>
				<desc>不大利根眾生為說無我利根眾生為說皆空。</desc>
				<rect x="0" y="36.5152" width="214.749" height="13.5449" class="st1"/>
				<text x="-0" y="46.29" class="st2">不大利根眾生，為說無我；利根眾生為說皆空。</text>			</g>
			<g id="shape8-20" transform="translate(6.33646,-28.935)">
				<title>工作表.8</title>
				<desc>無法</desc>
				<rect x="0" y="30.06" width="48.189" height="20" class="st6"/>
				<text x="4.09" y="43.66" class="st2">（無法）</text>			</g>
		</g>
	</g>
</svg>
