<?xml version="1.0" encoding="UTF-8" standalone="no"?>
<!DOCTYPE svg PUBLIC "-//W3C//DTD SVG 1.1//EN" "http://www.w3.org/Graphics/SVG/1.1/DTD/svg11.dtd">
<!-- 由 Microsoft Visio, SVG Export 產生 F01201.svg 頁-1 -->
<svg xmlns="http://www.w3.org/2000/svg" xmlns:xlink="http://www.w3.org/1999/xlink" xmlns:ev="http://www.w3.org/2001/xml-events"
		xmlns:v="http://schemas.microsoft.com/visio/2003/SVGExtensions/" width="2.37261in" height="1.63093in"
		viewBox="0 0 170.828 117.427" xml:space="preserve" color-interpolation-filters="sRGB" class="st6">
	<v:documentProperties v:langID="1028" v:viewMarkup="false"/>

	<style type="text/css">
	<![CDATA[
		.st1 {fill:none;stroke:none;stroke-linecap:butt;stroke-width:0.75}
		.st2 {fill:#000000;font-family:Times New Roman;font-size:0.833336em}
		.st3 {fill:#000000;font-family:新細明體;font-size:0.833336em}
		.st4 {fill:none}
		.st5 {stroke:#000000;stroke-linecap:round;stroke-linejoin:round;stroke-width:0.705463}
		.st6 {fill:none;fill-rule:evenodd;font-size:12px;overflow:visible;stroke-linecap:square;stroke-miterlimit:3}
	]]>
	</style>

	<g v:mID="0" v:index="1" v:groupContext="foregroundPage">
		<title>頁-1</title>
		<v:pageProperties v:drawingScale="0.0393701" v:pageScale="0.0393701" v:drawingUnits="24" v:shadowOffsetX="9"
				v:shadowOffsetY="-9"/>
		<g id="shape63-1" v:mID="63" v:groupContext="shape" transform="translate(61.8471,-102.797) rotate(-0.2)">
			<title>工作表.63</title>
			<desc>1</desc>
			<v:textBlock v:margins="rect(0,0,0,0)" v:tabSpace="42.5197"/>
			<v:textRect cx="5.64371" cy="110.655" width="11.29" height="13.5449"/>
			<rect x="0" y="103.882" width="11.2874" height="13.5449" class="st1"/>
			<text x="0" y="113.65" class="st2" v:langID="1028"><v:paragraph/><v:tabList/>1</text>		</g>
		<g id="shape64-4" v:mID="64" v:groupContext="shape" transform="translate(67.4907,-102.816) rotate(-0.2)">
			<title>工作表.64</title>
			<desc>、定乃能見實事故</desc>
			<v:textBlock v:margins="rect(0,0,0,0)" v:tabSpace="42.5197"/>
			<v:textRect cx="45.1496" cy="110.655" width="90.3" height="13.5449"/>
			<rect x="0" y="103.882" width="90.2993" height="13.5449" class="st1"/>
			<text x="0" y="113.77" class="st3" v:langID="1028"><v:paragraph/><v:tabList/>、定乃能見實事故</text>		</g>
		<g id="shape74-7" v:mID="74" v:groupContext="shape" transform="translate(163.943,8.58008) rotate(89.8)">
			<title>工作表.74</title>
			<path d="M0 108.96 C0 111.31 3.76 113.19 8.47 113.19 L42.61 113.19 C47.22 113.19 51.08 115.08 51.08 117.43 C51.08 115.08
						 54.84 113.19 59.54 113.19 L93.12 113.19 C97.73 113.19 101.59 111.31 101.59 108.96 L0 108.96 Z" class="st4"/>
			<path d="M0 108.96 C0 111.31 3.76 113.19 8.47 113.19 L42.61 113.19 C47.22 113.19 51.08 115.08 51.08 117.43 C51.08 115.08
						 54.84 113.19 59.54 113.19 L93.12 113.19 C97.73 113.19 101.59 111.31 101.59 108.96" class="st5"/>
		</g>
		<g id="shape174-10" v:mID="174" v:groupContext="shape" transform="translate(62.2016,-85.4044) rotate(-0.2)">
			<title>工作表.174</title>
			<desc>2</desc>
			<v:textBlock v:margins="rect(0,0,0,0)" v:tabSpace="42.5197"/>
			<v:textRect cx="5.64371" cy="110.655" width="11.29" height="13.5449"/>
			<rect x="0" y="103.882" width="11.2874" height="13.5449" class="st1"/>
			<text x="0" y="113.65" class="st2" v:langID="1028"><v:paragraph/><v:tabList/>2</text>		</g>
		<g id="shape175-13" v:mID="175" v:groupContext="shape" transform="translate(67.8452,-85.4241) rotate(-0.2)">
			<title>工作表.175</title>
			<desc>、於實相中定不退故</desc>
			<v:textBlock v:margins="rect(0,0,0,0)" v:tabSpace="42.5197"/>
			<v:textRect cx="50.7933" cy="110.655" width="101.59" height="13.5449"/>
			<rect x="0" y="103.882" width="101.587" height="13.5449" class="st1"/>
			<text x="0" y="113.77" class="st3" v:langID="1028"><v:paragraph/><v:tabList/>、於實相中定不退故</text>		</g>
		<g id="shape177-16" v:mID="177" v:groupContext="shape" transform="translate(62.2607,-68.4733) rotate(-0.2)">
			<title>工作表.177</title>
			<desc>3</desc>
			<v:textBlock v:margins="rect(0,0,0,0)" v:tabSpace="42.5197"/>
			<v:textRect cx="5.64371" cy="110.655" width="11.29" height="13.5449"/>
			<rect x="0" y="103.882" width="11.2874" height="13.5449" class="st1"/>
			<text x="-0" y="113.65" class="st2" v:langID="1028"><v:paragraph/><v:tabList/>3</text>		</g>
		<g id="shape178-19" v:mID="178" v:groupContext="shape" transform="translate(67.9043,-68.493) rotate(-0.2)">
			<title>工作表.178</title>
			<desc>、出定住欲界定故</desc>
			<v:textBlock v:margins="rect(0,0,0,0)" v:tabSpace="42.5197"/>
			<v:textRect cx="45.1496" cy="110.655" width="90.3" height="13.5449"/>
			<rect x="0" y="103.882" width="90.2993" height="13.5449" class="st1"/>
			<text x="0" y="113.77" class="st3" v:langID="1028"><v:paragraph/><v:tabList/>、出定住欲界定故</text>		</g>
		<g id="shape179-22" v:mID="179" v:groupContext="shape" transform="translate(0.387384,-49.8322) rotate(-0.2)">
			<title>工作表.179</title>
			<desc>佛無不定</desc>
			<v:textBlock v:margins="rect(0,0,0,0)" v:tabSpace="42.5197"/>
			<v:textRect cx="22.5748" cy="110.655" width="45.15" height="13.5449"/>
			<rect x="0" y="103.882" width="45.1496" height="13.5449" class="st1"/>
			<text x="-0" y="113.77" class="st3" v:langID="1028"><v:paragraph/><v:tabList/>佛無不定</text>		</g>
		<g id="shape181-25" v:mID="181" v:groupContext="shape" transform="translate(62.3198,-51.5423) rotate(-0.2)">
			<title>工作表.181</title>
			<desc>4</desc>
			<v:textBlock v:margins="rect(0,0,0,0)" v:tabSpace="42.5197"/>
			<v:textRect cx="5.64371" cy="110.655" width="11.29" height="13.5449"/>
			<rect x="0" y="103.882" width="11.2874" height="13.5449" class="st1"/>
			<text x="-0" y="113.65" class="st2" v:langID="1028"><v:paragraph/><v:tabList/>4</text>		</g>
		<g id="shape182-28" v:mID="182" v:groupContext="shape" transform="translate(67.9634,-51.562) rotate(-0.2)">
			<title>工作表.182</title>
			<desc>、一切法中常不疑故</desc>
			<v:textBlock v:margins="rect(0,0,0,0)" v:tabSpace="42.5197"/>
			<v:textRect cx="50.7933" cy="110.655" width="101.59" height="13.5449"/>
			<rect x="0" y="103.882" width="101.587" height="13.5449" class="st1"/>
			<text x="0" y="113.77" class="st3" v:langID="1028"><v:paragraph/><v:tabList/>、一切法中常不疑故</text>		</g>
		<g id="shape184-31" v:mID="184" v:groupContext="shape" transform="translate(62.3789,-34.6113) rotate(-0.2)">
			<title>工作表.184</title>
			<desc>5</desc>
			<v:textBlock v:margins="rect(0,0,0,0)" v:tabSpace="42.5197"/>
			<v:textRect cx="5.64371" cy="110.655" width="11.29" height="13.5449"/>
			<rect x="0" y="103.882" width="11.2874" height="13.5449" class="st1"/>
			<text x="0" y="113.65" class="st2" v:langID="1028"><v:paragraph/><v:tabList/>5</text>		</g>
		<g id="shape185-34" v:mID="185" v:groupContext="shape" transform="translate(68.0225,-34.631) rotate(-0.2)">
			<title>工作表.185</title>
			<desc>、智滿故</desc>
			<v:textBlock v:margins="rect(0,0,0,0)" v:tabSpace="42.5197"/>
			<v:textRect cx="22.5748" cy="110.655" width="45.15" height="13.5449"/>
			<rect x="0" y="103.882" width="45.1496" height="13.5449" class="st1"/>
			<text x="0" y="113.77" class="st3" v:langID="1028"><v:paragraph/><v:tabList/>、智滿故</text>		</g>
		<g id="shape187-37" v:mID="187" v:groupContext="shape" transform="translate(62.438,-17.6803) rotate(-0.2)">
			<title>工作表.187</title>
			<desc>6</desc>
			<v:textBlock v:margins="rect(0,0,0,0)" v:tabSpace="42.5197"/>
			<v:textRect cx="5.64371" cy="110.655" width="11.29" height="13.5449"/>
			<rect x="0" y="103.882" width="11.2874" height="13.5449" class="st1"/>
			<text x="0" y="113.65" class="st2" v:langID="1028"><v:paragraph/><v:tabList/>6</text>		</g>
		<g id="shape188-40" v:mID="188" v:groupContext="shape" transform="translate(68.0816,-17.7) rotate(-0.2)">
			<title>工作表.188</title>
			<desc>、於實相中無不定故</desc>
			<v:textBlock v:margins="rect(0,0,0,0)" v:tabSpace="42.5197"/>
			<v:textRect cx="50.7933" cy="110.655" width="101.59" height="13.5449"/>
			<rect x="0" y="103.882" width="101.587" height="13.5449" class="st1"/>
			<text x="-0" y="113.77" class="st3" v:langID="1028"><v:paragraph/><v:tabList/>、於實相中無不定故</text>		</g>
		<g id="shape190-43" v:mID="190" v:groupContext="shape" transform="translate(62.4971,-0.749285) rotate(-0.2)">
			<title>工作表.190</title>
			<desc>7</desc>
			<v:textBlock v:margins="rect(0,0,0,0)" v:tabSpace="42.5197"/>
			<v:textRect cx="5.64371" cy="110.655" width="11.29" height="13.5449"/>
			<rect x="0" y="103.882" width="11.2874" height="13.5449" class="st1"/>
			<text x="0" y="113.65" class="st2" v:langID="1028"><v:paragraph/><v:tabList/>7</text>		</g>
		<g id="shape191-46" v:mID="191" v:groupContext="shape" transform="translate(68.1407,-0.768985) rotate(-0.2)">
			<title>工作表.191</title>
			<desc>、佛最不可思議故</desc>
			<v:textBlock v:margins="rect(0,0,0,0)" v:tabSpace="42.5197"/>
			<v:textRect cx="45.1496" cy="110.655" width="90.3" height="13.5449"/>
			<rect x="0" y="103.882" width="90.2993" height="13.5449" class="st1"/>
			<text x="-0" y="113.77" class="st3" v:langID="1028"><v:paragraph/><v:tabList/>、佛最不可思議故</text>		</g>
	</g>
</svg>
