<?xml version="1.0" encoding="UTF-8" standalone="no"?>
<!DOCTYPE svg PUBLIC "-//W3C//DTD SVG 1.1//EN" "http://www.w3.org/Graphics/SVG/1.1/DTD/svg11.dtd">
<!-- 由 Microsoft Visio, SVG Export 產生 A01001.svg 頁-1 -->
<svg xmlns="http://www.w3.org/2000/svg" xmlns:xlink="http://www.w3.org/1999/xlink" xmlns:ev="http://www.w3.org/2001/xml-events"
		xmlns:v="http://schemas.microsoft.com/visio/2003/SVGExtensions/" width="2.17241in" height="0.626706in"
		viewBox="0 0 156.413 45.1228" xml:space="preserve" color-interpolation-filters="sRGB" class="st5">
	<v:documentProperties v:langID="1028" v:viewMarkup="false"/>

	<style type="text/css">
	<![CDATA[
		.st1 {fill:none;stroke:none;stroke-linecap:butt;stroke-width:0.75}
		.st2 {fill:#000000;font-family:新細明體;font-size:0.833336em}
		.st3 {fill:none}
		.st4 {stroke:#040000;stroke-linecap:round;stroke-linejoin:round;stroke-width:0.705463}
		.st5 {fill:none;fill-rule:evenodd;font-size:12px;overflow:visible;stroke-linecap:square;stroke-miterlimit:3}
	]]>
	</style>

	<g v:mID="0" v:index="1" v:groupContext="foregroundPage">
		<title>頁-1</title>
		<v:pageProperties v:drawingScale="0.0393701" v:pageScale="0.0393701" v:drawingUnits="24" v:shadowOffsetX="9"
				v:shadowOffsetY="-9"/>
		<g id="shape1-1" v:mID="1" v:groupContext="shape" transform="translate(74.0409,-30.8279)">
			<title>工作表.1</title>
			<desc>自于所行亦辦故</desc>
			<v:textBlock v:margins="rect(0,0,0,0)" v:tabSpace="42.5197"/>
			<v:textRect cx="36.5593" cy="38.3504" width="73.12" height="13.5449"/>
			<rect x="0" y="31.5779" width="73.1185" height="13.5449" class="st1"/>
			<text x="-0" y="41.46" class="st2" v:langID="1028"><v:paragraph/><v:tabList/>自于所行亦辦故</text>		</g>
		<g id="shape2-4" v:mID="2" v:groupContext="shape" transform="translate(0.75,-16.0264)">
			<title>工作表.2</title>
			<desc>小乘不名道智</desc>
			<v:textBlock v:margins="rect(0,0,0,0)" v:tabSpace="42.5197"/>
			<v:textRect cx="31.0522" cy="38.3504" width="62.11" height="13.5449"/>
			<rect x="0" y="31.5779" width="62.1043" height="13.5449" class="st1"/>
			<text x="0" y="41.46" class="st2" v:langID="1028"><v:paragraph/><v:tabList/>小乘不名道智</text>		</g>
		<g id="shape3-7" v:mID="3" v:groupContext="shape" transform="translate(74.0423,-0.75)">
			<title>工作表.3</title>
			<desc>但自行不示他行故</desc>
			<v:textBlock v:margins="rect(0,0,0,0)" v:tabSpace="42.5197"/>
			<v:textRect cx="40.8106" cy="38.3504" width="81.63" height="13.5449"/>
			<rect x="0" y="31.5779" width="81.6211" height="13.5449" class="st1"/>
			<text x="-0" y="41.46" class="st2" v:langID="1028"><v:paragraph/><v:tabList/>但自行不示他行故</text>		</g>
		<g id="shape10-10" v:mID="10" v:groupContext="shape" transform="translate(106.901,6.41929) rotate(90)">
			<title>工作表.10</title>
			<path d="M0 34.52 C0 37.42 1.16 39.86 2.61 39.86 L13.01 39.86 C14.46 39.86 15.56 42.22 15.56 45.12 C15.56 42.22 16.72
						 39.86 18.17 39.86 L28.57 39.86 C30.02 39.86 31.18 37.42 31.18 34.52 L0 34.52 Z" class="st3"/>
			<path d="M0 34.52 C0 37.42 1.16 39.86 2.61 39.86 L13.01 39.86 C14.46 39.86 15.56 42.22 15.56 45.12 C15.56 42.22 16.72
						 39.86 18.17 39.86 L28.57 39.86 C30.02 39.86 31.18 37.42 31.18 34.52" class="st4"/>
		</g>
		<g id="shape11-13" v:mID="11" v:groupContext="shape" transform="translate(74.0409,-15.789)">
			<title>工作表.11</title>
			<desc>道小故</desc>
			<v:textBlock v:margins="rect(0,0,0,0)" v:tabSpace="42.5197"/>
			<v:textRect cx="16.9311" cy="38.3504" width="33.87" height="13.5449"/>
			<rect x="0" y="31.5779" width="33.8622" height="13.5449" class="st1"/>
			<text x="-0" y="41.46" class="st2" v:langID="1028"><v:paragraph/><v:tabList/>道小故</text>		</g>
	</g>
</svg>
