<?xml version="1.0" encoding="UTF-8" standalone="no"?>
<!DOCTYPE svg PUBLIC "-//W3C//DTD SVG 1.1//EN" "http://www.w3.org/Graphics/SVG/1.1/DTD/svg11.dtd">
<!-- 由 Microsoft Visio, SVG Export 產生 A01004.svg 頁-1 -->
<svg xmlns="http://www.w3.org/2000/svg" xmlns:xlink="http://www.w3.org/1999/xlink" xmlns:ev="http://www.w3.org/2001/xml-events"
		xmlns:v="http://schemas.microsoft.com/visio/2003/SVGExtensions/" width="4.95824in" height="1.19321in"
		viewBox="0 0 356.993 85.911" xml:space="preserve" color-interpolation-filters="sRGB" class="st7">
	<v:documentProperties v:langID="1028" v:viewMarkup="false"/>

	<style type="text/css">
	<![CDATA[
		.st1 {fill:none;stroke:none;stroke-linecap:butt;stroke-width:0.75}
		.st2 {fill:#000000;font-family:新細明體;font-size:0.833336em}
		.st3 {font-family:Times New Roman;font-size:1em}
		.st4 {fill:none}
		.st5 {stroke:#040000;stroke-linecap:round;stroke-linejoin:round;stroke-width:0.705463}
		.st6 {stroke:#000000;stroke-linecap:round;stroke-linejoin:round;stroke-width:0.75}
		.st7 {fill:none;fill-rule:evenodd;font-size:12px;overflow:visible;stroke-linecap:square;stroke-miterlimit:3}
	]]>
	</style>

	<g v:mID="0" v:index="1" v:groupContext="foregroundPage">
		<title>頁-1</title>
		<v:pageProperties v:drawingScale="0.0393701" v:pageScale="0.0393701" v:drawingUnits="24" v:shadowOffsetX="9"
				v:shadowOffsetY="-9"/>
		<g id="shape1-1" v:mID="1" v:groupContext="shape" transform="translate(97.569,-71.6161)">
			<title>工作表.1</title>
			<desc>小乘人言——至於道樹始斷煩惱及習</desc>
			<v:textBlock v:margins="rect(0,0,0,0)" v:tabSpace="42.5197"/>
			<v:textRect cx="120.399" cy="79.1386" width="240.8" height="13.5449"/>
			<rect x="0" y="72.3661" width="240.798" height="13.5449" class="st1"/>
			<text x="0" y="82.25" class="st2" v:langID="1028"><v:paragraph/><v:tabList/>小乘人言<tspan class="st3">——</tspan>至於道樹，始斷煩惱及習</text>		</g>
		<g id="shape2-5" v:mID="2" v:groupContext="shape" transform="translate(64.9706,-62.392)">
			<title>工作表.2</title>
			<desc>異說</desc>
			<v:textBlock v:margins="rect(0,0,0,0)" v:tabSpace="42.5197"/>
			<v:textRect cx="11.2874" cy="79.1386" width="22.58" height="13.5449"/>
			<rect x="0" y="72.3661" width="22.5748" height="13.5449" class="st1"/>
			<text x="-0" y="82.25" class="st2" v:langID="1028"><v:paragraph/><v:tabList/>異說</text>		</g>
		<g id="shape3-8" v:mID="3" v:groupContext="shape" transform="translate(96.6326,-53.8996)">
			<title>工作表.3</title>
			<desc>大乘人言——久已離欲得無生忍煩惱及習俱盡</desc>
			<v:textBlock v:margins="rect(0,0,0,0)" v:tabSpace="42.5197"/>
			<v:textRect cx="129.805" cy="79.1386" width="259.62" height="13.5449"/>
			<rect x="0" y="72.3661" width="259.61" height="13.5449" class="st1"/>
			<text x="0" y="82.25" class="st2" v:langID="1028"><v:paragraph/><v:tabList/>大乘人言<tspan class="st3">——</tspan>久已離欲，得無生忍，煩惱及習俱盡</text>		</g>
		<g id="shape4-12" v:mID="4" v:groupContext="shape" transform="translate(0.75,-39.472)">
			<title>工作表.4</title>
			<desc>斷煩惱及習</desc>
			<v:textBlock v:margins="rect(0,0,0,0)" v:tabSpace="42.5197"/>
			<v:textRect cx="28.2185" cy="79.1386" width="56.44" height="13.5449"/>
			<rect x="0" y="72.3661" width="56.4371" height="13.5449" class="st1"/>
			<text x="0" y="82.25" class="st2" v:langID="1028"><v:paragraph/><v:tabList/>斷煩惱及習</text>		</g>
		<g id="shape5-15" v:mID="5" v:groupContext="shape" transform="translate(40.195,-39.472)">
			<title>工作表.5</title>
			<v:textBlock v:margins="rect(0,0,0,0)" v:tabSpace="42.5197"/>
			<rect x="0" y="72.3661" width="126.983" height="13.5449" class="st1"/>
		</g>
		<g id="shape6-17" v:mID="6" v:groupContext="shape" transform="translate(159.163,-36.1831)">
			<title>工作表.6</title>
			<desc>示人法故說</desc>
			<v:textBlock v:margins="rect(0,0,0,0)" v:tabSpace="42.5197"/>
			<v:textRect cx="25.8957" cy="79.1386" width="51.8" height="13.5449"/>
			<rect x="0" y="72.3661" width="51.7913" height="13.5449" class="st1"/>
			<text x="0" y="82.25" class="st2" v:langID="1028"><v:paragraph/><v:tabList/>示人法故說</text>		</g>
		<g id="shape7-20" v:mID="7" v:groupContext="shape" transform="translate(96.1517,-26.2656)">
			<title>工作表.7</title>
			<desc>佛所說皆實</desc>
			<v:textBlock v:margins="rect(0,0,0,0)" v:tabSpace="42.5197"/>
			<v:textRect cx="28.2185" cy="79.1386" width="56.44" height="13.5449"/>
			<rect x="0" y="72.3661" width="56.4371" height="13.5449" class="st1"/>
			<text x="-0" y="82.25" class="st2" v:langID="1028"><v:paragraph/><v:tabList/>佛所說皆實</text>		</g>
		<g id="shape8-23" v:mID="8" v:groupContext="shape" transform="translate(65.0217,-14.6091)">
			<title>工作表.8</title>
			<desc>正義</desc>
			<v:textBlock v:margins="rect(0,0,0,0)" v:tabSpace="42.5197"/>
			<v:textRect cx="11.2874" cy="79.1386" width="22.58" height="13.5449"/>
			<rect x="0" y="72.3661" width="22.5748" height="13.5449" class="st1"/>
			<text x="-0" y="82.25" class="st2" v:langID="1028"><v:paragraph/><v:tabList/>正義</text>		</g>
		<g id="shape9-26" v:mID="9" v:groupContext="shape" transform="translate(85.3451,-13.1158)">
			<title>工作表.9</title>
			<v:textBlock v:margins="rect(0,0,0,0)" v:tabSpace="42.5197"/>
			<rect x="0" y="72.3661" width="95.943" height="13.5449" class="st1"/>
		</g>
		<g id="shape10-28" v:mID="10" v:groupContext="shape" transform="translate(158.585,-18.4665)">
			<title>工作表.10</title>
			<desc>令菩薩喜故說</desc>
			<v:textBlock v:margins="rect(0,0,0,0)" v:tabSpace="42.5197"/>
			<v:textRect cx="31.1453" cy="79.1386" width="62.3" height="13.5449"/>
			<rect x="0" y="72.3661" width="62.2907" height="13.5449" class="st1"/>
			<text x="0" y="82.25" class="st2" v:langID="1028"><v:paragraph/><v:tabList/>令菩薩喜故說</text>		</g>
		<g id="shape11-31" v:mID="11" v:groupContext="shape" transform="translate(96.6321,-0.75)">
			<title>工作表.11</title>
			<desc>遣執顯正——得無生忍斷煩惱得佛斷習</desc>
			<v:textBlock v:margins="rect(0,0,0,0)" v:tabSpace="42.5197"/>
			<v:textRect cx="97.5551" cy="79.1386" width="195.12" height="13.5449"/>
			<rect x="0" y="72.3661" width="195.11" height="13.5449" class="st1"/>
			<text x="-0" y="82.25" class="st2" v:langID="1028"><v:paragraph/><v:tabList/>遣執顯正<tspan class="st3">——</tspan>得無生忍，斷煩惱，得佛斷習</text>		</g>
		<g id="shape21-35" v:mID="21" v:groupContext="shape" transform="translate(138.126,16.3405) rotate(90)">
			<title>工作表.21</title>
			<path d="M0 74.62 C0 77.76 1.87 80.27 4.13 80.27 L20.67 80.27 C22.93 80.27 24.8 82.84 24.8 85.91 C24.8 82.84 26.68 80.27
						 28.94 80.27 L45.47 80.27 C47.73 80.27 49.61 77.76 49.61 74.62 L0 74.62 Z" class="st4"/>
			<path d="M0 74.62 C0 77.76 1.87 80.27 4.13 80.27 L20.67 80.27 C22.93 80.27 24.8 82.84 24.8 85.91 C24.8 82.84 26.68 80.27
						 28.94 80.27 L45.47 80.27 C47.73 80.27 49.61 77.76 49.61 74.62" class="st5"/>
		</g>
		<g id="shape22-38" v:mID="22" v:groupContext="shape" transform="translate(173.559,6.41927) rotate(90)">
			<title>工作表.22</title>
			<path d="M0 77.46 C0 79.81 0.78 81.68 1.74 81.68 L8.63 81.68 C9.55 81.68 10.33 83.56 10.33 85.91 C10.33 83.56 11.11 81.68
						 12.07 81.68 L18.96 81.68 C19.87 81.68 20.65 79.81 20.65 77.46 L0 77.46 Z" class="st4"/>
			<path d="M0 77.46 C0 79.81 0.78 81.68 1.74 81.68 L8.63 81.68 C9.55 81.68 10.33 83.56 10.33 85.91 C10.33 83.56 11.11 81.68
						 12.07 81.68 L18.96 81.68 C19.87 81.68 20.65 79.81 20.65 77.46" class="st5"/>
		</g>
		<g id="shape26-41" v:mID="26" v:groupContext="shape" transform="translate(234.555,43.2697) rotate(90)">
			<title>工作表.26</title>
			<path d="M0 77.46 C0 79.81 0.78 81.68 1.74 81.68 L8.63 81.68 C9.55 81.68 10.33 83.56 10.33 85.91 C10.33 83.56 11.11 81.68
						 12.07 81.68 L18.96 81.68 C19.87 81.68 20.65 79.81 20.65 77.46 L0 77.46 Z" class="st4"/>
			<path d="M0 77.46 C0 79.81 0.78 81.68 1.74 81.68 L8.63 81.68 C9.55 81.68 10.33 83.56 10.33 85.91 C10.33 83.56 11.11 81.68
						 12.07 81.68 L18.96 81.68 C19.87 81.68 20.65 79.81 20.65 77.46" class="st5"/>
		</g>
		<g id="shape27-44" v:mID="27" v:groupContext="shape" transform="translate(173.559,50.3563) rotate(90)">
			<title>工作表.27</title>
			<path d="M0 77.46 C0 79.81 1.07 81.68 2.39 81.68 L11.84 81.68 C13.1 81.68 14.17 83.56 14.17 85.91 C14.17 83.56 15.24
						 81.68 16.57 81.68 L26.02 81.68 C27.28 81.68 28.35 79.81 28.35 77.46 L0 77.46 Z" class="st4"/>
			<path d="M0 77.46 C0 79.81 1.07 81.68 2.39 81.68 L11.84 81.68 C13.1 81.68 14.17 83.56 14.17 85.91 C14.17 83.56 15.24
						 81.68 16.57 81.68 L26.02 81.68 C27.28 81.68 28.35 79.81 28.35 77.46" class="st5"/>
		</g>
		<g id="shape40-47" v:mID="40" v:groupContext="shape" transform="translate(220.876,-26.6256)">
			<title>工作表.40</title>
			<path d="M-0 85.91 A130.378 18.4252 -180 0 0 130.38 67.49 A31.1811 15.5906 -180 0 0 99.2 51.9" class="st6"/>
		</g>
		<g id="shape41-50" v:mID="41" v:groupContext="shape" transform="translate(210.955,-43.6335)">
			<title>工作表.41</title>
			<path d="M-0 85.91 A138.882 14.1732 -180 0 0 138.88 71.74 A80.7874 21.2598 -180 0 0 58.09 50.48" class="st6"/>
		</g>
	</g>
</svg>
