<?xml version="1.0" encoding="UTF-8" standalone="no"?>
<!DOCTYPE svg PUBLIC "-//W3C//DTD SVG 1.1//EN" "http://www.w3.org/Graphics/SVG/1.1/DTD/svg11.dtd">
<!-- 由 Microsoft Visio, SVG Export 產生 A00907.svg 頁-1 -->
<svg xmlns="http://www.w3.org/2000/svg" xmlns:xlink="http://www.w3.org/1999/xlink" xmlns:ev="http://www.w3.org/2001/xml-events"
		xmlns:v="http://schemas.microsoft.com/visio/2003/SVGExtensions/" width="4.00312in" height="0.410171in"
		viewBox="0 0 288.224 29.5323" xml:space="preserve" color-interpolation-filters="sRGB" class="st5">
	<v:documentProperties v:langID="1028" v:viewMarkup="false"/>

	<style type="text/css">
	<![CDATA[
		.st1 {fill:none;stroke:none;stroke-linecap:butt;stroke-width:0.75}
		.st2 {fill:#000000;font-family:新細明體;font-size:0.833336em}
		.st3 {stroke:#040000;stroke-linecap:round;stroke-linejoin:round;stroke-width:0.705463}
		.st4 {fill:none}
		.st5 {fill:none;fill-rule:evenodd;font-size:12px;overflow:visible;stroke-linecap:square;stroke-miterlimit:3}
	]]>
	</style>

	<g v:mID="0" v:index="1" v:groupContext="foregroundPage">
		<title>頁-1</title>
		<v:pageProperties v:drawingScale="0.0393701" v:pageScale="0.0393701" v:drawingUnits="24" v:shadowOffsetX="9"
				v:shadowOffsetY="-9"/>
		<g id="shape1-1" v:mID="1" v:groupContext="shape" transform="translate(70.9158,-15.2374)">
			<title>工作表.1</title>
			<desc>初學種種別後皆同一。</desc>
			<v:textBlock v:margins="rect(0,0,0,0)" v:tabSpace="42.5197"/>
			<v:textRect cx="56.4011" cy="22.7598" width="112.81" height="13.5449"/>
			<rect x="0" y="15.9874" width="112.802" height="13.5449" class="st1"/>
			<text x="0" y="25.87" class="st2" v:langID="1028"><v:paragraph/><v:tabList/>初學種種別，後皆同一。</text>		</g>
		<g id="shape2-4" v:mID="2" v:groupContext="shape" transform="translate(0.75,-8.28261)">
			<title>工作表.2</title>
			<desc>一道、種種道</desc>
			<v:textBlock v:margins="rect(0,0,0,0)" v:tabSpace="42.5197"/>
			<v:textRect cx="33.8622" cy="22.7598" width="67.73" height="13.5449"/>
			<rect x="0" y="15.9874" width="67.7245" height="13.5449" class="st1"/>
			<text x="0" y="25.87" class="st2" v:langID="1028"><v:paragraph/><v:tabList/>一道、種種道</text>		</g>
		<g id="shape3-7" v:mID="3" v:groupContext="shape" transform="translate(234.67,-8.28261)">
			<title>工作表.3</title>
			<desc>一相種種相</desc>
			<v:textBlock v:margins="rect(0,0,0,0)" v:tabSpace="42.5197"/>
			<v:textRect cx="26.4024" cy="22.7598" width="52.81" height="13.5449"/>
			<rect x="0" y="15.9874" width="52.8049" height="13.5449" class="st1"/>
			<text x="0" y="25.87" class="st2" v:langID="1028"><v:paragraph/><v:tabList/>一相種種相</text>		</g>
		<g id="shape8-10" v:mID="8" v:groupContext="shape" transform="translate(70.9158,-0.75)">
			<title>工作表.8</title>
			<desc>雖一道無二導眾生故分別說。</desc>
			<v:textBlock v:margins="rect(0,0,0,0)" v:tabSpace="42.5197"/>
			<v:textRect cx="70.5743" cy="22.7598" width="141.15" height="13.5449"/>
			<rect x="0" y="15.9874" width="141.149" height="13.5449" class="st1"/>
			<text x="0" y="25.87" class="st2" v:langID="1028"><v:paragraph/><v:tabList/>雖一道無二，導眾生故分別說。</text>		</g>
		<g id="shape17-13" v:mID="17" v:groupContext="shape" transform="translate(187.989,-22.9595) rotate(8.31618)">
			<title>工作表.17</title>
			<path d="M0 29.53 L49 29.53" class="st3"/>
		</g>
		<g id="shape18-16" v:mID="18" v:groupContext="shape" transform="translate(200.353,-6.51108) rotate(-19.9462)">
			<title>工作表.18</title>
			<path d="M0 29.53 L23.16 29.53" class="st3"/>
		</g>
		<g id="shape20-19" v:mID="20" v:groupContext="shape" transform="translate(91.6524,6.41929) rotate(90)">
			<title>工作表.20</title>
			<path d="M0 22.45 C0 24.41 0.61 25.99 1.4 25.99 L7.02 25.99 C7.77 25.99 8.43 27.56 8.43 29.53 C8.43 27.56 9.04 25.99
						 9.83 25.99 L15.45 25.99 C16.2 25.99 16.85 24.41 16.85 22.45 L0 22.45 Z" class="st4"/>
			<path d="M0 22.45 C0 24.41 0.61 25.99 1.4 25.99 L7.02 25.99 C7.77 25.99 8.43 27.56 8.43 29.53 C8.43 27.56 9.04 25.99
						 9.83 25.99 L15.45 25.99 C16.2 25.99 16.85 24.41 16.85 22.45" class="st3"/>
		</g>
	</g>
</svg>
