<?xml version="1.0" encoding="UTF-8" standalone="no"?>
<!DOCTYPE svg PUBLIC "-//W3C//DTD SVG 1.1//EN" "http://www.w3.org/Graphics/SVG/1.1/DTD/svg11.dtd">
<!-- 由 Microsoft Visio, SVG Export 產生 A01006.svg 頁-1 -->
<svg xmlns="http://www.w3.org/2000/svg" xmlns:xlink="http://www.w3.org/1999/xlink" xmlns:ev="http://www.w3.org/2001/xml-events"
		xmlns:v="http://schemas.microsoft.com/visio/2003/SVGExtensions/" width="2.15027in" height="0.95717in"
		viewBox="0 0 154.82 68.9162" xml:space="preserve" color-interpolation-filters="sRGB" class="st6">
	<v:documentProperties v:langID="1028" v:viewMarkup="false"/>

	<style type="text/css">
	<![CDATA[
		.st1 {fill:none;stroke:none;stroke-linecap:butt;stroke-width:0.75}
		.st2 {fill:#000000;font-family:新細明體;font-size:0.833336em}
		.st3 {font-size:1em}
		.st4 {fill:none}
		.st5 {stroke:#040000;stroke-linecap:round;stroke-linejoin:round;stroke-width:0.705463}
		.st6 {fill:none;fill-rule:evenodd;font-size:12px;overflow:visible;stroke-linecap:square;stroke-miterlimit:3}
	]]>
	</style>

	<g v:mID="0" v:index="1" v:groupContext="foregroundPage">
		<title>頁-1</title>
		<v:pageProperties v:drawingScale="0.0393701" v:pageScale="0.0393701" v:drawingUnits="24" v:shadowOffsetX="9"
				v:shadowOffsetY="-9"/>
		<g id="shape1-1" v:mID="1" v:groupContext="shape" transform="translate(42.2264,-54.6213)">
			<title>工作表.1</title>
			<desc>一、得無生忍等</desc>
			<v:textBlock v:margins="rect(0,0,0,0)" v:tabSpace="42.5197"/>
			<v:textRect cx="35.4587" cy="62.1438" width="70.92" height="13.5449"/>
			<rect x="0" y="55.3713" width="70.9173" height="13.5449" class="st1"/>
			<text x="0" y="65.26" class="st2" v:langID="1028"><v:paragraph/><v:tabList/>一、得無生忍等</text>		</g>
		<g id="shape3-4" v:mID="3" v:groupContext="shape" transform="translate(0.75,-38.466)">
			<title>工作表.3</title>
			<desc>菩薩位</desc>
			<v:textBlock v:margins="rect(0,0,0,0)" v:tabSpace="42.5197"/>
			<v:textRect cx="16.9311" cy="62.1438" width="33.87" height="13.5449"/>
			<rect x="0" y="55.3713" width="33.8622" height="13.5449" class="st1"/>
			<text x="0" y="65.26" class="st2" v:langID="1028"><v:paragraph/><v:tabList/>菩薩位</text>		</g>
		<g id="shape4-7" v:mID="4" v:groupContext="shape" transform="translate(34.6122,-32.3777)">
			<title>工作表.4</title>
			<v:textBlock v:margins="rect(0,0,0,0)" v:tabSpace="42.5197"/>
			<rect x="0" y="55.3713" width="64.9026" height="13.5449" class="st1"/>
		</g>
		<g id="shape6-9" v:mID="6" v:groupContext="shape" transform="translate(30.939,-22.0624)">
			<title>工作表.6</title>
			<desc>二、住頂不墮</desc>
			<v:textBlock v:margins="rect(0,0,0,0)" v:tabSpace="42.5197"/>
			<v:textRect cx="39.5059" cy="62.1438" width="79.02" height="13.5449"/>
			<rect x="0" y="55.3713" width="79.0119" height="13.5449" class="st1"/>
			<text x="10" y="65.26" class="st2" v:langID="1028"><v:paragraph/><v:tabList/>二、住頂不墮</text>		</g>
		<g id="shape17-12" v:mID="17" v:groupContext="shape" transform="translate(111.903,-2.94304)">
			<title>工作表.17</title>
			<desc>不墮惡趣 不生下賤 不墮二地 不從頂墮</desc>
			<v:textBlock v:margins="rect(0,0,0,0)" v:tabSpace="42.5197"/>
			<v:textRect cx="21.0833" cy="43.9428" width="42.17" height="49.9468"/>
			<rect x="0" y="18.9694" width="42.1666" height="49.9468" class="st1"/>
			<text x="0" y="25.37" class="st2" v:langID="1028"><v:paragraph v:spBefore="2"/><v:tabList/>不墮惡趣<v:newlineChar/><tspan
						x="0" dy="1.446em" class="st3">不生下賤<v:newlineChar/></tspan><tspan x="0" dy="1.446em" class="st3">不墮二地<v:newlineChar/></tspan><tspan
						x="0" dy="1.446em" class="st3">不從頂墮</tspan></text>		</g>
		<g id="shape18-18" v:mID="18" v:groupContext="shape" transform="translate(172.769,19.2015) rotate(90)">
			<title>工作表.18</title>
			<path d="M0 60.83 C0 63.08 1.6 64.87 3.54 64.87 L17.72 64.87 C19.66 64.87 21.26 66.66 21.26 68.92 C21.26 66.66 22.86
						 64.87 24.8 64.87 L38.98 64.87 C40.92 64.87 42.52 63.08 42.52 60.83 L0 60.83 Z" class="st4"/>
			<path d="M0 60.83 C0 63.08 1.6 64.87 3.54 64.87 L17.72 64.87 C19.66 64.87 21.26 66.66 21.26 68.92 C21.26 66.66 22.86
						 64.87 24.8 64.87 L38.98 64.87 C40.92 64.87 42.52 63.08 42.52 60.83" class="st5"/>
		</g>
		<g id="shape19-21" v:mID="19" v:groupContext="shape" transform="translate(102.11,7.52245) rotate(90)">
			<title>工作表.19</title>
			<path d="M0 60.83 C0 63.08 1.21 64.87 2.67 64.87 L13.36 64.87 C14.82 64.87 16.03 66.66 16.03 68.92 C16.03 66.66 17.24
						 64.87 18.7 64.87 L29.39 64.87 C30.85 64.87 32.06 63.08 32.06 60.83 L0 60.83 Z" class="st4"/>
			<path d="M0 60.83 C0 63.08 1.21 64.87 2.67 64.87 L13.36 64.87 C14.82 64.87 16.03 66.66 16.03 68.92 C16.03 66.66 17.24
						 64.87 18.7 64.87 L29.39 64.87 C30.85 64.87 32.06 63.08 32.06 60.83" class="st5"/>
		</g>
	</g>
</svg>
