<?xml version="1.0" encoding="UTF-8" standalone="no"?>
<!DOCTYPE svg PUBLIC "-//W3C//DTD SVG 1.1//EN" "http://www.w3.org/Graphics/SVG/1.1/DTD/svg11.dtd">
<!-- 由 Microsoft Visio, SVG Export 產生 A01003.svg 頁-1 -->
<svg xmlns="http://www.w3.org/2000/svg" xmlns:xlink="http://www.w3.org/1999/xlink" xmlns:ev="http://www.w3.org/2001/xml-events"
		xmlns:v="http://schemas.microsoft.com/visio/2003/SVGExtensions/" width="4.51931in" height="0.626706in"
		viewBox="0 0 325.39 45.1228" xml:space="preserve" color-interpolation-filters="sRGB" class="st6">
	<v:documentProperties v:langID="1028" v:viewMarkup="false"/>

	<style type="text/css">
	<![CDATA[
		.st1 {fill:none;stroke:none;stroke-linecap:butt;stroke-width:0.75}
		.st2 {fill:#000000;font-family:新細明體;font-size:0.833336em}
		.st3 {font-family:Times New Roman;font-size:1em}
		.st4 {fill:none}
		.st5 {stroke:#040000;stroke-linecap:round;stroke-linejoin:round;stroke-width:0.705463}
		.st6 {fill:none;fill-rule:evenodd;font-size:12px;overflow:visible;stroke-linecap:square;stroke-miterlimit:3}
	]]>
	</style>

	<g v:mID="0" v:index="1" v:groupContext="foregroundPage">
		<title>頁-1</title>
		<v:pageProperties v:drawingScale="0.0393701" v:pageScale="0.0393701" v:drawingUnits="24" v:shadowOffsetX="9"
				v:shadowOffsetY="-9"/>
		<g id="shape2-1" v:mID="2" v:groupContext="shape" transform="translate(182.876,-30.8279)">
			<title>工作表.2</title>
			<desc>雖一時得用有前後</desc>
			<v:textBlock v:margins="rect(0,0,0,0)" v:tabSpace="42.5197"/>
			<v:textRect cx="46.7877" cy="38.3504" width="93.58" height="13.5449"/>
			<rect x="0" y="31.5779" width="93.5755" height="13.5449" class="st1"/>
			<text x="0" y="41.46" class="st2" v:langID="1028"><v:paragraph/><v:tabList/>雖一時得，用有前後</text>		</g>
		<g id="shape3-4" v:mID="3" v:groupContext="shape" transform="translate(132.159,-23.4272)">
			<title>工作表.3</title>
			<desc>實一時得</desc>
			<v:textBlock v:margins="rect(0,0,0,0)" v:tabSpace="42.5197"/>
			<v:textRect cx="21.1224" cy="38.3504" width="42.25" height="13.5449"/>
			<rect x="0" y="31.5779" width="42.2448" height="13.5449" class="st1"/>
			<text x="0" y="41.46" class="st2" v:langID="1028"><v:paragraph/><v:tabList/>實一時得  </text>		</g>
		<g id="shape4-7" v:mID="4" v:groupContext="shape" transform="translate(0.75,-11.3251)">
			<title>工作表.4</title>
			<desc>一心中得一切智、一切種智</desc>
			<v:textBlock v:margins="rect(0,0,0,0)" v:tabSpace="42.5197"/>
			<v:textRect cx="67.7245" cy="38.3504" width="135.45" height="13.5449"/>
			<rect x="0" y="31.5779" width="135.449" height="13.5449" class="st1"/>
			<text x="-0" y="41.46" class="st2" v:langID="1028"><v:paragraph/><v:tabList/>一心中得一切智、一切種智</text>		</g>
		<g id="shape5-10" v:mID="5" v:groupContext="shape" transform="translate(182.877,-15.789)">
			<title>工作表.5</title>
			<desc>實一時得令人信故差別說</desc>
			<v:textBlock v:margins="rect(0,0,0,0)" v:tabSpace="42.5197"/>
			<v:textRect cx="67.7245" cy="38.3504" width="135.45" height="13.5449"/>
			<rect x="0" y="31.5779" width="135.449" height="13.5449" class="st1"/>
			<text x="0" y="41.46" class="st2" v:langID="1028"><v:paragraph/><v:tabList/>實一時得，令人信故，差別說</text>		</g>
		<g id="shape6-13" v:mID="6" v:groupContext="shape" transform="translate(132.16,-0.75)">
			<title>工作表.6</title>
			<desc>實前後得——雖說一心得亦有初中後次第</desc>
			<v:textBlock v:margins="rect(0,0,0,0)" v:tabSpace="42.5197"/>
			<v:textRect cx="96.2401" cy="38.3504" width="192.49" height="13.5449"/>
			<rect x="0" y="31.5779" width="192.48" height="13.5449" class="st1"/>
			<text x="0" y="41.46" class="st2" v:langID="1028"><v:paragraph/><v:tabList/>實前後得<tspan class="st3">——</tspan>雖說一心得，亦有初中後次第</text>		</g>
		<g id="shape7-17" v:mID="7" v:groupContext="shape" transform="translate(219.527,6.38853) rotate(90)">
			<title>工作表.7</title>
			<path d="M0 37.41 C0 39.55 0.69 41.26 1.49 41.26 L7.54 41.26 C8.39 41.26 9.07 42.98 9.07 45.12 C9.07 42.98 9.76 41.26
						 10.56 41.26 L16.61 41.26 C17.46 41.26 18.14 39.55 18.14 37.41 L0 37.41 Z" class="st4"/>
			<path d="M0 37.41 C0 39.55 0.69 41.26 1.49 41.26 L7.54 41.26 C8.39 41.26 9.07 42.98 9.07 45.12 C9.07 42.98 9.76 41.26
						 10.56 41.26 L16.61 41.26 C17.46 41.26 18.14 39.55 18.14 37.41" class="st5"/>
		</g>
		<g id="shape8-20" v:mID="8" v:groupContext="shape" transform="translate(167.872,14.8925) rotate(90)">
			<title>工作表.8</title>
			<path d="M0 37.41 C0 39.55 0.92 41.26 2.12 41.26 L10.53 41.26 C11.69 41.26 12.61 43.02 12.61 45.12 C12.61 43.02 13.54
						 41.26 14.74 41.26 L23.15 41.26 C24.31 41.26 25.23 39.55 25.23 37.41 L0 37.41 Z" class="st4"/>
			<path d="M0 37.41 C0 39.55 0.92 41.26 2.12 41.26 L10.53 41.26 C11.69 41.26 12.61 43.02 12.61 45.12 C12.61 43.02 13.54
						 41.26 14.74 41.26 L23.15 41.26 C24.31 41.26 25.23 39.55 25.23 37.41" class="st5"/>
		</g>
	</g>
</svg>
