<?xml version="1.0" encoding="UTF-8" standalone="no"?>
<!DOCTYPE svg PUBLIC "-//W3C//DTD SVG 1.1//EN" "http://www.w3.org/Graphics/SVG/1.1/DTD/svg11.dtd">
<!-- 由 Microsoft Visio, SVG Export 產生 A01008.svg 頁-1 -->
<svg xmlns="http://www.w3.org/2000/svg" xmlns:xlink="http://www.w3.org/1999/xlink" xmlns:ev="http://www.w3.org/2001/xml-events"
		xmlns:v="http://schemas.microsoft.com/visio/2003/SVGExtensions/" width="2.27083in" height="0.43411in"
		viewBox="0 0 163.5 31.2559" xml:space="preserve" color-interpolation-filters="sRGB" class="st7">
	<v:documentProperties v:langID="1028" v:viewMarkup="false"/>

	<style type="text/css">
	<![CDATA[
		.st1 {fill:none;stroke:none;stroke-linecap:butt;stroke-width:0.75}
		.st2 {fill:#000000;font-family:新細明體;font-size:0.833336em}
		.st3 {font-family:Times New Roman;font-size:1em}
		.st4 {font-size:1em}
		.st5 {fill:none}
		.st6 {stroke:#040000;stroke-linecap:round;stroke-linejoin:round;stroke-width:0.705463}
		.st7 {fill:none;fill-rule:evenodd;font-size:12px;overflow:visible;stroke-linecap:square;stroke-miterlimit:3}
	]]>
	</style>

	<g v:mID="0" v:index="1" v:groupContext="foregroundPage">
		<title>頁-1</title>
		<v:pageProperties v:drawingScale="0.0393701" v:pageScale="0.0393701" v:drawingUnits="24" v:shadowOffsetX="9"
				v:shadowOffsetY="-9"/>
		<g id="shape1-1" v:mID="1" v:groupContext="shape" transform="translate(69.3312,-0.75)">
			<title>工作表.1</title>
			<desc>已得無生忍——法身 將得無生忍——肉身</desc>
			<v:textBlock v:margins="rect(0,0,0,0)" v:tabSpace="42.5197"/>
			<v:textRect cx="46.7094" cy="16.378" width="93.42" height="29.7559"/>
			<rect x="0" y="1.5" width="93.4187" height="29.7559" class="st1"/>
			<text x="-0" y="12.26" class="st2" v:langID="1028"><v:paragraph v:spBefore="2"/><v:tabList/>已得無生忍<tspan class="st3">——</tspan>法身<v:newlineChar/><tspan
						x="-0" dy="1.446em" class="st4">將得無生忍</tspan><tspan class="st3">——</tspan>肉身</text>		</g>
		<g id="shape2-7" v:mID="2" v:groupContext="shape" transform="translate(0.75,-8.11063)">
			<title>工作表.2</title>
			<desc>二種阿鞞跋致</desc>
			<v:textBlock v:margins="rect(0,0,0,0)" v:tabSpace="42.5197"/>
			<v:textRect cx="30.685" cy="24.4835" width="61.38" height="13.5449"/>
			<rect x="0" y="17.711" width="61.3701" height="13.5449" class="st1"/>
			<text x="0" y="27.6" class="st2" v:langID="1028"><v:paragraph/><v:tabList/>二種阿鞞跋致</text>		</g>
		<g id="shape16-10" v:mID="16" v:groupContext="shape" transform="translate(91.9587,8.39569) rotate(90)">
			<title>工作表.16</title>
			<path d="M0 24.17 C0 26.14 0.57 27.71 1.24 27.71 L6.24 27.71 C6.94 27.71 7.51 29.33 7.51 31.26 C7.51 29.33 8.08 27.71
						 8.75 27.71 L13.75 27.71 C14.46 27.71 15.02 26.14 15.02 24.17 L0 24.17 Z" class="st5"/>
			<path d="M0 24.17 C0 26.14 0.57 27.71 1.24 27.71 L6.24 27.71 C6.94 27.71 7.51 29.33 7.51 31.26 C7.51 29.33 8.08 27.71
						 8.75 27.71 L13.75 27.71 C14.46 27.71 15.02 26.14 15.02 24.17" class="st6"/>
		</g>
	</g>
</svg>
