<?xml version="1.0" encoding="UTF-8" standalone="no"?>
<!DOCTYPE svg PUBLIC "-//W3C//DTD SVG 1.1//EN" "http://www.w3.org/Graphics/SVG/1.1/DTD/svg11.dtd">
<!-- 由 Microsoft Visio, SVG Export 產生 A00908.svg 頁-1 -->
<svg xmlns="http://www.w3.org/2000/svg" xmlns:xlink="http://www.w3.org/1999/xlink" xmlns:ev="http://www.w3.org/2001/xml-events"
		xmlns:v="http://schemas.microsoft.com/visio/2003/SVGExtensions/" width="4.64531in" height="0.825099in"
		viewBox="0 0 334.462 59.4071" xml:space="preserve" color-interpolation-filters="sRGB" class="st5">
	<v:documentProperties v:langID="1028" v:viewMarkup="false"/>

	<style type="text/css">
	<![CDATA[
		.st1 {fill:none;stroke:none;stroke-linecap:butt;stroke-width:0.75}
		.st2 {fill:#000000;font-family:新細明體;font-size:0.833336em}
		.st3 {fill:none}
		.st4 {stroke:#040000;stroke-linecap:round;stroke-linejoin:round;stroke-width:0.705463}
		.st5 {fill:none;fill-rule:evenodd;font-size:12px;overflow:visible;stroke-linecap:square;stroke-miterlimit:3}
	]]>
	</style>

	<g v:mID="0" v:index="1" v:groupContext="foregroundPage">
		<title>頁-1</title>
		<v:pageProperties v:drawingScale="0.0393701" v:pageScale="0.0393701" v:drawingUnits="24" v:shadowOffsetX="9"
				v:shadowOffsetY="-9"/>
		<g id="shape1-1" v:mID="1" v:groupContext="shape" transform="translate(96.0828,-45.1122)">
			<title>工作表.1</title>
			<desc>一、無差別</desc>
			<v:textBlock v:margins="rect(0,0,0,0)" v:tabSpace="42.5197"/>
			<v:textRect cx="28.2185" cy="52.6347" width="56.44" height="13.5449"/>
			<rect x="0" y="45.8622" width="56.4371" height="13.5449" class="st1"/>
			<text x="-0" y="55.75" class="st2" v:langID="1028"><v:paragraph/><v:tabList/>一、無差別</text>		</g>
		<g id="shape2-4" v:mID="2" v:groupContext="shape" transform="translate(0.75,-29.0965)">
			<title>工作表.2</title>
			<desc>一切智、一切種智</desc>
			<v:textBlock v:margins="rect(0,0,0,0)" v:tabSpace="42.5197"/>
			<v:textRect cx="40.6063" cy="52.6347" width="81.22" height="13.5449"/>
			<rect x="0" y="45.8622" width="81.2126" height="13.5449" class="st1"/>
			<text x="-0" y="55.75" class="st2" v:langID="1028"><v:paragraph/><v:tabList/>一切智、一切種智</text>		</g>
		<g id="shape3-7" v:mID="3" v:groupContext="shape" transform="translate(149.632,-28.4505)">
			<title>工作表.3</title>
			<desc>總別總破、別破、總相知、總別相知。</desc>
			<v:textBlock v:margins="rect(0,0,0,0)" v:tabSpace="42.5197"/>
			<v:textRect cx="92.0402" cy="52.6347" width="184.09" height="13.5449"/>
			<rect x="0" y="45.8622" width="184.08" height="13.5449" class="st1"/>
			<text x="0" y="55.75" class="st2" v:langID="1028"><v:paragraph/><v:tabList/>總別：總破、別破、總相知、總別相知。</text>		</g>
		<g id="shape4-10" v:mID="4" v:groupContext="shape" transform="translate(96.081,-14.9232)">
			<title>工作表.4</title>
			<desc>二、差別</desc>
			<v:textBlock v:margins="rect(0,0,0,0)" v:tabSpace="42.5197"/>
			<v:textRect cx="22.5748" cy="52.6347" width="45.15" height="13.5449"/>
			<rect x="0" y="45.8622" width="45.1496" height="13.5449" class="st1"/>
			<text x="-0" y="55.75" class="st2" v:langID="1028"><v:paragraph/><v:tabList/>二、差別</text>		</g>
		<g id="shape5-13" v:mID="5" v:groupContext="shape" transform="translate(149.632,-14.6002)">
			<title>工作表.5</title>
			<desc>因果。　聲聞、佛</desc>
			<v:textBlock v:margins="rect(0,0,0,0)" v:tabSpace="42.5197"/>
			<v:textRect cx="51.5045" cy="52.6347" width="103.01" height="13.5449"/>
			<rect x="0" y="45.8622" width="103.009" height="13.5449" class="st1"/>
			<text x="0" y="55.75" class="st2" v:langID="1028"><v:paragraph/><v:tabList/>因果。　（聲聞、佛）</text>		</g>
		<g id="shape7-16" v:mID="7" v:groupContext="shape" transform="translate(149.633,-0.75)">
			<title>工作表.7</title>
			<desc>略廣。</desc>
			<v:textBlock v:margins="rect(0,0,0,0)" v:tabSpace="42.5197"/>
			<v:textRect cx="16.9311" cy="52.6347" width="33.87" height="13.5449"/>
			<rect x="0" y="45.8622" width="33.8622" height="13.5449" class="st1"/>
			<text x="0" y="55.75" class="st2" v:langID="1028"><v:paragraph/><v:tabList/>略廣。</text>		</g>
		<g id="shape16-19" v:mID="16" v:groupContext="shape" transform="translate(196.137,23.9941) rotate(90)">
			<title>工作表.16</title>
			<path d="M0 48.12 C0 51.26 1.03 53.76 2.33 53.76 L11.73 53.76 C13.03 53.76 14.1 56.27 14.1 59.41 C14.1 56.27 15.13 53.76
						 16.43 53.76 L25.83 53.76 C27.13 53.76 28.2 51.26 28.2 48.12 L0 48.12 Z" class="st3"/>
			<path d="M0 48.12 C0 51.26 1.03 53.76 2.33 53.76 L11.73 53.76 C13.03 53.76 14.1 56.27 14.1 59.41 C14.1 56.27 15.13 53.76
						 16.43 53.76 L25.83 53.76 C27.13 53.76 28.2 51.26 28.2 48.12" class="st4"/>
		</g>
		<g id="shape17-22" v:mID="17" v:groupContext="shape" transform="translate(141.522,7.83661) rotate(90)">
			<title>工作表.17</title>
			<path d="M0 48.42 C0 51.47 1.12 53.92 2.5 53.92 L12.56 53.92 C13.94 53.92 15.09 56.42 15.09 59.41 C15.09 56.42 16.21
						 53.92 17.59 53.92 L27.65 53.92 C29.03 53.92 30.19 51.47 30.19 48.42 L0 48.42 Z" class="st3"/>
			<path d="M0 48.42 C0 51.47 1.12 53.92 2.5 53.92 L12.56 53.92 C13.94 53.92 15.09 56.42 15.09 59.41 C15.09 56.42 16.21
						 53.92 17.59 53.92 L27.65 53.92 C29.03 53.92 30.19 51.47 30.19 48.42" class="st4"/>
		</g>
	</g>
</svg>
