<?xml version="1.0" encoding="UTF-8" standalone="no"?>
<!DOCTYPE svg PUBLIC "-//W3C//DTD SVG 1.1//EN" "http://www.w3.org/Graphics/SVG/1.1/DTD/svg11.dtd">
<!-- 由 Microsoft Visio, SVG Export 產生 A01005.svg 頁-1 -->
<svg xmlns="http://www.w3.org/2000/svg" xmlns:xlink="http://www.w3.org/1999/xlink" xmlns:ev="http://www.w3.org/2001/xml-events"
		xmlns:v="http://schemas.microsoft.com/visio/2003/SVGExtensions/" width="2.96965in" height="0.422587in"
		viewBox="0 0 213.815 30.4263" xml:space="preserve" color-interpolation-filters="sRGB" class="st5">
	<v:documentProperties v:langID="1028" v:viewMarkup="false"/>

	<style type="text/css">
	<![CDATA[
		.st1 {fill:none;stroke:none;stroke-linecap:butt;stroke-width:0.75}
		.st2 {fill:#000000;font-family:新細明體;font-size:0.833336em}
		.st3 {fill:none}
		.st4 {stroke:#040000;stroke-linecap:round;stroke-linejoin:round;stroke-width:0.705463}
		.st5 {fill:none;fill-rule:evenodd;font-size:12px;overflow:visible;stroke-linecap:square;stroke-miterlimit:3}
	]]>
	</style>

	<g v:mID="0" v:index="1" v:groupContext="foregroundPage">
		<title>頁-1</title>
		<v:pageProperties v:drawingScale="0.0393701" v:pageScale="0.0393701" v:drawingUnits="24" v:shadowOffsetX="9"
				v:shadowOffsetY="-9"/>
		<g id="shape15-1" v:mID="15" v:groupContext="shape" transform="translate(52.1743,-16.1314)">
			<title>工作表.15</title>
			<desc>一、無生法忍</desc>
			<v:textBlock v:margins="rect(0,0,0,0)" v:tabSpace="42.5197"/>
			<v:textRect cx="33.8622" cy="23.6538" width="67.73" height="13.5449"/>
			<rect x="0" y="16.8814" width="67.7245" height="13.5449" class="st1"/>
			<text x="0" y="26.77" class="st2" v:langID="1028"><v:paragraph/><v:tabList/>一、無生法忍</text>		</g>
		<g id="shape16-4" v:mID="16" v:groupContext="shape" transform="translate(130.86,-16.1314)">
			<title>工作表.16</title>
			<desc>三、具六度生方便</desc>
			<v:textBlock v:margins="rect(0,0,0,0)" v:tabSpace="42.5197"/>
			<v:textRect cx="41.1024" cy="23.6538" width="82.21" height="13.5449"/>
			<rect x="0" y="16.8814" width="82.2047" height="13.5449" class="st1"/>
			<text x="0" y="26.77" class="st2" v:langID="1028"><v:paragraph/><v:tabList/>三、具六度生方便</text>		</g>
		<g id="shape17-7" v:mID="17" v:groupContext="shape" transform="translate(0.75,-8.4397)">
			<title>工作表.17</title>
			<desc>入菩薩位</desc>
			<v:textBlock v:margins="rect(0,0,0,0)" v:tabSpace="42.5197"/>
			<v:textRect cx="22.5748" cy="23.6538" width="45.15" height="13.5449"/>
			<rect x="0" y="16.8814" width="45.1496" height="13.5449" class="st1"/>
			<text x="0" y="26.77" class="st2" v:langID="1028"><v:paragraph/><v:tabList/>入菩薩位</text>		</g>
		<g id="shape18-10" v:mID="18" v:groupContext="shape" transform="translate(52.1748,-0.75)">
			<title>工作表.18</title>
			<desc>二、般舟三昧</desc>
			<v:textBlock v:margins="rect(0,0,0,0)" v:tabSpace="42.5197"/>
			<v:textRect cx="33.8622" cy="23.6538" width="67.73" height="13.5449"/>
			<rect x="0" y="16.8814" width="67.7245" height="13.5449" class="st1"/>
			<text x="0" y="26.77" class="st2" v:langID="1028"><v:paragraph/><v:tabList/>二、般舟三昧</text>		</g>
		<g id="shape19-13" v:mID="19" v:groupContext="shape" transform="translate(130.861,-0.75)">
			<title>工作表.19</title>
			<desc>四、住頂不墮</desc>
			<v:textBlock v:margins="rect(0,0,0,0)" v:tabSpace="42.5197"/>
			<v:textRect cx="31.8895" cy="23.6538" width="63.78" height="13.5449"/>
			<rect x="0" y="16.8814" width="63.7791" height="13.5449" class="st1"/>
			<text x="0" y="26.77" class="st2" v:langID="1028"><v:paragraph/><v:tabList/>四、住頂不墮</text>		</g>
		<g id="shape28-16" v:mID="28" v:groupContext="shape" transform="translate(71.9952,7.20828) rotate(90)">
			<title>工作表.28</title>
			<path d="M0 22.65 C0 24.82 0.59 26.54 1.3 26.54 L6.5 26.54 C7.21 26.54 7.8 28.26 7.8 30.43 C7.8 28.26 8.38 26.54 9.09
						 26.54 L14.29 26.54 C15 26.54 15.59 24.82 15.59 22.65 L0 22.65 Z" class="st3"/>
			<path d="M0 22.65 C0 24.82 0.59 26.54 1.3 26.54 L6.5 26.54 C7.21 26.54 7.8 28.26 7.8 30.43 C7.8 28.26 8.38 26.54 9.09
						 26.54 L14.29 26.54 C15 26.54 15.59 24.82 15.59 22.65" class="st4"/>
		</g>
	</g>
</svg>
