<?xml version="1.0" encoding="UTF-8" standalone="no"?>
<!DOCTYPE svg PUBLIC "-//W3C//DTD SVG 1.1//EN" "http://www.w3.org/Graphics/SVG/1.1/DTD/svg11.dtd">
<!-- 由 Microsoft Visio, SVG Export 產生 A01102.svg 頁-1 -->
<svg xmlns="http://www.w3.org/2000/svg" xmlns:xlink="http://www.w3.org/1999/xlink" xmlns:ev="http://www.w3.org/2001/xml-events"
		xmlns:v="http://schemas.microsoft.com/visio/2003/SVGExtensions/" width="2.82201in" height="0.431489in"
		viewBox="0 0 203.185 31.0672" xml:space="preserve" color-interpolation-filters="sRGB" class="st7">
	<v:documentProperties v:langID="1028" v:viewMarkup="false"/>

	<style type="text/css">
	<![CDATA[
		.st1 {fill:none;stroke:none;stroke-linecap:butt;stroke-width:0.75}
		.st2 {fill:#000000;font-family:新細明體;font-size:0.833336em}
		.st3 {font-family:Times New Roman;font-size:1em}
		.st4 {font-size:1em}
		.st5 {fill:none}
		.st6 {stroke:#040000;stroke-linecap:round;stroke-linejoin:round;stroke-width:0.705463}
		.st7 {fill:none;fill-rule:evenodd;font-size:12px;overflow:visible;stroke-linecap:square;stroke-miterlimit:3}
	]]>
	</style>

	<g v:mID="0" v:index="1" v:groupContext="foregroundPage">
		<title>頁-1</title>
		<v:pageProperties v:drawingScale="0.0393701" v:pageScale="0.0393701" v:drawingUnits="24" v:shadowOffsetX="9"
				v:shadowOffsetY="-9"/>
		<g id="shape1-1" v:mID="1" v:groupContext="shape" transform="translate(61.1246,-0.75)">
			<title>工作表.1</title>
			<desc>漏盡習不盡——約此菩薩住五通 漏習俱盡———約此菩薩得六通</desc>
			<v:textBlock v:margins="rect(0,0,0,0)" v:tabSpace="42.5197"/>
			<v:textRect cx="70.6552" cy="16.2836" width="141.32" height="29.5672"/>
			<rect x="0" y="1.5" width="141.31" height="29.5672" class="st1"/>
			<text x="0" y="12.17" class="st2" v:langID="1028"><v:paragraph v:spBefore="2"/><v:tabList/>漏盡習不盡<tspan class="st3">——</tspan>約此菩薩住五通<v:newlineChar/><tspan
						x="0" dy="1.446em" class="st4">漏習俱盡</tspan><tspan class="st3">———</tspan>約此菩薩得六通</text>		</g>
		<g id="shape2-7" v:mID="2" v:groupContext="shape" transform="translate(0.75,-9.26396)">
			<title>工作表.2</title>
			<desc>漏盡通有二</desc>
			<v:textBlock v:margins="rect(0,0,0,0)" v:tabSpace="42.5197"/>
			<v:textRect cx="28.2185" cy="24.2948" width="56.44" height="13.5449"/>
			<rect x="0" y="17.5223" width="56.4371" height="13.5449" class="st1"/>
			<text x="-0" y="27.41" class="st2" v:langID="1028"><v:paragraph/><v:tabList/>漏盡通有二</text>		</g>
		<g id="shape10-10" v:mID="10" v:groupContext="shape" transform="translate(82.8375,7.43532) rotate(90)">
			<title>工作表.10</title>
			<path d="M0 23.13 C0 25.28 0.64 27.1 1.41 27.1 L6.95 27.1 C7.73 27.1 8.36 28.86 8.36 31.07 C8.36 28.91 9 27.1 9.77 27.1
						 L15.32 27.1 C16.09 27.1 16.72 25.34 16.72 23.13 L0 23.13 Z" class="st5"/>
			<path d="M0 23.13 C0 25.28 0.64 27.1 1.41 27.1 L6.95 27.1 C7.73 27.1 8.36 28.86 8.36 31.07 C8.36 28.91 9 27.1 9.77 27.1
						 L15.32 27.1 C16.09 27.1 16.72 25.34 16.72 23.13" class="st6"/>
		</g>
	</g>
</svg>
