<?xml version="1.0" encoding="UTF-8" standalone="no"?>
<!DOCTYPE svg PUBLIC "-//W3C//DTD SVG 1.1//EN" "http://www.w3.org/Graphics/SVG/1.1/DTD/svg11.dtd">
<!-- 由 Microsoft Visio, SVG Export 產生 A01104.svg 頁-1 -->
<svg xmlns="http://www.w3.org/2000/svg" xmlns:xlink="http://www.w3.org/1999/xlink" xmlns:ev="http://www.w3.org/2001/xml-events"
		xmlns:v="http://schemas.microsoft.com/visio/2003/SVGExtensions/" width="3.97221in" height="0.606913in"
		viewBox="0 0 285.999 43.6977" xml:space="preserve" color-interpolation-filters="sRGB" class="st7">
	<v:documentProperties v:langID="1028" v:viewMarkup="false"/>

	<style type="text/css">
	<![CDATA[
		.st1 {fill:none;stroke:none;stroke-linecap:butt;stroke-width:0.75}
		.st2 {fill:#000000;font-family:新細明體;font-size:0.833336em}
		.st3 {font-family:Times New Roman;font-size:1em}
		.st4 {font-size:1em}
		.st5 {fill:none}
		.st6 {stroke:#040000;stroke-linecap:round;stroke-linejoin:round;stroke-width:0.705463}
		.st7 {fill:none;fill-rule:evenodd;font-size:12px;overflow:visible;stroke-linecap:square;stroke-miterlimit:3}
	]]>
	</style>

	<g v:mID="0" v:index="1" v:groupContext="foregroundPage">
		<title>頁-1</title>
		<v:pageProperties v:drawingScale="0.0393701" v:pageScale="0.0393701" v:drawingUnits="24" v:shadowOffsetX="9"
				v:shadowOffsetY="-9"/>
		<g id="shape3-1" v:mID="3" v:groupContext="shape" transform="translate(82.5462,-29.4029)">
			<title>工作表.3</title>
			<desc>邪見——取相戲論入十四難</desc>
			<v:textBlock v:margins="rect(0,0,0,0)" v:tabSpace="42.5197"/>
			<v:textRect cx="73.3682" cy="36.9253" width="146.74" height="13.5449"/>
			<rect x="0" y="30.1529" width="146.736" height="13.5449" class="st1"/>
			<text x="0" y="40.04" class="st2" v:langID="1028"><v:paragraph/><v:tabList/>邪見<tspan class="st3">——</tspan>取相戲論入十四難</text>		</g>
		<g id="shape4-5" v:mID="4" v:groupContext="shape" transform="translate(0.75,-19.6954)">
			<title>工作表.4</title>
			<desc>常、無常之邪正</desc>
			<v:textBlock v:margins="rect(0,0,0,0)" v:tabSpace="42.5197"/>
			<v:textRect cx="35.6457" cy="36.9253" width="71.3" height="13.5449"/>
			<rect x="0" y="30.1529" width="71.2913" height="13.5449" class="st1"/>
			<text x="-0" y="40.04" class="st2" v:langID="1028"><v:paragraph/><v:tabList/>常、無常之邪正</text>		</g>
		<g id="shape7-8" v:mID="7" v:groupContext="shape" transform="translate(132.455,-0.75)">
			<title>工作表.7</title>
			<desc>佛多用無常——依無常入法空故實 佛少用有常——如法性常住等</desc>
			<v:textBlock v:margins="rect(0,0,0,0)" v:tabSpace="42.5197"/>
			<v:textRect cx="76.3971" cy="28.9591" width="152.8" height="29.4772"/>
			<rect x="0" y="14.2205" width="152.794" height="29.4772" class="st1"/>
			<text x="0" y="24.84" class="st2" v:langID="1028"><v:paragraph v:spBefore="2"/><v:tabList/>佛多用無常<tspan class="st3">——</tspan>依無常入法空故實<v:newlineChar/><tspan
						x="0" dy="1.446em" class="st4">佛少用有常</tspan><tspan class="st3">——</tspan>（如法性常住等）</text>		</g>
		<g id="shape9-14" v:mID="9" v:groupContext="shape" transform="translate(81.9626,-8.85878)">
			<title>工作表.9</title>
			<desc>正論——</desc>
			<v:textBlock v:margins="rect(0,0,0,0)" v:tabSpace="42.5197"/>
			<v:textRect cx="22.5748" cy="36.9253" width="45.15" height="13.5449"/>
			<rect x="0" y="30.1529" width="45.1496" height="13.5449" class="st1"/>
			<text x="-0" y="40.04" class="st2" v:langID="1028"><v:paragraph/><v:tabList/>正論<tspan class="st3">——</tspan></text>		</g>
		<g id="shape17-18" v:mID="17" v:groupContext="shape" transform="translate(166.604,19.8528) rotate(90)">
			<title>工作表.17</title>
			<path d="M0 35.19 C0 37.56 0.63 39.45 1.37 39.45 L6.91 39.45 C7.69 39.45 8.31 41.38 8.31 43.7 C8.31 41.38 8.94 39.45
						 9.68 39.45 L15.22 39.45 C16 39.45 16.63 37.56 16.63 35.19 L0 35.19 Z" class="st5"/>
			<path d="M0 35.19 C0 37.56 0.63 39.45 1.37 39.45 L6.91 39.45 C7.69 39.45 8.31 41.38 8.31 43.7 C8.31 41.38 8.94 39.45
						 9.68 39.45 L15.22 39.45 C16 39.45 16.63 37.56 16.63 35.19" class="st6"/>
		</g>
		<g id="shape18-21" v:mID="18" v:groupContext="shape" transform="translate(115.739,5.97922) rotate(90)">
			<title>工作表.18</title>
			<path d="M0 35.19 C0 37.56 0.85 39.45 1.89 39.45 L9.45 39.45 C10.49 39.45 11.34 41.38 11.34 43.7 C11.34 41.38 12.19 39.45
						 13.23 39.45 L20.79 39.45 C21.83 39.45 22.68 37.56 22.68 35.19 L0 35.19 Z" class="st5"/>
			<path d="M0 35.19 C0 37.56 0.85 39.45 1.89 39.45 L9.45 39.45 C10.49 39.45 11.34 41.38 11.34 43.7 C11.34 41.38 12.19 39.45
						 13.23 39.45 L20.79 39.45 C21.83 39.45 22.68 37.56 22.68 35.19" class="st6"/>
		</g>
	</g>
</svg>
