<?xml version="1.0" encoding="UTF-8" standalone="no"?>
<!DOCTYPE svg PUBLIC "-//W3C//DTD SVG 1.1//EN" "http://www.w3.org/Graphics/SVG/1.1/DTD/svg11.dtd">
<!-- 由 Microsoft Visio, SVG Export 產生 A01103.svg 頁-1 -->
<svg xmlns="http://www.w3.org/2000/svg" xmlns:xlink="http://www.w3.org/1999/xlink" xmlns:ev="http://www.w3.org/2001/xml-events"
		xmlns:v="http://schemas.microsoft.com/visio/2003/SVGExtensions/" width="3.21572in" height="0.390721in"
		viewBox="0 0 231.531 28.1319" xml:space="preserve" color-interpolation-filters="sRGB" class="st7">
	<v:documentProperties v:langID="1028" v:viewMarkup="false"/>

	<style type="text/css">
	<![CDATA[
		.st1 {fill:none;stroke:none;stroke-linecap:butt;stroke-width:0.75}
		.st2 {fill:#000000;font-family:新細明體;font-size:0.833336em}
		.st3 {font-family:Times New Roman;font-size:1em}
		.st4 {font-size:1em}
		.st5 {fill:none}
		.st6 {stroke:#040000;stroke-linecap:round;stroke-linejoin:round;stroke-width:0.705463}
		.st7 {fill:none;fill-rule:evenodd;font-size:12px;overflow:visible;stroke-linecap:square;stroke-miterlimit:3}
	]]>
	</style>

	<g v:mID="0" v:index="1" v:groupContext="foregroundPage">
		<title>頁-1</title>
		<v:pageProperties v:drawingScale="0.0393701" v:pageScale="0.0393701" v:drawingUnits="24" v:shadowOffsetX="9"
				v:shadowOffsetY="-9"/>
		<g id="shape1-1" v:mID="1" v:groupContext="shape" transform="translate(80.6617,-0.75)">
			<title>工作表.1</title>
			<desc>分別——不得實法——不能通達 無分別——得實法——能通達一切</desc>
			<v:textBlock v:margins="rect(0,0,0,0)" v:tabSpace="42.5197"/>
			<v:textRect cx="75.0599" cy="14.816" width="150.12" height="26.6319"/>
			<rect x="0" y="1.5" width="150.12" height="26.6319" class="st1"/>
			<text x="-0" y="10.7" class="st2" v:langID="1028"><v:paragraph v:spBefore="2"/><v:tabList/>分別<tspan class="st3">——</tspan>不得實法<tspan
						class="st3">——</tspan>不能通達<v:newlineChar/><tspan x="-0" dy="1.446em" class="st4">無分別</tspan><tspan
						class="st3">——</tspan>得實法<tspan class="st3">——</tspan>能通達一切</text>		</g>
		<g id="shape2-9" v:mID="2" v:groupContext="shape" transform="translate(0.75,-7.0789)">
			<title>工作表.2</title>
			<desc>云何能通達一切</desc>
			<v:textBlock v:margins="rect(0,0,0,0)" v:tabSpace="42.5197"/>
			<v:textRect cx="39.5059" cy="21.3595" width="79.02" height="13.5449"/>
			<rect x="0" y="14.587" width="79.0119" height="13.5449" class="st1"/>
			<text x="-0" y="24.47" class="st2" v:langID="1028"><v:paragraph/><v:tabList/>云何能通達一切</text>		</g>
		<g id="shape10-12" v:mID="10" v:groupContext="shape" transform="translate(100.173,5.39983) rotate(90)">
			<title>工作表.10</title>
			<path d="M0 19.65 C0 22.01 0.62 23.92 1.42 23.92 L7.08 23.92 C7.84 23.92 8.5 25.82 8.5 28.13 C8.5 25.77 9.13 23.92 9.93
						 23.92 L15.58 23.92 C16.38 23.92 17.01 22.01 17.01 19.65 L0 19.65 Z" class="st5"/>
			<path d="M0 19.65 C0 22.01 0.62 23.92 1.42 23.92 L7.08 23.92 C7.84 23.92 8.5 25.82 8.5 28.13 C8.5 25.77 9.13 23.92 9.93
						 23.92 L15.58 23.92 C16.38 23.92 17.01 22.01 17.01 19.65" class="st6"/>
		</g>
	</g>
</svg>
