<?xml version="1.0" encoding="UTF-8" standalone="no"?>
<!DOCTYPE svg PUBLIC "-//W3C//DTD SVG 1.1//EN" "http://www.w3.org/Graphics/SVG/1.1/DTD/svg11.dtd">
<!-- 由 Microsoft Visio, SVG Export 產生 F01603.svg 頁-1 -->
<svg xmlns="http://www.w3.org/2000/svg" xmlns:xlink="http://www.w3.org/1999/xlink" xmlns:ev="http://www.w3.org/2001/xml-events"
		xmlns:v="http://schemas.microsoft.com/visio/2003/SVGExtensions/" width="3.29318in" height="1.15504in"
		viewBox="0 0 237.109 83.1629" xml:space="preserve" color-interpolation-filters="sRGB" class="st6">
	<v:documentProperties v:langID="1028" v:viewMarkup="false"/>

	<style type="text/css">
	<![CDATA[
		.st1 {fill:none;stroke:none;stroke-linecap:butt;stroke-width:0.75}
		.st2 {fill:#000000;font-family:新細明體;font-size:0.833336em}
		.st3 {fill:none}
		.st4 {stroke:#000000;stroke-linecap:round;stroke-linejoin:round;stroke-width:0.235154}
		.st5 {stroke:#000000;stroke-linecap:round;stroke-linejoin:round;stroke-width:0.705463}
		.st6 {fill:none;fill-rule:evenodd;font-size:12px;overflow:visible;stroke-linecap:square;stroke-miterlimit:3}
	]]>
	</style>

	<g v:mID="0" v:index="1" v:groupContext="foregroundPage">
		<title>頁-1</title>
		<v:pageProperties v:drawingScale="0.0393701" v:pageScale="0.0393701" v:drawingUnits="24" v:shadowOffsetX="9"
				v:shadowOffsetY="-9"/>
		<g id="shape1-1" v:mID="1" v:groupContext="shape" transform="translate(60.2388,-68.4735) rotate(-0.2)">
			<title>工作表.1</title>
			<desc>不聞佛法則錯入餘道</desc>
			<v:textBlock v:margins="rect(0,0,0,0)" v:tabSpace="42.5197"/>
			<v:textRect cx="56.4371" cy="76.3904" width="112.88" height="13.5449"/>
			<rect x="0" y="69.618" width="112.874" height="13.5449" class="st1"/>
			<text x="0" y="79.5" class="st2" v:langID="1028"><v:paragraph/><v:tabList/>不聞佛法，則錯入餘道</text>		</g>
		<g id="shape2-4" v:mID="2" v:groupContext="shape" transform="translate(60.2979,-51.5425) rotate(-0.2)">
			<title>工作表.2</title>
			<desc>設少聞者未知行法多少</desc>
			<v:textBlock v:margins="rect(0,0,0,0)" v:tabSpace="42.5197"/>
			<v:textRect cx="62.0808" cy="76.3904" width="124.17" height="13.5449"/>
			<rect x="0" y="69.618" width="124.162" height="13.5449" class="st1"/>
			<text x="-0" y="79.5" class="st2" v:langID="1028"><v:paragraph/><v:tabList/>設少聞者，未知行法多少</text>		</g>
		<g id="shape3-7" v:mID="3" v:groupContext="shape" transform="translate(192.333,-51.9759) rotate(-0.2)">
			<title>工作表.3</title>
			<v:textBlock v:margins="rect(0,0,0,0)"/>
			<rect x="0" y="69.618" width="33.8622" height="13.5449" class="st1"/>
		</g>
		<g id="shape4-9" v:mID="4" v:groupContext="shape" transform="translate(213.494,-52.1729) rotate(-0.2)">
			<title>工作表.4</title>
			<desc>自行</desc>
			<v:textBlock v:margins="rect(0,0,0,0)" v:tabSpace="42.5197"/>
			<v:textRect cx="11.2874" cy="76.3904" width="22.58" height="13.5449"/>
			<rect x="0" y="69.618" width="22.5748" height="13.5449" class="st1"/>
			<text x="0" y="79.5" class="st2" v:langID="1028"><v:paragraph/><v:tabList/>自行</text>		</g>
		<g id="shape5-12" v:mID="5" v:groupContext="shape" transform="translate(0.506988,-34.3751) rotate(-0.2)">
			<title>工作表.5</title>
			<desc>常欲見佛</desc>
			<v:textBlock v:margins="rect(0,0,0,0)" v:tabSpace="42.5197"/>
			<v:textRect cx="22.5748" cy="76.3904" width="45.15" height="13.5449"/>
			<rect x="0" y="69.618" width="45.1496" height="13.5449" class="st1"/>
			<text x="0" y="79.5" class="st2" v:langID="1028"><v:paragraph/><v:tabList/>常欲見佛</text>		</g>
		<g id="shape6-15" v:mID="6" v:groupContext="shape" transform="translate(60.357,-34.6115) rotate(-0.2)">
			<title>工作表.6</title>
			<desc>聞見得心淨</desc>
			<v:textBlock v:margins="rect(0,0,0,0)" v:tabSpace="42.5197"/>
			<v:textRect cx="28.2185" cy="76.3904" width="56.44" height="13.5449"/>
			<rect x="0" y="69.618" width="56.4371" height="13.5449" class="st1"/>
			<text x="-0" y="79.5" class="st2" v:langID="1028"><v:paragraph/><v:tabList/>聞見得心淨</text>		</g>
		<g id="shape7-18" v:mID="7" v:groupContext="shape" transform="translate(60.4161,-17.6805) rotate(-0.2)">
			<title>工作表.7</title>
			<desc>聞法心則樂</desc>
			<v:textBlock v:margins="rect(0,0,0,0)" v:tabSpace="42.5197"/>
			<v:textRect cx="28.2185" cy="76.3904" width="56.44" height="13.5449"/>
			<rect x="0" y="69.618" width="56.4371" height="13.5449" class="st1"/>
			<text x="-0" y="79.5" class="st2" v:langID="1028"><v:paragraph/><v:tabList/>聞法心則樂</text>		</g>
		<g id="shape8-21" v:mID="8" v:groupContext="shape" transform="translate(131.187,-17.9957) rotate(-0.2)">
			<title>工作表.8</title>
			<desc>有大利益</desc>
			<v:textBlock v:margins="rect(0,0,0,0)" v:tabSpace="42.5197"/>
			<v:textRect cx="22.5748" cy="76.3904" width="45.15" height="13.5449"/>
			<rect x="0" y="69.618" width="45.1496" height="13.5449" class="st1"/>
			<text x="0" y="79.5" class="st2" v:langID="1028"><v:paragraph/><v:tabList/>有大利益</text>		</g>
		<g id="shape9-24" v:mID="9" v:groupContext="shape" transform="translate(60.4752,-0.749493) rotate(-0.2)">
			<title>工作表.9</title>
			<desc>隨行得解脫</desc>
			<v:textBlock v:margins="rect(0,0,0,0)" v:tabSpace="42.5197"/>
			<v:textRect cx="28.2185" cy="76.3904" width="56.44" height="13.5449"/>
			<rect x="0" y="69.618" width="56.4371" height="13.5449" class="st1"/>
			<text x="-0" y="79.5" class="st2" v:langID="1028"><v:paragraph/><v:tabList/>隨行得解脫</text>		</g>
		<g id="shape17-27" v:mID="17" v:groupContext="shape" transform="translate(127.672,7.64706) rotate(89.8)">
			<title>工作表.17</title>
			<path d="M0 71.34 C0 74.63 2.16 77.25 4.8 77.25 L29.72 77.25 C32.36 77.25 34.52 79.95 34.52 83.16 C34.52 79.95 36.68
						 77.25 39.32 77.25 L62.93 77.25 C65.56 77.25 67.72 74.63 67.72 71.34 L0 71.34 Z" class="st3"/>
			<path d="M0 71.34 C0 74.63 2.16 77.25 4.8 77.25 L29.72 77.25 C32.36 77.25 34.52 79.95 34.52 83.16 C34.52 79.95 36.68
						 77.25 39.32 77.25 L62.93 77.25 C65.56 77.25 67.72 74.63 67.72 71.34" class="st4"/>
		</g>
		<g id="shape18-30" v:mID="18" v:groupContext="shape" transform="translate(173.694,-58.8282) rotate(-0.2)">
			<title>工作表.18</title>
			<path d="M0 83.16 L33.2 83.16" class="st5"/>
		</g>
		<g id="shape19-33" v:mID="19" v:groupContext="shape" transform="translate(201.403,-68.9005) rotate(23.4002)">
			<title>工作表.19</title>
			<path d="M0 83.16 L42.29 83.16" class="st5"/>
		</g>
		<g id="shape20-36" v:mID="20" v:groupContext="shape" transform="translate(199.085,41.1954) rotate(89.8)">
			<title>工作表.20</title>
			<path d="M0 83.16 C0 79.98 0.28 77.31 0.66 77.31 L15.99 77.31 C16.37 77.31 16.65 74.71 16.65 71.45 C16.65 74.71 16.93
						 77.31 17.31 77.31 L33.39 77.31 C33.77 77.31 34.05 79.98 34.05 83.16 L0 83.16 Z" class="st3"/>
			<path d="M0 83.16 C0 79.98 0.28 77.31 0.66 77.31 L15.99 77.31 C16.37 77.31 16.65 74.71 16.65 71.45 C16.65 74.71 16.93
						 77.31 17.31 77.31 L33.39 77.31 C33.77 77.31 34.05 79.98 34.05 83.16" class="st4"/>
		</g>
	</g>
</svg>
