<?xml version="1.0" encoding="UTF-8" standalone="no"?>
<!DOCTYPE svg PUBLIC "-//W3C//DTD SVG 1.1//EN" "http://www.w3.org/Graphics/SVG/1.1/DTD/svg11.dtd">
<!-- 由 Microsoft Visio, SVG Export 產生 A01204.svg 頁-1 -->
<svg xmlns="http://www.w3.org/2000/svg" xmlns:xlink="http://www.w3.org/1999/xlink" xmlns:ev="http://www.w3.org/2001/xml-events"
		xmlns:v="http://schemas.microsoft.com/visio/2003/SVGExtensions/" width="2.42284in" height="0.440125in"
		viewBox="0 0 174.444 31.689" xml:space="preserve" color-interpolation-filters="sRGB" class="st7">
	<v:documentProperties v:langID="1028" v:viewMarkup="false"/>

	<style type="text/css">
	<![CDATA[
		.st1 {fill:none;stroke:none;stroke-linecap:butt;stroke-width:0.75}
		.st2 {fill:#000000;font-family:新細明體;font-size:0.833336em}
		.st3 {font-family:Times New Roman;font-size:1em}
		.st4 {font-size:1em}
		.st5 {fill:none}
		.st6 {stroke:#040000;stroke-linecap:round;stroke-linejoin:round;stroke-width:0.705463}
		.st7 {fill:none;fill-rule:evenodd;font-size:12px;overflow:visible;stroke-linecap:square;stroke-miterlimit:3}
	]]>
	</style>

	<g v:mID="0" v:index="1" v:groupContext="foregroundPage">
		<title>頁-1</title>
		<v:pageProperties v:drawingScale="0.0393701" v:pageScale="0.0393701" v:drawingUnits="24" v:shadowOffsetX="9"
				v:shadowOffsetY="-9"/>
		<g id="shape1-1" v:mID="1" v:groupContext="shape" transform="translate(62.5142,-0.75)">
			<title>工作表.1</title>
			<desc>密音聲———為出世聖人 不密音聲——為世間凡夫</desc>
			<v:textBlock v:margins="rect(0,0,0,0)" v:tabSpace="42.5197"/>
			<v:textRect cx="55.5901" cy="16.5945" width="111.19" height="30.189"/>
			<rect x="0" y="1.5" width="111.18" height="30.189" class="st1"/>
			<text x="0" y="12.48" class="st2" v:langID="1028"><v:paragraph v:spBefore="2"/><v:tabList/>密音聲<tspan class="st3">———</tspan>為出世聖人<v:newlineChar/><tspan
						x="0" dy="1.446em" class="st4">不密音聲</tspan><tspan class="st3">——</tspan>為世間凡夫</text>		</g>
		<g id="shape2-7" v:mID="2" v:groupContext="shape" transform="translate(0.75,-8.49623)">
			<title>工作表.2</title>
			<desc>佛二種音聲</desc>
			<v:textBlock v:margins="rect(0,0,0,0)" v:tabSpace="42.5197"/>
			<v:textRect cx="28.2185" cy="24.9165" width="56.44" height="13.5449"/>
			<rect x="0" y="18.1441" width="56.4371" height="13.5449" class="st1"/>
			<text x="-0" y="28.03" class="st2" v:langID="1028"><v:paragraph/><v:tabList/>佛二種音聲</text>		</g>
		<g id="shape10-10" v:mID="10" v:groupContext="shape" transform="translate(84.2819,8.89658) rotate(90)">
			<title>工作表.10</title>
			<path d="M0 23.31 C0 25.6 0.56 27.5 1.27 27.5 L6.48 27.5 C7.2 27.5 7.8 29.39 7.8 31.69 C7.8 29.39 8.35 27.5 9.07 27.5
						 L14.28 27.5 C14.99 27.5 15.59 25.6 15.59 23.31 L0 23.31 Z" class="st5"/>
			<path d="M0 23.31 C0 25.6 0.56 27.5 1.27 27.5 L6.48 27.5 C7.2 27.5 7.8 29.39 7.8 31.69 C7.8 29.39 8.35 27.5 9.07 27.5
						 L14.28 27.5 C14.99 27.5 15.59 25.6 15.59 23.31" class="st6"/>
		</g>
	</g>
</svg>
