<?xml version="1.0" encoding="UTF-8" standalone="no"?>
<!DOCTYPE svg PUBLIC "-//W3C//DTD SVG 1.1//EN" "http://www.w3.org/Graphics/SVG/1.1/DTD/svg11.dtd">
<!-- 由 Microsoft Visio, SVG Export 產生 F2101.svg 頁-1 -->
<svg xmlns="http://www.w3.org/2000/svg" xmlns:xlink="http://www.w3.org/1999/xlink" xmlns:ev="http://www.w3.org/2001/xml-events"
		xmlns:v="http://schemas.microsoft.com/visio/2003/SVGExtensions/" width="5.54203in" height="0.4407in"
		viewBox="0 0 399.026 31.7304" xml:space="preserve" color-interpolation-filters="sRGB" class="st5">
	<v:documentProperties v:langID="1028" v:viewMarkup="false"/>

	<style type="text/css">
	<![CDATA[
		.st1 {fill:none;stroke:none;stroke-linecap:butt;stroke-width:0.75}
		.st2 {fill:#000000;font-family:新細明體;font-size:0.940613em}
		.st3 {fill:none}
		.st4 {stroke:#000000;stroke-linecap:round;stroke-linejoin:round;stroke-width:0.705463}
		.st5 {fill:none;fill-rule:evenodd;font-size:12px;overflow:visible;stroke-linecap:square;stroke-miterlimit:3}
	]]>
	</style>

	<g v:mID="0" v:index="1" v:groupContext="foregroundPage">
		<title>頁-1</title>
		<v:pageProperties v:drawingScale="0.0393701" v:pageScale="0.0393701" v:drawingUnits="24" v:shadowOffsetX="9"
				v:shadowOffsetY="-9"/>
		<g id="shape2-1" v:mID="2" v:groupContext="shape" transform="translate(104.576,-17.199) rotate(-0.2)">
			<title>工作表.2</title>
			<desc>且說滿世間願</desc>
			<v:textBlock v:margins="rect(0,0,0,0)" v:tabSpace="42.5197"/>
			<v:textRect cx="33.8622" cy="24.958" width="67.73" height="13.5449"/>
			<rect x="0" y="18.1855" width="67.7245" height="13.5449" class="st1"/>
			<text x="0" y="28.47" class="st2" v:langID="1028"><v:paragraph/><v:tabList/>且說滿世間願</text>		</g>
		<g id="shape3-4" v:mID="3" v:groupContext="shape" transform="translate(0.686521,-7.56803) rotate(-0.2)">
			<title>工作表.3</title>
			<desc>菩薩滿眾生一切願</desc>
			<v:textBlock v:margins="rect(0,0,0,0)" v:tabSpace="42.5197"/>
			<v:textRect cx="45.1496" cy="24.958" width="90.3" height="13.5449"/>
			<rect x="0" y="18.1855" width="90.2993" height="13.5449" class="st1"/>
			<text x="0" y="28.47" class="st2" v:langID="1028"><v:paragraph/><v:tabList/>菩薩滿眾生一切願</text>		</g>
		<g id="shape4-7" v:mID="4" v:groupContext="shape" transform="translate(104.694,-0.749807) rotate(-0.2)">
			<title>工作表.4</title>
			<desc>且說應可得</desc>
			<v:textBlock v:margins="rect(0,0,0,0)" v:tabSpace="42.5197"/>
			<v:textRect cx="28.2185" cy="24.958" width="56.44" height="13.5449"/>
			<rect x="0" y="18.1855" width="56.4371" height="13.5449" class="st1"/>
			<text x="0" y="28.47" class="st2" v:langID="1028"><v:paragraph/><v:tabList/>且說應可得</text>		</g>
		<g id="shape5-10" v:mID="5" v:groupContext="shape" transform="translate(161.131,-0.946809) rotate(-0.2)">
			<title>工作表.5</title>
			<desc>者</desc>
			<v:textBlock v:margins="rect(0,0,0,0)" v:tabSpace="42.5197"/>
			<v:textRect cx="5.64371" cy="24.958" width="11.29" height="13.5449"/>
			<rect x="0" y="18.1855" width="11.2874" height="13.5449" class="st1"/>
			<text x="-0" y="28.47" class="st2" v:langID="1028"><v:paragraph/><v:tabList/>者</text>		</g>
		<g id="shape6-13" v:mID="6" v:groupContext="shape" transform="translate(172.419,-0.986209) rotate(-0.2)">
			<title>工作表.6</title>
			<desc>菩薩心及福德無量但眾生罪障有得不得。</desc>
			<v:textBlock v:margins="rect(0,0,0,0)" v:tabSpace="42.5197"/>
			<v:textRect cx="112.874" cy="24.958" width="225.75" height="13.5449"/>
			<rect x="0" y="18.1855" width="225.748" height="13.5449" class="st1"/>
			<text x="-0" y="28.47" class="st2" v:langID="1028"><v:paragraph/><v:tabList/>，菩薩心及福德無量，但眾生罪障有得不得。</text>		</g>
		<g id="shape18-16" v:mID="18" v:groupContext="shape" transform="translate(124.985,3.00024) rotate(89.8)">
			<title>工作表.18</title>
			<path d="M0 23.26 C0 25.62 1.03 27.5 2.2 27.5 L10.98 27.5 C12.23 27.5 13.18 29.38 13.18 31.73 C13.18 29.38 14.21 27.5
						 15.38 27.5 L24.17 27.5 C25.41 27.5 26.36 25.62 26.36 23.26 L0 23.26 Z" class="st3"/>
			<path d="M0 23.26 C0 25.62 1.03 27.5 2.2 27.5 L10.98 27.5 C12.23 27.5 13.18 29.38 13.18 31.73 C13.18 29.38 14.21 27.5
						 15.38 27.5 L24.17 27.5 C25.41 27.5 26.36 25.62 26.36 23.26" class="st4"/>
		</g>
	</g>
</svg>
