<?xml version="1.0" encoding="UTF-8" standalone="no"?>
<!DOCTYPE svg PUBLIC "-//W3C//DTD SVG 1.1//EN" "http://www.w3.org/Graphics/SVG/1.1/DTD/svg11.dtd">
<!-- 由 Microsoft Visio, SVG Export 產生 F01604.svg 頁-1 -->
<svg xmlns="http://www.w3.org/2000/svg" xmlns:xlink="http://www.w3.org/1999/xlink" xmlns:ev="http://www.w3.org/2001/xml-events"
		xmlns:v="http://schemas.microsoft.com/visio/2003/SVGExtensions/" width="5.75541in" height="1.59275in"
		viewBox="0 0 414.39 114.678" xml:space="preserve" color-interpolation-filters="sRGB" class="st6">
	<v:documentProperties v:langID="1028" v:viewMarkup="false"/>

	<style type="text/css">
	<![CDATA[
		.st1 {fill:none;stroke:none;stroke-linecap:butt;stroke-width:0.75}
		.st2 {fill:#000000;font-family:新細明體;font-size:0.833336em}
		.st3 {fill:none}
		.st4 {stroke:#000000;stroke-linecap:round;stroke-linejoin:round;stroke-width:0.235154}
		.st5 {stroke:#000000;stroke-linecap:round;stroke-linejoin:round;stroke-width:0.705463}
		.st6 {fill:none;fill-rule:evenodd;font-size:12px;overflow:visible;stroke-linecap:square;stroke-miterlimit:3}
	]]>
	</style>

	<g v:mID="0" v:index="1" v:groupContext="foregroundPage">
		<title>頁-1</title>
		<v:pageProperties v:drawingScale="0.0393701" v:pageScale="0.0393701" v:drawingUnits="24" v:shadowOffsetX="9"
				v:shadowOffsetY="-9"/>
		<g id="shape1-1" v:mID="1" v:groupContext="shape" transform="translate(266.659,-100.304) rotate(-0.2)">
			<title>工作表.1</title>
			<desc>大乘</desc>
			<v:textBlock v:margins="rect(0,0,0,0)" v:tabSpace="42.5197"/>
			<v:textRect cx="11.2874" cy="107.906" width="22.58" height="13.5449"/>
			<rect x="0" y="101.133" width="22.5748" height="13.5449" class="st1"/>
			<text x="0" y="111.02" class="st2" v:langID="1028"><v:paragraph/><v:tabList/>大乘</text>		</g>
		<g id="shape2-4" v:mID="2" v:groupContext="shape" transform="translate(60.2929,-82.5595) rotate(-0.2)">
			<title>工作表.2</title>
			<desc>令行大乘法。</desc>
			<v:textBlock v:margins="rect(0,0,0,0)" v:tabSpace="42.5197"/>
			<v:textRect cx="33.8622" cy="107.906" width="67.73" height="13.5449"/>
			<rect x="0" y="101.133" width="67.7245" height="13.5449" class="st1"/>
			<text x="0" y="111.02" class="st2" v:langID="1028"><v:paragraph/><v:tabList/>令行大乘法。</text>		</g>
		<g id="shape3-7" v:mID="3" v:groupContext="shape" transform="translate(150.964,-82.7959) rotate(-0.2)">
			<title>工作表.3</title>
			<v:textBlock v:margins="rect(0,0,0,0)"/>
			<rect x="0" y="101.133" width="189.064" height="13.5449" class="st1"/>
		</g>
		<g id="shape4-9" v:mID="4" v:groupContext="shape" transform="translate(183.75,-83.0774) rotate(-0.2)">
			<title>工作表.4</title>
			<desc>可通華嚴</desc>
			<v:textBlock v:margins="rect(0,0,0,0)" v:tabSpace="42.5197"/>
			<v:textRect cx="22.5748" cy="107.906" width="45.15" height="13.5449"/>
			<rect x="0" y="101.133" width="45.1496" height="13.5449" class="st1"/>
			<text x="-0" y="111.02" class="st2" v:langID="1028"><v:paragraph/><v:tabList/>可通華嚴</text>		</g>
		<g id="shape5-12" v:mID="5" v:groupContext="shape" transform="translate(266.718,-83.3729) rotate(-0.2)">
			<title>工作表.5</title>
			<desc>辟支。</desc>
			<v:textBlock v:margins="rect(0,0,0,0)" v:tabSpace="42.5197"/>
			<v:textRect cx="33.8622" cy="107.906" width="67.73" height="13.5449"/>
			<rect x="0" y="101.133" width="67.7245" height="13.5449" class="st1"/>
			<text x="0" y="111.02" class="st2" v:langID="1028"><v:paragraph/><v:tabList/>辟支。</text>		</g>
		<g id="shape14-15" v:mID="14" v:groupContext="shape" transform="translate(60.0673,-65.6242) rotate(-0.2)">
			<title>工作表.14</title>
			<desc>不堪與二乘法</desc>
			<v:textBlock v:margins="rect(0,0,0,0)" v:tabSpace="42.5197"/>
			<v:textRect cx="39.5059" cy="107.906" width="79.02" height="13.5449"/>
			<rect x="0" y="101.133" width="79.0119" height="13.5449" class="st1"/>
			<text x="-0" y="111.02" class="st2" v:langID="1028"><v:paragraph/><v:tabList/>不堪，與二乘法</text>		</g>
		<g id="shape15-18" v:mID="15" v:groupContext="shape" transform="translate(161.013,-65.9) rotate(-0.2)">
			<title>工作表.15</title>
			<v:textBlock v:margins="rect(0,0,0,0)"/>
			<rect x="0" y="101.133" width="158.024" height="13.5449" class="st1"/>
		</g>
		<g id="shape16-20" v:mID="16" v:groupContext="shape" transform="translate(266.777,-66.4419) rotate(-0.2)">
			<title>工作表.16</title>
			<desc>聲聞</desc>
			<v:textBlock v:margins="rect(0,0,0,0)" v:tabSpace="42.5197"/>
			<v:textRect cx="11.2874" cy="107.906" width="22.58" height="13.5449"/>
			<rect x="0" y="101.133" width="22.5748" height="13.5449" class="st1"/>
			<text x="-0" y="111.02" class="st2" v:langID="1028"><v:paragraph/><v:tabList/>聲聞</text>		</g>
		<g id="shape17-23" v:mID="17" v:groupContext="shape" transform="translate(0.396979,-48.4077) rotate(-0.2)">
			<title>工作表.17</title>
			<desc>菩薩利生</desc>
			<v:textBlock v:margins="rect(0,0,0,0)" v:tabSpace="42.5197"/>
			<v:textRect cx="22.5748" cy="107.906" width="45.15" height="13.5449"/>
			<rect x="0" y="101.133" width="45.1496" height="13.5449" class="st1"/>
			<text x="0" y="111.02" class="st2" v:langID="1028"><v:paragraph/><v:tabList/>菩薩利生</text>		</g>
		<g id="shape18-26" v:mID="18" v:groupContext="shape" transform="translate(266.836,-49.5109) rotate(-0.2)">
			<title>工作表.18</title>
			<desc>無色定</desc>
			<v:textBlock v:margins="rect(0,0,0,0)" v:tabSpace="42.5197"/>
			<v:textRect cx="16.9311" cy="107.906" width="33.87" height="13.5449"/>
			<rect x="0" y="101.133" width="33.8622" height="13.5449" class="st1"/>
			<text x="0" y="111.02" class="st2" v:langID="1028"><v:paragraph/><v:tabList/>無色定</text>		</g>
		<g id="shape19-29" v:mID="19" v:groupContext="shape" transform="translate(60.1393,-31.7722) rotate(-0.2)">
			<title>工作表.19</title>
			<desc>不能與十善四梵行</desc>
			<v:textBlock v:margins="rect(0,0,0,0)" v:tabSpace="42.5197"/>
			<v:textRect cx="50.7933" cy="107.906" width="101.59" height="13.5449"/>
			<rect x="0" y="101.133" width="101.587" height="13.5449" class="st1"/>
			<text x="-0" y="111.02" class="st2" v:langID="1028"><v:paragraph/><v:tabList/>不能，與十善四梵行</text>		</g>
		<g id="shape20-32" v:mID="20" v:groupContext="shape" transform="translate(184.021,-32.2647) rotate(-0.2)">
			<title>工作表.20</title>
			<desc>令修褔</desc>
			<v:textBlock v:margins="rect(0,0,0,0)" v:tabSpace="42.5197"/>
			<v:textRect cx="16.9311" cy="107.906" width="33.87" height="13.5449"/>
			<rect x="0" y="101.133" width="33.8622" height="13.5449" class="st1"/>
			<text x="0" y="111.02" class="st2" v:langID="1028"><v:paragraph/><v:tabList/>令修褔</text>		</g>
		<g id="shape21-35" v:mID="21" v:groupContext="shape" transform="translate(210.459,-32.3829) rotate(-0.2)">
			<title>工作表.21</title>
			<v:textBlock v:margins="rect(0,0,0,0)"/>
			<rect x="0" y="101.133" width="33.8622" height="13.5449" class="st1"/>
		</g>
		<g id="shape22-37" v:mID="22" v:groupContext="shape" transform="translate(266.895,-32.5799) rotate(-0.2)">
			<title>工作表.22</title>
			<desc>色定</desc>
			<v:textBlock v:margins="rect(0,0,0,0)" v:tabSpace="42.5197"/>
			<v:textRect cx="11.2874" cy="107.906" width="22.58" height="13.5449"/>
			<rect x="0" y="101.133" width="22.5748" height="13.5449" class="st1"/>
			<text x="-0" y="111.02" class="st2" v:langID="1028"><v:paragraph/><v:tabList/>色定</text>		</g>
		<g id="shape23-40" v:mID="23" v:groupContext="shape" transform="translate(60.1984,-14.8412) rotate(-0.2)">
			<title>工作表.23</title>
			<desc>不能與飲食等</desc>
			<v:textBlock v:margins="rect(0,0,0,0)" v:tabSpace="42.5197"/>
			<v:textRect cx="39.5059" cy="107.906" width="79.02" height="13.5449"/>
			<rect x="0" y="101.133" width="79.0119" height="13.5449" class="st1"/>
			<text x="0" y="111.02" class="st2" v:langID="1028"><v:paragraph/><v:tabList/>不能，與飲食等</text>		</g>
		<g id="shape24-43" v:mID="24" v:groupContext="shape" transform="translate(266.954,-16.3238) rotate(-0.2)">
			<title>工作表.24</title>
			<desc>十善</desc>
			<v:textBlock v:margins="rect(0,0,0,0)" v:tabSpace="42.5197"/>
			<v:textRect cx="11.2874" cy="107.906" width="22.58" height="13.5449"/>
			<rect x="0" y="101.133" width="22.5748" height="13.5449" class="st1"/>
			<text x="0" y="111.02" class="st2" v:langID="1028"><v:paragraph/><v:tabList/>十善</text>		</g>
		<g id="shape25-46" v:mID="25" v:groupContext="shape" transform="translate(267.244,-0.749301) rotate(-0.2)">
			<title>工作表.25</title>
			<desc>除此更不能當以慈悲心利益。</desc>
			<v:textBlock v:margins="rect(0,0,0,0)" v:tabSpace="42.5197"/>
			<v:textRect cx="72.998" cy="107.906" width="146" height="13.5449"/>
			<rect x="0" y="101.133" width="145.996" height="13.5449" class="st1"/>
			<text x="0" y="111.02" class="st2" v:langID="1028"><v:paragraph/><v:tabList/>除此更不能，當以慈悲心利益。</text>		</g>
		<g id="shape33-49" v:mID="33" v:groupContext="shape" transform="translate(158.937,25) rotate(89.8)">
			<title>工作表.33</title>
			<path d="M0 101.25 C0 104.96 3.29 107.97 7.52 107.97 L27.09 107.97 C31.23 107.97 34.61 110.97 34.61 114.68 C34.61 110.97
						 38 107.97 42.14 107.97 L60.29 107.97 C64.43 107.97 67.82 104.96 67.82 101.25 L0 101.25 Z" class="st3"/>
			<path d="M0 101.25 C0 104.96 3.29 107.97 7.52 107.97 L27.09 107.97 C31.23 107.97 34.61 110.97 34.61 114.68 C34.61 110.97
						 38 107.97 42.14 107.97 L60.29 107.97 C64.43 107.97 67.82 104.96 67.82 101.25" class="st4"/>
		</g>
		<g id="shape34-52" v:mID="34" v:groupContext="shape" transform="translate(278.921,-78.6114) rotate(25.03)">
			<title>工作表.34</title>
			<path d="M0 114.68 L37.21 114.68" class="st5"/>
		</g>
		<g id="shape35-55" v:mID="35" v:groupContext="shape" transform="translate(178.758,-77.7696) rotate(-26.7651)">
			<title>工作表.35</title>
			<path d="M0 114.68 L37.86 114.68" class="st5"/>
		</g>
		<g id="shape36-58" v:mID="36" v:groupContext="shape" transform="translate(229.666,-89.6404) rotate(-0.2)">
			<title>工作表.36</title>
			<path d="M0 114.68 L33.86 114.68" class="st5"/>
		</g>
		<g id="shape37-61" v:mID="37" v:groupContext="shape" transform="translate(152.947,-38.9669) rotate(-0.2)">
			<title>工作表.37</title>
			<path d="M0 114.68 L25.4 114.68" class="st5"/>
		</g>
		<g id="shape38-64" v:mID="38" v:groupContext="shape" transform="translate(221.328,-38.6015) rotate(-0.191253)">
			<title>工作表.38</title>
			<path d="M0 114.68 L42.52 114.68" class="st5"/>
		</g>
		<g id="shape39-67" v:mID="39" v:groupContext="shape" transform="translate(180.379,-30.8948) rotate(-21.1257)">
			<title>工作表.39</title>
			<path d="M0 114.68 L45.52 114.68" class="st5"/>
		</g>
		<g id="shape40-70" v:mID="40" v:groupContext="shape" transform="translate(289.925,-16.1082) rotate(36.5005)">
			<title>工作表.40</title>
			<path d="M0 114.68 L51.05 114.68" class="st5"/>
		</g>
		<g id="shape41-73" v:mID="41" v:groupContext="shape" transform="translate(253.068,-34.2316) rotate(15.8692)">
			<title>工作表.41</title>
			<path d="M0 114.68 L43.27 114.68" class="st5"/>
		</g>
	</g>
</svg>
