<?xml version="1.0" encoding="UTF-8" standalone="no"?>
<!DOCTYPE svg PUBLIC "-//W3C//DTD SVG 1.1//EN" "http://www.w3.org/Graphics/SVG/1.1/DTD/svg11.dtd">
<!-- 由 Microsoft Visio, SVG Export 產生 M031.130=F02201.svg 頁-1 -->
<svg xmlns="http://www.w3.org/2000/svg" xmlns:xlink="http://www.w3.org/1999/xlink" xmlns:ev="http://www.w3.org/2001/xml-events"
		xmlns:v="http://schemas.microsoft.com/visio/2003/SVGExtensions/" width="8.40051in" height="2.83658in"
		viewBox="0 0 604.837 204.234" xml:space="preserve" color-interpolation-filters="sRGB" class="st6">
	<v:documentProperties v:langID="1028" v:viewMarkup="false"/>

	<style type="text/css">
	<![CDATA[
		.st1 {fill:none;stroke:none;stroke-linecap:butt;stroke-width:0.75}
		.st2 {fill:#000000;font-family:新細明體;font-size:0.833336em}
		.st3 {font-size:1em;font-weight:bold}
		.st4 {fill:none}
		.st5 {stroke:#000000;stroke-linecap:round;stroke-linejoin:round;stroke-width:0.705463}
		.st6 {fill:none;fill-rule:evenodd;font-size:12px;overflow:visible;stroke-linecap:square;stroke-miterlimit:3}
	]]>
	</style>

	<g v:mID="0" v:index="1" v:groupContext="foregroundPage">
		<title>頁-1</title>
		<v:pageProperties v:drawingScale="0.0393701" v:pageScale="0.0393701" v:drawingUnits="24" v:shadowOffsetX="9"
				v:shadowOffsetY="-9"/>
		<g id="group52-1" transform="translate(0.75,-0.75)" v:mID="52" v:groupContext="group">
			<title>工作表.52</title>
			<g id="shape2-2" v:mID="2" v:groupContext="shape" transform="translate(106.722,-188.439) rotate(-0.2)">
				<title>工作表.2</title>
				<desc>問無始若是空經中何故宣說生死無始</desc>
				<v:textBlock v:margins="rect(0,0,0,0)" v:tabSpace="42.5197"/>
				<v:textRect cx="107.23" cy="197.461" width="214.47" height="13.5449"/>
				<rect x="0" y="190.689" width="214.461" height="13.5449" class="st1"/>
				<text x="0" y="200.58" class="st2" v:langID="1028"><v:paragraph/><v:tabList/>問：無始若是空，經中何故宣說生死無始？</text>			</g>
			<g id="shape3-5" v:mID="3" v:groupContext="shape" transform="translate(106.781,-171.508) rotate(-0.2)">
				<title>工作表.3</title>
				<desc>答</desc>
				<v:textBlock v:margins="rect(0,0,0,0)" v:tabSpace="42.5197"/>
				<v:textRect cx="11.2874" cy="197.461" width="22.58" height="13.5449"/>
				<rect x="0" y="190.689" width="22.5748" height="13.5449" class="st1"/>
				<text x="0" y="200.58" class="st2" v:langID="1028"><v:paragraph/><v:tabList/>答：</text>			</g>
			<g id="shape4-8" v:mID="4" v:groupContext="shape" transform="translate(151.931,-171.666) rotate(-0.2)">
				<title>工作表.4</title>
				<desc>一、正答</desc>
				<v:textBlock v:margins="rect(0,0,0,0)" v:tabSpace="42.5197"/>
				<v:textRect cx="22.5748" cy="197.461" width="45.15" height="13.5449"/>
				<rect x="0" y="190.689" width="45.1496" height="13.5449" class="st1"/>
				<text x="0" y="200.58" class="st2" v:langID="1028"><v:paragraph/><v:tabList/>一、正答</text>			</g>
			<g id="shape5-11" v:mID="5" v:groupContext="shape" transform="translate(217.292,-171.902) rotate(-0.2)">
				<title>工作表.5</title>
				<desc>無始雖是邊為令心厭說無始非謂無始是實有喻如無常。</desc>
				<v:textBlock v:margins="rect(0,0,0,0)" v:tabSpace="42.5197"/>
				<v:textRect cx="135.975" cy="197.461" width="271.95" height="13.5449"/>
				<rect x="0" y="190.689" width="271.95" height="13.5449" class="st1"/>
				<text x="-0" y="200.58" class="st2" v:langID="1028"><v:paragraph/><v:tabList/>無始雖是邊，為令心厭說無始，非謂無始是實有，喻如無常。</text>			</g>
			<g id="shape6-14" v:mID="6" v:groupContext="shape" transform="translate(171.612,-154.814) rotate(-0.2)">
				<title>工作表.6</title>
				<desc>遣難</desc>
				<v:textBlock v:margins="rect(0,0,0,0)" v:tabSpace="42.5197"/>
				<v:textRect cx="11.2874" cy="197.461" width="22.58" height="13.5449"/>
				<rect x="0" y="190.689" width="22.5748" height="13.5449" class="st1"/>
				<text x="0" y="200.58" class="st2" v:langID="1028"><v:paragraph/><v:tabList/>遣難</text>			</g>
			<g id="shape7-17" v:mID="7" v:groupContext="shape" transform="translate(216.761,-154.971) rotate(-0.2)">
				<title>工作表.7</title>
				<desc>難無始非實法云何以度人</desc>
				<v:textBlock v:margins="rect(0,0,0,0)" v:tabSpace="42.5197"/>
				<v:textRect cx="79.0119" cy="197.461" width="158.03" height="13.5449"/>
				<rect x="0" y="190.689" width="158.024" height="13.5449" class="st1"/>
				<text x="-0" y="200.58" class="st2" v:langID="1028"><v:paragraph/><v:tabList/>難：無始非實法，云何以度人？</text>			</g>
			<g id="shape8-20" v:mID="8" v:groupContext="shape" transform="translate(216.82,-138.04) rotate(-0.2)">
				<title>工作表.8</title>
				<desc>答實法無可說言說皆虛誑佛以方便力無著心為說聞者心無著則得心厭離。</desc>
				<v:textBlock v:margins="rect(0,0,0,0)" v:tabSpace="42.5197"/>
				<v:textRect cx="190.069" cy="197.461" width="380.14" height="13.5449"/>
				<rect x="0" y="190.689" width="380.137" height="13.5449" class="st1"/>
				<text x="-0" y="200.58" class="st2" v:langID="1028"><v:paragraph/><v:tabList/>答：實法無可說，言說皆虛誑，佛以方便力，無著心為說，聞者心無著，則得心厭離。</text>			</g>
			<g id="shape9-23" v:mID="9" v:groupContext="shape" transform="translate(-0.665629,-116.91) rotate(-0.2)">
				<title>工作表.9</title>
				<desc>有始無始之抉擇</desc>
				<v:textBlock v:margins="rect(0,0,0,0)" v:tabSpace="42.5197"/>
				<v:textRect cx="39.5059" cy="197.461" width="79.02" height="13.5449"/>
				<rect x="0" y="190.689" width="79.0119" height="13.5449" class="st1"/>
				<text x="0" y="200.58" class="st2" v:langID="1028"><v:paragraph/><v:tabList/>有始無始之抉擇</text>			</g>
			<g id="shape10-26" v:mID="10" v:groupContext="shape" transform="translate(152.108,-120.873) rotate(-0.2)">
				<title>工作表.10</title>
				<desc>二、宿命緣生死能起無始見眾生多計始故以無始除。如無常雖不實眾生多著常故以無常破。</desc>
				<v:textBlock v:margins="rect(0,0,0,0)"/>
				<v:textRect cx="225.259" cy="197.461" width="450.52" height="13.5449"/>
				<rect x="0" y="190.689" width="450.519" height="13.5449" class="st1"/>
				<text x="0" y="200.58" class="st2" v:langID="1028"><v:paragraph/><v:tabList/>二、宿命緣生死，能起無始見，眾生多計始，故以無始除。如無常雖不實，眾生多著常，故以無常破。</text>			</g>
			<g id="shape11-29" v:mID="11" v:groupContext="shape" transform="translate(107.018,-103.784) rotate(-0.2)">
				<title>工作表.11</title>
				<desc>問有始亦邪見何但破無始</desc>
				<v:textBlock v:margins="rect(0,0,0,0)" v:tabSpace="42.5197"/>
				<v:textRect cx="79.0119" cy="197.461" width="158.03" height="13.5449"/>
				<rect x="0" y="190.689" width="158.024" height="13.5449" class="st1"/>
				<text x="0" y="200.58" class="st2" v:langID="1028"><v:paragraph/><v:tabList/>問：有始亦邪見，何但破無始？</text>			</g>
			<g id="shape12-32" v:mID="12" v:groupContext="shape" transform="translate(107.077,-86.8531) rotate(-0.2)">
				<title>工作表.12</title>
				<desc>答</desc>
				<v:textBlock v:margins="rect(0,0,0,0)" v:tabSpace="42.5197"/>
				<v:textRect cx="11.2874" cy="197.461" width="22.58" height="13.5449"/>
				<rect x="0" y="190.689" width="22.5748" height="13.5449" class="st1"/>
				<text x="0" y="200.58" class="st2" v:langID="1028"><v:paragraph/><v:tabList/>答：</text>			</g>
			<g id="shape13-35" v:mID="13" v:groupContext="shape" transform="translate(144.376,-87.0107) rotate(-0.2)">
				<title>工作表.13</title>
				<desc>有始大邪見先來久已捨或起無始見故說無始空。</desc>
				<v:textBlock v:margins="rect(0,0,0,0)" v:tabSpace="42.5197"/>
				<v:textRect cx="135.449" cy="197.461" width="270.9" height="13.5449"/>
				<rect x="0" y="190.689" width="270.898" height="13.5449" class="st1"/>
				<text x="0" y="200.58" class="st2" v:langID="1028"><v:paragraph/><v:tabList/>有始大邪見，先來久已捨，或起無始見，故說無始空。</text>			</g>
			<g id="shape14-38" v:mID="14" v:groupContext="shape" transform="translate(144.435,-70.0797) rotate(-0.2)">
				<title>工作表.14</title>
				<desc>無始破有始空復破有始。</desc>
				<v:textBlock v:margins="rect(0,0,0,0)" v:tabSpace="42.5197"/>
				<v:textRect cx="67.7245" cy="197.461" width="135.45" height="13.5449"/>
				<rect x="0" y="190.689" width="135.449" height="13.5449" class="st1"/>
				<text x="0" y="200.58" class="st2" v:langID="1028"><v:paragraph/><v:tabList/>無始破有始，空復<tspan class="st3">破有始</tspan>。</text>			</g>
			<g id="shape15-42" v:mID="15" v:groupContext="shape" transform="translate(263.879,-70.4966) rotate(-0.2)">
				<title>工作表.15</title>
				<desc>〔案導師筆記原作「破有始」依文義應作「破無始」</desc>
				<v:textBlock v:margins="rect(0,0,0,0)" v:tabSpace="42.5197"/>
				<v:textRect cx="126.57" cy="197.461" width="253.15" height="13.5449"/>
				<rect x="0" y="190.689" width="253.14" height="13.5449" class="st1"/>
				<text x="-0" y="200.58" class="st2" v:langID="1028"><v:paragraph/><v:tabList/>〔案：導師筆記原作「破有始」，依文義應作「破無始」</text>			</g>
			<g id="shape16-45" v:mID="16" v:groupContext="shape" transform="translate(448.252,-71.1834) rotate(-0.2)">
				<title>工作表.16</title>
				<desc>〕</desc>
				<v:textBlock v:margins="rect(0,0,0,0)" v:tabSpace="42.5197"/>
				<v:textRect cx="5.64371" cy="197.461" width="11.29" height="13.5449"/>
				<rect x="0" y="190.689" width="11.2874" height="13.5449" class="st1"/>
				<text x="0" y="200.58" class="st2" v:langID="1028"><v:paragraph/><v:tabList/>〕</text>			</g>
			<g id="shape17-48" v:mID="17" v:groupContext="shape" transform="translate(107.195,-52.9911) rotate(-0.2)">
				<title>工作表.17</title>
				<desc>問始與無始互相破何不以始破無始</desc>
				<v:textBlock v:margins="rect(0,0,0,0)" v:tabSpace="42.5197"/>
				<v:textRect cx="101.587" cy="197.461" width="203.18" height="13.5449"/>
				<rect x="0" y="190.689" width="203.173" height="13.5449" class="st1"/>
				<text x="0" y="200.58" class="st2" v:langID="1028"><v:paragraph/><v:tabList/>問：始與無始互相破，何不以始破無始？</text>			</g>
			<g id="shape18-51" v:mID="18" v:groupContext="shape" transform="translate(107.254,-36.06) rotate(-0.2)">
				<title>工作表.18</title>
				<desc>答</desc>
				<v:textBlock v:margins="rect(0,0,0,0)" v:tabSpace="42.5197"/>
				<v:textRect cx="11.2874" cy="197.461" width="22.58" height="13.5449"/>
				<rect x="0" y="190.689" width="22.5748" height="13.5449" class="st1"/>
				<text x="0" y="200.58" class="st2" v:langID="1028"><v:paragraph/><v:tabList/>答：</text>			</g>
			<g id="shape19-54" v:mID="19" v:groupContext="shape" transform="translate(141.116,-36.1782) rotate(-0.2)">
				<title>工作表.19</title>
				<desc>是二雖邪見是亦有差別如常無常如善與惡。</desc>
				<v:textBlock v:margins="rect(0,0,0,0)" v:tabSpace="42.5197"/>
				<v:textRect cx="124.162" cy="197.461" width="248.33" height="13.5449"/>
				<rect x="0" y="190.689" width="248.323" height="13.5449" class="st1"/>
				<text x="0" y="200.58" class="st2" v:langID="1028"><v:paragraph/><v:tabList/>是二雖邪見，是亦有差別，如常無常，如善與惡。</text>			</g>
			<g id="shape20-57" v:mID="20" v:groupContext="shape" transform="translate(170.527,-19.3654) rotate(-0.2)">
				<title>工作表.20</title>
				<desc>有始︰起諸煩惱邪見因緣</desc>
				<v:textBlock v:margins="rect(0,0,0,0)" v:tabSpace="42.5197"/>
				<v:textRect cx="62.0808" cy="197.461" width="124.17" height="13.5449"/>
				<rect x="0" y="190.689" width="124.162" height="13.5449" class="st1"/>
				<text x="-0" y="200.58" class="st2" v:langID="1028"><v:paragraph/><v:tabList/>有始︰起諸煩惱邪見因緣</text>			</g>
			<g id="shape21-60" v:mID="21" v:groupContext="shape" transform="translate(299.197,-19.7988) rotate(-0.2)">
				<title>工作表.21</title>
				<v:textBlock v:margins="rect(0,0,0,0)"/>
				<rect x="0" y="190.689" width="33.8622" height="13.5449" class="st1"/>
			</g>
			<g id="shape22-62" v:mID="22" v:groupContext="shape" transform="translate(335.94,-19.9963) rotate(-0.2)">
				<title>工作表.22</title>
				<desc>取相生著是邪見。</desc>
				<v:textBlock v:margins="rect(0,0,0,0)" v:tabSpace="42.5197"/>
				<v:textRect cx="45.1496" cy="197.461" width="90.3" height="13.5449"/>
				<rect x="0" y="190.689" width="90.2993" height="13.5449" class="st1"/>
				<text x="0" y="200.58" class="st2" v:langID="1028"><v:paragraph/><v:tabList/>取相生著是邪見。</text>			</g>
			<g id="shape23-65" v:mID="23" v:groupContext="shape" transform="translate(140.922,-8.26207) rotate(-0.2)">
				<title>工作表.23</title>
				<desc>表</desc>
				<v:textBlock v:margins="rect(0,0,0,0)" v:tabSpace="42.5197"/>
				<v:textRect cx="5.64371" cy="197.461" width="11.29" height="13.5449"/>
				<rect x="0" y="190.689" width="11.2874" height="13.5449" class="st1"/>
				<text x="0" y="200.58" class="st2" v:langID="1028"><v:paragraph/><v:tabList/>表</text>			</g>
			<g id="shape24-68" v:mID="24" v:groupContext="shape" transform="translate(170.645,0.00124426) rotate(-0.2)">
				<title>工作表.24</title>
				<desc>無始起慈悲正見因緣</desc>
				<v:textBlock v:margins="rect(0,0,0,0)" v:tabSpace="42.5197"/>
				<v:textRect cx="56.4371" cy="197.461" width="112.88" height="13.5449"/>
				<rect x="0" y="190.689" width="112.874" height="13.5449" class="st1"/>
				<text x="0" y="200.58" class="st2" v:langID="1028"><v:paragraph/><v:tabList/>無始：起慈悲正見因緣</text>			</g>
			<g id="shape25-71" v:mID="25" v:groupContext="shape" transform="translate(336.058,-0.629633) rotate(-0.2)">
				<title>工作表.25</title>
				<desc>不著即是助道善法故。</desc>
				<v:textBlock v:margins="rect(0,0,0,0)" v:tabSpace="42.5197"/>
				<v:textRect cx="56.4371" cy="197.461" width="112.88" height="13.5449"/>
				<rect x="0" y="190.689" width="112.874" height="13.5449" class="st1"/>
				<text x="0" y="200.58" class="st2" v:langID="1028"><v:paragraph/><v:tabList/>不著即是助道善法故。</text>			</g>
			<g id="shape35-74" v:mID="35" v:groupContext="shape" transform="translate(278.799,16.8552) rotate(89.8)">
				<title>工作表.35</title>
				<path d="M0 195.77 C0 198.12 4.99 200 11.29 200 L50.04 200 C56.34 200 61.33 201.88 61.33 204.23 C61.33 201.88 66.41
							 200 72.62 200 L124.16 200 C130.37 200 135.45 198.12 135.45 195.77 L0 195.77 Z" class="st4"/>
				<path d="M0 195.77 C0 198.12 4.99 200 11.29 200 L50.04 200 C56.34 200 61.33 201.88 61.33 204.23 C61.33 201.88 66.41
							 200 72.62 200 L124.16 200 C130.37 200 135.45 198.12 135.45 195.77" class="st5"/>
			</g>
			<g id="shape36-77" v:mID="36" v:groupContext="shape" transform="translate(336.018,25.7943) rotate(89.8)">
				<title>工作表.36</title>
				<path d="M0 187.3 C0 192.01 0 195.77 0 195.77 C0 195.77 0 199.62 0 204.23 C0 199.62 0 195.77 0 195.77 L50.79 195.77
							 C50.79 195.77 50.79 192.01 50.79 187.3 L0 187.3 Z" class="st4"/>
				<path d="M0 187.3 C0 192.01 0 195.77 0 195.77 C0 195.77 0 199.62 0 204.23 C0 199.62 0 195.77 0 195.77 L50.79 195.77
							 C50.79 195.77 50.79 192.01 50.79 187.3" class="st5"/>
			</g>
			<g id="shape37-80" v:mID="37" v:groupContext="shape" transform="translate(332.348,381.695) rotate(179.8)">
				<title>工作表.37</title>
				<path d="M0 204.23 L46.56 204.23" class="st5"/>
			</g>
			<g id="shape38-83" v:mID="38" v:groupContext="shape" transform="translate(403.989,41.8183) rotate(89.8)">
				<title>工作表.38</title>
				<path d="M0 191.54 C0 195.02 0 197.84 0 197.84 C0 197.84 0 200.75 0 204.23 C0 200.75 0 197.84 0 197.84 L16.93 197.84
							 C16.93 197.84 16.93 195.02 16.93 191.54 L0 191.54 Z" class="st4"/>
				<path d="M0 191.54 C0 195.02 0 197.84 0 197.84 C0 197.84 0 200.75 0 204.23 C0 200.75 0 197.84 0 197.84 L16.93 197.84
							 C16.93 197.84 16.93 195.02 16.93 191.54" class="st5"/>
			</g>
			<g id="shape39-86" v:mID="39" v:groupContext="shape" transform="translate(198.446,-178.015)">
				<title>工作表.39</title>
				<path d="M0 204.23 L14.05 204.23" class="st5"/>
			</g>
			<g id="shape40-89" v:mID="40" v:groupContext="shape" transform="translate(120.33,-159.063) rotate(-5.70548)">
				<title>工作表.40</title>
				<path d="M0 204.23 L7.84 204.23" class="st5"/>
			</g>
			<g id="shape41-92" v:mID="41" v:groupContext="shape" transform="translate(-2.22591,-164.824) rotate(-26.7651)">
				<title>工作表.41</title>
				<path d="M0 204.23 L18.93 204.23" class="st5"/>
			</g>
			<g id="shape42-95" v:mID="42" v:groupContext="shape" transform="translate(179.787,-165.459) rotate(26.3651)">
				<title>工作表.42</title>
				<path d="M0 204.23 L18.93 204.23" class="st5"/>
			</g>
			<g id="shape43-98" v:mID="43" v:groupContext="shape" transform="translate(-2.59376,-81.5772) rotate(-26.7651)">
				<title>工作表.43</title>
				<path d="M0 204.23 L18.93 204.23" class="st5"/>
			</g>
			<g id="shape44-101" v:mID="44" v:groupContext="shape" transform="translate(179.325,-82.2122) rotate(26.3651)">
				<title>工作表.44</title>
				<path d="M0 204.23 L18.93 204.23" class="st5"/>
			</g>
			<g id="shape45-104" v:mID="45" v:groupContext="shape" transform="translate(-1.06129,-30.7349) rotate(-25.9007)">
				<title>工作表.45</title>
				<path d="M0 204.23 L19.52 204.23" class="st5"/>
			</g>
			<g id="shape46-107" v:mID="46" v:groupContext="shape" transform="translate(178.849,-30.006) rotate(26.3651)">
				<title>工作表.46</title>
				<path d="M0 204.23 L18.93 204.23" class="st5"/>
			</g>
			<g id="shape47-110" v:mID="47" v:groupContext="shape" transform="translate(331.607,110.437) rotate(89.8)">
				<title>工作表.47</title>
				<path d="M0 191.54 C0 195.02 0 197.84 0 197.84 C0 197.84 0 200.75 0 204.23 C0 200.75 0 197.84 0 197.84 L16.93 197.84
							 C16.93 197.84 16.93 195.02 16.93 191.54 L0 191.54 Z" class="st4"/>
				<path d="M0 191.54 C0 195.02 0 197.84 0 197.84 C0 197.84 0 200.75 0 204.23 C0 200.75 0 197.84 0 197.84 L16.93 197.84
							 C16.93 197.84 16.93 195.02 16.93 191.54" class="st5"/>
			</g>
			<g id="shape48-113" v:mID="48" v:groupContext="shape" transform="translate(333.99,161.25) rotate(89.8)">
				<title>工作表.48</title>
				<path d="M0 195.02 C0 197.56 0 199.62 0 199.62 C0 199.62 0 201.69 0 204.23 C0 201.69 0 199.62 0 199.62 L26.36 199.62
							 C26.36 199.62 26.36 197.56 26.36 195.02 L0 195.02 Z" class="st4"/>
				<path d="M0 195.02 C0 197.56 0 199.62 0 199.62 C0 199.62 0 201.69 0 204.23 C0 201.69 0 199.62 0 199.62 L26.36 199.62
							 C26.36 199.62 26.36 197.56 26.36 195.02" class="st5"/>
			</g>
			<g id="shape49-116" v:mID="49" v:groupContext="shape" transform="translate(360.578,177.414) rotate(89.8)">
				<title>工作表.49</title>
				<path d="M0 195.02 C0 197.56 0 199.62 0 199.62 L10.69 199.62 C10.69 199.62 10.69 201.69 10.69 204.23 C10.69 201.69
							 10.69 199.62 10.69 199.62 L20.11 199.62 C20.11 199.62 20.11 197.56 20.11 195.02 L0 195.02 Z"
						class="st4"/>
				<path d="M0 195.02 C0 197.56 0 199.62 0 199.62 L10.69 199.62 C10.69 199.62 10.69 201.69 10.69 204.23 C10.69 201.69
							 10.69 199.62 10.69 199.62 L20.11 199.62 C20.11 199.62 20.11 197.56 20.11 195.02" class="st5"/>
			</g>
			<g id="shape50-119" v:mID="50" v:groupContext="shape" transform="translate(331.807,401.064) rotate(179.8)">
				<title>工作表.50</title>
				<path d="M0 204.23 L55.03 204.23" class="st5"/>
			</g>
			<g id="shape51-122" v:mID="51" v:groupContext="shape" transform="translate(399.452,370.108) rotate(160.606)">
				<title>工作表.51</title>
				<path d="M0 204.23 L58.91 204.23" class="st5"/>
			</g>
		</g>
	</g>
</svg>
