<?xml version="1.0" encoding="UTF-8" standalone="no"?>
<!DOCTYPE svg PUBLIC "-//W3C//DTD SVG 1.1//EN" "http://www.w3.org/Graphics/SVG/1.1/DTD/svg11.dtd">
<!-- 由 Microsoft Visio, SVG Export 產生 F2302.svg 頁-1 -->
<svg xmlns="http://www.w3.org/2000/svg" xmlns:xlink="http://www.w3.org/1999/xlink" xmlns:ev="http://www.w3.org/2001/xml-events"
		xmlns:v="http://schemas.microsoft.com/visio/2003/SVGExtensions/" width="4.37421in" height="2.09894in"
		viewBox="0 0 314.943 151.123" xml:space="preserve" color-interpolation-filters="sRGB" class="st5">
	<v:documentProperties v:langID="1028" v:viewMarkup="false"/>

	<style type="text/css">
	<![CDATA[
		.st1 {fill:none;stroke:none;stroke-linecap:butt;stroke-width:0.75}
		.st2 {fill:#000000;font-family:新細明體;font-size:0.833336em}
		.st3 {fill:none}
		.st4 {stroke:#000000;stroke-linecap:round;stroke-linejoin:round;stroke-width:0.705463}
		.st5 {fill:none;fill-rule:evenodd;font-size:12px;overflow:visible;stroke-linecap:square;stroke-miterlimit:3}
	]]>
	</style>

	<g v:mID="0" v:index="1" v:groupContext="foregroundPage">
		<title>頁-1</title>
		<v:pageProperties v:drawingScale="0.0393701" v:pageScale="0.0393701" v:drawingUnits="24" v:shadowOffsetX="9"
				v:shadowOffsetY="-9"/>
		<g id="shape1-1" v:mID="1" v:groupContext="shape" transform="translate(86.7408,-136.197) rotate(-0.2)">
			<title>工作表.1</title>
			<desc>問依實捨虛妄聖知真實不應空。</desc>
			<v:textBlock v:margins="rect(0,0,0,0)" v:tabSpace="42.5197"/>
			<v:textRect cx="90.2993" cy="144.351" width="180.6" height="13.5449"/>
			<rect x="0" y="137.578" width="180.599" height="13.5449" class="st1"/>
			<text x="0" y="147.47" class="st2" v:langID="1028"><v:paragraph/><v:tabList/>問：依實捨虛妄，聖知真實不應空。</text>		</g>
		<g id="shape2-4" v:mID="2" v:groupContext="shape" transform="translate(86.7999,-119.266) rotate(-0.2)">
			<title>工作表.2</title>
			<desc>答</desc>
			<v:textBlock v:margins="rect(0,0,0,0)" v:tabSpace="42.5197"/>
			<v:textRect cx="5.64371" cy="144.351" width="11.29" height="13.5449"/>
			<rect x="0" y="137.578" width="11.2874" height="13.5449" class="st1"/>
			<text x="-0" y="147.47" class="st2" v:langID="1028"><v:paragraph/><v:tabList/>答</text>		</g>
		<g id="shape3-7" v:mID="3" v:groupContext="shape" transform="translate(121.662,-119.424) rotate(-0.2)">
			<title>工作表.3</title>
			<desc>破凡妄說聖實無凡亦無聖性故。</desc>
			<v:textBlock v:margins="rect(0,0,0,0)" v:tabSpace="42.5197"/>
			<v:textRect cx="84.6556" cy="144.351" width="169.32" height="13.5449"/>
			<rect x="0" y="137.578" width="169.311" height="13.5449" class="st1"/>
			<text x="0" y="147.47" class="st2" v:langID="1028"><v:paragraph/><v:tabList/>破凡妄說聖實，無凡亦無聖性故。</text>		</g>
		<g id="shape4-10" v:mID="4" v:groupContext="shape" transform="translate(121.721,-102.493) rotate(-0.2)">
			<title>工作表.4</title>
			<desc>聖人不取相勿以凡夫著法難。</desc>
			<v:textBlock v:margins="rect(0,0,0,0)" v:tabSpace="42.5197"/>
			<v:textRect cx="79.0119" cy="144.351" width="158.03" height="13.5449"/>
			<rect x="0" y="137.578" width="158.024" height="13.5449" class="st1"/>
			<text x="0" y="147.47" class="st2" v:langID="1028"><v:paragraph/><v:tabList/>聖人不取相，勿以凡夫著法難。</text>		</g>
		<g id="shape5-13" v:mID="5" v:groupContext="shape" transform="translate(121.78,-85.5617) rotate(-0.2)">
			<title>工作表.5</title>
			<desc>若不空不應說離戲論不受不著為法。</desc>
			<v:textBlock v:margins="rect(0,0,0,0)" v:tabSpace="42.5197"/>
			<v:textRect cx="95.943" cy="144.351" width="191.89" height="13.5449"/>
			<rect x="0" y="137.578" width="191.886" height="13.5449" class="st1"/>
			<text x="-0" y="147.47" class="st2" v:langID="1028"><v:paragraph/><v:tabList/>若不空不應說離戲論，不受不著為法。</text>		</g>
		<g id="shape6-16" v:mID="6" v:groupContext="shape" transform="translate(0.269762,-68.0791) rotate(-0.2)">
			<title>工作表.6</title>
			<desc>答它法不空難</desc>
			<v:textBlock v:margins="rect(0,0,0,0)" v:tabSpace="42.5197"/>
			<v:textRect cx="33.8622" cy="144.351" width="67.73" height="13.5449"/>
			<rect x="0" y="137.578" width="67.7245" height="13.5449" class="st1"/>
			<text x="-0" y="147.47" class="st2" v:langID="1028"><v:paragraph/><v:tabList/>答它法不空難</text>		</g>
		<g id="shape7-19" v:mID="7" v:groupContext="shape" transform="translate(86.9772,-68.4731) rotate(-0.2)">
			<title>工作表.7</title>
			<desc>問聲聞何故少說空</desc>
			<v:textBlock v:margins="rect(0,0,0,0)" v:tabSpace="42.5197"/>
			<v:textRect cx="50.7933" cy="144.351" width="101.59" height="13.5449"/>
			<rect x="0" y="137.578" width="101.587" height="13.5449" class="st1"/>
			<text x="0" y="147.47" class="st2" v:langID="1028"><v:paragraph/><v:tabList/>問：聲聞何故少說空</text>		</g>
		<g id="shape8-22" v:mID="8" v:groupContext="shape" transform="translate(87.0363,-51.5421) rotate(-0.2)">
			<title>工作表.8</title>
			<desc>答</desc>
			<v:textBlock v:margins="rect(0,0,0,0)" v:tabSpace="42.5197"/>
			<v:textRect cx="11.2874" cy="144.351" width="22.58" height="13.5449"/>
			<rect x="0" y="137.578" width="22.5748" height="13.5449" class="st1"/>
			<text x="0" y="147.47" class="st2" v:langID="1028"><v:paragraph/><v:tabList/>答：</text>		</g>
		<g id="shape9-25" v:mID="9" v:groupContext="shape" transform="translate(121.899,-51.6997) rotate(-0.2)">
			<title>工作表.9</title>
			<desc>厭離則不生結使不生結使何用說空</desc>
			<v:textBlock v:margins="rect(0,0,0,0)" v:tabSpace="42.5197"/>
			<v:textRect cx="90.2993" cy="144.351" width="180.6" height="13.5449"/>
			<rect x="0" y="137.578" width="180.599" height="13.5449" class="st1"/>
			<text x="-0" y="147.47" class="st2" v:langID="1028"><v:paragraph/><v:tabList/>厭離則不生結使，不生結使何用說空</text>		</g>
		<g id="shape10-28" v:mID="10" v:groupContext="shape" transform="translate(121.958,-34.7687) rotate(-0.2)">
			<title>工作表.10</title>
			<desc>為戲論諸法者多說空義</desc>
			<v:textBlock v:margins="rect(0,0,0,0)" v:tabSpace="42.5197"/>
			<v:textRect cx="56.4371" cy="144.351" width="112.88" height="13.5449"/>
			<rect x="0" y="137.578" width="112.874" height="13.5449" class="st1"/>
			<text x="0" y="147.47" class="st2" v:langID="1028"><v:paragraph/><v:tabList/>為戲論諸法者多說空義</text>		</g>
		<g id="shape11-31" v:mID="11" v:groupContext="shape" transform="translate(86.6973,-17.6801) rotate(-0.2)">
			<title>工作表.11</title>
			<desc>問何以說有業有業果</desc>
			<v:textBlock v:margins="rect(0,0,0,0)" v:tabSpace="42.5197"/>
			<v:textRect cx="56.4371" cy="144.351" width="112.88" height="13.5449"/>
			<rect x="0" y="137.578" width="112.874" height="13.5449" class="st1"/>
			<text x="0" y="147.47" class="st2" v:langID="1028"><v:paragraph/><v:tabList/>問：何以說有業有業果</text>		</g>
		<g id="shape12-34" v:mID="12" v:groupContext="shape" transform="translate(86.7564,-0.749079) rotate(-0.2)">
			<title>工作表.12</title>
			<desc>答為著斷滅見者故說。</desc>
			<v:textBlock v:margins="rect(0,0,0,0)" v:tabSpace="42.5197"/>
			<v:textRect cx="62.0808" cy="144.351" width="124.17" height="13.5449"/>
			<rect x="0" y="137.578" width="124.162" height="13.5449" class="st1"/>
			<text x="0" y="147.47" class="st2" v:langID="1028"><v:paragraph/><v:tabList/>答：為著斷滅見者故說。</text>		</g>
		<g id="shape21-37" v:mID="21" v:groupContext="shape" transform="translate(217.057,7.70116) rotate(89.8)">
			<title>工作表.21</title>
			<path d="M0 134.19 C0 138.9 4.99 142.66 11.29 142.66 L57.1 142.66 C63.4 142.66 68.38 146.42 68.38 151.12 C68.38 146.42
						 73.46 142.66 79.67 142.66 L124.16 142.66 C130.37 142.66 135.45 138.9 135.45 134.19 L0 134.19 Z"
					class="st3"/>
			<path d="M0 134.19 C0 138.9 4.99 142.66 11.29 142.66 L57.1 142.66 C63.4 142.66 68.38 146.42 68.38 151.12 C68.38 146.42
						 73.46 142.66 79.67 142.66 L124.16 142.66 C130.37 142.66 135.45 138.9 135.45 134.19" class="st4"/>
		</g>
		<g id="shape22-40" v:mID="22" v:groupContext="shape" transform="translate(101.243,-126.215)">
			<title>工作表.22</title>
			<path d="M0 151.12 L17.1 151.12" class="st4"/>
		</g>
		<g id="shape23-43" v:mID="23" v:groupContext="shape" transform="translate(258.177,24.4197) rotate(89.8)">
			<title>工作表.23</title>
			<path d="M0 151.12 L33.86 151.12 L33.86 139.84 L0 151.12 Z" class="st3"/>
			<path d="M0 151.12 L33.86 151.12 L33.86 139.84" class="st4"/>
		</g>
		<g id="shape24-46" v:mID="24" v:groupContext="shape" transform="translate(106.586,-109.244) rotate(-0.2)">
			<title>工作表.24</title>
			<path d="M0 151.12 L11.29 151.12" class="st4"/>
		</g>
		<g id="shape25-49" v:mID="25" v:groupContext="shape" transform="translate(106.2,-58.4435) rotate(-0.2)">
			<title>工作表.25</title>
			<path d="M0 151.12 L11.29 151.12" class="st4"/>
		</g>
		<g id="shape26-52" v:mID="26" v:groupContext="shape" transform="translate(258.038,92.1507) rotate(89.8)">
			<title>工作表.26</title>
			<path d="M0 151.12 L16.93 151.12" class="st4"/>
		</g>
		<g id="shape27-55" v:mID="27" v:groupContext="shape" transform="translate(107.011,-41.5151) rotate(-0.2)">
			<title>工作表.27</title>
			<path d="M0 151.12 L10.71 151.12" class="st4"/>
		</g>
	</g>
</svg>
