<?xml version="1.0" encoding="UTF-8" standalone="no"?>
<!DOCTYPE svg PUBLIC "-//W3C//DTD SVG 1.1//EN" "http://www.w3.org/Graphics/SVG/1.1/DTD/svg11.dtd">
<!-- 由 Microsoft Visio, SVG Export 產生 F2102.svg 頁-1 -->
<svg xmlns="http://www.w3.org/2000/svg" xmlns:xlink="http://www.w3.org/1999/xlink" xmlns:ev="http://www.w3.org/2001/xml-events"
		xmlns:v="http://schemas.microsoft.com/visio/2003/SVGExtensions/" width="3.94326in" height="0.645986in"
		viewBox="0 0 283.915 46.511" xml:space="preserve" color-interpolation-filters="sRGB" class="st6">
	<v:documentProperties v:langID="1028" v:viewMarkup="false"/>

	<style type="text/css">
	<![CDATA[
		.st1 {fill:none;stroke:none;stroke-linecap:butt;stroke-width:0.75}
		.st2 {fill:#000000;font-family:新細明體;font-size:0.833336em}
		.st3 {fill:#000000;font-family:Times New Roman;font-size:0.833336em}
		.st4 {fill:none}
		.st5 {stroke:#000000;stroke-linecap:round;stroke-linejoin:round;stroke-width:0.705463}
		.st6 {fill:none;fill-rule:evenodd;font-size:12px;overflow:visible;stroke-linecap:square;stroke-miterlimit:3}
	]]>
	</style>

	<g v:mID="0" v:index="1" v:groupContext="foregroundPage">
		<title>頁-1</title>
		<v:pageProperties v:drawingScale="0.0393701" v:pageScale="0.0393701" v:drawingUnits="24" v:shadowOffsetX="9"
				v:shadowOffsetY="-9"/>
		<g id="shape1-1" v:mID="1" v:groupContext="shape" transform="translate(158.692,-31.8219) rotate(-0.2)">
			<title>工作表.1</title>
			<desc>生滅不住則不可取。</desc>
			<v:textBlock v:margins="rect(0,0,0,0)" v:tabSpace="42.5197"/>
			<v:textRect cx="56.4371" cy="39.7385" width="112.88" height="13.5449"/>
			<rect x="0" y="32.9661" width="112.874" height="13.5449" class="st1"/>
			<text x="0" y="42.85" class="st2" v:langID="1028"><v:paragraph/><v:tabList/>生滅不住，則不可取。</text>		</g>
		<g id="shape2-4" v:mID="2" v:groupContext="shape" transform="translate(0.634927,-15.8285) rotate(-0.2)">
			<title>工作表.2</title>
			<desc>大乘空觀</desc>
			<v:textBlock v:margins="rect(0,0,0,0)" v:tabSpace="42.5197"/>
			<v:textRect cx="22.5748" cy="39.7385" width="45.15" height="13.5449"/>
			<rect x="0" y="32.9661" width="45.1496" height="13.5449" class="st1"/>
			<text x="-0" y="42.85" class="st2" v:langID="1028"><v:paragraph/><v:tabList/>大乘空觀</text>		</g>
		<g id="shape3-7" v:mID="3" v:groupContext="shape" transform="translate(45.2689,-16.7592) rotate(-0.2)">
			<title>工作表.3</title>
			<desc>----</desc>
			<v:textBlock v:margins="rect(0,0,0,0)" v:tabSpace="42.5197"/>
			<v:textRect cx="7.60719" cy="39.7385" width="15.22" height="13.5449"/>
			<rect x="0" y="32.9661" width="15.2144" height="13.5449" class="st1"/>
			<text x="0" y="42.74" class="st3" v:langID="1028"><v:paragraph/><v:tabList/>----</text>		</g>
		<g id="shape4-10" v:mID="4" v:groupContext="shape" transform="translate(60.8525,-16.0391) rotate(-0.2)">
			<title>工作表.4</title>
			<desc>因無常道轉入空門</desc>
			<v:textBlock v:margins="rect(0,0,0,0)" v:tabSpace="42.5197"/>
			<v:textRect cx="45.1496" cy="39.7385" width="90.3" height="13.5449"/>
			<rect x="0" y="32.9661" width="90.2993" height="13.5449" class="st1"/>
			<text x="0" y="42.85" class="st2" v:langID="1028"><v:paragraph/><v:tabList/>因無常道轉入空門</text>		</g>
		<g id="shape5-13" v:mID="5" v:groupContext="shape" transform="translate(158.751,-16.4589) rotate(-0.2)">
			<title>工作表.5</title>
			<desc>生滅一異時不可得故。</desc>
			<v:textBlock v:margins="rect(0,0,0,0)" v:tabSpace="42.5197"/>
			<v:textRect cx="62.1263" cy="39.7385" width="124.26" height="13.5449"/>
			<rect x="0" y="32.9661" width="124.253" height="13.5449" class="st1"/>
			<text x="-0" y="42.85" class="st2" v:langID="1028"><v:paragraph/><v:tabList/>生滅一異（時）不可得故。</text>		</g>
		<g id="shape6-16" v:mID="6" v:groupContext="shape" transform="translate(158.81,-0.749717) rotate(-0.2)">
			<title>工作表.6</title>
			<desc>後無知初亦無。</desc>
			<v:textBlock v:margins="rect(0,0,0,0)" v:tabSpace="42.5197"/>
			<v:textRect cx="39.5059" cy="39.7385" width="79.02" height="13.5449"/>
			<rect x="0" y="32.9661" width="79.0119" height="13.5449" class="st1"/>
			<text x="-0" y="42.85" class="st2" v:langID="1028"><v:paragraph/><v:tabList/>後無知初亦無。</text>		</g>
		<g id="shape14-19" v:mID="14" v:groupContext="shape" transform="translate(192.782,6.94348) rotate(89.8)">
			<title>工作表.14</title>
			<path d="M0 38.05 C0 40.4 1.32 42.28 2.82 42.28 L14.11 42.28 C15.71 42.28 16.93 44.16 16.93 46.51 C16.93 44.16 18.25
						 42.28 19.75 42.28 L31.04 42.28 C32.64 42.28 33.86 40.4 33.86 38.05 L0 38.05 Z" class="st4"/>
			<path d="M0 38.05 C0 40.4 1.32 42.28 2.82 42.28 L14.11 42.28 C15.71 42.28 16.93 44.16 16.93 46.51 C16.93 44.16 18.25
						 42.28 19.75 42.28 L31.04 42.28 C32.64 42.28 33.86 40.4 33.86 38.05" class="st5"/>
		</g>
	</g>
</svg>
