<?xml version="1.0" encoding="UTF-8" standalone="no"?>
<!DOCTYPE svg PUBLIC "-//W3C//DTD SVG 1.1//EN" "http://www.w3.org/Graphics/SVG/1.1/DTD/svg11.dtd">
<!-- 由 Microsoft Visio, SVG Export 產生 A01302.svg 頁-1 -->
<svg xmlns="http://www.w3.org/2000/svg" xmlns:xlink="http://www.w3.org/1999/xlink" xmlns:ev="http://www.w3.org/2001/xml-events"
		xmlns:v="http://schemas.microsoft.com/visio/2003/SVGExtensions/" width="4.71071in" height="0.799508in"
		viewBox="0 0 339.171 57.5646" xml:space="preserve" color-interpolation-filters="sRGB" class="st8">
	<v:documentProperties v:langID="1028" v:viewMarkup="false"/>

	<style type="text/css">
	<![CDATA[
		.st1 {fill:none;stroke:none;stroke-linecap:butt;stroke-width:0.75}
		.st2 {fill:#000000;font-family:新細明體;font-size:0.833336em}
		.st3 {fill:#19499d;font-family:新細明體;font-size:0.833336em}
		.st4 {font-family:Times New Roman;font-size:1em}
		.st5 {font-size:1em}
		.st6 {fill:none}
		.st7 {stroke:#040000;stroke-linecap:round;stroke-linejoin:round;stroke-width:0.705463}
		.st8 {fill:none;fill-rule:evenodd;font-size:12px;overflow:visible;stroke-linecap:square;stroke-miterlimit:3}
	]]>
	</style>

	<g v:mID="0" v:index="1" v:groupContext="foregroundPage">
		<title>頁-1</title>
		<v:pageProperties v:drawingScale="0.0393701" v:pageScale="0.0393701" v:drawingUnits="24" v:shadowOffsetX="9"
				v:shadowOffsetY="-9"/>
		<g id="shape1-1" v:mID="1" v:groupContext="shape" transform="translate(90.9456,-43.2697)">
			<title>工作表.1</title>
			<desc>畢竟空是無有遺餘性空名本來常爾異</desc>
			<v:textBlock v:margins="rect(0,0,0,0)" v:tabSpace="42.5197"/>
			<v:textRect cx="107.23" cy="50.7921" width="214.47" height="13.5449"/>
			<rect x="0" y="44.0197" width="214.461" height="13.5449" class="st1"/>
			<text x="-0" y="53.91" class="st2" v:langID="1028"><v:paragraph/><v:tabList/>畢竟空是無有遺餘，性空名本來常爾（異）</text>		</g>
		<g id="shape2-4" v:mID="2" v:groupContext="shape" transform="translate(161.403,-11.4106)">
			<title>工作表.2</title>
			<desc>諸法畢竟空——性不可得故 諸法性空——畢竟空故</desc>
			<v:textBlock v:margins="rect(0,0,0,0)" v:tabSpace="42.5197"/>
			<v:textRect cx="67.7245" cy="39.8665" width="135.45" height="35.3962"/>
			<rect x="0" y="22.1684" width="135.449" height="35.3962" class="st1"/>
			<text x="-0" y="35.75" class="st3" v:langID="1028"><v:paragraph v:spBefore="2"/><v:tabList/>諸法畢竟空<tspan class="st4">——</tspan>性不可得故<v:newlineChar/><tspan
						x="-0" dy="1.446em" class="st5">諸法性空</tspan><tspan class="st4">——</tspan>畢竟空故</text>		</g>
		<g id="shape3-10" v:mID="3" v:groupContext="shape" transform="translate(304.559,-17.0799)">
			<title>工作表.3</title>
			<desc>性空 畢竟空</desc>
			<v:textBlock v:margins="rect(0,0,0,0)" v:tabSpace="42.5197"/>
			<v:textRect cx="16.9311" cy="45.8133" width="33.87" height="23.5026"/>
			<rect x="0" y="34.062" width="33.8622" height="23.5026" class="st1"/>
			<text x="0" y="41.7" class="st3" v:langID="1028"><v:paragraph v:spBefore="2"/><v:tabList/>性空<v:newlineChar/><tspan
						x="0" dy="1.446em" class="st5">畢竟空</tspan></text>		</g>
		<g id="shape4-14" v:mID="4" v:groupContext="shape" transform="translate(0.75,-22.0099)">
			<title>工作表.4</title>
			<desc>性空與畢竟空之別</desc>
			<v:textBlock v:margins="rect(0,0,0,0)" v:tabSpace="42.5197"/>
			<v:textRect cx="45.1496" cy="50.7921" width="90.3" height="13.5449"/>
			<rect x="0" y="44.0197" width="90.2993" height="13.5449" class="st1"/>
			<text x="0" y="53.91" class="st2" v:langID="1028"><v:paragraph/><v:tabList/>性空與畢竟空之別</text>		</g>
		<g id="shape5-17" v:mID="5" v:groupContext="shape" transform="translate(90.947,-21.9602)">
			<title>工作表.5</title>
			<desc>二法展轉相釋</desc>
			<v:textBlock v:margins="rect(0,0,0,0)" v:tabSpace="42.5197"/>
			<v:textRect cx="33.8622" cy="50.7921" width="67.73" height="13.5449"/>
			<rect x="0" y="44.0197" width="67.7245" height="13.5449" class="st1"/>
			<text x="0" y="53.91" class="st2" v:langID="1028"><v:paragraph/><v:tabList/>二法展轉相釋</text>		</g>
		<g id="shape8-20" v:mID="8" v:groupContext="shape" transform="translate(90.9465,-0.75)">
			<title>工作表.8</title>
			<desc>性空多是菩薩所行畢竟空多是諸佛所行</desc>
			<v:textBlock v:margins="rect(0,0,0,0)" v:tabSpace="42.5197"/>
			<v:textRect cx="101.587" cy="50.7921" width="203.18" height="13.5449"/>
			<rect x="0" y="44.0197" width="203.173" height="13.5449" class="st1"/>
			<text x="0" y="53.91" class="st2" v:langID="1028"><v:paragraph/><v:tabList/>性空多是菩薩所行，畢竟空多是諸佛所行</text>		</g>
		<g id="shape15-23" v:mID="15" v:groupContext="shape" transform="translate(139.527,6.4689) rotate(90)">
			<title>工作表.15</title>
			<path d="M0 50.19 C0 52.21 1.66 53.88 3.71 53.88 L18.57 53.88 C20.62 53.88 22.28 55.55 22.28 57.56 C22.28 55.55 23.94
						 53.88 26 53.88 L40.85 53.88 C42.9 53.88 44.57 52.21 44.57 50.19 L0 50.19 Z" class="st6"/>
			<path d="M0 50.19 C0 52.21 1.66 53.88 3.71 53.88 L18.57 53.88 C20.62 53.88 22.28 55.55 22.28 57.56 C22.28 55.55 23.94
						 53.88 26 53.88 L40.85 53.88 C42.9 53.88 44.57 52.21 44.57 50.19" class="st7"/>
		</g>
		<g id="shape16-26" v:mID="16" v:groupContext="shape" transform="translate(210.393,20.2783) rotate(90)">
			<title>工作表.16</title>
			<path d="M0 50.19 C0 52.24 0.59 53.88 1.33 53.88 L6.67 53.88 C7.41 53.88 8.01 55.56 8.01 57.56 C8.01 55.56 8.6 53.88
						 9.34 53.88 L14.68 53.88 C15.42 53.88 16.02 52.24 16.02 50.19 L0 50.19 Z" class="st6"/>
			<path d="M0 50.19 C0 52.24 0.59 53.88 1.33 53.88 L6.67 53.88 C7.41 53.88 8.01 55.56 8.01 57.56 C8.01 55.56 8.6 53.88
						 9.34 53.88 L14.68 53.88 C15.42 53.88 16.02 52.24 16.02 50.19" class="st7"/>
		</g>
		<g id="shape17-29" v:mID="17" v:groupContext="shape" transform="translate(260.835,-22.5988) rotate(-25.986)">
			<title>工作表.17</title>
			<path d="M0 57.56 L17.97 57.56" class="st7"/>
		</g>
		<g id="shape18-32" v:mID="18" v:groupContext="shape" transform="translate(307.122,-24.4258) rotate(21.4654)">
			<title>工作表.18</title>
			<path d="M0 57.56 L17.21 57.56" class="st7"/>
		</g>
	</g>
</svg>
