<?xml version="1.0" encoding="UTF-8" standalone="no"?>
<!DOCTYPE svg PUBLIC "-//W3C//DTD SVG 1.1//EN" "http://www.w3.org/Graphics/SVG/1.1/DTD/svg11.dtd">
<!-- 由 Microsoft Visio, SVG Export 產生 F2202.svg 頁-1 -->
<svg xmlns="http://www.w3.org/2000/svg" xmlns:xlink="http://www.w3.org/1999/xlink" xmlns:ev="http://www.w3.org/2001/xml-events"
		xmlns:v="http://schemas.microsoft.com/visio/2003/SVGExtensions/" width="6.49766in" height="1.89113in"
		viewBox="0 0 467.832 136.162" xml:space="preserve" color-interpolation-filters="sRGB" class="st6">
	<v:documentProperties v:langID="1028" v:viewMarkup="false"/>

	<style type="text/css">
	<![CDATA[
		.st1 {fill:none;stroke:none;stroke-linecap:butt;stroke-width:0.75}
		.st2 {fill:#000000;font-family:新細明體;font-size:0.833336em}
		.st3 {fill:none}
		.st4 {stroke:#000000;stroke-linecap:round;stroke-linejoin:round;stroke-width:0.705463}
		.st5 {stroke:#000000;stroke-linecap:butt;stroke-width:0.940618}
		.st6 {fill:none;fill-rule:evenodd;font-size:12px;overflow:visible;stroke-linecap:square;stroke-miterlimit:3}
	]]>
	</style>

	<g v:mID="0" v:index="1" v:groupContext="foregroundPage">
		<title>頁-1</title>
		<v:pageProperties v:drawingScale="0.0393701" v:pageScale="0.0393701" v:drawingUnits="24" v:shadowOffsetX="9"
				v:shadowOffsetY="-9"/>
		<g id="shape2-1" v:mID="2" v:groupContext="shape" transform="translate(45.4123,-121.117) rotate(-0.2)">
			<title>工作表.2</title>
			<desc>一、破我</desc>
			<v:textBlock v:margins="rect(0,0,0,0)" v:tabSpace="42.5197"/>
			<v:textRect cx="22.5748" cy="129.389" width="45.15" height="13.5449"/>
			<rect x="0" y="122.617" width="45.1496" height="13.5449" class="st1"/>
			<text x="0" y="132.5" class="st2" v:langID="1028"><v:paragraph/><v:tabList/>一、破我</text>		</g>
		<g id="shape3-4" v:mID="3" v:groupContext="shape" transform="translate(113.136,-121.354) rotate(-0.2)">
			<title>工作表.3</title>
			<desc>別離五眾人不可得如車。</desc>
			<v:textBlock v:margins="rect(0,0,0,0)" v:tabSpace="42.5197"/>
			<v:textRect cx="73.3682" cy="129.389" width="146.74" height="13.5449"/>
			<rect x="0" y="122.617" width="146.736" height="13.5449" class="st1"/>
			<text x="0" y="132.5" class="st2" v:langID="1028"><v:paragraph/><v:tabList/>別離五眾，人不可得，如車。</text>		</g>
		<g id="shape4-7" v:mID="4" v:groupContext="shape" transform="translate(0.321988,-104.029) rotate(-0.2)">
			<title>工作表.4</title>
			<desc>散空</desc>
			<v:textBlock v:margins="rect(0,0,0,0)" v:tabSpace="42.5197"/>
			<v:textRect cx="11.2874" cy="129.389" width="22.58" height="13.5449"/>
			<rect x="0" y="122.617" width="22.5748" height="13.5449" class="st1"/>
			<text x="-0" y="132.5" class="st2" v:langID="1028"><v:paragraph/><v:tabList/>散空</text>		</g>
		<g id="shape5-10" v:mID="5" v:groupContext="shape" transform="translate(173.07,-104.659) rotate(-0.2)">
			<title>工作表.5</title>
			<desc>約微塵析之</desc>
			<v:textBlock v:margins="rect(0,0,0,0)" v:tabSpace="42.5197"/>
			<v:textRect cx="28.2185" cy="129.389" width="56.44" height="13.5449"/>
			<rect x="0" y="122.617" width="56.4371" height="13.5449" class="st1"/>
			<text x="-0" y="132.5" class="st2" v:langID="1028"><v:paragraph/><v:tabList/>約微塵析之</text>		</g>
		<g id="shape6-13" v:mID="6" v:groupContext="shape" transform="translate(263.031,-104.974) rotate(-0.2)">
			<title>工作表.6</title>
			<desc>和合微塵假名色故。</desc>
			<v:textBlock v:margins="rect(0,0,0,0)" v:tabSpace="42.5197"/>
			<v:textRect cx="50.7933" cy="129.389" width="101.59" height="13.5449"/>
			<rect x="0" y="122.617" width="101.587" height="13.5449" class="st1"/>
			<text x="-0" y="132.5" class="st2" v:langID="1028"><v:paragraph/><v:tabList/>和合微塵假名色故。</text>		</g>
		<g id="shape7-16" v:mID="7" v:groupContext="shape" transform="translate(45.5305,-87.2554) rotate(-0.2)">
			<title>工作表.7</title>
			<desc>二、破法</desc>
			<v:textBlock v:margins="rect(0,0,0,0)" v:tabSpace="42.5197"/>
			<v:textRect cx="22.5748" cy="129.389" width="45.15" height="13.5449"/>
			<rect x="0" y="122.617" width="45.1496" height="13.5449" class="st1"/>
			<text x="0" y="132.5" class="st2" v:langID="1028"><v:paragraph/><v:tabList/>二、破法</text>		</g>
		<g id="shape8-19" v:mID="8" v:groupContext="shape" transform="translate(116.732,-87.4918) rotate(-0.2)">
			<title>工作表.8</title>
			<desc>散色眾</desc>
			<v:textBlock v:margins="rect(0,0,0,0)" v:tabSpace="42.5197"/>
			<v:textRect cx="16.9311" cy="129.389" width="33.87" height="13.5449"/>
			<rect x="0" y="122.617" width="33.8622" height="13.5449" class="st1"/>
			<text x="0" y="132.5" class="st2" v:langID="1028"><v:paragraph/><v:tabList/>散色眾</text>		</g>
		<g id="shape9-22" v:mID="9" v:groupContext="shape" transform="translate(147.117,-87.61) rotate(-0.2)">
			<title>工作表.9</title>
			<v:textBlock v:margins="rect(0,0,0,0)"/>
			<rect x="0" y="122.617" width="126.983" height="13.5449" class="st1"/>
		</g>
		<g id="shape10-24" v:mID="10" v:groupContext="shape" transform="translate(263.428,-87.3685) rotate(-0.2)">
			<title>工作表.10</title>
			<desc>四大和合生如風動而水起沫。</desc>
			<v:textBlock v:margins="rect(0,0,0,0)" v:tabSpace="42.5197"/>
			<v:textRect cx="79.0119" cy="129.389" width="158.03" height="13.5449"/>
			<rect x="0" y="122.617" width="158.024" height="13.5449" class="st1"/>
			<text x="-0" y="132.5" class="st2" v:langID="1028"><v:paragraph/><v:tabList/>四大和合生，如風動而水起沫。</text>		</g>
		<g id="shape11-27" v:mID="11" v:groupContext="shape" transform="translate(6.08386,-70.1864) rotate(-0.2)">
			<title>工作表.11</title>
			<v:textBlock v:margins="rect(0,0,0,0)"/>
			<rect x="0" y="122.617" width="189.064" height="13.5449" class="st1"/>
		</g>
		<g id="shape12-29" v:mID="12" v:groupContext="shape" transform="translate(173.188,-78.5587) rotate(-0.2)">
			<title>工作表.12</title>
			<desc>約粗色相待析</desc>
			<v:textBlock v:margins="rect(0,0,0,0)" v:tabSpace="42.5197"/>
			<v:textRect cx="33.8622" cy="129.389" width="67.73" height="13.5449"/>
			<rect x="0" y="122.617" width="67.7245" height="13.5449" class="st1"/>
			<text x="-0" y="132.5" class="st2" v:langID="1028"><v:paragraph/><v:tabList/>約粗色相待析</text>		</g>
		<g id="shape13-32" v:mID="13" v:groupContext="shape" transform="translate(163.673,7.84021) rotate(89.8)">
			<title>工作表.13</title>
			<path d="M0 120.64 C0 124.97 1.32 128.45 3.1 128.45 L14.86 128.45 C16.65 128.45 18.06 131.93 18.06 136.16 C18.06 131.83
						 19.38 128.45 21.16 128.45 L34.24 128.45 C35.93 128.45 37.34 124.97 37.34 120.64 L0 120.64 Z" class="st3"/>
			<path d="M0 120.64 C0 124.97 1.32 128.45 3.1 128.45 L14.86 128.45 C16.65 128.45 18.06 131.93 18.06 136.16 C18.06 131.83
						 19.38 128.45 21.16 128.45 L34.24 128.45 C35.93 128.45 37.34 124.97 37.34 120.64" class="st4"/>
		</g>
		<g id="shape16-35" v:mID="16" v:groupContext="shape" transform="translate(230.975,41.8316) rotate(89.8)">
			<title>工作表.16</title>
			<path d="M0 120.21 C0 124.66 0 128.18 0 128.18 L0.79 128.18 C0.79 128.18 0.79 131.71 0.79 136.16 C0.79 131.71 0.79 128.18
						 0.79 128.18 L85.04 128.18 C85.04 128.18 85.04 124.66 85.04 120.21 L0 120.21 Z" class="st3"/>
			<path d="M0 120.21 C0 124.66 0 128.18 0 128.18 L0.79 128.18 C0.79 128.18 0.79 131.71 0.79 136.16 C0.79 131.71 0.79 128.18
						 0.79 128.18 L85.04 128.18 C85.04 128.18 85.04 124.66 85.04 120.21" class="st4"/>
		</g>
		<g id="shape17-38" v:mID="17" v:groupContext="shape" transform="translate(289.398,24.3158) rotate(89.8)">
			<title>工作表.17</title>
			<path d="M0 119.23 C0 123.93 0 127.7 0 127.7 L14.56 127.7 C14.56 127.7 14.56 131.46 14.56 136.16 C14.56 131.46 14.56
						 127.7 14.56 127.7 L27.44 127.7 C27.44 127.7 27.44 123.93 27.44 119.23 L0 119.23 Z" class="st3"/>
			<path d="M0 119.23 C0 123.93 0 127.7 0 127.7 L14.56 127.7 C14.56 127.7 14.56 131.46 14.56 136.16 C14.56 131.46 14.56
						 127.7 14.56 127.7 L27.44 127.7 C27.44 127.7 27.44 123.93 27.44 119.23" class="st4"/>
		</g>
		<g id="shape18-41" v:mID="18" v:groupContext="shape" transform="translate(380.936,40.9169) rotate(89.8)">
			<title>工作表.18</title>
			<path d="M0 119.23 C0 123.93 0 127.7 0 127.7 L9.51 127.7 C9.51 127.7 9.51 131.46 9.51 136.16 C9.51 131.46 9.51 127.7
						 9.51 127.7 L17.92 127.7 C17.92 127.7 17.92 123.93 17.92 119.23 L0 119.23 Z" class="st3"/>
			<path d="M0 119.23 C0 123.93 0 127.7 0 127.7 L9.51 127.7 C9.51 127.7 9.51 131.46 9.51 136.16 C9.51 131.46 9.51 127.7
						 9.51 127.7 L17.92 127.7 C17.92 127.7 17.92 123.93 17.92 119.23" class="st4"/>
		</g>
		<g id="shape19-44" v:mID="19" v:groupContext="shape" transform="translate(93.3525,-127.418) rotate(-0.2)">
			<title>工作表.19</title>
			<path d="M0 136.16 L16.93 136.16" class="st5"/>
		</g>
		<g id="shape20-47" v:mID="20" v:groupContext="shape" transform="translate(231.542,-111.655) rotate(-0.2)">
			<title>工作表.20</title>
			<path d="M0 136.16 L28.97 136.16" class="st5"/>
		</g>
		<g id="shape21-50" v:mID="21" v:groupContext="shape" transform="translate(263.434,-70.1115) rotate(-0.2)">
			<title>工作表.21</title>
			<desc>色香味觸及四大彼此相離俱不可得。</desc>
			<v:textBlock v:margins="rect(0,0,0,0)" v:tabSpace="42.5197"/>
			<v:textRect cx="101.587" cy="129.389" width="203.18" height="13.5449"/>
			<rect x="0" y="122.617" width="203.173" height="13.5449" class="st1"/>
			<text x="0" y="132.5" class="st2" v:langID="1028"><v:paragraph/><v:tabList/>色香味觸及四大，彼此相離，俱不可得。</text>		</g>
		<g id="shape22-53" v:mID="22" v:groupContext="shape" transform="translate(173.221,-50.8673) rotate(-0.2)">
			<title>工作表.22</title>
			<desc>三相別別異過去已滅不住故</desc>
			<v:textBlock v:margins="rect(0,0,0,0)" v:tabSpace="42.5197"/>
			<v:textRect cx="79.0119" cy="129.389" width="158.03" height="13.5449"/>
			<rect x="0" y="122.617" width="158.024" height="13.5449" class="st1"/>
			<text x="0" y="132.5" class="st2" v:langID="1028"><v:paragraph/><v:tabList/>三相別別異（過去已滅不住故）</text>		</g>
		<g id="shape23-56" v:mID="23" v:groupContext="shape" transform="translate(325.6,-51.3997) rotate(-0.2)">
			<title>工作表.23</title>
			<desc>。</desc>
			<v:textBlock v:margins="rect(0,0,0,0)" v:tabSpace="42.5197"/>
			<v:textRect cx="5.64371" cy="129.389" width="11.29" height="13.5449"/>
			<rect x="0" y="122.617" width="11.2874" height="13.5449" class="st1"/>
			<text x="0" y="132.5" class="st2" v:langID="1028"><v:paragraph/><v:tabList/>。</text>		</g>
		<g id="shape24-59" v:mID="24" v:groupContext="shape" transform="translate(116.815,-33.6999) rotate(-0.2)">
			<title>工作表.24</title>
			<desc>散四眾</desc>
			<v:textBlock v:margins="rect(0,0,0,0)" v:tabSpace="42.5197"/>
			<v:textRect cx="16.9311" cy="129.389" width="33.87" height="13.5449"/>
			<rect x="0" y="122.617" width="33.8622" height="13.5449" class="st1"/>
			<text x="0" y="132.5" class="st2" v:langID="1028"><v:paragraph/><v:tabList/>散四眾</text>		</g>
		<g id="shape25-62" v:mID="25" v:groupContext="shape" transform="translate(173.28,-33.9363) rotate(-0.2)">
			<title>工作表.25</title>
			<desc>心隨所緣有緣無心不生故。</desc>
			<v:textBlock v:margins="rect(0,0,0,0)" v:tabSpace="42.5197"/>
			<v:textRect cx="67.7245" cy="129.389" width="135.45" height="13.5449"/>
			<rect x="0" y="122.617" width="135.449" height="13.5449" class="st1"/>
			<text x="-0" y="132.5" class="st2" v:langID="1028"><v:paragraph/><v:tabList/>心隨所緣有緣無心不生故。</text>		</g>
		<g id="shape26-65" v:mID="26" v:groupContext="shape" transform="translate(173.339,-17.0053) rotate(-0.2)">
			<title>工作表.26</title>
			<desc>隨所依緣而得名離之不可得故。</desc>
			<v:textBlock v:margins="rect(0,0,0,0)" v:tabSpace="42.5197"/>
			<v:textRect cx="84.6556" cy="129.389" width="169.32" height="13.5449"/>
			<rect x="0" y="122.617" width="169.311" height="13.5449" class="st1"/>
			<text x="0" y="132.5" class="st2" v:langID="1028"><v:paragraph/><v:tabList/>隨所依緣而得名，離之不可得故。</text>		</g>
		<g id="shape27-68" v:mID="27" v:groupContext="shape" transform="translate(116.641,-2.03209) rotate(-0.2)">
			<title>工作表.27</title>
			<desc>總散</desc>
			<v:textBlock v:margins="rect(0,0,0,0)" v:tabSpace="42.5197"/>
			<v:textRect cx="11.2874" cy="129.389" width="22.58" height="13.5449"/>
			<rect x="0" y="122.617" width="22.5748" height="13.5449" class="st1"/>
			<text x="0" y="132.5" class="st2" v:langID="1028"><v:paragraph/><v:tabList/>總散</text>		</g>
		<g id="shape28-71" v:mID="28" v:groupContext="shape" transform="translate(173.792,-0.74917) rotate(-0.2)">
			<title>工作表.28</title>
			<desc>法集假立名隨名生染著故。</desc>
			<v:textBlock v:margins="rect(0,0,0,0)" v:tabSpace="42.5197"/>
			<v:textRect cx="73.3682" cy="129.389" width="146.74" height="13.5449"/>
			<rect x="0" y="122.617" width="146.736" height="13.5449" class="st1"/>
			<text x="-0" y="132.5" class="st2" v:langID="1028"><v:paragraph/><v:tabList/>法集假立名，隨名生染著故。</text>		</g>
		<g id="shape40-74" v:mID="40" v:groupContext="shape" transform="translate(289.199,78.0767) rotate(89.8)">
			<title>工作表.40</title>
			<path d="M0 119.23 C0 123.93 0 127.7 0 127.7 L17.97 127.7 C17.97 127.7 17.97 131.55 17.97 136.16 C17.97 131.55 17.97
						 127.7 17.97 127.7 L33.86 127.7 C33.86 127.7 33.86 123.93 33.86 119.23 L0 119.23 Z" class="st3"/>
			<path d="M0 119.23 C0 123.93 0 127.7 0 127.7 L17.97 127.7 C17.97 127.7 17.97 131.55 17.97 136.16 C17.97 131.55 17.97
						 127.7 17.97 127.7 L33.86 127.7 C33.86 127.7 33.86 123.93 33.86 119.23" class="st4"/>
		</g>
		<g id="shape41-77" v:mID="41" v:groupContext="shape" transform="translate(145.255,-7.3342) rotate(0.213184)">
			<title>工作表.41</title>
			<path d="M0 136.16 L24.72 136.16" class="st4"/>
		</g>
		<g id="shape43-80" v:mID="43" v:groupContext="shape" transform="translate(161.78,-39.8334)">
			<title>工作表.43</title>
			<path d="M0 136.16 L8.7 136.16" class="st4"/>
		</g>
		<g id="shape44-83" v:mID="44" v:groupContext="shape" transform="translate(102.98,-40.0258)">
			<title>工作表.44</title>
			<path d="M0 136.16 L8.59 136.16" class="st4"/>
		</g>
	</g>
</svg>
