<?xml version="1.0" encoding="UTF-8" standalone="no"?>
<!DOCTYPE svg PUBLIC "-//W3C//DTD SVG 1.1//EN" "http://www.w3.org/Graphics/SVG/1.1/DTD/svg11.dtd">
<!-- 由 Microsoft Visio, SVG Export 產生 F2106.svg 頁-1 -->
<svg xmlns="http://www.w3.org/2000/svg" xmlns:xlink="http://www.w3.org/1999/xlink" xmlns:ev="http://www.w3.org/2001/xml-events"
		xmlns:v="http://schemas.microsoft.com/visio/2003/SVGExtensions/" width="2.58233in" height="0.684734in"
		viewBox="0 0 185.928 49.3008" xml:space="preserve" color-interpolation-filters="sRGB" class="st5">
	<v:documentProperties v:langID="1028" v:viewMarkup="false"/>

	<style type="text/css">
	<![CDATA[
		.st1 {fill:none;stroke:none;stroke-linecap:butt;stroke-width:0.75}
		.st2 {fill:#000000;font-family:新細明體;font-size:0.940613em}
		.st3 {fill:none}
		.st4 {stroke:#000000;stroke-linecap:round;stroke-linejoin:round;stroke-width:0.705463}
		.st5 {fill:none;fill-rule:evenodd;font-size:12px;overflow:visible;stroke-linecap:square;stroke-miterlimit:3}
	]]>
	</style>

	<g v:mID="0" v:index="1" v:groupContext="foregroundPage">
		<title>頁-1</title>
		<v:pageProperties v:drawingScale="0.0393701" v:pageScale="0.0393701" v:drawingUnits="24" v:shadowOffsetX="9"
				v:shadowOffsetY="-9"/>
		<g id="shape1-1" v:mID="1" v:groupContext="shape" transform="translate(11.5776,-34.4541) rotate(-0.2)">
			<title>工作表.1</title>
			<desc>問所生法可空因緣不應空</desc>
			<v:textBlock v:margins="rect(0,0,0,0)" v:tabSpace="42.5197"/>
			<v:textRect cx="79.0119" cy="42.5284" width="158.03" height="13.5449"/>
			<rect x="0" y="35.7559" width="158.024" height="13.5449" class="st1"/>
			<text x="0" y="46.04" class="st2" v:langID="1028"><v:paragraph/><v:tabList/>問：所生法可空，因緣不應空？</text>		</g>
		<g id="shape2-4" v:mID="2" v:groupContext="shape" transform="translate(11.6367,-8.74921) rotate(-0.2)">
			<title>工作表.2</title>
			<desc>答</desc>
			<v:textBlock v:margins="rect(0,0,0,0)" v:tabSpace="42.5197"/>
			<v:textRect cx="11.2874" cy="42.5284" width="22.58" height="13.5449"/>
			<rect x="0" y="35.7559" width="22.5748" height="13.5449" class="st1"/>
			<text x="-0" y="46.04" class="st2" v:langID="1028"><v:paragraph/><v:tabList/>答：</text>		</g>
		<g id="shape3-7" v:mID="3" v:groupContext="shape" transform="translate(45.65,-17.6807) rotate(-0.2)">
			<title>工作表.3</title>
			<desc>因果無定相待前因亦果。</desc>
			<v:textBlock v:margins="rect(0,0,0,0)" v:tabSpace="42.5197"/>
			<v:textRect cx="69.6782" cy="42.5284" width="139.36" height="13.5449"/>
			<rect x="0" y="35.7559" width="139.356" height="13.5449" class="st1"/>
			<text x="0" y="46.04" class="st2" v:langID="1028"><v:paragraph/><v:tabList/>因果無定相，待前因亦果。</text>		</g>
		<g id="shape11-10" v:mID="11" v:groupContext="shape" transform="translate(45.7091,-0.7497) rotate(-0.2)">
			<title>工作表.11</title>
			<desc>最後因緣不可得故。</desc>
			<v:textBlock v:margins="rect(0,0,0,0)" v:tabSpace="42.5197"/>
			<v:textRect cx="50.7933" cy="42.5284" width="101.59" height="13.5449"/>
			<rect x="0" y="35.7559" width="101.587" height="13.5449" class="st1"/>
			<text x="0" y="46.04" class="st2" v:langID="1028"><v:paragraph/><v:tabList/>最後因緣不可得故。</text>		</g>
		<g id="shape12-13" v:mID="12" v:groupContext="shape" transform="translate(49.589,2.74957) rotate(89.8)">
			<title>工作表.12</title>
			<path d="M0 40.84 C0 43.19 1.33 45.07 3.07 45.07 L15.35 45.07 C16.99 45.07 18.43 46.95 18.43 49.3 C18.43 46.95 19.76
						 45.07 21.5 45.07 L33.78 45.07 C35.42 45.07 36.85 43.19 36.85 40.84 L0 40.84 Z" class="st3"/>
			<path d="M0 40.84 C0 43.19 1.33 45.07 3.07 45.07 L15.35 45.07 C16.99 45.07 18.43 46.95 18.43 49.3 C18.43 46.95 19.76
						 45.07 21.5 45.07 L33.78 45.07 C35.42 45.07 36.85 43.19 36.85 40.84" class="st4"/>
		</g>
		<g id="shape13-16" v:mID="13" v:groupContext="shape" transform="translate(84.5741,20.6045) rotate(89.8)">
			<title>工作表.13</title>
			<path d="M0 42.54 C0 44.42 1.01 45.92 2.17 45.92 L10.87 45.92 C12.03 45.92 13.04 47.42 13.04 49.3 C13.04 47.42 14.05
						 45.92 15.21 45.92 L23.91 45.92 C25.06 45.92 26.08 44.42 26.08 42.54 L0 42.54 Z" class="st3"/>
			<path d="M0 42.54 C0 44.42 1.01 45.92 2.17 45.92 L10.87 45.92 C12.03 45.92 13.04 47.42 13.04 49.3 C13.04 47.42 14.05
						 45.92 15.21 45.92 L23.91 45.92 C25.06 45.92 26.08 44.42 26.08 42.54" class="st4"/>
		</g>
	</g>
</svg>
