<?xml version="1.0" encoding="UTF-8" standalone="no"?>
<!DOCTYPE svg PUBLIC "-//W3C//DTD SVG 1.1//EN" "http://www.w3.org/Graphics/SVG/1.1/DTD/svg11.dtd">
<!-- 由 Microsoft Visio, SVG Export 產生 F2108.svg 頁-1 -->
<svg xmlns="http://www.w3.org/2000/svg" xmlns:xlink="http://www.w3.org/1999/xlink" xmlns:ev="http://www.w3.org/2001/xml-events"
		xmlns:v="http://schemas.microsoft.com/visio/2003/SVGExtensions/" width="2.11982in" height="0.422826in"
		viewBox="0 0 152.627 30.4434" xml:space="preserve" color-interpolation-filters="sRGB" class="st5">
	<v:documentProperties v:langID="1028" v:viewMarkup="false"/>

	<style type="text/css">
	<![CDATA[
		.st1 {fill:none;stroke:none;stroke-linecap:butt;stroke-width:0.75}
		.st2 {fill:#000000;font-family:新細明體;font-size:0.833336em}
		.st3 {fill:none}
		.st4 {stroke:#000000;stroke-linecap:round;stroke-linejoin:round;stroke-width:0.705463}
		.st5 {fill:none;fill-rule:evenodd;font-size:12px;overflow:visible;stroke-linecap:square;stroke-miterlimit:3}
	]]>
	</style>

	<g v:mID="0" v:index="1" v:groupContext="foregroundPage">
		<title>頁-1</title>
		<v:pageProperties v:drawingScale="0.0393701" v:pageScale="0.0393701" v:drawingUnits="24" v:shadowOffsetX="9"
				v:shadowOffsetY="-9"/>
		<g id="shape1-1" v:mID="1" v:groupContext="shape" transform="translate(10.7183,-15.6561) rotate(-0.2)">
			<title>工作表.1</title>
			<desc>問不牢固可空牢固不應空</desc>
			<v:textBlock v:margins="rect(0,0,0,0)" v:tabSpace="42.5197"/>
			<v:textRect cx="70.5267" cy="23.671" width="141.06" height="13.5449"/>
			<rect x="0" y="16.8986" width="141.053" height="13.5449" class="st1"/>
			<text x="0" y="26.79" class="st2" v:langID="1028"><v:paragraph/><v:tabList/>問：不牢固可空，牢固不應空？</text>		</g>
		<g id="shape7-4" v:mID="7" v:groupContext="shape" transform="translate(10.7771,-0.749815) rotate(-0.2)">
			<title>工作表.7</title>
			<desc>答堅不堅固無定故。</desc>
			<v:textBlock v:margins="rect(0,0,0,0)" v:tabSpace="42.5197"/>
			<v:textRect cx="56.4371" cy="23.671" width="112.88" height="13.5449"/>
			<rect x="0" y="16.8986" width="112.874" height="13.5449" class="st1"/>
			<text x="0" y="26.79" class="st2" v:langID="1028"><v:paragraph/><v:tabList/>答：堅不堅固無定故。</text>		</g>
		<g id="shape8-7" v:mID="8" v:groupContext="shape" transform="translate(30.7564,4.17298) rotate(89.8)">
			<title>工作表.8</title>
			<path d="M0 21.98 C0 24.33 0.82 26.21 1.89 26.21 L9.45 26.21 C10.46 26.21 11.34 28.09 11.34 30.44 C11.34 28.09 12.16
						 26.21 13.23 26.21 L20.79 26.21 C21.8 26.21 22.68 24.33 22.68 21.98 L0 21.98 Z" class="st3"/>
			<path d="M0 21.98 C0 24.33 0.82 26.21 1.89 26.21 L9.45 26.21 C10.46 26.21 11.34 28.09 11.34 30.44 C11.34 28.09 12.16
						 26.21 13.23 26.21 L20.79 26.21 C21.8 26.21 22.68 24.33 22.68 21.98" class="st4"/>
		</g>
	</g>
</svg>
