<?xml version="1.0" encoding="UTF-8" standalone="no"?>
<!DOCTYPE svg PUBLIC "-//W3C//DTD SVG 1.1//EN" "http://www.w3.org/Graphics/SVG/1.1/DTD/svg11.dtd">
<!-- 由 Microsoft Visio, SVG Export 產生 A01303.svg 頁-1 -->
<svg xmlns="http://www.w3.org/2000/svg" xmlns:xlink="http://www.w3.org/1999/xlink" xmlns:ev="http://www.w3.org/2001/xml-events"
		xmlns:v="http://schemas.microsoft.com/visio/2003/SVGExtensions/" width="5.02603in" height="0.503532in"
		viewBox="0 0 361.874 36.2543" xml:space="preserve" color-interpolation-filters="sRGB" class="st7">
	<v:documentProperties v:langID="1028" v:viewMarkup="false"/>

	<style type="text/css">
	<![CDATA[
		.st1 {fill:none;stroke:none;stroke-linecap:butt;stroke-width:0.75}
		.st2 {fill:#000000;font-family:新細明體;font-size:0.833336em}
		.st3 {font-family:Times New Roman;font-size:1em}
		.st4 {font-size:1em}
		.st5 {stroke:#040000;stroke-linecap:round;stroke-linejoin:round;stroke-width:0.705463}
		.st6 {fill:none}
		.st7 {fill:none;fill-rule:evenodd;font-size:12px;overflow:visible;stroke-linecap:square;stroke-miterlimit:3}
	]]>
	</style>

	<g v:mID="0" v:index="1" v:groupContext="foregroundPage">
		<title>頁-1</title>
		<v:pageProperties v:drawingScale="0.0393701" v:pageScale="0.0393701" v:drawingUnits="24" v:shadowOffsetX="9"
				v:shadowOffsetY="-9"/>
		<g id="shape1-1" v:mID="1" v:groupContext="shape" transform="translate(49.2002,-0.75)">
			<title>工作表.1</title>
			<desc>總性——無常、苦、空、無我、不生不滅——總相 別性——火熱性、水溼性等————————別相</desc>
			<v:textBlock v:margins="rect(0,0,0,0)" v:tabSpace="42.5197"/>
			<v:textRect cx="122.255" cy="18.8771" width="244.52" height="34.7543"/>
			<rect x="0" y="1.5" width="244.51" height="34.7543" class="st1"/>
			<text x="0" y="14.76" class="st2" v:langID="1028"><v:paragraph v:spBefore="2"/><v:tabList/>總性<tspan class="st3">——</tspan>無常、苦、空、無我、不生不滅<tspan
						class="st3">——</tspan>總相<v:newlineChar/><tspan x="0" dy="1.446em" class="st4">別性</tspan><tspan class="st3">——</tspan>火熱性、水溼性等<tspan
						class="st3">————————</tspan>別相</text>		</g>
		<g id="shape6-9" v:mID="6" v:groupContext="shape" transform="translate(338.549,-7.15783)">
			<title>工作表.6</title>
			<desc>共相 別相</desc>
			<v:textBlock v:margins="rect(0,0,0,0)" v:tabSpace="42.5197"/>
			<v:textRect cx="11.2874" cy="23.8375" width="22.58" height="24.8335"/>
			<rect x="0" y="11.4208" width="22.5748" height="24.8335" class="st1"/>
			<text x="0" y="19.72" class="st2" v:langID="1028"><v:paragraph v:spBefore="2"/><v:tabList/>共相<v:newlineChar/><tspan
						x="0" dy="1.446em" class="st4">別相</tspan></text>		</g>
		<g id="shape7-13" v:mID="7" v:groupContext="shape" transform="translate(0.75,-11.9072)">
			<title>工作表.7</title>
			<desc>二種法性</desc>
			<v:textBlock v:margins="rect(0,0,0,0)" v:tabSpace="42.5197"/>
			<v:textRect cx="22.5748" cy="29.4818" width="45.15" height="13.5449"/>
			<rect x="0" y="22.7094" width="45.1496" height="13.5449" class="st1"/>
			<text x="-0" y="32.6" class="st2" v:langID="1028"><v:paragraph/><v:tabList/>二種法性</text>		</g>
		<g id="shape9-16" v:mID="9" v:groupContext="shape" transform="translate(278.325,-11.613)">
			<title>工作表.9</title>
			<desc>二種法相</desc>
			<v:textBlock v:margins="rect(0,0,0,0)" v:tabSpace="42.5197"/>
			<v:textRect cx="22.5748" cy="29.4818" width="45.15" height="13.5449"/>
			<rect x="0" y="22.7094" width="45.1496" height="13.5449" class="st1"/>
			<text x="0" y="32.6" class="st2" v:langID="1028"><v:paragraph/><v:tabList/>二種法相</text>		</g>
		<g id="shape22-19" v:mID="22" v:groupContext="shape" transform="translate(306.429,-15.8781) rotate(-22.1072)">
			<title>工作表.22</title>
			<path d="M0 36.25 L18.36 36.25" class="st5"/>
		</g>
		<g id="shape23-22" v:mID="23" v:groupContext="shape" transform="translate(333.251,-16.0635) rotate(21.315)">
			<title>工作表.23</title>
			<path d="M0 36.25 L18.26 36.25" class="st5"/>
		</g>
		<g id="shape24-25" v:mID="24" v:groupContext="shape" transform="translate(78.5319,9.99246) rotate(90)">
			<title>工作表.24</title>
			<path d="M0 30.09 C0 31.78 0.62 33.17 1.35 33.17 L6.72 33.17 C7.47 33.17 8.07 34.54 8.07 36.25 C8.07 34.57 8.66 33.17
						 9.41 33.17 L14.81 33.17 C15.56 33.17 16.16 31.78 16.16 30.09 L0 30.09 Z" class="st6"/>
			<path d="M0 30.09 C0 31.78 0.62 33.17 1.35 33.17 L6.72 33.17 C7.47 33.17 8.07 34.54 8.07 36.25 C8.07 34.57 8.66 33.17
						 9.41 33.17 L14.81 33.17 C15.56 33.17 16.16 31.78 16.16 30.09" class="st5"/>
		</g>
		<g id="shape37-28" v:mID="37" v:groupContext="shape" transform="translate(239.522,25.583) rotate(-90)">
			<title>工作表.37</title>
			<path d="M0 30.09 C0 31.78 0.62 33.17 1.35 33.17 L6.72 33.17 C7.47 33.17 8.07 34.54 8.07 36.25 C8.07 34.57 8.66 33.17
						 9.41 33.17 L14.81 33.17 C15.56 33.17 16.16 31.78 16.16 30.09 L0 30.09 Z" class="st6"/>
			<path d="M0 30.09 C0 31.78 0.62 33.17 1.35 33.17 L6.72 33.17 C7.47 33.17 8.07 34.54 8.07 36.25 C8.07 34.57 8.66 33.17
						 9.41 33.17 L14.81 33.17 C15.56 33.17 16.16 31.78 16.16 30.09" class="st5"/>
		</g>
	</g>
</svg>
