<?xml version="1.0" encoding="UTF-8" standalone="no"?>
<!DOCTYPE svg PUBLIC "-//W3C//DTD SVG 1.1//EN" "http://www.w3.org/Graphics/SVG/1.1/DTD/svg11.dtd">
<!-- 由 Microsoft Visio, SVG Export 產生 A01205.svg 頁-1 -->
<svg xmlns="http://www.w3.org/2000/svg" xmlns:xlink="http://www.w3.org/1999/xlink" xmlns:ev="http://www.w3.org/2001/xml-events"
		xmlns:v="http://schemas.microsoft.com/visio/2003/SVGExtensions/" width="3.02197in" height="0.607021in"
		viewBox="0 0 217.582 43.7055" xml:space="preserve" color-interpolation-filters="sRGB" class="st7">
	<v:documentProperties v:langID="1028" v:viewMarkup="false"/>

	<style type="text/css">
	<![CDATA[
		.st1 {fill:none;stroke:none;stroke-linecap:butt;stroke-width:0.75}
		.st2 {fill:#000000;font-family:新細明體;font-size:0.833336em}
		.st3 {font-size:1em}
		.st4 {font-family:Times New Roman;font-size:1em}
		.st5 {fill:none}
		.st6 {stroke:#040000;stroke-linecap:round;stroke-linejoin:round;stroke-width:0.705463}
		.st7 {fill:none;fill-rule:evenodd;font-size:12px;overflow:visible;stroke-linecap:square;stroke-miterlimit:3}
	]]>
	</style>

	<g v:mID="0" v:index="1" v:groupContext="foregroundPage">
		<title>頁-1</title>
		<v:pageProperties v:drawingScale="0.0393701" v:pageScale="0.0393701" v:drawingUnits="24" v:shadowOffsetX="9"
				v:shadowOffsetY="-9"/>
		<g id="shape1-1" v:mID="1" v:groupContext="shape" transform="translate(91.4547,-16.2291)">
			<title>工作表.1</title>
			<desc>十八空是觀 般若是實相緣觀並寂</desc>
			<v:textBlock v:margins="rect(0,0,0,0)" v:tabSpace="42.5197"/>
			<v:textRect cx="51.4916" cy="30.3423" width="102.99" height="26.7264"/>
			<rect x="0" y="16.9791" width="102.983" height="26.7264" class="st1"/>
			<text x="0" y="26.23" class="st2" v:langID="1028"><v:paragraph v:spBefore="2"/><v:tabList/>十八空是觀<v:newlineChar/><tspan
						x="0" dy="1.446em" class="st3">般若是實相</tspan>，緣觀並寂</text>		</g>
		<g id="shape2-5" v:mID="2" v:groupContext="shape" transform="translate(71.714,-23.113)">
			<title>工作表.2</title>
			<desc>異</desc>
			<v:textBlock v:margins="rect(0,0,0,0)" v:tabSpace="42.5197"/>
			<v:textRect cx="5.64371" cy="36.9331" width="11.29" height="13.5449"/>
			<rect x="0" y="30.1606" width="11.2874" height="13.5449" class="st1"/>
			<text x="0" y="40.05" class="st2" v:langID="1028"><v:paragraph/><v:tabList/>異</text>		</g>
		<g id="shape3-8" v:mID="3" v:groupContext="shape" transform="translate(0.75,-13.3573)">
			<title>工作表.3</title>
			<desc>般若與十八空</desc>
			<v:textBlock v:margins="rect(0,0,0,0)" v:tabSpace="42.5197"/>
			<v:textRect cx="33.8622" cy="36.9331" width="67.73" height="13.5449"/>
			<rect x="0" y="30.1606" width="67.7245" height="13.5449" class="st1"/>
			<text x="0" y="40.05" class="st2" v:langID="1028"><v:paragraph/><v:tabList/>般若與十八空</text>		</g>
		<g id="shape5-11" v:mID="5" v:groupContext="shape" transform="translate(71.714,-0.75)">
			<title>工作表.5</title>
			<desc>一———俱無所有捨離不著</desc>
			<v:textBlock v:margins="rect(0,0,0,0)" v:tabSpace="42.5197"/>
			<v:textRect cx="72.5588" cy="36.9331" width="145.12" height="13.5449"/>
			<rect x="0" y="30.1606" width="145.118" height="13.5449" class="st1"/>
			<text x="0" y="40.05" class="st2" v:langID="1028"><v:paragraph/><v:tabList/>一<tspan class="st4">———</tspan>俱無所有，捨離，不著</text>		</g>
		<g id="shape13-15" v:mID="13" v:groupContext="shape" transform="translate(105.826,12.0886) rotate(90)">
			<title>工作表.13</title>
			<path d="M0 36.11 C0 38.25 0.89 39.91 2 39.91 L10.05 39.91 C11.16 39.91 12.05 41.62 12.05 43.71 C12.05 41.57 12.93 39.91
						 14.05 39.91 L22.09 39.91 C23.21 39.91 24.09 38.2 24.09 36.11 L0 36.11 Z" class="st5"/>
			<path d="M0 36.11 C0 38.25 0.89 39.91 2 39.91 L10.05 39.91 C11.16 39.91 12.05 41.62 12.05 43.71 C12.05 41.57 12.93 39.91
						 14.05 39.91 L22.09 39.91 C23.21 39.91 24.09 38.2 24.09 36.11" class="st6"/>
		</g>
		<g id="shape14-18" v:mID="14" v:groupContext="shape" transform="translate(126.175,6.41924) rotate(90)">
			<title>工作表.14</title>
			<path d="M0 36.11 C0 38.21 0.57 39.94 1.25 39.94 L6.3 39.94 C7.01 39.94 7.58 41.61 7.58 43.71 C7.58 41.61 8.16 39.94
						 8.83 39.94 L13.88 39.94 C14.59 39.94 15.17 38.21 15.17 36.11 L0 36.11 Z" class="st5"/>
			<path d="M0 36.11 C0 38.21 0.57 39.94 1.25 39.94 L6.3 39.94 C7.01 39.94 7.58 41.61 7.58 43.71 C7.58 41.61 8.16 39.94
						 8.83 39.94 L13.88 39.94 C14.59 39.94 15.17 38.21 15.17 36.11" class="st6"/>
		</g>
	</g>
</svg>
