<?xml version="1.0" encoding="UTF-8" standalone="no"?>
<!DOCTYPE svg PUBLIC "-//W3C//DTD SVG 1.1//EN" "http://www.w3.org/Graphics/SVG/1.1/DTD/svg11.dtd">
<!-- 由 Microsoft Visio, SVG Export 產生 M031.113-2=F02109.svg 頁-1 -->
<svg xmlns="http://www.w3.org/2000/svg" xmlns:xlink="http://www.w3.org/1999/xlink" xmlns:ev="http://www.w3.org/2001/xml-events"
		xmlns:v="http://schemas.microsoft.com/visio/2003/SVGExtensions/" width="5.07774in" height="0.685945in"
		viewBox="0 0 365.597 49.388" xml:space="preserve" color-interpolation-filters="sRGB" class="st5">
	<v:documentProperties v:langID="1028" v:viewMarkup="false"/>

	<style type="text/css">
	<![CDATA[
		.st1 {fill:none;stroke:none;stroke-linecap:butt;stroke-width:0.75}
		.st2 {fill:#000000;font-family:新細明體;font-size:0.833336em}
		.st3 {fill:none}
		.st4 {stroke:#000000;stroke-linecap:round;stroke-linejoin:round;stroke-width:0.705463}
		.st5 {fill:none;fill-rule:evenodd;font-size:12px;overflow:visible;stroke-linecap:square;stroke-miterlimit:3}
	]]>
	</style>

	<g v:mID="0" v:index="1" v:groupContext="foregroundPage">
		<title>頁-1</title>
		<v:pageProperties v:drawingScale="0.0393701" v:pageScale="0.0393701" v:drawingUnits="24" v:shadowOffsetX="9"
				v:shadowOffsetY="-9"/>
		<g id="group17-1" transform="translate(0.352732,-0.75)" v:mID="17" v:groupContext="group">
			<title>工作表.17</title>
			<g id="shape1-2" v:mID="1" v:groupContext="shape" transform="translate(9.8186,-33.7041) rotate(-0.2)">
				<title>工作表.1</title>
				<desc>問聖人所得及如、法性、實際不應空。</desc>
				<v:textBlock v:margins="rect(0,0,0,0)" v:tabSpace="42.5197"/>
				<v:textRect cx="91.5007" cy="42.6156" width="183.01" height="13.5449"/>
				<rect x="0" y="35.8431" width="183.001" height="13.5449" class="st1"/>
				<text x="0" y="45.73" class="st2" v:langID="1028"><v:paragraph/><v:tabList/>問：聖人所得及如、法性、實際不應空。</text>			</g>
			<g id="shape2-5" v:mID="2" v:groupContext="shape" transform="translate(10.1471,-6.7239) rotate(-0.2)">
				<title>工作表.2</title>
				<desc>答</desc>
				<v:textBlock v:margins="rect(0,0,0,0)" v:tabSpace="42.5197"/>
				<v:textRect cx="11.2874" cy="42.6156" width="22.58" height="13.5449"/>
				<rect x="0" y="35.8431" width="22.5748" height="13.5449" class="st1"/>
				<text x="-0" y="45.73" class="st2" v:langID="1028"><v:paragraph/><v:tabList/>答：</text>			</g>
			<g id="shape3-8" v:mID="3" v:groupContext="shape" transform="translate(39.7756,-16.9307) rotate(-0.2)">
				<title>工作表.3</title>
				<desc>是亦從緣生今有後無不應著云何不空有為無漏從有漏緣生故空。</desc>
				<v:textBlock v:margins="rect(0,0,0,0)" v:tabSpace="42.5197"/>
				<v:textRect cx="162.274" cy="42.6156" width="324.55" height="13.5449"/>
				<rect x="0" y="35.8431" width="324.549" height="13.5449" class="st1"/>
				<text x="0" y="45.73" class="st2" v:langID="1028"><v:paragraph/><v:tabList/>是亦從緣生，今有後無不應著，云何不空？有為無漏從有漏緣生，故空。</text>			</g>
			<g id="shape11-11" v:mID="11" v:groupContext="shape" transform="translate(39.8347,0.000300889) rotate(-0.2)">
				<title>工作表.11</title>
				<desc>如法性實際無為即是有〔為〕實相故空。</desc>
				<v:textBlock v:margins="rect(0,0,0,0)" v:tabSpace="42.5197"/>
				<v:textRect cx="106.967" cy="42.6156" width="213.94" height="13.5449"/>
				<rect x="0" y="35.8431" width="213.934" height="13.5449" class="st1"/>
				<text x="0" y="45.73" class="st2" v:langID="1028"><v:paragraph/><v:tabList/>如法性實際（無為），即是有〔為〕實相故空。</text>			</g>
			<g id="shape13-14" v:mID="13" v:groupContext="shape" transform="translate(49.3259,5.0046) rotate(89.8)">
				<title>工作表.13</title>
				<path d="M0 40.92 C0 43.27 1.28 45.16 2.95 45.16 L14.76 45.16 C16.34 45.16 17.72 47.04 17.72 49.39 C17.72 47.04 19
							 45.16 20.67 45.16 L32.48 45.16 C34.05 45.16 35.43 43.27 35.43 40.92 L0 40.92 Z" class="st3"/>
				<path d="M0 40.92 C0 43.27 1.28 45.16 2.95 45.16 L14.76 45.16 C16.34 45.16 17.72 47.04 17.72 49.39 C17.72 47.04 19
							 45.16 20.67 45.16 L32.48 45.16 C34.05 45.16 35.43 43.27 35.43 40.92" class="st4"/>
			</g>
			<g id="shape14-17" v:mID="14" v:groupContext="shape" transform="translate(79.9334,22.0115) rotate(89.8)">
				<title>工作表.14</title>
				<path d="M0 40.92 C0 43.27 0.94 45.16 2.01 45.16 L10.04 45.16 C11.11 45.16 12.05 47.04 12.05 49.39 C12.05 47.04 12.99
							 45.16 14.06 45.16 L22.09 45.16 C23.16 45.16 24.1 43.27 24.1 40.92 L0 40.92 Z" class="st3"/>
				<path d="M0 40.92 C0 43.27 0.94 45.16 2.01 45.16 L10.04 45.16 C11.11 45.16 12.05 47.04 12.05 49.39 C12.05 47.04 12.99
							 45.16 14.06 45.16 L22.09 45.16 C23.16 45.16 24.1 43.27 24.1 40.92" class="st4"/>
			</g>
		</g>
	</g>
</svg>
