<?xml version="1.0" encoding="UTF-8" standalone="no"?>
<!DOCTYPE svg PUBLIC "-//W3C//DTD SVG 1.1//EN" "http://www.w3.org/Graphics/SVG/1.1/DTD/svg11.dtd">
<!-- 由 Microsoft Visio, SVG Export 產生 A01304.svg 頁-1 -->
<svg xmlns="http://www.w3.org/2000/svg" xmlns:xlink="http://www.w3.org/1999/xlink" xmlns:ev="http://www.w3.org/2001/xml-events"
		xmlns:v="http://schemas.microsoft.com/visio/2003/SVGExtensions/" width="5.02674in" height="0.391202in"
		viewBox="0 0 361.925 28.1665" xml:space="preserve" color-interpolation-filters="sRGB" class="st8">
	<v:documentProperties v:langID="1028" v:viewMarkup="false"/>

	<style type="text/css">
	<![CDATA[
		.st1 {fill:none;stroke:none;stroke-linecap:butt;stroke-width:0.75}
		.st2 {fill:#000000;font-family:新細明體;font-size:0.833336em}
		.st3 {font-family:Times New Roman;font-size:1em;letter-spacing:0.749998em}
		.st4 {font-size:1em}
		.st5 {font-family:Times New Roman;font-size:1em}
		.st6 {fill:none}
		.st7 {stroke:#040000;stroke-linecap:round;stroke-linejoin:round;stroke-width:0.705463}
		.st8 {fill:none;fill-rule:evenodd;font-size:12px;overflow:visible;stroke-linecap:square;stroke-miterlimit:3}
	]]>
	</style>

	<g v:mID="0" v:index="1" v:groupContext="foregroundPage">
		<title>頁-1</title>
		<v:pageProperties v:drawingScale="0.0393701" v:pageScale="0.0393701" v:drawingUnits="24" v:shadowOffsetX="9"
				v:shadowOffsetY="-9"/>
		<g id="shape2-1" v:mID="2" v:groupContext="shape" transform="translate(0.75,-7.2368)">
			<title>工作表.2</title>
			<desc>性與相</desc>
			<v:textBlock v:margins="rect(0,0,0,0)" v:tabSpace="42.5197"/>
			<v:textRect cx="16.9311" cy="21.3941" width="33.87" height="13.5449"/>
			<rect x="0" y="14.6216" width="33.8622" height="13.5449" class="st1"/>
			<text x="0" y="24.51" class="st2" v:langID="1028"><v:paragraph/><v:tabList/>性與相</text>		</g>
		<g id="shape3-4" v:mID="3" v:groupContext="shape" transform="translate(38.8113,-0.75)">
			<title>工作表.3</title>
			<desc>一云無別 一云小別——性是內體相是外可識近為性遠為相性相不必一貫</desc>
			<v:textBlock v:margins="rect(0,0,0,0)" v:tabSpace="42.5197"/>
			<v:textRect cx="161.182" cy="14.8333" width="322.37" height="26.6665"/>
			<rect x="0" y="1.5" width="322.364" height="26.6665" class="st1"/>
			<text x="0" y="10.72" class="st2" v:langID="1028"><v:paragraph v:spBefore="2"/><v:tabList/>一云無別<tspan class="st3"> </tspan><tspan
						x="0" dy="1.446em" class="st4">一云小別</tspan><tspan class="st5">——</tspan>性是內體，相是外可識．近為性，遠為相（性相不必一貫）</text>		</g>
		<g id="shape10-10" v:mID="10" v:groupContext="shape" transform="translate(60.2455,6.10429) rotate(90)">
			<title>工作表.10</title>
			<path d="M0 22.5 C0 24.06 0.58 25.33 1.29 25.33 L6.49 25.33 C7.2 25.33 7.78 26.61 7.78 28.17 C7.78 26.61 8.36 25.33 9.1
						 25.33 L14.3 25.33 C15.01 25.33 15.59 24.06 15.59 22.5 L0 22.5 Z" class="st6"/>
			<path d="M0 22.5 C0 24.06 0.58 25.33 1.29 25.33 L6.49 25.33 C7.2 25.33 7.78 26.61 7.78 28.17 C7.78 26.61 8.36 25.33 9.1
						 25.33 L14.3 25.33 C15.01 25.33 15.59 24.06 15.59 22.5" class="st7"/>
		</g>
	</g>
</svg>
