<?xml version="1.0" encoding="UTF-8" standalone="no"?>
<!DOCTYPE svg PUBLIC "-//W3C//DTD SVG 1.1//EN" "http://www.w3.org/Graphics/SVG/1.1/DTD/svg11.dtd">
<!-- 由 Microsoft Visio, SVG Export 產生 F2105.svg 頁-1 -->
<svg xmlns="http://www.w3.org/2000/svg" xmlns:xlink="http://www.w3.org/1999/xlink" xmlns:ev="http://www.w3.org/2001/xml-events"
		xmlns:v="http://schemas.microsoft.com/visio/2003/SVGExtensions/" width="2.87622in" height="0.654482in"
		viewBox="0 0 207.088 47.1227" xml:space="preserve" color-interpolation-filters="sRGB" class="st5">
	<v:documentProperties v:langID="1028" v:viewMarkup="false"/>

	<style type="text/css">
	<![CDATA[
		.st1 {fill:none;stroke:none;stroke-linecap:butt;stroke-width:0.75}
		.st2 {fill:#000000;font-family:新細明體;font-size:0.833336em}
		.st3 {fill:none}
		.st4 {stroke:#000000;stroke-linecap:round;stroke-linejoin:round;stroke-width:0.705463}
		.st5 {fill:none;fill-rule:evenodd;font-size:12px;overflow:visible;stroke-linecap:square;stroke-miterlimit:3}
	]]>
	</style>

	<g v:mID="0" v:index="1" v:groupContext="foregroundPage">
		<title>頁-1</title>
		<v:pageProperties v:drawingScale="0.0393701" v:pageScale="0.0393701" v:drawingUnits="24" v:shadowOffsetX="9"
				v:shadowOffsetY="-9"/>
		<g id="shape3-1" v:mID="3" v:groupContext="shape" transform="translate(41.3671,-16.1059) rotate(-0.2)">
			<title>工作表.3</title>
			<desc>畢竟空中空亦空無有虛實相待相。</desc>
			<v:textBlock v:margins="rect(0,0,0,0)" v:tabSpace="42.5197"/>
			<v:textRect cx="82.3745" cy="40.3503" width="164.75" height="13.5449"/>
			<rect x="0" y="33.5778" width="164.749" height="13.5449" class="st1"/>
			<text x="-0" y="43.46" class="st2" v:langID="1028"><v:paragraph/><v:tabList/>畢竟空中空亦空，無有虛實相待相。</text>		</g>
		<g id="shape4-4" v:mID="4" v:groupContext="shape" transform="translate(41.4257,-0.749713) rotate(-0.2)">
			<title>工作表.4</title>
			<desc>一切無餘名畢竟不應計別有相待。</desc>
			<v:textBlock v:margins="rect(0,0,0,0)" v:tabSpace="42.5197"/>
			<v:textRect cx="82.3745" cy="40.3503" width="164.75" height="13.5449"/>
			<rect x="0" y="33.5778" width="164.749" height="13.5449" class="st1"/>
			<text x="-0" y="43.46" class="st2" v:langID="1028"><v:paragraph/><v:tabList/>一切無餘名畢竟，不應計別有相待。</text>		</g>
		<g id="shape1-7" v:mID="1" v:groupContext="shape" transform="translate(11.7295,-32.276) rotate(-0.2)">
			<title>工作表.1</title>
			<desc>問若無一法實不應有虛妄</desc>
			<v:textBlock v:margins="rect(0,0,0,0)" v:tabSpace="42.5197"/>
			<v:textRect cx="79.0119" cy="40.3503" width="158.03" height="13.5449"/>
			<rect x="0" y="33.5778" width="158.024" height="13.5449" class="st1"/>
			<text x="0" y="43.46" class="st2" v:langID="1028"><v:paragraph/><v:tabList/>問：若無一法實，不應有虛妄？</text>		</g>
		<g id="shape2-10" v:mID="2" v:groupContext="shape" transform="translate(11.4737,-7.67952) rotate(-0.2)">
			<title>工作表.2</title>
			<desc>答</desc>
			<v:textBlock v:margins="rect(0,0,0,0)" v:tabSpace="42.5197"/>
			<v:textRect cx="11.2874" cy="40.3503" width="22.58" height="13.5449"/>
			<rect x="0" y="33.5778" width="22.5748" height="13.5449" class="st1"/>
			<text x="0" y="43.46" class="st2" v:langID="1028"><v:paragraph/><v:tabList/>答：</text>		</g>
		<g id="shape13-13" v:mID="13" v:groupContext="shape" transform="translate(47.4187,4.1453) rotate(89.8)">
			<title>工作表.13</title>
			<path d="M0 38.66 C0 41.01 1.17 42.89 2.69 42.89 L13.46 42.89 C14.9 42.89 16.16 44.77 16.16 47.12 C16.16 44.77 17.32
						 42.89 18.85 42.89 L29.62 42.89 C31.06 42.89 32.31 41.01 32.31 38.66 L0 38.66 Z" class="st3"/>
			<path d="M0 38.66 C0 41.01 1.17 42.89 2.69 42.89 L13.46 42.89 C14.9 42.89 16.16 44.77 16.16 47.12 C16.16 44.77 17.32
						 42.89 18.85 42.89 L29.62 42.89 C31.06 42.89 32.31 41.01 32.31 38.66" class="st4"/>
		</g>
		<g id="shape14-16" v:mID="14" v:groupContext="shape" transform="translate(79.556,20.8643) rotate(89.8)">
			<title>工作表.14</title>
			<path d="M0 39.79 C0 41.83 0.82 43.46 1.89 43.46 L9.45 43.46 C10.46 43.46 11.34 45.09 11.34 47.12 C11.34 45.09 12.16
						 43.46 13.23 43.46 L20.79 43.46 C21.8 43.46 22.68 41.83 22.68 39.79 L0 39.79 Z" class="st3"/>
			<path d="M0 39.79 C0 41.83 0.82 43.46 1.89 43.46 L9.45 43.46 C10.46 43.46 11.34 45.09 11.34 47.12 C11.34 45.09 12.16
						 43.46 13.23 43.46 L20.79 43.46 C21.8 43.46 22.68 41.83 22.68 39.79" class="st4"/>
		</g>
	</g>
</svg>
