<?xml version="1.0" encoding="UTF-8" standalone="no"?>
<!DOCTYPE svg PUBLIC "-//W3C//DTD SVG 1.1//EN" "http://www.w3.org/Graphics/SVG/1.1/DTD/svg11.dtd">
<!-- 由 Microsoft Visio, SVG Export 產生 M032.074=F02602.svg 頁-1 -->
<svg xmlns="http://www.w3.org/2000/svg" xmlns:xlink="http://www.w3.org/1999/xlink" xmlns:ev="http://www.w3.org/2001/xml-events"
		xmlns:v="http://schemas.microsoft.com/visio/2003/SVGExtensions/" width="5.32621in" height="0.8978in"
		viewBox="0 0 383.487 64.6416" xml:space="preserve" color-interpolation-filters="sRGB" class="st6">
	<v:documentProperties v:langID="1028" v:viewMarkup="false"/>

	<style type="text/css">
	<![CDATA[
		.st1 {fill:none;stroke:none;stroke-linecap:butt;stroke-width:0.75}
		.st2 {fill:#000000;font-family:新細明體;font-size:0.833336em}
		.st3 {font-family:Times New Roman;font-size:1em}
		.st4 {fill:none}
		.st5 {stroke:#000000;stroke-linecap:round;stroke-linejoin:round;stroke-width:0.705463}
		.st6 {fill:none;fill-rule:evenodd;font-size:12px;overflow:visible;stroke-linecap:square;stroke-miterlimit:3}
	]]>
	</style>

	<g v:mID="0" v:index="1" v:groupContext="foregroundPage">
		<title>頁-1</title>
		<v:pageProperties v:drawingScale="0.0393701" v:pageScale="0.0393701" v:drawingUnits="24" v:shadowOffsetX="9"
				v:shadowOffsetY="-9"/>
		<g id="group38-1" transform="translate(0.75,-0.75)" v:mID="38" v:groupContext="group">
			<title>工作表.38</title>
			<g id="shape3-2" v:mID="3" v:groupContext="shape" transform="translate(43.0501,-48.8742) rotate(-0.2)">
				<title>工作表.3</title>
				<desc>1三世平等無異無始無後無住名為如。</desc>
				<v:textBlock v:margins="rect(0,0,0,0)" v:tabSpace="42.5197"/>
				<v:textRect cx="103.45" cy="57.8691" width="206.91" height="13.5449"/>
				<rect x="0" y="51.0967" width="206.9" height="13.5449" class="st1"/>
				<text x="0" y="60.98" class="st2" v:langID="1028"><v:paragraph/><v:tabList/>（<tspan class="st3">1</tspan>）三世平等無異（無始無後無住）名為如。</text>			</g>
			<g id="shape9-6" v:mID="9" v:groupContext="shape" transform="translate(-0.178361,-23.8628) rotate(-0.2)">
				<title>工作表.9</title>
				<desc>第二說</desc>
				<v:textBlock v:margins="rect(0,0,0,0)"/>
				<v:textRect cx="17.9203" cy="57.8691" width="35.85" height="13.5449"/>
				<rect x="0" y="51.0967" width="35.8405" height="13.5449" class="st1"/>
				<text x="0" y="60.98" class="st2" v:langID="1028"><v:paragraph/><v:tabList/>第二說</text>			</g>
			<g id="shape10-9" v:mID="10" v:groupContext="shape" transform="translate(98.3587,5.06948) rotate(89.8)">
				<title>工作表.10</title>
				<path d="M0 56.24 C0 58.57 2.05 60.44 4.72 60.44 L23.62 60.44 C26.22 60.44 28.35 62.31 28.35 64.64 C28.35 62.31 30.39
							 60.44 33.07 60.44 L51.97 60.44 C54.57 60.44 56.69 58.57 56.69 56.24 L0 56.24 Z" class="st4"/>
				<path d="M0 56.24 C0 58.57 2.05 60.44 4.72 60.44 L23.62 60.44 C26.22 60.44 28.35 62.31 28.35 64.64 C28.35 62.31 30.39
							 60.44 33.07 60.44 L51.97 60.44 C54.57 60.44 56.69 58.57 56.69 56.24" class="st5"/>
			</g>
			<g id="shape13-12" v:mID="13" v:groupContext="shape" transform="translate(43.3671,-33.8625) rotate(-0.2)">
				<title>工作表.13</title>
				<desc>2行是如已入無量法性涅槃分。又智慧分別入如中從如入自性</desc>
				<v:textBlock v:margins="rect(0,0,0,0)" v:tabSpace="42.5197"/>
				<v:textRect cx="169.198" cy="57.8691" width="338.4" height="13.5449"/>
				<rect x="0" y="51.0967" width="338.397" height="13.5449" class="st1"/>
				<text x="0" y="60.98" class="st2" v:langID="1028"><v:paragraph/><v:tabList/>（<tspan class="st3">2</tspan>）行是如已，入無量法性（涅槃分）。又智慧分別入如中，從如入自性，</text>			</g>
			<g id="shape15-16" v:mID="15" v:groupContext="shape" transform="translate(68.4361,-16.9297) rotate(-0.2)">
				<title>工作表.15</title>
				<desc>如本未生滅諸戲論一切令歸一法性是名法性。</desc>
				<v:textBlock v:margins="rect(0,0,0,0)" v:tabSpace="42.5197"/>
				<v:textRect cx="124.07" cy="57.8691" width="248.15" height="13.5449"/>
				<rect x="0" y="51.0967" width="248.141" height="13.5449" class="st1"/>
				<text x="0" y="60.98" class="st2" v:langID="1028"><v:paragraph/><v:tabList/>如本未生，滅諸戲論，一切令歸一法性，是名法性。</text>			</g>
			<g id="shape22-19" v:mID="22" v:groupContext="shape" transform="translate(43.4844,0.000393819) rotate(-0.2)">
				<title>工作表.22</title>
				<desc>3法性名實入處名為際。大義</desc>
				<v:textBlock v:margins="rect(0,0,0,0)" v:tabSpace="42.5197"/>
				<v:textRect cx="90.8906" cy="57.8691" width="181.79" height="13.5449"/>
				<rect x="0" y="51.0967" width="181.781" height="13.5449" class="st1"/>
				<text x="0" y="60.98" class="st2" v:langID="1028"><v:paragraph/><v:tabList/>（<tspan class="st3">3</tspan>）法性名實，入處名為際。（大義）</text>			</g>
		</g>
	</g>
</svg>
