<?xml version="1.0" encoding="UTF-8" standalone="no"?>
<!DOCTYPE svg PUBLIC "-//W3C//DTD SVG 1.1//EN" "http://www.w3.org/Graphics/SVG/1.1/DTD/svg11.dtd">
<!-- 由 Microsoft Visio, SVG Export 產生 F01701.svg 頁-1 -->
<svg xmlns="http://www.w3.org/2000/svg" xmlns:xlink="http://www.w3.org/1999/xlink" xmlns:ev="http://www.w3.org/2001/xml-events"
		xmlns:v="http://schemas.microsoft.com/visio/2003/SVGExtensions/" width="2.91995in" height="0.446697in"
		viewBox="0 0 210.236 32.1621" xml:space="preserve" color-interpolation-filters="sRGB" class="st5">
	<v:documentProperties v:langID="1028" v:viewMarkup="false"/>

	<style type="text/css">
	<![CDATA[
		.st1 {fill:none;stroke:none;stroke-linecap:butt;stroke-width:0.75}
		.st2 {fill:#000000;font-family:新細明體;font-size:0.833336em}
		.st3 {fill:none}
		.st4 {stroke:#000000;stroke-linecap:round;stroke-linejoin:round;stroke-width:0.705463}
		.st5 {fill:none;fill-rule:evenodd;font-size:12px;overflow:visible;stroke-linecap:square;stroke-miterlimit:3}
	]]>
	</style>

	<g v:mID="0" v:index="1" v:groupContext="foregroundPage">
		<title>頁-1</title>
		<v:pageProperties v:drawingScale="0.0393701" v:pageScale="0.0393701" v:drawingUnits="24" v:shadowOffsetX="9"
				v:shadowOffsetY="-9"/>
		<g id="shape2-1" v:mID="2" v:groupContext="shape" transform="translate(65.7527,-17.3658) rotate(-0.2)">
			<title>工作表.2</title>
			<desc>佛說四緣少智執著故說空。</desc>
			<v:textBlock v:margins="rect(0,0,0,0)" v:tabSpace="42.5197"/>
			<v:textRect cx="71.8111" cy="25.3897" width="143.63" height="13.5449"/>
			<rect x="0" y="18.6173" width="143.622" height="13.5449" class="st1"/>
			<text x="0" y="28.5" class="st2" v:langID="1028"><v:paragraph/><v:tabList/>佛說四緣，少智執著，故說空。</text>		</g>
		<g id="shape3-4" v:mID="3" v:groupContext="shape" transform="translate(0.685014,-9.10475) rotate(-0.2)">
			<title>工作表.3</title>
			<desc>破不破四緣</desc>
			<v:textBlock v:margins="rect(0,0,0,0)" v:tabSpace="42.5197"/>
			<v:textRect cx="28.2185" cy="25.3897" width="56.44" height="13.5449"/>
			<rect x="0" y="18.6173" width="56.4371" height="13.5449" class="st1"/>
			<text x="0" y="28.5" class="st2" v:langID="1028"><v:paragraph/><v:tabList/>破不破四緣</text>		</g>
		<g id="shape5-7" v:mID="5" v:groupContext="shape" transform="translate(67.9767,-0.749804) rotate(-0.2)">
			<title>工作表.5</title>
			<desc>般若無所捨破。</desc>
			<v:textBlock v:margins="rect(0,0,0,0)" v:tabSpace="42.5197"/>
			<v:textRect cx="35.9742" cy="25.3897" width="71.95" height="13.5449"/>
			<rect x="0" y="18.6173" width="71.9485" height="13.5449" class="st1"/>
			<text x="0" y="28.5" class="st2" v:langID="1028"><v:paragraph/><v:tabList/>般若無所捨破。</text>		</g>
		<g id="shape6-10" v:mID="6" v:groupContext="shape" transform="translate(86.8234,2.53165) rotate(89.8)">
			<title>工作表.6</title>
			<path d="M0 23.7 C0 26.05 0.98 27.93 2.27 27.93 L11.34 27.93 C12.55 27.93 13.61 29.81 13.61 32.16 C13.61 29.81 14.59
						 27.93 15.87 27.93 L24.94 27.93 C26.15 27.93 27.21 26.05 27.21 23.7 L0 23.7 Z" class="st3"/>
			<path d="M0 23.7 C0 26.05 0.98 27.93 2.27 27.93 L11.34 27.93 C12.55 27.93 13.61 29.81 13.61 32.16 C13.61 29.81 14.59
						 27.93 15.87 27.93 L24.94 27.93 C26.15 27.93 27.21 26.05 27.21 23.7" class="st4"/>
		</g>
	</g>
</svg>
