<?xml version="1.0" encoding="UTF-8" standalone="no"?>
<!DOCTYPE svg PUBLIC "-//W3C//DTD SVG 1.1//EN" "http://www.w3.org/Graphics/SVG/1.1/DTD/svg11.dtd">
<!-- 由 Microsoft Visio, SVG Export 產生 A01403.svg 頁-1 -->
<svg xmlns="http://www.w3.org/2000/svg" xmlns:xlink="http://www.w3.org/1999/xlink" xmlns:ev="http://www.w3.org/2001/xml-events"
		xmlns:v="http://schemas.microsoft.com/visio/2003/SVGExtensions/" width="1.58186in" height="0.40374in"
		viewBox="0 0 113.894 29.0693" xml:space="preserve" color-interpolation-filters="sRGB" class="st6">
	<v:documentProperties v:langID="1028" v:viewMarkup="false"/>

	<style type="text/css">
	<![CDATA[
		.st1 {fill:none;stroke:none;stroke-linecap:butt;stroke-width:0.75}
		.st2 {fill:#000000;font-family:新細明體;font-size:0.833336em}
		.st3 {font-size:1em}
		.st4 {fill:none}
		.st5 {stroke:#040000;stroke-linecap:round;stroke-linejoin:round;stroke-width:0.705463}
		.st6 {fill:none;fill-rule:evenodd;font-size:12px;overflow:visible;stroke-linecap:square;stroke-miterlimit:3}
	]]>
	</style>

	<g v:mID="0" v:index="1" v:groupContext="foregroundPage">
		<title>頁-1</title>
		<v:pageProperties v:drawingScale="0.0393701" v:pageScale="0.0393701" v:drawingUnits="24" v:shadowOffsetX="9"
				v:shadowOffsetY="-9"/>
		<g id="shape1-1" v:mID="1" v:groupContext="shape" transform="translate(61.8609,-1.34311)">
			<title>工作表.1</title>
			<desc>得不可得 不得不可得</desc>
			<v:textBlock v:margins="rect(0,0,0,0)" v:tabSpace="42.5197"/>
			<v:textRect cx="25.6414" cy="15.8776" width="51.29" height="26.3834"/>
			<rect x="0" y="2.68592" width="51.2829" height="26.3834" class="st1"/>
			<text x="0" y="12.24" class="st2" v:langID="1028"><v:paragraph v:spLine="-1.4"/><v:tabList/>得不可得<v:newlineChar/><tspan
						x="0" dy="1.453em" class="st3">不得不可得</tspan></text>		</g>
		<g id="shape2-5" v:mID="2" v:groupContext="shape" transform="translate(0.75,-7.67198)">
			<title>工作表.2</title>
			<desc>二種不可得</desc>
			<v:textBlock v:margins="rect(0,0,0,0)" v:tabSpace="42.5197"/>
			<v:textRect cx="28.2185" cy="22.2968" width="56.44" height="13.5449"/>
			<rect x="0" y="15.5244" width="56.4371" height="13.5449" class="st1"/>
			<text x="0" y="25.41" class="st2" v:langID="1028"><v:paragraph/><v:tabList/>二種不可得</text>		</g>
		<g id="shape10-8" v:mID="10" v:groupContext="shape" transform="translate(81.5516,6.73921) rotate(90)">
			<title>工作表.10</title>
			<path d="M0 21.63 C0 23.7 0.59 25.35 1.28 25.35 L6.48 25.35 C7.21 25.35 7.8 27.04 7.8 29.07 C7.8 27.04 8.38 25.35 9.08
						 25.35 L14.27 25.35 C15 25.35 15.59 23.7 15.59 21.63 L0 21.63 Z" class="st4"/>
			<path d="M0 21.63 C0 23.7 0.59 25.35 1.28 25.35 L6.48 25.35 C7.21 25.35 7.8 27.04 7.8 29.07 C7.8 27.04 8.38 25.35 9.08
						 25.35 L14.27 25.35 C15 25.35 15.59 23.7 15.59 21.63" class="st5"/>
		</g>
	</g>
</svg>
