<?xml version="1.0" encoding="UTF-8" standalone="no"?>
<!DOCTYPE svg PUBLIC "-//W3C//DTD SVG 1.1//EN" "http://www.w3.org/Graphics/SVG/1.1/DTD/svg11.dtd">
<!-- 由 Microsoft Visio, SVG Export 產生 F2605.svg 頁-1 -->
<svg xmlns="http://www.w3.org/2000/svg" xmlns:xlink="http://www.w3.org/1999/xlink" xmlns:ev="http://www.w3.org/2001/xml-events"
		xmlns:v="http://schemas.microsoft.com/visio/2003/SVGExtensions/" width="5.05856in" height="0.934552in"
		viewBox="0 0 364.216 67.2877" xml:space="preserve" color-interpolation-filters="sRGB" class="st5">
	<v:documentProperties v:langID="1028" v:viewMarkup="false"/>

	<style type="text/css">
	<![CDATA[
		.st1 {fill:none;stroke:none;stroke-linecap:butt;stroke-width:0.75}
		.st2 {fill:#000000;font-family:新細明體;font-size:0.833336em}
		.st3 {fill:none}
		.st4 {stroke:#000000;stroke-linecap:round;stroke-linejoin:round;stroke-width:0.705463}
		.st5 {fill:none;fill-rule:evenodd;font-size:12px;overflow:visible;stroke-linecap:square;stroke-miterlimit:3}
	]]>
	</style>

	<g v:mID="0" v:index="1" v:groupContext="foregroundPage">
		<title>頁-1</title>
		<v:pageProperties v:drawingScale="0.0393701" v:pageScale="0.0393701" v:drawingUnits="24" v:shadowOffsetX="9"
				v:shadowOffsetY="-9"/>
		<g id="shape1-1" v:mID="1" v:groupContext="shape" transform="translate(0.562403,-34.6118) rotate(-0.2)">
			<title>工作表.1</title>
			<v:textBlock v:margins="rect(0,0,0,0)"/>
			<rect x="0" y="53.7428" width="154.261" height="13.5449" class="st1"/>
		</g>
		<g id="shape2-3" v:mID="2" v:groupContext="shape" transform="translate(46.8163,-51.888) rotate(-0.2)">
			<title>工作表.2</title>
			<desc>知實相中無常樂我淨捨是觀法實相如涅槃不生滅如本不生名為如。</desc>
			<v:textBlock v:margins="rect(0,0,0,0)" v:tabSpace="42.5197"/>
			<v:textRect cx="158.208" cy="60.5153" width="316.42" height="13.5449"/>
			<rect x="0" y="53.7428" width="316.417" height="13.5449" class="st1"/>
			<text x="0" y="63.63" class="st2" v:langID="1028"><v:paragraph/><v:tabList/>知實相中無常樂我淨，捨是觀法，實相如涅槃不生滅如本不生名為如。</text>		</g>
		<g id="shape8-6" v:mID="8" v:groupContext="shape" transform="translate(0.621504,-17.6806) rotate(-0.2)">
			<title>工作表.8</title>
			<v:textBlock v:margins="rect(0,0,0,0)"/>
			<rect x="0" y="53.7428" width="60.1995" height="13.5449" class="st1"/>
		</g>
		<g id="shape9-8" v:mID="9" v:groupContext="shape" transform="translate(46.8735,-33.8397) rotate(-0.2)">
			<title>工作表.9</title>
			<desc>如實常住諸法性自爾一得涅槃種種方便法亦名法性。</desc>
			<v:textBlock v:margins="rect(0,0,0,0)"/>
			<v:textRect cx="126.06" cy="60.5153" width="252.13" height="13.5449"/>
			<rect x="0" y="53.7428" width="252.12" height="13.5449" class="st1"/>
			<text x="0" y="63.63" class="st2" v:langID="1028"><v:paragraph/><v:tabList/>如實常住，諸法性自爾一得涅槃種種方便法，亦名法性。</text>		</g>
		<g id="shape15-11" v:mID="15" v:groupContext="shape" transform="translate(0.680604,-0.74959) rotate(-0.2)">
			<title>工作表.15</title>
			<v:textBlock v:margins="rect(0,0,0,0)"/>
			<rect x="0" y="53.7428" width="154.261" height="13.5449" class="st1"/>
		</g>
		<g id="shape16-13" v:mID="16" v:groupContext="shape" transform="translate(46.9345,-18.026) rotate(-0.2)">
			<title>工作表.16</title>
			<desc>得證時如法性則是實際。</desc>
			<v:textBlock v:margins="rect(0,0,0,0)" v:tabSpace="42.5197"/>
			<v:textRect cx="67.7245" cy="60.5153" width="135.45" height="13.5449"/>
			<rect x="0" y="53.7428" width="135.449" height="13.5449" class="st1"/>
			<text x="0" y="63.63" class="st2" v:langID="1028"><v:paragraph/><v:tabList/>得證時，如法性則是實際。</text>		</g>
		<g id="shape23-16" v:mID="23" v:groupContext="shape" transform="translate(46.9936,-1.09448) rotate(-0.2)">
			<title>工作表.23</title>
			<desc>法性無量無邊非心所量妙極於此名真際。</desc>
			<v:textBlock v:margins="rect(0,0,0,0)" v:tabSpace="42.5197"/>
			<v:textRect cx="112.874" cy="60.5153" width="225.75" height="13.5449"/>
			<rect x="0" y="53.7428" width="225.748" height="13.5449" class="st1"/>
			<text x="0" y="63.63" class="st2" v:langID="1028"><v:paragraph/><v:tabList/>法性無量無邊，非心所量，妙極於此名真際。</text>		</g>
		<g id="shape31-19" v:mID="31" v:groupContext="shape" transform="translate(102.052,4.98326) rotate(89.8)">
			<title>工作表.31</title>
			<path d="M0 58.82 C0 61.17 2.1 63.05 4.84 63.05 L24.21 63.05 C26.88 63.05 29.05 64.94 29.05 67.29 C29.05 64.94 31.15
						 63.05 33.9 63.05 L53.27 63.05 C55.93 63.05 58.11 61.17 58.11 58.82 L0 58.82 Z" class="st3"/>
			<path d="M0 58.82 C0 61.17 2.1 63.05 4.84 63.05 L24.21 63.05 C26.88 63.05 29.05 64.94 29.05 67.29 C29.05 64.94 31.15
						 63.05 33.9 63.05 L53.27 63.05 C55.93 63.05 58.11 61.17 58.11 58.82" class="st4"/>
		</g>
		<g id="shape32-22" v:mID="32" v:groupContext="shape" transform="translate(0.75,-26.481)">
			<title>工作表.32</title>
			<desc>第五說</desc>
			<v:textBlock v:margins="rect(0,0,0,0)"/>
			<v:textRect cx="16.9547" cy="60.5153" width="33.91" height="13.5449"/>
			<rect x="0" y="53.7428" width="33.9093" height="13.5449" class="st1"/>
			<text x="0" y="63.63" class="st2" v:langID="1028"><v:paragraph/><v:tabList/>第五說</text>		</g>
	</g>
</svg>
