<?xml version="1.0" encoding="UTF-8" standalone="no"?>
<!DOCTYPE svg PUBLIC "-//W3C//DTD SVG 1.1//EN" "http://www.w3.org/Graphics/SVG/1.1/DTD/svg11.dtd">
<!-- 由 Microsoft Visio, SVG Export 產生 A01402.svg 頁-1 -->
<svg xmlns="http://www.w3.org/2000/svg" xmlns:xlink="http://www.w3.org/1999/xlink" xmlns:ev="http://www.w3.org/2001/xml-events"
		xmlns:v="http://schemas.microsoft.com/visio/2003/SVGExtensions/" width="3.66847in" height="0.426865in"
		viewBox="0 0 264.13 30.7343" xml:space="preserve" color-interpolation-filters="sRGB" class="st7">
	<v:documentProperties v:langID="1028" v:viewMarkup="false"/>

	<style type="text/css">
	<![CDATA[
		.st1 {fill:none;stroke:none;stroke-linecap:butt;stroke-width:0.75}
		.st2 {fill:#000000;font-family:新細明體;font-size:0.833336em}
		.st3 {font-family:Times New Roman;font-size:1em}
		.st4 {font-size:1em}
		.st5 {fill:none}
		.st6 {stroke:#040000;stroke-linecap:round;stroke-linejoin:round;stroke-width:0.705463}
		.st7 {fill:none;fill-rule:evenodd;font-size:12px;overflow:visible;stroke-linecap:square;stroke-miterlimit:3}
	]]>
	</style>

	<g v:mID="0" v:index="1" v:groupContext="foregroundPage">
		<title>頁-1</title>
		<v:pageProperties v:drawingScale="0.0393701" v:pageScale="0.0393701" v:drawingUnits="24" v:shadowOffsetX="9"
				v:shadowOffsetY="-9"/>
		<g id="shape1-1" v:mID="1" v:groupContext="shape" transform="translate(60.0733,-0.75)">
			<title>工作表.1</title>
			<desc>利根——知諸法皆是法性——如神通變石為金 鈍根——分別乃得法性———如大冶錮石得金</desc>
			<v:textBlock v:margins="rect(0,0,0,0)" v:tabSpace="42.5197"/>
			<v:textRect cx="101.653" cy="16.1171" width="203.31" height="29.2343"/>
			<rect x="0" y="1.5" width="203.307" height="29.2343" class="st1"/>
			<text x="0" y="12.48" class="st2" v:langID="1028"><v:paragraph v:spLine="-1.4"/><v:tabList/>利根<tspan class="st3">——</tspan>知諸法皆是法性<tspan
						class="st3">——</tspan>如神通變石為金<v:newlineChar/><tspan x="0" dy="1.453em" class="st4">鈍根</tspan><tspan
						class="st3">——</tspan>分別乃得法性<tspan class="st3">———</tspan>如大冶錮石得金</text>		</g>
		<g id="shape2-9" v:mID="2" v:groupContext="shape" transform="translate(0.75,-7.96675)">
			<title>工作表.2</title>
			<desc>得法性二人</desc>
			<v:textBlock v:margins="rect(0,0,0,0)" v:tabSpace="42.5197"/>
			<v:textRect cx="28.2185" cy="23.9619" width="56.44" height="13.5449"/>
			<rect x="0" y="17.1894" width="56.4371" height="13.5449" class="st1"/>
			<text x="0" y="27.08" class="st2" v:langID="1028"><v:paragraph/><v:tabList/>得法性二人</text>		</g>
		<g id="shape10-12" v:mID="10" v:groupContext="shape" transform="translate(82.7552,8.69531) rotate(90)">
			<title>工作表.10</title>
			<path d="M0 23.29 C0 25.36 0.56 27.01 1.22 27.01 L6.18 27.01 C6.88 27.01 7.44 28.71 7.44 30.73 C7.44 28.71 8 27.01 8.66
						 27.01 L13.63 27.01 C14.32 27.01 14.88 25.36 14.88 23.29 L0 23.29 Z" class="st5"/>
			<path d="M0 23.29 C0 25.36 0.56 27.01 1.22 27.01 L6.18 27.01 C6.88 27.01 7.44 28.71 7.44 30.73 C7.44 28.71 8 27.01 8.66
						 27.01 L13.63 27.01 C14.32 27.01 14.88 25.36 14.88 23.29" class="st6"/>
		</g>
	</g>
</svg>
