<?xml version="1.0" encoding="UTF-8" standalone="no"?>
<!DOCTYPE svg PUBLIC "-//W3C//DTD SVG 1.1//EN" "http://www.w3.org/Graphics/SVG/1.1/DTD/svg11.dtd">
<!-- 由 Microsoft Visio, SVG Export 產生 M032.061＝F02601-1.svg 頁-1 -->
<svg xmlns="http://www.w3.org/2000/svg" xmlns:xlink="http://www.w3.org/1999/xlink" xmlns:ev="http://www.w3.org/2001/xml-events"
		xmlns:v="http://schemas.microsoft.com/visio/2003/SVGExtensions/" width="5.88358in" height="0.69728in"
		viewBox="0 0 423.618 50.2042" xml:space="preserve" color-interpolation-filters="sRGB" class="st5">
	<v:documentProperties v:langID="1028" v:viewMarkup="false"/>

	<style type="text/css">
	<![CDATA[
		.st1 {fill:none;stroke:none;stroke-linecap:butt;stroke-width:0.75}
		.st2 {fill:#000000;font-family:新細明體;font-size:0.833336em}
		.st3 {fill:none}
		.st4 {stroke:#000000;stroke-linecap:round;stroke-linejoin:round;stroke-width:0.705463}
		.st5 {fill:none;fill-rule:evenodd;font-size:12px;overflow:visible;stroke-linecap:square;stroke-miterlimit:3}
	]]>
	</style>

	<g v:mID="0" v:index="1" v:groupContext="foregroundPage">
		<title>頁-1</title>
		<v:pageProperties v:drawingScale="0.0393701" v:pageScale="0.0393701" v:drawingUnits="24" v:shadowOffsetX="9"
				v:shadowOffsetY="-9"/>
		<g id="group44-1" transform="translate(0.75,-0.75)" v:mID="44" v:groupContext="group">
			<title>工作表.44</title>
			<g id="shape12-2" v:mID="12" v:groupContext="shape" transform="translate(50.0211,-33.8608) rotate(-0.2)">
				<title>工作表.12</title>
				<desc>實相異名如法本相觀不見常樂我淨實是名無常苦無我不淨空捨倒不著正。</desc>
				<v:textBlock v:margins="rect(0,0,0,0)" v:tabSpace="42.5197"/>
				<v:textRect cx="185.962" cy="43.4317" width="371.93" height="13.5449"/>
				<rect x="0" y="36.6593" width="371.924" height="13.5449" class="st1"/>
				<text x="-0" y="46.55" class="st2" v:langID="1028"><v:paragraph/><v:tabList/>實相異名：如法本相觀，不見常樂我淨實，是名無常苦無我不淨空；捨倒不著正。</text>			</g>
			<g id="shape18-5" v:mID="18" v:groupContext="shape" transform="translate(-0.127965,-16.5761) rotate(-0.2)">
				<title>工作表.18</title>
				<v:textBlock v:margins="rect(0,0,0,0)"/>
				<rect x="0" y="36.6593" width="60.1995" height="13.5449" class="st1"/>
			</g>
			<g id="shape19-7" v:mID="19" v:groupContext="shape" transform="translate(50.3364,-16.7337) rotate(-0.2)">
				<title>工作表.19</title>
				<desc>得如已入法性中滅諸觀不生異信性自爾故。</desc>
				<v:textBlock v:margins="rect(0,0,0,0)"/>
				<v:textRect cx="112.104" cy="43.4317" width="224.21" height="13.5449"/>
				<rect x="0" y="36.6593" width="224.208" height="13.5449" class="st1"/>
				<text x="-0" y="46.55" class="st2" v:langID="1028"><v:paragraph/><v:tabList/>得如已，入法性中，滅諸觀不生異信，性自爾故。</text>			</g>
			<g id="shape26-10" v:mID="26" v:groupContext="shape" transform="translate(50.1393,0.000305861) rotate(-0.2)">
				<title>工作表.26</title>
				<desc>善入法性為實際。似用小義</desc>
				<v:textBlock v:margins="rect(0,0,0,0)" v:tabSpace="42.5197"/>
				<v:textRect cx="73.9348" cy="43.4317" width="147.87" height="13.5449"/>
				<rect x="0" y="36.6593" width="147.87" height="13.5449" class="st1"/>
				<text x="-0" y="46.55" class="st2" v:langID="1028"><v:paragraph/><v:tabList/>善入法性為實際。（似用小義）</text>			</g>
			<g id="shape40-13" v:mID="40" v:groupContext="shape" transform="translate(88.5792,6.41368) rotate(89.8)">
				<title>工作表.40</title>
				<path d="M0 41.74 C0 44.09 1.47 45.97 3.4 45.97 L17.01 45.97 C18.82 45.97 20.41 47.85 20.41 50.2 C20.41 47.85 21.88
							 45.97 23.81 45.97 L37.42 45.97 C39.23 45.97 40.82 44.09 40.82 41.74 L0 41.74 Z" class="st3"/>
				<path d="M0 41.74 C0 44.09 1.47 45.97 3.4 45.97 L17.01 45.97 C18.82 45.97 20.41 47.85 20.41 50.2 C20.41 47.85 21.88
							 45.97 23.81 45.97 L37.42 45.97 C39.23 45.97 40.82 44.09 40.82 41.74" class="st4"/>
			</g>
			<g id="shape42-16" v:mID="42" v:groupContext="shape" transform="translate(4.17262,-17.1139)">
				<title>工作表.42</title>
				<desc>第一說</desc>
				<v:textBlock v:margins="rect(0,0,0,0)"/>
				<v:textRect cx="16.9547" cy="43.4317" width="33.91" height="13.5449"/>
				<rect x="0" y="36.6593" width="33.9093" height="13.5449" class="st1"/>
				<text x="0" y="46.55" class="st2" v:langID="1028"><v:paragraph/><v:tabList/>第一說  </text>			</g>
		</g>
	</g>
</svg>
