<?xml version="1.0" encoding="UTF-8" standalone="no"?>
<!DOCTYPE svg PUBLIC "-//W3C//DTD SVG 1.1//EN" "http://www.w3.org/Graphics/SVG/1.1/DTD/svg11.dtd">
<!-- 由 Microsoft Visio, SVG Export 產生 F2401.svg 頁-1 -->
<svg xmlns="http://www.w3.org/2000/svg" xmlns:xlink="http://www.w3.org/1999/xlink" xmlns:ev="http://www.w3.org/2001/xml-events"
		xmlns:v="http://schemas.microsoft.com/visio/2003/SVGExtensions/" width="2.57993in" height="0.658376in"
		viewBox="0 0 185.755 47.4031" xml:space="preserve" color-interpolation-filters="sRGB" class="st5">
	<v:documentProperties v:langID="1028" v:viewMarkup="false"/>

	<style type="text/css">
	<![CDATA[
		.st1 {fill:none;stroke:none;stroke-linecap:butt;stroke-width:0.75}
		.st2 {fill:#000000;font-family:新細明體;font-size:0.833336em}
		.st3 {fill:none}
		.st4 {stroke:#000000;stroke-linecap:round;stroke-linejoin:round;stroke-width:0.705463}
		.st5 {fill:none;fill-rule:evenodd;font-size:12px;overflow:visible;stroke-linecap:square;stroke-miterlimit:3}
	]]>
	</style>

	<g v:mID="0" v:index="1" v:groupContext="foregroundPage">
		<title>頁-1</title>
		<v:pageProperties v:drawingScale="0.0393701" v:pageScale="0.0393701" v:drawingUnits="24" v:shadowOffsetX="9"
				v:shadowOffsetY="-9"/>
		<g id="shape2-1" v:mID="2" v:groupContext="shape" transform="translate(83.1943,-32.911) rotate(-0.2)">
			<title>工作表.2</title>
			<desc>獨與菩薩說</desc>
			<v:textBlock v:margins="rect(0,0,0,0)" v:tabSpace="42.5197"/>
			<v:textRect cx="28.2185" cy="40.6306" width="56.44" height="13.5449"/>
			<rect x="0" y="33.8582" width="56.4371" height="13.5449" class="st1"/>
			<text x="0" y="43.75" class="st2" v:langID="1028"><v:paragraph/><v:tabList/>獨與菩薩說</text>		</g>
		<g id="shape3-4" v:mID="3" v:groupContext="shape" transform="translate(0.631813,-16.5151) rotate(-0.2)">
			<title>工作表.3</title>
			<desc>二乘所不聞經</desc>
			<v:textBlock v:margins="rect(0,0,0,0)" v:tabSpace="42.5197"/>
			<v:textRect cx="33.8622" cy="40.6306" width="67.73" height="13.5449"/>
			<rect x="0" y="33.8582" width="67.7245" height="13.5449" class="st1"/>
			<text x="0" y="43.75" class="st2" v:langID="1028"><v:paragraph/><v:tabList/>二乘所不聞經</text>		</g>
		<g id="shape4-7" v:mID="4" v:groupContext="shape" transform="translate(83.2534,-16.8303) rotate(-0.2)">
			<title>工作表.4</title>
			<desc>至十方一乘世界世說</desc>
			<v:textBlock v:margins="rect(0,0,0,0)" v:tabSpace="42.5197"/>
			<v:textRect cx="50.7933" cy="40.6306" width="101.59" height="13.5449"/>
			<rect x="0" y="33.8582" width="101.587" height="13.5449" class="st1"/>
			<text x="0" y="43.75" class="st2" v:langID="1028"><v:paragraph/><v:tabList/>至十方一乘世界世說</text>		</g>
		<g id="shape5-10" v:mID="5" v:groupContext="shape" transform="translate(83.3125,-0.749711) rotate(-0.2)">
			<title>工作表.5</title>
			<desc>與諸天說小</desc>
			<v:textBlock v:margins="rect(0,0,0,0)" v:tabSpace="42.5197"/>
			<v:textRect cx="39.5059" cy="40.6306" width="79.02" height="13.5449"/>
			<rect x="0" y="33.8582" width="79.0119" height="13.5449" class="st1"/>
			<text x="0" y="43.75" class="st2" v:langID="1028"><v:paragraph/><v:tabList/>與諸天說（小）</text>		</g>
		<g id="shape6-13" v:mID="6" v:groupContext="shape" transform="translate(149.901,-1.00581) rotate(-0.2)">
			<title>工作表.6</title>
			<desc>。</desc>
			<v:textBlock v:margins="rect(0,0,0,0)" v:tabSpace="42.5197"/>
			<v:textRect cx="5.64371" cy="40.6306" width="11.29" height="13.5449"/>
			<rect x="0" y="33.8582" width="11.2874" height="13.5449" class="st1"/>
			<text x="-0" y="43.75" class="st2" v:langID="1028"><v:paragraph/><v:tabList/>。</text>		</g>
		<g id="shape14-16" v:mID="14" v:groupContext="shape" transform="translate(113.385,6.79078) rotate(89.8)">
			<title>工作表.14</title>
			<path d="M0 36.12 C0 39.22 1.22 41.76 2.82 41.76 L14.11 41.76 C15.61 41.76 16.93 44.2 16.93 47.4 C16.93 44.2 18.15 41.76
						 19.75 41.76 L31.04 41.76 C32.55 41.76 33.86 39.22 33.86 36.12 L0 36.12 Z" class="st3"/>
			<path d="M0 36.12 C0 39.22 1.22 41.76 2.82 41.76 L14.11 41.76 C15.61 41.76 16.93 44.2 16.93 47.4 C16.93 44.2 18.15 41.76
						 19.75 41.76 L31.04 41.76 C32.55 41.76 33.86 39.22 33.86 36.12" class="st4"/>
		</g>
	</g>
</svg>
