<?xml version="1.0" encoding="UTF-8" standalone="no"?>
<!DOCTYPE svg PUBLIC "-//W3C//DTD SVG 1.1//EN" "http://www.w3.org/Graphics/SVG/1.1/DTD/svg11.dtd">
<!-- 由 Microsoft Visio, SVG Export 產生 F2403.svg 頁-1 -->
<svg xmlns="http://www.w3.org/2000/svg" xmlns:xlink="http://www.w3.org/1999/xlink" xmlns:ev="http://www.w3.org/2001/xml-events"
		xmlns:v="http://schemas.microsoft.com/visio/2003/SVGExtensions/" width="5.51922in" height="0.720876in"
		viewBox="0 0 397.384 51.9031" xml:space="preserve" color-interpolation-filters="sRGB" class="st7">
	<v:documentProperties v:langID="1028" v:viewMarkup="false"/>

	<style type="text/css">
	<![CDATA[
		.st1 {fill:none;stroke:none;stroke-linecap:butt;stroke-width:0.75}
		.st2 {fill:#000000;font-family:新細明體;font-size:0.833336em}
		.st3 {font-family:Times New Roman;font-size:1em}
		.st4 {fill:none}
		.st5 {stroke:#000000;stroke-linecap:round;stroke-linejoin:round;stroke-width:0.705463}
		.st6 {stroke:#000000;stroke-dasharray:0.705463,1.41093;stroke-linecap:round;stroke-linejoin:round;stroke-width:0.705463}
		.st7 {fill:none;fill-rule:evenodd;font-size:12px;overflow:visible;stroke-linecap:square;stroke-miterlimit:3}
	]]>
	</style>

	<g v:mID="0" v:index="1" v:groupContext="foregroundPage">
		<title>頁-1</title>
		<v:pageProperties v:drawingScale="0.0393701" v:pageScale="0.0393701" v:drawingUnits="24" v:shadowOffsetX="9"
				v:shadowOffsetY="-9"/>
		<g id="shape1-1" v:mID="1" v:groupContext="shape" transform="translate(149.827,-37.4109) rotate(-0.2)">
			<title>工作表.1</title>
			<desc>出惡世似短</desc>
			<v:textBlock v:margins="rect(0,0,0,0)" v:tabSpace="42.5197"/>
			<v:textRect cx="28.2185" cy="45.1306" width="56.44" height="13.5449"/>
			<rect x="0" y="38.3582" width="56.4371" height="13.5449" class="st1"/>
			<text x="0" y="48.25" class="st2" v:langID="1028"><v:paragraph/><v:tabList/>出惡世似短</text>		</g>
		<g id="shape2-4" v:mID="2" v:groupContext="shape" transform="translate(88.0678,-27.4234) rotate(-0.2)">
			<title>工作表.2</title>
			<desc>生惡世故</desc>
			<v:textBlock v:margins="rect(0,0,0,0)" v:tabSpace="42.5197"/>
			<v:textRect cx="22.5748" cy="45.1306" width="45.15" height="13.5449"/>
			<rect x="0" y="38.3582" width="45.1496" height="13.5449" class="st1"/>
			<text x="-0" y="48.25" class="st2" v:langID="1028"><v:paragraph/><v:tabList/>生惡世故</text>		</g>
		<g id="shape3-7" v:mID="3" v:groupContext="shape" transform="translate(0.616105,-13.8852) rotate(-0.2)">
			<title>工作表.3</title>
			<desc>遣佛壽可短之疑</desc>
			<v:textBlock v:margins="rect(0,0,0,0)" v:tabSpace="42.5197"/>
			<v:textRect cx="39.5059" cy="45.1306" width="79.02" height="13.5449"/>
			<rect x="0" y="38.3582" width="79.0119" height="13.5449" class="st1"/>
			<text x="0" y="48.25" class="st2" v:langID="1028"><v:paragraph/><v:tabList/>遣佛壽可短之疑</text>		</g>
		<g id="shape4-10" v:mID="4" v:groupContext="shape" transform="translate(54.2649,-3.1943) rotate(-0.2)">
			<title>工作表.4</title>
			<v:textBlock v:margins="rect(0,0,0,0)"/>
			<rect x="0" y="38.3582" width="95.943" height="13.5449" class="st1"/>
		</g>
		<g id="shape5-12" v:mID="5" v:groupContext="shape" transform="translate(149.945,-19.4938) rotate(-0.2)">
			<title>工作表.5</title>
			<desc>生淨土即長</desc>
			<v:textBlock v:margins="rect(0,0,0,0)" v:tabSpace="42.5197"/>
			<v:textRect cx="28.2185" cy="45.1306" width="56.44" height="13.5449"/>
			<rect x="0" y="38.3582" width="56.4371" height="13.5449" class="st1"/>
			<text x="0" y="48.25" class="st2" v:langID="1028"><v:paragraph/><v:tabList/>生淨土即長</text>		</g>
		<g id="shape7-15" v:mID="7" v:groupContext="shape" transform="translate(304.498,-24.6936) rotate(-0.2)">
			<title>工作表.7</title>
			<desc>如日影水隨水大小</desc>
			<v:textBlock v:margins="rect(0,0,0,0)" v:tabSpace="42.5197"/>
			<v:textRect cx="45.9778" cy="45.1306" width="91.96" height="13.5449"/>
			<rect x="0" y="38.3582" width="91.9555" height="13.5449" class="st1"/>
			<text x="0" y="48.25" class="st2" v:langID="1028"><v:paragraph/><v:tabList/>如日影水，隨水大小</text>		</g>
		<g id="shape8-18" v:mID="8" v:groupContext="shape" transform="translate(88.2451,-0.749684) rotate(-0.2)">
			<title>工作表.8</title>
			<desc>神通力能速度故 ── 一日亦可何假百歲。</desc>
			<v:textBlock v:margins="rect(0,0,0,0)" v:tabSpace="42.5197"/>
			<v:textRect cx="101.587" cy="45.1306" width="203.18" height="13.5449"/>
			<rect x="0" y="38.3582" width="203.173" height="13.5449" class="st1"/>
			<text x="-0" y="48.25" class="st2" v:langID="1028"><v:paragraph/><v:tabList/>神通力能速度故<tspan class="st3"> </tspan><tspan
						class="st3">──</tspan><tspan class="st3"> </tspan>一日亦可何假百歲。</text>		</g>
		<g id="shape19-24" v:mID="19" v:groupContext="shape" transform="translate(186.414,7.56236) rotate(89.8)">
			<title>工作表.19</title>
			<path d="M0 40.62 C0 43.72 0.75 46.26 1.6 46.26 L8.02 46.26 C8.93 46.26 9.63 48.7 9.63 51.9 C9.63 48.7 10.37 46.26 11.23
						 46.26 L17.65 46.26 C18.56 46.26 19.25 43.72 19.25 40.62 L0 40.62 Z" class="st4"/>
			<path d="M0 40.62 C0 43.72 0.75 46.26 1.6 46.26 L8.02 46.26 C8.93 46.26 9.63 48.7 9.63 51.9 C9.63 48.7 10.37 46.26 11.23
						 46.26 L17.65 46.26 C18.56 46.26 19.25 43.72 19.25 40.62" class="st5"/>
		</g>
		<g id="shape20-27" v:mID="20" v:groupContext="shape" transform="translate(212.777,-42.5795) rotate(7.02839)">
			<title>工作表.20</title>
			<path d="M0 51.9 L91.81 51.9" class="st6"/>
		</g>
		<g id="shape21-30" v:mID="21" v:groupContext="shape" transform="translate(237.283,6.63115) rotate(-44.5179)">
			<title>工作表.21</title>
			<path d="M0 51.9 L33.48 51.9" class="st6"/>
		</g>
		<g id="shape22-33" v:mID="22" v:groupContext="shape" transform="translate(127.575,17.6415) rotate(89.8)">
			<title>工作表.22</title>
			<path d="M0 42.66 C0 45.2 1.06 47.28 2.28 47.28 L11.39 47.28 C12.68 47.28 13.67 49.28 13.67 51.9 C13.67 49.28 14.73 47.28
						 15.95 47.28 L25.06 47.28 C26.35 47.28 27.34 45.2 27.34 42.66 L0 42.66 Z" class="st4"/>
			<path d="M0 42.66 C0 45.2 1.06 47.28 2.28 47.28 L11.39 47.28 C12.68 47.28 13.67 49.28 13.67 51.9 C13.67 49.28 14.73 47.28
						 15.95 47.28 L25.06 47.28 C26.35 47.28 27.34 45.2 27.34 42.66" class="st5"/>
		</g>
	</g>
</svg>
