<?xml version="1.0" encoding="UTF-8" standalone="no"?>
<!DOCTYPE svg PUBLIC "-//W3C//DTD SVG 1.1//EN" "http://www.w3.org/Graphics/SVG/1.1/DTD/svg11.dtd">
<!-- 由 Microsoft Visio, SVG Export 產生 F2404.svg 頁-1 -->
<svg xmlns="http://www.w3.org/2000/svg" xmlns:xlink="http://www.w3.org/1999/xlink" xmlns:ev="http://www.w3.org/2001/xml-events"
		xmlns:v="http://schemas.microsoft.com/visio/2003/SVGExtensions/" width="2.57774in" height="1.1534in"
		viewBox="0 0 185.597 83.0447" xml:space="preserve" color-interpolation-filters="sRGB" class="st5">
	<v:documentProperties v:langID="1028" v:viewMarkup="false"/>

	<style type="text/css">
	<![CDATA[
		.st1 {fill:none;stroke:none;stroke-linecap:butt;stroke-width:0.75}
		.st2 {fill:#000000;font-family:新細明體;font-size:0.833336em}
		.st3 {fill:none}
		.st4 {stroke:#000000;stroke-linecap:round;stroke-linejoin:round;stroke-width:0.705463}
		.st5 {fill:none;fill-rule:evenodd;font-size:12px;overflow:visible;stroke-linecap:square;stroke-miterlimit:3}
	]]>
	</style>

	<g v:mID="0" v:index="1" v:groupContext="foregroundPage">
		<title>頁-1</title>
		<v:pageProperties v:drawingScale="0.0393701" v:pageScale="0.0393701" v:drawingUnits="24" v:shadowOffsetX="9"
				v:shadowOffsetY="-9"/>
		<g id="shape1-1" v:mID="1" v:groupContext="shape" transform="translate(71.5068,-68.4735) rotate(-0.2)">
			<title>工作表.1</title>
			<desc>約法性生身佛說</desc>
			<v:textBlock v:margins="rect(0,0,0,0)" v:tabSpace="42.5197"/>
			<v:textRect cx="39.5059" cy="76.2722" width="79.02" height="13.5449"/>
			<rect x="0" y="69.4998" width="79.0119" height="13.5449" class="st1"/>
			<text x="-0" y="79.39" class="st2" v:langID="1028"><v:paragraph/><v:tabList/>約法性生身佛說</text>		</g>
		<g id="shape2-4" v:mID="2" v:groupContext="shape" transform="translate(71.5659,-51.5425) rotate(-0.2)">
			<title>工作表.2</title>
			<desc>約聞名得道之眾生說</desc>
			<v:textBlock v:margins="rect(0,0,0,0)" v:tabSpace="42.5197"/>
			<v:textRect cx="50.7933" cy="76.2722" width="101.59" height="13.5449"/>
			<rect x="0" y="69.4998" width="101.587" height="13.5449" class="st1"/>
			<text x="-0" y="79.39" class="st2" v:langID="1028"><v:paragraph/><v:tabList/>約聞名得道之眾生說</text>		</g>
		<g id="shape3-7" v:mID="3" v:groupContext="shape" transform="translate(0.507401,-34.4595) rotate(-0.2)">
			<title>工作表.3</title>
			<desc>聞佛名得度</desc>
			<v:textBlock v:margins="rect(0,0,0,0)" v:tabSpace="42.5197"/>
			<v:textRect cx="28.2185" cy="76.2722" width="56.44" height="13.5449"/>
			<rect x="0" y="69.4998" width="56.4371" height="13.5449" class="st1"/>
			<text x="0" y="79.39" class="st2" v:langID="1028"><v:paragraph/><v:tabList/>聞佛名得度</text>		</g>
		<g id="shape4-10" v:mID="4" v:groupContext="shape" transform="translate(71.625,-34.6115) rotate(-0.2)">
			<title>工作表.4</title>
			<desc>約聞名漸次得道說</desc>
			<v:textBlock v:margins="rect(0,0,0,0)" v:tabSpace="42.5197"/>
			<v:textRect cx="45.1496" cy="76.2722" width="90.3" height="13.5449"/>
			<rect x="0" y="69.4998" width="90.2993" height="13.5449" class="st1"/>
			<text x="-0" y="79.39" class="st2" v:langID="1028"><v:paragraph/><v:tabList/>約聞名漸次得道說</text>		</g>
		<g id="shape5-13" v:mID="5" v:groupContext="shape" transform="translate(71.6838,-17.6805) rotate(-0.2)">
			<title>工作表.5</title>
			<desc>約福熟結薄應得度者說</desc>
			<v:textBlock v:margins="rect(0,0,0,0)" v:tabSpace="42.5197"/>
			<v:textRect cx="56.4371" cy="76.2722" width="112.88" height="13.5449"/>
			<rect x="0" y="69.4998" width="112.874" height="13.5449" class="st1"/>
			<text x="0" y="79.39" class="st2" v:langID="1028"><v:paragraph/><v:tabList/>約福熟結薄應得度者說</text>		</g>
		<g id="shape6-16" v:mID="6" v:groupContext="shape" transform="translate(71.7429,-0.749494) rotate(-0.2)">
			<title>工作表.6</title>
			<desc>約佛威力說。</desc>
			<v:textBlock v:margins="rect(0,0,0,0)" v:tabSpace="42.5197"/>
			<v:textRect cx="33.8622" cy="76.2722" width="67.73" height="13.5449"/>
			<rect x="0" y="69.4998" width="67.7245" height="13.5449" class="st1"/>
			<text x="0" y="79.39" class="st2" v:langID="1028"><v:paragraph/><v:tabList/>約佛威力說。</text>		</g>
		<g id="shape18-19" v:mID="18" v:groupContext="shape" transform="translate(137.589,7.60124) rotate(89.8)">
			<title>工作表.18</title>
			<path d="M0 71.76 C0 74.86 2.45 77.4 5.64 77.4 L28.22 77.4 C31.32 77.4 33.86 79.85 33.86 83.04 C33.86 79.85 36.31 77.4
						 39.51 77.4 L62.08 77.4 C65.18 77.4 67.72 74.86 67.72 71.76 L0 71.76 Z" class="st3"/>
			<path d="M0 71.76 C0 74.86 2.45 77.4 5.64 77.4 L28.22 77.4 C31.32 77.4 33.86 79.85 33.86 83.04 C33.86 79.85 36.31 77.4
						 39.51 77.4 L62.08 77.4 C65.18 77.4 67.72 74.86 67.72 71.76" class="st4"/>
		</g>
	</g>
</svg>
