<?xml version="1.0" encoding="UTF-8" standalone="no"?>
<!DOCTYPE svg PUBLIC "-//W3C//DTD SVG 1.1//EN" "http://www.w3.org/Graphics/SVG/1.1/DTD/svg11.dtd">
<!-- 由 Microsoft Visio, SVG Export 產生 F2402.svg 頁-1 -->
<svg xmlns="http://www.w3.org/2000/svg" xmlns:xlink="http://www.w3.org/1999/xlink" xmlns:ev="http://www.w3.org/2001/xml-events"
		xmlns:v="http://schemas.microsoft.com/visio/2003/SVGExtensions/" width="4.00344in" height="0.917698in"
		viewBox="0 0 288.247 66.0743" xml:space="preserve" color-interpolation-filters="sRGB" class="st7">
	<v:documentProperties v:langID="1028" v:viewMarkup="false"/>

	<style type="text/css">
	<![CDATA[
		.st1 {fill:none;stroke:none;stroke-linecap:butt;stroke-width:0.75}
		.st2 {fill:#000000;font-family:新細明體;font-size:0.833336em}
		.st3 {font-family:Times New Roman;font-size:1em}
		.st4 {fill:none}
		.st5 {stroke:#000000;stroke-linecap:round;stroke-linejoin:round;stroke-width:0.705463}
		.st6 {stroke:#000000;stroke-dasharray:0.705463,1.41093;stroke-linecap:round;stroke-linejoin:round;stroke-width:0.705463}
		.st7 {fill:none;fill-rule:evenodd;font-size:12px;overflow:visible;stroke-linecap:square;stroke-miterlimit:3}
	]]>
	</style>

	<g v:mID="0" v:index="1" v:groupContext="foregroundPage">
		<title>頁-1</title>
		<v:pageProperties v:drawingScale="0.0393701" v:pageScale="0.0393701" v:drawingUnits="24" v:shadowOffsetX="9"
				v:shadowOffsetY="-9"/>
		<g id="shape1-1" v:mID="1" v:groupContext="shape" transform="translate(37.8954,-42.1383) rotate(-0.2)">
			<title>工作表.1</title>
			<desc>真實──無量顯現</desc>
			<v:textBlock v:margins="rect(0,0,0,0)" v:tabSpace="42.5197"/>
			<v:textRect cx="45.1496" cy="59.3018" width="90.3" height="13.5449"/>
			<rect x="0" y="52.5294" width="90.2993" height="13.5449" class="st1"/>
			<text x="0" y="62.42" class="st2" v:langID="1028"><v:paragraph/><v:tabList/>真實<tspan class="st3">──</tspan>無量顯現</text>		</g>
		<g id="shape2-5" v:mID="2" v:groupContext="shape" transform="translate(182.719,-51.5426) rotate(-0.2)">
			<title>工作表.2</title>
			<desc>救無量眾生故</desc>
			<v:textBlock v:margins="rect(0,0,0,0)" v:tabSpace="42.5197"/>
			<v:textRect cx="33.8622" cy="59.3018" width="67.73" height="13.5449"/>
			<rect x="0" y="52.5294" width="67.7245" height="13.5449" class="st1"/>
			<text x="-0" y="62.42" class="st2" v:langID="1028"><v:paragraph/><v:tabList/>救無量眾生故</text>		</g>
		<g id="shape3-8" v:mID="3" v:groupContext="shape" transform="translate(0.566638,-25.0497) rotate(-0.2)">
			<title>工作表.3</title>
			<desc>佛壽</desc>
			<v:textBlock v:margins="rect(0,0,0,0)" v:tabSpace="42.5197"/>
			<v:textRect cx="11.2874" cy="59.3018" width="22.58" height="13.5449"/>
			<rect x="0" y="52.5294" width="22.5748" height="13.5449" class="st1"/>
			<text x="-0" y="62.42" class="st2" v:langID="1028"><v:paragraph/><v:tabList/>佛壽</text>		</g>
		<g id="shape4-11" v:mID="4" v:groupContext="shape" transform="translate(136.357,-25.6013) rotate(-0.2)">
			<title>工作表.4</title>
			<desc>應無量</desc>
			<v:textBlock v:margins="rect(0,0,0,0)" v:tabSpace="42.5197"/>
			<v:textRect cx="16.9311" cy="59.3018" width="33.87" height="13.5449"/>
			<rect x="0" y="52.5294" width="33.8622" height="13.5449" class="st1"/>
			<text x="0" y="62.42" class="st2" v:langID="1028"><v:paragraph/><v:tabList/>應無量</text>		</g>
		<g id="shape5-14" v:mID="5" v:groupContext="shape" transform="translate(182.779,-34.6116) rotate(-0.2)">
			<title>工作表.5</title>
			<desc>持不殺生戒故</desc>
			<v:textBlock v:margins="rect(0,0,0,0)" v:tabSpace="42.5197"/>
			<v:textRect cx="33.8622" cy="59.3018" width="67.73" height="13.5449"/>
			<rect x="0" y="52.5294" width="67.7245" height="13.5449" class="st1"/>
			<text x="0" y="62.42" class="st2" v:langID="1028"><v:paragraph/><v:tabList/>持不殺生戒故</text>		</g>
		<g id="shape6-17" v:mID="6" v:groupContext="shape" transform="translate(38.0136,-8.2763) rotate(-0.2)">
			<title>工作表.6</title>
			<desc>隱藏──為眾生故</desc>
			<v:textBlock v:margins="rect(0,0,0,0)" v:tabSpace="42.5197"/>
			<v:textRect cx="45.1496" cy="59.3018" width="90.3" height="13.5449"/>
			<rect x="0" y="52.5294" width="90.2993" height="13.5449" class="st1"/>
			<text x="0" y="62.42" class="st2" v:langID="1028"><v:paragraph/><v:tabList/>隱藏<tspan class="st3">──</tspan>為眾生故</text>		</g>
		<g id="shape7-21" v:mID="7" v:groupContext="shape" transform="translate(182.838,-17.6806) rotate(-0.2)">
			<title>工作表.7</title>
			<desc>有實相智慧故</desc>
			<v:textBlock v:margins="rect(0,0,0,0)" v:tabSpace="42.5197"/>
			<v:textRect cx="33.8622" cy="59.3018" width="67.73" height="13.5449"/>
			<rect x="0" y="52.5294" width="67.7245" height="13.5449" class="st1"/>
			<text x="-0" y="62.42" class="st2" v:langID="1028"><v:paragraph/><v:tabList/>有實相智慧故</text>		</g>
		<g id="shape8-24" v:mID="8" v:groupContext="shape" transform="translate(182.897,-0.749597) rotate(-0.2)">
			<title>工作表.8</title>
			<desc>般若和合戒等功德故。</desc>
			<v:textBlock v:margins="rect(0,0,0,0)" v:tabSpace="42.5197"/>
			<v:textRect cx="52.1854" cy="59.3018" width="104.38" height="13.5449"/>
			<rect x="0" y="52.5294" width="104.371" height="13.5449" class="st1"/>
			<text x="0" y="62.42" class="st2" v:langID="1028"><v:paragraph/><v:tabList/>般若和合戒等功德故。</text>		</g>
		<g id="shape9-27" v:mID="9" v:groupContext="shape" transform="translate(90.9478,17.0286) rotate(89.8)">
			<title>工作表.9</title>
			<path d="M0 56.67 C0 59.33 1.22 61.37 2.82 61.37 L14.11 61.37 C15.61 61.37 16.93 63.49 16.93 66.07 C16.93 63.49 18.15
						 61.37 19.75 61.37 L31.04 61.37 C32.55 61.37 33.86 59.33 33.86 56.67 L0 56.67 Z" class="st4"/>
			<path d="M0 56.67 C0 59.33 1.22 61.37 2.82 61.37 L14.11 61.37 C15.61 61.37 16.93 63.49 16.93 66.07 C16.93 63.49 18.15
						 61.37 19.75 61.37 L31.04 61.37 C32.55 61.37 33.86 59.33 33.86 56.67" class="st5"/>
		</g>
		<g id="shape11-30" v:mID="11" v:groupContext="shape" transform="translate(176.061,-19.9779) rotate(56.1099)">
			<title>工作表.11</title>
			<path d="M0 66.07 L20.35 66.07" class="st5"/>
		</g>
		<g id="shape12-33" v:mID="12" v:groupContext="shape" transform="translate(68.0371,9.22853) rotate(-52.3681)">
			<title>工作表.12</title>
			<path d="M0 66.07 L19.97 66.07" class="st6"/>
		</g>
		<g id="shape22-36" v:mID="22" v:groupContext="shape" transform="translate(236.691,7.38341) rotate(89.8)">
			<title>工作表.22</title>
			<path d="M0 56.67 C0 59.33 1.86 61.37 4.3 61.37 L21.5 61.37 C23.79 61.37 25.8 63.49 25.8 66.07 C25.8 63.49 27.66 61.37
						 30.1 61.37 L47.29 61.37 C49.59 61.37 51.59 59.33 51.59 56.67 L0 56.67 Z" class="st4"/>
			<path d="M0 56.67 C0 59.33 1.86 61.37 4.3 61.37 L21.5 61.37 C23.79 61.37 25.8 63.49 25.8 66.07 C25.8 63.49 27.66 61.37
						 30.1 61.37 L47.29 61.37 C49.59 61.37 51.59 59.33 51.59 56.67" class="st5"/>
		</g>
	</g>
</svg>
