<?xml version="1.0" encoding="UTF-8" standalone="no"?>
<!DOCTYPE svg PUBLIC "-//W3C//DTD SVG 1.1//EN" "http://www.w3.org/Graphics/SVG/1.1/DTD/svg11.dtd">
<!-- 由 Microsoft Visio, SVG Export 產生 F3203.svg 頁-1 -->
<svg xmlns="http://www.w3.org/2000/svg" xmlns:xlink="http://www.w3.org/1999/xlink" xmlns:ev="http://www.w3.org/2001/xml-events"
		xmlns:v="http://schemas.microsoft.com/visio/2003/SVGExtensions/" width="5.43121in" height="1.66222in"
		viewBox="0 0 391.047 119.68" xml:space="preserve" color-interpolation-filters="sRGB" class="st5">
	<v:documentProperties v:langID="1028" v:viewMarkup="false"/>

	<style type="text/css">
	<![CDATA[
		.st1 {fill:none;stroke:none;stroke-linecap:butt;stroke-width:0.75}
		.st2 {fill:#000000;font-family:新細明體;font-size:0.833336em}
		.st3 {fill:none}
		.st4 {stroke:#000000;stroke-linecap:round;stroke-linejoin:round;stroke-width:0.705463}
		.st5 {fill:none;fill-rule:evenodd;font-size:12px;overflow:visible;stroke-linecap:square;stroke-miterlimit:3}
	]]>
	</style>

	<g v:mID="0" v:index="1" v:groupContext="foregroundPage">
		<title>頁-1</title>
		<v:pageProperties v:drawingScale="0.0393701" v:pageScale="0.0393701" v:drawingUnits="24" v:shadowOffsetX="9"
				v:shadowOffsetY="-9"/>
		<g id="shape1-1" v:mID="1" v:groupContext="shape" transform="translate(195.969,-105.069) rotate(-0.2)">
			<title>工作表.1</title>
			<desc>皆是諸法實相慧。</desc>
			<v:textBlock v:margins="rect(0,0,0,0)" v:tabSpace="42.5197"/>
			<v:textRect cx="45.1496" cy="112.908" width="90.3" height="13.5449"/>
			<rect x="0" y="106.135" width="90.2993" height="13.5449" class="st1"/>
			<text x="-0" y="116.02" class="st2" v:langID="1028"><v:paragraph/><v:tabList/>皆是諸法實相慧。</text>		</g>
		<g id="shape2-4" v:mID="2" v:groupContext="shape" transform="translate(196.028,-88.1383) rotate(-0.2)">
			<title>工作表.2</title>
			<desc>皆是四諦及道品慧。</desc>
			<v:textBlock v:margins="rect(0,0,0,0)" v:tabSpace="42.5197"/>
			<v:textRect cx="50.7933" cy="112.908" width="101.59" height="13.5449"/>
			<rect x="0" y="106.135" width="101.587" height="13.5449" class="st1"/>
			<text x="0" y="116.02" class="st2" v:langID="1028"><v:paragraph/><v:tabList/>皆是四諦及道品慧。</text>		</g>
		<g id="shape3-7" v:mID="3" v:groupContext="shape" transform="translate(11.1378,-68.4733) rotate(-0.2)">
			<title>工作表.3</title>
			<desc>舍利弗約三乘智慧無生性空無別作難</desc>
			<v:textBlock v:margins="rect(0,0,0,0)" v:tabSpace="42.5197"/>
			<v:textRect cx="95.943" cy="112.908" width="191.89" height="13.5449"/>
			<rect x="0" y="106.135" width="191.886" height="13.5449" class="st1"/>
			<text x="0" y="116.02" class="st2" v:langID="1028"><v:paragraph/><v:tabList/>舍利弗約三乘智慧無生性空無別作難：</text>		</g>
		<g id="shape4-10" v:mID="4" v:groupContext="shape" transform="translate(196.087,-71.2073) rotate(-0.2)">
			<title>工作表.4</title>
			<desc>皆是出三界、入三脫〔門〕</desc>
			<v:textBlock v:margins="rect(0,0,0,0)" v:tabSpace="42.5197"/>
			<v:textRect cx="67.7245" cy="112.908" width="135.45" height="13.5449"/>
			<rect x="0" y="106.135" width="135.449" height="13.5449" class="st1"/>
			<text x="-0" y="116.02" class="st2" v:langID="1028"><v:paragraph/><v:tabList/>皆是出三界、入三脫〔門〕</text>		</g>
		<g id="shape5-13" v:mID="5" v:groupContext="shape" transform="translate(310.868,-71.6609) rotate(-0.2)">
			<title>工作表.5</title>
			<desc>成三乘果慧。</desc>
			<v:textBlock v:margins="rect(0,0,0,0)" v:tabSpace="42.5197"/>
			<v:textRect cx="39.5059" cy="112.908" width="79.02" height="13.5449"/>
			<rect x="0" y="106.135" width="79.0119" height="13.5449" class="st1"/>
			<text x="0" y="116.02" class="st2" v:langID="1028"><v:paragraph/><v:tabList/>，成三乘果慧。</text>		</g>
		<g id="shape6-16" v:mID="6" v:groupContext="shape" transform="translate(196.146,-54.2763) rotate(-0.2)">
			<title>工作表.6</title>
			<desc>皆以無漏智滅結得果。</desc>
			<v:textBlock v:margins="rect(0,0,0,0)" v:tabSpace="42.5197"/>
			<v:textRect cx="56.4371" cy="112.908" width="112.88" height="13.5449"/>
			<rect x="0" y="106.135" width="112.874" height="13.5449" class="st1"/>
			<text x="0" y="116.02" class="st2" v:langID="1028"><v:paragraph/><v:tabList/>皆以無漏智滅結得果。</text>		</g>
		<g id="shape7-19" v:mID="7" v:groupContext="shape" transform="translate(196.205,-37.3453) rotate(-0.2)">
			<title>工作表.7</title>
			<desc>皆用二種解脫果。</desc>
			<v:textBlock v:margins="rect(0,0,0,0)" v:tabSpace="42.5197"/>
			<v:textRect cx="45.1496" cy="112.908" width="90.3" height="13.5449"/>
			<rect x="0" y="106.135" width="90.2993" height="13.5449" class="st1"/>
			<text x="-0" y="116.02" class="st2" v:langID="1028"><v:paragraph/><v:tabList/>皆用二種解脫果。</text>		</g>
		<g id="shape8-22" v:mID="8" v:groupContext="shape" transform="translate(196.265,-20.4142) rotate(-0.2)">
			<title>工作表.8</title>
			<desc>皆能入涅槃故。</desc>
			<v:textBlock v:margins="rect(0,0,0,0)" v:tabSpace="42.5197"/>
			<v:textRect cx="39.5059" cy="112.908" width="79.02" height="13.5449"/>
			<rect x="0" y="106.135" width="79.0119" height="13.5449" class="st1"/>
			<text x="-0" y="116.02" class="st2" v:langID="1028"><v:paragraph/><v:tabList/>皆能入涅槃故。</text>		</g>
		<g id="shape9-25" v:mID="9" v:groupContext="shape" transform="translate(11.3738,-0.749271) rotate(-0.2)">
			<title>工作表.9</title>
			<desc>佛以三乘用心別作答</desc>
			<v:textBlock v:margins="rect(0,0,0,0)" v:tabSpace="42.5197"/>
			<v:textRect cx="50.7933" cy="112.908" width="101.59" height="13.5449"/>
			<rect x="0" y="106.135" width="101.587" height="13.5449" class="st1"/>
			<text x="-0" y="116.02" class="st2" v:langID="1028"><v:paragraph/><v:tabList/>佛以三乘用心別作答</text>		</g>
		<g id="shape21-28" v:mID="21" v:groupContext="shape" transform="translate(119.899,39.8032) rotate(89.8)">
			<title>工作表.21</title>
			<path d="M0 111.21 C0 113.57 2.82 115.45 6.3 115.45 L31.7 115.45 C35.18 115.45 38.1 117.33 38.1 119.68 C38.1 117.33 40.92
						 115.45 44.4 115.45 L69.79 115.45 C73.27 115.45 76.19 113.57 76.19 111.21 L0 111.21 Z" class="st3"/>
			<path d="M0 111.21 C0 113.57 2.82 115.45 6.3 115.45 L31.7 115.45 C35.18 115.45 38.1 117.33 38.1 119.68 C38.1 117.33 40.92
						 115.45 44.4 115.45 L69.79 115.45 C73.27 115.45 76.19 113.57 76.19 111.21" class="st4"/>
		</g>
		<g id="shape22-31" v:mID="22" v:groupContext="shape" transform="translate(303.322,3.8706) rotate(89.8)">
			<title>工作表.22</title>
			<path d="M0 109.8 C0 112.53 3.48 114.79 7.71 114.79 L31.51 114.79 C35.74 114.79 39.22 116.95 39.22 119.68 C39.22 116.95
						 42.7 114.79 46.94 114.79 L84.75 114.79 C89.08 114.79 92.46 112.63 92.46 109.8 L0 109.8 Z" class="st3"/>
			<path d="M0 109.8 C0 112.53 3.48 114.79 7.71 114.79 L31.51 114.79 C35.74 114.79 39.22 116.95 39.22 119.68 C39.22 116.95
						 42.7 114.79 46.94 114.79 L84.75 114.79 C89.08 114.79 92.46 112.63 92.46 109.8" class="st4"/>
		</g>
	</g>
</svg>
