<?xml version="1.0" encoding="UTF-8" standalone="no"?>
<!DOCTYPE svg PUBLIC "-//W3C//DTD SVG 1.1//EN" "http://www.w3.org/Graphics/SVG/1.1/DTD/svg11.dtd">
<!-- 由 Microsoft Visio, SVG Export 產生 F3201.svg 頁-1 -->
<svg xmlns="http://www.w3.org/2000/svg" xmlns:xlink="http://www.w3.org/1999/xlink" xmlns:ev="http://www.w3.org/2001/xml-events"
		xmlns:v="http://schemas.microsoft.com/visio/2003/SVGExtensions/" width="6.06649in" height="1.39939in"
		viewBox="0 0 436.787 100.756" xml:space="preserve" color-interpolation-filters="sRGB" class="st5">
	<v:documentProperties v:langID="1028" v:viewMarkup="false"/>

	<style type="text/css">
	<![CDATA[
		.st1 {fill:none;stroke:none;stroke-linecap:butt;stroke-width:0.75}
		.st2 {fill:#000000;font-family:新細明體;font-size:0.833336em}
		.st3 {fill:none}
		.st4 {stroke:#000000;stroke-linecap:round;stroke-linejoin:round;stroke-width:0.705463}
		.st5 {fill:none;fill-rule:evenodd;font-size:12px;overflow:visible;stroke-linecap:square;stroke-miterlimit:3}
	]]>
	</style>

	<g v:mID="0" v:index="1" v:groupContext="foregroundPage">
		<title>頁-1</title>
		<v:pageProperties v:drawingScale="0.0393701" v:pageScale="0.0393701" v:drawingUnits="24" v:shadowOffsetX="9"
				v:shadowOffsetY="-9"/>
		<g id="shape2-1" v:mID="2" v:groupContext="shape" transform="translate(133.092,-85.4045) rotate(-0.2)">
			<title>工作表.2</title>
			<desc>一、以知空空復空空與不空一等無異二、以此智度一切生。</desc>
			<v:textBlock v:margins="rect(0,0,0,0)" v:tabSpace="42.5197"/>
			<v:textRect cx="151.297" cy="93.9837" width="302.6" height="13.5449"/>
			<rect x="0" y="87.2112" width="302.595" height="13.5449" class="st1"/>
			<text x="0" y="97.1" class="st2" v:langID="1028"><v:paragraph/><v:tabList/>一、以知空，空復空，空與不空一等無異；二、以此智度一切生。</text>		</g>
		<g id="shape3-4" v:mID="3" v:groupContext="shape" transform="translate(133.151,-68.4734) rotate(-0.2)">
			<title>工作表.3</title>
			<desc>一、大悲二、般若。</desc>
			<v:textBlock v:margins="rect(0,0,0,0)" v:tabSpace="42.5197"/>
			<v:textRect cx="56.4371" cy="93.9837" width="112.88" height="13.5449"/>
			<rect x="0" y="87.2112" width="112.874" height="13.5449" class="st1"/>
			<text x="0" y="97.1" class="st2" v:langID="1028"><v:paragraph/><v:tabList/>一、大悲；二、般若。</text>		</g>
		<g id="shape4-7" v:mID="4" v:groupContext="shape" transform="translate(22.9612,-60.5775) rotate(-0.2)">
			<title>工作表.4</title>
			<desc>論義</desc>
			<v:textBlock v:margins="rect(0,0,0,0)" v:tabSpace="42.5197"/>
			<v:textRect cx="22.5748" cy="93.9837" width="45.15" height="13.5449"/>
			<rect x="0" y="87.2112" width="45.1496" height="13.5449" class="st1"/>
			<text x="0" y="97.1" class="st2" v:langID="1028"><v:paragraph/><v:tabList/>（論義）</text>		</g>
		<g id="shape5-10" v:mID="5" v:groupContext="shape" transform="translate(133.211,-51.5424) rotate(-0.2)">
			<title>工作表.5</title>
			<desc>一、般舟三昧二、方便。</desc>
			<v:textBlock v:margins="rect(0,0,0,0)" v:tabSpace="42.5197"/>
			<v:textRect cx="67.7245" cy="93.9837" width="135.45" height="13.5449"/>
			<rect x="0" y="87.2112" width="135.449" height="13.5449" class="st1"/>
			<text x="0" y="97.1" class="st2" v:langID="1028"><v:paragraph/><v:tabList/>一、般舟三昧；二、方便。</text>		</g>
		<g id="shape6-13" v:mID="6" v:groupContext="shape" transform="translate(0.445576,-43.5677) rotate(-0.2)">
			<title>工作表.6</title>
			<desc>菩薩勝小乘智慧二緣</desc>
			<v:textBlock v:margins="rect(0,0,0,0)" v:tabSpace="42.5197"/>
			<v:textRect cx="62.0808" cy="93.9837" width="124.17" height="13.5449"/>
			<rect x="0" y="87.2112" width="124.162" height="13.5449" class="st1"/>
			<text x="0" y="97.1" class="st2" v:langID="1028"><v:paragraph/><v:tabList/>菩薩勝小乘智慧（二緣）</text>		</g>
		<g id="shape7-16" v:mID="7" v:groupContext="shape" transform="translate(108.923,-43.3909) rotate(-0.2)">
			<title>工作表.7</title>
			<v:textBlock v:margins="rect(0,0,0,0)" v:tabSpace="42.5197"/>
			<v:textRect cx="5.64371" cy="93.9837" width="11.29" height="13.5449"/>
			<rect x="0" y="87.2112" width="11.2874" height="13.5449" class="st1"/>
			<text x="0" y="97.1" class="st2" v:langID="1028"><v:paragraph/><v:tabList/>：</text>		</g>
		<g id="shape8-19" v:mID="8" v:groupContext="shape" transform="translate(133.27,-34.6114) rotate(-0.2)">
			<title>工作表.8</title>
			<desc>一、常住禪定二、能達法性。</desc>
			<v:textBlock v:margins="rect(0,0,0,0)" v:tabSpace="42.5197"/>
			<v:textRect cx="79.0119" cy="93.9837" width="158.03" height="13.5449"/>
			<rect x="0" y="87.2112" width="158.024" height="13.5449" class="st1"/>
			<text x="0" y="97.1" class="st2" v:langID="1028"><v:paragraph/><v:tabList/>一、常住禪定；二、能達法性。</text>		</g>
		<g id="shape9-22" v:mID="9" v:groupContext="shape" transform="translate(133.329,-17.6804) rotate(-0.2)">
			<title>工作表.9</title>
			<desc>一、代眾生受苦二、自捨一切樂。</desc>
			<v:textBlock v:margins="rect(0,0,0,0)" v:tabSpace="42.5197"/>
			<v:textRect cx="90.2993" cy="93.9837" width="180.6" height="13.5449"/>
			<rect x="0" y="87.2112" width="180.599" height="13.5449" class="st1"/>
			<text x="0" y="97.1" class="st2" v:langID="1028"><v:paragraph/><v:tabList/>一、代眾生受苦；二、自捨一切樂。</text>		</g>
		<g id="shape10-25" v:mID="10" v:groupContext="shape" transform="translate(133.388,-0.749386) rotate(-0.2)">
			<title>工作表.10</title>
			<desc>一、慈心二、一切功德不著。</desc>
			<v:textBlock v:margins="rect(0,0,0,0)" v:tabSpace="42.5197"/>
			<v:textRect cx="79.0119" cy="93.9837" width="158.03" height="13.5449"/>
			<rect x="0" y="87.2112" width="158.024" height="13.5449" class="st1"/>
			<text x="-0" y="97.1" class="st2" v:langID="1028"><v:paragraph/><v:tabList/>一、慈心；二、一切功德不著。</text>		</g>
		<g id="shape18-28" v:mID="18" v:groupContext="shape" transform="translate(222.441,5.55037) rotate(89.8)">
			<title>工作表.18</title>
			<path d="M0 92.38 C0 94.74 3.27 96.52 7.26 96.52 L36.38 96.52 C40.47 96.52 43.64 98.4 43.64 100.76 C43.64 98.4 46.91
						 96.52 50.89 96.52 L80.02 96.52 C84 96.52 87.27 94.64 87.27 92.38 L0 92.38 Z" class="st3"/>
			<path d="M0 92.38 C0 94.74 3.27 96.52 7.26 96.52 L36.38 96.52 C40.47 96.52 43.64 98.4 43.64 100.76 C43.64 98.4 46.91
						 96.52 50.89 96.52 L80.02 96.52 C84 96.52 87.27 94.64 87.27 92.38" class="st4"/>
		</g>
	</g>
</svg>
