<?xml version="1.0" encoding="UTF-8" standalone="no"?>
<!DOCTYPE svg PUBLIC "-//W3C//DTD SVG 1.1//EN" "http://www.w3.org/Graphics/SVG/1.1/DTD/svg11.dtd">
<!-- 由 Microsoft Visio, SVG Export 產生 F3102.svg 頁-1 -->
<svg xmlns="http://www.w3.org/2000/svg" xmlns:xlink="http://www.w3.org/1999/xlink" xmlns:ev="http://www.w3.org/2001/xml-events"
		xmlns:v="http://schemas.microsoft.com/visio/2003/SVGExtensions/" width="3.62948in" height="0.671333in"
		viewBox="0 0 261.322 48.336" xml:space="preserve" color-interpolation-filters="sRGB" class="st5">
	<v:documentProperties v:langID="1028" v:viewMarkup="false"/>

	<style type="text/css">
	<![CDATA[
		.st1 {fill:none;stroke:none;stroke-linecap:butt;stroke-width:0.75}
		.st2 {fill:#000000;font-family:新細明體;font-size:0.833336em}
		.st3 {fill:none}
		.st4 {stroke:#000000;stroke-linecap:round;stroke-linejoin:round;stroke-width:0.705463}
		.st5 {fill:none;fill-rule:evenodd;font-size:12px;overflow:visible;stroke-linecap:square;stroke-miterlimit:3}
	]]>
	</style>

	<g v:mID="0" v:index="1" v:groupContext="foregroundPage">
		<title>頁-1</title>
		<v:pageProperties v:drawingScale="0.0393701" v:pageScale="0.0393701" v:drawingUnits="24" v:shadowOffsetX="9"
				v:shadowOffsetY="-9"/>
		<g id="shape1-1" v:mID="1" v:groupContext="shape" transform="translate(118.194,-33.8439) rotate(-0.2)">
			<title>工作表.1</title>
			<desc>入觀則見空</desc>
			<v:textBlock v:margins="rect(0,0,0,0)" v:tabSpace="42.5197"/>
			<v:textRect cx="28.2185" cy="41.5636" width="56.44" height="13.5449"/>
			<rect x="0" y="34.7911" width="56.4371" height="13.5449" class="st1"/>
			<text x="0" y="44.68" class="st2" v:langID="1028"><v:paragraph/><v:tabList/>入觀則見空</text>		</g>
		<g id="shape2-4" v:mID="2" v:groupContext="shape" transform="translate(62.9908,-25.2221) rotate(-0.2)">
			<title>工作表.2</title>
			<desc>世俗法說</desc>
			<v:textBlock v:margins="rect(0,0,0,0)" v:tabSpace="42.5197"/>
			<v:textRect cx="22.5748" cy="41.5636" width="45.15" height="13.5449"/>
			<rect x="0" y="34.7911" width="45.1496" height="13.5449" class="st1"/>
			<text x="0" y="44.68" class="st2" v:langID="1028"><v:paragraph/><v:tabList/>世俗法說</text>		</g>
		<g id="shape3-7" v:mID="3" v:groupContext="shape" transform="translate(0.628556,-11.9905) rotate(-0.2)">
			<title>工作表.3</title>
			<desc>諸法常空乎</desc>
			<v:textBlock v:margins="rect(0,0,0,0)" v:tabSpace="42.5197"/>
			<v:textRect cx="28.2185" cy="41.5636" width="56.44" height="13.5449"/>
			<rect x="0" y="34.7911" width="56.4371" height="13.5449" class="st1"/>
			<text x="-0" y="44.68" class="st2" v:langID="1028"><v:paragraph/><v:tabList/>諸法常空乎</text>		</g>
		<g id="shape4-10" v:mID="4" v:groupContext="shape" transform="translate(118.129,-18.8678) rotate(-0.2)">
			<title>工作表.4</title>
			<desc>出觀則見有實未嘗不空也</desc>
			<v:textBlock v:margins="rect(0,0,0,0)" v:tabSpace="42.5197"/>
			<v:textRect cx="71.138" cy="41.5636" width="142.28" height="13.5449"/>
			<rect x="0" y="34.7911" width="142.276" height="13.5449" class="st1"/>
			<text x="0" y="44.68" class="st2" v:langID="1028"><v:paragraph/><v:tabList/>出觀則見有－（實未嘗不空也）</text>		</g>
		<g id="shape5-13" v:mID="5" v:groupContext="shape" transform="translate(63.5885,-0.749706) rotate(-0.2)">
			<title>工作表.5</title>
			<desc>入般若中諸觀戲論滅無出入。</desc>
			<v:textBlock v:margins="rect(0,0,0,0)" v:tabSpace="42.5197"/>
			<v:textRect cx="79.0119" cy="41.5636" width="158.03" height="13.5449"/>
			<rect x="0" y="34.7911" width="158.024" height="13.5449" class="st1"/>
			<text x="0" y="44.68" class="st2" v:langID="1028"><v:paragraph/><v:tabList/>入般若中，諸觀戲論滅無出入。</text>		</g>
		<g id="shape15-16" v:mID="15" v:groupContext="shape" transform="translate(102.88,11.4528) rotate(89.8)">
			<title>工作表.15</title>
			<path d="M0 41.78 C0 43.6 1.26 45.06 2.83 45.06 L14.17 45.06 C15.75 45.06 17.01 46.52 17.01 48.34 C17.01 46.52 18.27
						 45.06 19.84 45.06 L31.18 45.06 C32.76 45.06 34.02 43.6 34.02 41.78 L0 41.78 Z" class="st3"/>
			<path d="M0 41.78 C0 43.6 1.26 45.06 2.83 45.06 L14.17 45.06 C15.75 45.06 17.01 46.52 17.01 48.34 C17.01 46.52 18.27
						 45.06 19.84 45.06 L31.18 45.06 C32.76 45.06 34.02 43.6 34.02 41.78" class="st4"/>
		</g>
		<g id="shape16-19" v:mID="16" v:groupContext="shape" transform="translate(154.8,2.91765) rotate(89.8)">
			<title>工作表.16</title>
			<path d="M0 39.87 C0 42.22 0.93 44.1 2.09 44.1 L10.43 44.1 C11.59 44.1 12.51 45.98 12.51 48.34 C12.51 45.98 13.44 44.1
						 14.6 44.1 L22.94 44.1 C24.1 44.1 25.03 42.22 25.03 39.87 L0 39.87 Z" class="st3"/>
			<path d="M0 39.87 C0 42.22 0.93 44.1 2.09 44.1 L10.43 44.1 C11.59 44.1 12.51 45.98 12.51 48.34 C12.51 45.98 13.44 44.1
						 14.6 44.1 L22.94 44.1 C24.1 44.1 25.03 42.22 25.03 39.87" class="st4"/>
		</g>
	</g>
</svg>
