<?xml version="1.0" encoding="UTF-8" standalone="no"?>
<!DOCTYPE svg PUBLIC "-//W3C//DTD SVG 1.1//EN" "http://www.w3.org/Graphics/SVG/1.1/DTD/svg11.dtd">
<!-- 由 Microsoft Visio, SVG Export 產生 F3302.svg 頁-1 -->
<svg xmlns="http://www.w3.org/2000/svg" xmlns:xlink="http://www.w3.org/1999/xlink" xmlns:ev="http://www.w3.org/2001/xml-events"
		xmlns:v="http://schemas.microsoft.com/visio/2003/SVGExtensions/" width="4.69237in" height="1.14848in"
		viewBox="0 0 337.851 82.6905" xml:space="preserve" color-interpolation-filters="sRGB" class="st5">
	<v:documentProperties v:langID="1028" v:viewMarkup="false"/>

	<style type="text/css">
	<![CDATA[
		.st1 {fill:none;stroke:none;stroke-linecap:butt;stroke-width:0.75}
		.st2 {fill:#000000;font-family:新細明體;font-size:0.833336em}
		.st3 {fill:none}
		.st4 {stroke:#000000;stroke-linecap:round;stroke-linejoin:round;stroke-width:0.705463}
		.st5 {fill:none;fill-rule:evenodd;font-size:12px;overflow:visible;stroke-linecap:square;stroke-miterlimit:3}
	]]>
	</style>

	<g v:mID="0" v:index="1" v:groupContext="foregroundPage">
		<title>頁-1</title>
		<v:pageProperties v:drawingScale="0.0393701" v:pageScale="0.0393701" v:drawingUnits="24" v:shadowOffsetX="9"
				v:shadowOffsetY="-9"/>
		<g id="shape1-1" v:mID="1" v:groupContext="shape" transform="translate(171.494,-68.08) rotate(-0.2)">
			<title>工作表.1</title>
			<desc>欲以小道度眾生故</desc>
			<v:textBlock v:margins="rect(0,0,0,0)" v:tabSpace="42.5197"/>
			<v:textRect cx="45.1496" cy="75.9181" width="90.3" height="13.5449"/>
			<rect x="0" y="69.1456" width="90.2993" height="13.5449" class="st1"/>
			<text x="0" y="79.03" class="st2" v:langID="1028"><v:paragraph/><v:tabList/>欲以小道度眾生故</text>		</g>
		<g id="shape2-4" v:mID="2" v:groupContext="shape" transform="translate(60.1996,-50.6762) rotate(-0.2)">
			<title>工作表.2</title>
			<desc>行二乘道三七品等</desc>
			<v:textBlock v:margins="rect(0,0,0,0)" v:tabSpace="42.5197"/>
			<v:textRect cx="56.4371" cy="75.9181" width="112.88" height="13.5449"/>
			<rect x="0" y="69.1456" width="112.874" height="13.5449" class="st1"/>
			<text x="-0" y="79.03" class="st2" v:langID="1028"><v:paragraph/><v:tabList/>行二乘道（三七品等）</text>		</g>
		<g id="shape3-7" v:mID="3" v:groupContext="shape" transform="translate(148.979,-51.0702) rotate(-0.2)">
			<title>工作表.3</title>
			<v:textBlock v:margins="rect(0,0,0,0)"/>
			<rect x="0" y="69.1456" width="33.8622" height="13.5449" class="st1"/>
		</g>
		<g id="shape4-9" v:mID="4" v:groupContext="shape" transform="translate(171.553,-51.149) rotate(-0.2)">
			<title>工作表.4</title>
			<desc>雖行小道而不取證</desc>
			<v:textBlock v:margins="rect(0,0,0,0)" v:tabSpace="42.5197"/>
			<v:textRect cx="45.1496" cy="75.9181" width="90.3" height="13.5449"/>
			<rect x="0" y="69.1456" width="90.2993" height="13.5449" class="st1"/>
			<text x="0" y="79.03" class="st2" v:langID="1028"><v:paragraph/><v:tabList/>雖行小道而不取證</text>		</g>
		<g id="shape5-12" v:mID="5" v:groupContext="shape" transform="translate(171.612,-34.218) rotate(-0.2)">
			<title>工作表.5</title>
			<desc>新學菩薩聞憶念故</desc>
			<v:textBlock v:margins="rect(0,0,0,0)" v:tabSpace="42.5197"/>
			<v:textRect cx="45.1496" cy="75.9181" width="90.3" height="13.5449"/>
			<rect x="0" y="69.1456" width="90.2993" height="13.5449" class="st1"/>
			<text x="-0" y="79.03" class="st2" v:langID="1028"><v:paragraph/><v:tabList/>新學菩薩聞憶念故</text>		</g>
		<g id="shape6-15" v:mID="6" v:groupContext="shape" transform="translate(0.508637,-27.7996) rotate(-0.2)">
			<title>工作表.6</title>
			<desc>菩</desc>
			<v:textBlock v:margins="rect(0,0,0,0)" v:tabSpace="42.5197"/>
			<v:textRect cx="5.64371" cy="75.9181" width="11.29" height="13.5449"/>
			<rect x="0" y="69.1456" width="11.2874" height="13.5449" class="st1"/>
			<text x="0" y="79.03" class="st2" v:langID="1028"><v:paragraph/><v:tabList/>菩</text>		</g>
		<g id="shape7-18" v:mID="7" v:groupContext="shape" transform="translate(0.508637,-27.7996) rotate(-0.2)">
			<title>工作表.7</title>
			<desc>菩薩云何</desc>
			<v:textBlock v:margins="rect(0,0,0,0)" v:tabSpace="42.5197"/>
			<v:textRect cx="20.7521" cy="75.9181" width="41.51" height="13.5449"/>
			<rect x="0" y="69.1456" width="41.5043" height="13.5449" class="st1"/>
			<text x="0" y="79.03" class="st2" v:langID="1028"><v:paragraph/><v:tabList/>菩薩云何</text>		</g>
		<g id="shape14-21" v:mID="14" v:groupContext="shape" transform="translate(171.889,-17.09) rotate(-0.2)">
			<title>工作表.14</title>
			<desc>自於十力等中行聞佛德念我有分</desc>
			<v:textBlock v:margins="rect(0,0,0,0)" v:tabSpace="42.5197"/>
			<v:textRect cx="82.462" cy="75.9181" width="164.93" height="13.5449"/>
			<rect x="0" y="69.1456" width="164.924" height="13.5449" class="st1"/>
			<text x="-0" y="79.03" class="st2" v:langID="1028"><v:paragraph/><v:tabList/>自於十力等中行，聞佛德念我有分</text>		</g>
		<g id="shape15-24" v:mID="15" v:groupContext="shape" transform="translate(60.436,-6.10173) rotate(-0.2)">
			<title>工作表.15</title>
			<desc>行佛功德十力等</desc>
			<v:textBlock v:margins="rect(0,0,0,0)" v:tabSpace="42.5197"/>
			<v:textRect cx="50.7933" cy="75.9181" width="101.59" height="13.5449"/>
			<rect x="0" y="69.1456" width="101.587" height="13.5449" class="st1"/>
			<text x="0" y="79.03" class="st2" v:langID="1028"><v:paragraph/><v:tabList/>行佛功德（十力等）</text>		</g>
		<g id="shape16-27" v:mID="16" v:groupContext="shape" transform="translate(171.594,-0.749496) rotate(-0.2)">
			<title>工作表.16</title>
			<desc>修佛德成佛乃成其名。</desc>
			<v:textBlock v:margins="rect(0,0,0,0)" v:tabSpace="42.5197"/>
			<v:textRect cx="56.4371" cy="75.9181" width="112.88" height="13.5449"/>
			<rect x="0" y="69.1456" width="112.874" height="13.5449" class="st1"/>
			<text x="-0" y="79.03" class="st2" v:langID="1028"><v:paragraph/><v:tabList/>修佛德成佛乃成其名。</text>		</g>
		<g id="shape28-30" v:mID="28" v:groupContext="shape" transform="translate(127.599,22.7579) rotate(89.8)">
			<title>工作表.28</title>
			<path d="M0 71.69 C0 74.68 1.8 77.19 4.01 77.19 L19.77 77.19 C21.99 77.19 23.78 79.63 23.78 82.69 C23.78 79.7 25.58 77.19
						 27.86 77.19 L43.55 77.19 C45.77 77.19 47.63 74.75 47.63 71.69 L0 71.69 Z" class="st3"/>
			<path d="M0 71.69 C0 74.68 1.8 77.19 4.01 77.19 L19.77 77.19 C21.99 77.19 23.78 79.63 23.78 82.69 C23.78 79.7 25.58 77.19
						 27.86 77.19 L43.55 77.19 C45.77 77.19 47.63 74.75 47.63 71.69" class="st4"/>
		</g>
		<g id="shape29-33" v:mID="29" v:groupContext="shape" transform="translate(241.766,5.72051) rotate(89.8)">
			<title>工作表.29</title>
			<path d="M0 73.9 C0 76.34 1.9 78.3 4.27 78.3 L15.29 78.3 C17.66 78.3 19.56 80.25 19.56 82.69 C19.56 80.25 21.46 78.3
						 23.83 78.3 L34.85 78.3 C37.22 78.3 39.12 76.3 39.12 73.9 L0 73.9 Z" class="st3"/>
			<path d="M0 73.9 C0 76.34 1.9 78.3 4.27 78.3 L15.29 78.3 C17.66 78.3 19.56 80.25 19.56 82.69 C19.56 80.25 21.46 78.3
						 23.83 78.3 L34.85 78.3 C37.22 78.3 39.12 76.3 39.12 73.9" class="st4"/>
		</g>
		<g id="shape30-36" v:mID="30" v:groupContext="shape" transform="translate(241.631,56.077) rotate(89.8)">
			<title>工作表.30</title>
			<path d="M0 73.6 C0 76.09 1.31 78.15 3.02 78.15 L8.37 78.15 C10.02 78.15 11.33 80.15 11.33 82.69 C11.33 80.21 12.7 78.15
						 14.35 78.15 L19.7 78.15 C21.35 78.15 22.72 76.09 22.72 73.6 L0 73.6 Z" class="st3"/>
			<path d="M0 73.6 C0 76.09 1.31 78.15 3.02 78.15 L8.37 78.15 C10.02 78.15 11.33 80.15 11.33 82.69 C11.33 80.21 12.7 78.15
						 14.35 78.15 L19.7 78.15 C21.35 78.15 22.72 76.09 22.72 73.6" class="st4"/>
		</g>
	</g>
</svg>
