<?xml version="1.0" encoding="UTF-8" standalone="no"?>
<!DOCTYPE svg PUBLIC "-//W3C//DTD SVG 1.1//EN" "http://www.w3.org/Graphics/SVG/1.1/DTD/svg11.dtd">
<!-- 由 Microsoft Visio, SVG Export 產生 F3301.svg 頁-1 -->
<svg xmlns="http://www.w3.org/2000/svg" xmlns:xlink="http://www.w3.org/1999/xlink" xmlns:ev="http://www.w3.org/2001/xml-events"
		xmlns:v="http://schemas.microsoft.com/visio/2003/SVGExtensions/" width="4.29902in" height="1.15121in"
		viewBox="0 0 309.529 82.8871" xml:space="preserve" color-interpolation-filters="sRGB" class="st6">
	<v:documentProperties v:langID="1028" v:viewMarkup="false"/>

	<style type="text/css">
	<![CDATA[
		.st1 {fill:none;stroke:none;stroke-linecap:butt;stroke-width:0.75}
		.st2 {fill:#000000;font-family:新細明體;font-size:0.833336em}
		.st3 {fill:none}
		.st4 {stroke:#000000;stroke-linecap:round;stroke-linejoin:round;stroke-width:0.705463}
		.st5 {stroke:#000000;stroke-dasharray:0.940618,1.88124;stroke-linecap:round;stroke-linejoin:round;stroke-width:0.940618}
		.st6 {fill:none;fill-rule:evenodd;font-size:12px;overflow:visible;stroke-linecap:square;stroke-miterlimit:3}
	]]>
	</style>

	<g v:mID="0" v:index="1" v:groupContext="foregroundPage">
		<title>頁-1</title>
		<v:pageProperties v:drawingScale="0.0393701" v:pageScale="0.0393701" v:drawingUnits="24" v:shadowOffsetX="9"
				v:shadowOffsetY="-9"/>
		<g id="shape2-1" v:mID="2" v:groupContext="shape" transform="translate(76.1107,-68.0598) rotate(-0.2)">
			<title>工作表.2</title>
			<desc>或</desc>
			<v:textBlock v:margins="rect(0,0,0,0)" v:tabSpace="42.5197"/>
			<v:textRect cx="5.64371" cy="76.1146" width="11.29" height="13.5449"/>
			<rect x="0" y="69.3422" width="11.2874" height="13.5449" class="st1"/>
			<text x="0" y="79.23" class="st2" v:langID="1028"><v:paragraph/><v:tabList/>或</text>		</g>
		<g id="shape3-4" v:mID="3" v:groupContext="shape" transform="translate(92.215,-68.1386) rotate(-0.2)">
			<title>工作表.3</title>
			<desc>業因緣身</desc>
			<v:textBlock v:margins="rect(0,0,0,0)" v:tabSpace="42.5197"/>
			<v:textRect cx="22.5748" cy="76.1146" width="45.15" height="13.5449"/>
			<rect x="0" y="69.3422" width="45.1496" height="13.5449" class="st1"/>
			<text x="-0" y="79.23" class="st2" v:langID="1028"><v:paragraph/><v:tabList/>業因緣身</text>		</g>
		<g id="shape4-7" v:mID="4" v:groupContext="shape" transform="translate(184.152,-68.4735) rotate(-0.2)">
			<title>工作表.4</title>
			<desc>諸善法</desc>
			<v:textBlock v:margins="rect(0,0,0,0)" v:tabSpace="42.5197"/>
			<v:textRect cx="16.9311" cy="76.1146" width="33.87" height="13.5449"/>
			<rect x="0" y="69.3422" width="33.8622" height="13.5449" class="st1"/>
			<text x="-0" y="79.23" class="st2" v:langID="1028"><v:paragraph/><v:tabList/>諸善法</text>		</g>
		<g id="shape5-10" v:mID="5" v:groupContext="shape" transform="translate(92.2741,-51.2076) rotate(-0.2)">
			<title>工作表.5</title>
			<desc>變化身</desc>
			<v:textBlock v:margins="rect(0,0,0,0)" v:tabSpace="42.5197"/>
			<v:textRect cx="16.9311" cy="76.1146" width="33.87" height="13.5449"/>
			<rect x="0" y="69.3422" width="33.8622" height="13.5449" class="st1"/>
			<text x="0" y="79.23" class="st2" v:langID="1028"><v:paragraph/><v:tabList/>變化身</text>		</g>
		<g id="shape6-13" v:mID="6" v:groupContext="shape" transform="translate(117.817,-51.3258) rotate(-0.2)">
			<title>工作表.6</title>
			<v:textBlock v:margins="rect(0,0,0,0)"/>
			<rect x="0" y="69.3422" width="64.9026" height="13.5449" class="st1"/>
		</g>
		<g id="shape7-15" v:mID="7" v:groupContext="shape" transform="translate(184.211,-51.5425) rotate(-0.2)">
			<title>工作表.7</title>
			<desc>世界法、王法、世俗法</desc>
			<v:textBlock v:margins="rect(0,0,0,0)" v:tabSpace="42.5197"/>
			<v:textRect cx="56.4371" cy="76.1146" width="112.88" height="13.5449"/>
			<rect x="0" y="69.3422" width="112.874" height="13.5449" class="st1"/>
			<text x="-0" y="79.23" class="st2" v:langID="1028"><v:paragraph/><v:tabList/>世界法、王法、世俗法</text>		</g>
		<g id="shape9-18" v:mID="9" v:groupContext="shape" transform="translate(0.507951,-34.3546) rotate(-0.2)">
			<title>工作表.9</title>
			<desc>菩薩世法教化</desc>
			<v:textBlock v:margins="rect(0,0,0,0)" v:tabSpace="42.5197"/>
			<v:textRect cx="32.0903" cy="76.1146" width="64.19" height="13.5449"/>
			<rect x="0" y="69.3422" width="64.1807" height="13.5449" class="st1"/>
			<text x="0" y="79.23" class="st2" v:langID="1028"><v:paragraph/><v:tabList/>菩薩世法教化</text>		</g>
		<g id="shape20-21" v:mID="20" v:groupContext="shape" transform="translate(184.27,-34.6115) rotate(-0.2)">
			<title>工作表.20</title>
			<desc>出家法、在家法</desc>
			<v:textBlock v:margins="rect(0,0,0,0)" v:tabSpace="42.5197"/>
			<v:textRect cx="39.5059" cy="76.1146" width="79.02" height="13.5449"/>
			<rect x="0" y="69.3422" width="79.0119" height="13.5449" class="st1"/>
			<text x="-0" y="79.23" class="st2" v:langID="1028"><v:paragraph/><v:tabList/>出家法、在家法</text>		</g>
		<g id="shape21-24" v:mID="21" v:groupContext="shape" transform="translate(76.288,-17.2668) rotate(-0.2)">
			<title>工作表.21</title>
			<desc>敗壞菩薩</desc>
			<v:textBlock v:margins="rect(0,0,0,0)" v:tabSpace="42.5197"/>
			<v:textRect cx="22.5748" cy="76.1146" width="45.15" height="13.5449"/>
			<rect x="0" y="69.3422" width="45.1496" height="13.5449" class="st1"/>
			<text x="0" y="79.23" class="st2" v:langID="1028"><v:paragraph/><v:tabList/>敗壞菩薩</text>		</g>
		<g id="shape22-27" v:mID="22" v:groupContext="shape" transform="translate(184.329,-17.6805) rotate(-0.2)">
			<title>工作表.22</title>
			<desc>種類生育法、居家法</desc>
			<v:textBlock v:margins="rect(0,0,0,0)" v:tabSpace="42.5197"/>
			<v:textRect cx="62.0808" cy="76.1146" width="124.17" height="13.5449"/>
			<rect x="0" y="69.3422" width="124.162" height="13.5449" class="st1"/>
			<text x="-0" y="79.23" class="st2" v:langID="1028"><v:paragraph/><v:tabList/>種類（生育）法、居家法</text>		</g>
		<g id="shape23-30" v:mID="23" v:groupContext="shape" transform="translate(184.696,-0.749495) rotate(-0.2)">
			<title>工作表.23</title>
			<desc>憐愍眾生護持世界。</desc>
			<v:textBlock v:margins="rect(0,0,0,0)" v:tabSpace="42.5197"/>
			<v:textRect cx="56.4371" cy="76.1146" width="112.88" height="13.5449"/>
			<rect x="0" y="69.3422" width="112.874" height="13.5449" class="st1"/>
			<text x="-0" y="79.23" class="st2" v:langID="1028"><v:paragraph/><v:tabList/>憐愍眾生，護持世界。</text>		</g>
		<g id="shape33-33" v:mID="33" v:groupContext="shape" transform="translate(145.447,7.16919) rotate(89.8)">
			<title>工作表.33</title>
			<path d="M0 72.74 C0 75.57 2.35 77.81 5.17 77.81 L28.22 77.81 C31.13 77.81 33.49 80.06 33.49 82.89 C33.49 80.06 35.84
						 77.81 38.66 77.81 L50.42 77.81 C53.33 77.81 55.59 75.57 55.59 72.74 L0 72.74 Z" class="st3"/>
			<path d="M0 72.74 C0 75.57 2.35 77.81 5.17 77.81 L28.22 77.81 C31.13 77.81 33.49 80.06 33.49 82.89 C33.49 80.06 35.84
						 77.81 38.66 77.81 L50.42 77.81 C53.33 77.81 55.59 75.57 55.59 72.74" class="st4"/>
		</g>
		<g id="shape34-36" v:mID="34" v:groupContext="shape" transform="translate(176.071,-47.7895) rotate(29.0055)">
			<title>工作表.34</title>
			<path d="M0 82.89 L34.7 82.89" class="st4"/>
		</g>
		<g id="shape35-39" v:mID="35" v:groupContext="shape" transform="translate(91.4947,-18.2405) rotate(-22.0014)">
			<title>工作表.35</title>
			<path d="M0 82.89 L45.59 82.89" class="st5"/>
		</g>
		<g id="shape36-42" v:mID="36" v:groupContext="shape" transform="translate(251.31,7.36392) rotate(89.8)">
			<title>工作表.36</title>
			<path d="M0 69.2 C0 73 2.45 76.04 5.64 76.04 L28.22 76.04 C31.32 76.04 33.86 79.08 33.86 82.89 C33.86 79.08 36.31 76.04
						 39.51 76.04 L62.08 76.04 C65.18 76.04 67.72 73 67.72 69.2 L0 69.2 Z" class="st3"/>
			<path d="M0 69.2 C0 73 2.45 76.04 5.64 76.04 L28.22 76.04 C31.32 76.04 33.86 79.08 33.86 82.89 C33.86 79.08 36.31 76.04
						 39.51 76.04 L62.08 76.04 C65.18 76.04 67.72 73 67.72 69.2" class="st4"/>
		</g>
	</g>
</svg>
