<?xml version="1.0" encoding="UTF-8" standalone="no"?>
<!DOCTYPE svg PUBLIC "-//W3C//DTD SVG 1.1//EN" "http://www.w3.org/Graphics/SVG/1.1/DTD/svg11.dtd">
<!-- 由 Microsoft Visio, SVG Export 產生 F3105.svg 頁-1 -->
<svg xmlns="http://www.w3.org/2000/svg" xmlns:xlink="http://www.w3.org/1999/xlink" xmlns:ev="http://www.w3.org/2001/xml-events"
		xmlns:v="http://schemas.microsoft.com/visio/2003/SVGExtensions/" width="5.37347in" height="1.16784in"
		viewBox="0 0 386.89 84.0843" xml:space="preserve" color-interpolation-filters="sRGB" class="st5">
	<v:documentProperties v:langID="1028" v:viewMarkup="false"/>

	<style type="text/css">
	<![CDATA[
		.st1 {fill:none;stroke:none;stroke-linecap:butt;stroke-width:0.75}
		.st2 {fill:#000000;font-family:新細明體;font-size:0.833336em}
		.st3 {fill:none}
		.st4 {stroke:#000000;stroke-linecap:round;stroke-linejoin:round;stroke-width:0.705463}
		.st5 {fill:none;fill-rule:evenodd;font-size:12px;overflow:visible;stroke-linecap:square;stroke-miterlimit:3}
	]]>
	</style>

	<g v:mID="0" v:index="1" v:groupContext="foregroundPage">
		<title>頁-1</title>
		<v:pageProperties v:drawingScale="0.0393701" v:pageScale="0.0393701" v:drawingUnits="24" v:shadowOffsetX="9"
				v:shadowOffsetY="-9"/>
		<g id="shape1-1" v:mID="1" v:groupContext="shape" transform="translate(258.274,-69.6314) rotate(-0.2)">
			<title>工作表.1</title>
			<desc>性相違故</desc>
			<v:textBlock v:margins="rect(0,0,0,0)" v:tabSpace="42.5197"/>
			<v:textRect cx="22.5748" cy="77.3119" width="45.15" height="13.5449"/>
			<rect x="0" y="70.5394" width="45.1496" height="13.5449" class="st1"/>
			<text x="-0" y="80.43" class="st2" v:langID="1028"><v:paragraph/><v:tabList/>性相違故</text>		</g>
		<g id="shape2-4" v:mID="2" v:groupContext="shape" transform="translate(59.5804,-51.9381) rotate(-0.2)">
			<title>工作表.2</title>
			<desc>空中無色法空中無一毫法可得故。</desc>
			<v:textBlock v:margins="rect(0,0,0,0)" v:tabSpace="42.5197"/>
			<v:textRect cx="95.943" cy="77.3119" width="191.89" height="13.5449"/>
			<rect x="0" y="70.5394" width="191.886" height="13.5449" class="st1"/>
			<text x="0" y="80.43" class="st2" v:langID="1028"><v:paragraph/><v:tabList/>空中無色－－法空中無一毫法可得故。</text>		</g>
		<g id="shape3-7" v:mID="3" v:groupContext="shape" transform="translate(258.128,-52.7064) rotate(-0.2)">
			<title>工作表.3</title>
			<desc>自相不可得故</desc>
			<v:textBlock v:margins="rect(0,0,0,0)" v:tabSpace="42.5197"/>
			<v:textRect cx="33.8622" cy="77.3119" width="67.73" height="13.5449"/>
			<rect x="0" y="70.5394" width="67.7245" height="13.5449" class="st1"/>
			<text x="0" y="80.43" class="st2" v:langID="1028"><v:paragraph/><v:tabList/>自相不可得故</text>		</g>
		<g id="shape4-10" v:mID="4" v:groupContext="shape" transform="translate(59.6395,-35.0071) rotate(-0.2)">
			<title>工作表.4</title>
			<desc>離色無空破色乃有空故。</desc>
			<v:textBlock v:margins="rect(0,0,0,0)" v:tabSpace="42.5197"/>
			<v:textRect cx="73.3682" cy="77.3119" width="146.74" height="13.5449"/>
			<rect x="0" y="70.5394" width="146.736" height="13.5449" class="st1"/>
			<text x="0" y="80.43" class="st2" v:langID="1028"><v:paragraph/><v:tabList/>離色無空－－破色乃有空故。</text>		</g>
		<g id="shape5-13" v:mID="5" v:groupContext="shape" transform="translate(188.625,-35.4996) rotate(-0.2)">
			<title>工作表.5</title>
			<desc>非色異空非空異色故空不破五眾。</desc>
			<v:textBlock v:margins="rect(0,0,0,0)" v:tabSpace="42.5197"/>
			<v:textRect cx="98.6112" cy="77.3119" width="197.23" height="13.5449"/>
			<rect x="0" y="70.5394" width="197.222" height="13.5449" class="st1"/>
			<text x="0" y="80.43" class="st2" v:langID="1028"><v:paragraph/><v:tabList/>（非色異空，非空異色，）故空不破五眾。</text>		</g>
		<g id="shape6-16" v:mID="6" v:groupContext="shape" transform="translate(0.503771,-25.4971) rotate(-0.2)">
			<title>工作表.6</title>
			<desc>色空四句</desc>
			<v:textBlock v:margins="rect(0,0,0,0)" v:tabSpace="42.5197"/>
			<v:textRect cx="22.5748" cy="77.3119" width="45.15" height="13.5449"/>
			<rect x="0" y="70.5394" width="45.1496" height="13.5449" class="st1"/>
			<text x="0" y="80.43" class="st2" v:langID="1028"><v:paragraph/><v:tabList/>色空四句</text>		</g>
		<g id="shape7-19" v:mID="7" v:groupContext="shape" transform="translate(59.7574,-17.6805) rotate(-0.2)">
			<title>工作表.7</title>
			<desc>空即是色</desc>
			<v:textBlock v:margins="rect(0,0,0,0)" v:tabSpace="42.5197"/>
			<v:textRect cx="22.5748" cy="77.3119" width="45.15" height="13.5449"/>
			<rect x="0" y="70.5394" width="45.1496" height="13.5449" class="st1"/>
			<text x="0" y="80.43" class="st2" v:langID="1028"><v:paragraph/><v:tabList/>空即是色</text>		</g>
		<g id="shape8-22" v:mID="8" v:groupContext="shape" transform="translate(59.8165,-0.749488) rotate(-0.2)">
			<title>工作表.8</title>
			<desc>色即是空。</desc>
			<v:textBlock v:margins="rect(0,0,0,0)" v:tabSpace="42.5197"/>
			<v:textRect cx="28.2185" cy="77.3119" width="56.44" height="13.5449"/>
			<rect x="0" y="70.5394" width="56.4371" height="13.5449" class="st1"/>
			<text x="0" y="80.43" class="st2" v:langID="1028"><v:paragraph/><v:tabList/>色即是空。</text>		</g>
		<g id="shape28-25" v:mID="28" v:groupContext="shape" transform="translate(130.819,20.8987) rotate(89.8)">
			<title>工作表.28</title>
			<path d="M0 75.62 C0 77.97 2.2 79.85 4.91 79.85 L24.7 79.85 C27.41 79.85 29.69 81.73 29.69 84.08 C29.69 81.73 31.88 79.85
						 34.6 79.85 L54.39 79.85 C57.1 79.85 59.37 77.97 59.37 75.62 L0 75.62 Z" class="st3"/>
			<path d="M0 75.62 C0 77.97 2.2 79.85 4.91 79.85 L24.7 79.85 C27.41 79.85 29.69 81.73 29.69 84.08 C29.69 81.73 31.88 79.85
						 34.6 79.85 L54.39 79.85 C57.1 79.85 59.37 77.97 59.37 75.62" class="st4"/>
		</g>
		<g id="shape29-28" v:mID="29" v:groupContext="shape" transform="translate(175.395,-34.5553) rotate(-45.2)">
			<title>工作表.29</title>
			<path d="M0 84.08 L23.94 84.08" class="st4"/>
		</g>
		<g id="shape30-31" v:mID="30" v:groupContext="shape" transform="translate(234.765,-59.3904) rotate(-0.2)">
			<title>工作表.30</title>
			<path d="M0 84.08 L16.93 84.08" class="st4"/>
		</g>
	</g>
</svg>
