<?xml version="1.0" encoding="UTF-8" standalone="no"?>
<!DOCTYPE svg PUBLIC "-//W3C//DTD SVG 1.1//EN" "http://www.w3.org/Graphics/SVG/1.1/DTD/svg11.dtd">
<!-- 由 Microsoft Visio, SVG Export 產生 B02709.svg 頁-1 -->
<svg xmlns="http://www.w3.org/2000/svg" xmlns:xlink="http://www.w3.org/1999/xlink" xmlns:ev="http://www.w3.org/2001/xml-events"
		xmlns:v="http://schemas.microsoft.com/visio/2003/SVGExtensions/" width="2.55171in" height="0.385374in"
		viewBox="0 0 183.723 27.7469" xml:space="preserve" color-interpolation-filters="sRGB" class="st5">
	<v:documentProperties v:langID="1028" v:viewMarkup="false"/>

	<style type="text/css">
	<![CDATA[
		.st1 {fill:none;stroke:none;stroke-linecap:butt;stroke-width:0.75}
		.st2 {fill:#000000;font-family:新細明體;font-size:0.833336em}
		.st3 {fill:none}
		.st4 {stroke:#000000;stroke-linecap:round;stroke-linejoin:round;stroke-width:0.5625}
		.st5 {fill:none;fill-rule:evenodd;font-size:12px;overflow:visible;stroke-linecap:square;stroke-miterlimit:3}
	]]>
	</style>

	<g v:mID="0" v:index="1" v:groupContext="foregroundPage">
		<title>頁-1</title>
		<v:pageProperties v:drawingScale="0.0393701" v:pageScale="0.0393701" v:drawingUnits="24" v:shadowOffsetX="9"
				v:shadowOffsetY="-9"/>
		<g id="shape2-1" v:mID="2" v:groupContext="shape" transform="translate(46.8916,-16.1177) rotate(0.1)">
			<title>工作表.2</title>
			<desc>空破著有而不破空</desc>
			<v:textBlock v:margins="rect(0,0,0,0)" v:tabSpace="42.5197"/>
			<v:textRect cx="52.4653" cy="22.3469" width="104.94" height="10.8"/>
			<rect x="0" y="16.9469" width="104.931" height="10.8" class="st1"/>
			<text x="0" y="25.46" class="st2" v:langID="1028"><v:paragraph/><v:tabList/>（空）破著有而不破空</text>		</g>
		<g id="shape3-4" v:mID="3" v:groupContext="shape" transform="translate(0.798427,-10.08) rotate(0.1)">
			<title>工作表.3</title>
			<desc>空有二種</desc>
			<v:textBlock v:margins="rect(0,0,0,0)" v:tabSpace="42.5197"/>
			<v:textRect cx="26.2028" cy="23.7042" width="52.41" height="8.08538"/>
			<rect x="0" y="19.6615" width="52.4057" height="8.08538" class="st1"/>
			<text x="-0" y="26.82" class="st2" v:langID="1028"><v:paragraph/><v:tabList/>空有二種</text>		</g>
		<g id="shape4-7" v:mID="4" v:groupContext="shape" transform="translate(51.3445,-1.05588) rotate(0.1)">
			<title>工作表.4</title>
			<desc>大空破一切法空亦復空。</desc>
			<v:textBlock v:margins="rect(0,0,0,0)" v:tabSpace="42.5197"/>
			<v:textRect cx="65.8293" cy="22.3469" width="131.66" height="10.8"/>
			<rect x="0" y="16.9469" width="131.659" height="10.8" class="st1"/>
			<text x="-0" y="25.46" class="st2" v:langID="1028"><v:paragraph/><v:tabList/>大空：破一切法，空亦復空。</text>		</g>
		<g id="shape12-10" v:mID="12" v:groupContext="shape" transform="translate(71.3267,0.780297) rotate(90.1)">
			<title>工作表.12</title>
			<path d="M0 22.59 C0 24 0.94 25.17 2.12 25.17 L10.95 25.17 C12.13 25.17 13.07 26.3 13.07 27.75 C13.07 26.3 14.02 25.17
						 15.16 25.17 L23.18 25.17 C24.32 25.17 25.27 24 25.27 22.59 L0 22.59 Z" class="st3"/>
			<path d="M0 22.59 C0 24 0.94 25.17 2.12 25.17 L10.95 25.17 C12.13 25.17 13.07 26.3 13.07 27.75 C13.07 26.3 14.02 25.17
						 15.16 25.17 L23.18 25.17 C24.32 25.17 25.27 24 25.27 22.59" class="st4"/>
		</g>
	</g>
</svg>
