<?xml version="1.0" encoding="UTF-8" standalone="no"?>
<!DOCTYPE svg PUBLIC "-//W3C//DTD SVG 1.1//EN" "http://www.w3.org/Graphics/SVG/1.1/DTD/svg11.dtd">
<!-- 由 Microsoft Visio, SVG Export 產生 A02104.svg 頁-1 -->
<svg xmlns="http://www.w3.org/2000/svg" xmlns:xlink="http://www.w3.org/1999/xlink" xmlns:ev="http://www.w3.org/2001/xml-events"
		xmlns:v="http://schemas.microsoft.com/visio/2003/SVGExtensions/" width="2.74327in" height="0.519101in"
		viewBox="0 0 197.516 37.3752" xml:space="preserve" color-interpolation-filters="sRGB" class="st6">
	<v:documentProperties v:langID="1028" v:viewMarkup="false"/>

	<style type="text/css">
	<![CDATA[
		.st1 {fill:none;stroke:none;stroke-linecap:butt;stroke-width:0.75}
		.st2 {fill:#000000;font-family:新細明體;font-size:0.833336em}
		.st3 {font-size:1em}
		.st4 {fill:none}
		.st5 {stroke:#040000;stroke-linecap:round;stroke-linejoin:round;stroke-width:0.705463}
		.st6 {fill:none;fill-rule:evenodd;font-size:12px;overflow:visible;stroke-linecap:square;stroke-miterlimit:3}
	]]>
	</style>

	<g v:mID="0" v:index="1" v:groupContext="foregroundPage">
		<title>頁-1</title>
		<v:pageProperties v:drawingScale="0.0393701" v:pageScale="0.0393701" v:drawingUnits="24" v:shadowOffsetX="9"
				v:shadowOffsetY="-9"/>
		<g id="shape1-1" v:mID="1" v:groupContext="shape" transform="translate(72.6042,-0.75)">
			<title>工作表.1</title>
			<desc>見涅槃直過涅槃趣大事 觀四諦直過四諦入一諦</desc>
			<v:textBlock v:margins="rect(0,0,0,0)" v:tabSpace="42.5197"/>
			<v:textRect cx="62.0808" cy="19.4376" width="124.17" height="35.8752"/>
			<rect x="0" y="1.5" width="124.162" height="35.8752" class="st1"/>
			<text x="0" y="15.8" class="st2" v:langID="1028"><v:paragraph v:spLine="-1.4"/><v:tabList/>見涅槃，直過涅槃趣大事<v:newlineChar/><tspan
						x="0" dy="1.453em" class="st3">觀四諦</tspan>，直過四諦入一諦</text>		</g>
		<g id="shape2-5" v:mID="2" v:groupContext="shape" transform="translate(0.75,-11.2744)">
			<title>工作表.2</title>
			<desc>菩薩三解脫門</desc>
			<v:textBlock v:margins="rect(0,0,0,0)" v:tabSpace="42.5197"/>
			<v:textRect cx="33.8622" cy="30.6028" width="67.73" height="13.5449"/>
			<rect x="0" y="23.8304" width="67.7245" height="13.5449" class="st1"/>
			<text x="0" y="34.24" class="st2" v:langID="1028"><v:paragraph v:spLine="-1.4"/><v:tabList/>菩薩三解脫門</text>		</g>
		<g id="shape13-8" v:mID="13" v:groupContext="shape" transform="translate(99.8637,11.0965) rotate(90)">
			<title>工作表.13</title>
			<path d="M0 29.65 C0 31.77 0 33.54 0 33.54 L8.5 33.54 C8.5 33.54 8.5 35.3 8.5 37.38 C8.5 35.25 8.5 33.54 8.5 33.54 L17.01
						 33.54 C17.01 33.54 17.01 31.77 17.01 29.65 L0 29.65 Z" class="st4"/>
			<path d="M0 29.65 C0 31.77 0 33.54 0 33.54 L8.5 33.54 C8.5 33.54 8.5 35.3 8.5 37.38 C8.5 35.25 8.5 33.54 8.5 33.54 L17.01
						 33.54 C17.01 33.54 17.01 31.77 17.01 29.65" class="st5"/>
		</g>
	</g>
</svg>
