<?xml version="1.0" encoding="UTF-8" standalone="no"?>
<!DOCTYPE svg PUBLIC "-//W3C//DTD SVG 1.1//EN" "http://www.w3.org/Graphics/SVG/1.1/DTD/svg11.dtd">
<!-- 由 Microsoft Visio, SVG Export 產生 M037.025=F03303.svg 頁-1 -->
<svg xmlns="http://www.w3.org/2000/svg" xmlns:xlink="http://www.w3.org/1999/xlink" xmlns:ev="http://www.w3.org/2001/xml-events"
		xmlns:v="http://schemas.microsoft.com/visio/2003/SVGExtensions/" width="4.73176in" height="1.16168in"
		viewBox="0 0 340.687 83.6413" xml:space="preserve" color-interpolation-filters="sRGB" class="st5">
	<v:documentProperties v:langID="1028" v:viewMarkup="false"/>

	<style type="text/css">
	<![CDATA[
		.st1 {fill:none;stroke:none;stroke-linecap:butt;stroke-width:0.75}
		.st2 {fill:#000000;font-family:新細明體;font-size:0.833336em}
		.st3 {fill:none}
		.st4 {stroke:#000000;stroke-linecap:round;stroke-linejoin:round;stroke-width:0.705463}
		.st5 {fill:none;fill-rule:evenodd;font-size:12px;overflow:visible;stroke-linecap:square;stroke-miterlimit:3}
	]]>
	</style>

	<g v:mID="0" v:index="1" v:groupContext="foregroundPage">
		<title>頁-1</title>
		<v:pageProperties v:drawingScale="0.0393701" v:pageScale="0.0393701" v:drawingUnits="24" v:shadowOffsetX="9"
				v:shadowOffsetY="-9"/>
		<g id="group49-1" transform="translate(0.75,-0.75)" v:mID="49" v:groupContext="group">
			<title>工作表.49</title>
			<g id="shape1-2" v:mID="1" v:groupContext="shape" transform="translate(108.15,-67.7235) rotate(-0.2)">
				<title>工作表.1</title>
				<desc>六度等</desc>
				<v:textBlock v:margins="rect(0,0,0,0)" v:tabSpace="42.5197"/>
				<v:textRect cx="16.9311" cy="76.8689" width="33.87" height="13.5449"/>
				<rect x="0" y="70.0964" width="33.8622" height="13.5449" class="st1"/>
				<text x="0" y="79.98" class="st2" v:langID="1028"><v:paragraph/><v:tabList/>六度等</text>			</g>
			<g id="shape2-5" v:mID="2" v:groupContext="shape" transform="translate(146.373,-67.8417) rotate(-0.2)">
				<title>工作表.2</title>
				<v:textBlock v:margins="rect(0,0,0,0)"/>
				<rect x="0" y="70.0964" width="95.943" height="13.5449" class="st1"/>
			</g>
			<g id="shape3-7" v:mID="3" v:groupContext="shape" transform="translate(224.409,-68.1963) rotate(-0.2)">
				<title>工作表.3</title>
				<desc>約善有雜染說有著心</desc>
				<v:textBlock v:margins="rect(0,0,0,0)" v:tabSpace="42.5197"/>
				<v:textRect cx="57.243" cy="76.8689" width="114.49" height="13.5449"/>
				<rect x="0" y="70.0964" width="114.486" height="13.5449" class="st1"/>
				<text x="0" y="79.98" class="st2" v:langID="1028"><v:paragraph/><v:tabList/>約善有雜染說（有著心）</text>			</g>
			<g id="shape6-10" v:mID="6" v:groupContext="shape" transform="translate(224.555,-51.2588) rotate(-0.2)">
				<title>工作表.6</title>
				<desc>約菩薩漏未盡說</desc>
				<v:textBlock v:margins="rect(0,0,0,0)" v:tabSpace="42.5197"/>
				<v:textRect cx="38.0387" cy="76.8689" width="76.08" height="13.5449"/>
				<rect x="0" y="70.0964" width="76.0774" height="13.5449" class="st1"/>
				<text x="0" y="79.98" class="st2" v:langID="1028"><v:paragraph/><v:tabList/>約菩薩漏未盡說</text>			</g>
			<g id="shape7-13" v:mID="7" v:groupContext="shape" transform="translate(-0.244682,-33.4675) rotate(-0.2)">
				<title>工作表.7</title>
				<desc>薩</desc>
				<v:textBlock v:margins="rect(0,0,0,0)" v:tabSpace="42.5197"/>
				<v:textRect cx="5.64371" cy="76.8689" width="11.29" height="13.5449"/>
				<rect x="0" y="70.0964" width="11.2874" height="13.5449" class="st1"/>
				<text x="-0" y="79.98" class="st2" v:langID="1028"><v:paragraph/><v:tabList/>薩</text>			</g>
			<g id="shape8-16" v:mID="8" v:groupContext="shape" transform="translate(-0.244682,-33.4675) rotate(-0.2)">
				<title>工作表.8</title>
				<desc>薩</desc>
				<v:textBlock v:margins="rect(0,0,0,0)" v:tabSpace="42.5197"/>
				<v:textRect cx="5.64371" cy="76.8689" width="11.29" height="13.5449"/>
				<rect x="0" y="70.0964" width="11.2874" height="13.5449" class="st1"/>
				<text x="-0" y="79.98" class="st2" v:langID="1028"><v:paragraph/><v:tabList/>薩</text>			</g>
			<g id="shape9-19" v:mID="9" v:groupContext="shape" transform="translate(11.0592,-33.5078) rotate(-0.2)">
				<title>工作表.9</title>
				<desc>婆</desc>
				<v:textBlock v:margins="rect(0,0,0,0)" v:tabSpace="42.5197"/>
				<v:textRect cx="5.64371" cy="76.8689" width="11.29" height="13.5449"/>
				<rect x="0" y="70.0964" width="11.2874" height="13.5449" class="st1"/>
				<text x="-0" y="79.98" class="st2" v:langID="1028"><v:paragraph/><v:tabList/>婆</text>			</g>
			<g id="shape10-22" v:mID="10" v:groupContext="shape" transform="translate(11.0592,-33.5078) rotate(-0.2)">
				<title>工作表.10</title>
				<desc>婆</desc>
				<v:textBlock v:margins="rect(0,0,0,0)" v:tabSpace="42.5197"/>
				<v:textRect cx="5.64371" cy="76.8689" width="11.29" height="13.5449"/>
				<rect x="0" y="70.0964" width="11.2874" height="13.5449" class="st1"/>
				<text x="-0" y="79.98" class="st2" v:langID="1028"><v:paragraph/><v:tabList/>婆</text>			</g>
			<g id="shape11-25" v:mID="11" v:groupContext="shape" transform="translate(22.3612,-33.5468) rotate(-0.2)">
				<title>工作表.11</title>
				<desc>若</desc>
				<v:textBlock v:margins="rect(0,0,0,0)" v:tabSpace="42.5197"/>
				<v:textRect cx="5.64371" cy="76.8689" width="11.29" height="13.5449"/>
				<rect x="0" y="70.0964" width="11.2874" height="13.5449" class="st1"/>
				<text x="0" y="79.98" class="st2" v:langID="1028"><v:paragraph/><v:tabList/>若</text>			</g>
			<g id="shape12-28" v:mID="12" v:groupContext="shape" transform="translate(22.3612,-33.5468) rotate(-0.2)">
				<title>工作表.12</title>
				<desc>若</desc>
				<v:textBlock v:margins="rect(0,0,0,0)" v:tabSpace="42.5197"/>
				<v:textRect cx="5.64371" cy="76.8689" width="11.29" height="13.5449"/>
				<rect x="0" y="70.0964" width="11.2874" height="13.5449" class="st1"/>
				<text x="0" y="79.98" class="st2" v:langID="1028"><v:paragraph/><v:tabList/>若</text>			</g>
			<g id="shape13-31" v:mID="13" v:groupContext="shape" transform="translate(33.6651,-33.5863) rotate(-0.2)">
				<title>工作表.13</title>
				<desc>不</desc>
				<v:textBlock v:margins="rect(0,0,0,0)" v:tabSpace="42.5197"/>
				<v:textRect cx="5.64371" cy="76.8689" width="11.29" height="13.5449"/>
				<rect x="0" y="70.0964" width="11.2874" height="13.5449" class="st1"/>
				<text x="0" y="79.98" class="st2" v:langID="1028"><v:paragraph/><v:tabList/>不</text>			</g>
			<g id="shape14-34" v:mID="14" v:groupContext="shape" transform="translate(33.6651,-33.5863) rotate(-0.2)">
				<title>工作表.14</title>
				<desc>不</desc>
				<v:textBlock v:margins="rect(0,0,0,0)" v:tabSpace="42.5197"/>
				<v:textRect cx="5.64371" cy="76.8689" width="11.29" height="13.5449"/>
				<rect x="0" y="70.0964" width="11.2874" height="13.5449" class="st1"/>
				<text x="0" y="79.98" class="st2" v:langID="1028"><v:paragraph/><v:tabList/>不</text>			</g>
			<g id="shape15-37" v:mID="15" v:groupContext="shape" transform="translate(44.9672,-33.6253) rotate(-0.2)">
				<title>工作表.15</title>
				<desc>與</desc>
				<v:textBlock v:margins="rect(0,0,0,0)" v:tabSpace="42.5197"/>
				<v:textRect cx="5.64371" cy="76.8689" width="11.29" height="13.5449"/>
				<rect x="0" y="70.0964" width="11.2874" height="13.5449" class="st1"/>
				<text x="0" y="79.98" class="st2" v:langID="1028"><v:paragraph/><v:tabList/>與</text>			</g>
			<g id="shape16-40" v:mID="16" v:groupContext="shape" transform="translate(44.9672,-33.6253) rotate(-0.2)">
				<title>工作表.16</title>
				<desc>與</desc>
				<v:textBlock v:margins="rect(0,0,0,0)" v:tabSpace="42.5197"/>
				<v:textRect cx="5.64371" cy="76.8689" width="11.29" height="13.5449"/>
				<rect x="0" y="70.0964" width="11.2874" height="13.5449" class="st1"/>
				<text x="0" y="79.98" class="st2" v:langID="1028"><v:paragraph/><v:tabList/>與</text>			</g>
			<g id="shape17-43" v:mID="17" v:groupContext="shape" transform="translate(56.271,-33.6656) rotate(-0.2)">
				<title>工作表.17</title>
				<desc>眾</desc>
				<v:textBlock v:margins="rect(0,0,0,0)" v:tabSpace="42.5197"/>
				<v:textRect cx="5.64371" cy="76.8689" width="11.29" height="13.5449"/>
				<rect x="0" y="70.0964" width="11.2874" height="13.5449" class="st1"/>
				<text x="0" y="79.98" class="st2" v:langID="1028"><v:paragraph/><v:tabList/>眾</text>			</g>
			<g id="shape18-46" v:mID="18" v:groupContext="shape" transform="translate(56.271,-33.6656) rotate(-0.2)">
				<title>工作表.18</title>
				<desc>眾</desc>
				<v:textBlock v:margins="rect(0,0,0,0)" v:tabSpace="42.5197"/>
				<v:textRect cx="5.64371" cy="76.8689" width="11.29" height="13.5449"/>
				<rect x="0" y="70.0964" width="11.2874" height="13.5449" class="st1"/>
				<text x="0" y="79.98" class="st2" v:langID="1028"><v:paragraph/><v:tabList/>眾</text>			</g>
			<g id="shape19-49" v:mID="19" v:groupContext="shape" transform="translate(67.5749,-33.7046) rotate(-0.2)">
				<title>工作表.19</title>
				<desc>德</desc>
				<v:textBlock v:margins="rect(0,0,0,0)" v:tabSpace="42.5197"/>
				<v:textRect cx="5.64371" cy="76.8689" width="11.29" height="13.5449"/>
				<rect x="0" y="70.0964" width="11.2874" height="13.5449" class="st1"/>
				<text x="0" y="79.98" class="st2" v:langID="1028"><v:paragraph/><v:tabList/>德</text>			</g>
			<g id="shape20-52" v:mID="20" v:groupContext="shape" transform="translate(67.5749,-33.7046) rotate(-0.2)">
				<title>工作表.20</title>
				<desc>德</desc>
				<v:textBlock v:margins="rect(0,0,0,0)" v:tabSpace="42.5197"/>
				<v:textRect cx="5.64371" cy="76.8689" width="11.29" height="13.5449"/>
				<rect x="0" y="70.0964" width="11.2874" height="13.5449" class="st1"/>
				<text x="0" y="79.98" class="st2" v:langID="1028"><v:paragraph/><v:tabList/>德</text>			</g>
			<g id="shape21-55" v:mID="21" v:groupContext="shape" transform="translate(78.877,-33.7441) rotate(-0.2)">
				<title>工作表.21</title>
				<desc>合</desc>
				<v:textBlock v:margins="rect(0,0,0,0)" v:tabSpace="42.5197"/>
				<v:textRect cx="5.64371" cy="76.8689" width="11.29" height="13.5449"/>
				<rect x="0" y="70.0964" width="11.2874" height="13.5449" class="st1"/>
				<text x="0" y="79.98" class="st2" v:langID="1028"><v:paragraph/><v:tabList/>合</text>			</g>
			<g id="shape22-58" v:mID="22" v:groupContext="shape" transform="translate(78.877,-33.7441) rotate(-0.2)">
				<title>工作表.22</title>
				<desc>合</desc>
				<v:textBlock v:margins="rect(0,0,0,0)" v:tabSpace="42.5197"/>
				<v:textRect cx="5.64371" cy="76.8689" width="11.29" height="13.5449"/>
				<rect x="0" y="70.0964" width="11.2874" height="13.5449" class="st1"/>
				<text x="0" y="79.98" class="st2" v:langID="1028"><v:paragraph/><v:tabList/>合</text>			</g>
			<g id="shape23-61" v:mID="23" v:groupContext="shape" transform="translate(108.268,-33.8615) rotate(-0.2)">
				<title>工作表.23</title>
				<desc>道品等</desc>
				<v:textBlock v:margins="rect(0,0,0,0)" v:tabSpace="42.5197"/>
				<v:textRect cx="16.9311" cy="76.8689" width="33.87" height="13.5449"/>
				<rect x="0" y="70.0964" width="33.8622" height="13.5449" class="st1"/>
				<text x="0" y="79.98" class="st2" v:langID="1028"><v:paragraph/><v:tabList/>道品等</text>			</g>
			<g id="shape24-64" v:mID="24" v:groupContext="shape" transform="translate(146.491,-33.9797) rotate(-0.2)">
				<title>工作表.24</title>
				<v:textBlock v:margins="rect(0,0,0,0)"/>
				<rect x="0" y="70.0964" width="95.943" height="13.5449" class="st1"/>
			</g>
			<g id="shape25-66" v:mID="25" v:groupContext="shape" transform="translate(224.527,-34.3343) rotate(-0.2)">
				<title>工作表.25</title>
				<desc>約空說行義</desc>
				<v:textBlock v:margins="rect(0,0,0,0)" v:tabSpace="42.5197"/>
				<v:textRect cx="39.5059" cy="76.8689" width="79.02" height="13.5449"/>
				<rect x="0" y="70.0964" width="79.0119" height="13.5449" class="st1"/>
				<text x="-0" y="79.98" class="st2" v:langID="1028"><v:paragraph/><v:tabList/>約空說（行義）</text>			</g>
			<g id="shape26-69" v:mID="26" v:groupContext="shape" transform="translate(224.587,-17.4033) rotate(-0.2)">
				<title>工作表.26</title>
				<desc>約二乘法說</desc>
				<v:textBlock v:margins="rect(0,0,0,0)" v:tabSpace="42.5197"/>
				<v:textRect cx="28.2185" cy="76.8689" width="56.44" height="13.5449"/>
				<rect x="0" y="70.0964" width="56.4371" height="13.5449" class="st1"/>
				<text x="0" y="79.98" class="st2" v:langID="1028"><v:paragraph/><v:tabList/>約二乘法說</text>			</g>
			<g id="shape27-72" v:mID="27" v:groupContext="shape" transform="translate(108.386,0.000509571) rotate(-0.2)">
				<title>工作表.27</title>
				<desc>十力等</desc>
				<v:textBlock v:margins="rect(0,0,0,0)" v:tabSpace="42.5197"/>
				<v:textRect cx="16.9311" cy="76.8689" width="33.87" height="13.5449"/>
				<rect x="0" y="70.0964" width="33.8622" height="13.5449" class="st1"/>
				<text x="-0" y="79.98" class="st2" v:langID="1028"><v:paragraph/><v:tabList/>十力等</text>			</g>
			<g id="shape28-75" v:mID="28" v:groupContext="shape" transform="translate(146.609,-0.117692) rotate(-0.2)">
				<title>工作表.28</title>
				<v:textBlock v:margins="rect(0,0,0,0)"/>
				<rect x="0" y="70.0964" width="95.943" height="13.5449" class="st1"/>
			</g>
			<g id="shape29-77" v:mID="29" v:groupContext="shape" transform="translate(224.646,-0.472295) rotate(-0.2)">
				<title>工作表.29</title>
				<desc>約菩薩未得說</desc>
				<v:textBlock v:margins="rect(0,0,0,0)" v:tabSpace="42.5197"/>
				<v:textRect cx="39.5059" cy="76.8689" width="79.02" height="13.5449"/>
				<rect x="0" y="70.0964" width="79.0119" height="13.5449" class="st1"/>
				<text x="0" y="79.98" class="st2" v:langID="1028"><v:paragraph/><v:tabList/>約菩薩未得說</text>			</g>
			<g id="shape37-80" v:mID="37" v:groupContext="shape" transform="translate(176.657,8.95911) rotate(89.8)">
				<title>工作表.37</title>
				<path d="M0 71.48 C0 74.86 2.16 77.56 4.89 77.56 L28.88 77.56 C31.6 77.56 33.86 80.33 33.86 83.64 C33.86 80.33 36.03
							 77.56 38.75 77.56 L62.74 77.56 C65.47 77.56 67.72 74.86 67.72 71.48 L0 71.48 Z" class="st3"/>
				<path d="M0 71.48 C0 74.86 2.16 77.56 4.89 77.56 L28.88 77.56 C31.6 77.56 33.86 80.33 33.86 83.64 C33.86 80.33 36.03
							 77.56 38.75 77.56 L62.74 77.56 C65.47 77.56 67.72 74.86 67.72 71.48" class="st4"/>
			</g>
			<g id="shape38-83" v:mID="38" v:groupContext="shape" transform="translate(175.266,-67.7792) rotate(23.3747)">
				<title>工作表.38</title>
				<path d="M0 83.64 L84.67 83.64" class="st4"/>
			</g>
			<g id="shape39-86" v:mID="39" v:groupContext="shape" transform="translate(141.79,-74.6432) rotate(-0.2)">
				<title>工作表.39</title>
				<path d="M0 83.64 L77.58 83.64" class="st4"/>
			</g>
			<g id="shape40-89" v:mID="40" v:groupContext="shape" transform="translate(161.857,-72.1182) rotate(12.1533)">
				<title>工作表.40</title>
				<path d="M0 83.64 L77.6 83.64" class="st4"/>
			</g>
			<g id="shape41-92" v:mID="41" v:groupContext="shape" transform="translate(108.822,-34.0175) rotate(-23.6665)">
				<title>工作表.41</title>
				<path d="M0 83.64 L84.36 83.64" class="st4"/>
			</g>
			<g id="shape42-95" v:mID="42" v:groupContext="shape" transform="translate(142.396,-41.052) rotate(-0.000439706)">
				<title>工作表.42</title>
				<path d="M0 83.64 L77.4 83.64" class="st4"/>
			</g>
			<g id="shape43-98" v:mID="43" v:groupContext="shape" transform="translate(160.256,-39.1231) rotate(12.3288)">
				<title>工作表.43</title>
				<path d="M0 83.64 L79.29 83.64" class="st4"/>
			</g>
			<g id="shape45-101" v:mID="45" v:groupContext="shape" transform="translate(109.602,-1.22729) rotate(-23.1705)">
				<title>工作表.45</title>
				<path d="M0 83.64 L84.07 83.64" class="st4"/>
			</g>
			<g id="shape46-104" v:mID="46" v:groupContext="shape" transform="translate(143.339,-7.96986) rotate(0.565896)">
				<title>工作表.46</title>
				<path d="M0 83.64 L78.82 83.64" class="st4"/>
			</g>
			<g id="shape48-107" v:mID="48" v:groupContext="shape" transform="translate(87.6965,12.4925) rotate(-40.9478)">
				<title>工作表.48</title>
				<path d="M0 83.64 L102.14 83.64" class="st4"/>
			</g>
		</g>
	</g>
</svg>
