<?xml version="1.0" encoding="UTF-8" standalone="no"?>
<!DOCTYPE svg PUBLIC "-//W3C//DTD SVG 1.1//EN" "http://www.w3.org/Graphics/SVG/1.1/DTD/svg11.dtd">
<!-- 由 Microsoft Visio, SVG Export 產生 F3602.svg 頁-1 -->
<svg xmlns="http://www.w3.org/2000/svg" xmlns:xlink="http://www.w3.org/1999/xlink" xmlns:ev="http://www.w3.org/2001/xml-events"
		xmlns:v="http://schemas.microsoft.com/visio/2003/SVGExtensions/" width="5.20218in" height="1.88067in"
		viewBox="0 0 374.557 135.408" xml:space="preserve" color-interpolation-filters="sRGB" class="st5">
	<v:documentProperties v:langID="1028" v:viewMarkup="false"/>

	<style type="text/css">
	<![CDATA[
		.st1 {fill:none;stroke:none;stroke-linecap:butt;stroke-width:0.75}
		.st2 {fill:#000000;font-family:新細明體;font-size:0.833336em}
		.st3 {fill:none}
		.st4 {stroke:#000000;stroke-linecap:round;stroke-linejoin:round;stroke-width:0.705463}
		.st5 {fill:none;fill-rule:evenodd;font-size:12px;overflow:visible;stroke-linecap:square;stroke-miterlimit:3}
	]]>
	</style>

	<g v:mID="0" v:index="1" v:groupContext="foregroundPage">
		<title>頁-1</title>
		<v:pageProperties v:drawingScale="0.0393701" v:pageScale="0.0393701" v:drawingUnits="24" v:shadowOffsetX="9"
				v:shadowOffsetY="-9"/>
		<g id="shape1-1" v:mID="1" v:groupContext="shape" transform="translate(56.878,-114.649) rotate(-0.2)">
			<title>工作表.1</title>
			<desc>若身滅便無</desc>
			<v:textBlock v:margins="rect(0,0,0,0)" v:tabSpace="42.5197"/>
			<v:textRect cx="28.2185" cy="128.636" width="56.44" height="13.5449"/>
			<rect x="0" y="121.863" width="56.4371" height="13.5449" class="st1"/>
			<text x="0" y="131.75" class="st2" v:langID="1028"><v:paragraph/><v:tabList/>若身滅便無</text>		</g>
		<g id="shape2-4" v:mID="2" v:groupContext="shape" transform="translate(125.885,-119.266) rotate(-0.2)">
			<title>工作表.2</title>
			<desc>眾生生即有愛喜生即知貪色</desc>
			<v:textBlock v:margins="rect(0,0,0,0)" v:tabSpace="42.5197"/>
			<v:textRect cx="67.7245" cy="128.636" width="135.45" height="13.5449"/>
			<rect x="0" y="121.863" width="135.449" height="13.5449" class="st1"/>
			<text x="0" y="131.75" class="st2" v:langID="1028"><v:paragraph/><v:tabList/>眾生生即有愛喜生即知貪色</text>		</g>
		<g id="shape3-7" v:mID="3" v:groupContext="shape" transform="translate(283.035,-118.946) rotate(-0.2)">
			<title>工作表.3</title>
			<desc>比知先世曾習因緣</desc>
			<v:textBlock v:margins="rect(0,0,0,0)" v:tabSpace="42.5197"/>
			<v:textRect cx="45.1496" cy="128.636" width="90.3" height="13.5449"/>
			<rect x="0" y="121.863" width="90.2993" height="13.5449" class="st1"/>
			<text x="0" y="131.75" class="st2" v:langID="1028"><v:paragraph/><v:tabList/>比知先世曾習因緣</text>		</g>
		<g id="shape4-10" v:mID="4" v:groupContext="shape" transform="translate(125.944,-102.335) rotate(-0.2)">
			<title>工作表.4</title>
			<desc>同一父母生愚智好醜貧富異</desc>
			<v:textBlock v:margins="rect(0,0,0,0)" v:tabSpace="42.5197"/>
			<v:textRect cx="73.3682" cy="128.636" width="146.74" height="13.5449"/>
			<rect x="0" y="121.863" width="146.736" height="13.5449" class="st1"/>
			<text x="0" y="131.75" class="st2" v:langID="1028"><v:paragraph/><v:tabList/>同一父母生，愚智好醜貧富異</text>		</g>
		<g id="shape5-13" v:mID="5" v:groupContext="shape" transform="translate(126.003,-85.4042) rotate(-0.2)">
			<title>工作表.5</title>
			<desc>此非肉眼所見天眼所見故可見</desc>
			<v:textBlock v:margins="rect(0,0,0,0)" v:tabSpace="42.5197"/>
			<v:textRect cx="79.0119" cy="128.636" width="158.03" height="13.5449"/>
			<rect x="0" y="121.863" width="158.024" height="13.5449" class="st1"/>
			<text x="0" y="131.75" class="st2" v:langID="1028"><v:paragraph/><v:tabList/>此非肉眼所見：天眼所見故可見</text>		</g>
		<g id="shape6-16" v:mID="6" v:groupContext="shape" transform="translate(311.145,-86.0875) rotate(-0.2)">
			<title>工作表.6</title>
			<desc>現知</desc>
			<v:textBlock v:margins="rect(0,0,0,0)"/>
			<v:textRect cx="11.2874" cy="128.636" width="22.58" height="13.5449"/>
			<rect x="0" y="121.863" width="22.5748" height="13.5449" class="st1"/>
			<text x="0" y="131.75" class="st2" v:langID="1028"><v:paragraph/><v:tabList/>現知</text>		</g>
		<g id="shape7-19" v:mID="7" v:groupContext="shape" transform="translate(0.324618,-67.9807) rotate(-0.2)">
			<title>工作表.7</title>
			<desc>證有後世</desc>
			<v:textBlock v:margins="rect(0,0,0,0)" v:tabSpace="42.5197"/>
			<v:textRect cx="22.5748" cy="128.636" width="45.15" height="13.5449"/>
			<rect x="0" y="121.863" width="45.1496" height="13.5449" class="st1"/>
			<text x="0" y="131.75" class="st2" v:langID="1028"><v:paragraph/><v:tabList/>證有後世</text>		</g>
		<g id="shape8-22" v:mID="8" v:groupContext="shape" transform="translate(126.062,-68.4732) rotate(-0.2)">
			<title>工作表.8</title>
			<desc>煩惱不盡行業因緣相續故可知</desc>
			<v:textBlock v:margins="rect(0,0,0,0)" v:tabSpace="42.5197"/>
			<v:textRect cx="79.0119" cy="128.636" width="158.03" height="13.5449"/>
			<rect x="0" y="121.863" width="158.024" height="13.5449" class="st1"/>
			<text x="0" y="131.75" class="st2" v:langID="1028"><v:paragraph/><v:tabList/>煩惱不盡，行業因緣相續故可知</text>		</g>
		<g id="shape9-25" v:mID="9" v:groupContext="shape" transform="translate(126.121,-51.5422) rotate(-0.2)">
			<title>工作表.9</title>
			<desc>有知宿命者故</desc>
			<v:textBlock v:margins="rect(0,0,0,0)" v:tabSpace="42.5197"/>
			<v:textRect cx="33.8622" cy="128.636" width="67.73" height="13.5449"/>
			<rect x="0" y="121.863" width="67.7245" height="13.5449" class="st1"/>
			<text x="0" y="131.75" class="st2" v:langID="1028"><v:paragraph/><v:tabList/>有知宿命者故</text>		</g>
		<g id="shape10-28" v:mID="10" v:groupContext="shape" transform="translate(56.6235,-34.7912) rotate(-0.2)">
			<title>工作表.10</title>
			<desc>若不見重生</desc>
			<v:textBlock v:margins="rect(0,0,0,0)" v:tabSpace="42.5197"/>
			<v:textRect cx="28.2185" cy="128.636" width="56.44" height="13.5449"/>
			<rect x="0" y="121.863" width="56.4371" height="13.5449" class="st1"/>
			<text x="-0" y="131.75" class="st2" v:langID="1028"><v:paragraph/><v:tabList/>若不見重生</text>		</g>
		<g id="shape11-31" v:mID="11" v:groupContext="shape" transform="translate(126.18,-34.6112) rotate(-0.2)">
			<title>工作表.11</title>
			<desc>一切經書皆說有故</desc>
			<v:textBlock v:margins="rect(0,0,0,0)" v:tabSpace="42.5197"/>
			<v:textRect cx="45.1496" cy="128.636" width="90.3" height="13.5449"/>
			<rect x="0" y="121.863" width="90.2993" height="13.5449" class="st1"/>
			<text x="0" y="131.75" class="st2" v:langID="1028"><v:paragraph/><v:tabList/>一切經書皆說有故</text>		</g>
		<g id="shape12-34" v:mID="12" v:groupContext="shape" transform="translate(216.479,-34.9264) rotate(-0.2)">
			<title>工作表.12</title>
			<v:textBlock v:margins="rect(0,0,0,0)"/>
			<rect x="0" y="121.863" width="76.19" height="13.5449" class="st1"/>
		</g>
		<g id="shape13-36" v:mID="13" v:groupContext="shape" transform="translate(283.46,-35.1825) rotate(-0.2)">
			<title>工作表.13</title>
			<desc>比知及聖教量知</desc>
			<v:textBlock v:margins="rect(0,0,0,0)" v:tabSpace="42.5197"/>
			<v:textRect cx="39.5059" cy="128.636" width="79.02" height="13.5449"/>
			<rect x="0" y="121.863" width="79.0119" height="13.5449" class="st1"/>
			<text x="-0" y="131.75" class="st2" v:langID="1028"><v:paragraph/><v:tabList/>比知及聖教量知</text>		</g>
		<g id="shape14-39" v:mID="14" v:groupContext="shape" transform="translate(126.239,-17.6802) rotate(-0.2)">
			<title>工作表.14</title>
			<desc>三業</desc>
			<v:textBlock v:margins="rect(0,0,0,0)" v:tabSpace="42.5197"/>
			<v:textRect cx="11.2874" cy="128.636" width="22.58" height="13.5449"/>
			<rect x="0" y="121.863" width="22.5748" height="13.5449" class="st1"/>
			<text x="0" y="131.75" class="st2" v:langID="1028"><v:paragraph/><v:tabList/>三業</text>		</g>
		<g id="shape15-42" v:mID="15" v:groupContext="shape" transform="translate(148.814,-17.759) rotate(-0.2)">
			<title>工作表.15</title>
			<desc>定</desc>
			<v:textBlock v:margins="rect(0,0,0,0)" v:tabSpace="42.5197"/>
			<v:textRect cx="5.64371" cy="128.636" width="11.29" height="13.5449"/>
			<rect x="0" y="121.863" width="11.2874" height="13.5449" class="st1"/>
			<text x="0" y="131.75" class="st2" v:langID="1028"><v:paragraph/><v:tabList/>定</text>		</g>
		<g id="shape16-45" v:mID="16" v:groupContext="shape" transform="translate(160.101,-17.7984) rotate(-0.2)">
			<title>工作表.16</title>
			<desc>有善不善故</desc>
			<v:textBlock v:margins="rect(0,0,0,0)" v:tabSpace="42.5197"/>
			<v:textRect cx="28.2185" cy="128.636" width="56.44" height="13.5449"/>
			<rect x="0" y="121.863" width="56.4371" height="13.5449" class="st1"/>
			<text x="0" y="131.75" class="st2" v:langID="1028"><v:paragraph/><v:tabList/>有善不善故</text>		</g>
		<g id="shape17-48" v:mID="17" v:groupContext="shape" transform="translate(126.298,-0.749175) rotate(-0.2)">
			<title>工作表.17</title>
			<desc>信聖人所說故</desc>
			<v:textBlock v:margins="rect(0,0,0,0)" v:tabSpace="42.5197"/>
			<v:textRect cx="33.8622" cy="128.636" width="67.73" height="13.5449"/>
			<rect x="0" y="121.863" width="67.7245" height="13.5449" class="st1"/>
			<text x="0" y="131.75" class="st2" v:langID="1028"><v:paragraph/><v:tabList/>信聖人所說故</text>		</g>
		<g id="shape29-51" v:mID="29" v:groupContext="shape" transform="translate(180.547,8.69485) rotate(89.8)">
			<title>工作表.29</title>
			<path d="M0 126.94 C0 129.29 3.31 131.18 7.44 131.18 L42.99 131.18 C47.04 131.18 50.43 133.06 50.43 135.41 C50.43 133.06
						 53.74 131.18 57.87 131.18 L81.85 131.18 C85.98 131.18 89.29 129.29 89.29 126.94 L0 126.94 Z" class="st3"/>
			<path d="M0 126.94 C0 129.29 3.31 131.18 7.44 131.18 L42.99 131.18 C47.04 131.18 50.43 133.06 50.43 135.41 C50.43 133.06
						 53.74 131.18 57.87 131.18 L81.85 131.18 C85.98 131.18 89.29 129.29 89.29 126.94" class="st4"/>
		</g>
		<g id="shape30-54" v:mID="30" v:groupContext="shape" transform="translate(248.265,4.43516) rotate(89.8)">
			<title>工作表.30</title>
			<path d="M0 126.94 C0 129.29 0.96 131.18 2.15 131.18 L7.02 131.18 C8.22 131.18 9.18 133.06 9.18 135.41 C9.18 133.06 10.13
						 131.18 11.33 131.18 L23.86 131.18 C25.05 131.18 26.01 129.29 26.01 126.94 L0 126.94 Z" class="st3"/>
			<path d="M0 126.94 C0 129.29 0.96 131.18 2.15 131.18 L7.02 131.18 C8.22 131.18 9.18 133.06 9.18 135.41 C9.18 133.06 10.13
						 131.18 11.33 131.18 L23.86 131.18 C25.05 131.18 26.01 129.29 26.01 126.94" class="st4"/>
		</g>
		<g id="shape31-57" v:mID="31" v:groupContext="shape" transform="translate(247.725,38.4528) rotate(89.8)">
			<title>工作表.31</title>
			<path d="M0 126.94 C0 129.29 3.46 131.18 7.8 131.18 L45.56 131.18 C49.89 131.18 53.35 133.06 53.35 135.41 C53.35 133.06
						 56.82 131.18 61.15 131.18 L85.75 131.18 C89.99 131.18 93.54 129.29 93.54 126.94 L0 126.94 Z" class="st3"/>
			<path d="M0 126.94 C0 129.29 3.46 131.18 7.8 131.18 L45.56 131.18 C49.89 131.18 53.35 133.06 53.35 135.41 C53.35 133.06
						 56.82 131.18 61.15 131.18 L85.75 131.18 C89.99 131.18 93.54 129.29 93.54 126.94" class="st4"/>
		</g>
		<g id="shape32-60" v:mID="32" v:groupContext="shape" transform="translate(407.129,-0.119931) rotate(89.8)">
			<title>工作表.32</title>
			<path d="M0 135.41 C0 133.06 1.22 131.18 2.82 131.18 L6.96 131.18 C8.56 131.18 9.78 129.29 9.78 126.94 C9.78 129.29 11.01
						 131.18 12.6 131.18 L31.04 131.18 C32.55 131.18 33.86 133.06 33.86 135.41 L0 135.41 Z" class="st3"/>
			<path d="M0 135.41 C0 133.06 1.22 131.18 2.82 131.18 L6.96 131.18 C8.56 131.18 9.78 129.29 9.78 126.94 C9.78 129.29 11.01
						 131.18 12.6 131.18 L31.04 131.18 C32.55 131.18 33.86 133.06 33.86 135.41" class="st4"/>
		</g>
		<g id="shape33-63" v:mID="33" v:groupContext="shape" transform="translate(407.501,54.91) rotate(89.8)">
			<title>工作表.33</title>
			<path d="M0 135.41 C0 133.06 2.91 131.18 6.42 131.18 L32.12 131.18 C35.64 131.18 38.55 129.29 38.55 126.94 C38.55 129.29
						 41.46 131.18 44.97 131.18 L70.67 131.18 C74.19 131.18 77.1 133.06 77.1 135.41 L0 135.41 Z" class="st3"/>
			<path d="M0 135.41 C0 133.06 2.91 131.18 6.42 131.18 L32.12 131.18 C35.64 131.18 38.55 129.29 38.55 126.94 C38.55 129.29
						 41.46 131.18 44.97 131.18 L70.67 131.18 C74.19 131.18 77.1 133.06 77.1 135.41" class="st4"/>
		</g>
		<g id="shape34-66" v:mID="34" v:groupContext="shape" transform="translate(272.721,-93.2399) rotate(-0.2)">
			<title>工作表.34</title>
			<path d="M0 135.41 L33.86 135.41" class="st4"/>
		</g>
	</g>
</svg>
