<?xml version="1.0" encoding="UTF-8" standalone="no"?>
<!DOCTYPE svg PUBLIC "-//W3C//DTD SVG 1.1//EN" "http://www.w3.org/Graphics/SVG/1.1/DTD/svg11.dtd">
<!-- 由 Microsoft Visio, SVG Export 產生 F3601.svg 頁-1 -->
<svg xmlns="http://www.w3.org/2000/svg" xmlns:xlink="http://www.w3.org/1999/xlink" xmlns:ev="http://www.w3.org/2001/xml-events"
		xmlns:v="http://schemas.microsoft.com/visio/2003/SVGExtensions/" width="4.16866in" height="1.16614in"
		viewBox="0 0 300.144 83.9623" xml:space="preserve" color-interpolation-filters="sRGB" class="st7">
	<v:documentProperties v:langID="1028" v:viewMarkup="false"/>

	<style type="text/css">
	<![CDATA[
		.st1 {fill:none;stroke:none;stroke-linecap:butt;stroke-width:0.75}
		.st2 {fill:#000000;font-family:新細明體;font-size:0.833336em}
		.st3 {fill:#000000;stroke:none;stroke-linecap:butt;stroke-width:0.940618}
		.st4 {fill:#000000;font-family:Times New Roman;font-size:0.833336em}
		.st5 {fill:none}
		.st6 {stroke:#000000;stroke-linecap:round;stroke-linejoin:round;stroke-width:0.705463}
		.st7 {fill:none;fill-rule:evenodd;font-size:12px;overflow:visible;stroke-linecap:square;stroke-miterlimit:3}
	]]>
	</style>

	<g v:mID="0" v:index="1" v:groupContext="foregroundPage">
		<title>頁-1</title>
		<v:pageProperties v:drawingScale="0.0393701" v:pageScale="0.0393701" v:drawingUnits="24" v:shadowOffsetX="9"
				v:shadowOffsetY="-9"/>
		<g id="shape2-1" v:mID="2" v:groupContext="shape" transform="translate(107.354,-68.5917) rotate(-0.2)">
			<title>工作表.2</title>
			<desc>從他方佛國來生</desc>
			<v:textBlock v:margins="rect(0,0,0,0)" v:tabSpace="42.5197"/>
			<v:textRect cx="39.5059" cy="77.1898" width="79.02" height="13.5449"/>
			<rect x="0" y="70.4174" width="79.0119" height="13.5449" class="st1"/>
			<text x="0" y="80.3" class="st2" v:langID="1028"><v:paragraph/><v:tabList/>從他方佛國來生</text>		</g>
		<g id="shape3-4" v:mID="3" v:groupContext="shape" transform="translate(186.365,-68.8675) rotate(-0.2)">
			<title>工作表.3</title>
			<v:textBlock v:margins="rect(0,0,0,0)"/>
			<rect x="0" y="70.4174" width="90.2993" height="13.5449" class="st1"/>
		</g>
		<g id="shape4-6" v:mID="4" v:groupContext="shape" transform="translate(244.906,-65.8529) rotate(-0.2)">
			<title>工作表.4</title>
			<desc>利法身</desc>
			<v:textBlock v:margins="rect(0,0,0,0)" v:tabSpace="42.5197"/>
			<v:textRect cx="22.5748" cy="77.1898" width="45.15" height="13.5449"/>
			<rect x="0" y="70.4174" width="45.1496" height="13.5449" class="st1"/>
			<text x="0" y="80.3" class="st2" v:langID="1028"><v:paragraph/><v:tabList/>利－法身</text>		</g>
		<g id="shape5-9" v:mID="5" v:groupContext="shape" transform="translate(73.6951,-51.5298) rotate(-0.2)">
			<title>工作表.5</title>
			<desc>來蹤</desc>
			<v:textBlock v:margins="rect(0,0,0,0)" v:tabSpace="42.5197"/>
			<v:textRect cx="11.2874" cy="77.1898" width="22.58" height="13.5449"/>
			<rect x="0" y="70.4174" width="22.5748" height="13.5449" class="st1"/>
			<text x="-0" y="80.3" class="st2" v:langID="1028"><v:paragraph/><v:tabList/>來蹤</text>		</g>
		<g id="shape6-12" v:mID="6" v:groupContext="shape" transform="translate(107.608,-51.6677) rotate(-0.2)">
			<title>工作表.6</title>
			<desc>從兜率天上來一生補處</desc>
			<v:textBlock v:margins="rect(0,0,0,0)" v:tabSpace="42.5197"/>
			<v:textRect cx="67.7245" cy="77.1898" width="135.45" height="13.5449"/>
			<rect x="0" y="70.4174" width="135.449" height="13.5449" class="st1"/>
			<text x="0" y="80.3" class="st2" v:langID="1028"><v:paragraph/><v:tabList/>從兜率天上來（一生補處）</text>		</g>
		<g id="shape7-15" v:mID="7" v:groupContext="shape" transform="translate(0.504197,-31.9735) rotate(-0.2)">
			<title>工作表.7</title>
			<desc>般若相應菩薩</desc>
			<v:textBlock v:margins="rect(0,0,0,0)" v:tabSpace="42.5197"/>
			<v:textRect cx="33.8622" cy="77.1898" width="67.73" height="13.5449"/>
			<rect x="0" y="70.4174" width="67.7245" height="13.5449" class="st1"/>
			<text x="0" y="80.3" class="st2" v:langID="1028"><v:paragraph/><v:tabList/>般若相應菩薩</text>		</g>
		<g id="shape8-18" v:mID="8" v:groupContext="shape" transform="translate(107.472,-34.7297) rotate(-0.2)">
			<title>工作表.8</title>
			<desc>從人道中來</desc>
			<v:textBlock v:margins="rect(0,0,0,0)" v:tabSpace="42.5197"/>
			<v:textRect cx="28.2185" cy="77.1898" width="56.44" height="13.5449"/>
			<rect x="0" y="70.4174" width="56.4371" height="13.5449" class="st1"/>
			<text x="0" y="80.3" class="st2" v:langID="1028"><v:paragraph/><v:tabList/>從人道中來</text>		</g>
		<g id="shape9-21" v:mID="9" v:groupContext="shape" transform="translate(172.362,-34.9661) rotate(-0.2)">
			<title>工作表.9</title>
			<desc>阿鞞跋致菩薩</desc>
			<v:textBlock v:margins="rect(0,0,0,0)" v:tabSpace="42.5197"/>
			<v:textRect cx="33.8622" cy="77.1898" width="67.73" height="13.5449"/>
			<rect x="0" y="70.4174" width="67.7245" height="13.5449" class="st1"/>
			<text x="0" y="80.3" class="st2" v:langID="1028"><v:paragraph/><v:tabList/>阿鞞跋致菩薩</text>		</g>
		<g id="shape10-24" v:mID="10" v:groupContext="shape" transform="translate(334.567,40.2021) rotate(89.8)">
			<title>工作表.10</title>
			<path d="M1.6 73.33 L0 73.33 L0 71.73 L1.6 71.73 L1.6 73.33 ZM1.6 76.91 L0 76.91 L0 75.31 L1.6 75.31 L1.6 76.91 ZM1.6
						 80.39 L0 80.39 L0 78.79 L1.6 78.79 L1.6 80.39 ZM1.6 83.96 L0 83.96 L0 82.36 L1.6 82.36 L1.6 83.96 Z"
					class="st3"/>
		</g>
		<g id="shape11-26" v:mID="11" v:groupContext="shape" transform="translate(276.526,-36.0044) rotate(-0.2)">
			<title>工作表.11</title>
			<desc>肉身</desc>
			<v:textBlock v:margins="rect(0,0,0,0)" v:tabSpace="42.5197"/>
			<v:textRect cx="11.2874" cy="77.1898" width="22.58" height="13.5449"/>
			<rect x="0" y="70.4174" width="22.5748" height="13.5449" class="st1"/>
			<text x="-0" y="80.3" class="st2" v:langID="1028"><v:paragraph/><v:tabList/>肉身</text>		</g>
		<g id="shape12-29" v:mID="12" v:groupContext="shape" transform="translate(257.577,57.4089) rotate(89.8)">
			<title>工作表.12</title>
			<path d="M1.6 41.45 L0 41.45 L0 39.85 L1.6 39.85 L1.6 41.45 ZM1.6 45.02 L0 45.02 L0 43.42 L1.6 43.42 L1.6 45.02 ZM1.6
						 48.6 L0 48.6 L0 47 L1.6 47 L1.6 48.6 ZM1.6 52.08 L0 52.08 L0 50.48 L1.6 50.48 L1.6 52.08 ZM1.6 55.65 L0
						 55.65 L0 54.05 L1.6 54.05 L1.6 55.65 ZM1.6 59.13 L0 59.13 L0 57.53 L1.6 57.53 L1.6 59.13 ZM1.6 62.7 L0 62.7
						 L0 61.11 L1.6 61.11 L1.6 62.7 ZM1.6 66.28 L0 66.28 L0 64.68 L1.6 64.68 L1.6 66.28 ZM1.6 69.76 L0 69.76 L0
						 68.16 L1.6 68.16 L1.6 69.76 ZM1.6 73.33 L0 73.33 L0 71.73 L1.6 71.73 L1.6 73.33 ZM1.6 76.91 L0 76.91 L0
						 75.31 L1.6 75.31 L1.6 76.91 ZM1.6 80.39 L0 80.39 L0 78.79 L1.6 78.79 L1.6 80.39 ZM1.6 83.96 L0 83.96 L0
						 82.36 L1.6 82.36 L1.6 83.96 Z" class="st3"/>
		</g>
		<g id="shape13-31" v:mID="13" v:groupContext="shape" transform="translate(303.573,57.2484) rotate(89.8)">
			<title>工作表.13</title>
			<path d="M1.6 52.17 L0 52.17 L0 50.57 L1.6 50.57 L1.6 52.17 ZM1.6 55.74 L0 55.74 L0 54.14 L1.6 54.14 L1.6 55.74 ZM1.6
						 59.22 L0 59.22 L0 57.62 L1.6 57.62 L1.6 59.22 ZM1.6 62.8 L0 62.8 L0 61.2 L1.6 61.2 L1.6 62.8 ZM1.6 66.28
						 L0 66.28 L0 64.68 L1.6 64.68 L1.6 66.28 ZM1.6 69.85 L0 69.85 L0 68.25 L1.6 68.25 L1.6 69.85 ZM1.6 73.43
						 L0 73.43 L0 71.83 L1.6 71.83 L1.6 73.43 ZM1.6 76.91 L0 76.91 L0 75.31 L1.6 75.31 L1.6 76.91 ZM1.6 80.48
						 L0 80.48 L0 78.88 L1.6 78.88 L1.6 80.48 ZM1.6 83.96 L0 83.96 L0 82.36 L1.6 82.36 L1.6 83.96 Z" class="st3"/>
		</g>
		<g id="shape14-33" v:mID="14" v:groupContext="shape" transform="translate(254.617,-18.7551) rotate(-0.2)">
			<title>工作表.14</title>
			<desc>鈍</desc>
			<v:textBlock v:margins="rect(0,0,0,0)" v:tabSpace="42.5197"/>
			<v:textRect cx="5.64371" cy="77.1898" width="11.29" height="13.5449"/>
			<rect x="0" y="70.4174" width="11.2874" height="13.5449" class="st1"/>
			<text x="0" y="80.3" class="st2" v:langID="1028"><v:paragraph/><v:tabList/>鈍</text>		</g>
		<g id="shape15-36" v:mID="15" v:groupContext="shape" transform="translate(73.7283,-0.749488) rotate(-0.2)">
			<title>工作表.15</title>
			<desc>去跡</desc>
			<v:textBlock v:margins="rect(0,0,0,0)" v:tabSpace="42.5197"/>
			<v:textRect cx="11.2874" cy="77.1898" width="22.58" height="13.5449"/>
			<rect x="0" y="70.4174" width="22.5748" height="13.5449" class="st1"/>
			<text x="0" y="80.3" class="st2" v:langID="1028"><v:paragraph/><v:tabList/>去跡</text>		</g>
		<g id="shape16-39" v:mID="16" v:groupContext="shape" transform="translate(96.303,-0.828289) rotate(-0.2)">
			<title>工作表.16</title>
			<desc>----</desc>
			<v:textBlock v:margins="rect(0,0,0,0)" v:tabSpace="42.5197"/>
			<v:textRect cx="22.5748" cy="77.1898" width="45.15" height="13.5449"/>
			<rect x="0" y="70.4174" width="45.1496" height="13.5449" class="st1"/>
			<text x="-0" y="80.19" class="st4" v:langID="1028"><v:paragraph/><v:tabList/>----</text>		</g>
		<g id="shape17-42" v:mID="17" v:groupContext="shape" transform="translate(111.371,-0.881358) rotate(-0.2)">
			<title>工作表.17</title>
			<desc>從一佛國至佛國終不離佛</desc>
			<v:textBlock v:margins="rect(0,0,0,0)" v:tabSpace="42.5197"/>
			<v:textRect cx="62.0808" cy="77.1898" width="124.17" height="13.5449"/>
			<rect x="0" y="70.4174" width="124.162" height="13.5449" class="st1"/>
			<text x="0" y="80.3" class="st2" v:langID="1028"><v:paragraph/><v:tabList/>從一佛國至佛國終不離佛</text>		</g>
		<g id="shape29-45" v:mID="29" v:groupContext="shape" transform="translate(181.211,3.3023) rotate(89.8)">
			<title>工作表.29</title>
			<path d="M0 74.46 C0 77.1 1.64 79.26 3.77 79.26 L18.78 79.26 C20.83 79.26 22.55 81.33 22.55 83.96 C22.55 81.33 24.19
						 79.26 26.33 79.26 L41.58 79.26 C43.71 79.26 45.35 77.1 45.35 74.46 L0 74.46 Z" class="st5"/>
			<path d="M0 74.46 C0 77.1 1.64 79.26 3.77 79.26 L18.78 79.26 C20.83 79.26 22.55 81.33 22.55 83.96 C22.55 81.33 24.19
						 79.26 26.33 79.26 L41.58 79.26 C43.71 79.26 45.35 77.1 45.35 74.46" class="st6"/>
		</g>
		<g id="shape30-48" v:mID="30" v:groupContext="shape" transform="translate(244.495,34.4841) rotate(89.8)">
			<title>工作表.30</title>
			<path d="M0 75.69 C0.08 78.05 1.1 79.94 2.44 79.87 L5.35 79.79 C6.69 79.71 7.8 81.69 7.8 83.96 C7.72 81.61 8.82 79.71
						 10.08 79.71 L26.06 79.41 C27.32 79.41 28.35 77.44 28.35 75.16 L0 75.69 Z" class="st5"/>
			<path d="M0 75.69 C0.08 78.05 1.1 79.94 2.44 79.87 L5.35 79.79 C6.69 79.71 7.8 81.69 7.8 83.96 C7.72 81.61 8.82 79.71
						 10.08 79.71 L26.06 79.41 C27.32 79.41 28.35 77.44 28.35 75.16" class="st6"/>
		</g>
		<g id="shape31-51" v:mID="31" v:groupContext="shape" transform="translate(349.679,34.4791) rotate(89.8)">
			<title>工作表.31</title>
			<path d="M28.35 83.63 C28.27 81.54 27.25 79.86 25.91 79.86 L9.58 80.13 C8.24 80.13 7.15 78.44 7.15 76.36 C7.22 78.44
						 6.12 80.13 4.87 80.13 L2.36 80.19 C1.02 80.19 0 81.94 0.08 83.96 L28.35 83.63 Z" class="st5"/>
			<path d="M28.35 83.63 C28.27 81.54 27.25 79.86 25.91 79.86 L9.58 80.13 C8.24 80.13 7.15 78.44 7.15 76.36 C7.22 78.44
						 6.12 80.13 4.87 80.13 L2.36 80.19 C1.02 80.19 0 81.94 0.08 83.96" class="st6"/>
		</g>
		<g id="shape32-54" v:mID="32" v:groupContext="shape" transform="translate(148.348,20.3111) rotate(89.8)">
			<title>工作表.32</title>
			<path d="M0 75.5 C0 77.85 2.25 79.73 5.2 79.73 L18.62 79.73 C21.48 79.73 23.82 81.61 23.82 83.96 C23.82 81.61 26.16 79.73
						 29.02 79.73 L57.17 79.73 C60.02 79.73 62.36 77.85 62.36 75.5 L0 75.5 Z" class="st5"/>
			<path d="M0 75.5 C0 77.85 2.25 79.73 5.2 79.73 L18.62 79.73 C21.48 79.73 23.82 81.61 23.82 83.96 C23.82 81.61 26.16 79.73
						 29.02 79.73 L57.17 79.73 C60.02 79.73 62.36 77.85 62.36 75.5" class="st6"/>
		</g>
		<g id="shape33-57" v:mID="33" v:groupContext="shape" transform="translate(318.34,0.0596485) rotate(89.8)">
			<title>工作表.33</title>
			<path d="M42.33 83.21 C42.33 81.11 40.73 79.51 38.75 79.51 L14.2 79.85 C12.32 79.93 10.63 78.17 10.63 76.15 C10.63 78.25
						 9.12 79.93 7.15 80.02 L3.48 80.1 C1.5 80.18 0 81.86 0 83.96 L42.33 83.21 Z" class="st5"/>
			<path d="M42.33 83.21 C42.33 81.11 40.73 79.51 38.75 79.51 L14.2 79.85 C12.32 79.93 10.63 78.17 10.63 76.15 C10.63 78.25
						 9.12 79.93 7.15 80.02 L3.48 80.1 C1.5 80.18 0 81.86 0 83.96" class="st6"/>
		</g>
	</g>
</svg>
