<?xml version="1.0" encoding="UTF-8" standalone="no"?>
<!DOCTYPE svg PUBLIC "-//W3C//DTD SVG 1.1//EN" "http://www.w3.org/Graphics/SVG/1.1/DTD/svg11.dtd">
<!-- 由 Microsoft Visio, SVG Export 產生 F3702.svg 頁-1 -->
<svg xmlns="http://www.w3.org/2000/svg" xmlns:xlink="http://www.w3.org/1999/xlink" xmlns:ev="http://www.w3.org/2001/xml-events"
		xmlns:v="http://schemas.microsoft.com/visio/2003/SVGExtensions/" width="5.36166in" height="1.15127in"
		viewBox="0 0 386.04 82.8915" xml:space="preserve" color-interpolation-filters="sRGB" class="st5">
	<v:documentProperties v:langID="1028" v:viewMarkup="false"/>

	<style type="text/css">
	<![CDATA[
		.st1 {fill:none;stroke:none;stroke-linecap:butt;stroke-width:0.75}
		.st2 {fill:#000000;font-family:新細明體;font-size:0.833336em}
		.st3 {fill:none}
		.st4 {stroke:#000000;stroke-linecap:round;stroke-linejoin:round;stroke-width:0.705463}
		.st5 {fill:none;fill-rule:evenodd;font-size:12px;overflow:visible;stroke-linecap:square;stroke-miterlimit:3}
	]]>
	</style>

	<g v:mID="0" v:index="1" v:groupContext="foregroundPage">
		<title>頁-1</title>
		<v:pageProperties v:drawingScale="0.0393701" v:pageScale="0.0393701" v:drawingUnits="24" v:shadowOffsetX="9"
				v:shadowOffsetY="-9"/>
		<g id="shape2-1" v:mID="2" v:groupContext="shape" transform="translate(0.507935,-67.4733) rotate(-0.2)">
			<title>工作表.2</title>
			<v:textBlock v:margins="rect(0,0,0,0)"/>
			<rect x="0" y="69.3466" width="197.53" height="13.5449" class="st1"/>
		</g>
		<g id="shape3-3" v:mID="3" v:groupContext="shape" transform="translate(115.856,-67.9264) rotate(-0.2)">
			<title>工作表.3</title>
			<desc>得四禪等不生三界常生有益眾生處</desc>
			<v:textBlock v:margins="rect(0,0,0,0)" v:tabSpace="42.5197"/>
			<v:textRect cx="95.943" cy="76.119" width="191.89" height="13.5449"/>
			<rect x="0" y="69.3466" width="191.886" height="13.5449" class="st1"/>
			<text x="-0" y="79.23" class="st2" v:langID="1028"><v:paragraph/><v:tabList/>得四禪等，不生三界，常生有益眾生處</text>		</g>
		<g id="shape4-6" v:mID="4" v:groupContext="shape" transform="translate(188.34,3.6146) rotate(89.8)">
			<title>工作表.4</title>
			<path d="M0 74.43 C0 76.78 2.74 78.66 6.05 78.66 L30.24 78.66 C33.54 78.66 36.28 80.54 36.28 82.89 C36.28 80.54 39.02
						 78.66 42.33 78.66 L66.52 78.66 C69.83 78.66 72.57 76.78 72.57 74.43 L0 74.43 Z" class="st3"/>
			<path d="M0 74.43 C0 76.78 2.74 78.66 6.05 78.66 L30.24 78.66 C33.54 78.66 36.28 80.54 36.28 82.89 C36.28 80.54 39.02
						 78.66 42.33 78.66 L66.52 78.66 C69.83 78.66 72.57 76.78 72.57 74.43" class="st4"/>
		</g>
		<g id="shape5-9" v:mID="5" v:groupContext="shape" transform="translate(2.20488,-51.5425) rotate(-0.2)">
			<title>工作表.5</title>
			<v:textBlock v:margins="rect(0,0,0,0)"/>
			<rect x="0" y="69.3466" width="197.53" height="13.5449" class="st1"/>
		</g>
		<g id="shape6-11" v:mID="6" v:groupContext="shape" transform="translate(117.553,-51.0293) rotate(-0.2)">
			<title>工作表.6</title>
			<desc>行六度入菩薩位得不退</desc>
			<v:textBlock v:margins="rect(0,0,0,0)" v:tabSpace="42.5197"/>
			<v:textRect cx="67.7245" cy="76.119" width="135.45" height="13.5449"/>
			<rect x="0" y="69.3466" width="135.449" height="13.5449" class="st1"/>
			<text x="0" y="79.23" class="st2" v:langID="1028"><v:paragraph/><v:tabList/>行六度，入菩薩位，得不退</text>		</g>
		<g id="shape7-14" v:mID="7" v:groupContext="shape" transform="translate(260.758,-52.5472) rotate(-0.2)">
			<title>工作表.7</title>
			<desc>即時得</desc>
			<v:textBlock v:margins="rect(0,0,0,0)" v:tabSpace="42.5197"/>
			<v:textRect cx="16.9311" cy="76.119" width="33.87" height="13.5449"/>
			<rect x="0" y="69.3466" width="33.8622" height="13.5449" class="st1"/>
			<text x="0" y="79.23" class="st2" v:langID="1028"><v:paragraph/><v:tabList/>即時得</text>		</g>
		<g id="shape8-17" v:mID="8" v:groupContext="shape" transform="translate(2.26398,-34.6115) rotate(-0.2)">
			<title>工作表.8</title>
			<desc>菩薩初發意時四人</desc>
			<v:textBlock v:margins="rect(0,0,0,0)" v:tabSpace="42.5197"/>
			<v:textRect cx="56.4371" cy="76.119" width="112.88" height="13.5449"/>
			<rect x="0" y="69.3466" width="112.874" height="13.5449" class="st1"/>
			<text x="0" y="79.23" class="st2" v:langID="1028"><v:paragraph/><v:tabList/>菩薩初發意時（四人）</text>		</g>
		<g id="shape9-20" v:mID="9" v:groupContext="shape" transform="translate(100.681,-35.0055) rotate(-0.2)">
			<title>工作表.9</title>
			<v:textBlock v:margins="rect(0,0,0,0)"/>
			<rect x="0" y="69.3466" width="234.214" height="13.5449" class="st1"/>
		</g>
		<g id="shape10-22" v:mID="10" v:groupContext="shape" transform="translate(259.738,-35.9197) rotate(-0.2)">
			<title>工作表.10</title>
			<desc>小住後得論義</desc>
			<v:textBlock v:margins="rect(0,0,0,0)" v:tabSpace="42.5197"/>
			<v:textRect cx="45.1496" cy="76.119" width="90.3" height="13.5449"/>
			<rect x="0" y="69.3466" width="90.2993" height="13.5449" class="st1"/>
			<text x="0" y="79.23" class="st2" v:langID="1028"><v:paragraph/><v:tabList/>小住後得（論義）</text>		</g>
		<g id="shape11-25" v:mID="11" v:groupContext="shape" transform="translate(2.32308,-17.6805) rotate(-0.2)">
			<title>工作表.11</title>
			<v:textBlock v:margins="rect(0,0,0,0)"/>
			<rect x="0" y="69.3466" width="222.926" height="13.5449" class="st1"/>
		</g>
		<g id="shape12-27" v:mID="12" v:groupContext="shape" transform="translate(117.671,-20.7106) rotate(-0.2)">
			<title>工作表.12</title>
			<desc>便得無上菩提轉法輪大利眾生</desc>
			<v:textBlock v:margins="rect(0,0,0,0)" v:tabSpace="42.5197"/>
			<v:textRect cx="84.6556" cy="76.119" width="169.32" height="13.5449"/>
			<rect x="0" y="69.3466" width="169.311" height="13.5449" class="st1"/>
			<text x="0" y="79.23" class="st2" v:langID="1028"><v:paragraph/><v:tabList/>便得無上菩提，轉法輪，大利眾生</text>		</g>
		<g id="shape13-30" v:mID="13" v:groupContext="shape" transform="translate(2.38218,-0.749495) rotate(-0.2)">
			<title>工作表.13</title>
			<v:textBlock v:margins="rect(0,0,0,0)"/>
			<rect x="0" y="69.3466" width="197.53" height="13.5449" class="st1"/>
		</g>
		<g id="shape14-32" v:mID="14" v:groupContext="shape" transform="translate(117.73,-3.77955) rotate(-0.2)">
			<title>工作表.14</title>
			<desc>般若相應得六神通論義與諸菩薩遊諸佛國淨佛世界</desc>
			<v:textBlock v:margins="rect(0,0,0,0)" v:tabSpace="42.5197"/>
			<v:textRect cx="133.636" cy="76.119" width="267.28" height="13.5449"/>
			<rect x="0" y="69.3466" width="267.272" height="13.5449" class="st1"/>
			<text x="0" y="79.23" class="st2" v:langID="1028"><v:paragraph/><v:tabList/>般若相應（得六神通，論義）與諸菩薩，遊諸佛國淨佛世界</text>		</g>
		<g id="shape26-35" v:mID="26" v:groupContext="shape" transform="translate(241.63,-59.2346) rotate(-0.2)">
			<title>工作表.26</title>
			<path d="M0 82.89 L16.93 82.89" class="st4"/>
		</g>
		<g id="shape27-38" v:mID="27" v:groupContext="shape" transform="translate(300.327,-35.161) rotate(44.8)">
			<title>工作表.27</title>
			<path d="M0 82.89 L23.94 82.89" class="st4"/>
		</g>
	</g>
</svg>
