<?xml version="1.0" encoding="UTF-8" standalone="no"?>
<!DOCTYPE svg PUBLIC "-//W3C//DTD SVG 1.1//EN" "http://www.w3.org/Graphics/SVG/1.1/DTD/svg11.dtd">
<!-- 由 Microsoft Visio, SVG Export 產生 F3703.svg 頁-1 -->
<svg xmlns="http://www.w3.org/2000/svg" xmlns:xlink="http://www.w3.org/1999/xlink" xmlns:ev="http://www.w3.org/2001/xml-events"
		xmlns:v="http://schemas.microsoft.com/visio/2003/SVGExtensions/" width="6.22027in" height="1.39266in"
		viewBox="0 0 447.86 100.271" xml:space="preserve" color-interpolation-filters="sRGB" class="st6">
	<v:documentProperties v:langID="1028" v:viewMarkup="false"/>

	<style type="text/css">
	<![CDATA[
		.st1 {fill:none;stroke:none;stroke-linecap:butt;stroke-width:0.75}
		.st2 {fill:#000000;font-family:新細明體;font-size:0.833336em}
		.st3 {fill:#000000;font-family:Times New Roman;font-size:0.833336em}
		.st4 {fill:none}
		.st5 {stroke:#000000;stroke-linecap:round;stroke-linejoin:round;stroke-width:0.705463}
		.st6 {fill:none;fill-rule:evenodd;font-size:12px;overflow:visible;stroke-linecap:square;stroke-miterlimit:3}
	]]>
	</style>

	<g v:mID="0" v:index="1" v:groupContext="foregroundPage">
		<title>頁-1</title>
		<v:pageProperties v:drawingScale="0.0393701" v:pageScale="0.0393701" v:drawingUnits="24" v:shadowOffsetX="9"
				v:shadowOffsetY="-9"/>
		<g id="shape1-1" v:mID="1" v:groupContext="shape" transform="translate(55.1201,-84.6952) rotate(-0.2)">
			<title>工作表.1</title>
			<desc>乘羊</desc>
			<v:textBlock v:margins="rect(0,0,0,0)" v:tabSpace="42.5197"/>
			<v:textRect cx="11.2874" cy="93.4987" width="22.58" height="13.5449"/>
			<rect x="0" y="86.7263" width="22.5748" height="13.5449" class="st1"/>
			<text x="0" y="96.61" class="st2" v:langID="1028"><v:paragraph/><v:tabList/>乘羊</text>		</g>
		<g id="shape2-4" v:mID="2" v:groupContext="shape" transform="translate(77.6948,-84.774) rotate(-0.2)">
			<title>工作表.2</title>
			<desc>—</desc>
			<v:textBlock v:margins="rect(0,0,0,0)" v:tabSpace="42.5197"/>
			<v:textRect cx="5.64371" cy="93.4987" width="11.29" height="13.5449"/>
			<rect x="0" y="86.7263" width="11.2874" height="13.5449" class="st1"/>
			<text x="0" y="96.5" class="st3" v:langID="1028"><v:paragraph/><v:tabList/>—</text>		</g>
		<g id="shape3-7" v:mID="3" v:groupContext="shape" transform="translate(99.9408,-84.8331) rotate(-0.2)">
			<title>工作表.3</title>
			<desc>初心好而後雜惡著我</desc>
			<v:textBlock v:margins="rect(0,0,0,0)" v:tabSpace="42.5197"/>
			<v:textRect cx="50.7933" cy="93.4987" width="101.59" height="13.5449"/>
			<rect x="0" y="86.7263" width="101.587" height="13.5449" class="st1"/>
			<text x="0" y="96.61" class="st2" v:langID="1028"><v:paragraph/><v:tabList/>初心好而後雜惡著我</text>		</g>
		<g id="shape4-10" v:mID="4" v:groupContext="shape" transform="translate(201.527,-85.1878) rotate(-0.2)">
			<title>工作表.4</title>
			<desc>—</desc>
			<v:textBlock v:margins="rect(0,0,0,0)" v:tabSpace="42.5197"/>
			<v:textRect cx="5.64371" cy="93.4987" width="11.29" height="13.5449"/>
			<rect x="0" y="86.7263" width="11.2874" height="13.5449" class="st1"/>
			<text x="-0" y="96.5" class="st3" v:langID="1028"><v:paragraph/><v:tabList/>—</text>		</g>
		<g id="shape5-13" v:mID="5" v:groupContext="shape" transform="translate(212.814,-85.2272) rotate(-0.2)">
			<title>工作表.5</title>
			<desc>久久無量阿僧衹劫或至或不至罪多福少</desc>
			<v:textBlock v:margins="rect(0,0,0,0)" v:tabSpace="42.5197"/>
			<v:textRect cx="107.23" cy="93.4987" width="214.47" height="13.5449"/>
			<rect x="0" y="86.7263" width="214.461" height="13.5449" class="st1"/>
			<text x="-0" y="96.61" class="st2" v:langID="1028"><v:paragraph/><v:tabList/>久久無量阿僧衹劫或至或不至（罪多福少）</text>		</g>
		<g id="shape6-16" v:mID="6" v:groupContext="shape" transform="translate(0.447269,-67.5278) rotate(-0.2)">
			<title>工作表.6</title>
			<v:textBlock v:margins="rect(0,0,0,0)"/>
			<rect x="0" y="86.7263" width="141.093" height="13.5449" class="st1"/>
		</g>
		<g id="shape7-18" v:mID="7" v:groupContext="shape" transform="translate(99.9999,-67.9021) rotate(-0.2)">
			<title>工作表.7</title>
			<desc>先世福德因緣薄鈍根</desc>
			<v:textBlock v:margins="rect(0,0,0,0)" v:tabSpace="42.5197"/>
			<v:textRect cx="56.4371" cy="93.4987" width="112.88" height="13.5449"/>
			<rect x="0" y="86.7263" width="112.874" height="13.5449" class="st1"/>
			<text x="-0" y="96.61" class="st2" v:langID="1028"><v:paragraph/><v:tabList/>先世福德因緣薄，鈍根</text>		</g>
		<g id="shape9-21" v:mID="9" v:groupContext="shape" transform="translate(424.185,-69.1043) rotate(-0.2)">
			<title>工作表.9</title>
			<desc>鈍根</desc>
			<v:textBlock v:margins="rect(0,0,0,0)" v:tabSpace="42.5197"/>
			<v:textRect cx="11.2874" cy="93.4987" width="22.58" height="13.5449"/>
			<rect x="0" y="86.7263" width="22.5748" height="13.5449" class="st1"/>
			<text x="-0" y="96.61" class="st2" v:langID="1028"><v:paragraph/><v:tabList/>鈍根</text>		</g>
		<g id="shape10-24" v:mID="10" v:groupContext="shape" transform="translate(0.506369,-50.5968) rotate(-0.2)">
			<title>工作表.10</title>
			<desc>三種發心</desc>
			<v:textBlock v:margins="rect(0,0,0,0)" v:tabSpace="42.5197"/>
			<v:textRect cx="22.5748" cy="93.4987" width="45.15" height="13.5449"/>
			<rect x="0" y="86.7263" width="45.1496" height="13.5449" class="st1"/>
			<text x="0" y="96.61" class="st2" v:langID="1028"><v:paragraph/><v:tabList/>三種發心</text>		</g>
		<g id="shape11-27" v:mID="11" v:groupContext="shape" transform="translate(55.2383,-50.8332) rotate(-0.2)">
			<title>工作表.11</title>
			<desc>乘馬</desc>
			<v:textBlock v:margins="rect(0,0,0,0)" v:tabSpace="42.5197"/>
			<v:textRect cx="11.2874" cy="93.4987" width="22.58" height="13.5449"/>
			<rect x="0" y="86.7263" width="22.5748" height="13.5449" class="st1"/>
			<text x="-0" y="96.61" class="st2" v:langID="1028"><v:paragraph/><v:tabList/>乘馬</text>		</g>
		<g id="shape12-30" v:mID="12" v:groupContext="shape" transform="translate(77.813,-50.912) rotate(-0.2)">
			<title>工作表.12</title>
			<desc>—</desc>
			<v:textBlock v:margins="rect(0,0,0,0)" v:tabSpace="42.5197"/>
			<v:textRect cx="5.64371" cy="93.4987" width="11.29" height="13.5449"/>
			<rect x="0" y="86.7263" width="11.2874" height="13.5449" class="st1"/>
			<text x="0" y="96.5" class="st3" v:langID="1028"><v:paragraph/><v:tabList/>—</text>		</g>
		<g id="shape13-33" v:mID="13" v:groupContext="shape" transform="translate(94.744,-50.9711) rotate(-0.2)">
			<title>工作表.13</title>
			<desc>發心行六度</desc>
			<v:textBlock v:margins="rect(0,0,0,0)" v:tabSpace="42.5197"/>
			<v:textRect cx="28.2185" cy="93.4987" width="56.44" height="13.5449"/>
			<rect x="0" y="86.7263" width="56.4371" height="13.5449" class="st1"/>
			<text x="0" y="96.61" class="st2" v:langID="1028"><v:paragraph/><v:tabList/>發心行六度</text>		</g>
		<g id="shape14-36" v:mID="14" v:groupContext="shape" transform="translate(151.181,-51.1681) rotate(-0.2)">
			<title>工作表.14</title>
			<desc>————</desc>
			<v:textBlock v:margins="rect(0,0,0,0)" v:tabSpace="42.5197"/>
			<v:textRect cx="22.5748" cy="93.4987" width="45.15" height="13.5449"/>
			<rect x="0" y="86.7263" width="45.1496" height="13.5449" class="st1"/>
			<text x="-0" y="96.5" class="st3" v:langID="1028"><v:paragraph/><v:tabList/>————</text>		</g>
		<g id="shape15-39" v:mID="15" v:groupContext="shape" transform="translate(196.33,-51.3257) rotate(-0.2)">
			<title>工作表.15</title>
			<desc>若三乃至百阿僧衹劫得無上覺罪少福多</desc>
			<v:textBlock v:margins="rect(0,0,0,0)" v:tabSpace="42.5197"/>
			<v:textRect cx="107.23" cy="93.4987" width="214.47" height="13.5449"/>
			<rect x="0" y="86.7263" width="214.461" height="13.5449" class="st1"/>
			<text x="0" y="96.61" class="st2" v:langID="1028"><v:paragraph/><v:tabList/>若三乃至百阿僧衹劫得無上覺（罪少福多）</text>		</g>
		<g id="shape16-42" v:mID="16" v:groupContext="shape" transform="translate(237.8,-34.6114) rotate(-0.2)">
			<title>工作表.16</title>
			<desc>發心即得菩薩道</desc>
			<v:textBlock v:margins="rect(0,0,0,0)" v:tabSpace="42.5197"/>
			<v:textRect cx="39.5059" cy="93.4987" width="79.02" height="13.5449"/>
			<rect x="0" y="86.7263" width="79.0119" height="13.5449" class="st1"/>
			<text x="-0" y="96.61" class="st2" v:langID="1028"><v:paragraph/><v:tabList/>發心即得菩薩道</text>		</g>
		<g id="shape17-45" v:mID="17" v:groupContext="shape" transform="translate(55.3565,-16.9712) rotate(-0.2)">
			<title>工作表.17</title>
			<desc>乘神通</desc>
			<v:textBlock v:margins="rect(0,0,0,0)" v:tabSpace="42.5197"/>
			<v:textRect cx="16.9311" cy="93.4987" width="33.87" height="13.5449"/>
			<rect x="0" y="86.7263" width="33.8622" height="13.5449" class="st1"/>
			<text x="0" y="96.61" class="st2" v:langID="1028"><v:paragraph/><v:tabList/>乘神通</text>		</g>
		<g id="shape18-48" v:mID="18" v:groupContext="shape" transform="translate(89.2185,-17.0894) rotate(-0.2)">
			<title>工作表.18</title>
			<desc>—</desc>
			<v:textBlock v:margins="rect(0,0,0,0)" v:tabSpace="42.5197"/>
			<v:textRect cx="5.64371" cy="93.4987" width="11.29" height="13.5449"/>
			<rect x="0" y="86.7263" width="11.2874" height="13.5449" class="st1"/>
			<text x="0" y="96.5" class="st3" v:langID="1028"><v:paragraph/><v:tabList/>—</text>		</g>
		<g id="shape19-51" v:mID="19" v:groupContext="shape" transform="translate(100.506,-17.1288) rotate(-0.2)">
			<title>工作表.19</title>
			<desc>先集無量福德、利根、心堅</desc>
			<v:textBlock v:margins="rect(0,0,0,0)" v:tabSpace="42.5197"/>
			<v:textRect cx="67.7245" cy="93.4987" width="135.45" height="13.5449"/>
			<rect x="0" y="86.7263" width="135.449" height="13.5449" class="st1"/>
			<text x="0" y="96.61" class="st2" v:langID="1028"><v:paragraph/><v:tabList/>先集無量福德、利根、心堅</text>		</g>
		<g id="shape20-54" v:mID="20" v:groupContext="shape" transform="translate(237.859,-17.6804) rotate(-0.2)">
			<title>工作表.20</title>
			<desc>發心即成佛</desc>
			<v:textBlock v:margins="rect(0,0,0,0)" v:tabSpace="42.5197"/>
			<v:textRect cx="28.2185" cy="93.4987" width="56.44" height="13.5449"/>
			<rect x="0" y="86.7263" width="56.4371" height="13.5449" class="st1"/>
			<text x="-0" y="96.61" class="st2" v:langID="1028"><v:paragraph/><v:tabList/>發心即成佛</text>		</g>
		<g id="shape21-57" v:mID="21" v:groupContext="shape" transform="translate(294.296,-17.8774) rotate(-0.2)">
			<title>工作表.21</title>
			<v:textBlock v:margins="rect(0,0,0,0)"/>
			<rect x="0" y="86.7263" width="63.962" height="13.5449" class="st1"/>
		</g>
		<g id="shape22-59" v:mID="22" v:groupContext="shape" transform="translate(360.906,-18.1537) rotate(-0.2)">
			<title>工作表.22</title>
			<desc>清淨福德</desc>
			<v:textBlock v:margins="rect(0,0,0,0)" v:tabSpace="42.5197"/>
			<v:textRect cx="33.8622" cy="93.4987" width="67.73" height="13.5449"/>
			<rect x="0" y="86.7263" width="67.7245" height="13.5449" class="st1"/>
			<text x="0" y="96.61" class="st2" v:langID="1028"><v:paragraph/><v:tabList/>（清淨福德）</text>		</g>
		<g id="shape23-62" v:mID="23" v:groupContext="shape" transform="translate(237.918,-0.749389) rotate(-0.2)">
			<title>工作表.23</title>
			<desc>發心得六神通觀諸淨土</desc>
			<v:textBlock v:margins="rect(0,0,0,0)" v:tabSpace="42.5197"/>
			<v:textRect cx="62.0808" cy="93.4987" width="124.17" height="13.5449"/>
			<rect x="0" y="86.7263" width="124.162" height="13.5449" class="st1"/>
			<text x="0" y="96.61" class="st2" v:langID="1028"><v:paragraph/><v:tabList/>發心得六神通，觀諸淨土</text>		</g>
		<g id="shape33-65" v:mID="33" v:groupContext="shape" transform="translate(144.762,0.0583107) rotate(89.8)">
			<title>工作表.33</title>
			<path d="M0 91.81 C0 94.16 3.2 96.04 7.05 96.04 L35.27 96.04 C39.13 96.04 42.33 97.92 42.33 100.27 C42.33 97.92 45.53
						 96.04 49.38 96.04 L77.6 96.04 C81.46 96.04 84.66 94.16 84.66 91.81 L0 91.81 Z" class="st4"/>
			<path d="M0 91.81 C0 94.16 3.2 96.04 7.05 96.04 L35.27 96.04 C39.13 96.04 42.33 97.92 42.33 100.27 C42.33 97.92 45.53
						 96.04 49.38 96.04 L77.6 96.04 C81.46 96.04 84.66 94.16 84.66 91.81" class="st5"/>
		</g>
		<g id="shape34-68" v:mID="34" v:groupContext="shape" transform="translate(326.161,52.91) rotate(89.8)">
			<title>工作表.34</title>
			<path d="M0 91.81 C0 94.16 1.68 96.04 3.78 96.04 L18.9 96.04 C21 96.04 22.68 97.92 22.68 100.27 C22.68 97.92 24.36 96.04
						 26.46 96.04 L41.57 96.04 C43.67 96.04 45.35 94.16 45.35 91.81 L0 91.81 Z" class="st4"/>
			<path d="M0 91.81 C0 94.16 1.68 96.04 3.78 96.04 L18.9 96.04 C21 96.04 22.68 97.92 22.68 100.27 C22.68 97.92 24.36 96.04
						 26.46 96.04 L41.57 96.04 C43.67 96.04 45.35 94.16 45.35 91.81" class="st5"/>
		</g>
		<g id="shape35-71" v:mID="35" v:groupContext="shape" transform="translate(451.769,52.9069) rotate(89.8)">
			<title>工作表.35</title>
			<path d="M0 100.27 C0 97.92 1.68 96.04 3.78 96.04 L18.9 96.04 C21 96.04 22.68 94.16 22.68 91.81 C22.68 94.16 24.36 96.04
						 26.46 96.04 L41.57 96.04 C43.67 96.04 45.35 97.92 45.35 100.27 L0 100.27 Z" class="st4"/>
			<path d="M0 100.27 C0 97.92 1.68 96.04 3.78 96.04 L18.9 96.04 C21 96.04 22.68 94.16 22.68 91.81 C22.68 94.16 24.36 96.04
						 26.46 96.04 L41.57 96.04 C43.67 96.04 45.35 97.92 45.35 100.27" class="st5"/>
		</g>
		<g id="shape36-74" v:mID="36" v:groupContext="shape" transform="translate(475.344,-63.5989) rotate(44.8)">
			<title>工作表.36</title>
			<path d="M0 100.27 L23.94 100.27" class="st5"/>
		</g>
		<g id="shape37-77" v:mID="37" v:groupContext="shape" transform="translate(333.658,-29.2418) rotate(-45.2)">
			<title>工作表.37</title>
			<path d="M0 100.27 L23.94 100.27" class="st5"/>
		</g>
		<g id="shape38-80" v:mID="38" v:groupContext="shape" transform="translate(189.545,1.29849) rotate(89.8)">
			<title>工作表.38</title>
			<path d="M0 91.81 C0 94.16 1.03 96.04 2.45 96.04 L5.27 96.04 C6.68 96.04 7.71 97.92 7.71 100.27 C7.71 97.92 8.84 96.04
						 10.16 96.04 L27.09 96.04 C28.41 96.04 29.54 94.16 29.54 91.81 L0 91.81 Z" class="st4"/>
			<path d="M0 91.81 C0 94.16 1.03 96.04 2.45 96.04 L5.27 96.04 C6.68 96.04 7.71 97.92 7.71 100.27 C7.71 97.92 8.84 96.04
						 10.16 96.04 L27.09 96.04 C28.41 96.04 29.54 94.16 29.54 91.81" class="st5"/>
		</g>
	</g>
</svg>
