<?xml version="1.0" encoding="UTF-8" standalone="no"?>
<!DOCTYPE svg PUBLIC "-//W3C//DTD SVG 1.1//EN" "http://www.w3.org/Graphics/SVG/1.1/DTD/svg11.dtd">
<!-- 由 Microsoft Visio, SVG Export 產生 M038.036=F03603.svg 頁-1 -->
<svg xmlns="http://www.w3.org/2000/svg" xmlns:xlink="http://www.w3.org/1999/xlink" xmlns:ev="http://www.w3.org/2001/xml-events"
		xmlns:v="http://schemas.microsoft.com/visio/2003/SVGExtensions/" width="4.93493in" height="1.62206in"
		viewBox="0 0 355.315 116.788" xml:space="preserve" color-interpolation-filters="sRGB" class="st8">
	<v:documentProperties v:langID="1028" v:viewMarkup="false"/>

	<style type="text/css">
	<![CDATA[
		.st1 {fill:none;stroke:none;stroke-linecap:butt;stroke-width:0.75}
		.st2 {fill:#000000;font-family:新細明體;font-size:0.833336em}
		.st3 {font-family:Times New Roman;font-size:1em}
		.st4 {fill:#000000;font-family:Times New Roman;font-size:0.833336em}
		.st5 {fill:#0000ff;font-family:新細明體;font-size:0.833336em}
		.st6 {fill:none}
		.st7 {stroke:#000000;stroke-linecap:round;stroke-linejoin:round;stroke-width:0.705463}
		.st8 {fill:none;fill-rule:evenodd;font-size:12px;overflow:visible;stroke-linecap:square;stroke-miterlimit:3}
	]]>
	</style>

	<g v:mID="0" v:index="1" v:groupContext="foregroundPage">
		<title>頁-1</title>
		<v:pageProperties v:drawingScale="0.0393701" v:pageScale="0.0393701" v:drawingUnits="24" v:shadowOffsetX="9"
				v:shadowOffsetY="-9"/>
		<g id="shape2-1" v:mID="2" v:groupContext="shape" transform="translate(89.6723,-102.178) rotate(-0.2)">
			<title>工作表.2</title>
			<desc>無方便</desc>
			<v:textBlock v:margins="rect(0,0,0,0)" v:tabSpace="42.5197"/>
			<v:textRect cx="16.9311" cy="110.016" width="33.87" height="13.5449"/>
			<rect x="0" y="103.244" width="33.8622" height="13.5449" class="st1"/>
			<text x="0" y="113.13" class="st2" v:langID="1028"><v:paragraph/><v:tabList/>無方便</text>		</g>
		<g id="shape3-4" v:mID="3" v:groupContext="shape" transform="translate(136.566,-102.335) rotate(-0.2)">
			<title>工作表.3</title>
			<desc>味著生天</desc>
			<v:textBlock v:margins="rect(0,0,0,0)" v:tabSpace="42.5197"/>
			<v:textRect cx="22.5748" cy="110.016" width="45.15" height="13.5449"/>
			<rect x="0" y="103.244" width="45.1496" height="13.5449" class="st1"/>
			<text x="0" y="113.13" class="st2" v:langID="1028"><v:paragraph/><v:tabList/>味著生天</text>		</g>
		<g id="shape5-7" v:mID="5" v:groupContext="shape" transform="translate(136.625,-85.4044) rotate(-0.2)">
			<title>工作表.5</title>
			<desc>起不善心生欲界</desc>
			<v:textBlock v:margins="rect(0,0,0,0)" v:tabSpace="42.5197"/>
			<v:textRect cx="39.5059" cy="110.016" width="79.02" height="13.5449"/>
			<rect x="0" y="103.244" width="79.0119" height="13.5449" class="st1"/>
			<text x="0" y="113.13" class="st2" v:langID="1028"><v:paragraph/><v:tabList/>起不善心生欲界</text>		</g>
		<g id="shape6-10" v:mID="6" v:groupContext="shape" transform="translate(0.389613,-67.9808) rotate(-0.2)">
			<title>工作表.6</title>
			<desc>菩薩行禪七人</desc>
			<v:textBlock v:margins="rect(0,0,0,0)" v:tabSpace="42.5197"/>
			<v:textRect cx="45.1496" cy="110.016" width="90.3" height="13.5449"/>
			<rect x="0" y="103.244" width="90.2993" height="13.5449" class="st1"/>
			<text x="0" y="113.13" class="st2" v:langID="1028"><v:paragraph/><v:tabList/>菩薩行禪（七人）</text>		</g>
		<g id="shape7-13" v:mID="7" v:groupContext="shape" transform="translate(136.684,-68.4733) rotate(-0.2)">
			<title>工作表.7</title>
			<desc>起悲心捨禪味生欲界結業身三大家2</desc>
			<v:textBlock v:margins="rect(0,0,0,0)" v:tabSpace="42.5197"/>
			<v:textRect cx="103.491" cy="110.016" width="206.99" height="13.5449"/>
			<rect x="0" y="103.244" width="206.982" height="13.5449" class="st1"/>
			<text x="0" y="113.13" class="st2" v:langID="1028"><v:paragraph/><v:tabList/>起悲心，捨禪味生欲界（結業身）三大家（<tspan class="st3">2</tspan>）</text>		</g>
		<g id="shape11-17" v:mID="11" v:groupContext="shape" transform="translate(136.743,-51.5423) rotate(-0.2)">
			<title>工作表.11</title>
			<desc>生有佛處</desc>
			<v:textBlock v:margins="rect(0,0,0,0)" v:tabSpace="42.5197"/>
			<v:textRect cx="22.5748" cy="110.016" width="45.15" height="13.5449"/>
			<rect x="0" y="103.244" width="45.1496" height="13.5449" class="st1"/>
			<text x="0" y="113.13" class="st2" v:langID="1028"><v:paragraph/><v:tabList/>生有佛處</text>		</g>
		<g id="shape12-20" v:mID="12" v:groupContext="shape" transform="translate(181.893,-51.6999) rotate(-0.2)">
			<title>工作表.12</title>
			<desc>----</desc>
			<v:textBlock v:margins="rect(0,0,0,0)" v:tabSpace="42.5197"/>
			<v:textRect cx="22.5748" cy="110.016" width="45.15" height="13.5449"/>
			<rect x="0" y="103.244" width="45.1496" height="13.5449" class="st1"/>
			<text x="0" y="113.02" class="st4" v:langID="1028"><v:paragraph/><v:tabList/>----</text>		</g>
		<g id="shape13-23" v:mID="13" v:groupContext="shape" transform="translate(196.961,-51.7529) rotate(-0.2)">
			<title>工作表.13</title>
			<desc>賢劫中當得1</desc>
			<v:textBlock v:margins="rect(0,0,0,0)" v:tabSpace="42.5197"/>
			<v:textRect cx="48.5494" cy="110.016" width="97.1" height="13.5449"/>
			<rect x="0" y="103.244" width="97.0989" height="13.5449" class="st1"/>
			<text x="-0" y="113.13" class="st2" v:langID="1028"><v:paragraph/><v:tabList/>（賢劫中當得）（<tspan class="st3">1</tspan>）</text>		</g>
		<g id="shape15-27" v:mID="15" v:groupContext="shape" transform="translate(89.9087,-34.4537) rotate(-0.2)">
			<title>工作表.15</title>
			<desc>有方便</desc>
			<v:textBlock v:margins="rect(0,0,0,0)" v:tabSpace="42.5197"/>
			<v:textRect cx="16.9311" cy="110.016" width="33.87" height="13.5449"/>
			<rect x="0" y="103.244" width="33.8622" height="13.5449" class="st1"/>
			<text x="0" y="113.13" class="st2" v:langID="1028"><v:paragraph/><v:tabList/>有方便</text>		</g>
		<g id="shape16-30" v:mID="16" v:groupContext="shape" transform="translate(136.802,-34.6113) rotate(-0.2)">
			<title>工作表.16</title>
			<desc>生六欲天成就眾生淨佛世界3</desc>
			<v:textBlock v:margins="rect(0,0,0,0)" v:tabSpace="42.5197"/>
			<v:textRect cx="73.3682" cy="110.016" width="146.74" height="13.5449"/>
			<rect x="0" y="103.244" width="146.736" height="13.5449" class="st1"/>
			<text x="0" y="113.13" class="st2" v:langID="1028"><v:paragraph/><v:tabList/>生六欲天成就眾生淨佛世界（<tspan class="st3">3</tspan>）</text>		</g>
		<g id="shape20-34" v:mID="20" v:groupContext="shape" transform="translate(136.862,-17.6803) rotate(-0.2)">
			<title>工作表.20</title>
			<desc>作梵天王尋佛請轉法輪4</desc>
			<v:textBlock v:margins="rect(0,0,0,0)" v:tabSpace="42.5197"/>
			<v:textRect cx="69.2423" cy="110.016" width="138.49" height="13.5449"/>
			<rect x="0" y="103.244" width="138.485" height="13.5449" class="st1"/>
			<text x="0" y="113.13" class="st2" v:langID="1028"><v:paragraph/><v:tabList/>作梵天王，尋佛請轉法輪（<tspan class="st3">4</tspan>）</text>		</g>
		<g id="shape25-38" v:mID="25" v:groupContext="shape" transform="translate(136.921,-0.749288) rotate(-0.2)">
			<title>工作表.25</title>
			<desc>生兜率壽終百千萬億</desc>
			<v:textBlock v:margins="rect(0,0,0,0)" v:tabSpace="42.5197"/>
			<v:textRect cx="50.7933" cy="110.016" width="101.59" height="13.5449"/>
			<rect x="0" y="103.244" width="101.587" height="13.5449" class="st1"/>
			<text x="0" y="113.13" class="st2" v:langID="1028"><v:paragraph/><v:tabList/>生兜率壽終百千萬億</text>		</g>
		<g id="shape26-41" v:mID="26" v:groupContext="shape" transform="translate(227.168,-1.10389) rotate(-0.2)">
			<title>工作表.26</title>
			<desc>〔諸天〕</desc>
			<v:textBlock v:margins="rect(0,0,0,0)" v:tabSpace="42.5197"/>
			<v:textRect cx="22.5748" cy="110.016" width="45.15" height="13.5449"/>
			<rect x="0" y="103.244" width="45.1496" height="13.5449" class="st1"/>
			<text x="-0" y="113.13" class="st5" v:langID="1028"><v:paragraph/><v:tabList/>〔諸天〕</text>		</g>
		<g id="shape27-44" v:mID="27" v:groupContext="shape" transform="translate(267.084,-1.26149) rotate(-0.2)">
			<title>工作表.27</title>
			<desc>圍繞來此成佛5</desc>
			<v:textBlock v:margins="rect(0,0,0,0)" v:tabSpace="42.5197"/>
			<v:textRect cx="43.5366" cy="110.016" width="87.08" height="13.5449"/>
			<rect x="0" y="103.244" width="87.0731" height="13.5449" class="st1"/>
			<text x="0" y="113.13" class="st2" v:langID="1028"><v:paragraph/><v:tabList/>圍繞來此成佛（<tspan class="st3">5</tspan>）</text>		</g>
		<g id="shape43-48" v:mID="43" v:groupContext="shape" transform="translate(242.203,34.7209) rotate(89.8)">
			<title>工作表.43</title>
			<path d="M0 108.32 C0 110.67 2.87 112.56 6.61 112.56 L32.41 112.56 C36.16 112.56 39.02 114.44 39.02 116.79 C39.02 114.44
						 42 112.56 45.64 112.56 L72.76 112.56 C76.39 112.56 79.37 110.67 79.37 108.32 L0 108.32 Z" class="st6"/>
			<path d="M0 108.32 C0 110.67 2.87 112.56 6.61 112.56 L32.41 112.56 C36.16 112.56 39.02 114.44 39.02 116.79 C39.02 114.44
						 42 112.56 45.64 112.56 L72.76 112.56 C76.39 112.56 79.37 110.67 79.37 108.32" class="st7"/>
		</g>
		<g id="shape44-51" v:mID="44" v:groupContext="shape" transform="translate(196.936,3.53941) rotate(89.8)">
			<title>工作表.44</title>
			<path d="M0 108.32 C0 110.67 2.89 112.56 6.38 112.56 L31.89 112.56 C35.38 112.56 38.27 114.44 38.27 116.79 C38.27 114.44
						 41.16 112.56 44.65 112.56 L70.16 112.56 C73.64 112.56 76.53 110.67 76.53 108.32 L0 108.32 Z" class="st6"/>
			<path d="M0 108.32 C0 110.67 2.89 112.56 6.38 112.56 L31.89 112.56 C35.38 112.56 38.27 114.44 38.27 116.79 C38.27 114.44
						 41.16 112.56 44.65 112.56 L70.16 112.56 C73.64 112.56 76.53 110.67 76.53 108.32" class="st7"/>
		</g>
		<g id="shape48-54" v:mID="48" v:groupContext="shape" transform="translate(242.203,3.55369) rotate(89.8)">
			<title>工作表.48</title>
			<path d="M0 108.32 C0 110.67 0.92 112.56 2.12 112.56 L10.41 112.56 C11.61 112.56 12.54 114.44 12.54 116.79 C12.54 114.44
						 13.49 112.56 14.66 112.56 L23.37 112.56 C24.54 112.56 25.5 110.67 25.5 108.32 L0 108.32 Z" class="st6"/>
			<path d="M0 108.32 C0 110.67 0.92 112.56 2.12 112.56 L10.41 112.56 C11.61 112.56 12.54 114.44 12.54 116.79 C12.54 114.44
						 13.49 112.56 14.66 112.56 L23.37 112.56 C24.54 112.56 25.5 110.67 25.5 108.32" class="st7"/>
		</g>
	</g>
</svg>
