<?xml version="1.0" encoding="UTF-8" standalone="no"?>
<!DOCTYPE svg PUBLIC "-//W3C//DTD SVG 1.1//EN" "http://www.w3.org/Graphics/SVG/1.1/DTD/svg11.dtd">
<!-- 由 Microsoft Visio, SVG Export 產生 F3701.svg 頁-1 -->
<svg xmlns="http://www.w3.org/2000/svg" xmlns:xlink="http://www.w3.org/1999/xlink" xmlns:ev="http://www.w3.org/2001/xml-events"
		xmlns:v="http://schemas.microsoft.com/visio/2003/SVGExtensions/" width="6.58114in" height="0.951008in"
		viewBox="0 0 473.842 68.4726" xml:space="preserve" color-interpolation-filters="sRGB" class="st5">
	<v:documentProperties v:langID="1028" v:viewMarkup="false"/>

	<style type="text/css">
	<![CDATA[
		.st1 {fill:none;stroke:none;stroke-linecap:butt;stroke-width:0.75}
		.st2 {fill:#000000;font-family:新細明體;font-size:0.833336em}
		.st3 {fill:none}
		.st4 {stroke:#000000;stroke-linecap:round;stroke-linejoin:round;stroke-width:0.705463}
		.st5 {fill:none;fill-rule:evenodd;font-size:12px;overflow:visible;stroke-linecap:square;stroke-miterlimit:3}
	]]>
	</style>

	<g v:mID="0" v:index="1" v:groupContext="foregroundPage">
		<title>頁-1</title>
		<v:pageProperties v:drawingScale="0.0393701" v:pageScale="0.0393701" v:drawingUnits="24" v:shadowOffsetX="9"
				v:shadowOffsetY="-9"/>
		<g id="shape2-1" v:mID="2" v:groupContext="shape" transform="translate(0.558267,-51.5641) rotate(-0.2)">
			<title>工作表.2</title>
			<v:textBlock v:margins="rect(0,0,0,0)"/>
			<rect x="0" y="54.9277" width="372.485" height="13.5449" class="st1"/>
		</g>
		<g id="shape3-3" v:mID="3" v:groupContext="shape" transform="translate(245.208,-52.5294) rotate(-0.2)">
			<title>工作表.3</title>
			<desc>供養恭敬尊重讚嘆諸佛</desc>
			<v:textBlock v:margins="rect(0,0,0,0)" v:tabSpace="42.5197"/>
			<v:textRect cx="56.4371" cy="61.7001" width="112.88" height="13.5449"/>
			<rect x="0" y="54.9277" width="112.874" height="13.5449" class="st1"/>
			<text x="0" y="64.81" class="st2" v:langID="1028"><v:paragraph/><v:tabList/>供養恭敬尊重讚嘆諸佛</text>		</g>
		<g id="shape4-6" v:mID="4" v:groupContext="shape" transform="translate(0.617367,-34.6331) rotate(-0.2)">
			<title>工作表.4</title>
			<v:textBlock v:margins="rect(0,0,0,0)"/>
			<rect x="0" y="54.9277" width="332.979" height="13.5449" class="st1"/>
		</g>
		<g id="shape5-8" v:mID="5" v:groupContext="shape" transform="translate(190.864,-35.3817) rotate(-0.2)">
			<title>工作表.5</title>
			<desc>遊諸佛國</desc>
			<v:textBlock v:margins="rect(0,0,0,0)" v:tabSpace="42.5197"/>
			<v:textRect cx="22.5748" cy="61.7001" width="45.15" height="13.5449"/>
			<rect x="0" y="54.9277" width="45.1496" height="13.5449" class="st1"/>
			<text x="0" y="64.81" class="st2" v:langID="1028"><v:paragraph/><v:tabList/>遊諸佛國</text>		</g>
		<g id="shape6-11" v:mID="6" v:groupContext="shape" transform="translate(245.267,-35.5984) rotate(-0.2)">
			<title>工作表.6</title>
			<desc>彼國無二乘名</desc>
			<v:textBlock v:margins="rect(0,0,0,0)" v:tabSpace="42.5197"/>
			<v:textRect cx="33.8622" cy="61.7001" width="67.73" height="13.5449"/>
			<rect x="0" y="54.9277" width="67.7245" height="13.5449" class="st1"/>
			<text x="0" y="64.81" class="st2" v:langID="1028"><v:paragraph/><v:tabList/>彼國無二乘名</text>		</g>
		<g id="shape7-14" v:mID="7" v:groupContext="shape" transform="translate(312.992,-35.8352) rotate(-0.2)">
			<title>工作表.7</title>
			<v:textBlock v:margins="rect(0,0,0,0)"/>
			<rect x="0" y="54.9277" width="59.2589" height="13.5449" class="st1"/>
		</g>
		<g id="shape8-16" v:mID="8" v:groupContext="shape" transform="translate(359.979,-36.0322) rotate(-0.2)">
			<title>工作表.8</title>
			<desc>智增樂多集諸佛功德</desc>
			<v:textBlock v:margins="rect(0,0,0,0)" v:tabSpace="42.5197"/>
			<v:textRect cx="56.4371" cy="61.7001" width="112.88" height="13.5449"/>
			<rect x="0" y="54.9277" width="112.874" height="13.5449" class="st1"/>
			<text x="0" y="64.81" class="st2" v:langID="1028"><v:paragraph/><v:tabList/>智增，樂多集諸佛功德</text>		</g>
		<g id="shape9-19" v:mID="9" v:groupContext="shape" transform="translate(0.676468,-17.7021) rotate(-0.2)">
			<title>工作表.9</title>
			<desc>菩薩法身得六神通不生三界四人</desc>
			<v:textBlock v:margins="rect(0,0,0,0)" v:tabSpace="42.5197"/>
			<v:textRect cx="101.587" cy="61.7001" width="203.18" height="13.5449"/>
			<rect x="0" y="54.9277" width="203.173" height="13.5449" class="st1"/>
			<text x="0" y="64.81" class="st2" v:langID="1028"><v:paragraph/><v:tabList/>菩薩（法身）得六神通不生三界（四人）</text>		</g>
		<g id="shape10-22" v:mID="10" v:groupContext="shape" transform="translate(245.327,-18.6674) rotate(-0.2)">
			<title>工作表.10</title>
			<desc>彼國其壽無量</desc>
			<v:textBlock v:margins="rect(0,0,0,0)" v:tabSpace="42.5197"/>
			<v:textRect cx="33.8622" cy="61.7001" width="67.73" height="13.5449"/>
			<rect x="0" y="54.9277" width="67.7245" height="13.5449" class="st1"/>
			<text x="-0" y="64.81" class="st2" v:langID="1028"><v:paragraph/><v:tabList/>彼國其壽無量</text>		</g>
		<g id="shape11-25" v:mID="11" v:groupContext="shape" transform="translate(0.735568,-0.771082) rotate(-0.2)">
			<title>工作表.11</title>
			<v:textBlock v:margins="rect(0,0,0,0)"/>
			<rect x="0" y="54.9277" width="335.8" height="13.5449" class="st1"/>
		</g>
		<g id="shape12-27" v:mID="12" v:groupContext="shape" transform="translate(190.982,-1.51969) rotate(-0.2)">
			<title>工作表.12</title>
			<desc>遊諸世界</desc>
			<v:textBlock v:margins="rect(0,0,0,0)" v:tabSpace="42.5197"/>
			<v:textRect cx="22.5748" cy="61.7001" width="45.15" height="13.5449"/>
			<rect x="0" y="54.9277" width="45.1496" height="13.5449" class="st1"/>
			<text x="0" y="64.81" class="st2" v:langID="1028"><v:paragraph/><v:tabList/>遊諸世界</text>		</g>
		<g id="shape14-30" v:mID="14" v:groupContext="shape" transform="translate(251.848,-1.73639) rotate(-0.2)">
			<title>工作表.14</title>
			<desc>無三寶處讚嘆三寶</desc>
			<v:textBlock v:margins="rect(0,0,0,0)" v:tabSpace="42.5197"/>
			<v:textRect cx="45.1496" cy="61.7001" width="90.3" height="13.5449"/>
			<rect x="0" y="54.9277" width="90.2993" height="13.5449" class="st1"/>
			<text x="0" y="64.81" class="st2" v:langID="1028"><v:paragraph/><v:tabList/>無三寶處讚嘆三寶</text>		</g>
		<g id="shape15-33" v:mID="15" v:groupContext="shape" transform="translate(356.976,-2.17017) rotate(-0.2)">
			<title>工作表.15</title>
			<desc>悲增樂多為眾生</desc>
			<v:textBlock v:margins="rect(0,0,0,0)" v:tabSpace="42.5197"/>
			<v:textRect cx="45.1496" cy="61.7001" width="90.3" height="13.5449"/>
			<rect x="0" y="54.9277" width="90.2993" height="13.5449" class="st1"/>
			<text x="0" y="64.81" class="st2" v:langID="1028"><v:paragraph/><v:tabList/>悲增，樂多為眾生</text>		</g>
		<g id="shape25-36" v:mID="25" v:groupContext="shape" transform="translate(415.871,0.113718) rotate(89.8)">
			<title>工作表.25</title>
			<path d="M0 68.47 C0 66.12 1.88 64.24 4.23 64.24 L21.16 64.24 C23.52 64.24 25.4 62.36 25.4 60.01 C25.4 62.36 27.28 64.24
						 29.63 64.24 L46.56 64.24 C48.91 64.24 50.79 66.12 50.79 68.47 L0 68.47 Z" class="st3"/>
			<path d="M0 68.47 C0 66.12 1.88 64.24 4.23 64.24 L21.16 64.24 C23.52 64.24 25.4 62.36 25.4 60.01 C25.4 62.36 27.28 64.24
						 29.63 64.24 L46.56 64.24 C48.91 64.24 50.79 66.12 50.79 68.47" class="st4"/>
		</g>
		<g id="shape26-39" v:mID="26" v:groupContext="shape" transform="translate(303.98,0.537272) rotate(89.8)">
			<title>工作表.26</title>
			<path d="M0 60.01 C0 62.36 1.88 64.24 4.23 64.24 L21.16 64.24 C23.52 64.24 25.4 66.12 25.4 68.47 C25.4 66.12 27.28 64.24
						 29.63 64.24 L46.56 64.24 C48.91 64.24 50.79 62.36 50.79 60.01 L0 60.01 Z" class="st3"/>
			<path d="M0 60.01 C0 62.36 1.88 64.24 4.23 64.24 L21.16 64.24 C23.52 64.24 25.4 66.12 25.4 68.47 C25.4 66.12 27.28 64.24
						 29.63 64.24 L46.56 64.24 C48.91 64.24 50.79 62.36 50.79 60.01" class="st4"/>
		</g>
		<g id="shape27-42" v:mID="27" v:groupContext="shape" transform="translate(250.575,17.1173) rotate(89.8)">
			<title>工作表.27</title>
			<path d="M0 60.01 C0 62.36 1.88 64.24 4.23 64.24 L21.16 64.24 C23.52 64.24 25.4 66.12 25.4 68.47 C25.4 66.12 27.28 64.24
						 29.63 64.24 L46.56 64.24 C48.91 64.24 50.79 62.36 50.79 60.01 L0 60.01 Z" class="st3"/>
			<path d="M0 60.01 C0 62.36 1.88 64.24 4.23 64.24 L21.16 64.24 C23.52 64.24 25.4 66.12 25.4 68.47 C25.4 66.12 27.28 64.24
						 29.63 64.24 L46.56 64.24 C48.91 64.24 50.79 62.36 50.79 60.01" class="st4"/>
		</g>
		<g id="shape28-45" v:mID="28" v:groupContext="shape" transform="translate(234.373,-9.09079)">
			<title>工作表.28</title>
			<path d="M0 68.47 L12.76 68.47" class="st4"/>
		</g>
		<g id="shape29-48" v:mID="29" v:groupContext="shape" transform="translate(335.003,-9.09079)">
			<title>工作表.29</title>
			<path d="M0 68.47 L17.78 68.47" class="st4"/>
		</g>
	</g>
</svg>
