<?xml version="1.0" encoding="UTF-8" standalone="no"?>
<!DOCTYPE svg PUBLIC "-//W3C//DTD SVG 1.1//EN" "http://www.w3.org/Graphics/SVG/1.1/DTD/svg11.dtd">
<!-- 由 Microsoft Visio, SVG Export 產生 F3802.svg 頁-1 -->
<svg xmlns="http://www.w3.org/2000/svg" xmlns:xlink="http://www.w3.org/1999/xlink" xmlns:ev="http://www.w3.org/2001/xml-events"
		xmlns:v="http://schemas.microsoft.com/visio/2003/SVGExtensions/" width="4.02735in" height="0.938802in"
		viewBox="0 0 289.969 67.5937" xml:space="preserve" color-interpolation-filters="sRGB" class="st5">
	<v:documentProperties v:langID="1028" v:viewMarkup="false"/>

	<style type="text/css">
	<![CDATA[
		.st1 {fill:none;stroke:none;stroke-linecap:butt;stroke-width:0.75}
		.st2 {fill:#000000;font-family:新細明體;font-size:0.833336em}
		.st3 {fill:none}
		.st4 {stroke:#000000;stroke-linecap:round;stroke-linejoin:round;stroke-width:0.705463}
		.st5 {fill:none;fill-rule:evenodd;font-size:12px;overflow:visible;stroke-linecap:square;stroke-miterlimit:3}
	]]>
	</style>

	<g v:mID="0" v:index="1" v:groupContext="foregroundPage">
		<title>頁-1</title>
		<v:pageProperties v:drawingScale="0.0393701" v:pageScale="0.0393701" v:drawingUnits="24" v:shadowOffsetX="9"
				v:shadowOffsetY="-9"/>
		<g id="shape1-1" v:mID="1" v:groupContext="shape" transform="translate(0.561334,-52.5696) rotate(-0.2)">
			<title>工作表.1</title>
			<v:textBlock v:margins="rect(0,0,0,0)"/>
			<rect x="0" y="54.0488" width="200.352" height="13.5449" class="st1"/>
		</g>
		<g id="shape2-3" v:mID="2" v:groupContext="shape" transform="translate(130.901,-53.0621) rotate(-0.2)">
			<title>工作表.2</title>
			<desc>以法施三惡道</desc>
			<v:textBlock v:margins="rect(0,0,0,0)" v:tabSpace="42.5197"/>
			<v:textRect cx="33.8622" cy="60.8213" width="67.73" height="13.5449"/>
			<rect x="0" y="54.0488" width="67.7245" height="13.5449" class="st1"/>
			<text x="0" y="63.94" class="st2" v:langID="1028"><v:paragraph/><v:tabList/>以法施三惡道</text>		</g>
		<g id="shape3-6" v:mID="3" v:groupContext="shape" transform="translate(0.620435,-35.6386) rotate(-0.2)">
			<title>工作表.3</title>
			<v:textBlock v:margins="rect(0,0,0,0)"/>
			<rect x="0" y="54.0488" width="121.34" height="13.5449" class="st1"/>
		</g>
		<g id="shape4-8" v:mID="4" v:groupContext="shape" transform="translate(72.3008,-37.8693) rotate(-0.2)">
			<title>工作表.4</title>
			<desc>變身如佛</desc>
			<v:textBlock v:margins="rect(0,0,0,0)" v:tabSpace="42.5197"/>
			<v:textRect cx="22.5748" cy="60.8213" width="45.15" height="13.5449"/>
			<rect x="0" y="54.0488" width="45.1496" height="13.5449" class="st1"/>
			<text x="0" y="63.94" class="st2" v:langID="1028"><v:paragraph/><v:tabList/>變身如佛</text>		</g>
		<g id="shape5-11" v:mID="5" v:groupContext="shape" transform="translate(130.96,-36.1311) rotate(-0.2)">
			<title>工作表.5</title>
			<desc>以法施眾生供佛、聞法、嚴土</desc>
			<v:textBlock v:margins="rect(0,0,0,0)" v:tabSpace="42.5197"/>
			<v:textRect cx="79.0119" cy="60.8213" width="158.03" height="13.5449"/>
			<rect x="0" y="54.0488" width="158.024" height="13.5449" class="st1"/>
			<text x="0" y="63.94" class="st2" v:langID="1028"><v:paragraph/><v:tabList/>以法施眾生，供佛、聞法、嚴土</text>		</g>
		<g id="shape6-14" v:mID="6" v:groupContext="shape" transform="translate(0.679536,-18.7076) rotate(-0.2)">
			<title>工作表.6</title>
			<desc>相好四人</desc>
			<v:textBlock v:margins="rect(0,0,0,0)" v:tabSpace="42.5197"/>
			<v:textRect cx="33.8622" cy="60.8213" width="67.73" height="13.5449"/>
			<rect x="0" y="54.0488" width="67.7245" height="13.5449" class="st1"/>
			<text x="0" y="63.94" class="st2" v:langID="1028"><v:paragraph/><v:tabList/>相好（四人）</text>		</g>
		<g id="shape7-17" v:mID="7" v:groupContext="shape" transform="translate(72.36,-18.9834) rotate(-0.2)">
			<title>工作表.7</title>
			<desc>相好嚴身諸根明利以三乘度眾生</desc>
			<v:textBlock v:margins="rect(0,0,0,0)" v:tabSpace="42.5197"/>
			<v:textRect cx="84.6556" cy="60.8213" width="169.32" height="13.5449"/>
			<rect x="0" y="54.0488" width="169.311" height="13.5449" class="st1"/>
			<text x="0" y="63.94" class="st2" v:langID="1028"><v:paragraph/><v:tabList/>相好嚴身諸根明利，以三乘度眾生</text>		</g>
		<g id="shape8-20" v:mID="8" v:groupContext="shape" transform="translate(0.738636,-1.77655) rotate(-0.2)">
			<title>工作表.8</title>
			<v:textBlock v:margins="rect(0,0,0,0)"/>
			<rect x="0" y="54.0488" width="117.577" height="13.5449" class="st1"/>
		</g>
		<g id="shape9-22" v:mID="9" v:groupContext="shape" transform="translate(72.4191,-2.05235) rotate(-0.2)">
			<title>工作表.9</title>
			<desc>諸根淨利不自高下他</desc>
			<v:textBlock v:margins="rect(0,0,0,0)" v:tabSpace="42.5197"/>
			<v:textRect cx="56.4371" cy="60.8213" width="112.88" height="13.5449"/>
			<rect x="0" y="54.0488" width="112.874" height="13.5449" class="st1"/>
			<text x="0" y="63.94" class="st2" v:langID="1028"><v:paragraph/><v:tabList/>諸根淨利，不自高下他</text>		</g>
		<g id="shape23-25" v:mID="23" v:groupContext="shape" transform="translate(129.438,16.2415) rotate(89.8)">
			<title>工作表.23</title>
			<path d="M0 59.13 C0 61.48 1.88 63.36 4.23 63.36 L21.16 63.36 C23.52 63.36 25.4 65.24 25.4 67.59 C25.4 65.24 27.28 63.36
						 29.63 63.36 L46.56 63.36 C48.91 63.36 50.79 61.48 50.79 59.13 L0 59.13 Z" class="st3"/>
			<path d="M0 59.13 C0 61.48 1.88 63.36 4.23 63.36 L21.16 63.36 C23.52 63.36 25.4 65.24 25.4 67.59 C25.4 65.24 27.28 63.36
						 29.63 63.36 L46.56 63.36 C48.91 63.36 50.79 61.48 50.79 59.13" class="st4"/>
		</g>
		<g id="shape24-28" v:mID="24" v:groupContext="shape" transform="translate(185.995,3.17554) rotate(89.8)">
			<title>工作表.24</title>
			<path d="M0 59.13 C0 61.48 0.95 63.36 2.2 63.36 L16.55 63.36 C17.8 63.36 18.75 65.24 18.75 67.59 C18.75 65.24 19.77 63.36
						 20.95 63.36 L24.17 63.36 C25.34 63.36 26.37 61.48 26.37 59.13 L0 59.13 Z" class="st3"/>
			<path d="M0 59.13 C0 61.48 0.95 63.36 2.2 63.36 L16.55 63.36 C17.8 63.36 18.75 65.24 18.75 67.59 C18.75 65.24 19.77 63.36
						 20.95 63.36 L24.17 63.36 C25.34 63.36 26.37 61.48 26.37 59.13" class="st4"/>
		</g>
	</g>
</svg>
