<?xml version="1.0" encoding="UTF-8" standalone="no"?>
<!DOCTYPE svg PUBLIC "-//W3C//DTD SVG 1.1//EN" "http://www.w3.org/Graphics/SVG/1.1/DTD/svg11.dtd">
<!-- 由 Microsoft Visio, SVG Export 產生 F03803-1（M039.045）.svg 頁-1 -->
<svg xmlns="http://www.w3.org/2000/svg" xmlns:xlink="http://www.w3.org/1999/xlink" xmlns:ev="http://www.w3.org/2001/xml-events"
		xmlns:v="http://schemas.microsoft.com/visio/2003/SVGExtensions/" width="2.95278in" height="0.919117in"
		viewBox="0 0 212.6 66.1765" xml:space="preserve" color-interpolation-filters="sRGB" class="st5">
	<v:documentProperties v:langID="1028" v:viewMarkup="false"/>

	<style type="text/css">
	<![CDATA[
		.st1 {fill:none;stroke:none;stroke-linecap:butt;stroke-width:0.75}
		.st2 {fill:#000000;font-family:新細明體;font-size:0.833336em}
		.st3 {fill:none}
		.st4 {stroke:#000000;stroke-linecap:round;stroke-linejoin:round;stroke-width:0.705463}
		.st5 {fill:none;fill-rule:evenodd;font-size:12px;overflow:visible;stroke-linecap:square;stroke-miterlimit:3}
	]]>
	</style>

	<g v:mID="0" v:index="1" v:groupContext="foregroundPage">
		<title>頁-1</title>
		<v:pageProperties v:drawingScale="0.0393701" v:pageScale="0.0393701" v:drawingUnits="24" v:shadowOffsetX="9"
				v:shadowOffsetY="-9"/>
		<g id="shape2-1" v:mID="2" v:groupContext="shape" transform="translate(40.4296,-42.752) rotate(-0.2)">
			<title>工作表.2</title>
			<desc>乃至阿鞞跋致地</desc>
			<v:textBlock v:margins="rect(0,0,0,0)" v:tabSpace="42.5197"/>
			<v:textRect cx="39.5059" cy="59.404" width="79.02" height="13.5449"/>
			<rect x="0" y="52.6316" width="79.0119" height="13.5449" class="st1"/>
			<text x="0" y="62.52" class="st2" v:langID="1028"><v:paragraph/><v:tabList/>乃至阿鞞跋致地</text>		</g>
		<g id="shape3-4" v:mID="3" v:groupContext="shape" transform="translate(120.932,-51.7002) rotate(-0.2)">
			<title>工作表.3</title>
			<desc>終不墮惡道</desc>
			<v:textBlock v:margins="rect(0,0,0,0)" v:tabSpace="42.5197"/>
			<v:textRect cx="25.9267" cy="59.404" width="51.86" height="13.5449"/>
			<rect x="0" y="52.6316" width="51.8533" height="13.5449" class="st1"/>
			<text x="0" y="62.52" class="st2" v:langID="1028"><v:paragraph/><v:tabList/>終不墮惡道</text>		</g>
		<g id="shape4-7" v:mID="4" v:groupContext="shape" transform="translate(0.566282,-25.3915) rotate(-0.2)">
			<title>工作表.4</title>
			<desc>住檀尸</desc>
			<v:textBlock v:margins="rect(0,0,0,0)" v:tabSpace="42.5197"/>
			<v:textRect cx="16.9311" cy="59.404" width="33.87" height="13.5449"/>
			<rect x="0" y="52.6316" width="33.8622" height="13.5449" class="st1"/>
			<text x="-0" y="62.52" class="st2" v:langID="1028"><v:paragraph/><v:tabList/>住檀尸</text>		</g>
		<g id="shape5-10" v:mID="5" v:groupContext="shape" transform="translate(120.991,-34.7692) rotate(-0.2)">
			<title>工作表.5</title>
			<desc>常不捨十善</desc>
			<v:textBlock v:margins="rect(0,0,0,0)" v:tabSpace="42.5197"/>
			<v:textRect cx="25.4718" cy="59.404" width="50.95" height="13.5449"/>
			<rect x="0" y="52.6316" width="50.9436" height="13.5449" class="st1"/>
			<text x="0" y="62.52" class="st2" v:langID="1028"><v:paragraph/><v:tabList/>常不捨十善</text>		</g>
		<g id="shape7-13" v:mID="7" v:groupContext="shape" transform="translate(80.4488,-17.6806) rotate(-0.2)">
			<title>工作表.7</title>
			<desc>立眾生於十善以財物施眾生</desc>
			<v:textBlock v:margins="rect(0,0,0,0)" v:tabSpace="42.5197"/>
			<v:textRect cx="65.5855" cy="59.404" width="131.18" height="13.5449"/>
			<rect x="0" y="52.6316" width="131.171" height="13.5449" class="st1"/>
			<text x="0" y="62.52" class="st2" v:langID="1028"><v:paragraph/><v:tabList/>立眾生於十善，以財物施眾生</text>		</g>
		<g id="shape10-16" v:mID="10" v:groupContext="shape" transform="translate(40.6069,-8.38367) rotate(-0.2)">
			<title>工作表.10</title>
			<desc>作輪王</desc>
			<v:textBlock v:margins="rect(0,0,0,0)" v:tabSpace="42.5197"/>
			<v:textRect cx="16.9311" cy="59.404" width="33.87" height="13.5449"/>
			<rect x="0" y="52.6316" width="33.8622" height="13.5449" class="st1"/>
			<text x="-0" y="62.52" class="st2" v:langID="1028"><v:paragraph/><v:tabList/>作輪王</text>		</g>
		<g id="shape11-19" v:mID="11" v:groupContext="shape" transform="translate(80.5079,-0.749597) rotate(-0.2)">
			<title>工作表.11</title>
			<desc>常值遇多佛供養敬讚</desc>
			<v:textBlock v:margins="rect(0,0,0,0)" v:tabSpace="42.5197"/>
			<v:textRect cx="45.7134" cy="59.404" width="91.43" height="13.5449"/>
			<rect x="0" y="52.6316" width="91.4269" height="13.5449" class="st1"/>
			<text x="0" y="62.52" class="st2" v:langID="1028"><v:paragraph/><v:tabList/>常值遇多佛供養敬讚</text>		</g>
		<g id="group36-22" transform="translate(138.223,37.9504) rotate(90)" v:mID="36" v:groupContext="group">
			<title>工作表.36</title>
			<g id="shape37-23" v:mID="37" v:groupContext="shape">
				<title>工作表.37</title>
				<path d="M0 59.63 C0 61.45 0.94 62.9 2.13 62.9 L10.63 62.9 C11.79 62.9 12.76 64.36 12.76 66.18 C12.76 64.36 13.7
							 62.9 14.88 62.9 L23.39 62.9 C24.54 62.9 25.51 61.45 25.51 59.63 L0 59.63 Z" class="st3"/>
				<path d="M0 59.63 C0 61.45 0.94 62.9 2.13 62.9 L10.63 62.9 C11.79 62.9 12.76 64.36 12.76 66.18 C12.76 64.36 13.7
							 62.9 14.88 62.9 L23.39 62.9 C24.54 62.9 25.51 61.45 25.51 59.63" class="st4"/>
			</g>
		</g>
		<g id="group40-26" transform="translate(177.908,3.93472) rotate(90)" v:mID="40" v:groupContext="group">
			<title>工作表.40</title>
			<g id="shape41-27" v:mID="41" v:groupContext="shape">
				<title>工作表.41</title>
				<path d="M0 59.63 C0 61.45 0.94 62.9 2.13 62.9 L10.63 62.9 C11.79 62.9 12.76 64.36 12.76 66.18 C12.76 64.36 13.7
							 62.9 14.88 62.9 L23.39 62.9 C24.54 62.9 25.51 61.45 25.51 59.63 L0 59.63 Z" class="st3"/>
				<path d="M0 59.63 C0 61.45 0.94 62.9 2.13 62.9 L10.63 62.9 C11.79 62.9 12.76 64.36 12.76 66.18 C12.76 64.36 13.7
							 62.9 14.88 62.9 L23.39 62.9 C24.54 62.9 25.51 61.45 25.51 59.63" class="st4"/>
			</g>
		</g>
		<g id="group42-30" transform="translate(98.5379,12.1891) rotate(90)" v:mID="42" v:groupContext="group">
			<title>工作表.42</title>
			<g id="shape43-31" v:mID="43" v:groupContext="shape">
				<title>工作表.43</title>
				<path d="M0 59.63 C0 61.45 1.58 62.9 3.56 62.9 L17.82 62.9 C19.76 62.9 21.38 64.36 21.38 66.18 C21.38 64.36 22.97
							 62.9 24.95 62.9 L39.2 62.9 C41.15 62.9 42.77 61.45 42.77 59.63 L0 59.63 Z" class="st3"/>
				<path d="M0 59.63 C0 61.45 1.58 62.9 3.56 62.9 L17.82 62.9 C19.76 62.9 21.38 64.36 21.38 66.18 C21.38 64.36 22.97
							 62.9 24.95 62.9 L39.2 62.9 C41.15 62.9 42.77 61.45 42.77 59.63" class="st4"/>
			</g>
		</g>
	</g>
</svg>
