<?xml version="1.0" encoding="UTF-8" standalone="no"?>
<!DOCTYPE svg PUBLIC "-//W3C//DTD SVG 1.1//EN" "http://www.w3.org/Graphics/SVG/1.1/DTD/svg11.dtd">
<!-- 由 Microsoft Visio, SVG Export 產生 F3704.svg 頁-1 -->
<svg xmlns="http://www.w3.org/2000/svg" xmlns:xlink="http://www.w3.org/1999/xlink" xmlns:ev="http://www.w3.org/2001/xml-events"
		xmlns:v="http://schemas.microsoft.com/visio/2003/SVGExtensions/" width="2.68902in" height="1.15449in"
		viewBox="0 0 193.609 83.1235" xml:space="preserve" color-interpolation-filters="sRGB" class="st6">
	<v:documentProperties v:langID="1028" v:viewMarkup="false"/>

	<style type="text/css">
	<![CDATA[
		.st1 {fill:none;stroke:none;stroke-linecap:butt;stroke-width:0.75}
		.st2 {fill:#000000;font-family:新細明體;font-size:0.833336em}
		.st3 {fill:#000000;font-family:Times New Roman;font-size:0.833336em}
		.st4 {fill:none}
		.st5 {stroke:#000000;stroke-linecap:round;stroke-linejoin:round;stroke-width:0.705463}
		.st6 {fill:none;fill-rule:evenodd;font-size:12px;overflow:visible;stroke-linecap:square;stroke-miterlimit:3}
	]]>
	</style>

	<g v:mID="0" v:index="1" v:groupContext="foregroundPage">
		<title>頁-1</title>
		<v:pageProperties v:drawingScale="0.0393701" v:pageScale="0.0393701" v:drawingUnits="24" v:shadowOffsetX="9"
				v:shadowOffsetY="-9"/>
		<g id="shape1-1" v:mID="1" v:groupContext="shape" transform="translate(0.507125,-68.4735) rotate(-0.2)">
			<title>工作表.1</title>
			<v:textBlock v:margins="rect(0,0,0,0)"/>
			<rect x="0" y="69.5786" width="90.2993" height="13.5449" class="st1"/>
		</g>
		<g id="shape2-3" v:mID="2" v:groupContext="shape" transform="translate(56.9438,-68.6705) rotate(-0.2)">
			<title>工作表.2</title>
			<desc>入超越定</desc>
			<v:textBlock v:margins="rect(0,0,0,0)" v:tabSpace="42.5197"/>
			<v:textRect cx="22.5748" cy="76.351" width="45.15" height="13.5449"/>
			<rect x="0" y="69.5786" width="45.1496" height="13.5449" class="st1"/>
			<text x="0" y="79.47" class="st2" v:langID="1028"><v:paragraph/><v:tabList/>入超越定</text>		</g>
		<g id="shape3-6" v:mID="3" v:groupContext="shape" transform="translate(57.0029,-51.7395) rotate(-0.2)">
			<title>工作表.3</title>
			<desc>不小果取證</desc>
			<v:textBlock v:margins="rect(0,0,0,0)" v:tabSpace="42.5197"/>
			<v:textRect cx="28.2185" cy="76.351" width="56.44" height="13.5449"/>
			<rect x="0" y="69.5786" width="56.4371" height="13.5449" class="st1"/>
			<text x="0" y="79.47" class="st2" v:langID="1028"><v:paragraph/><v:tabList/>不小果取證</text>		</g>
		<g id="shape4-9" v:mID="4" v:groupContext="shape" transform="translate(113.44,-51.9365) rotate(-0.2)">
			<title>工作表.4</title>
			<desc>——</desc>
			<v:textBlock v:margins="rect(0,0,0,0)" v:tabSpace="42.5197"/>
			<v:textRect cx="11.2874" cy="76.351" width="22.58" height="13.5449"/>
			<rect x="0" y="69.5786" width="22.5748" height="13.5449" class="st1"/>
			<text x="0" y="79.35" class="st3" v:langID="1028"><v:paragraph/><v:tabList/>——</text>		</g>
		<g id="shape5-12" v:mID="5" v:groupContext="shape" transform="translate(136.014,-52.0153) rotate(-0.2)">
			<title>工作表.5</title>
			<desc>是不退菩薩</desc>
			<v:textBlock v:margins="rect(0,0,0,0)" v:tabSpace="42.5197"/>
			<v:textRect cx="28.2185" cy="76.351" width="56.44" height="13.5449"/>
			<rect x="0" y="69.5786" width="56.4371" height="13.5449" class="st1"/>
			<text x="0" y="79.47" class="st2" v:langID="1028"><v:paragraph/><v:tabList/>是不退菩薩</text>		</g>
		<g id="shape6-15" v:mID="6" v:groupContext="shape" transform="translate(0.625327,-34.6115) rotate(-0.2)">
			<title>工作表.6</title>
			<desc>菩薩</desc>
			<v:textBlock v:margins="rect(0,0,0,0)" v:tabSpace="42.5197"/>
			<v:textRect cx="22.5748" cy="76.351" width="45.15" height="13.5449"/>
			<rect x="0" y="69.5786" width="45.1496" height="13.5449" class="st1"/>
			<text x="0" y="79.47" class="st2" v:langID="1028"><v:paragraph/><v:tabList/>（菩薩）</text>		</g>
		<g id="shape7-18" v:mID="7" v:groupContext="shape" transform="translate(57.062,-34.8085) rotate(-0.2)">
			<title>工作表.7</title>
			<desc>淨兜率天道</desc>
			<v:textBlock v:margins="rect(0,0,0,0)" v:tabSpace="42.5197"/>
			<v:textRect cx="28.2185" cy="76.351" width="56.44" height="13.5449"/>
			<rect x="0" y="69.5786" width="56.4371" height="13.5449" class="st1"/>
			<text x="0" y="79.47" class="st2" v:langID="1028"><v:paragraph/><v:tabList/>淨兜率天道</text>		</g>
		<g id="shape8-21" v:mID="8" v:groupContext="shape" transform="translate(113.499,-35.0055) rotate(-0.2)">
			<title>工作表.8</title>
			<desc>——</desc>
			<v:textBlock v:margins="rect(0,0,0,0)" v:tabSpace="42.5197"/>
			<v:textRect cx="11.2874" cy="76.351" width="22.58" height="13.5449"/>
			<rect x="0" y="69.5786" width="22.5748" height="13.5449" class="st1"/>
			<text x="0" y="79.35" class="st3" v:langID="1028"><v:paragraph/><v:tabList/>——</text>		</g>
		<g id="shape9-24" v:mID="9" v:groupContext="shape" transform="translate(136.073,-35.0843) rotate(-0.2)">
			<title>工作表.9</title>
			<desc>是賢劫菩薩</desc>
			<v:textBlock v:margins="rect(0,0,0,0)" v:tabSpace="42.5197"/>
			<v:textRect cx="28.2185" cy="76.351" width="56.44" height="13.5449"/>
			<rect x="0" y="69.5786" width="56.4371" height="13.5449" class="st1"/>
			<text x="0" y="79.47" class="st2" v:langID="1028"><v:paragraph/><v:tabList/>是賢劫菩薩</text>		</g>
		<g id="shape10-27" v:mID="10" v:groupContext="shape" transform="translate(0.684427,-17.6805) rotate(-0.2)">
			<title>工作表.10</title>
			<v:textBlock v:margins="rect(0,0,0,0)"/>
			<rect x="0" y="69.5786" width="90.2993" height="13.5449" class="st1"/>
		</g>
		<g id="shape11-29" v:mID="11" v:groupContext="shape" transform="translate(57.1211,-17.8775) rotate(-0.2)">
			<title>工作表.11</title>
			<desc>未證四諦</desc>
			<v:textBlock v:margins="rect(0,0,0,0)" v:tabSpace="42.5197"/>
			<v:textRect cx="22.5748" cy="76.351" width="45.15" height="13.5449"/>
			<rect x="0" y="69.5786" width="45.1496" height="13.5449" class="st1"/>
			<text x="-0" y="79.47" class="st2" v:langID="1028"><v:paragraph/><v:tabList/>未證四諦</text>		</g>
		<g id="shape12-32" v:mID="12" v:groupContext="shape" transform="translate(102.271,-18.0351) rotate(-0.2)">
			<title>工作表.12</title>
			<desc>———</desc>
			<v:textBlock v:margins="rect(0,0,0,0)" v:tabSpace="42.5197"/>
			<v:textRect cx="16.9311" cy="76.351" width="33.87" height="13.5449"/>
			<rect x="0" y="69.5786" width="33.8622" height="13.5449" class="st1"/>
			<text x="0" y="79.35" class="st3" v:langID="1028"><v:paragraph/><v:tabList/>———</text>		</g>
		<g id="shape13-35" v:mID="13" v:groupContext="shape" transform="translate(136.133,-18.1533) rotate(-0.2)">
			<title>工作表.13</title>
			<desc>是一生補處</desc>
			<v:textBlock v:margins="rect(0,0,0,0)" v:tabSpace="42.5197"/>
			<v:textRect cx="28.2185" cy="76.351" width="56.44" height="13.5449"/>
			<rect x="0" y="69.5786" width="56.4371" height="13.5449" class="st1"/>
			<text x="-0" y="79.47" class="st2" v:langID="1028"><v:paragraph/><v:tabList/>是一生補處</text>		</g>
		<g id="shape14-38" v:mID="14" v:groupContext="shape" transform="translate(0.743528,-0.749494) rotate(-0.2)">
			<title>工作表.14</title>
			<v:textBlock v:margins="rect(0,0,0,0)"/>
			<rect x="0" y="69.5786" width="90.2993" height="13.5449" class="st1"/>
		</g>
		<g id="shape15-40" v:mID="15" v:groupContext="shape" transform="translate(57.1802,-0.946496) rotate(-0.2)">
			<title>工作表.15</title>
			<desc>久劫修證</desc>
			<v:textBlock v:margins="rect(0,0,0,0)" v:tabSpace="42.5197"/>
			<v:textRect cx="22.5748" cy="76.351" width="45.15" height="13.5449"/>
			<rect x="0" y="69.5786" width="45.1496" height="13.5449" class="st1"/>
			<text x="0" y="79.47" class="st2" v:langID="1028"><v:paragraph/><v:tabList/>久劫修證</text>		</g>
		<g id="shape16-43" v:mID="16" v:groupContext="shape" transform="translate(102.33,-1.1041) rotate(-0.2)">
			<title>工作表.16</title>
			<desc>———</desc>
			<v:textBlock v:margins="rect(0,0,0,0)" v:tabSpace="42.5197"/>
			<v:textRect cx="16.9311" cy="76.351" width="33.87" height="13.5449"/>
			<rect x="0" y="69.5786" width="33.8622" height="13.5449" class="st1"/>
			<text x="-0" y="79.35" class="st3" v:langID="1028"><v:paragraph/><v:tabList/>———</text>		</g>
		<g id="shape17-46" v:mID="17" v:groupContext="shape" transform="translate(136.192,-1.2223) rotate(-0.2)">
			<title>工作表.17</title>
			<desc>鈍根</desc>
			<v:textBlock v:margins="rect(0,0,0,0)" v:tabSpace="42.5197"/>
			<v:textRect cx="11.2874" cy="76.351" width="22.58" height="13.5449"/>
			<rect x="0" y="69.5786" width="22.5748" height="13.5449" class="st1"/>
			<text x="0" y="79.47" class="st2" v:langID="1028"><v:paragraph/><v:tabList/>鈍根</text>		</g>
		<g id="shape29-49" v:mID="29" v:groupContext="shape" transform="translate(126.215,7.45748) rotate(89.8)">
			<title>工作表.29</title>
			<path d="M0 74.66 C0 77.01 2.45 78.89 5.64 78.89 L27.65 78.89 C30.76 78.89 33.3 80.77 33.3 83.12 C33.3 80.77 35.74 78.89
						 38.94 78.89 L62.08 78.89 C65.18 78.89 67.72 77.01 67.72 74.66 L0 74.66 Z" class="st4"/>
			<path d="M0 74.66 C0 77.01 2.45 78.89 5.64 78.89 L27.65 78.89 C30.76 78.89 33.3 80.77 33.3 83.12 C33.3 80.77 35.74 78.89
						 38.94 78.89 L62.08 78.89 C65.18 78.89 67.72 77.01 67.72 74.66" class="st5"/>
		</g>
	</g>
</svg>
