<?xml version="1.0" encoding="UTF-8" standalone="no"?>
<!DOCTYPE svg PUBLIC "-//W3C//DTD SVG 1.1//EN" "http://www.w3.org/Graphics/SVG/1.1/DTD/svg11.dtd">
<!-- 由 Microsoft Visio, SVG Export 產生 F4102.svg 頁-1 -->
<svg xmlns="http://www.w3.org/2000/svg" xmlns:xlink="http://www.w3.org/1999/xlink" xmlns:ev="http://www.w3.org/2001/xml-events"
		xmlns:v="http://schemas.microsoft.com/visio/2003/SVGExtensions/" width="4.76937in" height="2.13569in"
		viewBox="0 0 343.395 153.77" xml:space="preserve" color-interpolation-filters="sRGB" class="st5">
	<v:documentProperties v:langID="1028" v:viewMarkup="false"/>

	<style type="text/css">
	<![CDATA[
		.st1 {fill:none;stroke:none;stroke-linecap:butt;stroke-width:0.75}
		.st2 {fill:#000000;font-family:新細明體;font-size:0.833336em}
		.st3 {fill:none}
		.st4 {stroke:#000000;stroke-linecap:round;stroke-linejoin:round;stroke-width:0.705463}
		.st5 {fill:none;fill-rule:evenodd;font-size:12px;overflow:visible;stroke-linecap:square;stroke-miterlimit:3}
	]]>
	</style>

	<g v:mID="0" v:index="1" v:groupContext="foregroundPage">
		<title>頁-1</title>
		<v:pageProperties v:drawingScale="0.0393701" v:pageScale="0.0393701" v:drawingUnits="24" v:shadowOffsetX="9"
				v:shadowOffsetY="-9"/>
		<g id="shape2-1" v:mID="2" v:groupContext="shape" transform="translate(251.632,-139.317) rotate(-0.2)">
			<title>工作表.2</title>
			<desc>大慈悲故</desc>
			<v:textBlock v:margins="rect(0,0,0,0)" v:tabSpace="42.5197"/>
			<v:textRect cx="22.5748" cy="146.998" width="45.15" height="13.5449"/>
			<rect x="0" y="140.225" width="45.1496" height="13.5449" class="st1"/>
			<text x="0" y="150.11" class="st2" v:langID="1028"><v:paragraph/><v:tabList/>大慈悲故</text>		</g>
		<g id="shape3-4" v:mID="3" v:groupContext="shape" transform="translate(161.462,-121.992) rotate(-0.2)">
			<title>工作表.3</title>
			<desc>於眾生中生等心</desc>
			<v:textBlock v:margins="rect(0,0,0,0)" v:tabSpace="42.5197"/>
			<v:textRect cx="39.5059" cy="146.998" width="79.02" height="13.5449"/>
			<rect x="0" y="140.225" width="79.0119" height="13.5449" class="st1"/>
			<text x="0" y="150.11" class="st2" v:langID="1028"><v:paragraph/><v:tabList/>於眾生中生等心</text>		</g>
		<g id="shape4-7" v:mID="4" v:groupContext="shape" transform="translate(251.691,-122.386) rotate(-0.2)">
			<title>工作表.4</title>
			<desc>發度眾生心故</desc>
			<v:textBlock v:margins="rect(0,0,0,0)" v:tabSpace="42.5197"/>
			<v:textRect cx="33.8622" cy="146.998" width="67.73" height="13.5449"/>
			<rect x="0" y="140.225" width="67.7245" height="13.5449" class="st1"/>
			<text x="0" y="150.11" class="st2" v:langID="1028"><v:paragraph/><v:tabList/>發度眾生心故</text>		</g>
		<g id="shape5-10" v:mID="5" v:groupContext="shape" transform="translate(120.834,-103.742) rotate(-0.2)">
			<title>工作表.5</title>
			<desc>自行</desc>
			<v:textBlock v:margins="rect(0,0,0,0)" v:tabSpace="42.5197"/>
			<v:textRect cx="11.2874" cy="146.998" width="22.58" height="13.5449"/>
			<rect x="0" y="140.225" width="22.5748" height="13.5449" class="st1"/>
			<text x="0" y="150.11" class="st2" v:langID="1028"><v:paragraph/><v:tabList/>自行</text>		</g>
		<g id="shape6-13" v:mID="6" v:groupContext="shape" transform="translate(251.75,-105.455) rotate(-0.2)">
			<title>工作表.6</title>
			<desc>學諸佛故</desc>
			<v:textBlock v:margins="rect(0,0,0,0)" v:tabSpace="42.5197"/>
			<v:textRect cx="22.5748" cy="146.998" width="45.15" height="13.5449"/>
			<rect x="0" y="140.225" width="45.1496" height="13.5449" class="st1"/>
			<text x="-0" y="150.11" class="st2" v:langID="1028"><v:paragraph/><v:tabList/>學諸佛故</text>		</g>
		<g id="shape7-16" v:mID="7" v:groupContext="shape" transform="translate(84.3195,-78.4685) rotate(-0.2)">
			<title>工作表.7</title>
			<desc>現行</desc>
			<v:textBlock v:margins="rect(0,0,0,0)" v:tabSpace="42.5197"/>
			<v:textRect cx="11.2874" cy="146.998" width="22.58" height="13.5449"/>
			<rect x="0" y="140.225" width="22.5748" height="13.5449" class="st1"/>
			<text x="0" y="150.11" class="st2" v:langID="1028"><v:paragraph/><v:tabList/>現行</text>		</g>
		<g id="shape8-19" v:mID="8" v:groupContext="shape" transform="translate(251.809,-88.5236) rotate(-0.2)">
			<title>工作表.8</title>
			<desc>一切法中自性空故</desc>
			<v:textBlock v:margins="rect(0,0,0,0)" v:tabSpace="42.5197"/>
			<v:textRect cx="45.1496" cy="146.998" width="90.3" height="13.5449"/>
			<rect x="0" y="140.225" width="90.2993" height="13.5449" class="st1"/>
			<text x="0" y="150.11" class="st2" v:langID="1028"><v:paragraph/><v:tabList/>一切法中自性空故</text>		</g>
		<g id="shape9-22" v:mID="9" v:groupContext="shape" transform="translate(161.639,-72.3797) rotate(-0.2)">
			<title>工作表.9</title>
			<desc>於一切諸法等</desc>
			<v:textBlock v:margins="rect(0,0,0,0)" v:tabSpace="42.5197"/>
			<v:textRect cx="33.8622" cy="146.998" width="67.73" height="13.5449"/>
			<rect x="0" y="140.225" width="67.7245" height="13.5449" class="st1"/>
			<text x="0" y="150.11" class="st2" v:langID="1028"><v:paragraph/><v:tabList/>於一切諸法等</text>		</g>
		<g id="shape10-25" v:mID="10" v:groupContext="shape" transform="translate(0.260523,-46.8992) rotate(-0.2)">
			<title>工作表.10</title>
			<desc>菩薩行般若五相</desc>
			<v:textBlock v:margins="rect(0,0,0,0)" v:tabSpace="42.5197"/>
			<v:textRect cx="39.5059" cy="146.998" width="79.02" height="13.5449"/>
			<rect x="0" y="140.225" width="79.0119" height="13.5449" class="st1"/>
			<text x="0" y="150.11" class="st2" v:langID="1028"><v:paragraph/><v:tabList/>菩薩行般若五相</text>		</g>
		<g id="shape11-28" v:mID="11" v:groupContext="shape" transform="translate(122.252,-54.9152) rotate(-0.2)">
			<title>工作表.11</title>
			<desc>化他令一切眾生於法等中</desc>
			<v:textBlock v:margins="rect(0,0,0,0)" v:tabSpace="42.5197"/>
			<v:textRect cx="67.7245" cy="146.998" width="135.45" height="13.5449"/>
			<rect x="0" y="140.225" width="135.449" height="13.5449" class="st1"/>
			<text x="0" y="150.11" class="st2" v:langID="1028"><v:paragraph/><v:tabList/>化他－令一切眾生於法等中</text>		</g>
		<g id="shape12-31" v:mID="12" v:groupContext="shape" transform="translate(122.817,-26.1732) rotate(-0.2)">
			<title>工作表.12</title>
			<desc>現在</desc>
			<v:textBlock v:margins="rect(0,0,0,0)" v:tabSpace="42.5197"/>
			<v:textRect cx="11.2874" cy="146.998" width="22.58" height="13.5449"/>
			<rect x="0" y="140.225" width="22.5748" height="13.5449" class="st1"/>
			<text x="0" y="150.11" class="st2" v:langID="1028"><v:paragraph/><v:tabList/>現在</text>		</g>
		<g id="shape13-34" v:mID="13" v:groupContext="shape" transform="translate(161.817,-35.7599) rotate(-0.2)">
			<title>工作表.13</title>
			<desc>十方佛念</desc>
			<v:textBlock v:margins="rect(0,0,0,0)" v:tabSpace="42.5197"/>
			<v:textRect cx="22.5748" cy="146.998" width="45.15" height="13.5449"/>
			<rect x="0" y="140.225" width="45.1496" height="13.5449" class="st1"/>
			<text x="0" y="150.11" class="st2" v:langID="1028"><v:paragraph/><v:tabList/>十方佛念</text>		</g>
		<g id="shape14-37" v:mID="14" v:groupContext="shape" transform="translate(84.6448,-14.9901) rotate(-0.2)">
			<title>工作表.14</title>
			<desc>果報</desc>
			<v:textBlock v:margins="rect(0,0,0,0)" v:tabSpace="42.5197"/>
			<v:textRect cx="11.2874" cy="146.998" width="22.58" height="13.5449"/>
			<rect x="0" y="140.225" width="22.5748" height="13.5449" class="st1"/>
			<text x="0" y="150.11" class="st2" v:langID="1028"><v:paragraph/><v:tabList/>果報</text>		</g>
		<g id="shape15-40" v:mID="15" v:groupContext="shape" transform="translate(161.876,-18.8289) rotate(-0.2)">
			<title>工作表.15</title>
			<desc>賢聖所念</desc>
			<v:textBlock v:margins="rect(0,0,0,0)" v:tabSpace="42.5197"/>
			<v:textRect cx="22.5748" cy="146.998" width="45.15" height="13.5449"/>
			<rect x="0" y="140.225" width="45.1496" height="13.5449" class="st1"/>
			<text x="0" y="150.11" class="st2" v:langID="1028"><v:paragraph/><v:tabList/>賢聖所念</text>		</g>
		<g id="shape16-43" v:mID="16" v:groupContext="shape" transform="translate(263.721,41.9551) rotate(89.8)">
			<title>工作表.16</title>
			<path d="M0 144.93 C0 147.37 1.88 149.35 4.17 149.35 L22 149.35 C24.36 149.35 26.24 151.32 26.24 153.77 C26.24 151.32
						 28.13 149.35 30.41 149.35 L46.23 149.35 C48.58 149.35 50.47 147.37 50.47 144.93 L0 144.93 Z" class="st3"/>
			<path d="M0 144.93 C0 147.37 1.88 149.35 4.17 149.35 L22 149.35 C24.36 149.35 26.24 151.32 26.24 153.77 C26.24 151.32
						 28.13 149.35 30.41 149.35 L46.23 149.35 C48.58 149.35 50.47 147.37 50.47 144.93" class="st4"/>
		</g>
		<g id="shape17-46" v:mID="17" v:groupContext="shape" transform="translate(300.069,24.8193) rotate(89.8)">
			<title>工作表.17</title>
			<path d="M0 141.45 C0 144.83 1.88 147.56 4.23 147.56 L14.77 147.56 C17.12 147.56 18.91 150.38 18.91 153.77 C18.91 150.38
						 20.79 147.56 23.14 147.56 L46.28 147.56 C48.63 147.56 50.51 144.83 50.51 141.45 L0 141.45 Z" class="st3"/>
			<path d="M0 141.45 C0 144.83 1.88 147.56 4.23 147.56 L14.77 147.56 C17.12 147.56 18.91 150.38 18.91 153.77 C18.91 150.38
						 20.79 147.56 23.14 147.56 L46.28 147.56 C48.63 147.56 50.51 144.83 50.51 141.45" class="st4"/>
		</g>
		<g id="shape18-49" v:mID="18" v:groupContext="shape" transform="translate(229.15,64.0115) rotate(89.8)">
			<title>工作表.18</title>
			<path d="M0 146.81 C0 150.67 2.68 153.77 5.91 153.77 L64.97 153.77 C68.19 153.77 70.87 150.67 70.87 146.81 L0 146.81 Z"
					class="st3"/>
			<path d="M0 146.81 C0 150.67 2.68 153.77 5.91 153.77 L64.97 153.77 C68.19 153.77 70.87 150.67 70.87 146.81" class="st4"/>
		</g>
		<g id="shape19-52" v:mID="19" v:groupContext="shape" transform="translate(307.621,109.995) rotate(89.8)">
			<title>工作表.19</title>
			<path d="M0 145.3 C0 150.01 0.66 153.77 1.41 153.77 L15.52 153.77 C16.27 153.77 16.93 150.01 16.93 145.3 L0 145.3 Z"
					class="st3"/>
			<path d="M0 145.3 C0 150.01 0.66 153.77 1.41 153.77 L15.52 153.77 C16.27 153.77 16.93 150.01 16.93 145.3" class="st4"/>
		</g>
		<g id="shape20-55" v:mID="20" v:groupContext="shape" transform="translate(265.296,113.68) rotate(89.8)">
			<title>工作表.20</title>
			<path d="M0 145.3 C0 147.66 1.22 149.54 2.82 149.54 L14.11 149.54 C15.61 149.54 16.93 151.42 16.93 153.77 C16.93 151.42
						 18.15 149.54 19.75 149.54 L31.04 149.54 C32.55 149.54 33.86 147.66 33.86 145.3 L0 145.3 Z" class="st3"/>
			<path d="M0 145.3 C0 147.66 1.22 149.54 2.82 149.54 L14.11 149.54 C15.61 149.54 16.93 151.42 16.93 153.77 C16.93 151.42
						 18.15 149.54 19.75 149.54 L31.04 149.54 C32.55 149.54 33.86 147.66 33.86 145.3" class="st4"/>
		</g>
		<g id="shape21-58" v:mID="21" v:groupContext="shape" transform="translate(236.158,-129.101)">
			<title>工作表.21</title>
			<path d="M0 153.77 L5.97 153.77" class="st4"/>
		</g>
		<g id="shape22-61" v:mID="22" v:groupContext="shape" transform="translate(395.839,7.20093) rotate(89.8)">
			<title>工作表.22</title>
			<path d="M0 148.51 C0 151.43 1.88 153.77 4.23 153.77 L46.56 153.77 C48.91 153.77 50.79 151.43 50.79 148.51 L0 148.51 Z"
					class="st3"/>
			<path d="M0 148.51 C0 151.43 1.88 153.77 4.23 153.77 L46.56 153.77 C48.91 153.77 50.79 151.43 50.79 148.51" class="st4"/>
		</g>
		<g id="shape23-64" v:mID="23" v:groupContext="shape" transform="translate(122.586,-0.749063) rotate(-0.2)">
			<title>工作表.23</title>
			<desc>未來隨所生處、六塵常妙</desc>
			<v:textBlock v:margins="rect(0,0,0,0)" v:tabSpace="42.5197"/>
			<v:textRect cx="67.7245" cy="146.998" width="135.45" height="13.5449"/>
			<rect x="0" y="140.225" width="135.449" height="13.5449" class="st1"/>
			<text x="0" y="150.11" class="st2" v:langID="1028"><v:paragraph/><v:tabList/>未來－隨所生處、六塵常妙</text>		</g>
	</g>
</svg>
