<?xml version="1.0" encoding="UTF-8" standalone="no"?>
<!DOCTYPE svg PUBLIC "-//W3C//DTD SVG 1.1//EN" "http://www.w3.org/Graphics/SVG/1.1/DTD/svg11.dtd">
<!-- 由 Microsoft Visio, SVG Export 產生 M040.p1156=F4001.svg 頁-1 -->
<svg xmlns="http://www.w3.org/2000/svg" xmlns:xlink="http://www.w3.org/1999/xlink" xmlns:ev="http://www.w3.org/2001/xml-events"
		xmlns:v="http://schemas.microsoft.com/visio/2003/SVGExtensions/" width="7.24615in" height="2.43078in"
		viewBox="0 0 521.723 175.016" xml:space="preserve" color-interpolation-filters="sRGB" class="st14">
	<v:documentProperties v:langID="1028" v:viewMarkup="false"/>

	<style type="text/css">
	<![CDATA[
		.st1 {fill:none;stroke:none;stroke-linecap:butt;stroke-width:0.75}
		.st2 {fill:#000000;font-family:新細明體;font-size:1.00001em}
		.st3 {fill:#000000;font-family:新細明體;font-size:1.00001em;letter-spacing:0.333331em}
		.st4 {font-size:1em;letter-spacing:0em}
		.st5 {baseline-shift:32.4941%;font-family:Times New Roman;font-size:0.649882em}
		.st6 {stroke:#000000;stroke-linecap:round;stroke-linejoin:round;stroke-width:0.705463}
		.st7 {fill:none}
		.st8 {stroke:#000000;stroke-dasharray:2.11639,2.11639;stroke-linecap:round;stroke-linejoin:round;stroke-width:0.705463}
		.st9 {fill:none;stroke:none;stroke-linecap:round;stroke-linejoin:round;stroke-width:0.75}
		.st10 {fill:#000000;font-family:Times New Roman;font-size:0.974343em}
		.st11 {baseline-shift:33.35%;font-size:0.667em}
		.st12 {font-size:1.02634em}
		.st13 {font-family:新細明體;font-size:1.02634em}
		.st14 {fill:none;fill-rule:evenodd;font-size:12px;overflow:visible;stroke-linecap:square;stroke-miterlimit:3}
	]]>
	</style>

	<g v:mID="0" v:index="1" v:groupContext="foregroundPage">
		<title>頁-1</title>
		<v:pageProperties v:drawingScale="0.0393701" v:pageScale="0.0393701" v:drawingUnits="24" v:shadowOffsetX="9"
				v:shadowOffsetY="-9"/>
		<g id="group63-1" transform="translate(0.375,-0.375)" v:mID="63" v:groupContext="group">
			<title>工作表.63</title>
			<g id="shape3-2" v:mID="3" v:groupContext="shape" transform="translate(75.4557,-145.946) rotate(-0.2)">
				<title>工作表.3</title>
				<desc>隨信行</desc>
				<v:textBlock v:margins="rect(0,0,0,0)" v:tabSpace="42.5197"/>
				<v:textRect cx="21.2546" cy="168.244" width="42.51" height="13.5449"/>
				<rect x="0" y="161.471" width="42.5091" height="13.5449" class="st1"/>
				<text x="0" y="171.98" class="st2" v:langID="1028"><v:paragraph/><v:tabList/>隨信行</text>			</g>
			<g id="shape4-5" v:mID="4" v:groupContext="shape" transform="translate(305.703,-146.793) rotate(-0.2)">
				<title>工作表.4</title>
				<desc>行三解脫門</desc>
				<v:textBlock v:margins="rect(0,0,0,0)" v:tabSpace="42.5197"/>
				<v:textRect cx="33.6245" cy="168.244" width="67.25" height="13.5449"/>
				<rect x="0" y="161.471" width="67.2489" height="13.5449" class="st1"/>
				<text x="0" y="171.98" class="st2" v:langID="1028"><v:paragraph/><v:tabList/>行三解脫門</text>			</g>
			<g id="shape5-8" v:mID="5" v:groupContext="shape" transform="translate(75.5148,-129.015) rotate(-0.2)">
				<title>工作表.5</title>
				<desc>隨法行</desc>
				<v:textBlock v:margins="rect(0,0,0,0)" v:tabSpace="42.5197"/>
				<v:textRect cx="21.2249" cy="168.244" width="42.45" height="13.5449"/>
				<rect x="0" y="161.471" width="42.4498" height="13.5449" class="st1"/>
				<text x="0" y="171.98" class="st2" v:langID="1028"><v:paragraph/><v:tabList/>隨法行</text>			</g>
			<g id="shape6-11" v:mID="6" v:groupContext="shape" transform="translate(305.762,-129.862) rotate(-0.2)">
				<title>工作表.6</title>
				<desc>得</desc>
				<v:textBlock v:margins="rect(0,0,0,0)" v:tabSpace="42.5197"/>
				<v:textRect cx="6.72489" cy="168.244" width="13.45" height="13.5449"/>
				<rect x="0" y="161.471" width="13.4498" height="13.5449" class="st1"/>
				<text x="0" y="171.98" class="st2" v:langID="1028"><v:paragraph/><v:tabList/>得</text>			</g>
			<g id="shape7-14" v:mID="7" v:groupContext="shape" transform="translate(329.181,-129.941) rotate(-0.2)">
				<title>工作表.7</title>
				<desc>五</desc>
				<v:textBlock v:margins="rect(0,0,0,0)" v:tabSpace="42.5197"/>
				<v:textRect cx="5.64371" cy="168.244" width="11.29" height="13.5449"/>
				<rect x="0" y="161.471" width="11.2874" height="13.5449" class="st1"/>
				<text x="0" y="171.98" class="st2" v:langID="1028"><v:paragraph/><v:tabList/>五</text>			</g>
			<g id="shape8-17" v:mID="8" v:groupContext="shape" transform="translate(353.276,-130.02) rotate(-0.2)">
				<title>工作表.8</title>
				<desc>根</desc>
				<v:textBlock v:margins="rect(0,0,0,0)" v:tabSpace="42.5197"/>
				<v:textRect cx="5.64371" cy="168.244" width="11.29" height="13.5449"/>
				<rect x="0" y="161.471" width="11.2874" height="13.5449" class="st1"/>
				<text x="0" y="171.98" class="st2" v:langID="1028"><v:paragraph/><v:tabList/>根</text>			</g>
			<g id="shape9-20" v:mID="9" v:groupContext="shape" transform="translate(19.1372,-111.887) rotate(-0.2)">
				<title>工作表.9</title>
				<desc>小乘行位聲聞</desc>
				<v:textBlock v:margins="rect(0,0,0,0)" v:tabSpace="42.5197"/>
				<v:textRect cx="52.2484" cy="168.244" width="104.5" height="13.5449"/>
				<rect x="0" y="161.471" width="104.497" height="13.5449" class="st1"/>
				<text x="0" y="171.98" class="st2" v:langID="1028"><v:paragraph/><v:tabList/>小乘行位（聲聞）</text>			</g>
			<g id="shape10-23" v:mID="10" v:groupContext="shape" transform="translate(179.272,-112.458) rotate(-0.2)">
				<title>工作表.10</title>
				<desc>無相行十五心</desc>
				<v:textBlock v:margins="rect(0,0,0,0)" v:tabSpace="42.5197"/>
				<v:textRect cx="50.1435" cy="168.244" width="100.29" height="13.5449"/>
				<rect x="0" y="161.471" width="100.287" height="13.5449" class="st1"/>
				<text x="0" y="171.98" class="st2" v:langID="1028"><v:paragraph/><v:tabList/>無相行（十五心）</text>			</g>
			<g id="shape12-26" v:mID="12" v:groupContext="shape" transform="translate(305.821,-112.931) rotate(-0.2)">
				<title>工作表.12</title>
				<desc>得無間三昧</desc>
				<v:textBlock v:margins="rect(0,0,0,0)" v:tabSpace="42.5197"/>
				<v:textRect cx="33.6245" cy="168.244" width="67.25" height="13.5449"/>
				<rect x="0" y="161.471" width="67.2489" height="13.5449" class="st1"/>
				<text x="0" y="171.98" class="st2" v:langID="1028"><v:paragraph/><v:tabList/>得無間三昧</text>			</g>
			<g id="shape13-29" v:mID="13" v:groupContext="shape" transform="translate(305.88,-96.0002) rotate(-0.2)">
				<title>工作表.13</title>
				<desc>得解脫智</desc>
				<v:textBlock v:margins="rect(0,0,0,0)"/>
				<v:textRect cx="30.262" cy="168.244" width="60.53" height="13.5449"/>
				<rect x="0" y="161.471" width="60.524" height="13.5449" class="st1"/>
				<text x="0" y="171.98" class="st3" v:langID="1028"><v:paragraph/><v:tabList/>得解脫<tspan class="st4">智</tspan></text>			</g>
			<g id="shape14-33" v:mID="14" v:groupContext="shape" transform="translate(179.438,-78.6163) rotate(-0.2)">
				<title>工作表.14</title>
				<desc>須陀洹</desc>
				<v:textBlock v:margins="rect(0,0,0,0)" v:tabSpace="42.5197"/>
				<v:textRect cx="21.3882" cy="168.244" width="42.78" height="13.5449"/>
				<rect x="0" y="161.471" width="42.7763" height="13.5449" class="st1"/>
				<text x="0" y="171.98" class="st2" v:langID="1028"><v:paragraph/><v:tabList/>須陀洹</text>			</g>
			<g id="shape15-36" v:mID="15" v:groupContext="shape" transform="translate(305.939,-79.0692) rotate(-0.2)">
				<title>工作表.15</title>
				<desc>斷三結</desc>
				<v:textBlock v:margins="rect(0,0,0,0)" v:tabSpace="42.5197"/>
				<v:textRect cx="20.1747" cy="168.244" width="40.35" height="13.5449"/>
				<rect x="0" y="161.471" width="40.3493" height="13.5449" class="st1"/>
				<text x="0" y="171.98" class="st2" v:langID="1028"><v:paragraph/><v:tabList/>斷三結</text>			</g>
			<g id="shape16-39" v:mID="16" v:groupContext="shape" transform="translate(361.776,-79.2666) rotate(-0.2)">
				<title>工作表.16</title>
				<desc>知集法是滅</desc>
				<v:textBlock v:margins="rect(0,0,0,0)" v:tabSpace="42.5197"/>
				<v:textRect cx="33.7519" cy="168.244" width="67.51" height="13.5449"/>
				<rect x="0" y="161.471" width="67.5038" height="13.5449" class="st1"/>
				<text x="0" y="171.98" class="st2" v:langID="1028"><v:paragraph/><v:tabList/>知集法是滅</text>			</g>
			<g id="shape18-42" v:mID="18" v:groupContext="shape" transform="translate(463.362,-79.6213) rotate(-0.2)">
				<title>工作表.18</title>
				<desc>成辟支佛</desc>
				<v:textBlock v:margins="rect(0,0,0,0)" v:tabSpace="42.5197"/>
				<v:textRect cx="28.3126" cy="168.244" width="56.63" height="13.5449"/>
				<rect x="0" y="161.471" width="56.6252" height="13.5449" class="st1"/>
				<text x="0" y="171.98" class="st2" v:langID="1028"><v:paragraph/><v:tabList/>成辟支佛</text>			</g>
			<g id="shape20-45" v:mID="20" v:groupContext="shape" transform="translate(179.497,-61.6851) rotate(-0.2)">
				<title>工作表.20</title>
				<desc>斯陀含</desc>
				<v:textBlock v:margins="rect(0,0,0,0)" v:tabSpace="42.5197"/>
				<v:textRect cx="21.3882" cy="168.244" width="42.78" height="13.5449"/>
				<rect x="0" y="161.471" width="42.7763" height="13.5449" class="st1"/>
				<text x="0" y="171.98" class="st2" v:langID="1028"><v:paragraph/><v:tabList/>斯陀含</text>			</g>
			<g id="shape22-48" v:mID="22" v:groupContext="shape" transform="translate(241.489,-61.8821) rotate(-0.2)">
				<title>工作表.22</title>
				<desc>思惟道薄婬怒痴</desc>
				<v:textBlock v:margins="rect(0,0,0,0)" v:tabSpace="42.5197"/>
				<v:textRect cx="50.1653" cy="168.244" width="100.34" height="13.5449"/>
				<rect x="0" y="161.471" width="100.331" height="13.5449" class="st1"/>
				<text x="0" y="171.98" class="st2" v:langID="1028"><v:paragraph/><v:tabList/>思惟道，薄婬怒痴</text>			</g>
			<g id="shape23-51" v:mID="23" v:groupContext="shape" transform="translate(179.556,-44.754) rotate(-0.2)">
				<title>工作表.23</title>
				<desc>阿那含</desc>
				<v:textBlock v:margins="rect(0,0,0,0)" v:tabSpace="42.5197"/>
				<v:textRect cx="21.3882" cy="168.244" width="42.78" height="13.5449"/>
				<rect x="0" y="161.471" width="42.7763" height="13.5449" class="st1"/>
				<text x="0" y="171.98" class="st2" v:langID="1028"><v:paragraph/><v:tabList/>阿那含</text>			</g>
			<g id="shape25-54" v:mID="25" v:groupContext="shape" transform="translate(241.548,-44.951) rotate(-0.2)">
				<title>工作表.25</title>
				<desc>斷婬恚痴141</desc>
				<v:textBlock v:margins="rect(0,0,0,0)" v:tabSpace="42.5197"/>
				<v:textRect cx="32.9041" cy="168.244" width="65.81" height="13.5449"/>
				<rect x="0" y="161.471" width="65.8081" height="13.5449" class="st1"/>
				<text x="0" y="171.98" class="st2" v:langID="1028"><v:paragraph/><v:tabList/>斷婬恚痴<tspan dy="-0.198em" class="st5"
							v:baseFontSize="12">141</tspan></text>			</g>
			<g id="shape26-58" v:mID="26" v:groupContext="shape" transform="translate(200.083,-131.145) rotate(29.3469)">
				<title>工作表.26</title>
				<path d="M0 175.02 L69.92 175.02" class="st6"/>
			</g>
			<g id="shape27-61" v:mID="27" v:groupContext="shape" transform="translate(162.939,-129.528) rotate(15.6505)">
				<title>工作表.27</title>
				<path d="M0 175.02 L61.82 175.02" class="st6"/>
			</g>
			<g id="shape28-64" v:mID="28" v:groupContext="shape" transform="translate(99.5307,-135.265) rotate(-5.30932)">
				<title>工作表.28</title>
				<path d="M0 175.02 L184.82 175.02" class="st6"/>
			</g>
			<g id="shape29-67" v:mID="29" v:groupContext="shape" transform="translate(115.073,-153.606) rotate(0.151268)">
				<title>工作表.29</title>
				<path d="M0 175.02 L185.14 175.02" class="st6"/>
			</g>
			<g id="shape30-70" v:mID="30" v:groupContext="shape" transform="translate(268.387,-119.33) rotate(-0.597855)">
				<title>工作表.30</title>
				<path d="M0 175.02 L29.75 175.02" class="st6"/>
			</g>
			<g id="shape31-73" v:mID="31" v:groupContext="shape" transform="translate(183.418,-81.9283) rotate(-11.6894)">
				<title>工作表.31</title>
				<path d="M0 175.02 L82.79 175.02" class="st6"/>
			</g>
			<g id="shape32-76" v:mID="32" v:groupContext="shape" transform="translate(217.574,-85.5532) rotate(-0.426532)">
				<title>工作表.32</title>
				<path d="M0 175.02 L81.07 175.02" class="st6"/>
			</g>
			<g id="shape33-79" v:mID="33" v:groupContext="shape" transform="translate(357.081,-96.2595) rotate(29.7582)">
				<title>工作表.33</title>
				<path d="M0 175.02 L34.27 175.02" class="st6"/>
			</g>
			<g id="shape34-82" v:mID="34" v:groupContext="shape" transform="translate(195.616,-102.645) rotate(-25.2287)">
				<title>工作表.34</title>
				<path d="M0 175.02 L32.92 175.02" class="st6"/>
			</g>
			<g id="shape35-85" v:mID="35" v:groupContext="shape" transform="translate(243.747,-96.3871) rotate(47.6958)">
				<title>工作表.35</title>
				<path d="M0 175.02 L91.56 175.02" class="st6"/>
			</g>
			<g id="shape36-88" v:mID="36" v:groupContext="shape" transform="translate(46.2207,223.158) rotate(-132.088)">
				<title>工作表.36</title>
				<path d="M0 175.02 L90.08 175.02" class="st6"/>
			</g>
			<g id="shape37-91" v:mID="37" v:groupContext="shape" transform="translate(34.8682,209.21) rotate(-126.198)">
				<title>工作表.37</title>
				<path d="M0 175.02 L104.64 175.02" class="st6"/>
			</g>
			<g id="shape38-94" v:mID="38" v:groupContext="shape" transform="translate(227.705,-95.5033) rotate(39.7789)">
				<title>工作表.38</title>
				<path d="M0 175.02 L78.34 175.02" class="st6"/>
			</g>
			<g id="shape39-97" v:mID="39" v:groupContext="shape" transform="translate(287.627,9.81177) rotate(89.8)">
				<title>工作表.39</title>
				<path d="M0 120.87 C11.64 146.64 28.12 165.46 47.19 175.02 L0 120.87 Z" class="st7"/>
				<path d="M0 120.87 C11.64 146.64 28.12 165.46 47.19 175.02" class="st8"/>
			</g>
			<g id="shape40-100" v:mID="40" v:groupContext="shape" transform="translate(287.843,55.1851) rotate(89.8)">
				<title>工作表.40</title>
				<path d="M86.57 112.66 C78.27 138.47 45.24 162.3 0 175.02 L86.57 112.66 Z" class="st7"/>
				<path d="M86.57 112.66 C78.27 138.47 45.24 162.3 0 175.02" class="st8"/>
			</g>
			<g id="shape41-103" v:mID="41" v:groupContext="shape" transform="translate(343.281,0.223616) rotate(89.8)">
				<title>工作表.41</title>
				<path d="M21.26 43.37 C7.15 67.72 0 97.44 1.01 127.83 C1.51 143.95 4.23 159.99 9.07 175.02 L21.26 43.37 Z"
						class="st7"/>
				<path d="M21.26 43.37 C7.15 67.72 0 97.44 1.01 127.83 C1.51 143.95 4.23 159.99 9.07 175.02" class="st8"/>
			</g>
			<g id="shape42-106" v:mID="42" v:groupContext="shape" transform="translate(542.776,20.5836) rotate(89.8)">
				<title>工作表.42</title>
				<path d="M0 175.02 C0 143.6 30.29 118.11 67.63 118.11 L0 175.02 Z" class="st7"/>
				<path d="M0 175.02 C0 143.6 30.29 118.11 67.63 118.11" class="st8"/>
			</g>
			<g id="shape43-109" v:mID="43" v:groupContext="shape" transform="translate(542.835,37.5146) rotate(89.8)">
				<title>工作表.43</title>
				<path d="M0 175.02 C0 143.6 22.67 118.11 50.7 118.11 L0 175.02 Z" class="st7"/>
				<path d="M0 175.02 C0 143.6 22.67 118.11 50.7 118.11" class="st8"/>
			</g>
			<g id="shape44-112" v:mID="44" v:groupContext="shape" transform="translate(542.894,54.4456) rotate(89.8)">
				<title>工作表.44</title>
				<path d="M0 175.02 C0 143.6 15.14 118.11 33.77 118.11 L0 175.02 Z" class="st7"/>
				<path d="M0 175.02 C0 143.6 15.14 118.11 33.77 118.11" class="st8"/>
			</g>
			<g id="shape45-115" v:mID="45" v:groupContext="shape" transform="translate(543.9,71.3733) rotate(89.8)">
				<title>工作表.45</title>
				<path d="M0.19 175.02 C0.09 172.71 0 170.31 0 168.01 C0 141.18 7.57 119.45 17.04 119.45 L0.19 175.02 Z" class="st7"/>
				<path d="M0.19 175.02 C0.09 172.71 0 170.31 0 168.01 C0 141.18 7.57 119.45 17.04 119.45" class="st8"/>
			</g>
			<g id="shape46-118" v:mID="46" v:groupContext="shape" transform="translate(180.258,-25.9164) rotate(-0.2)">
				<title>工作表.46</title>
				<desc>阿羅漢</desc>
				<v:textBlock v:margins="rect(0,0,0,0)" v:tabSpace="42.5197"/>
				<v:textRect cx="21.3882" cy="168.244" width="42.78" height="13.5449"/>
				<rect x="0" y="161.471" width="42.7763" height="13.5449" class="st1"/>
				<text x="0" y="171.98" class="st2" v:langID="1028"><v:paragraph/><v:tabList/>阿羅漢</text>			</g>
			<g id="shape48-121" v:mID="48" v:groupContext="shape" transform="translate(242.173,-26.1131) rotate(-0.2)">
				<title>工作表.48</title>
				<desc>斷五上分結</desc>
				<v:textBlock v:margins="rect(0,0,0,0)" v:tabSpace="42.5197"/>
				<v:textRect cx="31.3533" cy="168.244" width="62.71" height="13.5449"/>
				<rect x="0" y="161.471" width="62.7066" height="13.5449" class="st1"/>
				<text x="0" y="171.98" class="st2" v:langID="1028"><v:paragraph/><v:tabList/>斷五上分結</text>			</g>
			<g id="shape50-124" v:mID="50" v:groupContext="shape" transform="translate(218.385,-68.3156)">
				<title>工作表.50</title>
				<path d="M0 175.02 L21.19 175.02" class="st6"/>
			</g>
			<g id="shape51-127" v:mID="51" v:groupContext="shape" transform="translate(218.385,-51.3078)">
				<title>工作表.51</title>
				<path d="M0 175.02 L21.19 175.02" class="st6"/>
			</g>
			<g id="shape52-130" v:mID="52" v:groupContext="shape" transform="translate(218.385,-32.808)">
				<title>工作表.52</title>
				<path d="M0 175.02 L21.19 175.02" class="st6"/>
			</g>
			<g id="shape53-133" v:mID="53" v:groupContext="shape" transform="translate(424.904,-86.3902)">
				<title>工作表.53</title>
				<path d="M0 175.02 L36 175.02" class="st6"/>
			</g>
			<g id="shape57-136" v:mID="57" v:groupContext="shape" transform="translate(30.1568,215.817) rotate(-122.302)">
				<title>工作表.57</title>
				<path d="M0 175.02 L119.35 175.02" class="st6"/>
			</g>
			<g id="shape58-139" v:mID="58" v:groupContext="shape" transform="translate(37.9891,227.186) rotate(-126.823)">
				<title>工作表.58</title>
				<path d="M0 175.02 L104.05 175.02" class="st6"/>
			</g>
			<g id="shape62-142" v:mID="62" v:groupContext="shape">
				<title>工作表.62</title>
				<desc>141 案導師筆記原「隨信行」、「隨法行」並無與「阿那含」相連今依經文與論義增補。</desc>
				<v:textBlock v:margins="rect(4,4,4,4)" v:tabSpace="42.5197"/>
				<v:textRect cx="247.252" cy="166.399" width="494.51" height="17.2348"/>
				<rect x="0" y="157.781" width="494.504" height="17.2348" class="st9"/>
				<text x="4" y="168.59" class="st10" v:langID="1028"><v:paragraph/><v:tabList/><tspan class="st11">141</tspan><tspan
							dy="0.129em" class="st12"> </tspan><tspan class="st13">案</tspan><tspan class="st13">：</tspan><tspan
							class="st13">導師筆記原</tspan><tspan class="st13">「</tspan><tspan class="st13">隨信行</tspan><tspan
							class="st13">」、「</tspan><tspan class="st13">隨法行</tspan><tspan class="st13">」</tspan><tspan class="st13">並無與</tspan><tspan
							class="st13">「</tspan><tspan class="st13">阿那含</tspan><tspan class="st13">」</tspan><tspan class="st13">相連</tspan><tspan
							class="st13">，</tspan><tspan class="st13">今依經文與論義增補</tspan><tspan class="st13">。</tspan></text>			</g>
		</g>
	</g>
</svg>
