<?xml version="1.0" encoding="UTF-8" standalone="no"?>
<!DOCTYPE svg PUBLIC "-//W3C//DTD SVG 1.1//EN" "http://www.w3.org/Graphics/SVG/1.1/DTD/svg11.dtd">
<!-- 由 Microsoft Visio, SVG Export 產生 (M040.p1156)(F4001).svg 頁-1 -->
<svg xmlns="http://www.w3.org/2000/svg" xmlns:xlink="http://www.w3.org/1999/xlink" xmlns:ev="http://www.w3.org/2001/xml-events"
		xmlns:v="http://schemas.microsoft.com/visio/2003/SVGExtensions/" width="6.97774in" height="2.07602in"
		viewBox="0 0 502.397 149.474" xml:space="preserve" color-interpolation-filters="sRGB" class="st9">
	<v:documentProperties v:langID="1028" v:viewMarkup="false"/>

	<style type="text/css">
	<![CDATA[
		.st1 {fill:none;stroke:none;stroke-linecap:butt;stroke-width:0.75}
		.st2 {fill:#000000;font-family:新細明體;font-size:1.00001em}
		.st3 {fill:#000000;font-family:新細明體;font-size:1.00001em;letter-spacing:0.333331em}
		.st4 {font-size:1em;letter-spacing:0em}
		.st5 {baseline-shift:32.4941%;font-family:Times New Roman;font-size:0.649882em}
		.st6 {stroke:#000000;stroke-linecap:round;stroke-linejoin:round;stroke-width:0.705463}
		.st7 {fill:none}
		.st8 {stroke:#000000;stroke-dasharray:2.11639,2.11639;stroke-linecap:round;stroke-linejoin:round;stroke-width:0.705463}
		.st9 {fill:none;fill-rule:evenodd;font-size:12px;overflow:visible;stroke-linecap:square;stroke-miterlimit:3}
	]]>
	</style>

	<g v:mID="0" v:index="1" v:groupContext="foregroundPage">
		<title>頁-1</title>
		<v:pageProperties v:drawingScale="0.0393701" v:pageScale="0.0393701" v:drawingUnits="24" v:shadowOffsetX="9"
				v:shadowOffsetY="-9"/>
		<g id="group54-1" transform="translate(0.75,-0.75)" v:mID="54" v:groupContext="group">
			<title>工作表.54</title>
			<g id="shape3-2" v:mID="3" v:groupContext="shape" transform="translate(55.844,-120.029) rotate(-0.2)">
				<title>工作表.3</title>
				<desc>隨信行</desc>
				<v:textBlock v:margins="rect(0,0,0,0)" v:tabSpace="42.5197"/>
				<v:textRect cx="21.2546" cy="142.701" width="42.51" height="13.5449"/>
				<rect x="0" y="135.929" width="42.5091" height="13.5449" class="st1"/>
				<text x="0" y="146.44" class="st2" v:langID="1028"><v:paragraph/><v:tabList/>隨信行</text>			</g>
			<g id="shape4-5" v:mID="4" v:groupContext="shape" transform="translate(286.091,-120.876) rotate(-0.2)">
				<title>工作表.4</title>
				<desc>行三解脫門</desc>
				<v:textBlock v:margins="rect(0,0,0,0)" v:tabSpace="42.5197"/>
				<v:textRect cx="33.6245" cy="142.701" width="67.25" height="13.5449"/>
				<rect x="0" y="135.929" width="67.2489" height="13.5449" class="st1"/>
				<text x="0" y="146.44" class="st2" v:langID="1028"><v:paragraph/><v:tabList/>行三解脫門</text>			</g>
			<g id="shape5-8" v:mID="5" v:groupContext="shape" transform="translate(55.9031,-103.098) rotate(-0.2)">
				<title>工作表.5</title>
				<desc>隨法行</desc>
				<v:textBlock v:margins="rect(0,0,0,0)" v:tabSpace="42.5197"/>
				<v:textRect cx="21.2249" cy="142.701" width="42.45" height="13.5449"/>
				<rect x="0" y="135.929" width="42.4498" height="13.5449" class="st1"/>
				<text x="0" y="146.44" class="st2" v:langID="1028"><v:paragraph/><v:tabList/>隨法行</text>			</g>
			<g id="shape6-11" v:mID="6" v:groupContext="shape" transform="translate(286.15,-103.945) rotate(-0.2)">
				<title>工作表.6</title>
				<desc>得</desc>
				<v:textBlock v:margins="rect(0,0,0,0)" v:tabSpace="42.5197"/>
				<v:textRect cx="6.72489" cy="142.701" width="13.45" height="13.5449"/>
				<rect x="0" y="135.929" width="13.4498" height="13.5449" class="st1"/>
				<text x="0" y="146.44" class="st2" v:langID="1028"><v:paragraph/><v:tabList/>得</text>			</g>
			<g id="shape7-14" v:mID="7" v:groupContext="shape" transform="translate(309.57,-104.024) rotate(-0.2)">
				<title>工作表.7</title>
				<desc>五</desc>
				<v:textBlock v:margins="rect(0,0,0,0)" v:tabSpace="42.5197"/>
				<v:textRect cx="5.64371" cy="142.701" width="11.29" height="13.5449"/>
				<rect x="0" y="135.929" width="11.2874" height="13.5449" class="st1"/>
				<text x="0" y="146.44" class="st2" v:langID="1028"><v:paragraph/><v:tabList/>五</text>			</g>
			<g id="shape8-17" v:mID="8" v:groupContext="shape" transform="translate(333.664,-104.103) rotate(-0.2)">
				<title>工作表.8</title>
				<desc>根</desc>
				<v:textBlock v:margins="rect(0,0,0,0)" v:tabSpace="42.5197"/>
				<v:textRect cx="5.64371" cy="142.701" width="11.29" height="13.5449"/>
				<rect x="0" y="135.929" width="11.2874" height="13.5449" class="st1"/>
				<text x="0" y="146.44" class="st2" v:langID="1028"><v:paragraph/><v:tabList/>根</text>			</g>
			<g id="shape9-20" v:mID="9" v:groupContext="shape" transform="translate(-0.47448,-85.9698) rotate(-0.2)">
				<title>工作表.9</title>
				<desc>小乘行位聲聞</desc>
				<v:textBlock v:margins="rect(0,0,0,0)" v:tabSpace="42.5197"/>
				<v:textRect cx="52.2484" cy="142.701" width="104.5" height="13.5449"/>
				<rect x="0" y="135.929" width="104.497" height="13.5449" class="st1"/>
				<text x="0" y="146.44" class="st2" v:langID="1028"><v:paragraph/><v:tabList/>小乘行位（聲聞）</text>			</g>
			<g id="shape10-23" v:mID="10" v:groupContext="shape" transform="translate(159.66,-86.5411) rotate(-0.2)">
				<title>工作表.10</title>
				<desc>無相行十五心</desc>
				<v:textBlock v:margins="rect(0,0,0,0)" v:tabSpace="42.5197"/>
				<v:textRect cx="50.1435" cy="142.701" width="100.29" height="13.5449"/>
				<rect x="0" y="135.929" width="100.287" height="13.5449" class="st1"/>
				<text x="0" y="146.44" class="st2" v:langID="1028"><v:paragraph/><v:tabList/>無相行（十五心）</text>			</g>
			<g id="shape12-26" v:mID="12" v:groupContext="shape" transform="translate(286.209,-87.0139) rotate(-0.2)">
				<title>工作表.12</title>
				<desc>得無間三昧</desc>
				<v:textBlock v:margins="rect(0,0,0,0)" v:tabSpace="42.5197"/>
				<v:textRect cx="33.6245" cy="142.701" width="67.25" height="13.5449"/>
				<rect x="0" y="135.929" width="67.2489" height="13.5449" class="st1"/>
				<text x="0" y="146.44" class="st2" v:langID="1028"><v:paragraph/><v:tabList/>得無間三昧</text>			</g>
			<g id="shape13-29" v:mID="13" v:groupContext="shape" transform="translate(286.269,-70.0829) rotate(-0.2)">
				<title>工作表.13</title>
				<desc>得解脫智</desc>
				<v:textBlock v:margins="rect(0,0,0,0)"/>
				<v:textRect cx="30.262" cy="142.701" width="60.53" height="13.5449"/>
				<rect x="0" y="135.929" width="60.524" height="13.5449" class="st1"/>
				<text x="0" y="146.44" class="st3" v:langID="1028"><v:paragraph/><v:tabList/>得解脫<tspan class="st4">智</tspan></text>			</g>
			<g id="shape14-33" v:mID="14" v:groupContext="shape" transform="translate(159.826,-52.699) rotate(-0.2)">
				<title>工作表.14</title>
				<desc>須陀洹</desc>
				<v:textBlock v:margins="rect(0,0,0,0)" v:tabSpace="42.5197"/>
				<v:textRect cx="21.3882" cy="142.701" width="42.78" height="13.5449"/>
				<rect x="0" y="135.929" width="42.7763" height="13.5449" class="st1"/>
				<text x="0" y="146.44" class="st2" v:langID="1028"><v:paragraph/><v:tabList/>須陀洹</text>			</g>
			<g id="shape15-36" v:mID="15" v:groupContext="shape" transform="translate(286.328,-53.1519) rotate(-0.2)">
				<title>工作表.15</title>
				<desc>斷三結</desc>
				<v:textBlock v:margins="rect(0,0,0,0)" v:tabSpace="42.5197"/>
				<v:textRect cx="20.1747" cy="142.701" width="40.35" height="13.5449"/>
				<rect x="0" y="135.929" width="40.3493" height="13.5449" class="st1"/>
				<text x="0" y="146.44" class="st2" v:langID="1028"><v:paragraph/><v:tabList/>斷三結</text>			</g>
			<g id="shape16-39" v:mID="16" v:groupContext="shape" transform="translate(342.164,-53.3493) rotate(-0.2)">
				<title>工作表.16</title>
				<desc>知集法是滅</desc>
				<v:textBlock v:margins="rect(0,0,0,0)" v:tabSpace="42.5197"/>
				<v:textRect cx="33.7519" cy="142.701" width="67.51" height="13.5449"/>
				<rect x="0" y="135.929" width="67.5038" height="13.5449" class="st1"/>
				<text x="0" y="146.44" class="st2" v:langID="1028"><v:paragraph/><v:tabList/>知集法是滅</text>			</g>
			<g id="shape18-42" v:mID="18" v:groupContext="shape" transform="translate(443.75,-53.7039) rotate(-0.2)">
				<title>工作表.18</title>
				<desc>成辟支佛</desc>
				<v:textBlock v:margins="rect(0,0,0,0)" v:tabSpace="42.5197"/>
				<v:textRect cx="28.3126" cy="142.701" width="56.63" height="13.5449"/>
				<rect x="0" y="135.929" width="56.6252" height="13.5449" class="st1"/>
				<text x="0" y="146.44" class="st2" v:langID="1028"><v:paragraph/><v:tabList/>成辟支佛</text>			</g>
			<g id="shape20-45" v:mID="20" v:groupContext="shape" transform="translate(159.886,-35.7678) rotate(-0.2)">
				<title>工作表.20</title>
				<desc>斯陀含</desc>
				<v:textBlock v:margins="rect(0,0,0,0)" v:tabSpace="42.5197"/>
				<v:textRect cx="21.3882" cy="142.701" width="42.78" height="13.5449"/>
				<rect x="0" y="135.929" width="42.7763" height="13.5449" class="st1"/>
				<text x="0" y="146.44" class="st2" v:langID="1028"><v:paragraph/><v:tabList/>斯陀含</text>			</g>
			<g id="shape22-48" v:mID="22" v:groupContext="shape" transform="translate(221.877,-35.9648) rotate(-0.2)">
				<title>工作表.22</title>
				<desc>思惟道薄婬怒痴</desc>
				<v:textBlock v:margins="rect(0,0,0,0)" v:tabSpace="42.5197"/>
				<v:textRect cx="50.1653" cy="142.701" width="100.34" height="13.5449"/>
				<rect x="0" y="135.929" width="100.331" height="13.5449" class="st1"/>
				<text x="0" y="146.44" class="st2" v:langID="1028"><v:paragraph/><v:tabList/>思惟道，薄婬怒痴</text>			</g>
			<g id="shape23-51" v:mID="23" v:groupContext="shape" transform="translate(159.945,-18.8367) rotate(-0.2)">
				<title>工作表.23</title>
				<desc>阿那含</desc>
				<v:textBlock v:margins="rect(0,0,0,0)" v:tabSpace="42.5197"/>
				<v:textRect cx="21.3882" cy="142.701" width="42.78" height="13.5449"/>
				<rect x="0" y="135.929" width="42.7763" height="13.5449" class="st1"/>
				<text x="-0" y="146.44" class="st2" v:langID="1028"><v:paragraph/><v:tabList/>阿那含</text>			</g>
			<g id="shape25-54" v:mID="25" v:groupContext="shape" transform="translate(221.936,-19.0337) rotate(-0.2)">
				<title>工作表.25</title>
				<desc>斷婬恚痴141</desc>
				<v:textBlock v:margins="rect(0,0,0,0)" v:tabSpace="42.5197"/>
				<v:textRect cx="32.9041" cy="142.701" width="65.81" height="13.5449"/>
				<rect x="0" y="135.929" width="65.8081" height="13.5449" class="st1"/>
				<text x="-0" y="146.44" class="st2" v:langID="1028"><v:paragraph/><v:tabList/>斷婬恚痴<tspan dy="-0.198em" class="st5"
							v:baseFontSize="12">141</tspan></text>			</g>
			<g id="shape26-58" v:mID="26" v:groupContext="shape" transform="translate(167.864,-108.506) rotate(29.3469)">
				<title>工作表.26</title>
				<path d="M0 149.47 L69.92 149.47" class="st6"/>
			</g>
			<g id="shape27-61" v:mID="27" v:groupContext="shape" transform="translate(136.348,-104.557) rotate(15.6505)">
				<title>工作表.27</title>
				<path d="M0 149.47 L61.82 149.47" class="st6"/>
			</g>
			<g id="shape28-64" v:mID="28" v:groupContext="shape" transform="translate(82.1934,-109.457) rotate(-5.30932)">
				<title>工作表.28</title>
				<path d="M0 149.47 L184.82 149.47" class="st6"/>
			</g>
			<g id="shape29-67" v:mID="29" v:groupContext="shape" transform="translate(95.3043,-127.689) rotate(0.151268)">
				<title>工作表.29</title>
				<path d="M0 149.47 L185.14 149.47" class="st6"/>
			</g>
			<g id="shape30-70" v:mID="30" v:groupContext="shape" transform="translate(248.953,-93.4136) rotate(-0.597855)">
				<title>工作表.30</title>
				<path d="M0 149.47 L29.75 149.47" class="st6"/>
			</g>
			<g id="shape31-73" v:mID="31" v:groupContext="shape" transform="translate(168.892,-56.5406) rotate(-11.6894)">
				<title>工作表.31</title>
				<path d="M0 149.47 L82.79 149.47" class="st6"/>
			</g>
			<g id="shape32-76" v:mID="32" v:groupContext="shape" transform="translate(198.064,-59.6364) rotate(-0.426532)">
				<title>工作表.32</title>
				<path d="M0 149.47 L81.07 149.47" class="st6"/>
			</g>
			<g id="shape33-79" v:mID="33" v:groupContext="shape" transform="translate(324.703,-73.7104) rotate(29.7582)">
				<title>工作表.33</title>
				<path d="M0 149.47 L34.27 149.47" class="st6"/>
			</g>
			<g id="shape34-82" v:mID="34" v:groupContext="shape" transform="translate(186.802,-79.164) rotate(-25.2287)">
				<title>工作表.34</title>
				<path d="M0 149.47 L32.92 149.47" class="st6"/>
			</g>
			<g id="shape35-85" v:mID="35" v:groupContext="shape" transform="translate(205.155,-78.8203) rotate(47.6958)">
				<title>工作表.35</title>
				<path d="M0 149.47 L91.56 149.47" class="st6"/>
			</g>
			<g id="shape36-88" v:mID="36" v:groupContext="shape" transform="translate(45.4754,206.413) rotate(-132.088)">
				<title>工作表.36</title>
				<path d="M0 149.47 L90.08 149.47" class="st6"/>
			</g>
			<g id="shape37-91" v:mID="37" v:groupContext="shape" transform="translate(35.7797,194.5) rotate(-126.198)">
				<title>工作表.37</title>
				<path d="M0 149.47 L104.64 149.47" class="st6"/>
			</g>
			<g id="shape38-94" v:mID="38" v:groupContext="shape" transform="translate(191.662,-75.4985) rotate(39.7789)">
				<title>工作表.38</title>
				<path d="M0 149.47 L78.34 149.47" class="st6"/>
			</g>
			<g id="shape39-97" v:mID="39" v:groupContext="shape" transform="translate(242.384,10.2759) rotate(89.8)">
				<title>工作表.39</title>
				<path d="M0 95.33 C11.64 121.1 28.12 139.92 47.19 149.47 L0 95.33 Z" class="st7"/>
				<path d="M0 95.33 C11.64 121.1 28.12 139.92 47.19 149.47" class="st8"/>
			</g>
			<g id="shape40-100" v:mID="40" v:groupContext="shape" transform="translate(242.6,55.6493) rotate(89.8)">
				<title>工作表.40</title>
				<path d="M86.57 87.12 C78.27 112.93 45.24 136.76 0 149.47 L86.57 87.12 Z" class="st7"/>
				<path d="M86.57 87.12 C78.27 112.93 45.24 136.76 0 149.47" class="st8"/>
			</g>
			<g id="shape41-103" v:mID="41" v:groupContext="shape" transform="translate(298.038,0.687776) rotate(89.8)">
				<title>工作表.41</title>
				<path d="M21.26 17.83 C7.15 42.17 0 71.9 1.01 102.29 C1.51 118.41 4.23 134.44 9.07 149.47 L21.26 17.83 Z"
						class="st7"/>
				<path d="M21.26 17.83 C7.15 42.17 0 71.9 1.01 102.29 C1.51 118.41 4.23 134.44 9.07 149.47" class="st8"/>
			</g>
			<g id="shape42-106" v:mID="42" v:groupContext="shape" transform="translate(497.533,21.0477) rotate(89.8)">
				<title>工作表.42</title>
				<path d="M0 149.47 C0 118.06 30.29 92.57 67.63 92.57 L0 149.47 Z" class="st7"/>
				<path d="M0 149.47 C0 118.06 30.29 92.57 67.63 92.57" class="st8"/>
			</g>
			<g id="shape43-109" v:mID="43" v:groupContext="shape" transform="translate(497.592,37.9788) rotate(89.8)">
				<title>工作表.43</title>
				<path d="M0 149.47 C0 118.06 22.67 92.57 50.7 92.57 L0 149.47 Z" class="st7"/>
				<path d="M0 149.47 C0 118.06 22.67 92.57 50.7 92.57" class="st8"/>
			</g>
			<g id="shape44-112" v:mID="44" v:groupContext="shape" transform="translate(497.651,54.9098) rotate(89.8)">
				<title>工作表.44</title>
				<path d="M0 149.47 C0 118.06 15.14 92.57 33.77 92.57 L0 149.47 Z" class="st7"/>
				<path d="M0 149.47 C0 118.06 15.14 92.57 33.77 92.57" class="st8"/>
			</g>
			<g id="shape45-115" v:mID="45" v:groupContext="shape" transform="translate(498.657,71.8375) rotate(89.8)">
				<title>工作表.45</title>
				<path d="M0.19 149.47 C0.09 147.17 0 144.77 0 142.47 C0 115.63 7.57 93.91 17.04 93.91 L0.19 149.47 Z" class="st7"/>
				<path d="M0.19 149.47 C0.09 147.17 0 144.77 0 142.47 C0 115.63 7.57 93.91 17.04 93.91" class="st8"/>
			</g>
			<g id="shape46-118" v:mID="46" v:groupContext="shape" transform="translate(160.646,0.000910644) rotate(-0.2)">
				<title>工作表.46</title>
				<desc>阿羅漢</desc>
				<v:textBlock v:margins="rect(0,0,0,0)" v:tabSpace="42.5197"/>
				<v:textRect cx="21.3882" cy="142.701" width="42.78" height="13.5449"/>
				<rect x="0" y="135.929" width="42.7763" height="13.5449" class="st1"/>
				<text x="0" y="146.44" class="st2" v:langID="1028"><v:paragraph/><v:tabList/>阿羅漢</text>			</g>
			<g id="shape48-121" v:mID="48" v:groupContext="shape" transform="translate(222.561,-0.195824) rotate(-0.2)">
				<title>工作表.48</title>
				<desc>斷五上分結</desc>
				<v:textBlock v:margins="rect(0,0,0,0)" v:tabSpace="42.5197"/>
				<v:textRect cx="31.3533" cy="142.701" width="62.71" height="13.5449"/>
				<rect x="0" y="135.929" width="62.7066" height="13.5449" class="st1"/>
				<text x="0" y="146.44" class="st2" v:langID="1028"><v:paragraph/><v:tabList/>斷五上分結</text>			</g>
			<g id="shape50-124" v:mID="50" v:groupContext="shape" transform="translate(198.684,-42.3982)">
				<title>工作表.50</title>
				<path d="M0 149.47 L21.19 149.47" class="st6"/>
			</g>
			<g id="shape51-127" v:mID="51" v:groupContext="shape" transform="translate(198.684,-25.3903)">
				<title>工作表.51</title>
				<path d="M0 149.47 L21.19 149.47" class="st6"/>
			</g>
			<g id="shape52-130" v:mID="52" v:groupContext="shape" transform="translate(198.684,-6.89052)">
				<title>工作表.52</title>
				<path d="M0 149.47 L21.19 149.47" class="st6"/>
			</g>
			<g id="shape53-133" v:mID="53" v:groupContext="shape" transform="translate(405.203,-60.4727)">
				<title>工作表.53</title>
				<path d="M0 149.47 L36 149.47" class="st6"/>
			</g>
		</g>
	</g>
</svg>
