<?xml version="1.0" encoding="UTF-8" standalone="no"?>
<!DOCTYPE svg PUBLIC "-//W3C//DTD SVG 1.1//EN" "http://www.w3.org/Graphics/SVG/1.1/DTD/svg11.dtd">
<!-- 由 Microsoft Visio, SVG Export 產生 F4003.svg 頁-1 -->
<svg xmlns="http://www.w3.org/2000/svg" xmlns:xlink="http://www.w3.org/1999/xlink" xmlns:ev="http://www.w3.org/2001/xml-events"
		xmlns:v="http://schemas.microsoft.com/visio/2003/SVGExtensions/" width="1.53242in" height="0.655748in"
		viewBox="0 0 110.334 47.2138" xml:space="preserve" color-interpolation-filters="sRGB" class="st5">
	<v:documentProperties v:langID="1028" v:viewMarkup="false"/>

	<style type="text/css">
	<![CDATA[
		.st1 {fill:none;stroke:none;stroke-linecap:butt;stroke-width:0.75}
		.st2 {fill:#000000;font-family:新細明體;font-size:0.940613em}
		.st3 {fill:none}
		.st4 {stroke:#000000;stroke-linecap:round;stroke-linejoin:round;stroke-width:0.705463}
		.st5 {fill:none;fill-rule:evenodd;font-size:12px;overflow:visible;stroke-linecap:square;stroke-miterlimit:3}
	]]>
	</style>

	<g v:mID="0" v:index="1" v:groupContext="foregroundPage">
		<title>頁-1</title>
		<v:pageProperties v:drawingScale="0.0393701" v:pageScale="0.0393701" v:drawingUnits="24" v:shadowOffsetX="9"
				v:shadowOffsetY="-9"/>
		<g id="shape1-1" v:mID="1" v:groupContext="shape" transform="translate(38.1637,-32.8793) rotate(-0.2)">
			<title>工作表.1</title>
			<desc>退</desc>
			<v:textBlock v:margins="rect(0,0,0,0)" v:tabSpace="42.5197"/>
			<v:textRect cx="5.64371" cy="40.4414" width="11.29" height="13.5449"/>
			<rect x="0" y="33.6689" width="11.2874" height="13.5449" class="st1"/>
			<text x="-0" y="43.96" class="st2" v:langID="1028"><v:paragraph/><v:tabList/>退</text>		</g>
		<g id="shape2-4" v:mID="2" v:groupContext="shape" transform="translate(0.632473,-15.7907) rotate(-0.2)">
			<title>工作表.2</title>
			<desc>菩薩</desc>
			<v:textBlock v:margins="rect(0,0,0,0)" v:tabSpace="42.5197"/>
			<v:textRect cx="11.2874" cy="40.4414" width="22.58" height="13.5449"/>
			<rect x="0" y="33.6689" width="22.5748" height="13.5449" class="st1"/>
			<text x="0" y="43.96" class="st2" v:langID="1028"><v:paragraph/><v:tabList/>菩薩</text>		</g>
		<g id="shape3-7" v:mID="3" v:groupContext="shape" transform="translate(38.2228,-15.9483) rotate(-0.2)">
			<title>工作表.3</title>
			<desc>不退</desc>
			<v:textBlock v:margins="rect(0,0,0,0)" v:tabSpace="42.5197"/>
			<v:textRect cx="11.2874" cy="40.4414" width="22.58" height="13.5449"/>
			<rect x="0" y="33.6689" width="22.5748" height="13.5449" class="st1"/>
			<text x="0" y="43.96" class="st2" v:langID="1028"><v:paragraph/><v:tabList/>不退</text>		</g>
		<g id="shape4-10" v:mID="4" v:groupContext="shape" transform="translate(75.4981,-17.6807) rotate(-0.2)">
			<title>工作表.4</title>
			<desc>未受記</desc>
			<v:textBlock v:margins="rect(0,0,0,0)" v:tabSpace="42.5197"/>
			<v:textRect cx="16.9311" cy="40.4414" width="33.87" height="13.5449"/>
			<rect x="0" y="33.6689" width="33.8622" height="13.5449" class="st1"/>
			<text x="0" y="43.96" class="st2" v:langID="1028"><v:paragraph/><v:tabList/>未受記</text>		</g>
		<g id="shape5-13" v:mID="5" v:groupContext="shape" transform="translate(75.5572,-0.749712) rotate(-0.2)">
			<title>工作表.5</title>
			<desc>已受記</desc>
			<v:textBlock v:margins="rect(0,0,0,0)" v:tabSpace="42.5197"/>
			<v:textRect cx="16.9311" cy="40.4414" width="33.87" height="13.5449"/>
			<rect x="0" y="33.6689" width="33.8622" height="13.5449" class="st1"/>
			<text x="0" y="43.96" class="st2" v:langID="1028"><v:paragraph/><v:tabList/>已受記</text>		</g>
		<g id="shape13-16" v:mID="13" v:groupContext="shape" transform="translate(74.2034,2.25226) rotate(89.8)">
			<title>工作表.13</title>
			<path d="M0 38.75 C0 41.1 1.02 42.98 2.36 42.98 L18.74 42.98 C20.08 42.98 21.1 44.86 21.1 47.21 C21.1 44.86 22.2 42.98
						 23.46 42.98 L25.98 42.98 C27.24 42.98 28.35 41.1 28.35 38.75 L0 38.75 Z" class="st3"/>
			<path d="M0 38.75 C0 41.1 1.02 42.98 2.36 42.98 L18.74 42.98 C20.08 42.98 21.1 44.86 21.1 47.21 C21.1 44.86 22.2 42.98
						 23.46 42.98 L25.98 42.98 C27.24 42.98 28.35 41.1 28.35 38.75" class="st4"/>
		</g>
		<g id="shape14-19" v:mID="14" v:groupContext="shape" transform="translate(111.237,17.8422) rotate(89.8)">
			<title>工作表.14</title>
			<path d="M0 38.75 C0 41.1 0.92 42.98 2.13 42.98 L5.53 42.98 C6.66 42.98 7.65 44.86 7.65 47.21 C7.65 44.86 8.57 42.98
						 9.78 42.98 L23.39 42.98 C24.52 42.98 25.51 41.1 25.51 38.75 L0 38.75 Z" class="st3"/>
			<path d="M0 38.75 C0 41.1 0.92 42.98 2.13 42.98 L5.53 42.98 C6.66 42.98 7.65 44.86 7.65 47.21 C7.65 44.86 8.57 42.98
						 9.78 42.98 L23.39 42.98 C24.52 42.98 25.51 41.1 25.51 38.75" class="st4"/>
		</g>
	</g>
</svg>
