<?xml version="1.0" encoding="UTF-8" standalone="no"?>
<!DOCTYPE svg PUBLIC "-//W3C//DTD SVG 1.1//EN" "http://www.w3.org/Graphics/SVG/1.1/DTD/svg11.dtd">
<!-- 由 Microsoft Visio, SVG Export 產生 B00301.svg 頁-1 -->
<svg xmlns="http://www.w3.org/2000/svg" xmlns:xlink="http://www.w3.org/1999/xlink" xmlns:ev="http://www.w3.org/2001/xml-events"
		xmlns:v="http://schemas.microsoft.com/visio/2003/SVGExtensions/" width="3.43164in" height="0.402031in"
		viewBox="0 0 247.078 28.9462" xml:space="preserve" color-interpolation-filters="sRGB" class="st6">
	<v:documentProperties v:langID="1028" v:viewMarkup="false"/>

	<style type="text/css">
	<![CDATA[
		.st1 {fill:none;stroke:none;stroke-linecap:butt;stroke-width:0.75}
		.st2 {fill:#000000;font-family:新細明體;font-size:0.833336em}
		.st3 {fill:#000000;font-family:Times New Roman;font-size:0.833336em}
		.st4 {fill:none}
		.st5 {stroke:#000000;stroke-linecap:round;stroke-linejoin:round;stroke-width:0.5625}
		.st6 {fill:none;fill-rule:evenodd;font-size:12px;overflow:visible;stroke-linecap:square;stroke-miterlimit:3}
	]]>
	</style>

	<g v:mID="0" v:index="1" v:groupContext="foregroundPage">
		<title>頁-1</title>
		<v:pageProperties v:drawingScale="0.0393701" v:pageScale="0.0393701" v:drawingUnits="24" v:shadowOffsetX="9"
				v:shadowOffsetY="-9"/>
		<g id="group17-1" transform="translate(0.75,-0.816306)" v:mID="17" v:groupContext="group">
			<title>工作表.17</title>
			<g id="shape3-2" v:mID="3" v:groupContext="shape" transform="translate(69.7828,-16.5007) rotate(0.1)">
				<title>工作表.3</title>
				<desc>秦</desc>
				<v:textBlock v:margins="rect(0,0,0,0)" v:tabSpace="42.5197"/>
				<v:textRect cx="4.5" cy="23.5462" width="9" height="10.8"/>
				<rect x="0" y="18.1462" width="9" height="10.8" class="st1"/>
				<text x="-0" y="26.66" class="st2" v:langID="1028"><v:paragraph/><v:tabList/>秦</text>			</g>
			<g id="shape4-5" v:mID="4" v:groupContext="shape" transform="translate(80.8402,-16.485) rotate(0.1)">
				<title>工作表.4</title>
				<desc>——</desc>
				<v:textBlock v:margins="rect(0,0,0,0)" v:tabSpace="42.5197"/>
				<v:textRect cx="12.9418" cy="23.5462" width="25.89" height="10.8"/>
				<rect x="0" y="18.1462" width="25.8837" height="10.8" class="st1"/>
				<text x="0" y="26.55" class="st3" v:langID="1028"><v:paragraph/><v:tabList/>——</text>			</g>
			<g id="shape5-8" v:mID="5" v:groupContext="shape" transform="translate(102.726,-16.4536) rotate(0.1)">
				<title>工作表.5</title>
				<desc>不墮聲、緣地不入菩薩位。</desc>
				<v:textBlock v:margins="rect(0,0,0,0)" v:tabSpace="42.5197"/>
				<v:textRect cx="71.4417" cy="23.5462" width="142.89" height="10.8"/>
				<rect x="0" y="18.1462" width="142.883" height="10.8" class="st1"/>
				<text x="0" y="26.66" class="st2" v:langID="1028"><v:paragraph/><v:tabList/>不墮聲、緣地，不入菩薩位。</text>			</g>
			<g id="shape6-11" v:mID="6" v:groupContext="shape" transform="translate(0.0505206,-7.46789) rotate(0.1)">
				<title>工作表.6</title>
				<desc>墮頂二譯不同</desc>
				<v:textBlock v:margins="rect(0,0,0,0)" v:tabSpace="42.5197"/>
				<v:textRect cx="30.9497" cy="23.5462" width="61.9" height="10.8"/>
				<rect x="0" y="18.1462" width="61.8994" height="10.8" class="st1"/>
				<text x="0" y="26.66" class="st2" v:langID="1028"><v:paragraph/><v:tabList/>墮頂二譯不同</text>			</g>
			<g id="shape7-14" v:mID="7" v:groupContext="shape" transform="translate(69.7468,-0.286695) rotate(0.1)">
				<title>工作表.7</title>
				<desc>唐</desc>
				<v:textBlock v:margins="rect(0,0,0,0)" v:tabSpace="42.5197"/>
				<v:textRect cx="4.5" cy="23.5462" width="9" height="10.8"/>
				<rect x="0" y="18.1462" width="9" height="10.8" class="st1"/>
				<text x="0" y="26.66" class="st2" v:langID="1028"><v:paragraph/><v:tabList/>唐</text>			</g>
			<g id="shape8-17" v:mID="8" v:groupContext="shape" transform="translate(80.8042,-0.270987) rotate(0.1)">
				<title>工作表.8</title>
				<desc>——</desc>
				<v:textBlock v:margins="rect(0,0,0,0)" v:tabSpace="42.5197"/>
				<v:textRect cx="17.4572" cy="23.5462" width="34.92" height="10.8"/>
				<rect x="0" y="18.1462" width="34.9144" height="10.8" class="st1"/>
				<text x="0" y="26.55" class="st3" v:langID="1028"><v:paragraph/><v:tabList/>——</text>			</g>
			<g id="shape9-20" v:mID="9" v:groupContext="shape" transform="translate(102.69,-0.239571) rotate(0.1)">
				<title>工作表.9</title>
				<desc>退墮聲、緣地不入菩薩位。</desc>
				<v:textBlock v:margins="rect(0,0,0,0)" v:tabSpace="42.5197"/>
				<v:textRect cx="68.6446" cy="23.5462" width="137.29" height="10.8"/>
				<rect x="0" y="18.1462" width="137.289" height="10.8" class="st1"/>
				<text x="0" y="26.66" class="st2" v:langID="1028"><v:paragraph/><v:tabList/>退墮聲、緣地，不入菩薩位。</text>			</g>
			<g id="shape16-23" v:mID="16" v:groupContext="shape" transform="translate(90.5281,3.3515) rotate(90.1)">
				<title>工作表.16</title>
				<path d="M0 22.99 C0 24.66 0.89 25.97 2.06 25.97 L10.43 25.97 C11.6 25.97 12.55 27.32 12.55 28.95 C12.55 27.32 13.44
							 25.97 14.62 25.97 L22.98 25.97 C24.15 25.97 25.1 24.66 25.1 22.99 L0 22.99 Z" class="st4"/>
				<path d="M0 22.99 C0 24.66 0.89 25.97 2.06 25.97 L10.43 25.97 C11.6 25.97 12.55 27.32 12.55 28.95 C12.55 27.32 13.44
							 25.97 14.62 25.97 L22.98 25.97 C24.15 25.97 25.1 24.66 25.1 22.99" class="st5"/>
			</g>
		</g>
	</g>
</svg>
