<?xml version="1.0" encoding="UTF-8" standalone="no"?>
<!DOCTYPE svg PUBLIC "-//W3C//DTD SVG 1.1//EN" "http://www.w3.org/Graphics/SVG/1.1/DTD/svg11.dtd">
<!-- 由 Microsoft Visio, SVG Export 產生 M041.154.svg 頁-1 -->
<svg xmlns="http://www.w3.org/2000/svg" xmlns:xlink="http://www.w3.org/1999/xlink" xmlns:ev="http://www.w3.org/2001/xml-events"
		width="4.40954in" height="0.685277in" viewBox="0 0 317.487 49.3399" xml:space="preserve" color-interpolation-filters="sRGB"
		class="st8">
	<style type="text/css">
	<![CDATA[
		.st1 {fill:none;stroke:none;stroke-linecap:butt;stroke-width:0.75}
		.st2 {fill:#000000;font-family:新細明體;font-size:0.833336em}
		.st3 {fill:#000000;font-family:Times New Roman;font-size:0.833336em}
		.st4 {fill:none;stroke:none;stroke-width:1}
		.st5 {fill:none}
		.st6 {stroke:#000000;stroke-linecap:round;stroke-linejoin:round;stroke-width:0.5625}
		.st7 {stroke:#000000;stroke-dasharray:1.6875,1.6875;stroke-linecap:round;stroke-linejoin:round;stroke-width:0.5625}
		.st8 {fill:none;fill-rule:evenodd;font-size:12px;overflow:visible;stroke-linecap:square;stroke-miterlimit:3}
	]]>
	</style>

	<g>
		<title>頁-1</title>
		<g id="group21-1" transform="translate(0.75,-0.800781)">
			<title>工作表.21</title>
			<g id="group1-2">
				<title>工作表.25</title>
				<g id="shape2-3" transform="translate(101.383,-36.9614) rotate(0.1)">
					<title>工作表.3</title>
					<desc>柔忍、無生忍中所有法</desc>
					<rect x="0" y="38.5399" width="107.708" height="10.8" class="st1"/>
					<text x="-0" y="46.94" class="st2">柔忍、無生忍中所有法</text>				</g>
				<g id="shape3-6" transform="translate(206.726,-36.7886) rotate(0.1)">
					<title>工作表.4</title>
					<desc>——————</desc>
					<rect x="0" y="38.5399" width="78.1275" height="10.8" class="st1"/>
					<text x="-0" y="46.94" class="st3">——————</text>				</g>
				<g id="shape4-9" transform="translate(269.65,-36.6943) rotate(0.1)">
					<title>工作表.5</title>
					<desc>名頂</desc>
					<rect x="0" y="38.5399" width="30.6472" height="10.8" class="st1"/>
					<text x="-0" y="46.94" class="st2">名頂</text>				</g>
				<g id="shape5-12" transform="translate(0.121964,-26.5884) rotate(0.1)">
					<title>工作表.6</title>
					<rect x="0" y="38.5399" width="274.5" height="10.8" class="st1"/>
				</g>
				<g id="shape6-14" transform="translate(224.707,-26.2271) rotate(0.1)">
					<title>工作表.7</title>
					<desc>前後</desc>
					<rect x="0" y="38.5399" width="32.652" height="10.8" class="st1"/>
					<text x="-0" y="46.94" class="st2">前後</text>				</g>
				<g id="shape7-17" transform="translate(0.103665,-17.9411) rotate(0.1)">
					<title>工作表.8</title>
					<desc>頂位不生一事三名</desc>
					<rect x="0" y="38.5399" width="100.205" height="10.8" class="st1"/>
					<text x="-0" y="46.94" class="st2">頂位不生，一事三名</text>				</g>
				<g id="shape8-20" transform="translate(166.753,-19.5114) rotate(0.1)">
					<title>工作表.9</title>
					<desc>——————————</desc>
					<rect x="0" y="38.5399" width="122.951" height="10.8" class="st1"/>
					<text x="-0" y="46.94" class="st3">——————————</text>				</g>
				<g id="shape9-23" transform="translate(269.614,-19.3543) rotate(0.1)">
					<title>工作表.10</title>
					<desc>名位</desc>
					<rect x="0" y="38.5399" width="41.4553" height="10.8" class="st1"/>
					<text x="-0" y="46.94" class="st2">名位</text>				</g>
				<g id="shape10-26" transform="translate(0.0861143,-5.61856) rotate(0.1)">
					<title>工作表.11</title>
					<rect x="0" y="38.5399" width="274.5" height="10.8" class="st1"/>
				</g>
				<g id="shape11-28" transform="translate(224.671,-9.45675) rotate(0.1)">
					<title>工作表.12</title>
					<desc>一事</desc>
					<rect x="0" y="38.5399" width="32.1204" height="10.8" class="st1"/>
					<text x="-0" y="46.94" class="st2">一事</text>				</g>
				<g id="shape12-31" transform="translate(101.045,-0.705706) rotate(0.1)">
					<title>工作表.13</title>
					<desc>位中結使魔民不能動</desc>
					<rect x="0" y="38.5399" width="96.7089" height="10.8" class="st1"/>
					<text x="-0" y="46.94" class="st2">位中結使魔民不能動</text>				</g>
				<g id="shape13-34" transform="translate(197.389,-0.548627) rotate(0.1)">
					<title>工作表.14</title>
					<desc>———————</desc>
					<rect x="0" y="38.5399" width="83.234" height="10.8" class="st1"/>
					<text x="-0" y="46.94" class="st3">———————</text>				</g>
				<g id="shape14-37" transform="translate(269.71,-0.374805) rotate(0.1)">
					<title>工作表.15</title>
					<desc>名無生忍</desc>
					<rect x="0" y="38.5399" width="46.3442" height="10.8" class="st1"/>
					<text x="-0" y="46.94" class="st2">名無生忍</text>				</g>
				<g id="group15-40" transform="translate(141.138,1.87511) rotate(90.1)">
					<title>工作表.22</title>
					<g id="shape16-41">
						<title>工作表.16</title>
						<path d="M0 42.59 C0 44.44 1.76 45.97 3.97 45.97 L19.75 45.97 C21.91 45.97 23.67 47.45 23.67 49.34 C23.67
									 47.45 25.43 45.97 27.64 45.97 L43.42 45.97 C45.58 45.97 47.34 44.44 47.34 42.59 L0 42.59 Z"
								class="st4"/>
					</g>
					<g id="shape17-43">
						<title>工作表.17</title>
						<path d="M0 42.59 C0 44.44 1.76 45.97 3.97 45.97 L19.75 45.97 C21.91 45.97 23.67 47.45 23.67 49.34 C23.67
									 47.45 25.43 45.97 27.64 45.97 L43.42 45.97 C45.58 45.97 47.34 44.44 47.34 42.59 L0 42.59 Z"
								class="st5"/>
						<path d="M0 42.59 C0 44.44 1.76 45.97 3.97 45.97 L19.75 45.97 C21.91 45.97 23.67 47.45 23.67 49.34 C23.67
									 47.45 25.43 45.97 27.64 45.97 L43.42 45.97 C45.58 45.97 47.34 44.44 47.34 42.59" class="st6"/>
					</g>
				</g>
				<g id="shape18-46" transform="translate(261.204,7.42998) rotate(90.1)">
					<title>工作表.23</title>
					<path d="M0 49.34 L18.14 49.34 L0 49.34 Z" class="st5"/>
					<path d="M0 49.34 L18.14 49.34" class="st7"/>
				</g>
				<g id="shape19-49" transform="translate(100.463,-19.741)">
					<title>工作表.24</title>
					<desc>頂法增長堅固</desc>
					<rect x="0" y="38.5399" width="63.861" height="10.8" class="st1"/>
					<text x="-0" y="46.94" class="st2">頂法增長堅固</text>				</g>
			</g>
			<g id="shape20-52" transform="translate(268.308,25.5736) rotate(90.1)">
				<title>工作表.23</title>
				<path d="M0 49.34 L18.71 49.34 L0 49.34 Z" class="st5"/>
				<path d="M0 49.34 L18.71 49.34" class="st7"/>
			</g>
		</g>
	</g>
</svg>
