<?xml version="1.0" encoding="UTF-8" standalone="no"?>
<!DOCTYPE svg PUBLIC "-//W3C//DTD SVG 1.1//EN" "http://www.w3.org/Graphics/SVG/1.1/DTD/svg11.dtd">
<!-- 由 Microsoft Visio, SVG Export 產生 B00304.svg 頁-1 -->
<svg xmlns="http://www.w3.org/2000/svg" xmlns:xlink="http://www.w3.org/1999/xlink" xmlns:ev="http://www.w3.org/2001/xml-events"
		xmlns:v="http://schemas.microsoft.com/visio/2003/SVGExtensions/" width="4.40954in" height="0.682148in"
		viewBox="0 0 317.487 49.1146" xml:space="preserve" color-interpolation-filters="sRGB" class="st7">
	<v:documentProperties v:langID="1028" v:viewMarkup="false"/>

	<style type="text/css">
	<![CDATA[
		.st1 {fill:none;stroke:none;stroke-linecap:butt;stroke-width:0.75}
		.st2 {fill:#000000;font-family:新細明體;font-size:0.833336em}
		.st3 {fill:#000000;font-family:Times New Roman;font-size:0.833336em}
		.st4 {fill:none}
		.st5 {stroke:#000000;stroke-linecap:round;stroke-linejoin:round;stroke-width:0.5625}
		.st6 {stroke:#000000;stroke-dasharray:1.6875,1.6875;stroke-linecap:round;stroke-linejoin:round;stroke-width:0.5625}
		.st7 {fill:none;fill-rule:evenodd;font-size:12px;overflow:visible;stroke-linecap:square;stroke-miterlimit:3}
	]]>
	</style>

	<g v:mID="0" v:index="1" v:groupContext="foregroundPage">
		<title>頁-1</title>
		<v:pageProperties v:drawingScale="0.0393701" v:pageScale="0.0393701" v:drawingUnits="24" v:shadowOffsetX="9"
				v:shadowOffsetY="-9"/>
		<g id="group25-1" transform="translate(0.75,-0.524014)" v:mID="25" v:groupContext="group">
			<title>工作表.25</title>
			<g id="shape3-2" v:mID="3" v:groupContext="shape" transform="translate(91.9778,-36.9614) rotate(0.1)">
				<title>工作表.3</title>
				<desc>柔忍、無生忍中所有法</desc>
				<v:textBlock v:margins="rect(0,0,0,0)"/>
				<v:textRect cx="61.7764" cy="43.7146" width="123.56" height="10.8"/>
				<rect x="0" y="38.3146" width="123.553" height="10.8" class="st1"/>
				<text x="8.5" y="46.83" class="st2" v:langID="1028"><v:paragraph/><v:tabList/>柔忍、無生忍中所有法</text>			</g>
			<g id="shape4-5" v:mID="4" v:groupContext="shape" transform="translate(206.726,-36.7886) rotate(0.1)">
				<title>工作表.4</title>
				<desc>——————</desc>
				<v:textBlock v:margins="rect(0,0,0,0)" v:tabSpace="42.5197"/>
				<v:textRect cx="39.0637" cy="43.7146" width="78.13" height="10.8"/>
				<rect x="0" y="38.3146" width="78.1275" height="10.8" class="st1"/>
				<text x="-0" y="46.71" class="st3" v:langID="1028"><v:paragraph/><v:tabList/>——————</text>			</g>
			<g id="shape5-8" v:mID="5" v:groupContext="shape" transform="translate(269.65,-36.6943) rotate(0.1)">
				<title>工作表.5</title>
				<desc>名頂</desc>
				<v:textBlock v:margins="rect(0,0,0,0)" v:tabSpace="42.5197"/>
				<v:textRect cx="15.3236" cy="43.7146" width="30.65" height="10.8"/>
				<rect x="0" y="38.3146" width="30.6472" height="10.8" class="st1"/>
				<text x="0" y="46.83" class="st2" v:langID="1028"><v:paragraph/><v:tabList/>名頂</text>			</g>
			<g id="shape6-11" v:mID="6" v:groupContext="shape" transform="translate(0.121571,-26.5884) rotate(0.1)">
				<title>工作表.6</title>
				<v:textBlock v:margins="rect(0,0,0,0)"/>
				<rect x="0" y="38.3146" width="274.5" height="10.8" class="st1"/>
			</g>
			<g id="shape7-13" v:mID="7" v:groupContext="shape" transform="translate(224.707,-26.2271) rotate(0.1)">
				<title>工作表.7</title>
				<desc>前後</desc>
				<v:textBlock v:margins="rect(0,0,0,0)" v:tabSpace="42.5197"/>
				<v:textRect cx="16.326" cy="43.7146" width="32.66" height="10.8"/>
				<rect x="0" y="38.3146" width="32.652" height="10.8" class="st1"/>
				<text x="0" y="46.83" class="st2" v:langID="1028"><v:paragraph/><v:tabList/>前後</text>			</g>
			<g id="shape8-16" v:mID="8" v:groupContext="shape" transform="translate(0.103272,-17.9411) rotate(0.1)">
				<title>工作表.8</title>
				<desc>頂位不生一事三名</desc>
				<v:textBlock v:margins="rect(0,0,0,0)"/>
				<v:textRect cx="50.1026" cy="43.7146" width="100.21" height="10.8"/>
				<rect x="0" y="38.3146" width="100.205" height="10.8" class="st1"/>
				<text x="0" y="46.83" class="st2" v:langID="1028"><v:paragraph/><v:tabList/>頂位不生，一事三名  </text>			</g>
			<g id="shape9-19" v:mID="9" v:groupContext="shape" transform="translate(166.753,-19.5114) rotate(0.1)">
				<title>工作表.9</title>
				<desc>——————————</desc>
				<v:textBlock v:margins="rect(0,0,0,0)" v:tabSpace="42.5197"/>
				<v:textRect cx="61.4757" cy="43.7146" width="122.96" height="10.8"/>
				<rect x="0" y="38.3146" width="122.951" height="10.8" class="st1"/>
				<text x="0" y="46.71" class="st3" v:langID="1028"><v:paragraph/><v:tabList/>——————————</text>			</g>
			<g id="shape10-22" v:mID="10" v:groupContext="shape" transform="translate(269.614,-19.3543) rotate(0.1)">
				<title>工作表.10</title>
				<desc>名位</desc>
				<v:textBlock v:margins="rect(0,0,0,0)" v:tabSpace="42.5197"/>
				<v:textRect cx="20.7276" cy="43.7146" width="41.46" height="10.8"/>
				<rect x="0" y="38.3146" width="41.4553" height="10.8" class="st1"/>
				<text x="0" y="46.83" class="st2" v:langID="1028"><v:paragraph/><v:tabList/>名位</text>			</g>
			<g id="shape11-25" v:mID="11" v:groupContext="shape" transform="translate(0.0857212,-5.61851) rotate(0.1)">
				<title>工作表.11</title>
				<v:textBlock v:margins="rect(0,0,0,0)"/>
				<rect x="0" y="38.3146" width="274.5" height="10.8" class="st1"/>
			</g>
			<g id="shape12-27" v:mID="12" v:groupContext="shape" transform="translate(224.671,-9.4567) rotate(0.1)">
				<title>工作表.12</title>
				<desc>一事</desc>
				<v:textBlock v:margins="rect(0,0,0,0)" v:tabSpace="42.5197"/>
				<v:textRect cx="16.0602" cy="43.7146" width="32.13" height="10.8"/>
				<rect x="0" y="38.3146" width="32.1204" height="10.8" class="st1"/>
				<text x="0" y="46.83" class="st2" v:langID="1028"><v:paragraph/><v:tabList/>一事</text>			</g>
			<g id="shape13-30" v:mID="13" v:groupContext="shape" transform="translate(91.9037,-0.705652) rotate(0.1)">
				<title>工作表.13</title>
				<desc>位中結使魔民不能動</desc>
				<v:textBlock v:margins="rect(0,0,0,0)"/>
				<v:textRect cx="56.8532" cy="43.7146" width="113.71" height="10.8"/>
				<rect x="0" y="38.3146" width="113.706" height="10.8" class="st1"/>
				<text x="8.5" y="46.83" class="st2" v:langID="1028"><v:paragraph/><v:tabList/>位中結使魔民不能動</text>			</g>
			<g id="shape14-33" v:mID="14" v:groupContext="shape" transform="translate(197.389,-0.548573) rotate(0.1)">
				<title>工作表.14</title>
				<desc>———————</desc>
				<v:textBlock v:margins="rect(0,0,0,0)" v:tabSpace="42.5197"/>
				<v:textRect cx="41.617" cy="43.7146" width="83.24" height="10.8"/>
				<rect x="0" y="38.3146" width="83.234" height="10.8" class="st1"/>
				<text x="-0" y="46.71" class="st3" v:langID="1028"><v:paragraph/><v:tabList/>———————</text>			</g>
			<g id="shape15-36" v:mID="15" v:groupContext="shape" transform="translate(269.71,-0.374751) rotate(0.1)">
				<title>工作表.15</title>
				<desc>名無生忍</desc>
				<v:textBlock v:margins="rect(0,0,0,0)" v:tabSpace="42.5197"/>
				<v:textRect cx="23.1721" cy="43.7146" width="46.35" height="10.8"/>
				<rect x="0" y="38.3146" width="46.3442" height="10.8" class="st1"/>
				<text x="0" y="46.83" class="st2" v:langID="1028"><v:paragraph/><v:tabList/>名無生忍</text>			</g>
			<g id="shape22-39" v:mID="22" v:groupContext="shape" transform="translate(140.908,1.64944) rotate(90.1)">
				<title>工作表.22</title>
				<path d="M0 42.36 C0 44.21 1.76 45.74 3.97 45.74 L19.75 45.74 C21.91 45.74 23.67 47.22 23.67 49.11 C23.67 47.22 25.43
							 45.74 27.64 45.74 L43.42 45.74 C45.58 45.74 47.34 44.21 47.34 42.36 L0 42.36 Z" class="st4"/>
				<path d="M0 42.36 C0 44.21 1.76 45.74 3.97 45.74 L19.75 45.74 C21.91 45.74 23.67 47.22 23.67 49.11 C23.67 47.22 25.43
							 45.74 27.64 45.74 L43.42 45.74 C45.58 45.74 47.34 44.21 47.34 42.36" class="st5"/>
			</g>
			<g id="shape23-42" v:mID="23" v:groupContext="shape" transform="translate(269.268,1.95044) rotate(90.1)">
				<title>工作表.23</title>
				<path d="M0 49.11 L47.25 49.11" class="st6"/>
			</g>
			<g id="shape24-45" v:mID="24" v:groupContext="shape" transform="translate(100.463,-19.741)">
				<title>工作表.24</title>
				<desc>頂法增長堅固</desc>
				<v:textBlock v:margins="rect(0,0,0,0)"/>
				<v:textRect cx="31.9305" cy="43.7146" width="63.87" height="10.8"/>
				<rect x="0" y="38.3146" width="63.861" height="10.8" class="st1"/>
				<text x="0" y="46.83" class="st2" v:langID="1028"><v:paragraph/><v:tabList/>頂法增長堅固</text>			</g>
		</g>
	</g>
</svg>
