<?xml version="1.0" encoding="UTF-8" standalone="no"?>
<!DOCTYPE svg PUBLIC "-//W3C//DTD SVG 1.1//EN" "http://www.w3.org/Graphics/SVG/1.1/DTD/svg11.dtd">
<!-- 由 Microsoft Visio, SVG Export 產生 B00207.svg 頁-1 -->
<svg xmlns="http://www.w3.org/2000/svg" xmlns:xlink="http://www.w3.org/1999/xlink" xmlns:ev="http://www.w3.org/2001/xml-events"
		xmlns:v="http://schemas.microsoft.com/visio/2003/SVGExtensions/" width="2.42884in" height="0.420437in"
		viewBox="0 0 174.877 30.2715" xml:space="preserve" color-interpolation-filters="sRGB" class="st6">
	<v:documentProperties v:langID="1028" v:viewMarkup="false"/>

	<style type="text/css">
	<![CDATA[
		.st1 {fill:none;stroke:none;stroke-linecap:butt;stroke-width:0.75}
		.st2 {fill:#000000;font-family:新細明體;font-size:0.833336em}
		.st3 {fill:#000000;font-family:Times New Roman;font-size:0.833336em}
		.st4 {fill:none}
		.st5 {stroke:#000000;stroke-linecap:round;stroke-linejoin:round;stroke-width:0.5625}
		.st6 {fill:none;fill-rule:evenodd;font-size:12px;overflow:visible;stroke-linecap:square;stroke-miterlimit:3}
	]]>
	</style>

	<g v:mID="0" v:index="1" v:groupContext="foregroundPage">
		<title>頁-1</title>
		<v:pageProperties v:drawingScale="0.0393701" v:pageScale="0.0393701" v:drawingUnits="24" v:shadowOffsetX="9"
				v:shadowOffsetY="-9"/>
		<g id="group17-1" transform="translate(0.75,-0.28125)" v:mID="17" v:groupContext="group">
			<title>工作表.17</title>
			<g id="shape3-2" v:mID="3" v:groupContext="shape" transform="translate(139.169,-18.361) rotate(0.1)">
				<title>工作表.3</title>
				<desc>離顛倒</desc>
				<v:textBlock v:margins="rect(0,0,0,0)" v:tabSpace="42.5197"/>
				<v:textRect cx="16.389" cy="24.8715" width="32.78" height="10.8"/>
				<rect x="0" y="19.4715" width="32.778" height="10.8" class="st1"/>
				<text x="-0" y="27.99" class="st2" v:langID="1028"><v:paragraph/><v:tabList/>離顛倒</text>			</g>
			<g id="shape1-5" v:mID="1" v:groupContext="shape" transform="translate(34.7003,-18.2819) rotate(0.1)">
				<title>工作表.1</title>
				<desc>一、生滅智慧</desc>
				<v:textBlock v:margins="rect(0,0,0,0)" v:tabSpace="42.5197"/>
				<v:textRect cx="43.8452" cy="24.8715" width="87.7" height="10.8"/>
				<rect x="0" y="19.4715" width="87.6905" height="10.8" class="st1"/>
				<text x="8.5" y="27.99" class="st2" v:langID="1028"><v:paragraph/><v:tabList/>一、生滅智慧</text>			</g>
			<g id="shape2-8" v:mID="2" v:groupContext="shape" transform="translate(106.854,-18.231) rotate(0.1)">
				<title>工作表.2</title>
				<desc>———</desc>
				<v:textBlock v:margins="rect(0,0,0,0)" v:tabSpace="42.5197"/>
				<v:textRect cx="23.6838" cy="24.8715" width="47.37" height="10.8"/>
				<rect x="0" y="19.4715" width="47.3676" height="10.8" class="st1"/>
				<text x="0" y="27.87" class="st3" v:langID="1028"><v:paragraph/><v:tabList/>———</text>			</g>
			<g id="shape4-11" v:mID="4" v:groupContext="shape" transform="translate(0.0528337,-7.81472) rotate(0.1)">
				<title>工作表.4</title>
				<desc>智慧</desc>
				<v:textBlock v:margins="rect(0,0,0,0)" v:tabSpace="42.5197"/>
				<v:textRect cx="17.9161" cy="24.8715" width="35.84" height="10.8"/>
				<rect x="0" y="19.4715" width="35.8322" height="10.8" class="st1"/>
				<text x="0" y="27.99" class="st2" v:langID="1028"><v:paragraph/><v:tabList/>智慧</text>			</g>
			<g id="shape5-14" v:mID="5" v:groupContext="shape" transform="translate(21.5961,-8.01191) rotate(0.1)">
				<title>工作表.5</title>
				<desc>—</desc>
				<v:textBlock v:margins="rect(0,0,0,0)" v:tabSpace="42.5197"/>
				<v:textRect cx="4.5" cy="24.8715" width="9.01" height="10.8"/>
				<rect x="0" y="19.4715" width="9" height="10.8" class="st1"/>
				<text x="0" y="27.87" class="st3" v:langID="1028"><v:paragraph/><v:tabList/>—</text>			</g>
			<g id="shape7-17" v:mID="7" v:groupContext="shape" transform="translate(43.6643,-0.728204) rotate(0.1)">
				<title>工作表.7</title>
				<desc>二、離生滅智慧</desc>
				<v:textBlock v:margins="rect(0,0,0,0)" v:tabSpace="42.5197"/>
				<v:textRect cx="42.1944" cy="24.8715" width="84.39" height="10.8"/>
				<rect x="0" y="19.4715" width="84.3888" height="10.8" class="st1"/>
				<text x="-0" y="27.99" class="st2" v:langID="1028"><v:paragraph/><v:tabList/>二、離生滅智慧</text>			</g>
			<g id="shape8-20" v:mID="8" v:groupContext="shape" transform="translate(115.818,-0.618248) rotate(0.1)">
				<title>工作表.8</title>
				<desc>——</desc>
				<v:textBlock v:margins="rect(0,0,0,0)" v:tabSpace="42.5197"/>
				<v:textRect cx="16.3637" cy="24.8715" width="32.73" height="10.8"/>
				<rect x="0" y="19.4715" width="32.7273" height="10.8" class="st1"/>
				<text x="0" y="27.87" class="st3" v:langID="1028"><v:paragraph/><v:tabList/>——</text>			</g>
			<g id="shape9-23" v:mID="9" v:groupContext="shape" transform="translate(139.133,-0.763997) rotate(0.1)">
				<title>工作表.9</title>
				<desc>入無生</desc>
				<v:textBlock v:margins="rect(0,0,0,0)" v:tabSpace="42.5197"/>
				<v:textRect cx="17.139" cy="24.8715" width="34.28" height="10.8"/>
				<rect x="0" y="19.4715" width="34.278" height="10.8" class="st1"/>
				<text x="0" y="27.99" class="st2" v:langID="1028"><v:paragraph/><v:tabList/>入無生</text>			</g>
			<g id="shape16-26" v:mID="16" v:groupContext="shape" transform="translate(65.0503,1.96617) rotate(90.1)">
				<title>工作表.16</title>
				<path d="M0 23.52 C0 25.41 1.07 26.9 2.39 26.9 L11.84 26.9 C13.17 26.9 14.17 28.43 14.17 30.27 C14.17 28.43 15.25
							 26.9 16.57 26.9 L26.02 26.9 C27.34 26.9 28.35 25.41 28.35 23.52 L0 23.52 Z" class="st4"/>
				<path d="M0 23.52 C0 25.41 1.07 26.9 2.39 26.9 L11.84 26.9 C13.17 26.9 14.17 28.43 14.17 30.27 C14.17 28.43 15.25
							 26.9 16.57 26.9 L26.02 26.9 C27.34 26.9 28.35 25.41 28.35 23.52" class="st5"/>
			</g>
		</g>
	</g>
</svg>
