<?xml version="1.0" encoding="UTF-8" standalone="no"?>
<!DOCTYPE svg PUBLIC "-//W3C//DTD SVG 1.1//EN" "http://www.w3.org/Graphics/SVG/1.1/DTD/svg11.dtd">
<!-- 由 Microsoft Visio, SVG Export 產生 B00211.svg 頁-1 -->
<svg xmlns="http://www.w3.org/2000/svg" xmlns:xlink="http://www.w3.org/1999/xlink" xmlns:ev="http://www.w3.org/2001/xml-events"
		xmlns:v="http://schemas.microsoft.com/visio/2003/SVGExtensions/" width="3.46459in" height="0.635814in"
		viewBox="0 0 249.451 45.7786" xml:space="preserve" color-interpolation-filters="sRGB" class="st7">
	<v:documentProperties v:langID="1028" v:viewMarkup="false"/>

	<style type="text/css">
	<![CDATA[
		.st1 {fill:none;stroke:none;stroke-linecap:butt;stroke-width:0.75}
		.st2 {fill:#000000;font-family:新細明體;font-size:0.833336em}
		.st3 {fill:#000000;font-family:Times New Roman;font-size:0.833336em}
		.st4 {font-family:Times New Roman;font-size:1em}
		.st5 {fill:none}
		.st6 {stroke:#000000;stroke-linecap:round;stroke-linejoin:round;stroke-width:0.5625}
		.st7 {fill:none;fill-rule:evenodd;font-size:12px;overflow:visible;stroke-linecap:square;stroke-miterlimit:3}
	]]>
	</style>

	<g v:mID="0" v:index="1" v:groupContext="foregroundPage">
		<title>頁-1</title>
		<v:pageProperties v:drawingScale="0.0393701" v:pageScale="0.0393701" v:drawingUnits="24" v:shadowOffsetX="9"
				v:shadowOffsetY="-9"/>
		<g id="group19-1" transform="translate(0.75,-0.615549)" v:mID="19" v:groupContext="group">
			<title>工作表.19</title>
			<g id="shape2-2" v:mID="2" v:groupContext="shape" transform="translate(34.0832,-33.5338) rotate(0.1)">
				<title>工作表.2</title>
				<desc>行不貪善根</desc>
				<v:textBlock v:margins="rect(0,0,0,0)" v:tabSpace="42.5197"/>
				<v:textRect cx="31.8005" cy="40.3786" width="63.61" height="10.8"/>
				<rect x="0" y="34.9786" width="63.6009" height="10.8" class="st1"/>
				<text x="8.5" y="43.49" class="st2" v:langID="1028"><v:paragraph/><v:tabList/>行不貪善根</text>			</g>
			<g id="shape3-5" v:mID="3" v:groupContext="shape" transform="translate(94.1573,-33.4396) rotate(0.1)">
				<title>工作表.3</title>
				<desc>——</desc>
				<v:textBlock v:margins="rect(0,0,0,0)" v:tabSpace="42.5197"/>
				<v:textRect cx="16.8477" cy="40.3786" width="33.7" height="10.8"/>
				<rect x="0" y="34.9786" width="33.6954" height="10.8" class="st1"/>
				<text x="0" y="43.38" class="st3" v:langID="1028"><v:paragraph/><v:tabList/>——</text>			</g>
			<g id="shape4-8" v:mID="4" v:groupContext="shape" transform="translate(115.532,-33.4082) rotate(0.1)">
				<title>工作表.4</title>
				<desc>愛等結使薄……深入禪定</desc>
				<v:textBlock v:margins="rect(0,0,0,0)" v:tabSpace="42.5197"/>
				<v:textRect cx="64.5408" cy="40.3786" width="129.09" height="10.8"/>
				<rect x="0" y="34.9786" width="129.082" height="10.8" class="st1"/>
				<text x="0" y="43.49" class="st2" v:langID="1028"><v:paragraph/><v:tabList/>愛等結使薄<tspan class="st4">……</tspan>深入禪定</text>			</g>
			<g id="shape5-12" v:mID="5" v:groupContext="shape" transform="translate(0.0798987,-17.1267) rotate(0.1)">
				<title>工作表.5</title>
				<desc>三善根</desc>
				<v:textBlock v:margins="rect(0,0,0,0)" v:tabSpace="42.5197"/>
				<v:textRect cx="26.4294" cy="40.3786" width="52.86" height="10.8"/>
				<rect x="0" y="34.9786" width="52.8588" height="10.8" class="st1"/>
				<text x="0" y="43.49" class="st2" v:langID="1028"><v:paragraph/><v:tabList/>三善根</text>			</g>
			<g id="shape6-15" v:mID="6" v:groupContext="shape" transform="translate(34.0551,-17.0632) rotate(0.1)">
				<title>工作表.6</title>
				<desc>行不瞋善根</desc>
				<v:textBlock v:margins="rect(0,0,0,0)" v:tabSpace="42.5197"/>
				<v:textRect cx="31.39" cy="40.3786" width="62.79" height="10.8"/>
				<rect x="0" y="34.9786" width="62.78" height="10.8" class="st1"/>
				<text x="8.5" y="43.49" class="st2" v:langID="1028"><v:paragraph/><v:tabList/>行不瞋善根</text>			</g>
			<g id="shape7-18" v:mID="7" v:groupContext="shape" transform="translate(94.1293,-16.9689) rotate(0.1)">
				<title>工作表.7</title>
				<desc>——</desc>
				<v:textBlock v:margins="rect(0,0,0,0)" v:tabSpace="42.5197"/>
				<v:textRect cx="14.8782" cy="40.3786" width="29.76" height="10.8"/>
				<rect x="0" y="34.9786" width="29.7564" height="10.8" class="st1"/>
				<text x="0" y="43.38" class="st3" v:langID="1028"><v:paragraph/><v:tabList/>——</text>			</g>
			<g id="shape8-21" v:mID="8" v:groupContext="shape" transform="translate(115.504,-16.9375) rotate(0.1)">
				<title>工作表.8</title>
				<desc>瞋等結使薄……深入慈悲</desc>
				<v:textBlock v:margins="rect(0,0,0,0)" v:tabSpace="42.5197"/>
				<v:textRect cx="59.5946" cy="40.3786" width="119.19" height="10.8"/>
				<rect x="0" y="34.9786" width="119.189" height="10.8" class="st1"/>
				<text x="-0" y="43.49" class="st2" v:langID="1028"><v:paragraph/><v:tabList/>瞋等結使薄<tspan class="st4">……</tspan>深入慈悲</text>			</g>
			<g id="shape9-25" v:mID="9" v:groupContext="shape" transform="translate(34.0248,-0.548512) rotate(0.1)">
				<title>工作表.9</title>
				<desc>行不癡善根</desc>
				<v:textBlock v:margins="rect(0,0,0,0)" v:tabSpace="42.5197"/>
				<v:textRect cx="33.2456" cy="40.3786" width="66.5" height="10.8"/>
				<rect x="0" y="34.9786" width="66.4912" height="10.8" class="st1"/>
				<text x="8.5" y="43.49" class="st2" v:langID="1028"><v:paragraph/><v:tabList/>行不癡善根</text>			</g>
			<g id="shape10-28" v:mID="10" v:groupContext="shape" transform="translate(94.099,-0.454264) rotate(0.1)">
				<title>工作表.10</title>
				<desc>——</desc>
				<v:textBlock v:margins="rect(0,0,0,0)" v:tabSpace="42.5197"/>
				<v:textRect cx="16.8755" cy="40.3786" width="33.76" height="10.8"/>
				<rect x="0" y="34.9786" width="33.751" height="10.8" class="st1"/>
				<text x="0" y="43.38" class="st3" v:langID="1028"><v:paragraph/><v:tabList/>——</text>			</g>
			<g id="shape11-31" v:mID="11" v:groupContext="shape" transform="translate(115.474,-0.422849) rotate(0.1)">
				<title>工作表.11</title>
				<desc>無明等結使薄……深入般若</desc>
				<v:textBlock v:margins="rect(0,0,0,0)" v:tabSpace="42.5197"/>
				<v:textRect cx="66.2691" cy="40.3786" width="132.54" height="10.8"/>
				<rect x="0" y="34.9786" width="132.538" height="10.8" class="st1"/>
				<text x="0" y="43.49" class="st2" v:langID="1028"><v:paragraph/><v:tabList/>無明等結使薄<tspan class="st4">……</tspan>深入般若</text>			</g>
			<g id="shape18-35" v:mID="18" v:groupContext="shape" transform="translate(78.9019,1.05948) rotate(90.1)">
				<title>工作表.18</title>
				<path d="M0 39.03 C0 40.92 1.67 42.4 3.7 42.4 L18.63 42.4 C20.72 42.4 22.39 43.93 22.39 45.78 C22.39 43.93 24.07
							 42.4 26.1 42.4 L41.03 42.4 C43.12 42.4 44.79 40.92 44.79 39.03 L0 39.03 Z" class="st5"/>
				<path d="M0 39.03 C0 40.92 1.67 42.4 3.7 42.4 L18.63 42.4 C20.72 42.4 22.39 43.93 22.39 45.78 C22.39 43.93 24.07
							 42.4 26.1 42.4 L41.03 42.4 C43.12 42.4 44.79 40.92 44.79 39.03" class="st6"/>
			</g>
		</g>
	</g>
</svg>
