<?xml version="1.0" encoding="UTF-8" standalone="no"?>
<!DOCTYPE svg PUBLIC "-//W3C//DTD SVG 1.1//EN" "http://www.w3.org/Graphics/SVG/1.1/DTD/svg11.dtd">
<!-- 由 Microsoft Visio, SVG Export 產生 B00308.svg 頁-1 -->
<svg xmlns="http://www.w3.org/2000/svg" xmlns:xlink="http://www.w3.org/1999/xlink" xmlns:ev="http://www.w3.org/2001/xml-events"
		xmlns:v="http://schemas.microsoft.com/visio/2003/SVGExtensions/" width="3.89055in" height="0.635765in"
		viewBox="0 0 280.12 45.7751" xml:space="preserve" color-interpolation-filters="sRGB" class="st5">
	<v:documentProperties v:langID="1028" v:viewMarkup="false"/>

	<style type="text/css">
	<![CDATA[
		.st1 {fill:none;stroke:none;stroke-linecap:butt;stroke-width:0.75}
		.st2 {fill:#000000;font-family:新細明體;font-size:0.833336em}
		.st3 {stroke:#000000;stroke-linecap:round;stroke-linejoin:round;stroke-width:0.5625}
		.st4 {fill:none}
		.st5 {fill:none;fill-rule:evenodd;font-size:12px;overflow:visible;stroke-linecap:square;stroke-miterlimit:3}
	]]>
	</style>

	<g v:mID="0" v:index="1" v:groupContext="foregroundPage">
		<title>頁-1</title>
		<v:pageProperties v:drawingScale="0.0393701" v:pageScale="0.0393701" v:drawingUnits="24" v:shadowOffsetX="9"
				v:shadowOffsetY="-9"/>
		<g id="group19-1" transform="translate(0.75,-0.830772)" v:mID="19" v:groupContext="group">
			<title>工作表.19</title>
			<g id="shape2-2" v:mID="2" v:groupContext="shape" transform="translate(71.1304,-33.315) rotate(0.1)">
				<title>工作表.2</title>
				<desc>一、實相般若即是三乘同證無餘涅槃</desc>
				<v:textBlock v:margins="rect(0,0,0,0)" v:tabSpace="42.5197"/>
				<v:textRect cx="94.5956" cy="40.3751" width="189.2" height="10.8"/>
				<rect x="0" y="34.9751" width="189.191" height="10.8" class="st1"/>
				<text x="-0" y="43.49" class="st2" v:langID="1028"><v:paragraph/><v:tabList/>一、實相般若即是三乘同證無餘涅槃</text>			</g>
			<g id="shape3-5" v:mID="3" v:groupContext="shape" transform="translate(0.0798925,-15.5046) rotate(0.1)">
				<title>工作表.3</title>
				<desc>三乘同學般若</desc>
				<v:textBlock v:margins="rect(0,0,0,0)" v:tabSpace="42.5197"/>
				<v:textRect cx="39.0487" cy="40.3751" width="78.1" height="10.8"/>
				<rect x="0" y="34.9751" width="78.0974" height="10.8" class="st1"/>
				<text x="0" y="43.49" class="st2" v:langID="1028"><v:paragraph/><v:tabList/>三乘同學般若</text>			</g>
			<g id="shape4-8" v:mID="4" v:groupContext="shape" transform="translate(71.1023,-16.8451) rotate(0.1)">
				<title>工作表.4</title>
				<desc>二、經中所說空解脫門三乘同學故</desc>
				<v:textBlock v:margins="rect(0,0,0,0)" v:tabSpace="42.5197"/>
				<v:textRect cx="89.0813" cy="40.3751" width="178.17" height="10.8"/>
				<rect x="0" y="34.9751" width="178.163" height="10.8" class="st1"/>
				<text x="-0" y="43.49" class="st2" v:langID="1028"><v:paragraph/><v:tabList/>二、經中所說空解脫門，三乘同學故</text>			</g>
			<g id="shape5-11" v:mID="5" v:groupContext="shape" transform="translate(269.429,-16.531) rotate(0.1)">
				<title>工作表.5</title>
				<desc>論</desc>
				<v:textBlock v:margins="rect(0,0,0,0)" v:tabSpace="42.5197"/>
				<v:textRect cx="4.5" cy="40.3751" width="9.01" height="10.8"/>
				<rect x="0" y="34.9751" width="9" height="10.8" class="st1"/>
				<text x="0" y="43.49" class="st2" v:langID="1028"><v:paragraph/><v:tabList/>論</text>			</g>
			<g id="shape6-14" v:mID="6" v:groupContext="shape" transform="translate(71.0728,-0.329798) rotate(0.1)">
				<title>工作表.6</title>
				<desc>三、於般若中廣說三乘相故</desc>
				<v:textBlock v:margins="rect(0,0,0,0)" v:tabSpace="42.5197"/>
				<v:textRect cx="86.4033" cy="40.3751" width="172.81" height="10.8"/>
				<rect x="0" y="34.9751" width="172.807" height="10.8" class="st1"/>
				<text x="-0" y="43.49" class="st2" v:langID="1028"><v:paragraph/><v:tabList/>三、於般若中，廣說三乘相故</text>			</g>
			<g id="shape7-17" v:mID="7" v:groupContext="shape" transform="translate(269.4,-0.0156382) rotate(0.1)">
				<title>工作表.7</title>
				<desc>經</desc>
				<v:textBlock v:margins="rect(0,0,0,0)" v:tabSpace="42.5197"/>
				<v:textRect cx="4.5" cy="40.3751" width="9.01" height="10.8"/>
				<rect x="0" y="34.9751" width="9" height="10.8" class="st1"/>
				<text x="-0" y="43.49" class="st2" v:langID="1028"><v:paragraph/><v:tabList/>經</text>			</g>
			<g id="shape14-20" v:mID="14" v:groupContext="shape" transform="translate(251.581,-34.4697) rotate(25.677)">
				<title>工作表.14</title>
				<path d="M0 45.78 L39.24 45.78" class="st3"/>
			</g>
			<g id="shape15-23" v:mID="15" v:groupContext="shape" transform="translate(233.44,-22.0469) rotate(0.1)">
				<title>工作表.15</title>
				<path d="M0 45.78 L33.75 45.78" class="st3"/>
			</g>
			<g id="shape16-26" v:mID="16" v:groupContext="shape" transform="translate(203.4,-4.9742)">
				<title>工作表.16</title>
				<path d="M0 45.78 L63.46 45.78" class="st3"/>
			</g>
			<g id="shape17-29" v:mID="17" v:groupContext="shape" transform="translate(191.59,-3.42436) rotate(-14.952)">
				<title>工作表.17</title>
				<path d="M0 45.78 L65.94 45.78" class="st3"/>
			</g>
			<g id="shape18-32" v:mID="18" v:groupContext="shape" transform="translate(108.044,4.08884) rotate(90.1)">
				<title>工作表.18</title>
				<path d="M0 40.5 C0 41.98 1.53 43.14 3.38 43.14 L16.88 43.14 C18.72 43.14 20.25 44.33 20.25 45.78 C20.25 44.33 21.78
							 43.14 23.63 43.14 L37.13 43.14 C38.97 43.14 40.5 41.98 40.5 40.5 L0 40.5 Z" class="st4"/>
				<path d="M0 40.5 C0 41.98 1.53 43.14 3.38 43.14 L16.88 43.14 C18.72 43.14 20.25 44.33 20.25 45.78 C20.25 44.33 21.78
							 43.14 23.63 43.14 L37.13 43.14 C38.97 43.14 40.5 41.98 40.5 40.5" class="st3"/>
			</g>
		</g>
	</g>
</svg>
