<?xml version="1.0" encoding="UTF-8" standalone="no"?>
<!DOCTYPE svg PUBLIC "-//W3C//DTD SVG 1.1//EN" "http://www.w3.org/Graphics/SVG/1.1/DTD/svg11.dtd">
<!-- 由 Microsoft Visio, SVG Export 產生 B00303.svg Page-1 -->
<svg xmlns="http://www.w3.org/2000/svg" xmlns:xlink="http://www.w3.org/1999/xlink" xmlns:ev="http://www.w3.org/2001/xml-events"
		xmlns:v="http://schemas.microsoft.com/visio/2003/SVGExtensions/" width="8.26772in" height="11.6929in"
		viewBox="0 0 595.276 841.89" xml:space="preserve" color-interpolation-filters="sRGB" class="st5">
	<v:documentProperties v:langID="1028" v:metric="true" v:viewMarkup="false">
		<v:userDefs>
			<v:ud v:nameU="msvNoAutoConnect" v:val="VT0(1):26"/>
		</v:userDefs>
	</v:documentProperties>

	<style type="text/css">
	<![CDATA[
		.st1 {fill:none;stroke:none;stroke-linecap:butt;stroke-width:0.75}
		.st2 {fill:#000000;font-family:新細明體;font-size:0.833336em}
		.st3 {fill:none}
		.st4 {stroke:#000000;stroke-linecap:round;stroke-linejoin:round;stroke-width:0.5625}
		.st5 {fill:none;fill-rule:evenodd;font-size:12px;overflow:visible;stroke-linecap:square;stroke-miterlimit:3}
	]]>
	</style>

	<g v:mID="0" v:index="1" v:groupContext="foregroundPage">
		<title>頁-1</title>
		<v:pageProperties v:drawingScale="0.0393701" v:pageScale="0.0393701" v:drawingUnits="24" v:shadowOffsetX="9"
				v:shadowOffsetY="-9"/>
		<g id="group14-1" transform="translate(18,-795.793)" v:mID="14" v:groupContext="group">
			<title>工作表.14</title>
			<g id="shape2-2" v:mID="2" v:groupContext="shape" transform="translate(116.698,-17.2953) rotate(0.1)">
				<title>工作表.2</title>
				<desc>於人天中為妙</desc>
				<v:textBlock v:margins="rect(0,0,0,0)"/>
				<v:textRect cx="46.5" cy="836.49" width="93.01" height="10.8"/>
				<rect x="0" y="831.09" width="93" height="10.8" class="st1"/>
				<text x="25.5" y="839.6" class="st2" v:langID="1028"><v:paragraph/><v:tabList/>於人天中為妙</text>			</g>
			<g id="shape3-5" v:mID="3" v:groupContext="shape" transform="translate(1.46937,-8.46463) rotate(0.1)">
				<title>工作表.3</title>
				<desc>愛等結使集諸善法法愛名生</desc>
				<v:textBlock v:margins="rect(0,0,0,0)" v:tabSpace="42.5197"/>
				<v:textRect cx="74.3908" cy="836.49" width="148.79" height="10.8"/>
				<rect x="0" y="831.09" width="148.782" height="10.8" class="st1"/>
				<text x="0" y="839.6" class="st2" v:langID="1028"><v:paragraph/><v:tabList/>愛等結使集諸善法，法愛名生</text>			</g>
			<g id="shape4-8" v:mID="4" v:groupContext="shape" transform="translate(133.559,-0.158324) rotate(0.1)">
				<title>工作表.4</title>
				<desc>於無生忍為累</desc>
				<v:textBlock v:margins="rect(0,0,0,0)"/>
				<v:textRect cx="45.7239" cy="836.49" width="91.45" height="10.8"/>
				<rect x="0" y="831.09" width="91.4478" height="10.8" class="st1"/>
				<text x="8.5" y="839.6" class="st2" v:langID="1028"><v:paragraph/><v:tabList/>於無生忍為累</text>			</g>
			<g id="shape13-11" v:mID="13" v:groupContext="shape" transform="translate(974.303,816.923) rotate(90.1)">
				<title>工作表.13</title>
				<path d="M0 836.98 C0 838.35 0.97 839.43 2.12 839.43 L10.72 839.43 C11.92 839.43 12.9 840.55 12.9 841.89 C12.9 840.55
							 13.87 839.43 15.02 839.43 L23.61 839.43 C24.82 839.43 25.79 838.35 25.79 836.98 L0 836.98 Z"
						class="st3"/>
				<path d="M0 836.98 C0 838.35 0.97 839.43 2.12 839.43 L10.72 839.43 C11.92 839.43 12.9 840.55 12.9 841.89 C12.9 840.55
							 13.87 839.43 15.02 839.43 L23.61 839.43 C24.82 839.43 25.79 838.35 25.79 836.98" class="st4"/>
			</g>
		</g>
	</g>
</svg>
