<?xml version="1.0" encoding="UTF-8" standalone="no"?>
<!DOCTYPE svg PUBLIC "-//W3C//DTD SVG 1.1//EN" "http://www.w3.org/Graphics/SVG/1.1/DTD/svg11.dtd">
<!-- 由 Microsoft Visio, SVG Export 產生 B00202.svg 頁-1 -->
<svg xmlns="http://www.w3.org/2000/svg" xmlns:xlink="http://www.w3.org/1999/xlink" xmlns:ev="http://www.w3.org/2001/xml-events"
		xmlns:v="http://schemas.microsoft.com/visio/2003/SVGExtensions/" width="2.76029in" height="0.711644in"
		viewBox="0 0 198.741 51.2384" xml:space="preserve" color-interpolation-filters="sRGB" class="st7">
	<v:documentProperties v:langID="1028" v:viewMarkup="false"/>

	<style type="text/css">
	<![CDATA[
		.st1 {fill:none;stroke:none;stroke-linecap:butt;stroke-width:0.75}
		.st2 {fill:#000000;font-family:新細明體;font-size:0.833336em}
		.st3 {stroke:#000000;stroke-linecap:round;stroke-linejoin:round;stroke-width:0.5625}
		.st4 {fill:#000000}
		.st5 {stroke:none;stroke-linecap:butt;stroke-width:0.75}
		.st6 {fill:none}
		.st7 {fill:none;fill-rule:evenodd;font-size:12px;overflow:visible;stroke-linecap:square;stroke-miterlimit:3}
	]]>
	</style>

	<g v:mID="0" v:index="1" v:groupContext="foregroundPage">
		<title>頁-1</title>
		<v:pageProperties v:drawingScale="0.0393701" v:pageScale="0.0393701" v:drawingUnits="24" v:shadowOffsetX="9"
				v:shadowOffsetY="-9"/>
		<g id="group24-1" transform="translate(0.75,-0.820907)" v:mID="24" v:groupContext="group">
			<title>工作表.24</title>
			<g id="shape1-2" v:mID="1" v:groupContext="shape" transform="translate(30.2745,-38.7882) rotate(0.1)">
				<title>工作表.1</title>
				<desc>名假</desc>
				<v:textBlock v:margins="rect(0,0,0,0)" v:tabSpace="42.5197"/>
				<v:textRect cx="19.1705" cy="45.8384" width="38.35" height="10.8"/>
				<rect x="0" y="40.4384" width="38.341" height="10.8" class="st1"/>
				<text x="8.5" y="48.95" class="st2" v:langID="1028"><v:paragraph/><v:tabList/>名假</text>			</g>
			<g id="shape2-5" v:mID="2" v:groupContext="shape" transform="translate(95.7664,-30.7798) rotate(0.1)">
				<title>工作表.2</title>
				<desc>破名至受</desc>
				<v:textBlock v:margins="rect(0,0,0,0)" v:tabSpace="42.5197"/>
				<v:textRect cx="21.8592" cy="45.8384" width="43.72" height="10.8"/>
				<rect x="0" y="40.4384" width="43.7183" height="10.8" class="st1"/>
				<text x="0" y="48.95" class="st2" v:langID="1028"><v:paragraph/><v:tabList/>破名至受</text>			</g>
			<g id="shape3-8" v:mID="3" v:groupContext="shape" transform="translate(0.0894278,-19.1383) rotate(0.1)">
				<title>工作表.3</title>
				<desc>三假觀</desc>
				<v:textBlock v:margins="rect(0,0,0,0)" v:tabSpace="42.5197"/>
				<v:textRect cx="17.9241" cy="45.8384" width="35.85" height="10.8"/>
				<rect x="0" y="40.4384" width="35.8482" height="10.8" class="st1"/>
				<text x="-0" y="48.95" class="st2" v:langID="1028"><v:paragraph/><v:tabList/>三假觀 </text>			</g>
			<g id="shape4-11" v:mID="4" v:groupContext="shape" transform="translate(95.7088,-12.1669) rotate(0.1)">
				<title>工作表.4</title>
				<desc>破受至法</desc>
				<v:textBlock v:margins="rect(0,0,0,0)" v:tabSpace="42.5197"/>
				<v:textRect cx="21.0371" cy="45.8384" width="42.08" height="10.8"/>
				<rect x="0" y="40.4384" width="42.0741" height="10.8" class="st1"/>
				<text x="0" y="48.95" class="st2" v:langID="1028"><v:paragraph/><v:tabList/>破受至法</text>			</g>
			<g id="shape5-14" v:mID="5" v:groupContext="shape" transform="translate(30.1593,-0.0953084) rotate(0.1)">
				<title>工作表.5</title>
				<desc>法假</desc>
				<v:textBlock v:margins="rect(0,0,0,0)" v:tabSpace="42.5197"/>
				<v:textRect cx="19.2255" cy="45.8384" width="38.46" height="10.8"/>
				<rect x="0" y="40.4384" width="38.451" height="10.8" class="st1"/>
				<text x="8.5" y="48.95" class="st2" v:langID="1028"><v:paragraph/><v:tabList/>法假</text>			</g>
			<g id="shape6-17" v:mID="6" v:groupContext="shape" transform="translate(142.659,-0.0953084) rotate(0.1)">
				<title>工作表.6</title>
				<desc>破法至實相</desc>
				<v:textBlock v:margins="rect(0,0,0,0)" v:tabSpace="42.5197"/>
				<v:textRect cx="27.3262" cy="45.8384" width="54.66" height="10.8"/>
				<rect x="0" y="40.4384" width="54.6524" height="10.8" class="st1"/>
				<text x="-0" y="48.95" class="st2" v:langID="1028"><v:paragraph/><v:tabList/>破法至實相</text>			</g>
			<g id="shape15-20" v:mID="15" v:groupContext="shape" transform="translate(72.5231,-43.6369) rotate(12.8042)">
				<title>工作表.15</title>
				<path d="M0 51.24 L31.98 51.24" class="st3"/>
			</g>
			<g id="shape16-23" v:mID="16" v:groupContext="shape" transform="translate(112.418,13.4739) rotate(90.1)">
				<title>工作表.16</title>
				<path d="M12.78 47.51 L12.35 51.24 L9.44 48.65 L12.78 47.51 ZM0.43 20.2 L11.53 48.55 L11.53 48.69 L11.38 48.82 L11.24
							 48.79 L11.1 48.69 L0 20.34 L0 20.2 L0.14 20.07 L0.29 20.1 L0.43 20.2 Z" class="st4"/>
				<path d="M12.78 47.51 L12.35 51.24 L9.44 48.65M0.43 20.2 L11.53 48.55 L11.53 48.69 L11.38 48.82 L11.24 48.79 L11.1
							 48.69 L0 20.34 L0 20.2 L0.14 20.07 L0.29 20.1 L0.43 20.2" class="st5"/>
			</g>
			<g id="shape17-26" v:mID="17" v:groupContext="shape" transform="translate(78.0724,-24.3742) rotate(16.4318)">
				<title>工作表.17</title>
				<path d="M0 51.24 L30 51.24" class="st3"/>
			</g>
			<g id="shape18-29" v:mID="18" v:groupContext="shape" transform="translate(112.626,33.3215) rotate(90.1)">
				<title>工作表.18</title>
				<path d="M11.26 47.62 L10.64 51.24 L7.93 48.6 L11.26 47.62 ZM0.42 20.4 L9.98 48.57 L9.94 48.73 L9.84 48.83 L9.66
							 48.83 L9.56 48.7 L0 20.53 L0 20.37 L0.14 20.27 L0.31 20.3 L0.42 20.4 Z" class="st4"/>
				<path d="M11.26 47.62 L10.64 51.24 L7.93 48.6M0.42 20.4 L9.98 48.57 L9.94 48.73 L9.84 48.83 L9.66 48.83 L9.56 48.7
							 L0 20.53 L0 20.37 L0.14 20.27 L0.31 20.3 L0.42 20.4" class="st5"/>
			</g>
			<g id="shape20-32" v:mID="20" v:groupContext="shape" transform="translate(82.28,1.72895) rotate(90.1)">
				<title>工作表.20</title>
				<path d="M0 45.18 C0 46.87 1.82 48.21 4.05 48.21 L20.26 48.21 C22.49 48.21 24.31 49.58 24.31 51.24 C24.31 49.58 26.13
							 48.21 28.36 48.21 L44.57 48.21 C46.8 48.21 48.62 46.87 48.62 45.18 L0 45.18 Z" class="st6"/>
				<path d="M0 45.18 C0 46.87 1.82 48.21 4.05 48.21 L20.26 48.21 C22.49 48.21 24.31 49.58 24.31 51.24 C24.31 49.58 26.13
							 48.21 28.36 48.21 L44.57 48.21 C46.8 48.21 48.62 46.87 48.62 45.18" class="st3"/>
			</g>
			<g id="shape21-35" v:mID="21" v:groupContext="shape" transform="translate(39.0625,-20.5453)">
				<title>工作表.21</title>
				<desc>受假</desc>
				<v:textBlock v:margins="rect(0,0,0,0)" v:tabSpace="42.5197"/>
				<v:textRect cx="11.3604" cy="45.8384" width="22.73" height="10.8"/>
				<rect x="0" y="40.4384" width="22.7207" height="10.8" class="st1"/>
				<text x="0" y="48.95" class="st2" v:langID="1028"><v:paragraph/><v:tabList/>受假</text>			</g>
			<g id="shape19-38" v:mID="19" v:groupContext="shape" transform="translate(115.244,43.7256) rotate(90.1)">
				<title>工作表.19</title>
				<path d="M0 -21.06 L2.25 -25.3 L4.5 -21.06 L0 -21.06 ZM1.98 50.98 L1.98 -21.78 L2.03 -21.99 L2.25 -22.04 L2.43 -21.99
							 L2.52 -21.78 L2.52 50.98 L2.43 51.15 L2.25 51.24 L2.03 51.15 L1.98 50.98 Z" class="st4"/>
				<path d="M0 -21.06 L2.25 -25.3 L4.5 -21.06M1.98 50.98 L1.98 -21.78 L2.03 -21.99 L2.25 -22.04 L2.43 -21.99 L2.52 -21.78
							 L2.52 50.98 L2.43 51.15 L2.25 51.24 L2.03 51.15 L1.98 50.98" class="st5"/>
			</g>
		</g>
	</g>
</svg>
