<?xml version="1.0" encoding="UTF-8" standalone="no"?>
<!DOCTYPE svg PUBLIC "-//W3C//DTD SVG 1.1//EN" "http://www.w3.org/Graphics/SVG/1.1/DTD/svg11.dtd">
<!-- 由 Microsoft Visio, SVG Export 產生 B00201-2（M041.065）.svg 頁-1 -->
<svg xmlns="http://www.w3.org/2000/svg" xmlns:xlink="http://www.w3.org/1999/xlink" xmlns:ev="http://www.w3.org/2001/xml-events"
		xmlns:v="http://schemas.microsoft.com/visio/2003/SVGExtensions/" width="5.38107in" height="0.613773in"
		viewBox="0 0 387.437 44.1916" xml:space="preserve" color-interpolation-filters="sRGB" class="st6">
	<v:documentProperties v:langID="1028" v:viewMarkup="false"/>

	<style type="text/css">
	<![CDATA[
		.st1 {fill:none;stroke:none;stroke-linecap:butt;stroke-width:0.75}
		.st2 {fill:#000000;font-family:新細明體;font-size:0.833336em}
		.st3 {font-family:Times New Roman;font-size:1em}
		.st4 {fill:none}
		.st5 {stroke:#000000;stroke-linecap:round;stroke-linejoin:round;stroke-width:0.5625}
		.st6 {fill:none;fill-rule:evenodd;font-size:12px;overflow:visible;stroke-linecap:square;stroke-miterlimit:3}
	]]>
	</style>

	<g v:mID="0" v:index="1" v:groupContext="foregroundPage">
		<title>頁-1</title>
		<v:pageProperties v:drawingScale="0.0393701" v:pageScale="0.0393701" v:drawingUnits="24" v:shadowOffsetX="9"
				v:shadowOffsetY="-9"/>
		<g id="shape1-1" v:mID="1" v:groupContext="shape" transform="translate(54.565,-32.5624) rotate(0.1)">
			<title>工作表.1</title>
			<desc>從法有法名法假法———眾微和合有粗法生如細色成粗色。</desc>
			<v:textBlock v:margins="rect(0,0,0,0)" v:tabSpace="42.5197"/>
			<v:textRect cx="145.926" cy="38.7916" width="291.86" height="10.8"/>
			<rect x="0" y="33.3916" width="291.853" height="10.8" class="st1"/>
			<text x="0" y="41.91" class="st2" v:langID="1028"><v:paragraph/><v:tabList/>從法有法名法假（法）<tspan class="st3">———</tspan>眾微和合有粗法生，如細色成粗色。</text>		</g>
		<g id="shape4-5" v:mID="4" v:groupContext="shape" transform="translate(0.827129,-17.2198) rotate(0.1)">
			<title>工作表.4</title>
			<desc>三假之(2)</desc>
			<v:textBlock v:margins="rect(0,0,0,0)" v:tabSpace="42.5197"/>
			<v:textRect cx="22.176" cy="38.7916" width="44.36" height="10.8"/>
			<rect x="0" y="33.3916" width="44.3521" height="10.8" class="st1"/>
			<text x="0" y="41.91" class="st2" v:langID="1028"><v:paragraph/><v:tabList/>三假之<tspan class="st3">(2)</tspan></text>		</g>
		<g id="shape6-9" v:mID="6" v:groupContext="shape" transform="translate(54.5384,-16.0917) rotate(0.1)">
			<title>工作表.6</title>
			<desc>取法取名名受假法名——粗法和合有名字生如照燒名火名色名人。</desc>
			<v:textBlock v:margins="rect(0,0,0,0)" v:tabSpace="42.5197"/>
			<v:textRect cx="165.784" cy="38.7916" width="331.57" height="10.8"/>
			<rect x="0" y="33.3916" width="331.568" height="10.8" class="st1"/>
			<text x="0" y="41.91" class="st2" v:langID="1028"><v:paragraph/><v:tabList/>取法取名名受假（法名）<tspan class="st3">——</tspan>粗法和合有名字生，如照燒名火，名色名人。</text>		</g>
		<g id="shape9-13" v:mID="9" v:groupContext="shape" transform="translate(54.5005,-1.40492) rotate(0.1)">
			<title>工作表.9</title>
			<desc>從名有名名名假名———多名字邊有名字生如梁椽名屋枝葉名樹。</desc>
			<v:textBlock v:margins="rect(0,0,0,0)" v:tabSpace="42.5197"/>
			<v:textRect cx="166.123" cy="38.7916" width="332.25" height="10.8"/>
			<rect x="0" y="33.3916" width="332.245" height="10.8" class="st1"/>
			<text x="0" y="41.91" class="st2" v:langID="1028"><v:paragraph/><v:tabList/>從名有名名名假（名）<tspan class="st3">———</tspan>多名字邊有名字生，如梁椽名屋，枝葉名樹。</text>		</g>
		<g id="shape11-17" v:mID="11" v:groupContext="shape" transform="translate(90.7514,2.07225) rotate(90.1)">
			<title>工作表.11</title>
			<path d="M0 40.23 C0 41.34 1.48 42.21 3.28 42.21 L16.51 42.21 C18.36 42.21 19.84 43.11 19.84 44.19 C19.84 43.11 21.32
						 42.21 23.12 42.21 L36.35 42.21 C38.21 42.21 39.69 41.34 39.69 40.23 L0 40.23 Z" class="st4"/>
			<path d="M0 40.23 C0 41.34 1.48 42.21 3.28 42.21 L16.51 42.21 C18.36 42.21 19.84 43.11 19.84 44.19 C19.84 43.11 21.32
						 42.21 23.12 42.21 L36.35 42.21 C38.21 42.21 39.69 41.34 39.69 40.23" class="st5"/>
		</g>
	</g>
</svg>
