<?xml version="1.0" encoding="UTF-8" standalone="no"?>
<!DOCTYPE svg PUBLIC "-//W3C//DTD SVG 1.1//EN" "http://www.w3.org/Graphics/SVG/1.1/DTD/svg11.dtd">
<!-- 由 Microsoft Visio, SVG Export 產生 B00302.svg 頁-1 -->
<svg xmlns="http://www.w3.org/2000/svg" xmlns:xlink="http://www.w3.org/1999/xlink" xmlns:ev="http://www.w3.org/2001/xml-events"
		xmlns:v="http://schemas.microsoft.com/visio/2003/SVGExtensions/" width="5.23044in" height="0.438455in"
		viewBox="0 0 376.592 31.5688" xml:space="preserve" color-interpolation-filters="sRGB" class="st7">
	<v:documentProperties v:langID="1028" v:viewMarkup="false"/>

	<style type="text/css">
	<![CDATA[
		.st1 {fill:none;stroke:none;stroke-linecap:butt;stroke-width:0.75}
		.st2 {fill:#000000;font-family:新細明體;font-size:0.833336em}
		.st3 {fill:#000000;font-family:Times New Roman;font-size:0.833336em}
		.st4 {fill:none}
		.st5 {stroke:#000000;stroke-linecap:round;stroke-linejoin:round;stroke-width:0.5625}
		.st6 {stroke:#000000;stroke-dasharray:0.5625,1.125;stroke-linecap:round;stroke-linejoin:round;stroke-width:0.5625}
		.st7 {fill:none;fill-rule:evenodd;font-size:12px;overflow:visible;stroke-linecap:square;stroke-miterlimit:3}
	]]>
	</style>

	<g v:mID="0" v:index="1" v:groupContext="foregroundPage">
		<title>頁-1</title>
		<v:pageProperties v:drawingScale="0.0393701" v:pageScale="0.0393701" v:drawingUnits="24" v:shadowOffsetX="9"
				v:shadowOffsetY="-9"/>
		<g id="group22-1" transform="translate(0.75,-0.814967)" v:mID="22" v:groupContext="group">
			<title>工作表.22</title>
			<g id="shape2-2" v:mID="2" v:groupContext="shape" transform="translate(50.5398,-19.1246) rotate(0.1)">
				<title>工作表.2</title>
				<desc>一、無有利益故</desc>
				<v:textBlock v:margins="rect(0,0,0,0)" v:tabSpace="42.5197"/>
				<v:textRect cx="40.0007" cy="26.1688" width="80.01" height="10.8"/>
				<rect x="0" y="20.7688" width="80.0014" height="10.8" class="st1"/>
				<text x="-0" y="29.28" class="st2" v:langID="1028"><v:paragraph/><v:tabList/>一、無有利益故</text>			</g>
			<g id="shape3-5" v:mID="3" v:groupContext="shape" transform="translate(121.786,-19.0139) rotate(0.1)">
				<title>工作表.3</title>
				<desc>……</desc>
				<v:textBlock v:margins="rect(0,0,0,0)" v:tabSpace="42.5197"/>
				<v:textRect cx="17.5017" cy="26.1688" width="35.01" height="10.8"/>
				<rect x="0" y="20.7688" width="35.0034" height="10.8" class="st1"/>
				<text x="0" y="29.17" class="st3" v:langID="1028"><v:paragraph/><v:tabList/>……</text>			</g>
			<g id="shape4-8" v:mID="4" v:groupContext="shape" transform="translate(142.878,-18.9824) rotate(0.1)">
				<title>工作表.4</title>
				<desc>如宿食生於身為患經但此</desc>
				<v:textBlock v:margins="rect(0,0,0,0)" v:tabSpace="42.5197"/>
				<v:textRect cx="71.5016" cy="26.1688" width="143.01" height="10.8"/>
				<rect x="0" y="20.7688" width="143.003" height="10.8" class="st1"/>
				<text x="0" y="29.28" class="st2" v:langID="1028"><v:paragraph/><v:tabList/>如宿食生，於身為患（經但此）</text>			</g>
			<g id="shape5-11" v:mID="5" v:groupContext="shape" transform="translate(0.0550978,-8.41812) rotate(0.1)">
				<title>工作表.5</title>
				<desc>生有二義</desc>
				<v:textBlock v:margins="rect(0,0,0,0)" v:tabSpace="42.5197"/>
				<v:textRect cx="31.0152" cy="26.1688" width="62.04" height="10.8"/>
				<rect x="0" y="20.7688" width="62.0303" height="10.8" class="st1"/>
				<text x="0" y="29.28" class="st2" v:langID="1028"><v:paragraph/><v:tabList/>生有二義</text>			</g>
			<g id="shape6-14" v:mID="6" v:groupContext="shape" transform="translate(36.2325,-3.00722) rotate(0.1)">
				<title>工作表.6</title>
				<v:textBlock v:margins="rect(0,0,0,0)"/>
				<rect x="0" y="20.7688" width="324" height="10.8" class="st1"/>
			</g>
			<g id="shape7-16" v:mID="7" v:groupContext="shape" transform="translate(295.096,-9.47735) rotate(0.1)">
				<title>工作表.7</title>
				<desc>熟有二義反此</desc>
				<v:textBlock v:margins="rect(0,0,0,0)" v:tabSpace="42.5197"/>
				<v:textRect cx="40.0159" cy="26.1688" width="80.04" height="10.8"/>
				<rect x="0" y="20.7688" width="80.0318" height="10.8" class="st1"/>
				<text x="0" y="29.28" class="st2" v:langID="1028"><v:paragraph/><v:tabList/>熟有二義，反此</text>			</g>
			<g id="shape8-19" v:mID="8" v:groupContext="shape" transform="translate(50.4822,-0.312464) rotate(0.1)">
				<title>工作表.8</title>
				<desc>二、無實慧火故</desc>
				<v:textBlock v:margins="rect(0,0,0,0)" v:tabSpace="42.5197"/>
				<v:textRect cx="40.0282" cy="26.1688" width="80.06" height="10.8"/>
				<rect x="0" y="20.7688" width="80.0564" height="10.8" class="st1"/>
				<text x="0" y="29.28" class="st2" v:langID="1028"><v:paragraph/><v:tabList/>二、無實慧火故</text>			</g>
			<g id="shape9-22" v:mID="9" v:groupContext="shape" transform="translate(121.728,-0.202508) rotate(0.1)">
				<title>工作表.9</title>
				<desc>……</desc>
				<v:textBlock v:margins="rect(0,0,0,0)" v:tabSpace="42.5197"/>
				<v:textRect cx="22.0282" cy="26.1688" width="44.06" height="10.8"/>
				<rect x="0" y="20.7688" width="44.0564" height="10.8" class="st1"/>
				<text x="0" y="29.17" class="st3" v:langID="1028"><v:paragraph/><v:tabList/>……</text>			</g>
			<g id="shape10-25" v:mID="10" v:groupContext="shape" transform="translate(142.821,-0.171092) rotate(0.1)">
				<title>工作表.10</title>
				<desc>如生壞瓶盛水則壞</desc>
				<v:textBlock v:margins="rect(0,0,0,0)" v:tabSpace="42.5197"/>
				<v:textRect cx="49.0281" cy="26.1688" width="98.06" height="10.8"/>
				<rect x="0" y="20.7688" width="98.0563" height="10.8" class="st1"/>
				<text x="0" y="29.28" class="st2" v:langID="1028"><v:paragraph/><v:tabList/>如生壞瓶，盛水則壞</text>			</g>
			<g id="shape19-28" v:mID="19" v:groupContext="shape" transform="translate(73.6235,6.61433) rotate(90.1)">
				<title>工作表.19</title>
				<path d="M0 25.82 C0 27.39 0.82 28.69 1.84 28.69 L9.14 28.69 C10.14 28.69 10.95 29.96 10.95 31.57 C10.95 29.96 11.77
							 28.69 12.8 28.69 L20.1 28.69 C21.09 28.69 21.91 27.39 21.91 25.82 L0 25.82 Z" class="st4"/>
				<path d="M0 25.82 C0 27.39 0.82 28.69 1.84 28.69 L9.14 28.69 C10.14 28.69 10.95 29.96 10.95 31.57 C10.95 29.96 11.77
							 28.69 12.8 28.69 L20.1 28.69 C21.09 28.69 21.91 27.39 21.91 25.82" class="st5"/>
			</g>
			<g id="shape20-31" v:mID="20" v:groupContext="shape" transform="translate(299.195,-16.9309) rotate(35.9421)">
				<title>工作表.20</title>
				<path d="M0 31.57 L12.95 31.57" class="st6"/>
			</g>
			<g id="shape21-34" v:mID="21" v:groupContext="shape" transform="translate(230.083,-4.99556) rotate(-10.0664)">
				<title>工作表.21</title>
				<path d="M0 31.57 L56.41 31.57" class="st6"/>
			</g>
		</g>
	</g>
</svg>
