<?xml version="1.0" encoding="UTF-8" standalone="no"?>
<!DOCTYPE svg PUBLIC "-//W3C//DTD SVG 1.1//EN" "http://www.w3.org/Graphics/SVG/1.1/DTD/svg11.dtd">
<!-- 由 Microsoft Visio, SVG Export 產生 M041.183.svg 頁-1 -->
<svg xmlns="http://www.w3.org/2000/svg" xmlns:xlink="http://www.w3.org/1999/xlink" xmlns:ev="http://www.w3.org/2001/xml-events"
		xmlns:v="http://schemas.microsoft.com/visio/2003/SVGExtensions/" width="4.24828in" height="0.859657in"
		viewBox="0 0 305.876 61.8953" xml:space="preserve" color-interpolation-filters="sRGB" class="st6">
	<v:documentProperties v:langID="1028" v:viewMarkup="false"/>

	<style type="text/css">
	<![CDATA[
		.st1 {fill:none;stroke:none;stroke-linecap:butt;stroke-width:0.75}
		.st2 {fill:#000000;font-family:新細明體;font-size:0.833336em}
		.st3 {fill:#000000;font-family:Times New Roman;font-size:0.833336em}
		.st4 {fill:none}
		.st5 {stroke:#000000;stroke-linecap:round;stroke-linejoin:round;stroke-width:0.5625}
		.st6 {fill:none;fill-rule:evenodd;font-size:12px;overflow:visible;stroke-linecap:square;stroke-miterlimit:3}
	]]>
	</style>

	<g v:mID="0" v:index="1" v:groupContext="foregroundPage">
		<title>頁-1</title>
		<v:pageProperties v:drawingScale="0.0393701" v:pageScale="0.0393701" v:drawingUnits="24" v:shadowOffsetX="9"
				v:shadowOffsetY="-9"/>
		<g id="group31-1" transform="translate(0.75,-0.798495)" v:mID="31" v:groupContext="group">
			<title>工作表.31</title>
			<g id="shape2-2" v:mID="2" v:groupContext="shape" transform="translate(153.505,-49.4675) rotate(0.1)">
				<title>工作表.2</title>
				<desc>畢竟空寂常自清淨</desc>
				<v:textBlock v:margins="rect(0,0,0,0)"/>
				<v:textRect cx="65.1132" cy="56.4953" width="130.23" height="10.8"/>
				<rect x="0" y="51.0953" width="130.226" height="10.8" class="st1"/>
				<text x="8.5" y="59.61" class="st2" v:langID="1028"><v:paragraph/><v:tabList/>畢竟空寂，常自清淨</text>			</g>
			<g id="shape3-5" v:mID="3" v:groupContext="shape" transform="translate(30.9955,-33.1728) rotate(0.1)">
				<title>工作表.3</title>
				<desc>是心非心本性常淨</desc>
				<v:textBlock v:margins="rect(0,0,0,0)" v:tabSpace="42.5197"/>
				<v:textRect cx="51.1667" cy="56.4953" width="102.34" height="10.8"/>
				<rect x="0" y="51.0953" width="102.333" height="10.8" class="st1"/>
				<text x="0" y="59.61" class="st2" v:langID="1028"><v:paragraph/><v:tabList/>是心非心，本性常淨</text>			</g>
			<g id="shape4-8" v:mID="4" v:groupContext="shape" transform="translate(121.599,-33.0314) rotate(0.1)">
				<title>工作表.4</title>
				<desc>———</desc>
				<v:textBlock v:margins="rect(0,0,0,0)" v:tabSpace="42.5197"/>
				<v:textRect cx="27.3914" cy="56.4953" width="54.79" height="10.8"/>
				<rect x="0" y="51.0953" width="54.7827" height="10.8" class="st1"/>
				<text x="0" y="59.5" class="st3" v:langID="1028"><v:paragraph/><v:tabList/>———</text>			</g>
			<g id="shape5-11" v:mID="5" v:groupContext="shape" transform="translate(143.426,-32.9686) rotate(0.1)">
				<title>工作表.5</title>
				<desc>客塵覆故以為不淨</desc>
				<v:textBlock v:margins="rect(0,0,0,0)"/>
				<v:textRect cx="73.1708" cy="56.4953" width="146.35" height="10.8"/>
				<rect x="0" y="51.0953" width="146.342" height="10.8" class="st1"/>
				<text x="17" y="59.61" class="st2" v:langID="1028"><v:paragraph/><v:tabList/>客塵覆故，以為不淨</text>			</g>
			<g id="shape6-14" v:mID="6" v:groupContext="shape" transform="translate(260.951,-32.7644) rotate(0.1)">
				<title>工作表.6</title>
				<desc>心性</desc>
				<v:textBlock v:margins="rect(0,0,0,0)" v:tabSpace="42.5197"/>
				<v:textRect cx="21.7574" cy="56.4953" width="43.52" height="10.8"/>
				<rect x="0" y="51.0953" width="43.5148" height="10.8" class="st1"/>
				<text x="0" y="59.61" class="st2" v:langID="1028"><v:paragraph/><v:tabList/>心性</text>			</g>
			<g id="shape7-17" v:mID="7" v:groupContext="shape" transform="translate(0.108028,-16.4428) rotate(0.1)">
				<title>工作表.7</title>
				<desc>心性</desc>
				<v:textBlock v:margins="rect(0,0,0,0)" v:tabSpace="42.5197"/>
				<v:textRect cx="21.2767" cy="56.4953" width="42.56" height="10.8"/>
				<rect x="0" y="51.0953" width="42.5535" height="10.8" class="st1"/>
				<text x="0" y="59.61" class="st2" v:langID="1028"><v:paragraph/><v:tabList/>心性</text>			</g>
			<g id="shape8-20" v:mID="8" v:groupContext="shape" transform="translate(30.9674,-16.7021) rotate(0.1)">
				<title>工作表.8</title>
				<desc>非心性中離有離無</desc>
				<v:textBlock v:margins="rect(0,0,0,0)" v:tabSpace="42.5197"/>
				<v:textRect cx="52.1736" cy="56.4953" width="104.35" height="10.8"/>
				<rect x="0" y="51.0953" width="104.347" height="10.8" class="st1"/>
				<text x="0" y="59.61" class="st2" v:langID="1028"><v:paragraph/><v:tabList/>非心性中，離有離無</text>			</g>
			<g id="shape9-23" v:mID="9" v:groupContext="shape" transform="translate(111.967,-16.5607) rotate(0.1)">
				<title>工作表.9</title>
				<v:textBlock v:margins="rect(0,0,0,0)"/>
				<rect x="0" y="51.0953" width="27" height="10.8" class="st1"/>
			</g>
			<g id="shape10-25" v:mID="10" v:groupContext="shape" transform="translate(153.448,-16.4822) rotate(0.1)">
				<title>工作表.10</title>
				<desc>除去煩惱如本清淨</desc>
				<v:textBlock v:margins="rect(0,0,0,0)"/>
				<v:textRect cx="63.016" cy="56.4953" width="126.04" height="10.8"/>
				<rect x="0" y="51.0953" width="126.032" height="10.8" class="st1"/>
				<text x="8.5" y="59.61" class="st2" v:langID="1028"><v:paragraph/><v:tabList/>除去煩惱，如本清淨</text>			</g>
			<g id="shape11-28" v:mID="11" v:groupContext="shape" transform="translate(30.9372,-0.187518) rotate(0.1)">
				<title>工作表.11</title>
				<desc>法無別異是非心性</desc>
				<v:textBlock v:margins="rect(0,0,0,0)" v:tabSpace="42.5197"/>
				<v:textRect cx="53.747" cy="56.4953" width="107.5" height="10.8"/>
				<rect x="0" y="51.0953" width="107.494" height="10.8" class="st1"/>
				<text x="0" y="59.61" class="st2" v:langID="1028"><v:paragraph/><v:tabList/>法無別異，是非心性</text>			</g>
			<g id="shape28-31" v:mID="28" v:groupContext="shape" transform="translate(214.785,2.34546) rotate(90.1)">
				<title>工作表.28</title>
				<path d="M0 55.15 C0 57.04 1.55 58.52 3.53 58.52 L17.63 58.52 C19.56 58.52 21.16 60.05 21.16 61.9 C21.16 60.05 22.71
							 58.52 24.69 58.52 L38.79 58.52 C40.72 58.52 42.32 57.04 42.32 55.15 L0 55.15 Z" class="st4"/>
				<path d="M0 55.15 C0 57.04 1.55 58.52 3.53 58.52 L17.63 58.52 C19.56 58.52 21.16 60.05 21.16 61.9 C21.16 60.05 22.71
							 58.52 24.69 58.52 L38.79 58.52 C40.72 58.52 42.32 57.04 42.32 55.15" class="st5"/>
			</g>
			<g id="shape29-34" v:mID="29" v:groupContext="shape" transform="translate(84.031,19.9048) rotate(90.1)">
				<title>工作表.29</title>
				<path d="M0 56.1 C0 57.72 1.49 59 3.38 59 L16.88 59 C18.72 59 20.25 60.31 20.25 61.9 C20.25 60.31 21.74 59 23.63
							 59 L37.13 59 C38.97 59 40.5 57.72 40.5 56.1 L0 56.1 Z" class="st4"/>
				<path d="M0 56.1 C0 57.72 1.49 59 3.38 59 L16.88 59 C18.72 59 20.25 60.31 20.25 61.9 C20.25 60.31 21.74 59 23.63
							 59 L37.13 59 C38.97 59 40.5 57.72 40.5 56.1" class="st5"/>
			</g>
			<g id="shape30-37" v:mID="30" v:groupContext="shape" transform="translate(315.673,2.62888) rotate(90.1)">
				<title>工作表.30</title>
				<path d="M0 61.9 C0 60.74 1.6 59.78 3.6 59.78 L17.86 59.78 C19.8 59.78 21.4 58.86 21.4 57.67 C21.4 58.86 23 59.78
							 25 59.78 L39.27 59.78 C41.21 59.78 42.8 60.74 42.8 61.9 L0 61.9 Z" class="st4"/>
				<path d="M0 61.9 C0 60.74 1.6 59.78 3.6 59.78 L17.86 59.78 C19.8 59.78 21.4 58.86 21.4 57.67 C21.4 58.86 23 59.78
							 25 59.78 L39.27 59.78 C41.21 59.78 42.8 60.74 42.8 61.9" class="st5"/>
			</g>
		</g>
	</g>
</svg>
