<?xml version="1.0" encoding="UTF-8" standalone="no"?>
<!DOCTYPE svg PUBLIC "-//W3C//DTD SVG 1.1//EN" "http://www.w3.org/Graphics/SVG/1.1/DTD/svg11.dtd">
<!-- 由 Microsoft Visio, SVG Export 產生 B00203-2（M041.093）.svg 頁-1 -->
<svg xmlns="http://www.w3.org/2000/svg" xmlns:xlink="http://www.w3.org/1999/xlink" xmlns:ev="http://www.w3.org/2001/xml-events"
		xmlns:v="http://schemas.microsoft.com/visio/2003/SVGExtensions/" width="1.71997in" height="0.380077in"
		viewBox="0 0 123.838 27.3655" xml:space="preserve" color-interpolation-filters="sRGB" class="st6">
	<v:documentProperties v:langID="1028" v:viewMarkup="false"/>

	<style type="text/css">
	<![CDATA[
		.st1 {fill:none;stroke:none;stroke-linecap:butt;stroke-width:0.75}
		.st2 {fill:#000000;font-family:新細明體;font-size:0.833336em}
		.st3 {font-family:Times New Roman;font-size:1em}
		.st4 {fill:none}
		.st5 {stroke:#000000;stroke-linecap:round;stroke-linejoin:round;stroke-width:0.5625}
		.st6 {fill:none;fill-rule:evenodd;font-size:12px;overflow:visible;stroke-linecap:square;stroke-miterlimit:3}
	]]>
	</style>

	<g v:mID="0" v:index="1" v:groupContext="foregroundPage">
		<title>頁-1</title>
		<v:pageProperties v:drawingScale="0.0393701" v:pageScale="0.0393701" v:drawingUnits="24" v:shadowOffsetX="9"
				v:shadowOffsetY="-9"/>
		<g id="shape12-1" v:mID="12" v:groupContext="shape" transform="translate(51.5403,-15.7363) rotate(0.1)">
			<title>工作表.12</title>
			<desc>經——無所有故</desc>
			<v:textBlock v:margins="rect(0,0,0,0)" v:tabSpace="42.5197"/>
			<v:textRect cx="35.7882" cy="21.9655" width="71.58" height="10.8"/>
			<rect x="0" y="16.5655" width="71.5764" height="10.8" class="st1"/>
			<text x="0" y="25.08" class="st2" v:langID="1028"><v:paragraph/><v:tabList/>經<tspan class="st3">——</tspan>無所有故</text>		</g>
		<g id="shape15-5" v:mID="15" v:groupContext="shape" transform="translate(0.797762,-7.66534) rotate(0.1)">
			<title>工作表.15</title>
			<desc>云何無著</desc>
			<v:textBlock v:margins="rect(0,0,0,0)" v:tabSpace="42.5197"/>
			<v:textRect cx="22.8856" cy="21.9655" width="45.78" height="10.8"/>
			<rect x="0" y="16.5655" width="45.7713" height="10.8" class="st1"/>
			<text x="0" y="25.08" class="st2" v:langID="1028"><v:paragraph/><v:tabList/>云何無著</text>		</g>
		<g id="shape16-8" v:mID="16" v:groupContext="shape" transform="translate(51.4287,-0.951159) rotate(0.1)">
			<title>工作表.16</title>
			<desc>論——觀如幻故</desc>
			<v:textBlock v:margins="rect(0,0,0,0)" v:tabSpace="42.5197"/>
			<v:textRect cx="35.7882" cy="21.9655" width="71.58" height="10.8"/>
			<rect x="0" y="16.5655" width="71.5764" height="10.8" class="st1"/>
			<text x="-0" y="25.08" class="st2" v:langID="1028"><v:paragraph/><v:tabList/>論<tspan class="st3">——</tspan>觀如幻故</text>		</g>
		<g id="shape31-12" v:mID="31" v:groupContext="shape" transform="translate(71.05,1.92153) rotate(90.1)">
			<title>工作表.31</title>
			<path d="M0 21.64 C0 23.24 0.83 24.5 1.92 24.5 L9.72 24.5 C10.81 24.5 11.69 25.8 11.69 27.37 C11.69 25.8 12.52 24.5 13.62
						 24.5 L21.41 24.5 C22.5 24.5 23.39 23.24 23.39 21.64 L0 21.64 Z" class="st4"/>
			<path d="M0 21.64 C0 23.24 0.83 24.5 1.92 24.5 L9.72 24.5 C10.81 24.5 11.69 25.8 11.69 27.37 C11.69 25.8 12.52 24.5 13.62
						 24.5 L21.41 24.5 C22.5 24.5 23.39 23.24 23.39 21.64" class="st5"/>
		</g>
	</g>
</svg>
