<?xml version="1.0" encoding="UTF-8" standalone="no"?>
<!DOCTYPE svg PUBLIC "-//W3C//DTD SVG 1.1//EN" "http://www.w3.org/Graphics/SVG/1.1/DTD/svg11.dtd">
<!-- 由 Microsoft Visio, SVG Export 產生 M041.045=B00106.svg 頁-1 -->
<svg xmlns="http://www.w3.org/2000/svg" xmlns:xlink="http://www.w3.org/1999/xlink" xmlns:ev="http://www.w3.org/2001/xml-events"
		xmlns:v="http://schemas.microsoft.com/visio/2003/SVGExtensions/" width="4.20009in" height="1.4164in"
		viewBox="0 0 302.406 101.981" xml:space="preserve" color-interpolation-filters="sRGB" class="st8">
	<v:documentProperties v:langID="1028" v:viewMarkup="false"/>

	<style type="text/css">
	<![CDATA[
		.st1 {fill:none;stroke:none;stroke-linecap:butt;stroke-width:0.75}
		.st2 {fill:#000000;font-family:新細明體;font-size:0.833336em}
		.st3 {baseline-shift:32.4947%;font-family:Times New Roman;font-size:0.649894em}
		.st4 {font-size:1em}
		.st5 {fill:#000000;font-family:Times New Roman;font-size:0.833336em}
		.st6 {fill:none}
		.st7 {stroke:#000000;stroke-linecap:round;stroke-linejoin:round;stroke-width:0.5625}
		.st8 {fill:none;fill-rule:evenodd;font-size:12px;overflow:visible;stroke-linecap:square;stroke-miterlimit:3}
	]]>
	</style>

	<g v:mID="0" v:index="1" v:groupContext="foregroundPage">
		<title>頁-1</title>
		<v:pageProperties v:drawingScale="0.0393701" v:pageScale="0.0393701" v:drawingUnits="24" v:shadowOffsetX="9"
				v:shadowOffsetY="-9"/>
		<g id="shape1-1" v:mID="1" v:groupContext="shape" transform="translate(147.649,-90.0184) rotate(0.1)">
			<title>工作表.1</title>
			<desc>一、義一名二※一多不相即故</desc>
			<v:textBlock v:margins="rect(0,0,0,0)" v:tabSpace="42.5197"/>
			<v:textRect cx="70.7062" cy="96.5806" width="141.42" height="10.8"/>
			<rect x="0" y="91.1806" width="141.412" height="10.8" class="st1"/>
			<text x="0" y="99.7" class="st2" v:langID="1028"><v:paragraph/><v:tabList/>一、義一名二<tspan dy="-0.198em" class="st3"
						v:baseFontSize="10">※</tspan><tspan dy="0.129em" class="st4">，</tspan>一多不相即故</text>		</g>
		<g id="shape2-6" v:mID="2" v:groupContext="shape" transform="translate(73.8857,-80.5309) rotate(0.1)">
			<title>工作表.2</title>
			<desc>一、不在義內</desc>
			<v:textBlock v:margins="rect(0,0,0,0)" v:tabSpace="42.5197"/>
			<v:textRect cx="31.4881" cy="96.5806" width="62.98" height="10.8"/>
			<rect x="0" y="91.1806" width="62.9763" height="10.8" class="st1"/>
			<text x="0" y="99.7" class="st2" v:langID="1028"><v:paragraph/><v:tabList/>一、不在義內</text>		</g>
		<g id="shape3-9" v:mID="3" v:groupContext="shape" transform="translate(147.612,-72.4918) rotate(0.1)">
			<title>工作表.3</title>
			<desc>二、名義若合說火應燒口故</desc>
			<v:textBlock v:margins="rect(0,0,0,0)" v:tabSpace="42.5197"/>
			<v:textRect cx="66.4724" cy="96.5806" width="132.95" height="10.8"/>
			<rect x="0" y="91.1806" width="132.945" height="10.8" class="st1"/>
			<text x="0" y="99.7" class="st2" v:langID="1028"><v:paragraph/><v:tabList/>二、名義若合，說火應燒口故</text>		</g>
		<g id="shape4-12" v:mID="4" v:groupContext="shape" transform="translate(147.573,-52.6674) rotate(0.1)">
			<title>工作表.4</title>
			<desc>一、離義有名應有第三用故</desc>
			<v:textBlock v:margins="rect(0,0,0,0)" v:tabSpace="42.5197"/>
			<v:textRect cx="66.4929" cy="96.5806" width="132.99" height="10.8"/>
			<rect x="0" y="91.1806" width="132.986" height="10.8" class="st1"/>
			<text x="0" y="99.7" class="st2" v:langID="1028"><v:paragraph/><v:tabList/>一、離義有名，應有第三用故</text>		</g>
		<g id="shape5-15" v:mID="5" v:groupContext="shape" transform="translate(0.92799,-35.0959) rotate(0.1)">
			<title>工作表.5</title>
			<desc>假</desc>
			<v:textBlock v:margins="rect(0,0,0,0)" v:tabSpace="42.5197"/>
			<v:textRect cx="4.5" cy="96.5806" width="9" height="10.8"/>
			<rect x="0" y="91.1806" width="9" height="10.8" class="st1"/>
			<text x="-0" y="99.7" class="st2" v:langID="1028"><v:paragraph/><v:tabList/>假</text>		</g>
		<g id="shape6-18" v:mID="6" v:groupContext="shape" transform="translate(0.92799,-35.0959) rotate(0.1)">
			<title>工作表.6</title>
			<desc>假</desc>
			<v:textBlock v:margins="rect(0,0,0,0)" v:tabSpace="42.5197"/>
			<v:textRect cx="4.5" cy="96.5806" width="9" height="10.8"/>
			<rect x="0" y="91.1806" width="9" height="10.8" class="st1"/>
			<text x="-0" y="99.7" class="st2" v:langID="1028"><v:paragraph/><v:tabList/>假</text>		</g>
		<g id="shape7-21" v:mID="7" v:groupContext="shape" transform="translate(9.92798,-35.0802) rotate(0.1)">
			<title>工作表.7</title>
			<desc>名</desc>
			<v:textBlock v:margins="rect(0,0,0,0)" v:tabSpace="42.5197"/>
			<v:textRect cx="4.5" cy="96.5806" width="9" height="10.8"/>
			<rect x="0" y="91.1806" width="9" height="10.8" class="st1"/>
			<text x="0" y="99.7" class="st2" v:langID="1028"><v:paragraph/><v:tabList/>名</text>		</g>
		<g id="shape8-24" v:mID="8" v:groupContext="shape" transform="translate(9.92798,-35.0802) rotate(0.1)">
			<title>工作表.8</title>
			<desc>名</desc>
			<v:textBlock v:margins="rect(0,0,0,0)" v:tabSpace="42.5197"/>
			<v:textRect cx="4.5" cy="96.5806" width="9" height="10.8"/>
			<rect x="0" y="91.1806" width="9" height="10.8" class="st1"/>
			<text x="0" y="99.7" class="st2" v:langID="1028"><v:paragraph/><v:tabList/>名</text>		</g>
		<g id="shape9-27" v:mID="9" v:groupContext="shape" transform="translate(18.9733,-35.0644) rotate(0.1)">
			<title>工作表.9</title>
			<desc>不在三處</desc>
			<v:textBlock v:margins="rect(0,0,0,0)" v:tabSpace="42.5197"/>
			<v:textRect cx="21.6572" cy="96.5806" width="43.32" height="10.8"/>
			<rect x="0" y="91.1806" width="43.3143" height="10.8" class="st1"/>
			<text x="0" y="99.7" class="st2" v:langID="1028"><v:paragraph/><v:tabList/>不在三處</text>		</g>
		<g id="shape10-30" v:mID="10" v:groupContext="shape" transform="translate(73.8001,-34.5334) rotate(0.1)">
			<title>工作表.10</title>
			<desc>二、不在義外</desc>
			<v:textBlock v:margins="rect(0,0,0,0)" v:tabSpace="42.5197"/>
			<v:textRect cx="31.5302" cy="96.5806" width="63.07" height="10.8"/>
			<rect x="0" y="91.1806" width="63.0604" height="10.8" class="st1"/>
			<text x="0" y="99.7" class="st2" v:langID="1028"><v:paragraph/><v:tabList/>二、不在義外</text>		</g>
		<g id="shape11-33" v:mID="11" v:groupContext="shape" transform="translate(147.544,-36.1521) rotate(0.1)">
			<title>工作表.11</title>
			<desc>二、名若離義索火應得水故</desc>
			<v:textBlock v:margins="rect(0,0,0,0)" v:tabSpace="42.5197"/>
			<v:textRect cx="66.5053" cy="96.5806" width="133.02" height="10.8"/>
			<rect x="0" y="91.1806" width="133.011" height="10.8" class="st1"/>
			<text x="0" y="99.7" class="st2" v:langID="1028"><v:paragraph/><v:tabList/>二、名若離義，索火應得水故</text>		</g>
		<g id="shape12-36" v:mID="12" v:groupContext="shape" transform="translate(147.516,-19.6829) rotate(0.1)">
			<title>工作表.12</title>
			<desc>三、義在名外義中不應生火想故</desc>
			<v:textBlock v:margins="rect(0,0,0,0)" v:tabSpace="42.5197"/>
			<v:textRect cx="77.1497" cy="96.5806" width="154.3" height="10.8"/>
			<rect x="0" y="91.1806" width="154.299" height="10.8" class="st1"/>
			<text x="0" y="99.7" class="st2" v:langID="1028"><v:paragraph/><v:tabList/>三、義在名外，義中不應生火想故</text>		</g>
		<g id="shape13-39" v:mID="13" v:groupContext="shape" transform="translate(73.7397,-2.18568) rotate(0.1)">
			<title>工作表.13</title>
			<desc>三、不在中間</desc>
			<v:textBlock v:margins="rect(0,0,0,0)" v:tabSpace="42.5197"/>
			<v:textRect cx="31.5595" cy="96.5806" width="63.12" height="10.8"/>
			<rect x="0" y="91.1806" width="63.1191" height="10.8" class="st1"/>
			<text x="0" y="99.7" class="st2" v:langID="1028"><v:paragraph/><v:tabList/>三、不在中間</text>		</g>
		<g id="shape14-42" v:mID="14" v:groupContext="shape" transform="translate(135.153,-2.09143) rotate(0.1)">
			<title>工作表.14</title>
			<desc>——</desc>
			<v:textBlock v:margins="rect(0,0,0,0)" v:tabSpace="42.5197"/>
			<v:textRect cx="13.0635" cy="96.5806" width="26.13" height="10.8"/>
			<rect x="0" y="91.1806" width="26.1269" height="10.8" class="st1"/>
			<text x="0" y="99.58" class="st5" v:langID="1028"><v:paragraph/><v:tabList/>——</text>		</g>
		<g id="shape15-45" v:mID="15" v:groupContext="shape" transform="translate(156.313,-1.00341) rotate(0.1)">
			<title>工作表.15</title>
			<desc>中間無依處應不可知</desc>
			<v:textBlock v:margins="rect(0,0,0,0)" v:tabSpace="42.5197"/>
			<v:textRect cx="51.4912" cy="96.5806" width="102.99" height="10.8"/>
			<rect x="0" y="91.1806" width="102.982" height="10.8" class="st1"/>
			<text x="0" y="99.7" class="st2" v:langID="1028"><v:paragraph/><v:tabList/>中間無依處，應不可知</text>		</g>
		<g id="shape22-48" v:mID="22" v:groupContext="shape" transform="translate(237.613,3.17386) rotate(90.1)">
			<title>工作表.22</title>
			<path d="M0 91.84 C0 94.64 0.95 96.91 2.11 96.91 L10.61 96.91 C11.8 96.91 12.76 99.17 12.76 101.98 C12.76 99.17 13.71
						 96.91 14.86 96.91 L23.37 96.91 C24.56 96.91 25.51 94.64 25.51 91.84 L0 91.84 Z" class="st6"/>
			<path d="M0 91.84 C0 94.64 0.95 96.91 2.11 96.91 L10.61 96.91 C11.8 96.91 12.76 99.17 12.76 101.98 C12.76 99.17 13.71
						 96.91 14.86 96.91 L23.37 96.91 C24.56 96.91 25.51 94.64 25.51 91.84" class="st7"/>
		</g>
		<g id="shape23-51" v:mID="23" v:groupContext="shape" transform="translate(237.617,40.3345) rotate(90.1)">
			<title>工作表.23</title>
			<path d="M0 92.46 C0 95.09 1.6 97.22 3.52 97.22 L17.59 97.22 C19.51 97.22 21.1 99.38 21.1 101.98 C21.1 99.38 22.7 97.22
						 24.62 97.22 L38.69 97.22 C40.61 97.22 42.21 95.09 42.21 92.46 L0 92.46 Z" class="st6"/>
			<path d="M0 92.46 C0 95.09 1.6 97.22 3.52 97.22 L17.59 97.22 C19.51 97.22 21.1 99.38 21.1 101.98 C21.1 99.38 22.7 97.22
						 24.62 97.22 L38.69 97.22 C40.61 97.22 42.21 95.09 42.21 92.46" class="st7"/>
		</g>
		<g id="shape24-54" v:mID="24" v:groupContext="shape" transform="translate(165.093,12.5639) rotate(90.1)">
			<title>工作表.24</title>
			<path d="M0 95.23 C0 97.12 3.21 98.61 7.19 98.61 L41.51 98.61 C45.48 98.61 48.74 100.14 48.74 101.98 C48.74 100.14 51.96
						 98.61 55.93 98.61 L79.1 98.61 C83.07 98.61 86.28 97.12 86.28 95.23 L0 95.23 Z" class="st6"/>
			<path d="M0 95.23 C0 97.12 3.21 98.61 7.19 98.61 L41.51 98.61 C45.48 98.61 48.74 100.14 48.74 101.98 C48.74 100.14 51.96
						 98.61 55.93 98.61 L79.1 98.61 C83.07 98.61 86.28 97.12 86.28 95.23" class="st7"/>
		</g>
	</g>
</svg>
