<?xml version="1.0" encoding="UTF-8" standalone="no"?>
<!DOCTYPE svg PUBLIC "-//W3C//DTD SVG 1.1//EN" "http://www.w3.org/Graphics/SVG/1.1/DTD/svg11.dtd">
<!-- 由 Microsoft Visio, SVG Export 產生 B00306.svg 頁-1 -->
<svg xmlns="http://www.w3.org/2000/svg" xmlns:xlink="http://www.w3.org/1999/xlink" xmlns:ev="http://www.w3.org/2001/xml-events"
		xmlns:v="http://schemas.microsoft.com/visio/2003/SVGExtensions/" width="4.86672in" height="0.63756in"
		viewBox="0 0 350.404 45.9043" xml:space="preserve" color-interpolation-filters="sRGB" class="st7">
	<v:documentProperties v:langID="1028" v:viewMarkup="false"/>

	<style type="text/css">
	<![CDATA[
		.st1 {fill:none;stroke:none;stroke-linecap:butt;stroke-width:0.75}
		.st2 {fill:#000000;font-family:新細明體;font-size:0.833336em}
		.st3 {fill:#000000;font-family:Times New Roman;font-size:0.833336em}
		.st4 {font-family:Times New Roman;font-size:1em}
		.st5 {fill:none}
		.st6 {stroke:#000000;stroke-linecap:round;stroke-linejoin:round;stroke-width:0.5625}
		.st7 {fill:none;fill-rule:evenodd;font-size:12px;overflow:visible;stroke-linecap:square;stroke-miterlimit:3}
	]]>
	</style>

	<g v:mID="0" v:index="1" v:groupContext="foregroundPage">
		<title>頁-1</title>
		<v:pageProperties v:drawingScale="0.0393701" v:pageScale="0.0393701" v:drawingUnits="24" v:shadowOffsetX="9"
				v:shadowOffsetY="-9"/>
		<g id="group21-1" transform="translate(0.75,-0.328872)" v:mID="21" v:groupContext="group">
			<title>工作表.21</title>
			<g id="shape2-2" v:mID="2" v:groupContext="shape" transform="translate(50.4343,-33.9462) rotate(0.1)">
				<title>工作表.2</title>
				<desc>菩提心</desc>
				<v:textBlock v:margins="rect(0,0,0,0)" v:tabSpace="42.5197"/>
				<v:textRect cx="25.3337" cy="40.5043" width="50.67" height="10.8"/>
				<rect x="0" y="35.1043" width="50.6675" height="10.8" class="st1"/>
				<text x="0" y="43.62" class="st2" v:langID="1028"><v:paragraph/><v:tabList/>菩提心</text>			</g>
			<g id="shape3-5" v:mID="3" v:groupContext="shape" transform="translate(82.1587,-33.8991) rotate(0.1)">
				<title>工作表.3</title>
				<desc>———</desc>
				<v:textBlock v:margins="rect(0,0,0,0)" v:tabSpace="42.5197"/>
				<v:textRect cx="29.9754" cy="40.5043" width="59.96" height="10.8"/>
				<rect x="0" y="35.1043" width="59.9509" height="10.8" class="st1"/>
				<text x="0" y="43.5" class="st3" v:langID="1028"><v:paragraph/><v:tabList/>———</text>			</g>
			<g id="shape4-8" v:mID="4" v:groupContext="shape" transform="translate(113.898,-33.8879) rotate(0.1)">
				<title>工作表.4</title>
				<desc>是心緣無上道發心故………檀、尸………初發心</desc>
				<v:textBlock v:margins="rect(0,0,0,0)" v:tabSpace="42.5197"/>
				<v:textRect cx="113.355" cy="40.5043" width="226.71" height="10.8"/>
				<rect x="0" y="35.1043" width="226.71" height="10.8" class="st1"/>
				<text x="0" y="43.62" class="st2" v:langID="1028"><v:paragraph/><v:tabList/>是心緣無上道發心故<tspan class="st4">………</tspan>檀、尸<tspan
							class="st4">………</tspan>初發心</text>			</g>
			<g id="shape5-13" v:mID="5" v:groupContext="shape" transform="translate(0.0801181,-17.5258) rotate(0.1)">
				<title>工作表.5</title>
				<desc>三心差別</desc>
				<v:textBlock v:margins="rect(0,0,0,0)" v:tabSpace="42.5197"/>
				<v:textRect cx="27.4032" cy="40.5043" width="54.81" height="10.8"/>
				<rect x="0" y="35.1043" width="54.8065" height="10.8" class="st1"/>
				<text x="0" y="43.62" class="st2" v:langID="1028"><v:paragraph/><v:tabList/>三心差別</text>			</g>
			<g id="shape6-16" v:mID="6" v:groupContext="shape" transform="translate(50.4055,-17.4315) rotate(0.1)">
				<title>工作表.6</title>
				<desc>無等等心</desc>
				<v:textBlock v:margins="rect(0,0,0,0)" v:tabSpace="42.5197"/>
				<v:textRect cx="33.9938" cy="40.5043" width="67.99" height="10.8"/>
				<rect x="0" y="35.1043" width="67.9875" height="10.8" class="st1"/>
				<text x="0" y="43.62" class="st2" v:langID="1028"><v:paragraph/><v:tabList/>無等等心</text>			</g>
			<g id="shape7-19" v:mID="7" v:groupContext="shape" transform="translate(92.1797,-17.3687) rotate(0.1)">
				<title>工作表.7</title>
				<desc>——</desc>
				<v:textBlock v:margins="rect(0,0,0,0)" v:tabSpace="42.5197"/>
				<v:textRect cx="23.0804" cy="40.5043" width="46.17" height="10.8"/>
				<rect x="0" y="35.1043" width="46.1607" height="10.8" class="st1"/>
				<text x="0" y="43.5" class="st3" v:langID="1028"><v:paragraph/><v:tabList/>——</text>			</g>
			<g id="shape8-22" v:mID="8" v:groupContext="shape" transform="translate(113.592,-17.3373) rotate(0.1)">
				<title>工作表.8</title>
				<desc>是心與佛相似無等等故……忍、精………行六度</desc>
				<v:textBlock v:margins="rect(0,0,0,0)" v:tabSpace="42.5197"/>
				<v:textRect cx="117.687" cy="40.5043" width="235.38" height="10.8"/>
				<rect x="0" y="35.1043" width="235.374" height="10.8" class="st1"/>
				<text x="0" y="43.62" class="st2" v:langID="1028"><v:paragraph/><v:tabList/>是心與佛相似無等等故<tspan class="st4">……</tspan>忍、精<tspan
							class="st4">………</tspan>行六度</text>			</g>
			<g id="shape9-27" v:mID="9" v:groupContext="shape" transform="translate(50.3774,-0.961603) rotate(0.1)">
				<title>工作表.9</title>
				<desc>大心</desc>
				<v:textBlock v:margins="rect(0,0,0,0)" v:tabSpace="42.5197"/>
				<v:textRect cx="19.1256" cy="40.5043" width="38.26" height="10.8"/>
				<rect x="0" y="35.1043" width="38.2513" height="10.8" class="st1"/>
				<text x="0" y="43.62" class="st2" v:langID="1028"><v:paragraph/><v:tabList/>大心</text>			</g>
			<g id="shape10-30" v:mID="10" v:groupContext="shape" transform="translate(72.0519,-0.929437) rotate(0.1)">
				<title>工作表.10</title>
				<desc>————</desc>
				<v:textBlock v:margins="rect(0,0,0,0)" v:tabSpace="42.5197"/>
				<v:textRect cx="36.6298" cy="40.5043" width="73.26" height="10.8"/>
				<rect x="0" y="35.1043" width="73.2595" height="10.8" class="st1"/>
				<text x="0" y="43.5" class="st3" v:langID="1028"><v:paragraph/><v:tabList/>————</text>			</g>
			<g id="shape11-33" v:mID="11" v:groupContext="shape" transform="translate(113.564,-0.866605) rotate(0.1)">
				<title>工作表.11</title>
				<desc>是心無事不行故……………定、慧………入方便</desc>
				<v:textBlock v:margins="rect(0,0,0,0)" v:tabSpace="42.5197"/>
				<v:textRect cx="108.63" cy="40.5043" width="217.27" height="10.8"/>
				<rect x="0" y="35.1043" width="217.26" height="10.8" class="st1"/>
				<text x="0" y="43.62" class="st2" v:langID="1028"><v:paragraph/><v:tabList/>是心無事不行故<tspan class="st4">……………</tspan>定、慧<tspan
							class="st4">………</tspan>入方便</text>			</g>
			<g id="shape20-38" v:mID="20" v:groupContext="shape" transform="translate(88.0275,1.18878) rotate(90.1)">
				<title>工作表.20</title>
				<path d="M0 41.11 C0 42.45 1.67 43.51 3.7 43.51 L18.63 43.51 C20.72 43.51 22.39 44.59 22.39 45.9 C22.39 44.59 24.07
							 43.51 26.1 43.51 L41.03 43.51 C43.12 43.51 44.79 42.45 44.79 41.11 L0 41.11 Z" class="st5"/>
				<path d="M0 41.11 C0 42.45 1.67 43.51 3.7 43.51 L18.63 43.51 C20.72 43.51 22.39 44.59 22.39 45.9 C22.39 44.59 24.07
							 43.51 26.1 43.51 L41.03 43.51 C43.12 43.51 44.79 42.45 44.79 41.11" class="st6"/>
			</g>
		</g>
	</g>
</svg>
