<?xml version="1.0" encoding="UTF-8" standalone="no"?>
<!DOCTYPE svg PUBLIC "-//W3C//DTD SVG 1.1//EN" "http://www.w3.org/Graphics/SVG/1.1/DTD/svg11.dtd">
<!-- 由 Microsoft Visio, SVG Export 產生 B00201-1（M041.064）.svg 頁-1 -->
<svg xmlns="http://www.w3.org/2000/svg" xmlns:xlink="http://www.w3.org/1999/xlink" xmlns:ev="http://www.w3.org/2001/xml-events"
		xmlns:v="http://schemas.microsoft.com/visio/2003/SVGExtensions/" width="2.27056in" height="0.632672in"
		viewBox="0 0 163.48 45.5524" xml:space="preserve" color-interpolation-filters="sRGB" class="st7">
	<v:documentProperties v:langID="1028" v:viewMarkup="false"/>

	<style type="text/css">
	<![CDATA[
		.st1 {fill:none;stroke:none;stroke-linecap:butt;stroke-width:0.75}
		.st2 {fill:#000000;font-family:新細明體;font-size:0.833336em}
		.st3 {font-family:Times New Roman;font-size:1em}
		.st4 {baseline-shift:32.4947%;font-family:Times New Roman;font-size:0.649894em}
		.st5 {fill:none}
		.st6 {stroke:#000000;stroke-linecap:round;stroke-linejoin:round;stroke-width:0.5625}
		.st7 {fill:none;fill-rule:evenodd;font-size:12px;overflow:visible;stroke-linecap:square;stroke-miterlimit:3}
	]]>
	</style>

	<g v:mID="0" v:index="1" v:groupContext="foregroundPage">
		<title>頁-1</title>
		<v:pageProperties v:drawingScale="0.0393701" v:pageScale="0.0393701" v:drawingUnits="24" v:shadowOffsetX="9"
				v:shadowOffsetY="-9"/>
		<g id="shape1-1" v:mID="1" v:groupContext="shape" transform="translate(55.2118,-33.9231) rotate(0.1)">
			<title>工作表.1</title>
			<desc>法假——五眾</desc>
			<v:textBlock v:margins="rect(0,0,0,0)" v:tabSpace="42.5197"/>
			<v:textRect cx="53.7008" cy="40.1524" width="107.41" height="10.8"/>
			<rect x="0" y="34.7524" width="107.402" height="10.8" class="st1"/>
			<text x="0" y="43.27" class="st2" v:langID="1028"><v:paragraph/><v:tabList/>法假<tspan class="st3">——</tspan>五眾</text>		</g>
		<g id="shape4-5" v:mID="4" v:groupContext="shape" transform="translate(0.829504,-18.2426) rotate(0.1)">
			<title>工作表.4</title>
			<desc>三假之(1)</desc>
			<v:textBlock v:margins="rect(0,0,0,0)" v:tabSpace="42.5197"/>
			<v:textRect cx="22.133" cy="40.1524" width="44.27" height="10.8"/>
			<rect x="0" y="34.7524" width="44.266" height="10.8" class="st1"/>
			<text x="0" y="43.27" class="st2" v:langID="1028"><v:paragraph/><v:tabList/>三假之<tspan class="st3">(1)</tspan></text>		</g>
		<g id="shape6-9" v:mID="6" v:groupContext="shape" transform="translate(55.1858,-17.4524) rotate(0.1)">
			<title>工作表.6</title>
			<desc>受假——眾生、樹、柱*</desc>
			<v:textBlock v:margins="rect(0,0,0,0)" v:tabSpace="42.5197"/>
			<v:textRect cx="53.7583" cy="40.1524" width="107.52" height="10.8"/>
			<rect x="0" y="34.7524" width="107.517" height="10.8" class="st1"/>
			<text x="-0" y="43.27" class="st2" v:langID="1028"><v:paragraph/><v:tabList/>受假<tspan class="st3">——</tspan>眾生、樹、柱<tspan
						dy="-0.198em" class="st4" v:baseFontSize="10">*</tspan></text>		</g>
		<g id="shape9-14" v:mID="9" v:groupContext="shape" transform="translate(55.1543,-0.937792) rotate(0.1)">
			<title>工作表.9</title>
			<desc>名假——名字</desc>
			<v:textBlock v:margins="rect(0,0,0,0)" v:tabSpace="42.5197"/>
			<v:textRect cx="53.8185" cy="40.1524" width="107.64" height="10.8"/>
			<rect x="0" y="34.7524" width="107.637" height="10.8" class="st1"/>
			<text x="0" y="43.27" class="st2" v:langID="1028"><v:paragraph/><v:tabList/>名假<tspan class="st3">——</tspan>名字</text>		</g>
		<g id="shape12-18" v:mID="12" v:groupContext="shape" transform="translate(92.0307,1.96823) rotate(90.1)">
			<title>工作表.12</title>
			<path d="M0 41.51 C0 42.64 1.55 43.53 3.43 43.53 L17.25 43.53 C19.18 43.53 20.73 44.45 20.73 45.55 C20.73 44.45 22.28
						 43.53 24.16 43.53 L37.98 43.53 C39.91 43.53 41.46 42.64 41.46 41.51 L0 41.51 Z" class="st5"/>
			<path d="M0 41.51 C0 42.64 1.55 43.53 3.43 43.53 L17.25 43.53 C19.18 43.53 20.73 44.45 20.73 45.55 C20.73 44.45 22.28
						 43.53 24.16 43.53 L37.98 43.53 C39.91 43.53 41.46 42.64 41.46 41.51" class="st6"/>
		</g>
	</g>
</svg>
