<?xml version="1.0" encoding="UTF-8" standalone="no"?>
<!DOCTYPE svg PUBLIC "-//W3C//DTD SVG 1.1//EN" "http://www.w3.org/Graphics/SVG/1.1/DTD/svg11.dtd">
<!-- 由 Microsoft Visio, SVG Export 產生 B00208.svg 頁-1 -->
<svg xmlns="http://www.w3.org/2000/svg" xmlns:xlink="http://www.w3.org/1999/xlink" xmlns:ev="http://www.w3.org/2001/xml-events"
		xmlns:v="http://schemas.microsoft.com/visio/2003/SVGExtensions/" width="2.32997in" height="0.42945in"
		viewBox="0 0 167.758 30.9204" xml:space="preserve" color-interpolation-filters="sRGB" class="st5">
	<v:documentProperties v:langID="1028" v:viewMarkup="false"/>

	<style type="text/css">
	<![CDATA[
		.st1 {fill:none;stroke:none;stroke-linecap:butt;stroke-width:0.75}
		.st2 {fill:#000000;font-family:新細明體;font-size:0.833336em}
		.st3 {fill:none}
		.st4 {stroke:#000000;stroke-linecap:round;stroke-linejoin:round;stroke-width:0.5625}
		.st5 {fill:none;fill-rule:evenodd;font-size:12px;overflow:visible;stroke-linecap:square;stroke-miterlimit:3}
	]]>
	</style>

	<g v:mID="0" v:index="1" v:groupContext="foregroundPage">
		<title>頁-1</title>
		<v:pageProperties v:drawingScale="0.0393701" v:pageScale="0.0393701" v:drawingUnits="24" v:shadowOffsetX="9"
				v:shadowOffsetY="-9"/>
		<g id="group11-1" transform="translate(0.75,-0.791052)" v:mID="11" v:groupContext="group">
			<title>工作表.11</title>
			<g id="shape1-2" v:mID="1" v:groupContext="shape" transform="translate(18.0716,-18.5001) rotate(0.1)">
				<title>工作表.1</title>
				<desc>法性無量故不可見</desc>
				<v:textBlock v:margins="rect(0,0,0,0)" v:tabSpace="42.5197"/>
				<v:textRect cx="55.5" cy="25.5204" width="111.01" height="10.8"/>
				<rect x="0" y="20.1204" width="111" height="10.8" class="st1"/>
				<text x="25.5" y="28.63" class="st2" v:langID="1028"><v:paragraph/><v:tabList/>法性無量故不可見</text>			</g>
			<g id="shape2-5" v:mID="2" v:groupContext="shape" transform="translate(0.0539663,-8.04695) rotate(0.1)">
				<title>工作表.2</title>
				<desc>不可見</desc>
				<v:textBlock v:margins="rect(0,0,0,0)" v:tabSpace="42.5197"/>
				<v:textRect cx="16.5072" cy="25.5204" width="33.02" height="10.8"/>
				<rect x="0" y="20.1204" width="33.0144" height="10.8" class="st1"/>
				<text x="0" y="28.63" class="st2" v:langID="1028"><v:paragraph/><v:tabList/>不可見</text>			</g>
			<g id="shape3-8" v:mID="3" v:groupContext="shape" transform="translate(36.0349,-0.227296) rotate(0.1)">
				<title>工作表.3</title>
				<desc>諸法緣生無性故不可見</desc>
				<v:textBlock v:margins="rect(0,0,0,0)" v:tabSpace="42.5197"/>
				<v:textRect cx="65.129" cy="25.5204" width="130.26" height="10.8"/>
				<rect x="0" y="20.1204" width="130.258" height="10.8" class="st1"/>
				<text x="8.5" y="28.63" class="st2" v:langID="1028"><v:paragraph/><v:tabList/>諸法緣生無性故不可見</text>			</g>
			<g id="shape10-11" v:mID="10" v:groupContext="shape" transform="translate(64.7092,1.96199) rotate(90.1)">
				<title>工作表.10</title>
				<path d="M0 24.17 C0 26.06 1.01 27.55 2.33 27.55 L11.78 27.55 C13.1 27.55 14.17 29.08 14.17 30.92 C14.17 29.08 15.18
							 27.55 16.5 27.55 L25.95 27.55 C27.28 27.55 28.35 26.06 28.35 24.17 L0 24.17 Z" class="st3"/>
				<path d="M0 24.17 C0 26.06 1.01 27.55 2.33 27.55 L11.78 27.55 C13.1 27.55 14.17 29.08 14.17 30.92 C14.17 29.08 15.18
							 27.55 16.5 27.55 L25.95 27.55 C27.28 27.55 28.35 26.06 28.35 24.17" class="st4"/>
			</g>
		</g>
	</g>
</svg>
