<?xml version="1.0" encoding="UTF-8" standalone="no"?>
<!DOCTYPE svg PUBLIC "-//W3C//DTD SVG 1.1//EN" "http://www.w3.org/Graphics/SVG/1.1/DTD/svg11.dtd">
<!-- 由 Microsoft Visio, SVG Export 產生 B00601.svg 頁-1 -->
<svg xmlns="http://www.w3.org/2000/svg" xmlns:xlink="http://www.w3.org/1999/xlink" xmlns:ev="http://www.w3.org/2001/xml-events"
		xmlns:v="http://schemas.microsoft.com/visio/2003/SVGExtensions/" width="2.73359in" height="0.635027in"
		viewBox="0 0 196.818 45.722" xml:space="preserve" color-interpolation-filters="sRGB" class="st6">
	<v:documentProperties v:langID="1028" v:viewMarkup="false"/>

	<style type="text/css">
	<![CDATA[
		.st1 {fill:none;stroke:none;stroke-linecap:butt;stroke-width:0.75}
		.st2 {fill:#000000;font-family:新細明體;font-size:0.833336em}
		.st3 {font-family:Times New Roman;font-size:1em}
		.st4 {fill:none}
		.st5 {stroke:#000000;stroke-linecap:round;stroke-linejoin:round;stroke-width:0.5625}
		.st6 {fill:none;fill-rule:evenodd;font-size:12px;overflow:visible;stroke-linecap:square;stroke-miterlimit:3}
	]]>
	</style>

	<g v:mID="0" v:index="1" v:groupContext="foregroundPage">
		<title>頁-1</title>
		<v:pageProperties v:drawingScale="0.0393701" v:pageScale="0.0393701" v:drawingUnits="24" v:shadowOffsetX="9"
				v:shadowOffsetY="-9"/>
		<g id="shape3-1" v:mID="3" v:groupContext="shape" transform="translate(32.6537,-34.0927) rotate(0.1)">
			<title>工作表.3</title>
			<desc>一字門一字一名……如地名浮</desc>
			<v:textBlock v:margins="rect(0,0,0,0)" v:tabSpace="42.5197"/>
			<v:textRect cx="73.4433" cy="40.322" width="146.89" height="10.8"/>
			<rect x="0" y="34.922" width="146.887" height="10.8" class="st1"/>
			<text x="0" y="43.44" class="st2" v:langID="1028"><v:paragraph/><v:tabList/>一字門：一字一名<tspan class="st3">……</tspan>如地名浮</text>		</g>
		<g id="shape4-5" v:mID="4" v:groupContext="shape" transform="translate(32.4789,-17.5209) rotate(0.1)">
			<title>工作表.4</title>
			<desc>二字門二字一名……如水名闍藍</desc>
			<v:textBlock v:margins="rect(0,0,0,0)"/>
			<v:textRect cx="77.8531" cy="40.322" width="155.71" height="10.8"/>
			<rect x="0" y="34.922" width="155.706" height="10.8" class="st1"/>
			<text x="0" y="43.44" class="st2" v:langID="1028"><v:paragraph/><v:tabList/>二字門：二字一名<tspan class="st3">……</tspan>如水名闍藍</text>		</g>
		<g id="shape5-9" v:mID="5" v:groupContext="shape" transform="translate(32.5953,-1.10821) rotate(0.1)">
			<title>工作表.5</title>
			<desc>多字門三字一名……如水名波尼藍</desc>
			<v:textBlock v:margins="rect(0,0,0,0)" v:tabSpace="42.5197"/>
			<v:textRect cx="81.7672" cy="40.322" width="163.54" height="10.8"/>
			<rect x="0" y="34.922" width="163.534" height="10.8" class="st1"/>
			<text x="0" y="43.44" class="st2" v:langID="1028"><v:paragraph/><v:tabList/>多字門：三字一名<tspan class="st3">……</tspan>如水名波尼藍</text>		</g>
		<g id="shape14-13" v:mID="14" v:groupContext="shape" transform="translate(69.4602,3.32283) rotate(90.1)">
			<title>工作表.14</title>
			<path d="M0 38.97 C0 40.86 1.48 42.35 3.38 42.35 L16.88 42.35 C18.72 42.35 20.25 43.88 20.25 45.72 C20.25 43.88 21.74
						 42.35 23.63 42.35 L37.13 42.35 C38.97 42.35 40.5 40.86 40.5 38.97 L0 38.97 Z" class="st4"/>
			<path d="M0 38.97 C0 40.86 1.48 42.35 3.38 42.35 L16.88 42.35 C18.72 42.35 20.25 43.88 20.25 45.72 C20.25 43.88 21.74
						 42.35 23.63 42.35 L37.13 42.35 C38.97 42.35 40.5 40.86 40.5 38.97" class="st5"/>
		</g>
		<g id="shape15-16" v:mID="15" v:groupContext="shape" transform="translate(0.75,-17.5639)">
			<title>工作表.15</title>
			<desc>文字</desc>
			<v:textBlock v:margins="rect(0,0,0,0)"/>
			<v:textRect cx="11.9475" cy="40.322" width="23.9" height="10.8"/>
			<rect x="0" y="34.922" width="23.8951" height="10.8" class="st1"/>
			<text x="0" y="43.44" class="st2" v:langID="1028"><v:paragraph/><v:tabList/>文字  </text>		</g>
	</g>
</svg>
