<?xml version="1.0" encoding="UTF-8" standalone="no"?>
<!DOCTYPE svg PUBLIC "-//W3C//DTD SVG 1.1//EN" "http://www.w3.org/Graphics/SVG/1.1/DTD/svg11.dtd">
<!-- 由 Microsoft Visio, SVG Export 產生 B00401.svg 頁-1 -->
<svg xmlns="http://www.w3.org/2000/svg" xmlns:xlink="http://www.w3.org/1999/xlink" xmlns:ev="http://www.w3.org/2001/xml-events"
		xmlns:v="http://schemas.microsoft.com/visio/2003/SVGExtensions/" width="4.58219in" height="0.422221in"
		viewBox="0 0 329.918 30.3999" xml:space="preserve" color-interpolation-filters="sRGB" class="st6">
	<v:documentProperties v:langID="1028" v:viewMarkup="false"/>

	<style type="text/css">
	<![CDATA[
		.st1 {fill:none;stroke:none;stroke-linecap:butt;stroke-width:0.75}
		.st2 {fill:#000000;font-family:新細明體;font-size:0.833336em}
		.st3 {fill:#000000;font-family:Times New Roman;font-size:0.833336em}
		.st4 {fill:none}
		.st5 {stroke:#000000;stroke-linecap:round;stroke-linejoin:round;stroke-width:0.5625}
		.st6 {fill:none;fill-rule:evenodd;font-size:12px;overflow:visible;stroke-linecap:square;stroke-miterlimit:3}
	]]>
	</style>

	<g v:mID="0" v:index="1" v:groupContext="foregroundPage">
		<title>頁-1</title>
		<v:pageProperties v:drawingScale="0.0393701" v:pageScale="0.0393701" v:drawingUnits="24" v:shadowOffsetX="9"
				v:shadowOffsetY="-9"/>
		<g id="group19-1" transform="translate(0.75,-0.794254)" v:mID="19" v:groupContext="group">
			<title>工作表.19</title>
			<g id="shape3-2" v:mID="3" v:groupContext="shape" transform="translate(57.4931,-17.9765) rotate(0.1)">
				<title>工作表.3</title>
				<desc>邪憶念</desc>
				<v:textBlock v:margins="rect(0,0,0,0)"/>
				<v:textRect cx="33" cy="24.9999" width="66" height="10.8"/>
				<rect x="0" y="19.5999" width="66" height="10.8" class="st1"/>
				<text x="25.5" y="28.11" class="st2" v:langID="1028"><v:paragraph/><v:tabList/>邪憶念</text>			</g>
			<g id="shape4-5" v:mID="4" v:groupContext="shape" transform="translate(114.626,-17.8822) rotate(0.1)">
				<title>工作表.4</title>
				<desc>——</desc>
				<v:textBlock v:margins="rect(0,0,0,0)" v:tabSpace="42.5197"/>
				<v:textRect cx="18.059" cy="24.9999" width="36.12" height="10.8"/>
				<rect x="0" y="19.5999" width="36.118" height="10.8" class="st1"/>
				<text x="0" y="28" class="st3" v:langID="1028"><v:paragraph/><v:tabList/>——</text>			</g>
			<g id="shape5-8" v:mID="5" v:groupContext="shape" transform="translate(135.908,-17.8508) rotate(0.1)">
				<title>工作表.5</title>
				<desc>生煩惱罪業</desc>
				<v:textBlock v:margins="rect(0,0,0,0)" v:tabSpace="42.5197"/>
				<v:textRect cx="33.1535" cy="24.9999" width="66.31" height="10.8"/>
				<rect x="0" y="19.5999" width="66.3069" height="10.8" class="st1"/>
				<text x="0" y="28.11" class="st2" v:langID="1028"><v:paragraph/><v:tabList/>生煩惱罪業</text>			</g>
			<g id="shape6-11" v:mID="6" v:groupContext="shape" transform="translate(0.0530579,-9.2131) rotate(0.1)">
				<title>工作表.6</title>
				<desc>集</desc>
				<v:textBlock v:margins="rect(0,0,0,0)" v:tabSpace="42.5197"/>
				<v:textRect cx="4.5" cy="24.9999" width="9.01" height="10.8"/>
				<rect x="0" y="19.5999" width="9" height="10.8" class="st1"/>
				<text x="0" y="28.11" class="st2" v:langID="1028"><v:paragraph/><v:tabList/>集</text>			</g>
			<g id="shape7-14" v:mID="7" v:groupContext="shape" transform="translate(11.1528,-9.19739) rotate(0.1)">
				<title>工作表.7</title>
				<desc>——</desc>
				<v:textBlock v:margins="rect(0,0,0,0)" v:tabSpace="42.5197"/>
				<v:textRect cx="17.9665" cy="24.9999" width="35.94" height="10.8"/>
				<rect x="0" y="19.5999" width="35.9331" height="10.8" class="st1"/>
				<text x="0" y="28" class="st3" v:langID="1028"><v:paragraph/><v:tabList/>——</text>			</g>
			<g id="shape8-17" v:mID="8" v:groupContext="shape" transform="translate(32.0399,-9.16597) rotate(0.1)">
				<title>工作表.8</title>
				<desc>心心數法</desc>
				<v:textBlock v:margins="rect(0,0,0,0)" v:tabSpace="42.5197"/>
				<v:textRect cx="30.2264" cy="24.9999" width="60.46" height="10.8"/>
				<rect x="0" y="19.5999" width="60.4527" height="10.8" class="st1"/>
				<text x="-0" y="28.11" class="st2" v:langID="1028"><v:paragraph/><v:tabList/>心心數法</text>			</g>
			<g id="shape9-20" v:mID="9" v:groupContext="shape" transform="translate(63.053,-1.49159) rotate(0.1)">
				<title>工作表.9</title>
				<v:textBlock v:margins="rect(0,0,0,0)"/>
				<rect x="0" y="19.5999" width="175.5" height="10.8" class="st1"/>
			</g>
			<g id="shape10-22" v:mID="10" v:groupContext="shape" transform="translate(214.352,-9.42403) rotate(0.1)">
				<title>工作表.10</title>
				<desc>受六道果</desc>
				<v:textBlock v:margins="rect(0,0,0,0)" v:tabSpace="42.5197"/>
				<v:textRect cx="31.3955" cy="24.9999" width="62.8" height="10.8"/>
				<rect x="0" y="19.5999" width="62.791" height="10.8" class="st1"/>
				<text x="-0" y="28.11" class="st2" v:langID="1028"><v:paragraph/><v:tabList/>受六道果</text>			</g>
			<g id="shape11-25" v:mID="11" v:groupContext="shape" transform="translate(255.738,-9.3612) rotate(0.1)">
				<title>工作表.11</title>
				<desc>——</desc>
				<v:textBlock v:margins="rect(0,0,0,0)" v:tabSpace="42.5197"/>
				<v:textRect cx="19.0648" cy="24.9999" width="38.13" height="10.8"/>
				<rect x="0" y="19.5999" width="38.1296" height="10.8" class="st1"/>
				<text x="0" y="28" class="st3" v:langID="1028"><v:paragraph/><v:tabList/>——</text>			</g>
			<g id="shape12-28" v:mID="12" v:groupContext="shape" transform="translate(276.572,-9.32979) rotate(0.1)">
				<title>工作表.12</title>
				<desc>更起善惡業</desc>
				<v:textBlock v:margins="rect(0,0,0,0)" v:tabSpace="42.5197"/>
				<v:textRect cx="25.9398" cy="24.9999" width="51.88" height="10.8"/>
				<rect x="0" y="19.5999" width="51.8796" height="10.8" class="st1"/>
				<text x="0" y="28.11" class="st2" v:langID="1028"><v:paragraph/><v:tabList/>更起善惡業</text>			</g>
			<g id="shape13-31" v:mID="13" v:groupContext="shape" transform="translate(74.8738,-1.11036) rotate(0.1)">
				<title>工作表.13</title>
				<desc>正憶念</desc>
				<v:textBlock v:margins="rect(0,0,0,0)"/>
				<v:textRect cx="29.8707" cy="24.9999" width="59.75" height="10.8"/>
				<rect x="0" y="19.5999" width="59.7413" height="10.8" class="st1"/>
				<text x="8.5" y="28.11" class="st2" v:langID="1028"><v:paragraph/><v:tabList/>正憶念</text>			</g>
			<g id="shape14-34" v:mID="14" v:groupContext="shape" transform="translate(114.044,-0.118503) rotate(0.1)">
				<title>工作表.14</title>
				<desc>——</desc>
				<v:textBlock v:margins="rect(0,0,0,0)" v:tabSpace="42.5197"/>
				<v:textRect cx="18.0879" cy="24.9999" width="36.18" height="10.8"/>
				<rect x="0" y="19.5999" width="36.1759" height="10.8" class="st1"/>
				<text x="-0" y="28" class="st3" v:langID="1028"><v:paragraph/><v:tabList/>——</text>			</g>
			<g id="shape15-37" v:mID="15" v:groupContext="shape" transform="translate(135.327,-0.0870873) rotate(0.1)">
				<title>工作表.15</title>
				<desc>生善法</desc>
				<v:textBlock v:margins="rect(0,0,0,0)" v:tabSpace="42.5197"/>
				<v:textRect cx="24.9619" cy="24.9999" width="49.93" height="10.8"/>
				<rect x="0" y="19.5999" width="49.9239" height="10.8" class="st1"/>
				<text x="0" y="28.11" class="st2" v:langID="1028"><v:paragraph/><v:tabList/>生善法</text>			</g>
			<g id="shape16-40" v:mID="16" v:groupContext="shape" transform="translate(105.227,2.10179) rotate(90.1)">
				<title>工作表.16</title>
				<path d="M0 24.89 C0 26.44 0.99 27.65 2.2 27.65 L11.08 27.65 C12.33 27.65 13.32 28.89 13.32 30.4 C13.32 28.89 14.32
							 27.65 15.53 27.65 L24.41 27.65 C25.65 27.65 26.65 26.44 26.65 24.89 L0 24.89 Z" class="st4"/>
				<path d="M0 24.89 C0 26.44 0.99 27.65 2.2 27.65 L11.08 27.65 C12.33 27.65 13.32 28.89 13.32 30.4 C13.32 28.89 14.32
							 27.65 15.53 27.65 L24.41 27.65 C25.65 27.65 26.65 26.44 26.65 24.89" class="st5"/>
			</g>
			<g id="shape17-43" v:mID="17" v:groupContext="shape" transform="translate(198.458,-21.0548) rotate(18.8028)">
				<title>工作表.17</title>
				<path d="M0 30.4 L24.28 30.4" class="st5"/>
			</g>
			<g id="shape18-46" v:mID="18" v:groupContext="shape" transform="translate(162.378,-5.91638) rotate(-10.9057)">
				<title>工作表.18</title>
				<path d="M0 30.4 L44.32 30.4" class="st5"/>
			</g>
		</g>
	</g>
</svg>
