<?xml version="1.0" encoding="UTF-8" standalone="no"?>
<!DOCTYPE svg PUBLIC "-//W3C//DTD SVG 1.1//EN" "http://www.w3.org/Graphics/SVG/1.1/DTD/svg11.dtd">
<!-- 由 Microsoft Visio, SVG Export 產生 B00408-3.svg 頁-1 -->
<svg xmlns="http://www.w3.org/2000/svg" xmlns:xlink="http://www.w3.org/1999/xlink" xmlns:ev="http://www.w3.org/2001/xml-events"
		xmlns:v="http://schemas.microsoft.com/visio/2003/SVGExtensions/" width="1.68032in" height="0.425526in"
		viewBox="0 0 120.983 30.6379" xml:space="preserve" color-interpolation-filters="sRGB" class="st5">
	<v:documentProperties v:langID="1028" v:metric="true" v:viewMarkup="false"/>

	<style type="text/css">
	<![CDATA[
		.st1 {fill:none;stroke:none;stroke-linecap:butt;stroke-width:0.75}
		.st2 {fill:#000000;font-family:新細明體;font-size:0.833336em}
		.st3 {fill:none}
		.st4 {stroke:#000000;stroke-linecap:round;stroke-linejoin:round;stroke-width:0.5625}
		.st5 {fill:none;fill-rule:evenodd;font-size:12px;overflow:visible;stroke-linecap:square;stroke-miterlimit:3}
	]]>
	</style>

	<g v:mID="0" v:index="1" v:groupContext="foregroundPage">
		<title>頁-1</title>
		<v:pageProperties v:drawingScale="0.0393701" v:pageScale="0.0393701" v:drawingUnits="24" v:shadowOffsetX="9"
				v:shadowOffsetY="-9"/>
		<g id="group34-1" transform="translate(0.75,-0.28125)" v:mID="34" v:groupContext="group">
			<title>工作表.34</title>
			<g id="shape7-2" v:mID="7" v:groupContext="shape" transform="translate(40.9307,-18.8066) rotate(0.1)">
				<title>工作表.7</title>
				<desc>淳善相寂滅惡事</desc>
				<v:textBlock v:margins="rect(0,0,0,0)" v:tabSpace="42.5197"/>
				<v:textRect cx="39.2936" cy="25.2379" width="78.59" height="10.8"/>
				<rect x="0" y="19.8379" width="78.5872" height="10.8" class="st1"/>
				<text x="0" y="28.24" class="st2" v:langID="1028"><v:paragraph/><v:tabList/>淳善相寂滅惡事</text>			</g>
			<g id="shape11-5" v:mID="11" v:groupContext="shape" transform="translate(0.0534732,-9.19399) rotate(0.1)">
				<title>工作表.11</title>
				<desc>二寂滅</desc>
				<v:textBlock v:margins="rect(0,0,0,0)" v:tabSpace="42.5197"/>
				<v:textRect cx="20.453" cy="25.2379" width="40.91" height="10.8"/>
				<rect x="0" y="19.8379" width="40.9059" height="10.8" class="st1"/>
				<text x="0" y="28.24" class="st2" v:langID="1028"><v:paragraph/><v:tabList/>二寂滅</text>			</g>
			<g id="shape18-8" v:mID="18" v:groupContext="shape" transform="translate(40.8938,-0.670626) rotate(0.1)">
				<title>工作表.18</title>
				<desc>諸法如涅槃寂滅</desc>
				<v:textBlock v:margins="rect(0,0,0,0)" v:tabSpace="42.5197"/>
				<v:textRect cx="39.311" cy="25.2379" width="78.63" height="10.8"/>
				<rect x="0" y="19.8379" width="78.6221" height="10.8" class="st1"/>
				<text x="0" y="28.24" class="st2" v:langID="1028"><v:paragraph/><v:tabList/>諸法如涅槃寂滅</text>			</g>
			<g id="shape30-11" v:mID="30" v:groupContext="shape" transform="translate(62.5303,2.51672) rotate(90.1)">
				<title>工作表.30</title>
				<path d="M0 23.89 C0 25.78 1.03 27.26 2.35 27.26 L11.73 27.26 C13.05 27.26 14.08 28.79 14.08 30.64 C14.08 28.79 15.11
							 27.26 16.43 27.26 L25.82 27.26 C27.13 27.26 28.16 25.78 28.16 23.89 L0 23.89 Z" class="st3"/>
				<path d="M0 23.89 C0 25.78 1.03 27.26 2.35 27.26 L11.73 27.26 C13.05 27.26 14.08 28.79 14.08 30.64 C14.08 28.79 15.11
							 27.26 16.43 27.26 L25.82 27.26 C27.13 27.26 28.16 25.78 28.16 23.89" class="st4"/>
			</g>
		</g>
	</g>
</svg>
