<?xml version="1.0" encoding="UTF-8" standalone="no"?>
<!DOCTYPE svg PUBLIC "-//W3C//DTD SVG 1.1//EN" "http://www.w3.org/Graphics/SVG/1.1/DTD/svg11.dtd">
<!-- 由 Microsoft Visio, SVG Export 產生 B00407.svg 頁-1 -->
<svg xmlns="http://www.w3.org/2000/svg" xmlns:xlink="http://www.w3.org/1999/xlink" xmlns:ev="http://www.w3.org/2001/xml-events"
		xmlns:v="http://schemas.microsoft.com/visio/2003/SVGExtensions/" width="5.15129in" height="1.19973in"
		viewBox="0 0 370.893 86.3805" xml:space="preserve" color-interpolation-filters="sRGB" class="st6">
	<v:documentProperties v:langID="1028" v:viewMarkup="false"/>

	<style type="text/css">
	<![CDATA[
		.st1 {fill:none;stroke:none;stroke-linecap:butt;stroke-width:0.75}
		.st2 {fill:#000000;font-family:新細明體;font-size:0.833336em}
		.st3 {fill:#000000;font-family:Times New Roman;font-size:0.833336em}
		.st4 {fill:none}
		.st5 {stroke:#000000;stroke-linecap:round;stroke-linejoin:round;stroke-width:0.5625}
		.st6 {fill:none;fill-rule:evenodd;font-size:12px;overflow:visible;stroke-linecap:square;stroke-miterlimit:3}
	]]>
	</style>

	<g v:mID="0" v:index="1" v:groupContext="foregroundPage">
		<title>頁-1</title>
		<v:pageProperties v:drawingScale="0.0393701" v:pageScale="0.0393701" v:drawingUnits="24" v:shadowOffsetX="9"
				v:shadowOffsetY="-9"/>
		<g id="group29-1" transform="translate(0.75,-0.778967)" v:mID="29" v:groupContext="group">
			<title>工作表.29</title>
			<g id="shape2-2" v:mID="2" v:groupContext="shape" transform="translate(186.84,-73.9722) rotate(0.1)">
				<title>工作表.2</title>
				<desc>一、因緣離散即失名故何況法空</desc>
				<v:textBlock v:margins="rect(0,0,0,0)" v:tabSpace="42.5197"/>
				<v:textRect cx="91.3427" cy="80.9805" width="182.69" height="10.8"/>
				<rect x="0" y="75.5805" width="182.685" height="10.8" class="st1"/>
				<text x="-0" y="84.09" class="st2" v:langID="1028"><v:paragraph/><v:tabList/>一、因緣離散，即失名故（何況法空）</text>			</g>
			<g id="shape3-5" v:mID="3" v:groupContext="shape" transform="translate(119.884,-63.6133) rotate(0.1)">
				<title>工作表.3</title>
				<desc>非住義中</desc>
				<v:textBlock v:margins="rect(0,0,0,0)" v:tabSpace="42.5197"/>
				<v:textRect cx="42.3131" cy="80.9805" width="84.63" height="10.8"/>
				<rect x="0" y="75.5805" width="84.6261" height="10.8" class="st1"/>
				<text x="0" y="84.09" class="st2" v:langID="1028"><v:paragraph/><v:tabList/>非住（義中）</text>			</g>
			<g id="shape4-8" v:mID="4" v:groupContext="shape" transform="translate(89.5183,-50.5145) rotate(0.1)">
				<title>工作表.4</title>
				<desc>一釋</desc>
				<v:textBlock v:margins="rect(0,0,0,0)" v:tabSpace="42.5197"/>
				<v:textRect cx="16.3864" cy="80.9805" width="32.78" height="10.8"/>
				<rect x="0" y="75.5805" width="32.7727" height="10.8" class="st1"/>
				<text x="0" y="84.09" class="st2" v:langID="1028"><v:paragraph/><v:tabList/>一釋</text>			</g>
			<g id="shape5-11" v:mID="5" v:groupContext="shape" transform="translate(186.803,-55.4321) rotate(0.1)">
				<title>工作表.5</title>
				<desc>二、名一義多不相即故</desc>
				<v:textBlock v:margins="rect(0,0,0,0)" v:tabSpace="42.5197"/>
				<v:textRect cx="60.1804" cy="80.9805" width="120.37" height="10.8"/>
				<rect x="0" y="75.5805" width="120.361" height="10.8" class="st1"/>
				<text x="-0" y="84.09" class="st2" v:langID="1028"><v:paragraph/><v:tabList/>二、名一義多，不相即故</text>			</g>
			<g id="shape6-14" v:mID="6" v:groupContext="shape" transform="translate(119.826,-37.4058) rotate(0.1)">
				<title>工作表.6</title>
				<desc>非不住</desc>
				<v:textBlock v:margins="rect(0,0,0,0)" v:tabSpace="42.5197"/>
				<v:textRect cx="29.5872" cy="80.9805" width="59.18" height="10.8"/>
				<rect x="0" y="75.5805" width="59.1744" height="10.8" class="st1"/>
				<text x="0" y="84.09" class="st2" v:langID="1028"><v:paragraph/><v:tabList/>非不住</text>			</g>
			<g id="shape7-17" v:mID="7" v:groupContext="shape" transform="translate(150.623,-37.3587) rotate(0.1)">
				<title>工作表.7</title>
				<desc>—————</desc>
				<v:textBlock v:margins="rect(0,0,0,0)" v:tabSpace="42.5197"/>
				<v:textRect cx="35.9297" cy="80.9805" width="71.86" height="10.8"/>
				<rect x="0" y="75.5805" width="71.8594" height="10.8" class="st1"/>
				<text x="0" y="83.98" class="st3" v:langID="1028"><v:paragraph/><v:tabList/>—————</text>			</g>
			<g id="shape8-20" v:mID="8" v:groupContext="shape" transform="translate(202.203,-37.2794) rotate(0.1)">
				<title>工作表.8</title>
				<desc>若無和合假名二諦並失。</desc>
				<v:textBlock v:margins="rect(0,0,0,0)" v:tabSpace="42.5197"/>
				<v:textRect cx="78.6264" cy="80.9805" width="157.26" height="10.8"/>
				<rect x="0" y="75.5805" width="157.253" height="10.8" class="st1"/>
				<text x="-0" y="84.09" class="st2" v:langID="1028"><v:paragraph/><v:tabList/>若無和合假名，二諦並失。</text>			</g>
			<g id="shape9-23" v:mID="9" v:groupContext="shape" transform="translate(0.150762,-29.1878) rotate(0.1)">
				<title>工作表.9</title>
				<desc>名字非住亦非不住</desc>
				<v:textBlock v:margins="rect(0,0,0,0)" v:tabSpace="42.5197"/>
				<v:textRect cx="44.4177" cy="80.9805" width="88.84" height="10.8"/>
				<rect x="0" y="75.5805" width="88.8355" height="10.8" class="st1"/>
				<text x="0" y="84.09" class="st2" v:langID="1028"><v:paragraph/><v:tabList/>名字非住亦非不住</text>			</g>
			<g id="shape10-26" v:mID="10" v:groupContext="shape" transform="translate(120.04,-18.7416) rotate(0.1)">
				<title>工作表.10</title>
				<desc>非住</desc>
				<v:textBlock v:margins="rect(0,0,0,0)" v:tabSpace="42.5197"/>
				<v:textRect cx="21.1027" cy="80.9805" width="42.21" height="10.8"/>
				<rect x="0" y="75.5805" width="42.2054" height="10.8" class="st1"/>
				<text x="0" y="84.09" class="st2" v:langID="1028"><v:paragraph/><v:tabList/>非住</text>			</g>
			<g id="shape11-29" v:mID="11" v:groupContext="shape" transform="translate(141.077,-18.7101) rotate(0.1)">
				<title>工作表.11</title>
				<desc>———</desc>
				<v:textBlock v:margins="rect(0,0,0,0)" v:tabSpace="42.5197"/>
				<v:textRect cx="29.1106" cy="80.9805" width="58.23" height="10.8"/>
				<rect x="0" y="75.5805" width="58.2211" height="10.8" class="st1"/>
				<text x="0" y="83.98" class="st3" v:langID="1028"><v:paragraph/><v:tabList/>———</text>			</g>
			<g id="shape12-32" v:mID="12" v:groupContext="shape" transform="translate(172.47,-18.663) rotate(0.1)">
				<title>工作表.12</title>
				<desc>說火則燒口說有則塞口。</desc>
				<v:textBlock v:margins="rect(0,0,0,0)" v:tabSpace="42.5197"/>
				<v:textRect cx="76.5554" cy="80.9805" width="153.12" height="10.8"/>
				<rect x="0" y="75.5805" width="153.111" height="10.8" class="st1"/>
				<text x="0" y="84.09" class="st2" v:langID="1028"><v:paragraph/><v:tabList/>說火則燒口，說有則塞口。</text>			</g>
			<g id="shape13-35" v:mID="13" v:groupContext="shape" transform="translate(89.5783,-9.37565) rotate(0.1)">
				<title>工作表.13</title>
				<desc>二釋</desc>
				<v:textBlock v:margins="rect(0,0,0,0)" v:tabSpace="42.5197"/>
				<v:textRect cx="13.6061" cy="80.9805" width="27.22" height="10.8"/>
				<rect x="0" y="75.5805" width="27.2123" height="10.8" class="st1"/>
				<text x="0" y="84.09" class="st2" v:langID="1028"><v:paragraph/><v:tabList/>二釋</text>			</g>
			<g id="shape14-38" v:mID="14" v:groupContext="shape" transform="translate(119.981,-0.390268) rotate(0.1)">
				<title>工作表.14</title>
				<desc>非不住</desc>
				<v:textBlock v:margins="rect(0,0,0,0)" v:tabSpace="42.5197"/>
				<v:textRect cx="32.4713" cy="80.9805" width="64.95" height="10.8"/>
				<rect x="0" y="75.5805" width="64.9426" height="10.8" class="st1"/>
				<text x="0" y="84.09" class="st2" v:langID="1028"><v:paragraph/><v:tabList/>非不住</text>			</g>
			<g id="shape15-41" v:mID="15" v:groupContext="shape" transform="translate(151.031,-0.343144) rotate(0.1)">
				<title>工作表.15</title>
				<desc>——</desc>
				<v:textBlock v:margins="rect(0,0,0,0)" v:tabSpace="42.5197"/>
				<v:textRect cx="14.2883" cy="80.9805" width="28.58" height="10.8"/>
				<rect x="0" y="75.5805" width="28.5765" height="10.8" class="st1"/>
				<text x="0" y="83.98" class="st3" v:langID="1028"><v:paragraph/><v:tabList/>——</text>			</g>
			<g id="shape16-44" v:mID="16" v:groupContext="shape" transform="translate(172.827,-0.311728) rotate(0.1)">
				<title>工作表.16</title>
				<desc>說火不應生火想求火亦應得水。</desc>
				<v:textBlock v:margins="rect(0,0,0,0)" v:tabSpace="42.5197"/>
				<v:textRect cx="89.3413" cy="80.9805" width="178.69" height="10.8"/>
				<rect x="0" y="75.5805" width="178.683" height="10.8" class="st1"/>
				<text x="0" y="84.09" class="st2" v:langID="1028"><v:paragraph/><v:tabList/>說火不應生火想，求火亦應得水。</text>			</g>
			<g id="shape25-47" v:mID="25" v:groupContext="shape" transform="translate(168.854,25.7186) rotate(90.1)">
				<title>工作表.25</title>
				<path d="M0 81.27 C0 82.66 1.99 83.82 4.4 83.82 L21.93 83.82 C24.35 83.82 26.29 84.95 26.29 86.38 C26.29 84.95 28.28
							 83.82 30.7 83.82 L48.22 83.82 C50.64 83.82 52.59 82.66 52.59 81.27 L0 81.27 Z" class="st4"/>
				<path d="M0 81.27 C0 82.66 1.99 83.82 4.4 83.82 L21.93 83.82 C24.35 83.82 26.29 84.95 26.29 86.38 C26.29 84.95 28.28
							 83.82 30.7 83.82 L48.22 83.82 C50.64 83.82 52.59 82.66 52.59 81.27" class="st5"/>
			</g>
			<g id="shape26-50" v:mID="26" v:groupContext="shape" transform="translate(199.623,11.7383) rotate(90.1)">
				<title>工作表.26</title>
				<path d="M0 81.37 C0 82.74 1.41 83.88 3.17 83.88 L15.77 83.88 C17.49 83.88 18.9 85.01 18.9 86.38 C18.9 85.01 20.31
							 83.88 22.07 83.88 L34.67 83.88 C36.38 83.88 37.8 82.74 37.8 81.37 L0 81.37 Z" class="st4"/>
				<path d="M0 81.37 C0 82.74 1.41 83.88 3.17 83.88 L15.77 83.88 C17.49 83.88 18.9 85.01 18.9 86.38 C18.9 85.01 20.31
							 83.88 22.07 83.88 L34.67 83.88 C36.38 83.88 37.8 82.74 37.8 81.37" class="st5"/>
			</g>
			<g id="shape27-53" v:mID="27" v:groupContext="shape" transform="translate(263.856,4.96812) rotate(90.1)">
				<title>工作表.27</title>
				<path d="M0 79.63 C0 81.52 0.91 83.01 2.06 83.01 L10.35 83.01 C11.45 83.01 12.41 84.49 12.41 86.38 C12.41 84.49 13.32
							 83.01 14.47 83.01 L22.76 83.01 C23.91 83.01 24.83 81.52 24.83 79.63 L0 79.63 Z" class="st4"/>
				<path d="M0 79.63 C0 81.52 0.91 83.01 2.06 83.01 L10.35 83.01 C11.45 83.01 12.41 84.49 12.41 86.38 C12.41 84.49 13.32
							 83.01 14.47 83.01 L22.76 83.01 C23.91 83.01 24.83 81.52 24.83 79.63" class="st5"/>
			</g>
			<g id="shape28-56" v:mID="28" v:groupContext="shape" transform="translate(199.257,58.0376) rotate(90.1)">
				<title>工作表.28</title>
				<path d="M0 80.82 C0 82.38 1.01 83.6 2.27 83.6 L11.3 83.6 C12.52 83.6 13.54 84.86 13.54 86.38 C13.54 84.86 14.55
							 83.6 15.81 83.6 L24.83 83.6 C26.06 83.6 27.07 82.38 27.07 80.82 L0 80.82 Z" class="st4"/>
				<path d="M0 80.82 C0 82.38 1.01 83.6 2.27 83.6 L11.3 83.6 C12.52 83.6 13.54 84.86 13.54 86.38 C13.54 84.86 14.55
							 83.6 15.81 83.6 L24.83 83.6 C26.06 83.6 27.07 82.38 27.07 80.82" class="st5"/>
			</g>
		</g>
	</g>
</svg>
