<?xml version="1.0" encoding="UTF-8" standalone="no"?>
<!DOCTYPE svg PUBLIC "-//W3C//DTD SVG 1.1//EN" "http://www.w3.org/Graphics/SVG/1.1/DTD/svg11.dtd">
<!-- 由 Microsoft Visio, SVG Export 產生 B00704.svg 頁-1 -->
<svg xmlns="http://www.w3.org/2000/svg" xmlns:xlink="http://www.w3.org/1999/xlink" xmlns:ev="http://www.w3.org/2001/xml-events"
		xmlns:v="http://schemas.microsoft.com/visio/2003/SVGExtensions/" width="2.3035in" height="0.383289in"
		viewBox="0 0 165.852 27.5968" xml:space="preserve" color-interpolation-filters="sRGB" class="st5">
	<v:documentProperties v:langID="1028" v:viewMarkup="false"/>

	<style type="text/css">
	<![CDATA[
		.st1 {fill:none;stroke:none;stroke-linecap:butt;stroke-width:0.75}
		.st2 {fill:#000000;font-family:新細明體;font-size:0.833336em}
		.st3 {fill:none}
		.st4 {stroke:#000000;stroke-linecap:round;stroke-linejoin:round;stroke-width:0.5625}
		.st5 {fill:none;fill-rule:evenodd;font-size:12px;overflow:visible;stroke-linecap:square;stroke-miterlimit:3}
	]]>
	</style>

	<g v:mID="0" v:index="1" v:groupContext="foregroundPage">
		<title>頁-1</title>
		<v:pageProperties v:drawingScale="0.0393701" v:pageScale="0.0393701" v:drawingUnits="24" v:shadowOffsetX="9"
				v:shadowOffsetY="-9"/>
		<g id="shape2-1" v:mID="2" v:groupContext="shape" transform="translate(52.8881,-15.9676) rotate(0.1)">
			<title>工作表.2</title>
			<desc>一、從因緣生有非實故。</desc>
			<v:textBlock v:margins="rect(0,0,0,0)" v:tabSpace="42.5197"/>
			<v:textRect cx="55.4133" cy="22.1968" width="110.83" height="10.8"/>
			<rect x="0" y="16.7968" width="110.827" height="10.8" class="st1"/>
			<text x="0" y="25.31" class="st2" v:langID="1028"><v:paragraph/><v:tabList/>一、從因緣生有非實故。</text>		</g>
		<g id="shape3-4" v:mID="3" v:groupContext="shape" transform="translate(0.798165,-7.046) rotate(0.1)">
			<title>工作表.3</title>
			<desc>破無常觀</desc>
			<v:textBlock v:margins="rect(0,0,0,0)" v:tabSpace="42.5197"/>
			<v:textRect cx="21.7301" cy="22.1968" width="43.47" height="10.8"/>
			<rect x="0" y="16.7968" width="43.4602" height="10.8" class="st1"/>
			<text x="-0" y="25.31" class="st2" v:langID="1028"><v:paragraph/><v:tabList/>破無常觀</text>		</g>
		<g id="shape4-7" v:mID="4" v:groupContext="shape" transform="translate(52.8312,-1.02097) rotate(0.1)">
			<title>工作表.4</title>
			<desc>二、著成邪見不得道故。</desc>
			<v:textBlock v:margins="rect(0,0,0,0)" v:tabSpace="42.5197"/>
			<v:textRect cx="56.15" cy="22.1968" width="112.31" height="10.8"/>
			<rect x="0" y="16.7968" width="112.3" height="10.8" class="st1"/>
			<text x="-0" y="25.31" class="st2" v:langID="1028"><v:paragraph/><v:tabList/>二、著成邪見不得道故。</text>		</g>
		<g id="shape11-10" v:mID="11" v:groupContext="shape" transform="translate(71.3199,2.905) rotate(90.1)">
			<title>工作表.11</title>
			<path d="M0 19.74 C0 21.91 0.9 23.67 2 23.67 L10.03 23.67 C11.13 23.67 12.05 25.45 12.05 27.6 C12.05 25.45 12.94 23.67
						 14.04 23.67 L22.08 23.67 C23.18 23.67 24.09 21.91 24.09 19.74 L0 19.74 Z" class="st3"/>
			<path d="M0 19.74 C0 21.91 0.9 23.67 2 23.67 L10.03 23.67 C11.13 23.67 12.05 25.45 12.05 27.6 C12.05 25.45 12.94 23.67
						 14.04 23.67 L22.08 23.67 C23.18 23.67 24.09 21.91 24.09 19.74" class="st4"/>
		</g>
	</g>
</svg>
