<?xml version="1.0" encoding="UTF-8" standalone="no"?>
<!DOCTYPE svg PUBLIC "-//W3C//DTD SVG 1.1//EN" "http://www.w3.org/Graphics/SVG/1.1/DTD/svg11.dtd">
<!-- 由 Microsoft Visio, SVG Export 產生 B00607.svg 頁-1 -->
<svg xmlns="http://www.w3.org/2000/svg" xmlns:xlink="http://www.w3.org/1999/xlink" xmlns:ev="http://www.w3.org/2001/xml-events"
		xmlns:v="http://schemas.microsoft.com/visio/2003/SVGExtensions/" width="2.68466in" height="0.888623in"
		viewBox="0 0 193.296 63.9808" xml:space="preserve" color-interpolation-filters="sRGB" class="st5">
	<v:documentProperties v:langID="1028" v:viewMarkup="false"/>

	<style type="text/css">
	<![CDATA[
		.st1 {fill:none;stroke:none;stroke-linecap:butt;stroke-width:0.75}
		.st2 {fill:#000000;font-family:新細明體;font-size:0.833336em}
		.st3 {fill:none}
		.st4 {stroke:#000000;stroke-linecap:round;stroke-linejoin:round;stroke-width:0.5625}
		.st5 {fill:none;fill-rule:evenodd;font-size:12px;overflow:visible;stroke-linecap:square;stroke-miterlimit:3}
	]]>
	</style>

	<g v:mID="0" v:index="1" v:groupContext="foregroundPage">
		<title>頁-1</title>
		<v:pageProperties v:drawingScale="0.0393701" v:pageScale="0.0393701" v:drawingUnits="24" v:shadowOffsetX="9"
				v:shadowOffsetY="-9"/>
		<g id="shape2-1" v:mID="2" v:groupContext="shape" transform="translate(36.5656,-52.3515) rotate(0.1)">
			<title>工作表.2</title>
			<desc>內法</desc>
			<v:textBlock v:margins="rect(0,0,0,0)" v:tabSpace="42.5197"/>
			<v:textRect cx="13.9038" cy="58.5808" width="27.81" height="10.8"/>
			<rect x="0" y="53.1808" width="27.8075" height="10.8" class="st1"/>
			<text x="-0" y="61.7" class="st2" v:langID="1028"><v:paragraph/><v:tabList/>內法</text>		</g>
		<g id="shape3-4" v:mID="3" v:groupContext="shape" transform="translate(36.5361,-34.7732) rotate(0.1)">
			<title>工作表.3</title>
			<desc>外法</desc>
			<v:textBlock v:margins="rect(0,0,0,0)" v:tabSpace="42.5197"/>
			<v:textRect cx="13.9165" cy="58.5808" width="27.84" height="10.8"/>
			<rect x="0" y="53.1808" width="27.8329" height="10.8" class="st1"/>
			<text x="-0" y="61.7" class="st2" v:langID="1028"><v:paragraph/><v:tabList/>外法</text>		</g>
		<g id="shape4-7" v:mID="4" v:groupContext="shape" transform="translate(0.861668,-25.7624) rotate(0.1)">
			<title>工作表.4</title>
			<desc>不於</desc>
			<v:textBlock v:margins="rect(0,0,0,0)" v:tabSpace="42.5197"/>
			<v:textRect cx="21.302" cy="58.5808" width="42.61" height="10.8"/>
			<rect x="0" y="53.1808" width="42.604" height="10.8" class="st1"/>
			<text x="-0" y="61.7" class="st2" v:langID="1028"><v:paragraph/><v:tabList/>不於</text>		</g>
		<g id="shape5-10" v:mID="5" v:groupContext="shape" transform="translate(80.5505,-25.6281) rotate(0.1)">
			<title>工作表.5</title>
			<desc>而觀一切智智無所取</desc>
			<v:textBlock v:margins="rect(0,0,0,0)" v:tabSpace="42.5197"/>
			<v:textRect cx="56.044" cy="58.5808" width="112.09" height="10.8"/>
			<rect x="0" y="53.1808" width="112.088" height="10.8" class="st1"/>
			<text x="-0" y="61.7" class="st2" v:langID="1028"><v:paragraph/><v:tabList/>而觀一切智智（無所取）</text>		</g>
		<g id="shape6-13" v:mID="6" v:groupContext="shape" transform="translate(36.4792,-17.3792) rotate(0.1)">
			<title>工作表.6</title>
			<desc>內外法</desc>
			<v:textBlock v:margins="rect(0,0,0,0)" v:tabSpace="42.5197"/>
			<v:textRect cx="19.6166" cy="58.5808" width="39.24" height="10.8"/>
			<rect x="0" y="53.1808" width="39.2333" height="10.8" class="st1"/>
			<text x="-0" y="61.7" class="st2" v:langID="1028"><v:paragraph/><v:tabList/>內外法</text>		</g>
		<g id="shape7-16" v:mID="7" v:groupContext="shape" transform="translate(36.449,-0.863836) rotate(0.1)">
			<title>工作表.7</title>
			<desc>離法</desc>
			<v:textBlock v:margins="rect(0,0,0,0)" v:tabSpace="42.5197"/>
			<v:textRect cx="13.9604" cy="58.5808" width="27.93" height="10.8"/>
			<rect x="0" y="53.1808" width="27.9209" height="10.8" class="st1"/>
			<text x="-0" y="61.7" class="st2" v:langID="1028"><v:paragraph/><v:tabList/>離法</text>		</g>
		<g id="shape22-19" v:mID="22" v:groupContext="shape" transform="translate(88.6102,6.84428) rotate(90.1)">
			<title>工作表.22</title>
			<path d="M0 54.41 C0 57.06 1.97 59.19 4.38 59.19 L21.84 59.19 C24.25 59.19 26.19 61.36 26.19 63.98 C26.19 61.36 28.16
						 59.19 30.57 59.19 L48.03 59.19 C50.44 59.19 52.38 57.06 52.38 54.41 L0 54.41 Z" class="st3"/>
			<path d="M0 54.41 C0 57.06 1.97 59.19 4.38 59.19 L21.84 59.19 C24.25 59.19 26.19 61.36 26.19 63.98 C26.19 61.36 28.16
						 59.19 30.57 59.19 L48.03 59.19 C50.44 59.19 52.38 57.06 52.38 54.41" class="st4"/>
		</g>
		<g id="shape23-22" v:mID="23" v:groupContext="shape" transform="translate(130.067,6.85569) rotate(90.1)">
			<title>工作表.23</title>
			<path d="M0 63.98 C0 61.14 1.97 58.79 4.38 58.79 L21.87 58.79 C24.25 58.79 26.22 56.47 26.22 53.59 C26.22 56.47 28.19
						 58.79 30.6 58.79 L48.03 58.79 C50.44 58.79 52.38 61.14 52.38 63.98 L0 63.98 Z" class="st3"/>
			<path d="M0 63.98 C0 61.14 1.97 58.79 4.38 58.79 L21.87 58.79 C24.25 58.79 26.22 56.47 26.22 53.59 C26.22 56.47 28.19
						 58.79 30.6 58.79 L48.03 58.79 C50.44 58.79 52.38 61.14 52.38 63.98" class="st4"/>
		</g>
	</g>
</svg>
