<?xml version="1.0" encoding="UTF-8" standalone="no"?>
<!DOCTYPE svg PUBLIC "-//W3C//DTD SVG 1.1//EN" "http://www.w3.org/Graphics/SVG/1.1/DTD/svg11.dtd">
<!-- 由 Microsoft Visio, SVG Export 產生 B00404.svg 頁-1 -->
<svg xmlns="http://www.w3.org/2000/svg" xmlns:xlink="http://www.w3.org/1999/xlink" xmlns:ev="http://www.w3.org/2001/xml-events"
		xmlns:v="http://schemas.microsoft.com/visio/2003/SVGExtensions/" width="5.45069in" height="0.410974in"
		viewBox="0 0 392.449 29.5901" xml:space="preserve" color-interpolation-filters="sRGB" class="st7">
	<v:documentProperties v:langID="1028" v:viewMarkup="false"/>

	<style type="text/css">
	<![CDATA[
		.st1 {fill:none;stroke:none;stroke-linecap:butt;stroke-width:0.75}
		.st2 {fill:#000000;font-family:新細明體;font-size:0.833336em}
		.st3 {fill:#000000;font-family:Times New Roman;font-size:0.833336em}
		.st4 {fill:none}
		.st5 {stroke:#000000;stroke-linecap:round;stroke-linejoin:round;stroke-width:0.5625}
		.st6 {stroke:#000000;stroke-dasharray:0.5625,1.125;stroke-linecap:round;stroke-linejoin:round;stroke-width:0.5625}
		.st7 {fill:none;fill-rule:evenodd;font-size:12px;overflow:visible;stroke-linecap:square;stroke-miterlimit:3}
	]]>
	</style>

	<g v:mID="0" v:index="1" v:groupContext="foregroundPage">
		<title>頁-1</title>
		<v:pageProperties v:drawingScale="0.0393701" v:pageScale="0.0393701" v:drawingUnits="24" v:shadowOffsetX="9"
				v:shadowOffsetY="-9"/>
		<g id="group20-1" transform="translate(0.75,-0.792517)" v:mID="20" v:groupContext="group">
			<title>工作表.20</title>
			<g id="shape2-2" v:mID="2" v:groupContext="shape" transform="translate(67.7489,-16.8145) rotate(0.1)">
				<title>工作表.2</title>
				<desc>緣合會故</desc>
				<v:textBlock v:margins="rect(0,0,0,0)"/>
				<v:textRect cx="29.3118" cy="24.1901" width="58.63" height="10.8"/>
				<rect x="0" y="18.7901" width="58.6235" height="10.8" class="st1"/>
				<text x="8.5" y="27.3" class="st2" v:langID="1028"><v:paragraph/><v:tabList/>緣合會故</text>			</g>
			<g id="shape3-5" v:mID="3" v:groupContext="shape" transform="translate(119.048,-16.7359) rotate(0.1)">
				<title>工作表.3</title>
				<desc>———————</desc>
				<v:textBlock v:margins="rect(0,0,0,0)" v:tabSpace="42.5197"/>
				<v:textRect cx="42.2448" cy="24.1901" width="84.49" height="10.8"/>
				<rect x="0" y="18.7901" width="84.4896" height="10.8" class="st1"/>
				<text x="0" y="27.19" class="st3" v:langID="1028"><v:paragraph/><v:tabList/>———————</text>			</g>
			<g id="shape4-8" v:mID="4" v:groupContext="shape" transform="translate(191.048,-16.6103) rotate(0.1)">
				<title>工作表.4</title>
				<desc>名集生無所從來</desc>
				<v:textBlock v:margins="rect(0,0,0,0)" v:tabSpace="42.5197"/>
				<v:textRect cx="48.7669" cy="24.1901" width="97.54" height="10.8"/>
				<rect x="0" y="18.7901" width="97.5338" height="10.8" class="st1"/>
				<text x="0" y="27.3" class="st2" v:langID="1028"><v:paragraph/><v:tabList/>名集，生無所從來</text>			</g>
			<g id="shape5-11" v:mID="5" v:groupContext="shape" transform="translate(0.0516444,-7.95048) rotate(0.1)">
				<title>工作表.5</title>
				<desc>集散唐增減</desc>
				<v:textBlock v:margins="rect(0,0,0,0)" v:tabSpace="42.5197"/>
				<v:textRect cx="41.2318" cy="24.1901" width="82.47" height="10.8"/>
				<rect x="0" y="18.7901" width="82.4636" height="10.8" class="st1"/>
				<text x="0" y="27.3" class="st2" v:langID="1028"><v:paragraph/><v:tabList/>集散（唐增減）</text>			</g>
			<g id="shape6-14" v:mID="6" v:groupContext="shape" transform="translate(63.0515,-0.753912) rotate(0.1)">
				<title>工作表.6</title>
				<v:textBlock v:margins="rect(0,0,0,0)"/>
				<rect x="0" y="18.7901" width="308.25" height="10.8" class="st1"/>
			</g>
			<g id="shape7-16" v:mID="7" v:groupContext="shape" transform="translate(293.708,-7.66914) rotate(0.1)">
				<title>工作表.7</title>
				<desc>如幻如化但誑惑眼</desc>
				<v:textBlock v:margins="rect(0,0,0,0)" v:tabSpace="42.5197"/>
				<v:textRect cx="48.6371" cy="24.1901" width="97.28" height="10.8"/>
				<rect x="0" y="18.7901" width="97.2742" height="10.8" class="st1"/>
				<text x="0" y="27.3" class="st2" v:langID="1028"><v:paragraph/><v:tabList/>如幻如化，但誑惑眼</text>			</g>
			<g id="shape8-19" v:mID="8" v:groupContext="shape" transform="translate(67.6913,-0.364587) rotate(0.1)">
				<title>工作表.8</title>
				<desc>念念滅故諸緣離故</desc>
				<v:textBlock v:margins="rect(0,0,0,0)"/>
				<v:textRect cx="52.0186" cy="24.1901" width="104.04" height="10.8"/>
				<rect x="0" y="18.7901" width="104.037" height="10.8" class="st1"/>
				<text x="8.5" y="27.3" class="st2" v:langID="1028"><v:paragraph/><v:tabList/>念念滅故，諸緣離故</text>			</g>
			<g id="shape9-22" v:mID="9" v:groupContext="shape" transform="translate(168.715,-0.207507) rotate(0.1)">
				<title>工作表.9</title>
				<desc>——</desc>
				<v:textBlock v:margins="rect(0,0,0,0)" v:tabSpace="42.5197"/>
				<v:textRect cx="19.7745" cy="24.1901" width="39.55" height="10.8"/>
				<rect x="0" y="18.7901" width="39.5489" height="10.8" class="st1"/>
				<text x="-0" y="27.19" class="st3" v:langID="1028"><v:paragraph/><v:tabList/>——</text>			</g>
			<g id="shape10-25" v:mID="10" v:groupContext="shape" transform="translate(191.045,-0.176092) rotate(0.1)">
				<title>工作表.10</title>
				<desc>名散散無所從去</desc>
				<v:textBlock v:margins="rect(0,0,0,0)" v:tabSpace="42.5197"/>
				<v:textRect cx="50.4594" cy="24.1901" width="100.92" height="10.8"/>
				<rect x="0" y="18.7901" width="100.919" height="10.8" class="st1"/>
				<text x="0" y="27.3" class="st2" v:langID="1028"><v:paragraph/><v:tabList/>名散，散無所從去</text>			</g>
			<g id="shape17-28" v:mID="17" v:groupContext="shape" transform="translate(97.5749,1.11363) rotate(90.1)">
				<title>工作表.17</title>
				<path d="M0 22.84 C0 24.69 1.06 26.22 2.38 26.22 L11.83 26.22 C13.11 26.22 14.17 27.75 14.17 29.59 C14.17 27.75 15.23
							 26.22 16.55 26.22 L26 26.22 C27.29 26.22 28.35 24.69 28.35 22.84 L0 22.84 Z" class="st4"/>
				<path d="M0 22.84 C0 24.69 1.06 26.22 2.38 26.22 L11.83 26.22 C13.11 26.22 14.17 27.75 14.17 29.59 C14.17 27.75 15.23
							 26.22 16.55 26.22 L26 26.22 C27.29 26.22 28.35 24.69 28.35 22.84" class="st5"/>
			</g>
			<g id="shape18-31" v:mID="18" v:groupContext="shape" transform="translate(284.053,-19.2801) rotate(23.1986)">
				<title>工作表.18</title>
				<path d="M0 29.59 L21.59 29.59" class="st6"/>
			</g>
			<g id="shape19-34" v:mID="19" v:groupContext="shape" transform="translate(262.376,-4.48947) rotate(-19.2573)">
				<title>工作表.19</title>
				<path d="M0 29.59 L21.3 29.59" class="st6"/>
			</g>
		</g>
	</g>
</svg>
