<?xml version="1.0" encoding="UTF-8" standalone="no"?>
<!DOCTYPE svg PUBLIC "-//W3C//DTD SVG 1.1//EN" "http://www.w3.org/Graphics/SVG/1.1/DTD/svg11.dtd">
<!-- 由 Microsoft Visio, SVG Export 產生 B00702.svg 頁-1 -->
<svg xmlns="http://www.w3.org/2000/svg" xmlns:xlink="http://www.w3.org/1999/xlink" xmlns:ev="http://www.w3.org/2001/xml-events"
		xmlns:v="http://schemas.microsoft.com/visio/2003/SVGExtensions/" width="3.78232in" height="0.415415in"
		viewBox="0 0 272.327 29.9099" xml:space="preserve" color-interpolation-filters="sRGB" class="st6">
	<v:documentProperties v:langID="1028" v:viewMarkup="false"/>

	<style type="text/css">
	<![CDATA[
		.st1 {fill:none;stroke:none;stroke-linecap:butt;stroke-width:0.75}
		.st2 {fill:#000000;font-family:新細明體;font-size:0.833336em}
		.st3 {font-family:Times New Roman;font-size:1em}
		.st4 {fill:none}
		.st5 {stroke:#000000;stroke-linecap:round;stroke-linejoin:round;stroke-width:0.5625}
		.st6 {fill:none;fill-rule:evenodd;font-size:12px;overflow:visible;stroke-linecap:square;stroke-miterlimit:3}
	]]>
	</style>

	<g v:mID="0" v:index="1" v:groupContext="foregroundPage">
		<title>頁-1</title>
		<v:pageProperties v:drawingScale="0.0393701" v:pageScale="0.0393701" v:drawingUnits="24" v:shadowOffsetX="9"
				v:shadowOffsetY="-9"/>
		<g id="shape2-1" v:mID="2" v:groupContext="shape" transform="translate(50.0544,-18.2807) rotate(0.1)">
			<title>工作表.2</title>
			<desc>不取─法畢竟空無所得故……諸法實相無憶念故。</desc>
			<v:textBlock v:margins="rect(0,0,0,0)" v:tabSpace="42.5197"/>
			<v:textRect cx="110.778" cy="24.5099" width="221.56" height="10.8"/>
			<rect x="0" y="19.1099" width="221.556" height="10.8" class="st1"/>
			<text x="0" y="27.62" class="st2" v:langID="1028"><v:paragraph/><v:tabList/>不取<tspan class="st3">─</tspan>法畢竟空無所得故<tspan
						class="st3">……</tspan>諸法實相無憶念故。</text>		</g>
		<g id="shape3-6" v:mID="3" v:groupContext="shape" transform="translate(0.802203,-9.33405) rotate(0.1)">
			<title>工作表.3</title>
			<desc>不取不捨</desc>
			<v:textBlock v:margins="rect(0,0,0,0)" v:tabSpace="42.5197"/>
			<v:textRect cx="20.8628" cy="24.5099" width="41.73" height="10.8"/>
			<rect x="0" y="19.1099" width="41.7256" height="10.8" class="st1"/>
			<text x="0" y="27.62" class="st2" v:langID="1028"><v:paragraph/><v:tabList/>不取不捨</text>		</g>
		<g id="shape4-9" v:mID="4" v:groupContext="shape" transform="translate(49.9968,-1.21295) rotate(0.1)">
			<title>工作表.4</title>
			<desc>不捨─法中皆有助道力故……煩惱虛妄無所捨故。</desc>
			<v:textBlock v:margins="rect(0,0,0,0)" v:tabSpace="42.5197"/>
			<v:textRect cx="110.807" cy="24.5099" width="221.62" height="10.8"/>
			<rect x="0" y="19.1099" width="221.614" height="10.8" class="st1"/>
			<text x="0" y="27.62" class="st2" v:langID="1028"><v:paragraph/><v:tabList/>不捨<tspan class="st3">─</tspan>法中皆有助道力故<tspan
						class="st3">……</tspan>煩惱虛妄無所捨故。</text>		</g>
		<g id="shape11-14" v:mID="11" v:groupContext="shape" transform="translate(73.6406,1.07903) rotate(90.1)">
			<title>工作表.11</title>
			<path d="M0 25.26 C0 26.55 1.05 27.59 2.35 27.59 L11.8 27.59 C13.13 27.59 14.18 28.62 14.18 29.91 C14.18 28.62 15.23
						 27.59 16.52 27.59 L25.98 27.59 C27.3 27.59 28.35 26.55 28.35 25.26 L0 25.26 Z" class="st4"/>
			<path d="M0 25.26 C0 26.55 1.05 27.59 2.35 27.59 L11.8 27.59 C13.13 27.59 14.18 28.62 14.18 29.91 C14.18 28.62 15.23
						 27.59 16.52 27.59 L25.98 27.59 C27.3 27.59 28.35 26.55 28.35 25.26" class="st5"/>
		</g>
	</g>
</svg>
