<?xml version="1.0" encoding="UTF-8" standalone="no"?>
<!DOCTYPE svg PUBLIC "-//W3C//DTD SVG 1.1//EN" "http://www.w3.org/Graphics/SVG/1.1/DTD/svg11.dtd">
<!-- 由 Microsoft Visio, SVG Export 產生 B00603.svg 頁-1 -->
<svg xmlns="http://www.w3.org/2000/svg" xmlns:xlink="http://www.w3.org/1999/xlink" xmlns:ev="http://www.w3.org/2001/xml-events"
		xmlns:v="http://schemas.microsoft.com/visio/2003/SVGExtensions/" width="4.96514in" height="0.781849in"
		viewBox="0 0 357.49 56.2932" xml:space="preserve" color-interpolation-filters="sRGB" class="st8">
	<v:documentProperties v:langID="1028" v:viewMarkup="false"/>

	<style type="text/css">
	<![CDATA[
		.st1 {fill:none;stroke:none;stroke-linecap:butt;stroke-width:0.75}
		.st2 {fill:#000000;font-family:新細明體;font-size:0.833336em}
		.st3 {font-family:Times New Roman;font-size:1em}
		.st4 {fill:#000000;font-family:Times New Roman;font-size:0.833336em}
		.st5 {fill:none}
		.st6 {stroke:#000000;stroke-linecap:round;stroke-linejoin:round;stroke-width:0.5625}
		.st7 {stroke:#000000;stroke-linecap:round;stroke-linejoin:round;stroke-width:0.375}
		.st8 {fill:none;fill-rule:evenodd;font-size:12px;overflow:visible;stroke-linecap:square;stroke-miterlimit:3}
	]]>
	</style>

	<g v:mID="0" v:index="1" v:groupContext="foregroundPage">
		<title>頁-1</title>
		<v:pageProperties v:drawingScale="0.0393701" v:pageScale="0.0393701" v:drawingUnits="24" v:shadowOffsetX="9"
				v:shadowOffsetY="-9"/>
		<g id="group1-1" transform="translate(0.75,-0.826807)" v:mID="1" v:groupContext="group">
			<title>工作表.1</title>
			<g id="shape2-2" v:mID="2" v:groupContext="shape" transform="translate(240.879,-43.8371) rotate(0.1)">
				<title>工作表.2</title>
				<desc>攝受</desc>
				<v:textBlock v:margins="rect(0,0,0,0)" v:tabSpace="42.5197"/>
				<v:textRect cx="17.2013" cy="50.8932" width="34.41" height="10.8"/>
				<rect x="0" y="45.4932" width="34.4026" height="10.8" class="st1"/>
				<text x="0" y="54.01" class="st2" v:langID="1028"><v:paragraph/><v:tabList/>攝受</text>			</g>
			<g id="shape3-5" v:mID="3" v:groupContext="shape" transform="translate(42.8607,-33.6981) rotate(0.1)">
				<title>工作表.3</title>
				<v:textBlock v:margins="rect(0,0,0,0)"/>
				<rect x="0" y="45.4932" width="18" height="10.8" class="st1"/>
			</g>
			<g id="shape4-7" v:mID="4" v:groupContext="shape" transform="translate(240.86,-29.384) rotate(0.1)">
				<title>工作表.4</title>
				<desc>修學</desc>
				<v:textBlock v:margins="rect(0,0,0,0)" v:tabSpace="42.5197"/>
				<v:textRect cx="13.6682" cy="50.8932" width="27.34" height="10.8"/>
				<rect x="0" y="45.4932" width="27.3365" height="10.8" class="st1"/>
				<text x="-0" y="54.01" class="st2" v:langID="1028"><v:paragraph/><v:tabList/>修學</text>			</g>
			<g id="shape5-10" v:mID="5" v:groupContext="shape" transform="translate(294.861,-29.8574) rotate(0.1)">
				<title>工作表.5</title>
				<desc>般若……行</desc>
				<v:textBlock v:margins="rect(0,0,0,0)" v:tabSpace="42.5197"/>
				<v:textRect cx="25.9286" cy="50.8932" width="51.86" height="10.8"/>
				<rect x="0" y="45.4932" width="51.8572" height="10.8" class="st1"/>
				<text x="-0" y="54.01" class="st2" v:langID="1028"><v:paragraph/><v:tabList/>般若<tspan class="st3">……</tspan>行</text>			</g>
			<g id="shape6-14" v:mID="6" v:groupContext="shape" transform="translate(0.0982501,-22.0971) rotate(0.1)">
				<title>工作表.6</title>
				<desc>無方便行我執所纏心便住法而作加行─由此不能</desc>
				<v:textBlock v:margins="rect(0,0,0,0)" v:tabSpace="42.5197"/>
				<v:textRect cx="118.63" cy="50.8932" width="237.26" height="10.8"/>
				<rect x="0" y="45.4932" width="237.259" height="10.8" class="st1"/>
				<text x="0" y="54.01" class="st2" v:langID="1028"><v:paragraph/><v:tabList/>無方便行，我執所纏心便住法，而作加行<tspan class="st3">─</tspan>由此不能</text>			</g>
			<g id="shape7-18" v:mID="7" v:groupContext="shape" transform="translate(240.842,-14.8855) rotate(0.1)">
				<title>工作表.7</title>
				<desc>圓滿</desc>
				<v:textBlock v:margins="rect(0,0,0,0)" v:tabSpace="42.5197"/>
				<v:textRect cx="17.2202" cy="50.8932" width="34.45" height="10.8"/>
				<rect x="0" y="45.4932" width="34.4404" height="10.8" class="st1"/>
				<text x="0" y="54.01" class="st2" v:langID="1028"><v:paragraph/><v:tabList/>圓滿</text>			</g>
			<g id="shape8-21" v:mID="8" v:groupContext="shape" transform="translate(6.82472,-12.7463) rotate(0.1)">
				<title>工作表.8</title>
				<v:textBlock v:margins="rect(0,0,0,0)"/>
				<rect x="0" y="45.4932" width="330.75" height="10.8" class="st1"/>
			</g>
			<g id="shape9-23" v:mID="9" v:groupContext="shape" transform="translate(168.824,-12.4628) rotate(0.1)">
				<title>工作表.9</title>
				<v:textBlock v:margins="rect(0,0,0,0)" v:tabSpace="42.5197"/>
				<rect x="0" y="45.4932" width="9" height="10.8" class="st1"/>
			</g>
			<g id="shape10-25" v:mID="10" v:groupContext="shape" transform="translate(240.798,-0.200352) rotate(0.1)">
				<title>工作表.10</title>
				<desc>成辦</desc>
				<v:textBlock v:margins="rect(0,0,0,0)" v:tabSpace="42.5197"/>
				<v:textRect cx="27.1646" cy="50.8932" width="54.33" height="10.8"/>
				<rect x="0" y="45.4932" width="54.3292" height="10.8" class="st1"/>
				<text x="0" y="54.01" class="st2" v:langID="1028"><v:paragraph/><v:tabList/>成辦</text>			</g>
			<g id="shape11-28" v:mID="11" v:groupContext="shape" transform="translate(262.552,-0.161082) rotate(0.1)">
				<title>工作表.11</title>
				<desc>───</desc>
				<v:textBlock v:margins="rect(0,0,0,0)" v:tabSpace="42.5197"/>
				<v:textRect cx="15.205" cy="50.8932" width="30.41" height="10.8"/>
				<rect x="0" y="45.4932" width="30.4099" height="10.8" class="st1"/>
				<text x="0" y="53.89" class="st4" v:langID="1028"><v:paragraph/><v:tabList/>───</text>			</g>
			<g id="shape12-31" v:mID="12" v:groupContext="shape" transform="translate(294.798,-0.106854) rotate(0.1)">
				<title>工作表.12</title>
				<desc>一切智……果</desc>
				<v:textBlock v:margins="rect(0,0,0,0)" v:tabSpace="42.5197"/>
				<v:textRect cx="30.636" cy="50.8932" width="61.28" height="10.8"/>
				<rect x="0" y="45.4932" width="61.272" height="10.8" class="st1"/>
				<text x="0" y="54.01" class="st2" v:langID="1028"><v:paragraph/><v:tabList/>一切智<tspan class="st3">……</tspan>果</text>			</g>
			<g id="shape13-35" v:mID="13" v:groupContext="shape" transform="translate(289.313,2.09092) rotate(90.1)">
				<title>工作表.13</title>
				<path d="M0 49.88 C0 51.66 2 53.09 4.46 53.09 L22.42 53.09 C24.93 53.09 26.93 54.54 26.93 56.29 C26.93 54.54 28.93
							 53.09 31.39 53.09 L49.34 53.09 C51.86 53.09 53.86 51.66 53.86 49.88 L0 49.88 Z" class="st5"/>
				<path d="M0 49.88 C0 51.66 2 53.09 4.46 53.09 L22.42 53.09 C24.93 53.09 26.93 54.54 26.93 56.29 C26.93 54.54 28.93
							 53.09 31.39 53.09 L49.34 53.09 C51.86 53.09 53.86 51.66 53.86 49.88" class="st6"/>
			</g>
			<g id="shape14-38" v:mID="14" v:groupContext="shape" transform="translate(237.364,-13.8068) rotate(-27.9615)">
				<title>工作表.14</title>
				<path d="M0 56.29 L30.18 56.29" class="st7"/>
			</g>
			<g id="shape15-41" v:mID="15" v:groupContext="shape" transform="translate(290.027,-41.8784) rotate(27.4655)">
				<title>工作表.15</title>
				<path d="M0 56.29 L29.7 56.29" class="st7"/>
			</g>
		</g>
	</g>
</svg>
