<?xml version="1.0" encoding="UTF-8" standalone="no"?>
<!DOCTYPE svg PUBLIC "-//W3C//DTD SVG 1.1//EN" "http://www.w3.org/Graphics/SVG/1.1/DTD/svg11.dtd">
<!-- 由 Microsoft Visio, SVG Export 產生 M042.026=B00405.svg 頁-1 -->
<svg xmlns="http://www.w3.org/2000/svg" xmlns:xlink="http://www.w3.org/1999/xlink" xmlns:ev="http://www.w3.org/2001/xml-events"
		xmlns:v="http://schemas.microsoft.com/visio/2003/SVGExtensions/" width="4.75108in" height="0.432552in"
		viewBox="0 0 342.078 31.1438" xml:space="preserve" color-interpolation-filters="sRGB" class="st6">
	<v:documentProperties v:langID="1028" v:viewMarkup="false"/>

	<style type="text/css">
	<![CDATA[
		.st1 {fill:none;stroke:none;stroke-linecap:butt;stroke-width:0.75}
		.st2 {fill:#000000;font-family:新細明體;font-size:0.833336em}
		.st3 {font-family:Times New Roman;font-size:1em}
		.st4 {fill:none}
		.st5 {stroke:#000000;stroke-linecap:round;stroke-linejoin:round;stroke-width:0.5625}
		.st6 {fill:none;fill-rule:evenodd;font-size:12px;overflow:visible;stroke-linecap:square;stroke-miterlimit:3}
	]]>
	</style>

	<g v:mID="0" v:index="1" v:groupContext="foregroundPage">
		<title>頁-1</title>
		<v:pageProperties v:drawingScale="0.0393701" v:pageScale="0.0393701" v:drawingUnits="24" v:shadowOffsetX="9"
				v:shadowOffsetY="-9"/>
		<g id="shape4-1" v:mID="4" v:groupContext="shape" transform="translate(50.0063,-19.5145) rotate(0.1)">
			<title>工作表.4</title>
			<desc>集不可得——無來處故……生無故……畢竟空故……觀世間滅諦故</desc>
			<v:textBlock v:margins="rect(0,0,0,0)" v:tabSpace="42.5197"/>
			<v:textRect cx="145.261" cy="25.7438" width="290.53" height="10.8"/>
			<rect x="0" y="20.3438" width="290.522" height="10.8" class="st1"/>
			<text x="-0" y="28.86" class="st2" v:langID="1028"><v:paragraph/><v:tabList/>集不可得<tspan class="st3">——</tspan>無來處故<tspan
						class="st3">……</tspan>生無故<tspan class="st3">……</tspan>畢竟空故<tspan class="st3">……</tspan>觀世間滅諦故</text>		</g>
		<g id="shape7-8" v:mID="7" v:groupContext="shape" transform="translate(0.804356,-10.9166) rotate(0.1)">
			<title>工作表.7</title>
			<desc>不得集散</desc>
			<v:textBlock v:margins="rect(0,0,0,0)" v:tabSpace="42.5197"/>
			<v:textRect cx="21.6094" cy="25.7438" width="43.22" height="10.8"/>
			<rect x="0" y="20.3438" width="43.2189" height="10.8" class="st1"/>
			<text x="-0" y="28.86" class="st2" v:langID="1028"><v:paragraph/><v:tabList/>不得集散</text>		</g>
		<g id="shape10-11" v:mID="10" v:groupContext="shape" transform="translate(49.9682,-1.33513) rotate(0.1)">
			<title>工作表.10</title>
			<desc>散不可得——無去處故……滅無故……業不失故……觀世間集諦故</desc>
			<v:textBlock v:margins="rect(0,0,0,0)" v:tabSpace="42.5197"/>
			<v:textRect cx="145.698" cy="25.7438" width="291.4" height="10.8"/>
			<rect x="0" y="20.3438" width="291.396" height="10.8" class="st1"/>
			<text x="0" y="28.86" class="st2" v:langID="1028"><v:paragraph/><v:tabList/>散不可得<tspan class="st3">——</tspan>無去處故<tspan
						class="st3">……</tspan>滅無故<tspan class="st3">……</tspan>業不失故<tspan class="st3">……</tspan>觀世間集諦故</text>		</g>
		<g id="shape19-18" v:mID="19" v:groupContext="shape" transform="translate(73.5811,1.57172) rotate(90.1)">
			<title>工作表.19</title>
			<path d="M0 24.39 C0 26.24 0.98 27.77 2.22 27.77 L11.1 27.77 C12.3 27.77 13.32 29.3 13.32 31.14 C13.32 29.3 14.3 27.77
						 15.54 27.77 L24.43 27.77 C25.62 27.77 26.65 26.24 26.65 24.39 L0 24.39 Z" class="st4"/>
			<path d="M0 24.39 C0 26.24 0.98 27.77 2.22 27.77 L11.1 27.77 C12.3 27.77 13.32 29.3 13.32 31.14 C13.32 29.3 14.3 27.77
						 15.54 27.77 L24.43 27.77 C25.62 27.77 26.65 26.24 26.65 24.39" class="st5"/>
		</g>
	</g>
</svg>
