<?xml version="1.0" encoding="UTF-8" standalone="no"?>
<!DOCTYPE svg PUBLIC "-//W3C//DTD SVG 1.1//EN" "http://www.w3.org/Graphics/SVG/1.1/DTD/svg11.dtd">
<!-- 由 Microsoft Visio, SVG Export 產生 B00703.svg 頁-1 -->
<svg xmlns="http://www.w3.org/2000/svg" xmlns:xlink="http://www.w3.org/1999/xlink" xmlns:ev="http://www.w3.org/2001/xml-events"
		xmlns:v="http://schemas.microsoft.com/visio/2003/SVGExtensions/" width="3.3106in" height="0.861717in"
		viewBox="0 0 238.363 62.0436" xml:space="preserve" color-interpolation-filters="sRGB" class="st6">
	<v:documentProperties v:langID="1028" v:viewMarkup="false"/>

	<style type="text/css">
	<![CDATA[
		.st1 {fill:none;stroke:none;stroke-linecap:butt;stroke-width:0.75}
		.st2 {fill:#000000;font-family:新細明體;font-size:0.833336em}
		.st3 {font-family:Times New Roman;font-size:1em}
		.st4 {fill:none}
		.st5 {stroke:#000000;stroke-linecap:round;stroke-linejoin:round;stroke-width:0.5625}
		.st6 {fill:none;fill-rule:evenodd;font-size:12px;overflow:visible;stroke-linecap:square;stroke-miterlimit:3}
	]]>
	</style>

	<g v:mID="0" v:index="1" v:groupContext="foregroundPage">
		<title>頁-1</title>
		<v:pageProperties v:drawingScale="0.0393701" v:pageScale="0.0393701" v:drawingUnits="24" v:shadowOffsetX="9"
				v:shadowOffsetY="-9"/>
		<g id="shape2-1" v:mID="2" v:groupContext="shape" transform="translate(124.853,-50.4144) rotate(0.1)">
			<title>工作表.2</title>
			<desc>一、一多不相即故。</desc>
			<v:textBlock v:margins="rect(0,0,0,0)" v:tabSpace="42.5197"/>
			<v:textRect cx="45.7951" cy="56.6436" width="91.6" height="10.8"/>
			<rect x="0" y="51.2436" width="91.5903" height="10.8" class="st1"/>
			<text x="0" y="59.76" class="st2" v:langID="1028"><v:paragraph/><v:tabList/>一、一多不相即故。</text>		</g>
		<g id="shape3-4" v:mID="3" v:groupContext="shape" transform="translate(43.8247,-33.7835) rotate(0.1)">
			<title>工作表.3</title>
			<desc>一、破即蘊是我</desc>
			<v:textBlock v:margins="rect(0,0,0,0)" v:tabSpace="42.5197"/>
			<v:textRect cx="38.8285" cy="56.6436" width="77.66" height="10.8"/>
			<rect x="0" y="51.2436" width="77.657" height="10.8" class="st1"/>
			<text x="-0" y="59.76" class="st2" v:langID="1028"><v:paragraph/><v:tabList/>一、破即蘊是我</text>		</g>
		<g id="shape4-7" v:mID="4" v:groupContext="shape" transform="translate(124.825,-33.8994) rotate(0.1)">
			<title>工作表.4</title>
			<desc>二、我如五眾成生滅故。</desc>
			<v:textBlock v:margins="rect(0,0,0,0)" v:tabSpace="42.5197"/>
			<v:textRect cx="55.73" cy="56.6436" width="111.46" height="10.8"/>
			<rect x="0" y="51.2436" width="111.46" height="10.8" class="st1"/>
			<text x="-0" y="59.76" class="st2" v:langID="1028"><v:paragraph/><v:tabList/>二、我如五眾成生滅故。</text>		</g>
		<g id="shape5-10" v:mID="5" v:groupContext="shape" transform="translate(0.858287,-16.3612) rotate(0.1)">
			<title>工作表.5</title>
			<desc>破我─</desc>
			<v:textBlock v:margins="rect(0,0,0,0)" v:tabSpace="42.5197"/>
			<v:textRect cx="17.7927" cy="56.6436" width="35.59" height="10.8"/>
			<rect x="0" y="51.2436" width="35.5855" height="10.8" class="st1"/>
			<text x="0" y="59.76" class="st2" v:langID="1028"><v:paragraph/><v:tabList/>破我<tspan class="st3">─</tspan></text>		</g>
		<g id="shape6-14" v:mID="6" v:groupContext="shape" transform="translate(124.797,-17.4295) rotate(0.1)">
			<title>工作表.6</title>
			<desc>三、我如五眾不自在故。</desc>
			<v:textBlock v:margins="rect(0,0,0,0)" v:tabSpace="42.5197"/>
			<v:textRect cx="56.4532" cy="56.6436" width="112.91" height="10.8"/>
			<rect x="0" y="51.2436" width="112.906" height="10.8" class="st1"/>
			<text x="0" y="59.76" class="st2" v:langID="1028"><v:paragraph/><v:tabList/>三、我如五眾不自在故。</text>		</g>
		<g id="shape7-17" v:mID="7" v:groupContext="shape" transform="translate(43.7672,-1.05583) rotate(0.1)">
			<title>工作表.7</title>
			<desc>二、破離陰是我─無相應無我</desc>
			<v:textBlock v:margins="rect(0,0,0,0)" v:tabSpace="42.5197"/>
			<v:textRect cx="65.0786" cy="56.6436" width="130.16" height="10.8"/>
			<rect x="0" y="51.2436" width="130.157" height="10.8" class="st1"/>
			<text x="0" y="59.76" class="st2" v:langID="1028"><v:paragraph/><v:tabList/>二、破離陰是我<tspan class="st3">─</tspan>無相應無我</text>		</g>
		<g id="shape16-21" v:mID="16" v:groupContext="shape" transform="translate(96.0697,19.9087) rotate(90.1)">
			<title>工作表.16</title>
			<path d="M0 55.31 C0 57.17 1.53 58.68 3.44 58.68 L17.15 58.68 C19.02 58.68 20.55 60.2 20.55 62.04 C20.55 60.2 22.08 58.68
						 24 58.68 L37.7 58.68 C39.58 58.68 41.1 57.17 41.1 55.31 L0 55.31 Z" class="st4"/>
			<path d="M0 55.31 C0 57.17 1.53 58.68 3.44 58.68 L17.15 58.68 C19.02 58.68 20.55 60.2 20.55 62.04 C20.55 60.2 22.08 58.68
						 24 58.68 L37.7 58.68 C39.58 58.68 41.1 57.17 41.1 55.31" class="st5"/>
		</g>
		<g id="shape17-24" v:mID="17" v:groupContext="shape" transform="translate(177.669,2.25954) rotate(90.1)">
			<title>工作表.17</title>
			<path d="M0 55.6 C0 57.38 1.58 58.82 3.52 58.82 L17.7 58.82 C19.68 58.82 21.26 60.26 21.26 62.04 C21.26 60.26 22.84 58.82
						 24.78 58.82 L38.96 58.82 C40.94 58.82 42.52 57.38 42.52 55.6 L0 55.6 Z" class="st4"/>
			<path d="M0 55.6 C0 57.38 1.58 58.82 3.52 58.82 L17.7 58.82 C19.68 58.82 21.26 60.26 21.26 62.04 C21.26 60.26 22.84 58.82
						 24.78 58.82 L38.96 58.82 C40.94 58.82 42.52 57.38 42.52 55.6" class="st5"/>
		</g>
	</g>
</svg>
