<?xml version="1.0" encoding="UTF-8" standalone="no"?>
<!DOCTYPE svg PUBLIC "-//W3C//DTD SVG 1.1//EN" "http://www.w3.org/Graphics/SVG/1.1/DTD/svg11.dtd">
<!-- 由 Microsoft Visio, SVG Export 產生 B00504.svg 頁-1 -->
<svg xmlns="http://www.w3.org/2000/svg" xmlns:xlink="http://www.w3.org/1999/xlink" xmlns:ev="http://www.w3.org/2001/xml-events"
		xmlns:v="http://schemas.microsoft.com/visio/2003/SVGExtensions/" width="6.04352in" height="0.404821in"
		viewBox="0 0 435.133 29.1471" xml:space="preserve" color-interpolation-filters="sRGB" class="st6">
	<v:documentProperties v:langID="1028" v:viewMarkup="false"/>

	<style type="text/css">
	<![CDATA[
		.st1 {fill:none;stroke:none;stroke-linecap:butt;stroke-width:0.75}
		.st2 {fill:#000000;font-family:新細明體;font-size:0.833336em}
		.st3 {fill:#000000;font-family:Times New Roman;font-size:0.833336em}
		.st4 {fill:none}
		.st5 {stroke:#000000;stroke-linecap:round;stroke-linejoin:round;stroke-width:0.5625}
		.st6 {fill:none;fill-rule:evenodd;font-size:12px;overflow:visible;stroke-linecap:square;stroke-miterlimit:3}
	]]>
	</style>

	<g v:mID="0" v:index="1" v:groupContext="foregroundPage">
		<title>頁-1</title>
		<v:pageProperties v:drawingScale="0.0393701" v:pageScale="0.0393701" v:drawingUnits="24" v:shadowOffsetX="9"
				v:shadowOffsetY="-9"/>
		<g id="shape3-1" v:mID="3" v:groupContext="shape" transform="translate(192.341,-17.5179) rotate(0.1)">
			<title>工作表.3</title>
			<desc>秦</desc>
			<v:textBlock v:margins="rect(0,0,0,0)" v:tabSpace="42.5197"/>
			<v:textRect cx="4.5" cy="23.7471" width="9" height="10.8"/>
			<rect x="0" y="18.3471" width="9" height="10.8" class="st1"/>
			<text x="0" y="26.86" class="st2" v:langID="1028"><v:paragraph/><v:tabList/>秦</text>		</g>
		<g id="shape4-4" v:mID="4" v:groupContext="shape" transform="translate(202.961,-17.5021) rotate(0.1)">
			<title>工作表.4</title>
			<desc>——</desc>
			<v:textBlock v:margins="rect(0,0,0,0)" v:tabSpace="42.5197"/>
			<v:textRect cx="20.7408" cy="23.7471" width="41.49" height="10.8"/>
			<rect x="0" y="18.3471" width="41.4815" height="10.8" class="st1"/>
			<text x="0" y="26.75" class="st3" v:langID="1028"><v:paragraph/><v:tabList/>——</text>		</g>
		<g id="shape5-7" v:mID="5" v:groupContext="shape" transform="translate(223.803,-17.4708) rotate(0.1)">
			<title>工作表.5</title>
			<desc>是菩薩必住不退性信畢竟空得其氣分中</desc>
			<v:textBlock v:margins="rect(0,0,0,0)" v:tabSpace="42.5197"/>
			<v:textRect cx="105.307" cy="23.7471" width="210.62" height="10.8"/>
			<rect x="0" y="18.3471" width="210.613" height="10.8" class="st1"/>
			<text x="0" y="26.86" class="st2" v:langID="1028"><v:paragraph/><v:tabList/>是菩薩必住不退性（信畢竟空，得其氣分）中</text>		</g>
		<g id="shape6-10" v:mID="6" v:groupContext="shape" transform="translate(0.800871,-9.22758) rotate(0.1)">
			<title>工作表.6</title>
			<desc>聞般若相義心不驚怖沒悔</desc>
			<v:textBlock v:margins="rect(0,0,0,0)" v:tabSpace="42.5197"/>
			<v:textRect cx="62.7146" cy="23.7471" width="125.43" height="10.8"/>
			<rect x="0" y="18.3471" width="125.429" height="10.8" class="st1"/>
			<text x="0" y="26.86" class="st2" v:langID="1028"><v:paragraph/><v:tabList/>聞般若相義，心不驚怖沒悔</text>		</g>
		<g id="shape7-13" v:mID="7" v:groupContext="shape" transform="translate(121.925,-9.03908) rotate(0.1)">
			<title>工作表.7</title>
			<desc>——</desc>
			<v:textBlock v:margins="rect(0,0,0,0)" v:tabSpace="42.5197"/>
			<v:textRect cx="11.5747" cy="23.7471" width="23.15" height="10.8"/>
			<rect x="0" y="18.3471" width="23.1495" height="10.8" class="st1"/>
			<text x="0" y="26.75" class="st3" v:langID="1028"><v:paragraph/><v:tabList/>——</text>		</g>
		<g id="shape8-16" v:mID="8" v:groupContext="shape" transform="translate(142.813,-9.00767) rotate(0.1)">
			<title>工作表.8</title>
			<desc>二譯不同</desc>
			<v:textBlock v:margins="rect(0,0,0,0)" v:tabSpace="42.5197"/>
			<v:textRect cx="35.8547" cy="23.7471" width="71.71" height="10.8"/>
			<rect x="0" y="18.3471" width="71.7095" height="10.8" class="st1"/>
			<text x="0" y="26.86" class="st2" v:langID="1028"><v:paragraph/><v:tabList/>二譯不同</text>		</g>
		<g id="shape10-19" v:mID="10" v:groupContext="shape" transform="translate(192.283,-1.06809) rotate(0.1)">
			<title>工作表.10</title>
			<desc>唐</desc>
			<v:textBlock v:margins="rect(0,0,0,0)" v:tabSpace="42.5197"/>
			<v:textRect cx="4.5" cy="23.7471" width="9" height="10.8"/>
			<rect x="0" y="18.3471" width="9" height="10.8" class="st1"/>
			<text x="0" y="26.86" class="st2" v:langID="1028"><v:paragraph/><v:tabList/>唐</text>		</g>
		<g id="shape11-22" v:mID="11" v:groupContext="shape" transform="translate(192.283,-1.06809) rotate(0.1)">
			<title>工作表.11</title>
			<desc>唐</desc>
			<v:textBlock v:margins="rect(0,0,0,0)" v:tabSpace="42.5197"/>
			<v:textRect cx="4.5" cy="23.7471" width="9" height="10.8"/>
			<rect x="0" y="18.3471" width="9" height="10.8" class="st1"/>
			<text x="0" y="26.86" class="st2" v:langID="1028"><v:paragraph/><v:tabList/>唐</text>		</g>
		<g id="shape12-25" v:mID="12" v:groupContext="shape" transform="translate(202.903,-1.05231) rotate(0.1)">
			<title>工作表.12</title>
			<desc>——</desc>
			<v:textBlock v:margins="rect(0,0,0,0)" v:tabSpace="42.5197"/>
			<v:textRect cx="23.6051" cy="23.7471" width="47.22" height="10.8"/>
			<rect x="0" y="18.3471" width="47.2102" height="10.8" class="st1"/>
			<text x="0" y="26.75" class="st3" v:langID="1028"><v:paragraph/><v:tabList/>——</text>		</g>
		<g id="shape13-28" v:mID="13" v:groupContext="shape" transform="translate(223.745,-1.02097) rotate(0.1)">
			<title>工作表.13</title>
			<desc>是菩薩決定已住不退轉地</desc>
			<v:textBlock v:margins="rect(0,0,0,0)" v:tabSpace="42.5197"/>
			<v:textRect cx="57.8221" cy="23.7471" width="115.65" height="10.8"/>
			<rect x="0" y="18.3471" width="115.644" height="10.8" class="st1"/>
			<text x="0" y="26.86" class="st2" v:langID="1028"><v:paragraph/><v:tabList/>是菩薩決定已住不退轉地</text>		</g>
		<g id="shape20-31" v:mID="20" v:groupContext="shape" transform="translate(213.745,1.30987) rotate(90.1)">
			<title>工作表.20</title>
			<path d="M0 23.03 C0 24.74 0.98 26.09 2.2 26.09 L10.94 26.09 C12.13 26.09 13.11 27.47 13.11 29.15 C13.11 27.47 14.09
						 26.09 15.31 26.09 L24.05 26.09 C25.24 26.09 26.22 24.74 26.22 23.03 L0 23.03 Z" class="st4"/>
			<path d="M0 23.03 C0 24.74 0.98 26.09 2.2 26.09 L10.94 26.09 C12.13 26.09 13.11 27.47 13.11 29.15 C13.11 27.47 14.09
						 26.09 15.31 26.09 L24.05 26.09 C25.24 26.09 26.22 24.74 26.22 23.03" class="st5"/>
		</g>
	</g>
</svg>
