<?xml version="1.0" encoding="UTF-8" standalone="no"?>
<!DOCTYPE svg PUBLIC "-//W3C//DTD SVG 1.1//EN" "http://www.w3.org/Graphics/SVG/1.1/DTD/svg11.dtd">
<!-- 由 Microsoft Visio, SVG Export 產生 B00502.svg 頁-1 -->
<svg xmlns="http://www.w3.org/2000/svg" xmlns:xlink="http://www.w3.org/1999/xlink" xmlns:ev="http://www.w3.org/2001/xml-events"
		xmlns:v="http://schemas.microsoft.com/visio/2003/SVGExtensions/" width="3.15921in" height="0.634869in"
		viewBox="0 0 227.463 45.7106" xml:space="preserve" color-interpolation-filters="sRGB" class="st6">
	<v:documentProperties v:langID="1028" v:viewMarkup="false"/>

	<style type="text/css">
	<![CDATA[
		.st1 {fill:none;stroke:none;stroke-linecap:butt;stroke-width:0.75}
		.st2 {fill:#000000;font-family:新細明體;font-size:0.833336em}
		.st3 {fill:#000000;font-family:Times New Roman;font-size:0.833336em}
		.st4 {fill:none}
		.st5 {stroke:#000000;stroke-linecap:round;stroke-linejoin:round;stroke-width:0.5625}
		.st6 {fill:none;fill-rule:evenodd;font-size:12px;overflow:visible;stroke-linecap:square;stroke-miterlimit:3}
	]]>
	</style>

	<g v:mID="0" v:index="1" v:groupContext="foregroundPage">
		<title>頁-1</title>
		<v:pageProperties v:drawingScale="0.0393701" v:pageScale="0.0393701" v:drawingUnits="24" v:shadowOffsetX="9"
				v:shadowOffsetY="-9"/>
		<g id="shape2-1" v:mID="2" v:groupContext="shape" transform="translate(45.7527,-34.0813) rotate(0.1)">
			<title>工作表.2</title>
			<desc>肉眼</desc>
			<v:textBlock v:margins="rect(0,0,0,0)"/>
			<v:textRect cx="28.5" cy="40.3106" width="57" height="10.8"/>
			<rect x="0" y="34.9106" width="57" height="10.8" class="st1"/>
			<text x="25.5" y="43.42" class="st2" v:langID="1028"><v:paragraph/><v:tabList/>肉眼</text>		</g>
		<g id="shape3-4" v:mID="3" v:groupContext="shape" transform="translate(92.0411,-34.0028) rotate(0.1)">
			<title>工作表.3</title>
			<desc>——</desc>
			<v:textBlock v:margins="rect(0,0,0,0)" v:tabSpace="42.5197"/>
			<v:textRect cx="26.5345" cy="40.3106" width="53.07" height="10.8"/>
			<rect x="0" y="34.9106" width="53.069" height="10.8" class="st1"/>
			<text x="0" y="43.31" class="st3" v:langID="1028"><v:paragraph/><v:tabList/>——</text>		</g>
		<g id="shape4-7" v:mID="4" v:groupContext="shape" transform="translate(112.296,-33.9714) rotate(0.1)">
			<title>工作表.4</title>
			<desc>見塵合成地謂為實地。</desc>
			<v:textBlock v:margins="rect(0,0,0,0)" v:tabSpace="42.5197"/>
			<v:textRect cx="57.2393" cy="40.3106" width="114.48" height="10.8"/>
			<rect x="0" y="34.9106" width="114.479" height="10.8" class="st1"/>
			<text x="-0" y="43.42" class="st2" v:langID="1028"><v:paragraph/><v:tabList/>見塵合成地，謂為實地。</text>		</g>
		<g id="shape5-10" v:mID="5" v:groupContext="shape" transform="translate(70.8583,-17.6047) rotate(0.1)">
			<title>工作表.5</title>
			<desc>天眼</desc>
			<v:textBlock v:margins="rect(0,0,0,0)"/>
			<v:textRect cx="11.2564" cy="40.3106" width="22.52" height="10.8"/>
			<rect x="0" y="34.9106" width="22.5127" height="10.8" class="st1"/>
			<text x="0" y="43.42" class="st2" v:langID="1028"><v:paragraph/><v:tabList/>天眼</text>		</g>
		<g id="shape6-13" v:mID="6" v:groupContext="shape" transform="translate(92.0123,-17.4881) rotate(0.1)">
			<title>工作表.6</title>
			<desc>——</desc>
			<v:textBlock v:margins="rect(0,0,0,0)" v:tabSpace="42.5197"/>
			<v:textRect cx="29.384" cy="40.3106" width="58.77" height="10.8"/>
			<rect x="0" y="34.9106" width="58.7679" height="10.8" class="st1"/>
			<text x="0" y="43.31" class="st3" v:langID="1028"><v:paragraph/><v:tabList/>——</text>		</g>
		<g id="shape7-16" v:mID="7" v:groupContext="shape" transform="translate(112.267,-17.4567) rotate(0.1)">
			<title>工作表.7</title>
			<desc>散此地但見微塵。</desc>
			<v:textBlock v:margins="rect(0,0,0,0)" v:tabSpace="42.5197"/>
			<v:textRect cx="46.7229" cy="40.3106" width="93.45" height="10.8"/>
			<rect x="0" y="34.9106" width="93.4458" height="10.8" class="st1"/>
			<text x="0" y="43.42" class="st2" v:langID="1028"><v:paragraph/><v:tabList/>散此地，但見微塵。</text>		</g>
		<g id="shape8-19" v:mID="8" v:groupContext="shape" transform="translate(63.6958,-1.06458) rotate(0.1)">
			<title>工作表.8</title>
			<desc>慧眼</desc>
			<v:textBlock v:margins="rect(0,0,0,0)"/>
			<v:textRect cx="25.8906" cy="40.3106" width="51.79" height="10.8"/>
			<rect x="0" y="34.9106" width="51.7812" height="10.8" class="st1"/>
			<text x="8.5" y="43.42" class="st2" v:langID="1028"><v:paragraph/><v:tabList/>慧眼</text>		</g>
		<g id="shape9-22" v:mID="9" v:groupContext="shape" transform="translate(91.9842,-1.01745) rotate(0.1)">
			<title>工作表.9</title>
			<desc>——</desc>
			<v:textBlock v:margins="rect(0,0,0,0)" v:tabSpace="42.5197"/>
			<v:textRect cx="32.2331" cy="40.3106" width="64.47" height="10.8"/>
			<rect x="0" y="34.9106" width="64.4662" height="10.8" class="st1"/>
			<text x="0" y="43.31" class="st3" v:langID="1028"><v:paragraph/><v:tabList/>——</text>		</g>
		<g id="shape10-25" v:mID="10" v:groupContext="shape" transform="translate(112.239,-0.986037) rotate(0.1)">
			<title>工作表.10</title>
			<desc>分別破散都不可得。</desc>
			<v:textBlock v:margins="rect(0,0,0,0)" v:tabSpace="42.5197"/>
			<v:textRect cx="45.2042" cy="40.3106" width="90.41" height="10.8"/>
			<rect x="0" y="34.9106" width="90.4084" height="10.8" class="st1"/>
			<text x="0" y="43.42" class="st2" v:langID="1028"><v:paragraph/><v:tabList/>分別破散都不可得。</text>		</g>
		<g id="shape17-28" v:mID="17" v:groupContext="shape" transform="translate(109.07,1.71195) rotate(90.1)">
			<title>工作表.17</title>
			<path d="M0 38.96 C0 40.85 1.59 42.34 3.52 42.34 L17.69 42.34 C19.67 42.34 21.26 43.87 21.26 45.71 C21.26 43.87 22.85
						 42.34 24.78 42.34 L38.95 42.34 C40.93 42.34 42.52 40.85 42.52 38.96 L0 38.96 Z" class="st4"/>
			<path d="M0 38.96 C0 40.85 1.59 42.34 3.52 42.34 L17.69 42.34 C19.67 42.34 21.26 43.87 21.26 45.71 C21.26 43.87 22.85
						 42.34 24.78 42.34 L38.95 42.34 C40.93 42.34 42.52 40.85 42.52 38.96" class="st5"/>
		</g>
		<g id="shape18-31" v:mID="18" v:groupContext="shape" transform="translate(0.75,-16.2859)">
			<title>工作表.18</title>
			<desc>三眼觀地不同</desc>
			<v:textBlock v:margins="rect(0,0,0,0)"/>
			<v:textRect cx="32.2425" cy="40.3106" width="64.49" height="10.8"/>
			<rect x="0" y="34.9106" width="64.485" height="10.8" class="st1"/>
			<text x="0" y="43.42" class="st2" v:langID="1028"><v:paragraph/><v:tabList/>三眼觀地不同</text>		</g>
	</g>
</svg>
