<?xml version="1.0" encoding="UTF-8" standalone="no"?>
<!DOCTYPE svg PUBLIC "-//W3C//DTD SVG 1.1//EN" "http://www.w3.org/Graphics/SVG/1.1/DTD/svg11.dtd">
<!-- 由 Microsoft Visio, SVG Export 產生 M042.131.svg 頁-1 -->
<svg xmlns="http://www.w3.org/2000/svg" xmlns:xlink="http://www.w3.org/1999/xlink" xmlns:ev="http://www.w3.org/2001/xml-events"
		width="9.1757in" height="3.78541in" viewBox="0 0 660.651 272.549" xml:space="preserve" color-interpolation-filters="sRGB"
		class="st8">
	<style type="text/css">
	<![CDATA[
		.st1 {fill:none;stroke:none;stroke-linecap:butt;stroke-width:2.90736}
		.st2 {fill:none;stroke:none;stroke-linecap:butt;stroke-width:0.75}
		.st3 {fill:#000000;font-family:微軟正黑體;font-size:2.42281em}
		.st4 {fill:none}
		.st5 {stroke:#000000;stroke-linecap:round;stroke-linejoin:round;stroke-width:1.63539}
		.st6 {stroke:#000000;stroke-dasharray:2.72565,5.45131;stroke-linecap:round;stroke-linejoin:round;stroke-width:2.72565}
		.st7 {stroke:#000000;stroke-dasharray:0,3.75;stroke-linecap:round;stroke-linejoin:round;stroke-width:1.25}
		.st8 {fill:none;fill-rule:evenodd;font-size:12px;overflow:visible;stroke-linecap:square;stroke-miterlimit:3}
	]]>
	</style>

	<g>
		<title>頁-1</title>
		<g id="group50-1" transform="translate(2.90134,-1.97052)">
			<title>工作表.50</title>
			<g id="group1-2">
				<title>頁-1</title>
				<g id="group2-3" transform="translate(103.839,-232.164) rotate(0.1)">
					<title>工作表.2</title>
					<desc>內得</desc>
					<g id="shape3-4" transform="translate(0,-2.10202)">
						<title>工作表.3</title>
						<rect x="0" y="241.15" width="161.639" height="31.3995" class="st1"/>
					</g>
					<g id="shape4-6" transform="translate(0.0266266,-6.82121E-13)">
						<title>工作表.4</title>
						<desc>內得</desc>
						<rect x="0" y="237.661" width="62.6508" height="34.8884" class="st2"/>
						<text x="0" y="264.82" class="st3">內得</text>					</g>
				</g>
				<g id="group5-9" transform="translate(103.751,-184.274) rotate(0.1)">
					<title>工作表.3</title>
					<desc>外得</desc>
					<g id="shape6-10" transform="translate(0,-2.10202)">
						<title>工作表.6</title>
						<rect x="0" y="241.15" width="72.9882" height="31.3995" class="st1"/>
					</g>
					<g id="shape7-12" transform="translate(0.0266266,-6.82121E-13)">
						<title>工作表.7</title>
						<desc>外得</desc>
						<rect x="0" y="237.661" width="62.6508" height="34.8884" class="st2"/>
						<text x="0" y="264.82" class="st3">外得</text>					</g>
				</g>
				<g id="group8-15" transform="translate(0.478046,-157.6) rotate(0.1)">
					<title>工作表.4</title>
					<desc>不以</desc>
					<g id="shape9-16" transform="translate(0,-2.10202)">
						<title>工作表.9</title>
						<rect x="0" y="241.15" width="80.5063" height="31.3995" class="st1"/>
					</g>
					<g id="shape10-18" transform="translate(0.0263133,-6.82121E-13)">
						<title>工作表.10</title>
						<desc>不以</desc>
						<rect x="0" y="237.661" width="62.6508" height="34.8884" class="st2"/>
						<text x="-0" y="264.82" class="st3">不以</text>					</g>
				</g>
				<g id="group11-21" transform="translate(33.1488,-121.857) rotate(0.1)">
					<title>工作表.5</title>
					<g id="shape12-22">
						<title>工作表.12</title>
						<rect x="0" y="241.15" width="56.3857" height="31.3995" class="st1"/>
					</g>
				</g>
				<g id="group13-24" transform="translate(242.704,-161.447) rotate(0.1)">
					<title>工作表.6</title>
					<desc>現觀而觀一切智智無能取</desc>
					<g id="shape14-25" transform="translate(0,-2.10202)">
						<title>工作表.14</title>
						<rect x="0" y="241.15" width="412.556" height="31.3995" class="st1"/>
					</g>
					<g id="shape15-27" transform="translate(0.0266266,-6.82121E-13)">
						<title>工作表.15</title>
						<desc>現觀而觀一切智智無能取</desc>
						<rect x="0" y="237.661" width="407.23" height="34.8884" class="st2"/>
						<text x="-0" y="264.82" class="st3">現觀而觀一切智智（無能取）</text>					</g>
				</g>
				<g id="group16-30" transform="translate(103.57,-139.511) rotate(0.1)">
					<title>工作表.7</title>
					<desc>內外得</desc>
					<g id="shape17-31" transform="translate(0,-2.10202)">
						<title>工作表.17</title>
						<rect x="0" y="241.15" width="161.952" height="31.3995" class="st1"/>
					</g>
					<g id="shape18-33" transform="translate(0.0266266,-6.82121E-13)">
						<title>工作表.18</title>
						<desc>內外得</desc>
						<rect x="0" y="237.661" width="93.9762" height="34.8884" class="st2"/>
						<text x="0" y="264.82" class="st3">內外得</text>					</g>
				</g>
				<g id="group19-36" transform="translate(103.486,-95.1596) rotate(0.1)">
					<title>工作表.8</title>
					<desc>無智得</desc>
					<g id="shape20-37" transform="translate(0,-2.10202)">
						<title>工作表.20</title>
						<rect x="0" y="241.15" width="162.266" height="31.3995" class="st1"/>
					</g>
					<g id="shape21-39" transform="translate(0.0266266,-6.82121E-13)">
						<title>工作表.21</title>
						<desc>無智得</desc>
						<rect x="0" y="237.661" width="93.9762" height="34.8884" class="st2"/>
						<text x="0" y="264.82" class="st3">無智得</text>					</g>
				</g>
				<g id="group22-42" transform="translate(103.396,-48.1729) rotate(0.1)">
					<title>工作表.9</title>
					<desc>餘得</desc>
					<g id="shape23-43" transform="translate(0,-2.10231)">
						<title>工作表.23</title>
						<rect x="0" y="241.15" width="122.169" height="31.3995" class="st1"/>
					</g>
					<g id="shape24-45" transform="translate(0.0266266,-6.82121E-13)">
						<title>工作表.24</title>
						<desc>餘得</desc>
						<rect x="0" y="237.661" width="62.6508" height="34.8884" class="st2"/>
						<text x="-0" y="264.82" class="st3">餘得</text>					</g>
				</g>
				<g id="group25-48" transform="translate(103.308,-0.805657) rotate(0.1)">
					<title>工作表.10</title>
					<desc>不得</desc>
					<g id="shape26-49" transform="translate(0,-2.10231)">
						<title>工作表.26</title>
						<rect x="0" y="241.15" width="149.109" height="31.3995" class="st1"/>
					</g>
					<g id="shape27-51" transform="translate(0.0266266,6.25278E-13)">
						<title>工作表.27</title>
						<desc>不得</desc>
						<rect x="0" y="237.661" width="62.6508" height="34.8884" class="st2"/>
						<text x="0" y="264.82" class="st3">不得</text>					</g>
				</g>
				<g id="group28-54" transform="translate(220.297,-0.126084) rotate(0.1)">
					<title>工作表.11</title>
					<desc>唐增</desc>
					<g id="shape29-55" transform="translate(0,-2.10231)">
						<title>工作表.29</title>
						<rect x="0" y="241.15" width="75.181" height="31.3995" class="st1"/>
					</g>
					<g id="shape30-57" transform="translate(0.0266266,6.25278E-13)">
						<title>工作表.30</title>
						<desc>唐增</desc>
						<rect x="0" y="237.661" width="62.6508" height="34.8884" class="st2"/>
						<text x="0" y="264.82" class="st3">唐增</text>					</g>
				</g>
				<g id="group31-60" transform="translate(346.575,5.31095) rotate(90.1)">
					<title>工作表.24</title>
					<g id="shape32-61">
						<title>工作表.32</title>
						<path d="M0 248.13 C0 254.81 6.58 260.34 14.72 260.34 L73.93 260.34 C82.07 260.34 88.65 265.86 88.65 272.55
									 C88.65 265.86 95.23 260.34 103.37 260.34 L162.58 260.34 C170.72 260.34 177.3 254.81 177.3 248.13
									 L0 248.13 Z" class="st1"/>
					</g>
					<g id="shape33-63">
						<title>工作表.33</title>
						<path d="M0 248.13 C0 254.81 6.58 260.34 14.72 260.34 L73.93 260.34 C82.07 260.34 88.65 265.86 88.65 272.55
									 C88.65 265.86 95.23 260.34 103.37 260.34 L162.58 260.34 C170.72 260.34 177.3 254.81 177.3 248.13
									 L0 248.13 Z" class="st4"/>
						<path d="M0 248.13 C0 254.81 6.58 260.34 14.72 260.34 L73.93 260.34 C82.07 260.34 88.65 265.86 88.65 272.55
									 C88.65 265.86 95.23 260.34 103.37 260.34 L162.58 260.34 C170.72 260.34 177.3 254.81 177.3 248.13"
								class="st5"/>
					</g>
				</g>
				<g id="group34-66" transform="translate(-46.6346,53.0562) rotate(-66.3706)">
					<title>工作表.25</title>
					<g id="shape35-67">
						<title>工作表.35</title>
						<path d="M0 272.55 L77.69 272.55 L0 272.55 Z" class="st4"/>
						<path d="M0 272.55 L77.69 272.55" class="st5"/>
					</g>
				</g>
				<g id="group36-70" transform="translate(44.5725,-106.651) rotate(-35.5377)">
					<title>工作表.26</title>
					<g id="shape37-71">
						<title>工作表.37</title>
						<path d="M0 272.55 L38.22 272.55 L0 272.55 Z" class="st4"/>
						<path d="M0 272.55 L38.22 272.55" class="st5"/>
					</g>
				</g>
				<g id="group38-74" transform="translate(279.254,-182.406) rotate(23.1986)">
					<title>工作表.27</title>
					<g id="shape39-75">
						<title>工作表.39</title>
						<path d="M0 272.55 L67.66 272.55 L0 272.55 Z" class="st4"/>
						<path d="M0 272.55 L67.66 272.55" class="st5"/>
					</g>
				</g>
				<g id="group40-78" transform="translate(385.818,-149.517) rotate(50.9485)">
					<title>工作表.28</title>
					<g id="shape41-79">
						<title>工作表.41</title>
						<path d="M0 272.55 L95.23 272.55 L0 272.55 Z" class="st4"/>
						<path d="M0 272.55 L95.23 272.55" class="st5"/>
					</g>
				</g>
				<g id="group42-82" transform="translate(418.189,89.0555) rotate(63.5349)">
					<title>工作表.29</title>
					<g id="shape43-83">
						<title>工作表.43</title>
						<path d="M0 272.55 L47.3 272.55 L0 272.55 Z" class="st4"/>
						<path d="M0 272.55 L47.3 272.55" class="st6"/>
					</g>
				</g>
				<g id="group44-86" transform="translate(174.717,-21.2829) rotate(0.1)">
					<title>工作表.30</title>
					<g id="shape45-87">
						<title>工作表.45</title>
						<path d="M0 272.55 L42.29 272.55 L0 272.55 Z" class="st4"/>
						<path d="M0 272.55 L42.29 272.55" class="st6"/>
					</g>
				</g>
			</g>
			<g id="shape46-90" transform="translate(90.0967,-66.3755)">
				<title>左括弧​​</title>
				<path d="M5.62 272.55 A41.8393 44.755 0 0 1 0 248.48 A41.8393 44.755 0 0 1 5.62 224.41" class="st7"/>
			</g>
			<g id="shape48-93" transform="translate(90.6592,-17.5575)">
				<title>左括弧​​.48</title>
				<path d="M5.62 272.55 A41.8393 44.755 0 0 1 0 248.48 A41.8393 44.755 0 0 1 5.62 224.41" class="st7"/>
			</g>
		</g>
	</g>
</svg>
