<?xml version="1.0" encoding="UTF-8" standalone="no"?>
<!DOCTYPE svg PUBLIC "-//W3C//DTD SVG 1.1//EN" "http://www.w3.org/Graphics/SVG/1.1/DTD/svg11.dtd">
<!-- 由 Microsoft Visio, SVG Export 產生 B00408-2.svg 頁-1 -->
<svg xmlns="http://www.w3.org/2000/svg" xmlns:xlink="http://www.w3.org/1999/xlink" xmlns:ev="http://www.w3.org/2001/xml-events"
		xmlns:v="http://schemas.microsoft.com/visio/2003/SVGExtensions/" width="1.45303in" height="0.424378in"
		viewBox="0 0 104.618 30.5552" xml:space="preserve" color-interpolation-filters="sRGB" class="st5">
	<v:documentProperties v:langID="1028" v:metric="true" v:viewMarkup="false"/>

	<style type="text/css">
	<![CDATA[
		.st1 {fill:none;stroke:none;stroke-linecap:butt;stroke-width:0.75}
		.st2 {fill:#000000;font-family:新細明體;font-size:0.833336em}
		.st3 {fill:none}
		.st4 {stroke:#000000;stroke-linecap:round;stroke-linejoin:round;stroke-width:0.5625}
		.st5 {fill:none;fill-rule:evenodd;font-size:12px;overflow:visible;stroke-linecap:square;stroke-miterlimit:3}
	]]>
	</style>

	<g v:mID="0" v:index="1" v:groupContext="foregroundPage">
		<title>頁-1</title>
		<v:pageProperties v:drawingScale="0.0393701" v:pageScale="0.0393701" v:drawingUnits="24" v:shadowOffsetX="9"
				v:shadowOffsetY="-9"/>
		<g id="group33-1" transform="translate(0.75,-0.75)" v:mID="33" v:groupContext="group">
			<title>工作表.33</title>
			<g id="shape6-2" v:mID="6" v:groupContext="shape" transform="translate(31.6165,-18.2552) rotate(0.1)">
				<title>工作表.6</title>
				<desc>諸法離名字</desc>
				<v:textBlock v:margins="rect(0,0,0,0)" v:tabSpace="42.5197"/>
				<v:textRect cx="35.7682" cy="25.1552" width="71.54" height="10.8"/>
				<rect x="0" y="19.7552" width="71.5365" height="10.8" class="st1"/>
				<text x="0" y="28.16" class="st2" v:langID="1028"><v:paragraph/><v:tabList/>諸法離名字</text>			</g>
			<g id="shape10-5" v:mID="10" v:groupContext="shape" transform="translate(0.0533289,-9.45319) rotate(0.1)">
				<title>工作表.10</title>
				<desc>二離</desc>
				<v:textBlock v:margins="rect(0,0,0,0)" v:tabSpace="42.5197"/>
				<v:textRect cx="21.1769" cy="25.1552" width="42.36" height="10.8"/>
				<rect x="0" y="19.7552" width="42.3539" height="10.8" class="st1"/>
				<text x="0" y="28.16" class="st2" v:langID="1028"><v:paragraph/><v:tabList/>二離</text>			</g>
			<g id="shape17-8" v:mID="17" v:groupContext="shape" transform="translate(31.5799,-0.119921) rotate(0.1)">
				<title>工作表.17</title>
				<desc>諸法離自相</desc>
				<v:textBlock v:margins="rect(0,0,0,0)" v:tabSpace="42.5197"/>
				<v:textRect cx="34.3682" cy="25.1552" width="68.74" height="10.8"/>
				<rect x="0" y="19.7552" width="68.7364" height="10.8" class="st1"/>
				<text x="0" y="28.16" class="st2" v:langID="1028"><v:paragraph/><v:tabList/>諸法離自相</text>			</g>
			<g id="shape29-11" v:mID="29" v:groupContext="shape" transform="translate(53.0879,2.35624) rotate(90.1)">
				<title>工作表.29</title>
				<path d="M0 23.81 C0 25.7 1.03 27.18 2.33 27.18 L11.66 27.18 C12.96 27.18 13.99 28.71 13.99 30.56 C13.99 28.71 15.01
							 27.18 16.32 27.18 L25.64 27.18 C26.95 27.18 27.97 25.7 27.97 23.81 L0 23.81 Z" class="st3"/>
				<path d="M0 23.81 C0 25.7 1.03 27.18 2.33 27.18 L11.66 27.18 C12.96 27.18 13.99 28.71 13.99 30.56 C13.99 28.71 15.01
							 27.18 16.32 27.18 L25.64 27.18 C26.95 27.18 27.97 25.7 27.97 23.81" class="st4"/>
			</g>
		</g>
	</g>
</svg>
