<?xml version="1.0" encoding="UTF-8" standalone="no"?>
<!DOCTYPE svg PUBLIC "-//W3C//DTD SVG 1.1//EN" "http://www.w3.org/Graphics/SVG/1.1/DTD/svg11.dtd">
<!-- 由 Microsoft Visio, SVG Export 產生 B00605.svg 頁-1 -->
<svg xmlns="http://www.w3.org/2000/svg" xmlns:xlink="http://www.w3.org/1999/xlink" xmlns:ev="http://www.w3.org/2001/xml-events"
		xmlns:v="http://schemas.microsoft.com/visio/2003/SVGExtensions/" width="6.71485in" height="0.919956in"
		viewBox="0 0 483.469 66.2368" xml:space="preserve" color-interpolation-filters="sRGB" class="st6">
	<v:documentProperties v:langID="1028" v:viewMarkup="false"/>

	<style type="text/css">
	<![CDATA[
		.st1 {fill:none;stroke:none;stroke-linecap:butt;stroke-width:0.75}
		.st2 {fill:#000000;font-family:新細明體;font-size:0.833336em}
		.st3 {fill:none}
		.st4 {stroke:#000000;stroke-linecap:round;stroke-linejoin:round;stroke-width:0.5625}
		.st5 {stroke:#000000;stroke-dasharray:0.5625,1.125;stroke-linecap:round;stroke-linejoin:round;stroke-width:0.5625}
		.st6 {fill:none;fill-rule:evenodd;font-size:12px;overflow:visible;stroke-linecap:square;stroke-miterlimit:3}
	]]>
	</style>

	<g v:mID="0" v:index="1" v:groupContext="foregroundPage">
		<title>頁-1</title>
		<v:pageProperties v:drawingScale="0.0393701" v:pageScale="0.0393701" v:drawingUnits="24" v:shadowOffsetX="9"
				v:shadowOffsetY="-9"/>
		<g id="shape2-1" v:mID="2" v:groupContext="shape" transform="translate(75.4665,-54.6076) rotate(0.1)">
			<title>工作表.2</title>
			<desc>一、小乘雖有無廣大用</desc>
			<v:textBlock v:margins="rect(0,0,0,0)"/>
			<v:textRect cx="65.4862" cy="60.8368" width="130.98" height="10.8"/>
			<rect x="0" y="55.4368" width="130.972" height="10.8" class="st1"/>
			<text x="17" y="63.95" class="st2" v:langID="1028"><v:paragraph/><v:tabList/>一、小乘雖有，無廣大用</text>		</g>
		<g id="shape3-4" v:mID="3" v:groupContext="shape" transform="translate(92.9475,-38.3059) rotate(0.1)">
			<title>工作表.3</title>
			<desc>二、小乘漏盡時得諸法不受菩薩本來知法不受</desc>
			<v:textBlock v:margins="rect(0,0,0,0)" v:tabSpace="42.5197"/>
			<v:textRect cx="106.21" cy="60.8368" width="212.43" height="10.8"/>
			<rect x="0" y="55.4368" width="212.421" height="10.8" class="st1"/>
			<text x="0" y="63.95" class="st2" v:langID="1028"><v:paragraph/><v:tabList/>二、小乘漏盡時得諸法不受，菩薩本來知法不受</text>		</g>
		<g id="shape4-7" v:mID="4" v:groupContext="shape" transform="translate(333.29,-37.9211) rotate(0.1)">
			<title>工作表.4</title>
			<desc>故說菩薩無受三昧不共二乘。</desc>
			<v:textBlock v:margins="rect(0,0,0,0)" v:tabSpace="42.5197"/>
			<v:textRect cx="74.7633" cy="60.8368" width="149.53" height="10.8"/>
			<rect x="0" y="55.4368" width="149.527" height="10.8" class="st1"/>
			<text x="0" y="63.95" class="st2" v:langID="1028"><v:paragraph/><v:tabList/>故說菩薩無受三昧，不共二乘。</text>		</g>
		<g id="shape5-10" v:mID="5" v:groupContext="shape" transform="translate(0.865605,-28.7795) rotate(0.1)">
			<title>工作表.5</title>
			<desc>大小無受三昧之別</desc>
			<v:textBlock v:margins="rect(0,0,0,0)" v:tabSpace="42.5197"/>
			<v:textRect cx="41.1324" cy="60.8368" width="82.27" height="10.8"/>
			<rect x="0" y="55.4368" width="82.2648" height="10.8" class="st1"/>
			<text x="0" y="63.95" class="st2" v:langID="1028"><v:paragraph/><v:tabList/>大小無受三昧之別</text>		</g>
		<g id="shape6-13" v:mID="6" v:groupContext="shape" transform="translate(92.9102,-21.4523) rotate(0.1)">
			<title>工作表.6</title>
			<desc>三、小乘有習有障有而不淨</desc>
			<v:textBlock v:margins="rect(0,0,0,0)" v:tabSpace="42.5197"/>
			<v:textRect cx="68.1023" cy="60.8368" width="136.21" height="10.8"/>
			<rect x="0" y="55.4368" width="136.205" height="10.8" class="st1"/>
			<text x="0" y="63.95" class="st2" v:langID="1028"><v:paragraph/><v:tabList/>三、小乘有習有障，有而不淨</text>		</g>
		<g id="shape7-16" v:mID="7" v:groupContext="shape" transform="translate(2.88224,-0.977664) rotate(0.1)">
			<title>工作表.7</title>
			<v:textBlock v:margins="rect(0,0,0,0)"/>
			<rect x="0" y="55.4368" width="130.5" height="10.8" class="st1"/>
		</g>
		<g id="shape8-18" v:mID="8" v:groupContext="shape" transform="translate(92.8835,-5.46354) rotate(0.1)">
			<title>工作表.8</title>
			<desc>四、菩薩雖不能遍勝於二乘</desc>
			<v:textBlock v:margins="rect(0,0,0,0)" v:tabSpace="42.5197"/>
			<v:textRect cx="67.4077" cy="60.8368" width="134.82" height="10.8"/>
			<rect x="0" y="55.4368" width="134.815" height="10.8" class="st1"/>
			<text x="0" y="63.95" class="st2" v:langID="1028"><v:paragraph/><v:tabList/>四、菩薩雖不能遍，勝於二乘</text>		</g>
		<g id="shape17-21" v:mID="17" v:groupContext="shape" transform="translate(149.312,3.14414) rotate(90.1)">
			<title>工作表.17</title>
			<path d="M0 58.69 C0 60.77 2.16 62.46 4.83 62.46 L24.14 62.46 C26.8 62.46 28.97 64.17 28.97 66.24 C28.97 64.17 31.13
						 62.46 33.79 62.46 L53.1 62.46 C55.77 62.46 57.93 60.77 57.93 58.69 L0 58.69 Z" class="st3"/>
			<path d="M0 58.69 C0 60.77 2.16 62.46 4.83 62.46 L24.14 62.46 C26.8 62.46 28.97 64.17 28.97 66.24 C28.97 64.17 31.13
						 62.46 33.79 62.46 L53.1 62.46 C55.77 62.46 57.93 60.77 57.93 58.69" class="st4"/>
		</g>
		<g id="shape18-24" v:mID="18" v:groupContext="shape" transform="translate(250.057,10.4304) rotate(-47.3061)">
			<title>工作表.18</title>
			<path d="M0 66.24 L44.56 66.24" class="st5"/>
		</g>
		<g id="shape19-27" v:mID="19" v:groupContext="shape" transform="translate(328.624,-52.3437) rotate(27.6312)">
			<title>工作表.19</title>
			<path d="M0 66.24 L35.05 66.24" class="st5"/>
		</g>
		<g id="shape20-30" v:mID="20" v:groupContext="shape" transform="translate(227.709,-11.0166) rotate(0.1)">
			<title>工作表.20</title>
			<path d="M0 66.24 L71.15 66.24" class="st5"/>
		</g>
		<g id="shape21-33" v:mID="21" v:groupContext="shape" transform="translate(206.437,-59.8913)">
			<title>工作表.21</title>
			<path d="M0 66.24 L92.44 66.24" class="st5"/>
		</g>
		<g id="shape22-36" v:mID="22" v:groupContext="shape" transform="translate(306.963,-43.6438)">
			<title>工作表.22</title>
			<path d="M0 66.24 L21.99 66.24" class="st5"/>
		</g>
	</g>
</svg>
