<?xml version="1.0" encoding="UTF-8" standalone="no"?>
<!DOCTYPE svg PUBLIC "-//W3C//DTD SVG 1.1//EN" "http://www.w3.org/Graphics/SVG/1.1/DTD/svg11.dtd">
<!-- 由 Microsoft Visio, SVG Export 產生 B00907.svg 頁-1 -->
<svg xmlns="http://www.w3.org/2000/svg" xmlns:xlink="http://www.w3.org/1999/xlink" xmlns:ev="http://www.w3.org/2001/xml-events"
		xmlns:v="http://schemas.microsoft.com/visio/2003/SVGExtensions/" width="5.28582in" height="0.595871in"
		viewBox="0 0 380.579 42.9027" xml:space="preserve" color-interpolation-filters="sRGB" class="st5">
	<v:documentProperties v:langID="1028" v:viewMarkup="false"/>

	<style type="text/css">
	<![CDATA[
		.st1 {fill:none;stroke:none;stroke-linecap:butt;stroke-width:0.75}
		.st2 {fill:#000000;font-family:新細明體;font-size:0.833336em}
		.st3 {fill:none}
		.st4 {stroke:#000000;stroke-linecap:round;stroke-linejoin:round;stroke-width:0.5625}
		.st5 {fill:none;fill-rule:evenodd;font-size:12px;overflow:visible;stroke-linecap:square;stroke-miterlimit:3}
	]]>
	</style>

	<g v:mID="0" v:index="1" v:groupContext="foregroundPage">
		<title>頁-1</title>
		<v:pageProperties v:drawingScale="0.0393701" v:pageScale="0.0393701" v:drawingUnits="24" v:shadowOffsetX="9"
				v:shadowOffsetY="-9"/>
		<g id="shape2-1" v:mID="2" v:groupContext="shape" transform="translate(31.2932,-31.2734) rotate(0.1)">
			<title>工作表.2</title>
			<desc>或說空是</desc>
			<v:textBlock v:margins="rect(0,0,0,0)" v:tabSpace="42.5197"/>
			<v:textRect cx="24.0634" cy="37.5027" width="48.13" height="10.8"/>
			<rect x="0" y="32.1027" width="48.1268" height="10.8" class="st1"/>
			<text x="-0" y="40.62" class="st2" v:langID="1028"><v:paragraph/><v:tabList/>或說空是</text>		</g>
		<g id="shape3-4" v:mID="3" v:groupContext="shape" transform="translate(0.824879,-16.1389) rotate(0.1)">
			<title>工作表.3</title>
			<desc>般若</desc>
			<v:textBlock v:margins="rect(0,0,0,0)" v:tabSpace="42.5197"/>
			<v:textRect cx="10.3887" cy="37.5027" width="20.78" height="10.8"/>
			<rect x="0" y="32.1027" width="20.7775" height="10.8" class="st1"/>
			<text x="-0" y="40.62" class="st2" v:langID="1028"><v:paragraph/><v:tabList/>般若</text>		</g>
		<g id="shape4-7" v:mID="4" v:groupContext="shape" transform="translate(31.1499,-15.6036) rotate(0.1)">
			<title>工作表.4</title>
			<desc>或說空亦空是</desc>
			<v:textBlock v:margins="rect(0,0,0,0)" v:tabSpace="42.5197"/>
			<v:textRect cx="32.6401" cy="37.5027" width="65.29" height="10.8"/>
			<rect x="0" y="32.1027" width="65.2803" height="10.8" class="st1"/>
			<text x="-0" y="40.62" class="st2" v:langID="1028"><v:paragraph/><v:tabList/>或說空亦空是</text>		</g>
		<g id="shape5-10" v:mID="5" v:groupContext="shape" transform="translate(133.281,-15.637) rotate(0.1)">
			<title>工作表.5</title>
			<desc>用六十二見九十八使煩惱心著分別尋求不行般若。</desc>
			<v:textBlock v:margins="rect(0,0,0,0)" v:tabSpace="42.5197"/>
			<v:textRect cx="123.303" cy="37.5027" width="246.61" height="10.8"/>
			<rect x="0" y="32.1027" width="246.605" height="10.8" class="st1"/>
			<text x="0" y="40.62" class="st2" v:langID="1028"><v:paragraph/><v:tabList/>用六十二見九十八使煩惱心著，分別尋求，不行般若。</text>		</g>
		<g id="shape6-13" v:mID="6" v:groupContext="shape" transform="translate(31.1218,-0.968588) rotate(0.1)">
			<title>工作表.6</title>
			<desc>或說諸法如實相是</desc>
			<v:textBlock v:margins="rect(0,0,0,0)" v:tabSpace="42.5197"/>
			<v:textRect cx="41.1591" cy="37.5027" width="82.32" height="10.8"/>
			<rect x="0" y="32.1027" width="82.3181" height="10.8" class="st1"/>
			<text x="0" y="40.62" class="st2" v:langID="1028"><v:paragraph/><v:tabList/>或說諸法如實相是</text>		</g>
		<g id="shape13-16" v:mID="13" v:groupContext="shape" transform="translate(66.7059,0.89573) rotate(90.1)">
			<title>工作表.13</title>
			<path d="M0 37.23 C0 38.8 1.47 40.07 3.33 40.07 L16.55 40.07 C18.37 40.07 19.84 41.35 19.84 42.9 C19.84 41.35 21.32 40.07
						 23.17 40.07 L36.4 40.07 C38.21 40.07 39.68 38.8 39.68 37.23 L0 37.23 Z" class="st3"/>
			<path d="M0 37.23 C0 38.8 1.47 40.07 3.33 40.07 L16.55 40.07 C18.37 40.07 19.84 41.35 19.84 42.9 C19.84 41.35 21.32 40.07
						 23.17 40.07 L36.4 40.07 C38.21 40.07 39.68 38.8 39.68 37.23" class="st4"/>
		</g>
		<g id="shape14-19" v:mID="14" v:groupContext="shape" transform="translate(167.547,0.895902) rotate(90.1)">
			<title>工作表.14</title>
			<path d="M0 42.9 C0 41.38 1.47 40.12 3.33 40.12 L16.59 40.12 C18.41 40.12 19.88 38.88 19.88 37.34 C19.88 38.88 21.35
						 40.12 23.21 40.12 L36.4 40.12 C38.21 40.12 39.68 41.38 39.68 42.9 L0 42.9 Z" class="st3"/>
			<path d="M0 42.9 C0 41.38 1.47 40.12 3.33 40.12 L16.59 40.12 C18.41 40.12 19.88 38.88 19.88 37.34 C19.88 38.88 21.35
						 40.12 23.21 40.12 L36.4 40.12 C38.21 40.12 39.68 41.38 39.68 42.9" class="st4"/>
		</g>
		<g id="shape15-22" v:mID="15" v:groupContext="shape" transform="translate(113.375,-6.65924)">
			<title>工作表.15</title>
			<path d="M0 42.9 L10.43 42.9" class="st4"/>
		</g>
		<g id="shape16-25" v:mID="16" v:groupContext="shape" transform="translate(93.5301,-21.1672)">
			<title>工作表.16</title>
			<path d="M0 42.9 L30.26 42.9" class="st4"/>
		</g>
		<g id="shape17-28" v:mID="17" v:groupContext="shape" transform="translate(73.7617,-36.5793) rotate(0.1)">
			<title>工作表.17</title>
			<path d="M0 42.9 L50.09 42.9" class="st4"/>
		</g>
	</g>
</svg>
