<?xml version="1.0" encoding="UTF-8" standalone="no"?>
<!DOCTYPE svg PUBLIC "-//W3C//DTD SVG 1.1//EN" "http://www.w3.org/Graphics/SVG/1.1/DTD/svg11.dtd">
<!-- 由 Microsoft Visio, SVG Export 產生 B00908.svg 頁-1 -->
<svg xmlns="http://www.w3.org/2000/svg" xmlns:xlink="http://www.w3.org/1999/xlink" xmlns:ev="http://www.w3.org/2001/xml-events"
		xmlns:v="http://schemas.microsoft.com/visio/2003/SVGExtensions/" width="1.81207in" height="0.984813in"
		viewBox="0 0 130.469 70.9065" xml:space="preserve" color-interpolation-filters="sRGB" class="st5">
	<v:documentProperties v:langID="1028" v:viewMarkup="false"/>

	<style type="text/css">
	<![CDATA[
		.st1 {fill:none;stroke:none;stroke-linecap:butt;stroke-width:0.75}
		.st2 {fill:#000000;font-family:新細明體;font-size:0.833336em}
		.st3 {fill:none}
		.st4 {stroke:#000000;stroke-linecap:round;stroke-linejoin:round;stroke-width:0.5625}
		.st5 {fill:none;fill-rule:evenodd;font-size:12px;overflow:visible;stroke-linecap:square;stroke-miterlimit:3}
	]]>
	</style>

	<g v:mID="0" v:index="1" v:groupContext="foregroundPage">
		<title>頁-1</title>
		<v:pageProperties v:drawingScale="0.0393701" v:pageScale="0.0393701" v:drawingUnits="24" v:shadowOffsetX="9"
				v:shadowOffsetY="-9"/>
		<g id="shape2-1" v:mID="2" v:groupContext="shape" transform="translate(50.4887,-59.2772) rotate(0.1)">
			<title>工作表.2</title>
			<desc>不取行</desc>
			<v:textBlock v:margins="rect(0,0,0,0)" v:tabSpace="42.5197"/>
			<v:textRect cx="25.4932" cy="65.5065" width="50.99" height="10.8"/>
			<rect x="0" y="60.1065" width="50.9863" height="10.8" class="st1"/>
			<text x="0" y="68.62" class="st2" v:langID="1028"><v:paragraph/><v:tabList/>不取行</text>		</g>
		<g id="shape3-4" v:mID="3" v:groupContext="shape" transform="translate(50.4606,-44.7468) rotate(0.1)">
			<title>工作表.3</title>
			<desc>不取不行</desc>
			<v:textBlock v:margins="rect(0,0,0,0)" v:tabSpace="42.5197"/>
			<v:textRect cx="27.6337" cy="65.5065" width="55.27" height="10.8"/>
			<rect x="0" y="60.1065" width="55.2673" height="10.8" class="st1"/>
			<text x="0" y="68.62" class="st2" v:langID="1028"><v:paragraph/><v:tabList/>不取不行</text>		</g>
		<g id="shape4-7" v:mID="4" v:groupContext="shape" transform="translate(0.873755,-29.7793) rotate(0.1)">
			<title>工作表.4</title>
			<desc>都無所取</desc>
			<v:textBlock v:margins="rect(0,0,0,0)" v:tabSpace="42.5197"/>
			<v:textRect cx="23.9639" cy="65.5065" width="47.93" height="10.8"/>
			<rect x="0" y="60.1065" width="47.9277" height="10.8" class="st1"/>
			<text x="-0" y="68.62" class="st2" v:langID="1028"><v:paragraph/><v:tabList/>都無所取</text>		</g>
		<g id="shape5-10" v:mID="5" v:groupContext="shape" transform="translate(50.4311,-30.0218) rotate(0.1)">
			<title>工作表.5</title>
			<desc>不取亦行亦不行</desc>
			<v:textBlock v:margins="rect(0,0,0,0)" v:tabSpace="42.5197"/>
			<v:textRect cx="39.6961" cy="65.5065" width="79.4" height="10.8"/>
			<rect x="0" y="60.1065" width="79.3921" height="10.8" class="st1"/>
			<text x="0" y="68.62" class="st2" v:langID="1028"><v:paragraph/><v:tabList/>不取亦行亦不行</text>		</g>
		<g id="shape6-13" v:mID="6" v:groupContext="shape" transform="translate(50.4023,-15.1482) rotate(0.1)">
			<title>工作表.6</title>
			<desc>不取非行非不行</desc>
			<v:textBlock v:margins="rect(0,0,0,0)" v:tabSpace="42.5197"/>
			<v:textRect cx="39.7109" cy="65.5065" width="79.43" height="10.8"/>
			<rect x="0" y="60.1065" width="79.4218" height="10.8" class="st1"/>
			<text x="0" y="68.62" class="st2" v:langID="1028"><v:paragraph/><v:tabList/>不取非行非不行</text>		</g>
		<g id="shape7-16" v:mID="7" v:groupContext="shape" transform="translate(50.3742,-0.916186) rotate(0.1)">
			<title>工作表.7</title>
			<desc>不取亦不取</desc>
			<v:textBlock v:margins="rect(0,0,0,0)" v:tabSpace="42.5197"/>
			<v:textRect cx="30.5116" cy="65.5065" width="61.03" height="10.8"/>
			<rect x="0" y="60.1065" width="61.0232" height="10.8" class="st1"/>
			<text x="-0" y="68.62" class="st2" v:langID="1028"><v:paragraph/><v:tabList/>不取亦不取</text>		</g>
		<g id="shape16-19" v:mID="16" v:groupContext="shape" transform="translate(114.212,1.31891) rotate(90.1)">
			<title>工作表.16</title>
			<path d="M0 65.25 C0 66.82 2.54 68.08 5.66 68.08 L28.32 68.08 C31.44 68.08 33.98 69.34 33.98 70.91 C33.98 69.34 36.53
						 68.08 39.64 68.08 L62.3 68.08 C65.42 68.08 67.92 66.82 67.92 65.25 L0 65.25 Z" class="st3"/>
			<path d="M0 65.25 C0 66.82 2.54 68.08 5.66 68.08 L28.32 68.08 C31.44 68.08 33.98 69.34 33.98 70.91 C33.98 69.34 36.53
						 68.08 39.64 68.08 L62.3 68.08 C65.42 68.08 67.92 66.82 67.92 65.25" class="st4"/>
		</g>
	</g>
</svg>
