<?xml version="1.0" encoding="UTF-8" standalone="no"?>
<!DOCTYPE svg PUBLIC "-//W3C//DTD SVG 1.1//EN" "http://www.w3.org/Graphics/SVG/1.1/DTD/svg11.dtd">
<!-- 由 Microsoft Visio, SVG Export 產生 B00904.svg 頁-1 -->
<svg xmlns="http://www.w3.org/2000/svg" xmlns:xlink="http://www.w3.org/1999/xlink" xmlns:ev="http://www.w3.org/2001/xml-events"
		xmlns:v="http://schemas.microsoft.com/visio/2003/SVGExtensions/" width="2.80907in" height="0.383375in"
		viewBox="0 0 202.253 27.603" xml:space="preserve" color-interpolation-filters="sRGB" class="st5">
	<v:documentProperties v:langID="1028" v:viewMarkup="false"/>

	<style type="text/css">
	<![CDATA[
		.st1 {fill:none;stroke:none;stroke-linecap:butt;stroke-width:0.75}
		.st2 {fill:#000000;font-family:新細明體;font-size:0.833336em}
		.st3 {fill:none}
		.st4 {stroke:#000000;stroke-linecap:round;stroke-linejoin:round;stroke-width:0.5625}
		.st5 {fill:none;fill-rule:evenodd;font-size:12px;overflow:visible;stroke-linecap:square;stroke-miterlimit:3}
	]]>
	</style>

	<g v:mID="0" v:index="1" v:groupContext="foregroundPage">
		<title>頁-1</title>
		<v:pageProperties v:drawingScale="0.0393701" v:pageScale="0.0393701" v:drawingUnits="24" v:shadowOffsetX="9"
				v:shadowOffsetY="-9"/>
		<g id="shape2-1" v:mID="2" v:groupContext="shape" transform="translate(50.5852,-15.9738) rotate(0.1)">
			<title>工作表.2</title>
			<desc>除虛妄相</desc>
			<v:textBlock v:margins="rect(0,0,0,0)" v:tabSpace="42.5197"/>
			<v:textRect cx="24.0191" cy="22.203" width="48.04" height="10.8"/>
			<rect x="0" y="16.803" width="48.0381" height="10.8" class="st1"/>
			<text x="0" y="25.32" class="st2" v:langID="1028"><v:paragraph/><v:tabList/>除虛妄相</text>		</g>
		<g id="shape3-4" v:mID="3" v:groupContext="shape" transform="translate(0.798176,-7.94587) rotate(0.1)">
			<title>工作表.3</title>
			<desc>三解脫門</desc>
			<v:textBlock v:margins="rect(0,0,0,0)" v:tabSpace="42.5197"/>
			<v:textRect cx="22.6879" cy="22.203" width="45.38" height="10.8"/>
			<rect x="0" y="16.803" width="45.3757" height="10.8" class="st1"/>
			<text x="-0" y="25.32" class="st2" v:langID="1028"><v:paragraph/><v:tabList/>三解脫門</text>		</g>
		<g id="shape4-7" v:mID="4" v:groupContext="shape" transform="translate(49.9702,-1.09079) rotate(0.1)">
			<title>工作表.4</title>
			<desc>虛妄相除亦無空相無所破故。</desc>
			<v:textBlock v:margins="rect(0,0,0,0)" v:tabSpace="42.5197"/>
			<v:textRect cx="75.7813" cy="22.203" width="151.57" height="10.8"/>
			<rect x="0" y="16.803" width="151.563" height="10.8" class="st1"/>
			<text x="0" y="25.32" class="st2" v:langID="1028"><v:paragraph/><v:tabList/>虛妄相除，亦無空相，無所破故。</text>		</g>
		<g id="shape5-10" v:mID="5" v:groupContext="shape" transform="translate(70.9332,1.57849) rotate(90.1)">
			<title>工作表.5</title>
			<path d="M0 22.65 C0 24 0.96 25.11 2.11 25.11 L10.63 25.11 C11.82 25.11 12.77 26.23 12.77 27.6 C12.77 26.23 13.73 25.11
						 14.89 25.11 L23.4 25.11 C24.59 25.11 25.52 24 25.52 22.65 L0 22.65 Z" class="st3"/>
			<path d="M0 22.65 C0 24 0.96 25.11 2.11 25.11 L10.63 25.11 C11.82 25.11 12.77 26.23 12.77 27.6 C12.77 26.23 13.73 25.11
						 14.89 25.11 L23.4 25.11 C24.59 25.11 25.52 24 25.52 22.65" class="st4"/>
		</g>
	</g>
</svg>
