<?xml version="1.0" encoding="UTF-8" standalone="no"?>
<!DOCTYPE svg PUBLIC "-//W3C//DTD SVG 1.1//EN" "http://www.w3.org/Graphics/SVG/1.1/DTD/svg11.dtd">
<!-- 由 Microsoft Visio, SVG Export 產生 B00707.svg 頁-1 -->
<svg xmlns="http://www.w3.org/2000/svg" xmlns:xlink="http://www.w3.org/1999/xlink" xmlns:ev="http://www.w3.org/2001/xml-events"
		xmlns:v="http://schemas.microsoft.com/visio/2003/SVGExtensions/" width="1.65245in" height="0.630066in"
		viewBox="0 0 118.976 45.3648" xml:space="preserve" color-interpolation-filters="sRGB" class="st6">
	<v:documentProperties v:langID="1028" v:viewMarkup="false"/>

	<style type="text/css">
	<![CDATA[
		.st1 {fill:none;stroke:none;stroke-linecap:butt;stroke-width:0.75}
		.st2 {fill:#000000;font-family:微軟正黑體;font-size:0.833336em}
		.st3 {font-family:Microsoft Sans Serif;font-size:1em}
		.st4 {fill:none}
		.st5 {stroke:#000000;stroke-linecap:round;stroke-linejoin:round;stroke-width:0.5625}
		.st6 {fill:none;fill-rule:evenodd;font-size:12px;overflow:visible;stroke-linecap:square;stroke-miterlimit:3}
	]]>
	</style>

	<g v:mID="0" v:index="1" v:groupContext="foregroundPage">
		<title>頁-1</title>
		<v:pageProperties v:drawingScale="0.0393701" v:pageScale="0.0393701" v:drawingUnits="24" v:shadowOffsetX="9"
				v:shadowOffsetY="-9"/>
		<g id="shape2-1" v:mID="2" v:groupContext="shape" transform="translate(72.3795,-33.8147) rotate(0.1)">
			<title>工作表.2</title>
			<desc>不可取故</desc>
			<v:textBlock v:margins="rect(0,0,0,0)" v:tabSpace="42.5197"/>
			<v:textRect cx="22.504" cy="39.9648" width="45.01" height="10.8"/>
			<rect x="0" y="34.5648" width="45.0079" height="10.8" class="st1"/>
			<text x="0" y="43.31" class="st2" v:langID="1028"><v:paragraph/><v:tabList/>不可取故</text>		</g>
		<g id="shape3-4" v:mID="3" v:groupContext="shape" transform="translate(0.829176,-17.102) rotate(0.1)">
			<title>工作表.3</title>
			<desc>無所有三義─</desc>
			<v:textBlock v:margins="rect(0,0,0,0)" v:tabSpace="42.5197"/>
			<v:textRect cx="31.2519" cy="39.9648" width="62.51" height="10.8"/>
			<rect x="0" y="34.5648" width="62.5038" height="10.8" class="st1"/>
			<text x="0" y="43.31" class="st2" v:langID="1028"><v:paragraph/><v:tabList/>無所有三義<tspan class="st3">─</tspan></text>		</g>
		<g id="shape4-8" v:mID="4" v:groupContext="shape" transform="translate(72.3507,-17.3001) rotate(0.1)">
			<title>工作表.4</title>
			<desc>不可受故</desc>
			<v:textBlock v:margins="rect(0,0,0,0)" v:tabSpace="42.5197"/>
			<v:textRect cx="22.1319" cy="39.9648" width="44.27" height="10.8"/>
			<rect x="0" y="34.5648" width="44.2639" height="10.8" class="st1"/>
			<text x="0" y="43.31" class="st2" v:langID="1028"><v:paragraph/><v:tabList/>不可受故</text>		</g>
		<g id="shape5-11" v:mID="5" v:groupContext="shape" transform="translate(72.3224,-0.830154) rotate(0.1)">
			<title>工作表.5</title>
			<desc>不可著故</desc>
			<v:textBlock v:margins="rect(0,0,0,0)" v:tabSpace="42.5197"/>
			<v:textRect cx="22.9821" cy="39.9648" width="45.97" height="10.8"/>
			<rect x="0" y="34.5648" width="45.9642" height="10.8" class="st1"/>
			<text x="0" y="43.31" class="st2" v:langID="1028"><v:paragraph/><v:tabList/>不可著故</text>		</g>
		<g id="shape12-14" v:mID="12" v:groupContext="shape" transform="translate(107.538,1.08203) rotate(90.1)">
			<title>工作表.12</title>
			<path d="M0 37.87 C0 39.95 1.6 41.62 3.61 41.62 L18.5 41.62 C20.52 41.62 22.16 43.32 22.16 45.36 C22.16 43.32 23.8 41.62
						 25.82 41.62 L40.14 41.62 C42.16 41.62 43.8 39.95 43.8 37.87 L0 37.87 Z" class="st4"/>
			<path d="M0 37.87 C0 39.95 1.6 41.62 3.61 41.62 L18.5 41.62 C20.52 41.62 22.16 43.32 22.16 45.36 C22.16 43.32 23.8 41.62
						 25.82 41.62 L40.14 41.62 C42.16 41.62 43.8 39.95 43.8 37.87" class="st5"/>
		</g>
	</g>
</svg>
