<?xml version="1.0" encoding="UTF-8" standalone="no"?>
<!DOCTYPE svg PUBLIC "-//W3C//DTD SVG 1.1//EN" "http://www.w3.org/Graphics/SVG/1.1/DTD/svg11.dtd">
<!-- 由 Microsoft Visio, SVG Export 產生 B00906.svg 頁-1 -->
<svg xmlns="http://www.w3.org/2000/svg" xmlns:xlink="http://www.w3.org/1999/xlink" xmlns:ev="http://www.w3.org/2001/xml-events"
		xmlns:v="http://schemas.microsoft.com/visio/2003/SVGExtensions/" width="4.65604in" height="0.397182in"
		viewBox="0 0 335.235 28.5971" xml:space="preserve" color-interpolation-filters="sRGB" class="st6">
	<v:documentProperties v:langID="1028" v:viewMarkup="false"/>

	<style type="text/css">
	<![CDATA[
		.st1 {fill:none;stroke:none;stroke-linecap:butt;stroke-width:0.75}
		.st2 {fill:#000000;font-family:新細明體;font-size:0.833336em}
		.st3 {fill:none}
		.st4 {stroke:#000000;stroke-linecap:round;stroke-linejoin:round;stroke-width:0.5625}
		.st5 {stroke:#000000;stroke-dasharray:0.5625,1.125;stroke-linecap:round;stroke-linejoin:round;stroke-width:0.5625}
		.st6 {fill:none;fill-rule:evenodd;font-size:12px;overflow:visible;stroke-linecap:square;stroke-miterlimit:3}
	]]>
	</style>

	<g v:mID="0" v:index="1" v:groupContext="foregroundPage">
		<title>頁-1</title>
		<v:pageProperties v:drawingScale="0.0393701" v:pageScale="0.0393701" v:drawingUnits="24" v:shadowOffsetX="9"
				v:shadowOffsetY="-9"/>
		<g id="shape2-1" v:mID="2" v:groupContext="shape" transform="translate(49.2977,-16.9679) rotate(0.1)">
			<title>工作表.2</title>
			<desc>念念滅諸有為法不過一念</desc>
			<v:textBlock v:margins="rect(0,0,0,0)" v:tabSpace="42.5197"/>
			<v:textRect cx="66.0737" cy="23.1971" width="132.15" height="10.8"/>
			<rect x="0" y="17.7971" width="132.147" height="10.8" class="st1"/>
			<text x="0" y="26.31" class="st2" v:langID="1028"><v:paragraph/><v:tabList/>念念滅，諸有為法，不過一念</text>		</g>
		<g id="shape3-4" v:mID="3" v:groupContext="shape" transform="translate(188.797,-16.7236) rotate(0.1)">
			<title>工作表.3</title>
			<desc>久行菩薩觀此</desc>
			<v:textBlock v:margins="rect(0,0,0,0)" v:tabSpace="42.5197"/>
			<v:textRect cx="34.5913" cy="23.1971" width="69.19" height="10.8"/>
			<rect x="0" y="17.7971" width="69.1827" height="10.8" class="st1"/>
			<text x="0" y="26.31" class="st2" v:langID="1028"><v:paragraph/><v:tabList/>久行菩薩觀此</text>		</g>
		<g id="shape4-7" v:mID="4" v:groupContext="shape" transform="translate(0.799911,-8.33781) rotate(0.1)">
			<title>工作表.4</title>
			<desc>二種無常</desc>
			<v:textBlock v:margins="rect(0,0,0,0)" v:tabSpace="42.5197"/>
			<v:textRect cx="20.8041" cy="23.1971" width="41.61" height="10.8"/>
			<rect x="0" y="17.7971" width="41.6082" height="10.8" class="st1"/>
			<text x="0" y="26.31" class="st2" v:langID="1028"><v:paragraph/><v:tabList/>二種無常</text>		</g>
		<g id="shape5-10" v:mID="5" v:groupContext="shape" transform="translate(287.769,-9.51059) rotate(0.1)">
			<title>工作表.5</title>
			<desc>皆墮取相</desc>
			<v:textBlock v:margins="rect(0,0,0,0)" v:tabSpace="42.5197"/>
			<v:textRect cx="23.3735" cy="23.1971" width="46.75" height="10.8"/>
			<rect x="0" y="17.7971" width="46.747" height="10.8" class="st1"/>
			<text x="0" y="26.31" class="st2" v:langID="1028"><v:paragraph/><v:tabList/>皆墮取相</text>		</g>
		<g id="shape6-13" v:mID="6" v:groupContext="shape" transform="translate(49.2401,-1.19288) rotate(0.1)">
			<title>工作表.6</title>
			<desc>相續法壞如人命盡如草木燒</desc>
			<v:textBlock v:margins="rect(0,0,0,0)" v:tabSpace="42.5197"/>
			<v:textRect cx="71.7716" cy="23.1971" width="143.55" height="10.8"/>
			<rect x="0" y="17.7971" width="143.543" height="10.8" class="st1"/>
			<text x="0" y="26.31" class="st2" v:langID="1028"><v:paragraph/><v:tabList/>相續法壞，如人命盡，如草木燒</text>		</g>
		<g id="shape7-16" v:mID="7" v:groupContext="shape" transform="translate(197.74,-0.933704) rotate(0.1)">
			<title>工作表.7</title>
			<desc>初心菩薩觀此</desc>
			<v:textBlock v:margins="rect(0,0,0,0)" v:tabSpace="42.5197"/>
			<v:textRect cx="34.373" cy="23.1971" width="68.75" height="10.8"/>
			<rect x="0" y="17.7971" width="68.7459" height="10.8" class="st1"/>
			<text x="0" y="26.31" class="st2" v:langID="1028"><v:paragraph/><v:tabList/>初心菩薩觀此</text>		</g>
		<g id="shape14-19" v:mID="14" v:groupContext="shape" transform="translate(71.1114,1.89628) rotate(90.1)">
			<title>工作表.14</title>
			<path d="M0 22.96 C0 24.52 0.97 25.78 2.19 25.78 L10.88 25.78 C12.07 25.78 13.04 27.04 13.04 28.6 C13.04 27.04 14.01
						 25.78 15.22 25.78 L23.92 25.78 C25.11 25.78 26.08 24.52 26.08 22.96 L0 22.96 Z" class="st3"/>
			<path d="M0 22.96 C0 24.52 0.97 25.78 2.19 25.78 L10.88 25.78 C12.07 25.78 13.04 27.04 13.04 28.6 C13.04 27.04 14.01
						 25.78 15.22 25.78 L23.92 25.78 C25.11 25.78 26.08 24.52 26.08 22.96" class="st4"/>
		</g>
		<g id="shape15-22" v:mID="15" v:groupContext="shape" transform="translate(251.972,-5.64984) rotate(-14.9654)">
			<title>工作表.15</title>
			<path d="M0 28.6 L27.79 28.6" class="st5"/>
		</g>
		<g id="shape16-25" v:mID="16" v:groupContext="shape" transform="translate(258.271,-20.4399) rotate(12.1122)">
			<title>工作表.16</title>
			<path d="M0 28.6 L34.7 28.6" class="st5"/>
		</g>
		<g id="shape17-28" v:mID="17" v:groupContext="shape" transform="translate(181.404,-22.0367)">
			<title>工作表.17</title>
			<path d="M0 28.6 L5.91 28.6" class="st5"/>
		</g>
		<g id="shape18-31" v:mID="18" v:groupContext="shape" transform="translate(190.842,-6.2464)">
			<title>工作表.18</title>
			<path d="M0 28.6 L5.42 28.6" class="st5"/>
		</g>
	</g>
</svg>
