<?xml version="1.0" encoding="UTF-8" standalone="no"?>
<!DOCTYPE svg PUBLIC "-//W3C//DTD SVG 1.1//EN" "http://www.w3.org/Graphics/SVG/1.1/DTD/svg11.dtd">
<!-- 由 Microsoft Visio, SVG Export 產生 B00708.svg 頁-1 -->
<svg xmlns="http://www.w3.org/2000/svg" xmlns:xlink="http://www.w3.org/1999/xlink" xmlns:ev="http://www.w3.org/2001/xml-events"
		xmlns:v="http://schemas.microsoft.com/visio/2003/SVGExtensions/" width="6.30461in" height="0.433414in"
		viewBox="0 0 453.932 31.2058" xml:space="preserve" color-interpolation-filters="sRGB" class="st5">
	<v:documentProperties v:langID="1028" v:viewMarkup="false"/>

	<style type="text/css">
	<![CDATA[
		.st1 {fill:none;stroke:none;stroke-linecap:butt;stroke-width:0.75}
		.st2 {fill:#000000;font-family:新細明體;font-size:0.833336em}
		.st3 {fill:none}
		.st4 {stroke:#000000;stroke-linecap:round;stroke-linejoin:round;stroke-width:0.5625}
		.st5 {fill:none;fill-rule:evenodd;font-size:12px;overflow:visible;stroke-linecap:square;stroke-miterlimit:3}
	]]>
	</style>

	<g v:mID="0" v:index="1" v:groupContext="foregroundPage">
		<title>頁-1</title>
		<v:pageProperties v:drawingScale="0.0393701" v:pageScale="0.0393701" v:drawingUnits="24" v:shadowOffsetX="9"
				v:shadowOffsetY="-9"/>
		<g id="shape2-1" v:mID="2" v:groupContext="shape" transform="translate(72.8339,-19.5766) rotate(0.1)">
			<title>工作表.2</title>
			<desc>一、實相能生智慧果中說因名為般若。</desc>
			<v:textBlock v:margins="rect(0,0,0,0)" v:tabSpace="42.5197"/>
			<v:textRect cx="96.6494" cy="25.8058" width="193.3" height="10.8"/>
			<rect x="0" y="20.4058" width="193.299" height="10.8" class="st1"/>
			<text x="0" y="28.92" class="st2" v:langID="1028"><v:paragraph/><v:tabList/>一、實相能生智慧，果中說因，名為般若。</text>		</g>
		<g id="shape3-4" v:mID="3" v:groupContext="shape" transform="translate(0.804464,-10.4024) rotate(0.1)">
			<title>工作表.3</title>
			<desc>智慧得名般若</desc>
			<v:textBlock v:margins="rect(0,0,0,0)" v:tabSpace="42.5197"/>
			<v:textRect cx="31.3249" cy="25.8058" width="62.65" height="10.8"/>
			<rect x="0" y="20.4058" width="62.6498" height="10.8" class="st1"/>
			<text x="-0" y="28.92" class="st2" v:langID="1028"><v:paragraph/><v:tabList/>智慧得名般若</text>		</g>
		<g id="shape4-7" v:mID="4" v:groupContext="shape" transform="translate(72.7755,-1.49221) rotate(0.1)">
			<title>工作表.4</title>
			<desc>二、入不二門能行般若因、果、緣、智、彼、此、內、外一相無相不作分別。</desc>
			<v:textBlock v:margins="rect(0,0,0,0)" v:tabSpace="42.5197"/>
			<v:textRect cx="190.221" cy="25.8058" width="380.45" height="10.8"/>
			<rect x="0" y="20.4058" width="380.443" height="10.8" class="st1"/>
			<text x="0" y="28.92" class="st2" v:langID="1028"><v:paragraph/><v:tabList/>二、入不二門，能行般若，因、果、緣、智、彼、此、內、外，一相無相，不作分別。</text>		</g>
		<g id="shape13-10" v:mID="13" v:groupContext="shape" transform="translate(94.62,2.28992) rotate(90.1)">
			<title>工作表.13</title>
			<path d="M0 24.06 C0 26.04 1 27.63 2.27 27.63 L11.28 27.63 C12.52 27.63 13.52 29.23 13.52 31.21 C13.52 29.23 14.53 27.63
						 15.79 27.63 L24.8 27.63 C26.04 27.63 27.04 26.04 27.04 24.06 L0 24.06 Z" class="st3"/>
			<path d="M0 24.06 C0 26.04 1 27.63 2.27 27.63 L11.28 27.63 C12.52 27.63 13.52 29.23 13.52 31.21 C13.52 29.23 14.53 27.63
						 15.79 27.63 L24.8 27.63 C26.04 27.63 27.04 26.04 27.04 24.06" class="st4"/>
		</g>
	</g>
</svg>
