<?xml version="1.0" encoding="UTF-8" standalone="no"?>
<!DOCTYPE svg PUBLIC "-//W3C//DTD SVG 1.1//EN" "http://www.w3.org/Graphics/SVG/1.1/DTD/svg11.dtd">
<!-- 由 Microsoft Visio, SVG Export 產生 B00705.svg 頁-1 -->
<svg xmlns="http://www.w3.org/2000/svg" xmlns:xlink="http://www.w3.org/1999/xlink" xmlns:ev="http://www.w3.org/2001/xml-events"
		xmlns:v="http://schemas.microsoft.com/visio/2003/SVGExtensions/" width="2.12989in" height="0.407616in"
		viewBox="0 0 153.352 29.3484" xml:space="preserve" color-interpolation-filters="sRGB" class="st6">
	<v:documentProperties v:langID="1028" v:viewMarkup="false"/>

	<style type="text/css">
	<![CDATA[
		.st1 {fill:none;stroke:none;stroke-linecap:butt;stroke-width:0.75}
		.st2 {fill:#000000;font-family:新細明體;font-size:0.833336em}
		.st3 {font-family:Times New Roman;font-size:1em}
		.st4 {fill:none}
		.st5 {stroke:#000000;stroke-linecap:round;stroke-linejoin:round;stroke-width:0.5625}
		.st6 {fill:none;fill-rule:evenodd;font-size:12px;overflow:visible;stroke-linecap:square;stroke-miterlimit:3}
	]]>
	</style>

	<g v:mID="0" v:index="1" v:groupContext="foregroundPage">
		<title>頁-1</title>
		<v:pageProperties v:drawingScale="0.0393701" v:pageScale="0.0393701" v:drawingUnits="24" v:shadowOffsetX="9"
				v:shadowOffsetY="-9"/>
		<g id="shape2-1" v:mID="2" v:groupContext="shape" transform="translate(71.0309,-17.7191) rotate(0.1)">
			<title>工作表.2</title>
			<desc>常邊無常邊。</desc>
			<v:textBlock v:margins="rect(0,0,0,0)" v:tabSpace="42.5197"/>
			<v:textRect cx="36.5501" cy="23.9484" width="73.11" height="10.8"/>
			<rect x="0" y="18.5484" width="73.1003" height="10.8" class="st1"/>
			<text x="0" y="27.06" class="st2" v:langID="1028"><v:paragraph/><v:tabList/>常邊，無常邊。</text>		</g>
		<g id="shape3-4" v:mID="3" v:groupContext="shape" transform="translate(0.801223,-8.97491) rotate(0.1)">
			<title>工作表.3</title>
			<desc>般若是中道─</desc>
			<v:textBlock v:margins="rect(0,0,0,0)" v:tabSpace="42.5197"/>
			<v:textRect cx="31.7099" cy="23.9484" width="63.42" height="10.8"/>
			<rect x="0" y="18.5484" width="63.4197" height="10.8" class="st1"/>
			<text x="0" y="27.06" class="st2" v:langID="1028"><v:paragraph/><v:tabList/>般若是中道<tspan class="st3">─</tspan></text>		</g>
		<g id="shape4-8" v:mID="4" v:groupContext="shape" transform="translate(70.9726,-0.968609) rotate(0.1)">
			<title>工作表.4</title>
			<desc>離是二邊行中道。</desc>
			<v:textBlock v:margins="rect(0,0,0,0)" v:tabSpace="42.5197"/>
			<v:textRect cx="40.8309" cy="23.9484" width="81.67" height="10.8"/>
			<rect x="0" y="18.5484" width="81.6619" height="10.8" class="st1"/>
			<text x="0" y="27.06" class="st2" v:langID="1028"><v:paragraph/><v:tabList/>離是二邊行中道。</text>		</g>
		<g id="shape11-11" v:mID="11" v:groupContext="shape" transform="translate(93.2176,1.60643) rotate(90.1)">
			<title>工作表.11</title>
			<path d="M0 24.19 C0 25.62 1 26.77 2.26 26.77 L11.23 26.77 C12.46 26.77 13.46 27.94 13.46 29.35 C13.46 27.94 14.46 26.77
						 15.72 26.77 L24.7 26.77 C25.93 26.77 26.93 25.62 26.93 24.19 L0 24.19 Z" class="st4"/>
			<path d="M0 24.19 C0 25.62 1 26.77 2.26 26.77 L11.23 26.77 C12.46 26.77 13.46 27.94 13.46 29.35 C13.46 27.94 14.46 26.77
						 15.72 26.77 L24.7 26.77 C25.93 26.77 26.93 25.62 26.93 24.19" class="st5"/>
		</g>
	</g>
</svg>
