<?xml version="1.0" encoding="UTF-8" standalone="no"?>
<!DOCTYPE svg PUBLIC "-//W3C//DTD SVG 1.1//EN" "http://www.w3.org/Graphics/SVG/1.1/DTD/svg11.dtd">
<!-- 由 Microsoft Visio, SVG Export 產生 B00801.svg 頁-1 -->
<svg xmlns="http://www.w3.org/2000/svg" xmlns:xlink="http://www.w3.org/1999/xlink" xmlns:ev="http://www.w3.org/2001/xml-events"
		xmlns:v="http://schemas.microsoft.com/visio/2003/SVGExtensions/" width="6.77885in" height="0.852142in"
		viewBox="0 0 488.077 61.3542" xml:space="preserve" color-interpolation-filters="sRGB" class="st5">
	<v:documentProperties v:langID="1028" v:viewMarkup="false"/>

	<style type="text/css">
	<![CDATA[
		.st1 {fill:none;stroke:none;stroke-linecap:butt;stroke-width:0.75}
		.st2 {fill:#000000;font-family:新細明體;font-size:0.833336em}
		.st3 {fill:none}
		.st4 {stroke:#000000;stroke-linecap:round;stroke-linejoin:round;stroke-width:0.5625}
		.st5 {fill:none;fill-rule:evenodd;font-size:12px;overflow:visible;stroke-linecap:square;stroke-miterlimit:3}
	]]>
	</style>

	<g v:mID="0" v:index="1" v:groupContext="foregroundPage">
		<title>頁-1</title>
		<v:pageProperties v:drawingScale="0.0393701" v:pageScale="0.0393701" v:drawingUnits="24" v:shadowOffsetX="9"
				v:shadowOffsetY="-9"/>
		<g id="shape3-1" v:mID="3" v:groupContext="shape" transform="translate(72.9145,-49.725) rotate(0.1)">
			<title>工作表.3</title>
			<desc>一、世俗巧便</desc>
			<v:textBlock v:margins="rect(0,0,0,0)" v:tabSpace="42.5197"/>
			<v:textRect cx="38.8141" cy="55.9542" width="77.63" height="10.8"/>
			<rect x="0" y="50.5542" width="77.6283" height="10.8" class="st1"/>
			<text x="0" y="59.07" class="st2" v:langID="1028"><v:paragraph/><v:tabList/>一、世俗巧便</text>		</g>
		<g id="shape4-4" v:mID="4" v:groupContext="shape" transform="translate(162.886,-40.1838) rotate(0.1)">
			<title>工作表.4</title>
			<desc>罪垢不淨欺誑智慧</desc>
			<v:textBlock v:margins="rect(0,0,0,0)" v:tabSpace="42.5197"/>
			<v:textRect cx="50.5215" cy="55.9542" width="101.05" height="10.8"/>
			<rect x="0" y="50.5542" width="101.043" height="10.8" class="st1"/>
			<text x="0" y="59.07" class="st2" v:langID="1028"><v:paragraph/><v:tabList/>罪垢不淨欺誑智慧</text>		</g>
		<g id="shape5-7" v:mID="5" v:groupContext="shape" transform="translate(0.857083,-23.6298) rotate(0.1)">
			<title>工作表.5</title>
			<desc>世間三種智慧</desc>
			<v:textBlock v:margins="rect(0,0,0,0)" v:tabSpace="42.5197"/>
			<v:textRect cx="30.6231" cy="55.9542" width="61.25" height="10.8"/>
			<rect x="0" y="50.5542" width="61.2463" height="10.8" class="st1"/>
			<text x="-0" y="59.07" class="st2" v:langID="1028"><v:paragraph/><v:tabList/>世間三種智慧</text>		</g>
		<g id="shape6-10" v:mID="6" v:groupContext="shape" transform="translate(72.857,-33.95) rotate(0.1)">
			<title>工作表.6</title>
			<desc>二、離生智慧</desc>
			<v:textBlock v:margins="rect(0,0,0,0)" v:tabSpace="42.5197"/>
			<v:textRect cx="37.4265" cy="55.9542" width="74.86" height="10.8"/>
			<rect x="0" y="50.5542" width="74.853" height="10.8" class="st1"/>
			<text x="0" y="59.07" class="st2" v:langID="1028"><v:paragraph/><v:tabList/>二、離生智慧</text>		</g>
		<g id="shape7-13" v:mID="7" v:groupContext="shape" transform="translate(279.857,-28.6867) rotate(0.1)">
			<title>工作表.7</title>
			<desc>菩薩般若最為殊勝清淨無著饒益眾生。</desc>
			<v:textBlock v:margins="rect(0,0,0,0)" v:tabSpace="42.5197"/>
			<v:textRect cx="103.78" cy="55.9542" width="207.56" height="10.8"/>
			<rect x="0" y="50.5542" width="207.559" height="10.8" class="st1"/>
			<text x="0" y="59.07" class="st2" v:langID="1028"><v:paragraph/><v:tabList/>菩薩般若，最為殊勝，清淨無著，饒益眾生。</text>		</g>
		<g id="shape8-16" v:mID="8" v:groupContext="shape" transform="translate(72.8001,-17.4855) rotate(0.1)">
			<title>工作表.8</title>
			<desc>三、出世間智慧</desc>
			<v:textBlock v:margins="rect(0,0,0,0)" v:tabSpace="42.5197"/>
			<v:textRect cx="44.5424" cy="55.9542" width="89.09" height="10.8"/>
			<rect x="0" y="50.5542" width="89.0849" height="10.8" class="st1"/>
			<text x="0" y="59.07" class="st2" v:langID="1028"><v:paragraph/><v:tabList/>三、出世間智慧</text>		</g>
		<g id="shape9-19" v:mID="9" v:groupContext="shape" transform="translate(92.2559,-1.25829) rotate(0.1)">
			<title>工作表.9</title>
			<desc>離我我所二乘漏盡智</desc>
			<v:textBlock v:margins="rect(0,0,0,0)" v:tabSpace="42.5197"/>
			<v:textRect cx="68.8307" cy="55.9542" width="137.67" height="10.8"/>
			<rect x="0" y="50.5542" width="137.661" height="10.8" class="st1"/>
			<text x="0" y="59.07" class="st2" v:langID="1028"><v:paragraph/><v:tabList/>離我我所，二乘漏盡智</text>		</g>
		<g id="shape10-22" v:mID="10" v:groupContext="shape" transform="translate(218.256,-1.03837) rotate(0.1)">
			<title>工作表.10</title>
			<desc>無大慈悲不能饒益一切。</desc>
			<v:textBlock v:margins="rect(0,0,0,0)" v:tabSpace="42.5197"/>
			<v:textRect cx="63.7146" cy="55.9542" width="127.43" height="10.8"/>
			<rect x="0" y="50.5542" width="127.429" height="10.8" class="st1"/>
			<text x="0" y="59.07" class="st2" v:langID="1028"><v:paragraph/><v:tabList/>無大慈悲，不能饒益一切。</text>		</g>
		<g id="shape17-25" v:mID="17" v:groupContext="shape" transform="translate(125.2,2.10174) rotate(90.1)">
			<title>工作表.17</title>
			<path d="M0 54.59 C0 56.47 2.15 57.98 4.82 57.98 L23.46 57.98 C26.13 57.98 28.28 59.49 28.28 61.35 C28.28 59.49 30.46
						 57.98 33.1 57.98 L53.01 57.98 C55.68 57.98 57.83 56.47 57.83 54.59 L0 54.59 Z" class="st3"/>
			<path d="M0 54.59 C0 56.47 2.15 57.98 4.82 57.98 L23.46 57.98 C26.13 57.98 28.28 59.49 28.28 61.35 C28.28 59.49 30.46
						 57.98 33.1 57.98 L53.01 57.98 C55.68 57.98 57.83 56.47 57.83 54.59" class="st4"/>
		</g>
		<g id="shape18-28" v:mID="18" v:groupContext="shape" transform="translate(120.255,-38.0781) rotate(-12.4074)">
			<title>工作表.18</title>
			<path d="M0 61.35 L29.02 61.35" class="st4"/>
		</g>
		<g id="shape19-31" v:mID="19" v:groupContext="shape" transform="translate(152.382,-51.8824) rotate(17.8586)">
			<title>工作表.19</title>
			<path d="M0 61.35 L29.65 61.35" class="st4"/>
		</g>
		<g id="shape20-34" v:mID="20" v:groupContext="shape" transform="translate(197.624,-7.16288) rotate(0.00323812)">
			<title>工作表.20</title>
			<path d="M0 61.35 L19.05 61.35" class="st4"/>
		</g>
		<g id="shape21-37" v:mID="21" v:groupContext="shape" transform="translate(214.578,-0.016335) rotate(-39.872)">
			<title>工作表.21</title>
			<path d="M0 61.35 L31.39 61.35" class="st4"/>
		</g>
		<g id="shape22-40" v:mID="22" v:groupContext="shape" transform="translate(262.622,-42.3532) rotate(17.6794)">
			<title>工作表.22</title>
			<path d="M0 61.35 L35.7 61.35" class="st4"/>
		</g>
	</g>
</svg>
