<?xml version="1.0" encoding="UTF-8" standalone="no"?>
<!DOCTYPE svg PUBLIC "-//W3C//DTD SVG 1.1//EN" "http://www.w3.org/Graphics/SVG/1.1/DTD/svg11.dtd">
<!-- 由 Microsoft Visio, SVG Export 產生 B00706.svg 頁-1 -->
<svg xmlns="http://www.w3.org/2000/svg" xmlns:xlink="http://www.w3.org/1999/xlink" xmlns:ev="http://www.w3.org/2001/xml-events"
		xmlns:v="http://schemas.microsoft.com/visio/2003/SVGExtensions/" width="3.14119in" height="0.412892in"
		viewBox="0 0 226.165 29.7282" xml:space="preserve" color-interpolation-filters="sRGB" class="st6">
	<v:documentProperties v:langID="1028" v:viewMarkup="false"/>

	<style type="text/css">
	<![CDATA[
		.st1 {fill:none;stroke:none;stroke-linecap:butt;stroke-width:0.75}
		.st2 {fill:#000000;font-family:新細明體;font-size:0.833336em}
		.st3 {font-family:Times New Roman;font-size:1em}
		.st4 {fill:none}
		.st5 {stroke:#000000;stroke-linecap:round;stroke-linejoin:round;stroke-width:0.5625}
		.st6 {fill:none;fill-rule:evenodd;font-size:12px;overflow:visible;stroke-linecap:square;stroke-miterlimit:3}
	]]>
	</style>

	<g v:mID="0" v:index="1" v:groupContext="foregroundPage">
		<title>頁-1</title>
		<v:pageProperties v:drawingScale="0.0393701" v:pageScale="0.0393701" v:drawingUnits="24" v:shadowOffsetX="9"
				v:shadowOffsetY="-9"/>
		<g id="shape2-1" v:mID="2" v:groupContext="shape" transform="translate(72.1243,-18.099) rotate(0.1)">
			<title>工作表.2</title>
			<desc>有、無、非有非無。</desc>
			<v:textBlock v:margins="rect(0,0,0,0)" v:tabSpace="42.5197"/>
			<v:textRect cx="48.3161" cy="24.3282" width="96.64" height="10.8"/>
			<rect x="0" y="18.9282" width="96.6322" height="10.8" class="st1"/>
			<text x="0" y="27.44" class="st2" v:langID="1028"><v:paragraph/><v:tabList/>有、無、非有非無。</text>		</g>
		<g id="shape3-4" v:mID="3" v:groupContext="shape" transform="translate(0.801886,-9.14007) rotate(0.1)">
			<title>工作表.3</title>
			<desc>般若是中道─</desc>
			<v:textBlock v:margins="rect(0,0,0,0)" v:tabSpace="42.5197"/>
			<v:textRect cx="31.1798" cy="24.3282" width="62.36" height="10.8"/>
			<rect x="0" y="18.9282" width="62.3597" height="10.8" class="st1"/>
			<text x="0" y="27.44" class="st2" v:langID="1028"><v:paragraph/><v:tabList/>般若是中道<tspan class="st3">─</tspan></text>		</g>
		<g id="shape4-8" v:mID="4" v:groupContext="shape" transform="translate(72.0667,-1.09078) rotate(0.1)">
			<title>工作表.4</title>
			<desc>離是三門不墮愚痴能行善道。</desc>
			<v:textBlock v:margins="rect(0,0,0,0)" v:tabSpace="42.5197"/>
			<v:textRect cx="76.691" cy="24.3282" width="153.39" height="10.8"/>
			<rect x="0" y="18.9282" width="153.382" height="10.8" class="st1"/>
			<text x="0" y="27.44" class="st2" v:langID="1028"><v:paragraph/><v:tabList/>離是三門，不墮愚痴，能行善道。</text>		</g>
		<g id="shape11-11" v:mID="11" v:groupContext="shape" transform="translate(93.5725,1.81941) rotate(90.1)">
			<title>工作表.11</title>
			<path d="M0 23.72 C0 25.38 1 26.72 2.26 26.72 L11.23 26.72 C12.46 26.72 13.46 28.06 13.46 29.73 C13.46 28.06 14.46 26.72
						 15.72 26.72 L24.7 26.72 C25.93 26.72 26.93 25.38 26.93 23.72 L0 23.72 Z" class="st4"/>
			<path d="M0 23.72 C0 25.38 1 26.72 2.26 26.72 L11.23 26.72 C12.46 26.72 13.46 28.06 13.46 29.73 C13.46 28.06 14.46 26.72
						 15.72 26.72 L24.7 26.72 C25.93 26.72 26.93 25.38 26.93 23.72" class="st5"/>
		</g>
	</g>
</svg>
