<?xml version="1.0" encoding="UTF-8" standalone="no"?>
<!DOCTYPE svg PUBLIC "-//W3C//DTD SVG 1.1//EN" "http://www.w3.org/Graphics/SVG/1.1/DTD/svg11.dtd">
<!-- 由 Microsoft Visio, SVG Export 產生 B00901.svg 頁-1 -->
<svg xmlns="http://www.w3.org/2000/svg" xmlns:xlink="http://www.w3.org/1999/xlink" xmlns:ev="http://www.w3.org/2001/xml-events"
		xmlns:v="http://schemas.microsoft.com/visio/2003/SVGExtensions/" width="2.44442in" height="0.396954in"
		viewBox="0 0 175.998 28.5807" xml:space="preserve" color-interpolation-filters="sRGB" class="st6">
	<v:documentProperties v:langID="1028" v:viewMarkup="false"/>

	<style type="text/css">
	<![CDATA[
		.st1 {fill:none;stroke:none;stroke-linecap:butt;stroke-width:0.75}
		.st2 {fill:#000000;font-family:新細明體;font-size:0.833336em}
		.st3 {font-family:Times New Roman;font-size:1em}
		.st4 {fill:none}
		.st5 {stroke:#000000;stroke-linecap:round;stroke-linejoin:round;stroke-width:0.5625}
		.st6 {fill:none;fill-rule:evenodd;font-size:12px;overflow:visible;stroke-linecap:square;stroke-miterlimit:3}
	]]>
	</style>

	<g v:mID="0" v:index="1" v:groupContext="foregroundPage">
		<title>頁-1</title>
		<v:pageProperties v:drawingScale="0.0393701" v:pageScale="0.0393701" v:drawingUnits="24" v:shadowOffsetX="9"
				v:shadowOffsetY="-9"/>
		<g id="shape3-1" v:mID="3" v:groupContext="shape" transform="translate(51.1373,-16.9515) rotate(0.1)">
			<title>工作表.3</title>
			<desc>為初學者說─取相</desc>
			<v:textBlock v:margins="rect(0,0,0,0)" v:tabSpace="42.5197"/>
			<v:textRect cx="44.355" cy="23.1807" width="88.71" height="10.8"/>
			<rect x="0" y="17.7807" width="88.71" height="10.8" class="st1"/>
			<text x="-0" y="26.3" class="st2" v:langID="1028"><v:paragraph/><v:tabList/>為初學者說<tspan class="st3">─</tspan>取相</text>		</g>
		<g id="shape4-5" v:mID="4" v:groupContext="shape" transform="translate(0.799883,-8.21997) rotate(0.1)">
			<title>工作表.4</title>
			<desc>隨機說法</desc>
			<v:textBlock v:margins="rect(0,0,0,0)" v:tabSpace="42.5197"/>
			<v:textRect cx="21.7625" cy="23.1807" width="43.53" height="10.8"/>
			<rect x="0" y="17.7807" width="43.5251" height="10.8" class="st1"/>
			<text x="0" y="26.3" class="st2" v:langID="1028"><v:paragraph/><v:tabList/>隨機說法</text>		</g>
		<g id="shape5-8" v:mID="5" v:groupContext="shape" transform="translate(51.0797,-1.03842) rotate(0.1)">
			<title>工作表.5</title>
			<desc>為行道住解脫門者說─無相</desc>
			<v:textBlock v:margins="rect(0,0,0,0)" v:tabSpace="42.5197"/>
			<v:textRect cx="62.0999" cy="23.1807" width="124.2" height="10.8"/>
			<rect x="0" y="17.7807" width="124.2" height="10.8" class="st1"/>
			<text x="0" y="26.3" class="st2" v:langID="1028"><v:paragraph/><v:tabList/>為行道住解脫門者說<tspan class="st3">─</tspan>無相</text>		</g>
		<g id="shape12-12" v:mID="12" v:groupContext="shape" transform="translate(72.0307,1.2711) rotate(90.1)">
			<title>工作表.12</title>
			<path d="M0.03 22.3 C0 23.97 0.96 25.35 2.18 25.37 L11.05 25.49 C12.27 25.51 13.23 26.9 13.21 28.58 C13.23 26.9 14.25
						 25.53 15.49 25.55 L24.36 25.68 C25.58 25.7 26.59 24.36 26.65 22.67 L0.03 22.3 Z" class="st4"/>
			<path d="M0.03 22.3 C0 23.97 0.96 25.35 2.18 25.37 L11.05 25.49 C12.27 25.51 13.23 26.9 13.21 28.58 C13.23 26.9 14.25
						 25.53 15.49 25.55 L24.36 25.68 C25.58 25.7 26.59 24.36 26.65 22.67" class="st5"/>
		</g>
	</g>
</svg>
