<?xml version="1.0" encoding="UTF-8" standalone="no"?>
<!DOCTYPE svg PUBLIC "-//W3C//DTD SVG 1.1//EN" "http://www.w3.org/Graphics/SVG/1.1/DTD/svg11.dtd">
<!-- 由 Microsoft Visio, SVG Export 產生 B00806.svg 頁-1 -->
<svg xmlns="http://www.w3.org/2000/svg" xmlns:xlink="http://www.w3.org/1999/xlink" xmlns:ev="http://www.w3.org/2001/xml-events"
		xmlns:v="http://schemas.microsoft.com/visio/2003/SVGExtensions/" width="3.92952in" height="0.396937in"
		viewBox="0 0 282.926 28.5795" xml:space="preserve" color-interpolation-filters="sRGB" class="st6">
	<v:documentProperties v:langID="1028" v:viewMarkup="false"/>

	<style type="text/css">
	<![CDATA[
		.st1 {fill:none;stroke:none;stroke-linecap:butt;stroke-width:0.75}
		.st2 {fill:#000000;font-family:Times New Roman;font-size:0.833336em}
		.st3 {fill:#000000;font-family:新細明體;font-size:0.833336em}
		.st4 {fill:none}
		.st5 {stroke:#000000;stroke-linecap:round;stroke-linejoin:round;stroke-width:0.5625}
		.st6 {fill:none;fill-rule:evenodd;font-size:12px;overflow:visible;stroke-linecap:square;stroke-miterlimit:3}
	]]>
	</style>

	<g v:mID="0" v:index="1" v:groupContext="foregroundPage">
		<title>頁-1</title>
		<v:pageProperties v:drawingScale="0.0393701" v:pageScale="0.0393701" v:drawingUnits="24" v:shadowOffsetX="9"
				v:shadowOffsetY="-9"/>
		<g id="shape2-1" v:mID="2" v:groupContext="shape" transform="translate(149.297,-16.9581) rotate(0.1)">
			<title>工作表.2</title>
			<desc>1</desc>
			<v:textBlock v:margins="rect(0,0,0,0)" v:tabSpace="42.5197"/>
			<v:textRect cx="4.5" cy="23.1795" width="9.01" height="10.8"/>
			<rect x="0" y="17.7795" width="9" height="10.8" class="st1"/>
			<text x="0" y="26.18" class="st2" v:langID="1028"><v:paragraph/><v:tabList/>1</text>		</g>
		<g id="shape3-4" v:mID="3" v:groupContext="shape" transform="translate(153.796,-16.9503) rotate(0.1)">
			<title>工作表.3</title>
			<desc>、見佛供養心無厭故</desc>
			<v:textBlock v:margins="rect(0,0,0,0)" v:tabSpace="42.5197"/>
			<v:textRect cx="46.4927" cy="23.1795" width="92.99" height="10.8"/>
			<rect x="0" y="17.7795" width="92.9853" height="10.8" class="st1"/>
			<text x="0" y="26.29" class="st3" v:langID="1028"><v:paragraph/><v:tabList/>、見佛供養心無厭故</text>		</g>
		<g id="shape4-7" v:mID="4" v:groupContext="shape" transform="translate(0.799881,-9.02894) rotate(0.1)">
			<title>工作表.4</title>
			<desc>得法性生身菩薩二緣不取涅槃</desc>
			<v:textBlock v:margins="rect(0,0,0,0)" v:tabSpace="42.5197"/>
			<v:textRect cx="71.1509" cy="23.1795" width="142.31" height="10.8"/>
			<rect x="0" y="17.7795" width="142.302" height="10.8" class="st1"/>
			<text x="0" y="26.29" class="st3" v:langID="1028"><v:paragraph/><v:tabList/>得法性生身菩薩，二緣不取涅槃</text>		</g>
		<g id="shape5-10" v:mID="5" v:groupContext="shape" transform="translate(149.47,-1.03842) rotate(0.1)">
			<title>工作表.5</title>
			<desc>2</desc>
			<v:textBlock v:margins="rect(0,0,0,0)" v:tabSpace="42.5197"/>
			<v:textRect cx="2.83017" cy="23.1795" width="5.67" height="10.8"/>
			<rect x="0" y="17.7795" width="5.66034" height="10.8" class="st1"/>
			<text x="0" y="26.18" class="st2" v:langID="1028"><v:paragraph/><v:tabList/>2</text>		</g>
		<g id="shape6-13" v:mID="6" v:groupContext="shape" transform="translate(153.728,-1.03842) rotate(0.1)">
			<title>工作表.6</title>
			<desc>、本願度生淨土未滿足故</desc>
			<v:textBlock v:margins="rect(0,0,0,0)" v:tabSpace="42.5197"/>
			<v:textRect cx="64.2394" cy="23.1795" width="128.48" height="10.8"/>
			<rect x="0" y="17.7795" width="128.479" height="10.8" class="st1"/>
			<text x="-0" y="26.29" class="st3" v:langID="1028"><v:paragraph/><v:tabList/>、本願度生，淨土未滿足故</text>		</g>
		<g id="shape13-16" v:mID="13" v:groupContext="shape" transform="translate(171.596,1.8428) rotate(90.1)">
			<title>工作表.13</title>
			<path d="M0 23.21 C0 24.7 0.93 25.9 2.09 25.9 L10.41 25.9 C11.55 25.9 12.47 27.09 12.47 28.58 C12.47 27.09 13.4 25.9
						 14.56 25.9 L22.88 25.9 C24.02 25.9 24.94 24.7 24.94 23.21 L0 23.21 Z" class="st4"/>
			<path d="M0 23.21 C0 24.7 0.93 25.9 2.09 25.9 L10.41 25.9 C11.55 25.9 12.47 27.09 12.47 28.58 C12.47 27.09 13.4 25.9
						 14.56 25.9 L22.88 25.9 C24.02 25.9 24.94 24.7 24.94 23.21" class="st5"/>
		</g>
	</g>
</svg>
