<?xml version="1.0" encoding="UTF-8" standalone="no"?>
<!DOCTYPE svg PUBLIC "-//W3C//DTD SVG 1.1//EN" "http://www.w3.org/Graphics/SVG/1.1/DTD/svg11.dtd">
<!-- 由 Microsoft Visio, SVG Export 產生 B00909.svg 頁-1 -->
<svg xmlns="http://www.w3.org/2000/svg" xmlns:xlink="http://www.w3.org/1999/xlink" xmlns:ev="http://www.w3.org/2001/xml-events"
		xmlns:v="http://schemas.microsoft.com/visio/2003/SVGExtensions/" width="2.33002in" height="0.634605in"
		viewBox="0 0 167.762 45.6916" xml:space="preserve" color-interpolation-filters="sRGB" class="st6">
	<v:documentProperties v:langID="1028" v:viewMarkup="false"/>

	<style type="text/css">
	<![CDATA[
		.st1 {fill:none;stroke:none;stroke-linecap:butt;stroke-width:0.75}
		.st2 {fill:#000000;font-family:新細明體;font-size:0.833336em}
		.st3 {fill:none}
		.st4 {stroke:#000000;stroke-linecap:round;stroke-linejoin:round;stroke-width:0.5625}
		.st5 {stroke:#000000;stroke-dasharray:0.5625,1.125;stroke-linecap:round;stroke-linejoin:round;stroke-width:0.5625}
		.st6 {fill:none;fill-rule:evenodd;font-size:12px;overflow:visible;stroke-linecap:square;stroke-miterlimit:3}
	]]>
	</style>

	<g v:mID="0" v:index="1" v:groupContext="foregroundPage">
		<title>頁-1</title>
		<v:pageProperties v:drawingScale="0.0393701" v:pageScale="0.0393701" v:drawingUnits="24" v:shadowOffsetX="9"
				v:shadowOffsetY="-9"/>
		<g id="shape2-1" v:mID="2" v:groupContext="shape" transform="translate(0.88807,-34.0623) rotate(0.1)">
			<title>工作表.2</title>
			<desc>觀諸法相</desc>
			<v:textBlock v:margins="rect(0,0,0,0)" v:tabSpace="42.5197"/>
			<v:textRect cx="24.7439" cy="40.2916" width="49.49" height="10.8"/>
			<rect x="0" y="34.8916" width="49.4878" height="10.8" class="st1"/>
			<text x="0" y="43.41" class="st2" v:langID="1028"><v:paragraph/><v:tabList/>觀諸法相</text>		</g>
		<g id="shape3-4" v:mID="3" v:groupContext="shape" transform="translate(0.85857,-17.547) rotate(0.1)">
			<title>工作表.3</title>
			<desc>觀諸法無相</desc>
			<v:textBlock v:margins="rect(0,0,0,0)" v:tabSpace="42.5197"/>
			<v:textRect cx="33.2605" cy="40.2916" width="66.53" height="10.8"/>
			<rect x="0" y="34.8916" width="66.5211" height="10.8" class="st1"/>
			<text x="0" y="43.41" class="st2" v:langID="1028"><v:paragraph/><v:tabList/>觀諸法無相</text>		</g>
		<g id="shape4-7" v:mID="4" v:groupContext="shape" transform="translate(77.3585,-17.4134) rotate(0.1)">
			<title>工作表.4</title>
			<desc>念我能觀</desc>
			<v:textBlock v:margins="rect(0,0,0,0)" v:tabSpace="42.5197"/>
			<v:textRect cx="26.9003" cy="40.2916" width="53.81" height="10.8"/>
			<rect x="0" y="34.8916" width="53.8005" height="10.8" class="st1"/>
			<text x="-0" y="43.41" class="st2" v:langID="1028"><v:paragraph/><v:tabList/>念我能觀</text>		</g>
		<g id="shape5-10" v:mID="5" v:groupContext="shape" transform="translate(124.512,-15.6613) rotate(0.1)">
			<title>工作表.5</title>
			<desc>皆墮相中</desc>
			<v:textBlock v:margins="rect(0,0,0,0)" v:tabSpace="42.5197"/>
			<v:textRect cx="21.2805" cy="40.2916" width="42.57" height="10.8"/>
			<rect x="0" y="34.8916" width="42.561" height="10.8" class="st1"/>
			<text x="0" y="43.41" class="st2" v:langID="1028"><v:paragraph/><v:tabList/>皆墮相中</text>		</g>
		<g id="shape6-13" v:mID="6" v:groupContext="shape" transform="translate(0.829747,-1.03229) rotate(0.1)">
			<title>工作表.6</title>
			<desc>行真淨無相慧</desc>
			<v:textBlock v:margins="rect(0,0,0,0)" v:tabSpace="42.5197"/>
			<v:textRect cx="36.8199" cy="40.2916" width="73.64" height="10.8"/>
			<rect x="0" y="34.8916" width="73.6398" height="10.8" class="st1"/>
			<text x="-0" y="43.41" class="st2" v:langID="1028"><v:paragraph/><v:tabList/>行真淨無相慧</text>		</g>
		<g id="shape7-16" v:mID="7" v:groupContext="shape" transform="translate(77.3296,-0.898771) rotate(0.1)">
			<title>工作表.7</title>
			<desc>念此是行</desc>
			<v:textBlock v:margins="rect(0,0,0,0)" v:tabSpace="42.5197"/>
			<v:textRect cx="24.7904" cy="40.2916" width="49.59" height="10.8"/>
			<rect x="0" y="34.8916" width="49.5807" height="10.8" class="st1"/>
			<text x="-0" y="43.41" class="st2" v:langID="1028"><v:paragraph/><v:tabList/>念此是行</text>		</g>
		<g id="shape14-19" v:mID="14" v:groupContext="shape" transform="translate(163.06,6.125) rotate(90.1)">
			<title>工作表.14</title>
			<path d="M0 45.69 C0 44.26 1.41 43.07 3.19 43.07 L15.86 43.07 C17.63 43.07 19.05 41.89 19.05 40.44 C19.05 41.89 20.46
						 43.07 22.2 43.07 L34.87 43.07 C36.61 43.07 38.02 44.26 38.02 45.69 L0 45.69 Z" class="st3"/>
			<path d="M0 45.69 C0 44.26 1.41 43.07 3.19 43.07 L15.86 43.07 C17.63 43.07 19.05 41.89 19.05 40.44 C19.05 41.89 20.46
						 43.07 22.2 43.07 L34.87 43.07 C36.61 43.07 38.02 44.26 38.02 45.69" class="st4"/>
		</g>
		<g id="shape15-22" v:mID="15" v:groupContext="shape" transform="translate(43.0188,-39.8654) rotate(0.1)">
			<title>工作表.15</title>
			<path d="M0 45.69 L74.25 45.69" class="st4"/>
		</g>
		<g id="shape16-25" v:mID="16" v:groupContext="shape" transform="translate(53.4227,-22.0497)">
			<title>工作表.16</title>
			<path d="M0 45.69 L23.14 45.69" class="st5"/>
		</g>
		<g id="shape17-28" v:mID="17" v:groupContext="shape" transform="translate(63.0605,-6.0296)">
			<title>工作表.17</title>
			<path d="M0 45.69 L12.27 45.69" class="st5"/>
		</g>
	</g>
</svg>
