<?xml version="1.0" encoding="UTF-8" standalone="no"?>
<!DOCTYPE svg PUBLIC "-//W3C//DTD SVG 1.1//EN" "http://www.w3.org/Graphics/SVG/1.1/DTD/svg11.dtd">
<!-- 由 Microsoft Visio, SVG Export 產生 B00209.svg 頁-1 -->
<svg xmlns="http://www.w3.org/2000/svg" xmlns:xlink="http://www.w3.org/1999/xlink" xmlns:ev="http://www.w3.org/2001/xml-events"
		xmlns:v="http://schemas.microsoft.com/visio/2003/SVGExtensions/" width="1.73983in" height="0.42164in"
		viewBox="0 0 125.268 30.3581" xml:space="preserve" color-interpolation-filters="sRGB" class="st5">
	<v:documentProperties v:langID="1028" v:viewMarkup="false"/>

	<style type="text/css">
	<![CDATA[
		.st1 {fill:none;stroke:none;stroke-linecap:butt;stroke-width:0.75}
		.st2 {fill:#000000;font-family:新細明體;font-size:0.833336em}
		.st3 {fill:none}
		.st4 {stroke:#000000;stroke-linecap:round;stroke-linejoin:round;stroke-width:0.5625}
		.st5 {fill:none;fill-rule:evenodd;font-size:12px;overflow:visible;stroke-linecap:square;stroke-miterlimit:3}
	]]>
	</style>

	<g v:mID="0" v:index="1" v:groupContext="foregroundPage">
		<title>頁-1</title>
		<v:pageProperties v:drawingScale="0.0393701" v:pageScale="0.0393701" v:drawingUnits="24" v:shadowOffsetX="9"
				v:shadowOffsetY="-9"/>
		<g id="group11-1" transform="translate(0.75,-0.77614)" v:mID="11" v:groupContext="group">
			<title>工作表.11</title>
			<g id="shape1-2" v:mID="1" v:groupContext="shape" transform="translate(73.536,-17.9527) rotate(0.1)">
				<title>工作表.1</title>
				<desc>有為</desc>
				<v:textBlock v:margins="rect(0,0,0,0)" v:tabSpace="42.5197"/>
				<v:textRect cx="18.0498" cy="24.9581" width="36.1" height="10.8"/>
				<rect x="0" y="19.5581" width="36.0997" height="10.8" class="st1"/>
				<text x="-0" y="28.07" class="st2" v:langID="1028"><v:paragraph/><v:tabList/>有為</text>			</g>
			<g id="shape2-5" v:mID="2" v:groupContext="shape" transform="translate(0.0529848,-8.31245) rotate(0.1)">
				<title>工作表.2</title>
				<desc>二法攝一切法</desc>
				<v:textBlock v:margins="rect(0,0,0,0)" v:tabSpace="42.5197"/>
				<v:textRect cx="37.3329" cy="24.9581" width="74.67" height="10.8"/>
				<rect x="0" y="19.5581" width="74.6658" height="10.8" class="st1"/>
				<text x="0" y="28.07" class="st2" v:langID="1028"><v:paragraph/><v:tabList/>二法攝一切法</text>			</g>
			<g id="shape3-8" v:mID="3" v:groupContext="shape" transform="translate(73.5,-0.0877471) rotate(0.1)">
				<title>工作表.3</title>
				<desc>無為</desc>
				<v:textBlock v:margins="rect(0,0,0,0)" v:tabSpace="42.5197"/>
				<v:textRect cx="25.1509" cy="24.9581" width="50.31" height="10.8"/>
				<rect x="0" y="19.5581" width="50.3019" height="10.8" class="st1"/>
				<text x="0" y="28.07" class="st2" v:langID="1028"><v:paragraph/><v:tabList/>無為</text>			</g>
			<g id="shape10-11" v:mID="10" v:groupContext="shape" transform="translate(93.7884,1.92122) rotate(90.1)">
				<title>工作表.10</title>
				<path d="M0 23.61 C0 25.5 1.07 26.98 2.33 26.98 L11.78 26.98 C13.1 26.98 14.17 28.51 14.17 30.36 C14.17 28.51 15.24
							 26.98 16.5 26.98 L25.95 26.98 C27.28 26.98 28.35 25.5 28.35 23.61 L0 23.61 Z" class="st3"/>
				<path d="M0 23.61 C0 25.5 1.07 26.98 2.33 26.98 L11.78 26.98 C13.1 26.98 14.17 28.51 14.17 30.36 C14.17 28.51 15.24
							 26.98 16.5 26.98 L25.95 26.98 C27.28 26.98 28.35 25.5 28.35 23.61" class="st4"/>
			</g>
		</g>
	</g>
</svg>
