<?xml version="1.0" encoding="UTF-8" standalone="no"?>
<!DOCTYPE svg PUBLIC "-//W3C//DTD SVG 1.1//EN" "http://www.w3.org/Graphics/SVG/1.1/DTD/svg11.dtd">
<!-- 由 Microsoft Visio, SVG Export 產生 B01004.svg 頁-1 -->
<svg xmlns="http://www.w3.org/2000/svg" xmlns:xlink="http://www.w3.org/1999/xlink" xmlns:ev="http://www.w3.org/2001/xml-events"
		xmlns:v="http://schemas.microsoft.com/visio/2003/SVGExtensions/" width="2.84283in" height="0.773265in"
		viewBox="0 0 204.684 55.6751" xml:space="preserve" color-interpolation-filters="sRGB" class="st6">
	<v:documentProperties v:langID="1028" v:viewMarkup="false"/>

	<style type="text/css">
	<![CDATA[
		.st1 {fill:none;stroke:none;stroke-linecap:butt;stroke-width:0.75}
		.st2 {fill:#000000;font-family:新細明體;font-size:0.833336em}
		.st3 {fill:#000000;font-family:Times New Roman;font-size:0.833336em}
		.st4 {stroke:#000000;stroke-linecap:round;stroke-linejoin:round;stroke-width:0.5625}
		.st5 {fill:none}
		.st6 {fill:none;fill-rule:evenodd;font-size:12px;overflow:visible;stroke-linecap:square;stroke-miterlimit:3}
	]]>
	</style>

	<g v:mID="0" v:index="1" v:groupContext="foregroundPage">
		<title>頁-1</title>
		<v:pageProperties v:drawingScale="0.0393701" v:pageScale="0.0393701" v:drawingUnits="24" v:shadowOffsetX="9"
				v:shadowOffsetY="-9"/>
		<g id="shape2-1" v:mID="2" v:groupContext="shape" transform="translate(170.006,-44.0458) rotate(0.1)">
			<title>工作表.2</title>
			<desc>善法</desc>
			<v:textBlock v:margins="rect(0,0,0,0)" v:tabSpace="42.5197"/>
			<v:textRect cx="12.3028" cy="50.2751" width="24.61" height="10.8"/>
			<rect x="0" y="44.8751" width="24.6056" height="10.8" class="st1"/>
			<text x="0" y="53.39" class="st2" v:langID="1028"><v:paragraph/><v:tabList/>善法</text>		</g>
		<g id="shape3-4" v:mID="3" v:groupContext="shape" transform="translate(141.9,-36.898) rotate(0.1)">
			<title>工作表.3</title>
			<desc>記法</desc>
			<v:textBlock v:margins="rect(0,0,0,0)" v:tabSpace="42.5197"/>
			<v:textRect cx="14.0422" cy="50.2751" width="28.09" height="10.8"/>
			<rect x="0" y="44.8751" width="28.0844" height="10.8" class="st1"/>
			<text x="0" y="53.39" class="st2" v:langID="1028"><v:paragraph/><v:tabList/>記法</text>		</g>
		<g id="shape4-7" v:mID="4" v:groupContext="shape" transform="translate(57.1341,-26.5165) rotate(0.1)">
			<title>工作表.4</title>
			<desc>有漏法</desc>
			<v:textBlock v:margins="rect(0,0,0,0)" v:tabSpace="42.5197"/>
			<v:textRect cx="16.2892" cy="50.2751" width="32.58" height="10.8"/>
			<rect x="0" y="44.8751" width="32.5784" height="10.8" class="st1"/>
			<text x="0" y="53.39" class="st2" v:langID="1028"><v:paragraph/><v:tabList/>有漏法</text>		</g>
		<g id="shape5-10" v:mID="5" v:groupContext="shape" transform="translate(88.634,-26.4615) rotate(0.1)">
			<title>工作表.5</title>
			<desc>─</desc>
			<v:textBlock v:margins="rect(0,0,0,0)" v:tabSpace="42.5197"/>
			<v:textRect cx="4.5" cy="50.2751" width="9" height="10.8"/>
			<rect x="0" y="44.8751" width="9" height="10.8" class="st1"/>
			<text x="-0" y="53.27" class="st3" v:langID="1028"><v:paragraph/><v:tabList/>─</text>		</g>
		<g id="shape6-13" v:mID="6" v:groupContext="shape" transform="translate(102.134,-26.438) rotate(0.1)">
			<title>工作表.6</title>
			<desc>世間法</desc>
			<v:textBlock v:margins="rect(0,0,0,0)" v:tabSpace="42.5197"/>
			<v:textRect cx="20.0097" cy="50.2751" width="40.02" height="10.8"/>
			<rect x="0" y="44.8751" width="40.0193" height="10.8" class="st1"/>
			<text x="0" y="53.39" class="st2" v:langID="1028"><v:paragraph/><v:tabList/>世間法</text>		</g>
		<g id="shape7-16" v:mID="7" v:groupContext="shape" transform="translate(169.946,-30.1418) rotate(0.1)">
			<title>工作表.7</title>
			<desc>不善法</desc>
			<v:textBlock v:margins="rect(0,0,0,0)" v:tabSpace="42.5197"/>
			<v:textRect cx="17.0332" cy="50.2751" width="34.07" height="10.8"/>
			<rect x="0" y="44.8751" width="34.0664" height="10.8" class="st1"/>
			<text x="-0" y="53.39" class="st2" v:langID="1028"><v:paragraph/><v:tabList/>不善法</text>		</g>
		<g id="shape8-19" v:mID="8" v:groupContext="shape" transform="translate(0.847171,-14.0796) rotate(0.1)">
			<title>工作表.8</title>
			<desc>一切法</desc>
			<v:textBlock v:margins="rect(0,0,0,0)" v:tabSpace="42.5197"/>
			<v:textRect cx="19.5277" cy="50.2751" width="39.06" height="10.8"/>
			<rect x="0" y="44.8751" width="39.0553" height="10.8" class="st1"/>
			<text x="-0" y="53.39" class="st2" v:langID="1028"><v:paragraph/><v:tabList/>一切法</text>		</g>
		<g id="shape9-22" v:mID="9" v:groupContext="shape" transform="translate(142.113,-15.8561) rotate(0.1)">
			<title>工作表.9</title>
			<desc>無記法</desc>
			<v:textBlock v:margins="rect(0,0,0,0)" v:tabSpace="42.5197"/>
			<v:textRect cx="18.2873" cy="50.2751" width="36.58" height="10.8"/>
			<rect x="0" y="44.8751" width="36.5747" height="10.8" class="st1"/>
			<text x="-0" y="53.39" class="st2" v:langID="1028"><v:paragraph/><v:tabList/>無記法</text>		</g>
		<g id="shape10-25" v:mID="10" v:groupContext="shape" transform="translate(57.0758,-0.977295) rotate(0.1)">
			<title>工作表.10</title>
			<desc>無漏法</desc>
			<v:textBlock v:margins="rect(0,0,0,0)" v:tabSpace="42.5197"/>
			<v:textRect cx="19.8613" cy="50.2751" width="39.73" height="10.8"/>
			<rect x="0" y="44.8751" width="39.7226" height="10.8" class="st1"/>
			<text x="0" y="53.39" class="st2" v:langID="1028"><v:paragraph/><v:tabList/>無漏法</text>		</g>
		<g id="shape11-28" v:mID="11" v:groupContext="shape" transform="translate(88.5757,-0.922318) rotate(0.1)">
			<title>工作表.11</title>
			<desc>─</desc>
			<v:textBlock v:margins="rect(0,0,0,0)" v:tabSpace="42.5197"/>
			<v:textRect cx="4.5" cy="50.2751" width="9" height="10.8"/>
			<rect x="0" y="44.8751" width="9" height="10.8" class="st1"/>
			<text x="-0" y="53.27" class="st3" v:langID="1028"><v:paragraph/><v:tabList/>─</text>		</g>
		<g id="shape12-31" v:mID="12" v:groupContext="shape" transform="translate(102.076,-0.898756) rotate(0.1)">
			<title>工作表.12</title>
			<desc>出世間法</desc>
			<v:textBlock v:margins="rect(0,0,0,0)" v:tabSpace="42.5197"/>
			<v:textRect cx="23.5817" cy="50.2751" width="47.17" height="10.8"/>
			<rect x="0" y="44.8751" width="47.1635" height="10.8" class="st1"/>
			<text x="0" y="53.39" class="st2" v:langID="1028"><v:paragraph/><v:tabList/>出世間法</text>		</g>
		<g id="shape24-34" v:mID="24" v:groupContext="shape" transform="translate(46.9024,92.3759) rotate(180)">
			<title>工作表.24</title>
			<path d="M0 55.68 L14.6 55.68" class="st4"/>
		</g>
		<g id="shape25-37" v:mID="25" v:groupContext="shape" transform="translate(105.642,18.5368) rotate(90.1)">
			<title>工作表.25</title>
			<path d="M0 49.43 C0 51.17 1.35 52.57 3.01 52.57 L14.98 52.57 C16.64 52.57 17.99 53.96 17.99 55.68 C17.99 53.96 19.34
						 52.57 20.96 52.57 L32.96 52.57 C34.62 52.57 35.97 51.17 35.97 49.43 L0 49.43 Z" class="st5"/>
			<path d="M0 49.43 C0 51.17 1.35 52.57 3.01 52.57 L14.98 52.57 C16.64 52.57 17.99 53.96 17.99 55.68 C17.99 53.96 19.34
						 52.57 20.96 52.57 L32.96 52.57 C34.62 52.57 35.97 51.17 35.97 49.43" class="st4"/>
		</g>
		<g id="shape26-40" v:mID="26" v:groupContext="shape" transform="translate(190.276,8.04045) rotate(90.1)">
			<title>工作表.26</title>
			<path d="M0 49.7 C0 51.36 1.19 52.69 2.63 52.69 L13.25 52.69 C14.74 52.69 15.93 54.04 15.93 55.68 C15.93 54.04 17.12
						 52.69 18.56 52.69 L29.18 52.69 C30.67 52.69 31.86 51.36 31.86 49.7 L0 49.7 Z" class="st5"/>
			<path d="M0 49.7 C0 51.36 1.19 52.69 2.63 52.69 L13.25 52.69 C14.74 52.69 15.93 54.04 15.93 55.68 C15.93 54.04 17.12
						 52.69 18.56 52.69 L29.18 52.69 C30.67 52.69 31.86 51.36 31.86 49.7" class="st4"/>
		</g>
		<g id="shape27-43" v:mID="27" v:groupContext="shape" transform="translate(219.517,1.28103) rotate(90.1)">
			<title>工作表.27</title>
			<path d="M0 50.48 C0 51.91 0.9 53.08 1.98 53.08 L9.89 53.08 C10.97 53.08 11.87 54.24 11.87 55.68 C11.87 54.24 12.76 53.08
						 13.84 53.08 L21.75 53.08 C22.84 53.08 23.73 51.91 23.73 50.48 L0 50.48 Z" class="st5"/>
			<path d="M0 50.48 C0 51.91 0.9 53.08 1.98 53.08 L9.89 53.08 C10.97 53.08 11.87 54.24 11.87 55.68 C11.87 54.24 12.76 53.08
						 13.84 53.08 L21.75 53.08 C22.84 53.08 23.73 51.91 23.73 50.48" class="st4"/>
		</g>
	</g>
</svg>
