<?xml version="1.0" encoding="UTF-8" standalone="no"?>
<!DOCTYPE svg PUBLIC "-//W3C//DTD SVG 1.1//EN" "http://www.w3.org/Graphics/SVG/1.1/DTD/svg11.dtd">
<!-- 由 Microsoft Visio, SVG Export 產生 B01002.svg 頁-1 -->
<svg xmlns="http://www.w3.org/2000/svg" xmlns:xlink="http://www.w3.org/1999/xlink" xmlns:ev="http://www.w3.org/2001/xml-events"
		xmlns:v="http://schemas.microsoft.com/visio/2003/SVGExtensions/" width="1.30664in" height="0.592274in"
		viewBox="0 0 94.0781 42.6437" xml:space="preserve" color-interpolation-filters="sRGB" class="st6">
	<v:documentProperties v:langID="1028" v:viewMarkup="false"/>

	<style type="text/css">
	<![CDATA[
		.st1 {fill:none;stroke:none;stroke-linecap:butt;stroke-width:0.75}
		.st2 {fill:#000000;font-family:新細明體;font-size:0.833336em}
		.st3 {font-family:Times New Roman;font-size:1em}
		.st4 {fill:none}
		.st5 {stroke:#000000;stroke-linecap:round;stroke-linejoin:round;stroke-width:0.5625}
		.st6 {fill:none;fill-rule:evenodd;font-size:12px;overflow:visible;stroke-linecap:square;stroke-miterlimit:3}
	]]>
	</style>

	<g v:mID="0" v:index="1" v:groupContext="foregroundPage">
		<title>頁-1</title>
		<v:pageProperties v:drawingScale="0.0393701" v:pageScale="0.0393701" v:drawingUnits="24" v:shadowOffsetX="9"
				v:shadowOffsetY="-9"/>
		<g id="group7-1" transform="translate(0.75,-0.823925)" v:mID="7" v:groupContext="group">
			<title>工作表.7</title>
			<g id="shape2-2" v:mID="2" v:groupContext="shape" transform="translate(70.1015,-30.1905) rotate(0.1)">
				<title>工作表.2</title>
				<desc>懺悔</desc>
				<v:textBlock v:margins="rect(0,0,0,0)" v:tabSpace="42.5197"/>
				<v:textRect cx="10.8415" cy="37.2437" width="21.69" height="10.8"/>
				<rect x="0" y="31.8437" width="21.683" height="10.8" class="st1"/>
				<text x="0" y="40.36" class="st2" v:langID="1028"><v:paragraph/><v:tabList/>懺悔</text>			</g>
			<g id="shape3-5" v:mID="3" v:groupContext="shape" transform="translate(70.2161,-15.1973) rotate(0.1)">
				<title>工作表.3</title>
				<desc>隨喜</desc>
				<v:textBlock v:margins="rect(0,0,0,0)" v:tabSpace="42.5197"/>
				<v:textRect cx="10.7835" cy="37.2437" width="21.57" height="10.8"/>
				<rect x="0" y="31.8437" width="21.567" height="10.8" class="st1"/>
				<text x="0" y="40.36" class="st2" v:langID="1028"><v:paragraph/><v:tabList/>隨喜</text>			</g>
			<g id="shape4-8" v:mID="4" v:groupContext="shape" transform="translate(0.0744273,-15.347) rotate(0.1)">
				<title>工作表.4</title>
				<desc>方便生福德─</desc>
				<v:textBlock v:margins="rect(0,0,0,0)" v:tabSpace="42.5197"/>
				<v:textRect cx="31.4311" cy="37.2437" width="62.87" height="10.8"/>
				<rect x="0" y="31.8437" width="62.8622" height="10.8" class="st1"/>
				<text x="0" y="40.36" class="st2" v:langID="1028"><v:paragraph/><v:tabList/>方便生福德<tspan class="st3">─</tspan></text>			</g>
			<g id="shape5-12" v:mID="5" v:groupContext="shape" transform="translate(69.7104,-0.0399438) rotate(0.1)">
				<title>工作表.5</title>
				<desc>勸請</desc>
				<v:textBlock v:margins="rect(0,0,0,0)" v:tabSpace="42.5197"/>
				<v:textRect cx="11.4617" cy="37.2437" width="22.93" height="10.8"/>
				<rect x="0" y="31.8437" width="22.9233" height="10.8" class="st1"/>
				<text x="0" y="40.36" class="st2" v:langID="1028"><v:paragraph/><v:tabList/>勸請</text>			</g>
			<g id="shape6-15" v:mID="6" v:groupContext="shape" transform="translate(105.567,2.16104) rotate(90.1)">
				<title>工作表.6</title>
				<path d="M0 36.69 C0 38.34 1.47 39.67 3.29 39.67 L16.52 39.67 C18.37 39.67 19.84 41.02 19.84 42.64 C19.84 41.02 21.32
							 39.67 23.13 39.67 L36.36 39.67 C38.21 39.67 39.69 38.34 39.69 36.69 L0 36.69 Z" class="st4"/>
				<path d="M0 36.69 C0 38.34 1.47 39.67 3.29 39.67 L16.52 39.67 C18.37 39.67 19.84 41.02 19.84 42.64 C19.84 41.02 21.32
							 39.67 23.13 39.67 L36.36 39.67 C38.21 39.67 39.69 38.34 39.69 36.69" class="st5"/>
			</g>
		</g>
	</g>
</svg>
