<?xml version="1.0" encoding="UTF-8" standalone="no"?>
<!DOCTYPE svg PUBLIC "-//W3C//DTD SVG 1.1//EN" "http://www.w3.org/Graphics/SVG/1.1/DTD/svg11.dtd">
<!-- 由 Microsoft Visio, SVG Export 產生 B01008.svg 頁-1 -->
<svg xmlns="http://www.w3.org/2000/svg" xmlns:xlink="http://www.w3.org/1999/xlink" xmlns:ev="http://www.w3.org/2001/xml-events"
		xmlns:v="http://schemas.microsoft.com/visio/2003/SVGExtensions/" width="3.33079in" height="0.458412in"
		viewBox="0 0 239.817 33.0057" xml:space="preserve" color-interpolation-filters="sRGB" class="st6">
	<v:documentProperties v:langID="1028" v:viewMarkup="false"/>

	<style type="text/css">
	<![CDATA[
		.st1 {fill:none;stroke:none;stroke-linecap:butt;stroke-width:0.75}
		.st2 {fill:#000000;font-family:新細明體;font-size:0.833336em}
		.st3 {font-family:Times New Roman;font-size:1em}
		.st4 {fill:none}
		.st5 {stroke:#000000;stroke-linecap:round;stroke-linejoin:round;stroke-width:0.5625}
		.st6 {fill:none;fill-rule:evenodd;font-size:12px;overflow:visible;stroke-linecap:square;stroke-miterlimit:3}
	]]>
	</style>

	<g v:mID="0" v:index="1" v:groupContext="foregroundPage">
		<title>頁-1</title>
		<v:pageProperties v:drawingScale="0.0393701" v:pageScale="0.0393701" v:drawingUnits="24" v:shadowOffsetX="9"
				v:shadowOffsetY="-9"/>
		<g id="shape2-1" v:mID="2" v:groupContext="shape" transform="translate(102.192,-21.0911) rotate(0.1)">
			<title>工作表.2</title>
			<desc>無方便觀─皆是法見</desc>
			<v:textBlock v:margins="rect(0,0,0,0)" v:tabSpace="42.5197"/>
			<v:textRect cx="49.7474" cy="27.6057" width="99.5" height="10.8"/>
			<rect x="0" y="22.2057" width="99.4948" height="10.8" class="st1"/>
			<text x="0" y="30.72" class="st2" v:langID="1028"><v:paragraph/><v:tabList/>無方便觀<tspan class="st3">─</tspan>皆是法見</text>		</g>
		<g id="shape3-5" v:mID="3" v:groupContext="shape" transform="translate(0.807606,-11.1479) rotate(0.1)">
			<title>工作表.3</title>
			<desc>色等五眾乃至諸佛法</desc>
			<v:textBlock v:margins="rect(0,0,0,0)" v:tabSpace="42.5197"/>
			<v:textRect cx="46.1464" cy="27.6057" width="92.3" height="10.8"/>
			<rect x="0" y="22.2057" width="92.2927" height="10.8" class="st1"/>
			<text x="0" y="30.72" class="st2" v:langID="1028"><v:paragraph/><v:tabList/>色等五眾乃至諸佛法</text>		</g>
		<g id="shape4-8" v:mID="4" v:groupContext="shape" transform="translate(100.65,-1.05587) rotate(0.1)">
			<title>工作表.4</title>
			<desc>有方便觀─是菩薩行能斷邪見</desc>
			<v:textBlock v:margins="rect(0,0,0,0)" v:tabSpace="42.5197"/>
			<v:textRect cx="69.228" cy="27.6057" width="138.46" height="10.8"/>
			<rect x="0" y="22.2057" width="138.456" height="10.8" class="st1"/>
			<text x="0" y="30.72" class="st2" v:langID="1028"><v:paragraph/><v:tabList/>有方便觀<tspan class="st3">─</tspan>是菩薩行能斷邪見</text>		</g>
		<g id="shape11-12" v:mID="11" v:groupContext="shape" transform="translate(126.836,0.328358) rotate(90.1)">
			<title>工作表.11</title>
			<path d="M0 26.99 C0 28.65 1.18 30 2.63 30 L13.2 30 C14.68 30 15.86 31.36 15.86 33.01 C15.86 31.36 17.04 30 18.49 30
						 L29.07 30 C30.55 30 31.73 28.65 31.73 26.99 L0 26.99 Z" class="st4"/>
			<path d="M0 26.99 C0 28.65 1.18 30 2.63 30 L13.2 30 C14.68 30 15.86 31.36 15.86 33.01 C15.86 31.36 17.04 30 18.49 30
						 L29.07 30 C30.55 30 31.73 28.65 31.73 26.99" class="st5"/>
		</g>
	</g>
</svg>
