<?xml version="1.0" encoding="UTF-8" standalone="no"?>
<!DOCTYPE svg PUBLIC "-//W3C//DTD SVG 1.1//EN" "http://www.w3.org/Graphics/SVG/1.1/DTD/svg11.dtd">
<!-- 由 Microsoft Visio, SVG Export 產生 B01105.svg 頁-1 -->
<svg xmlns="http://www.w3.org/2000/svg" xmlns:xlink="http://www.w3.org/1999/xlink" xmlns:ev="http://www.w3.org/2001/xml-events"
		xmlns:v="http://schemas.microsoft.com/visio/2003/SVGExtensions/" width="1.91107in" height="0.377435in"
		viewBox="0 0 137.597 27.1753" xml:space="preserve" color-interpolation-filters="sRGB" class="st6">
	<v:documentProperties v:langID="1028" v:viewMarkup="false"/>

	<style type="text/css">
	<![CDATA[
		.st1 {fill:none;stroke:none;stroke-linecap:butt;stroke-width:0.75}
		.st2 {fill:#000000;font-family:新細明體;font-size:0.833336em}
		.st3 {font-family:Times New Roman;font-size:1em}
		.st4 {fill:none}
		.st5 {stroke:#000000;stroke-linecap:round;stroke-linejoin:round;stroke-width:0.5625}
		.st6 {fill:none;fill-rule:evenodd;font-size:12px;overflow:visible;stroke-linecap:square;stroke-miterlimit:3}
	]]>
	</style>

	<g v:mID="0" v:index="1" v:groupContext="foregroundPage">
		<title>頁-1</title>
		<v:pageProperties v:drawingScale="0.0393701" v:pageScale="0.0393701" v:drawingUnits="24" v:shadowOffsetX="9"
				v:shadowOffsetY="-9"/>
		<g id="shape2-1" v:mID="2" v:groupContext="shape" transform="translate(42.965,-15.5461) rotate(0.1)">
			<title>工作表.2</title>
			<desc>信行性─多觀無常苦</desc>
			<v:textBlock v:margins="rect(0,0,0,0)" v:tabSpace="42.5197"/>
			<v:textRect cx="46.9555" cy="21.7753" width="93.92" height="10.8"/>
			<rect x="0" y="16.3753" width="93.9111" height="10.8" class="st1"/>
			<text x="0" y="24.89" class="st2" v:langID="1028"><v:paragraph/><v:tabList/>信行性<tspan class="st3">─</tspan>多觀無常苦</text>		</g>
		<g id="shape3-5" v:mID="3" v:groupContext="shape" transform="translate(0.79743,-11.2336) rotate(0.1)">
			<title>工作表.3</title>
			<desc>二種性</desc>
			<v:textBlock v:margins="rect(0,0,0,0)" v:tabSpace="42.5197"/>
			<v:textRect cx="19.8626" cy="24.2597" width="39.73" height="5.83126"/>
			<rect x="0" y="21.3441" width="39.7251" height="5.83126" class="st1"/>
			<text x="0" y="27.37" class="st2" v:langID="1028"><v:paragraph/><v:tabList/>二種性</text>		</g>
		<g id="shape4-8" v:mID="4" v:groupContext="shape" transform="translate(42.9075,-0.986066) rotate(0.1)">
			<title>工作表.4</title>
			<desc>法行性─多觀空無我</desc>
			<v:textBlock v:margins="rect(0,0,0,0)" v:tabSpace="42.5197"/>
			<v:textRect cx="46.984" cy="21.7753" width="93.97" height="10.8"/>
			<rect x="0" y="16.3753" width="93.968" height="10.8" class="st1"/>
			<text x="0" y="24.89" class="st2" v:langID="1028"><v:paragraph/><v:tabList/>法行性<tspan class="st3">─</tspan>多觀空無我</text>		</g>
		<g id="shape11-12" v:mID="11" v:groupContext="shape" transform="translate(61.9766,0.358353) rotate(90.1)">
			<title>工作表.11</title>
			<path d="M0 21.51 C0 23.07 0.95 24.34 2.14 24.34 L10.64 24.34 C11.81 24.34 12.76 25.63 12.76 27.18 C12.76 25.63 13.7
						 24.34 14.89 24.34 L23.4 24.34 C24.56 24.34 25.51 23.07 25.51 21.51 L0 21.51 Z" class="st4"/>
			<path d="M0 21.51 C0 23.07 0.95 24.34 2.14 24.34 L10.64 24.34 C11.81 24.34 12.76 25.63 12.76 27.18 C12.76 25.63 13.7
						 24.34 14.89 24.34 L23.4 24.34 C24.56 24.34 25.51 23.07 25.51 21.51" class="st5"/>
		</g>
	</g>
</svg>
