<?xml version="1.0" encoding="UTF-8" standalone="no"?>
<!DOCTYPE svg PUBLIC "-//W3C//DTD SVG 1.1//EN" "http://www.w3.org/Graphics/SVG/1.1/DTD/svg11.dtd">
<!-- 由 Microsoft Visio, SVG Export 產生 B01101.svg 頁-1 -->
<svg xmlns="http://www.w3.org/2000/svg" xmlns:xlink="http://www.w3.org/1999/xlink" xmlns:ev="http://www.w3.org/2001/xml-events"
		xmlns:v="http://schemas.microsoft.com/visio/2003/SVGExtensions/" width="6.70602in" height="0.393964in"
		viewBox="0 0 482.834 28.3654" xml:space="preserve" color-interpolation-filters="sRGB" class="st6">
	<v:documentProperties v:langID="1028" v:viewMarkup="false"/>

	<style type="text/css">
	<![CDATA[
		.st1 {fill:none;stroke:none;stroke-linecap:butt;stroke-width:0.75}
		.st2 {fill:#000000;font-family:新細明體;font-size:0.833336em}
		.st3 {font-family:Times New Roman;font-size:1em}
		.st4 {fill:none}
		.st5 {stroke:#000000;stroke-linecap:round;stroke-linejoin:round;stroke-width:0.5625}
		.st6 {fill:none;fill-rule:evenodd;font-size:12px;overflow:visible;stroke-linecap:square;stroke-miterlimit:3}
	]]>
	</style>

	<g v:mID="0" v:index="1" v:groupContext="foregroundPage">
		<title>頁-1</title>
		<v:pageProperties v:drawingScale="0.0393701" v:pageScale="0.0393701" v:drawingUnits="24" v:shadowOffsetX="9"
				v:shadowOffsetY="-9"/>
		<g id="shape3-1" v:mID="3" v:groupContext="shape" transform="translate(169.481,-16.7362) rotate(0.1)">
			<title>工作表.3</title>
			<desc>但住凡夫地分別是垢是淨。</desc>
			<v:textBlock v:margins="rect(0,0,0,0)" v:tabSpace="42.5197"/>
			<v:textRect cx="67.8424" cy="22.9654" width="135.69" height="10.8"/>
			<rect x="0" y="17.5654" width="135.685" height="10.8" class="st1"/>
			<text x="0" y="26.08" class="st2" v:langID="1028"><v:paragraph/><v:tabList/>但住凡夫地，分別是垢是淨。</text>		</g>
		<g id="shape4-4" v:mID="4" v:groupContext="shape" transform="translate(0.799507,-8.73638) rotate(0.1)">
			<title>工作表.4</title>
			<desc>染煩惱實相淨性空心相不二</desc>
			<v:textBlock v:margins="rect(0,0,0,0)" v:tabSpace="42.5197"/>
			<v:textRect cx="81.3756" cy="22.9654" width="162.76" height="10.8"/>
			<rect x="0" y="17.5654" width="162.751" height="10.8" class="st1"/>
			<text x="0" y="26.08" class="st2" v:langID="1028"><v:paragraph/><v:tabList/>染（煩惱實相）淨（性空心相）不二</text>		</g>
		<g id="shape5-7" v:mID="5" v:groupContext="shape" transform="translate(169.388,-1.37004) rotate(0.1)">
			<title>工作表.5</title>
			<desc>住聖人地修無相慧無所分別……憐憫眾生雖復有說心無所著。</desc>
			<v:textBlock v:margins="rect(0,0,0,0)" v:tabSpace="42.5197"/>
			<v:textRect cx="156.364" cy="22.9654" width="312.73" height="10.8"/>
			<rect x="0" y="17.5654" width="312.727" height="10.8" class="st1"/>
			<text x="0" y="26.08" class="st2" v:langID="1028"><v:paragraph/><v:tabList/>住聖人地，修無相慧，無所分別<tspan class="st3">……</tspan>憐憫眾生，雖復有說，心無所著。</text>		</g>
		<g id="shape12-11" v:mID="12" v:groupContext="shape" transform="translate(191.402,2.2361) rotate(90.1)">
			<title>工作表.12</title>
			<path d="M0 22.6 C0 24.2 0.84 25.48 1.9 25.48 L9.46 25.48 C10.5 25.48 11.34 26.79 11.34 28.37 C11.34 26.79 12.18 25.48
						 13.24 25.48 L20.8 25.48 C21.83 25.48 22.68 24.2 22.68 22.6 L0 22.6 Z" class="st4"/>
			<path d="M0 22.6 C0 24.2 0.84 25.48 1.9 25.48 L9.46 25.48 C10.5 25.48 11.34 26.79 11.34 28.37 C11.34 26.79 12.18 25.48
						 13.24 25.48 L20.8 25.48 C21.83 25.48 22.68 24.2 22.68 22.6" class="st5"/>
		</g>
	</g>
</svg>
