<?xml version="1.0" encoding="UTF-8" standalone="no"?>
<!DOCTYPE svg PUBLIC "-//W3C//DTD SVG 1.1//EN" "http://www.w3.org/Graphics/SVG/1.1/DTD/svg11.dtd">
<!-- 由 Microsoft Visio, SVG Export 產生 B01005.svg 頁-1 -->
<svg xmlns="http://www.w3.org/2000/svg" xmlns:xlink="http://www.w3.org/1999/xlink" xmlns:ev="http://www.w3.org/2001/xml-events"
		xmlns:v="http://schemas.microsoft.com/visio/2003/SVGExtensions/" width="1.90657in" height="0.606866in"
		viewBox="0 0 137.273 43.6943" xml:space="preserve" color-interpolation-filters="sRGB" class="st6">
	<v:documentProperties v:langID="1028" v:viewMarkup="false"/>

	<style type="text/css">
	<![CDATA[
		.st1 {fill:none;stroke:none;stroke-linecap:butt;stroke-width:0.75}
		.st2 {fill:#000000;font-family:新細明體;font-size:0.833336em}
		.st3 {font-family:Times New Roman;font-size:1em}
		.st4 {fill:none}
		.st5 {stroke:#000000;stroke-linecap:round;stroke-linejoin:round;stroke-width:0.5625}
		.st6 {fill:none;fill-rule:evenodd;font-size:12px;overflow:visible;stroke-linecap:square;stroke-miterlimit:3}
	]]>
	</style>

	<g v:mID="0" v:index="1" v:groupContext="foregroundPage">
		<title>頁-1</title>
		<v:pageProperties v:drawingScale="0.0393701" v:pageScale="0.0393701" v:drawingUnits="24" v:shadowOffsetX="9"
				v:shadowOffsetY="-9"/>
		<g id="shape2-1" v:mID="2" v:groupContext="shape" transform="translate(62.5861,-32.0651) rotate(0.1)">
			<title>工作表.2</title>
			<desc>正定─必入涅槃</desc>
			<v:textBlock v:margins="rect(0,0,0,0)" v:tabSpace="42.5197"/>
			<v:textRect cx="36.9966" cy="38.2943" width="74" height="10.8"/>
			<rect x="0" y="32.8943" width="73.9933" height="10.8" class="st1"/>
			<text x="-0" y="41.41" class="st2" v:langID="1028"><v:paragraph/><v:tabList/>正定<tspan class="st3">─</tspan>必入涅槃</text>		</g>
		<g id="shape3-5" v:mID="3" v:groupContext="shape" transform="translate(0.826261,-16.0307) rotate(0.1)">
			<title>工作表.3</title>
			<desc>眾生有三分</desc>
			<v:textBlock v:margins="rect(0,0,0,0)" v:tabSpace="42.5197"/>
			<v:textRect cx="25.9926" cy="38.2943" width="51.99" height="10.8"/>
			<rect x="0" y="32.8943" width="51.9851" height="10.8" class="st1"/>
			<text x="-0" y="41.41" class="st2" v:langID="1028"><v:paragraph/><v:tabList/>眾生有三分</text>		</g>
		<g id="shape4-8" v:mID="4" v:groupContext="shape" transform="translate(62.5559,-16.4641) rotate(0.1)">
			<title>工作表.4</title>
			<desc>邪定─必入惡道</desc>
			<v:textBlock v:margins="rect(0,0,0,0)" v:tabSpace="42.5197"/>
			<v:textRect cx="37.0122" cy="38.2943" width="74.03" height="10.8"/>
			<rect x="0" y="32.8943" width="74.0244" height="10.8" class="st1"/>
			<text x="0" y="41.41" class="st2" v:langID="1028"><v:paragraph/><v:tabList/>邪定<tspan class="st3">─</tspan>必入惡道</text>		</g>
		<g id="shape5-12" v:mID="5" v:groupContext="shape" transform="translate(62.5278,-0.863867) rotate(0.1)">
			<title>工作表.5</title>
			<desc>不定</desc>
			<v:textBlock v:margins="rect(0,0,0,0)" v:tabSpace="42.5197"/>
			<v:textRect cx="22.8534" cy="38.2943" width="45.71" height="10.8"/>
			<rect x="0" y="32.8943" width="45.7069" height="10.8" class="st1"/>
			<text x="0" y="41.41" class="st2" v:langID="1028"><v:paragraph/><v:tabList/>不定</text>		</g>
		<g id="shape19-15" v:mID="19" v:groupContext="shape" transform="translate(98.041,1.63969) rotate(90.1)">
			<title>工作表.19</title>
			<path d="M0 37.77 C0 39.42 1.57 40.74 3.48 40.74 L17.29 40.74 C19.21 40.74 20.74 42.06 20.74 43.69 C20.74 42.06 22.3
						 40.74 24.18 40.74 L38.03 40.74 C39.9 40.74 41.47 39.42 41.47 37.77 L0 37.77 Z" class="st4"/>
			<path d="M0 37.77 C0 39.42 1.57 40.74 3.48 40.74 L17.29 40.74 C19.21 40.74 20.74 42.06 20.74 43.69 C20.74 42.06 22.3
						 40.74 24.18 40.74 L38.03 40.74 C39.9 40.74 41.47 39.42 41.47 37.77" class="st5"/>
		</g>
	</g>
</svg>
