<?xml version="1.0" encoding="UTF-8" standalone="no"?>
<!DOCTYPE svg PUBLIC "-//W3C//DTD SVG 1.1//EN" "http://www.w3.org/Graphics/SVG/1.1/DTD/svg11.dtd">
<!-- 由 Microsoft Visio, SVG Export 產生 B01104.svg 頁-1 -->
<svg xmlns="http://www.w3.org/2000/svg" xmlns:xlink="http://www.w3.org/1999/xlink" xmlns:ev="http://www.w3.org/2001/xml-events"
		xmlns:v="http://schemas.microsoft.com/visio/2003/SVGExtensions/" width="2.69223in" height="0.595761in"
		viewBox="0 0 193.84 42.8948" xml:space="preserve" color-interpolation-filters="sRGB" class="st6">
	<v:documentProperties v:langID="1028" v:viewMarkup="false"/>

	<style type="text/css">
	<![CDATA[
		.st1 {fill:none;stroke:none;stroke-linecap:butt;stroke-width:0.75}
		.st2 {fill:#000000;font-family:新細明體;font-size:0.833336em}
		.st3 {fill:none}
		.st4 {stroke:#000000;stroke-linecap:round;stroke-linejoin:round;stroke-width:0.5625}
		.st5 {stroke:#000000;stroke-dasharray:0.5625,1.125;stroke-linecap:round;stroke-linejoin:round;stroke-width:0.5625}
		.st6 {fill:none;fill-rule:evenodd;font-size:12px;overflow:visible;stroke-linecap:square;stroke-miterlimit:3}
	]]>
	</style>

	<g v:mID="0" v:index="1" v:groupContext="foregroundPage">
		<title>頁-1</title>
		<v:pageProperties v:drawingScale="0.0393701" v:pageScale="0.0393701" v:drawingUnits="24" v:shadowOffsetX="9"
				v:shadowOffsetY="-9"/>
		<g id="shape2-1" v:mID="2" v:groupContext="shape" transform="translate(42.9996,-30.7611) rotate(0.1)">
			<title>工作表.2</title>
			<desc>一、為一切眾生</desc>
			<v:textBlock v:margins="rect(0,0,0,0)" v:tabSpace="42.5197"/>
			<v:textRect cx="39.6475" cy="37.4948" width="79.3" height="10.8"/>
			<rect x="0" y="32.0948" width="79.295" height="10.8" class="st1"/>
			<text x="0" y="40.61" class="st2" v:langID="1028"><v:paragraph/><v:tabList/>一、為一切眾生</text>		</g>
		<g id="shape3-4" v:mID="3" v:groupContext="shape" transform="translate(139.212,-31.2656) rotate(0.1)">
			<title>工作表.3</title>
			<desc>大願</desc>
			<v:textBlock v:margins="rect(0,0,0,0)" v:tabSpace="42.5197"/>
			<v:textRect cx="16.5805" cy="37.4948" width="33.17" height="10.8"/>
			<rect x="0" y="32.0948" width="33.1611" height="10.8" class="st1"/>
			<text x="0" y="40.61" class="st2" v:langID="1028"><v:paragraph/><v:tabList/>大願</text>		</g>
		<g id="shape4-7" v:mID="4" v:groupContext="shape" transform="translate(0.824866,-15.148) rotate(0.1)">
			<title>工作表.4</title>
			<desc>大莊嚴</desc>
			<v:textBlock v:margins="rect(0,0,0,0)" v:tabSpace="42.5197"/>
			<v:textRect cx="18.2382" cy="37.4948" width="36.48" height="10.8"/>
			<rect x="0" y="32.0948" width="36.4763" height="10.8" class="st1"/>
			<text x="-0" y="40.61" class="st2" v:langID="1028"><v:paragraph/><v:tabList/>大莊嚴</text>		</g>
		<g id="shape5-10" v:mID="5" v:groupContext="shape" transform="translate(42.9412,-15.4931) rotate(0.1)">
			<title>工作表.5</title>
			<desc>二、不但自具亦令他行</desc>
			<v:textBlock v:margins="rect(0,0,0,0)" v:tabSpace="42.5197"/>
			<v:textRect cx="56.397" cy="37.4948" width="112.8" height="10.8"/>
			<rect x="0" y="32.0948" width="112.794" height="10.8" class="st1"/>
			<text x="0" y="40.61" class="st2" v:langID="1028"><v:paragraph/><v:tabList/>二、不但自具，亦令他行</text>		</g>
		<g id="shape6-13" v:mID="6" v:groupContext="shape" transform="translate(168.913,-8.91528) rotate(0.1)">
			<title>工作表.6</title>
			<desc>六度</desc>
			<v:textBlock v:margins="rect(0,0,0,0)" v:tabSpace="42.5197"/>
			<v:textRect cx="12.1167" cy="37.4948" width="24.24" height="10.8"/>
			<rect x="0" y="32.0948" width="24.2334" height="10.8" class="st1"/>
			<text x="-0" y="40.61" class="st2" v:langID="1028"><v:paragraph/><v:tabList/>六度</text>		</g>
		<g id="shape7-16" v:mID="7" v:groupContext="shape" transform="translate(42.8837,-0.933682) rotate(0.1)">
			<title>工作表.7</title>
			<desc>三、六度互具</desc>
			<v:textBlock v:margins="rect(0,0,0,0)" v:tabSpace="42.5197"/>
			<v:textRect cx="36.8689" cy="37.4948" width="73.74" height="10.8"/>
			<rect x="0" y="32.0948" width="73.7378" height="10.8" class="st1"/>
			<text x="0" y="40.61" class="st2" v:langID="1028"><v:paragraph/><v:tabList/>三、六度互具</text>		</g>
		<g id="shape16-19" v:mID="16" v:groupContext="shape" transform="translate(76.7791,2.60103) rotate(90.1)">
			<title>工作表.16</title>
			<path d="M0 37.2 C0 38.78 1.48 40.05 3.31 40.05 L16.54 40.05 C18.36 40.05 19.84 41.32 19.84 42.89 C19.84 41.32 21.32
						 40.05 23.15 40.05 L36.38 40.05 C38.2 40.05 39.68 38.78 39.68 37.2 L0 37.2 Z" class="st3"/>
			<path d="M0 37.2 C0 38.78 1.48 40.05 3.31 40.05 L16.54 40.05 C18.36 40.05 19.84 41.32 19.84 42.89 C19.84 41.32 21.32
						 40.05 23.15 40.05 L36.38 40.05 C38.2 40.05 39.68 38.78 39.68 37.2" class="st4"/>
		</g>
		<g id="shape17-22" v:mID="17" v:groupContext="shape" transform="translate(136.327,49.6253) rotate(-179.9)">
			<title>工作表.17</title>
			<path d="M0 42.89 L20.87 42.89" class="st5"/>
		</g>
		<g id="shape18-25" v:mID="18" v:groupContext="shape" transform="translate(172.095,71.8806) rotate(173.959)">
			<title>工作表.18</title>
			<path d="M0 42.89 L62.11 42.89" class="st5"/>
		</g>
		<g id="shape19-28" v:mID="19" v:groupContext="shape" transform="translate(147.419,67.0853) rotate(-151.964)">
			<title>工作表.19</title>
			<path d="M0 42.89 L14.2 42.89" class="st5"/>
		</g>
	</g>
</svg>
