<?xml version="1.0" encoding="UTF-8" standalone="no"?>
<!DOCTYPE svg PUBLIC "-//W3C//DTD SVG 1.1//EN" "http://www.w3.org/Graphics/SVG/1.1/DTD/svg11.dtd">
<!-- 由 Microsoft Visio, SVG Export 產生 B01203.svg 頁-1 -->
<svg xmlns="http://www.w3.org/2000/svg" xmlns:xlink="http://www.w3.org/1999/xlink" xmlns:ev="http://www.w3.org/2001/xml-events"
		xmlns:v="http://schemas.microsoft.com/visio/2003/SVGExtensions/" width="1.68292in" height="0.396394in"
		viewBox="0 0 121.17 28.5404" xml:space="preserve" color-interpolation-filters="sRGB" class="st5">
	<v:documentProperties v:langID="1028" v:viewMarkup="false"/>

	<style type="text/css">
	<![CDATA[
		.st1 {fill:none;stroke:none;stroke-linecap:butt;stroke-width:0.75}
		.st2 {fill:#000000;font-family:新細明體;font-size:0.833336em}
		.st3 {fill:none}
		.st4 {stroke:#000000;stroke-linecap:round;stroke-linejoin:round;stroke-width:0.5625}
		.st5 {fill:none;fill-rule:evenodd;font-size:12px;overflow:visible;stroke-linecap:square;stroke-miterlimit:3}
	]]>
	</style>

	<g v:mID="0" v:index="1" v:groupContext="foregroundPage">
		<title>頁-1</title>
		<v:pageProperties v:drawingScale="0.0393701" v:pageScale="0.0393701" v:drawingUnits="24" v:shadowOffsetX="9"
				v:shadowOffsetY="-9"/>
		<g id="shape2-1" v:mID="2" v:groupContext="shape" transform="translate(48.6237,-16.9112) rotate(0.1)">
			<title>工作表.2</title>
			<desc>知諸法空寂滅相</desc>
			<v:textBlock v:margins="rect(0,0,0,0)" v:tabSpace="42.5197"/>
			<v:textRect cx="35.9137" cy="23.1404" width="71.83" height="10.8"/>
			<rect x="0" y="17.7404" width="71.8274" height="10.8" class="st1"/>
			<text x="0" y="26.25" class="st2" v:langID="1028"><v:paragraph/><v:tabList/>知諸法空寂滅相</text>		</g>
		<g id="shape3-4" v:mID="3" v:groupContext="shape" transform="translate(0.799812,-11.1882) rotate(0.1)">
			<title>工作表.3</title>
			<desc>發大莊嚴</desc>
			<v:textBlock v:margins="rect(0,0,0,0)" v:tabSpace="42.5197"/>
			<v:textRect cx="33.4125" cy="24.5022" width="66.83" height="8.07637"/>
			<rect x="0" y="20.464" width="66.825" height="8.07637" class="st1"/>
			<text x="0" y="27.62" class="st2" v:langID="1028"><v:paragraph/><v:tabList/>發大莊嚴</text>		</g>
		<g id="shape4-7" v:mID="4" v:groupContext="shape" transform="translate(48.5661,-0.933704) rotate(0.1)">
			<title>工作表.4</title>
			<desc>不捨本願精進</desc>
			<v:textBlock v:margins="rect(0,0,0,0)" v:tabSpace="42.5197"/>
			<v:textRect cx="33.0191" cy="23.1404" width="66.04" height="10.8"/>
			<rect x="0" y="17.7404" width="66.0382" height="10.8" class="st1"/>
			<text x="0" y="26.25" class="st2" v:langID="1028"><v:paragraph/><v:tabList/>不捨本願精進</text>		</g>
		<g id="shape11-10" v:mID="11" v:groupContext="shape" transform="translate(70.6312,1.38401) rotate(90.1)">
			<title>工作表.11</title>
			<path d="M0 22.87 C0 24.44 0.94 25.71 2.12 25.71 L10.53 25.71 C11.68 25.71 12.62 26.97 12.62 28.54 C12.62 26.97 13.56
						 25.71 14.74 25.71 L23.15 25.71 C24.3 25.71 25.24 24.44 25.24 22.87 L0 22.87 Z" class="st3"/>
			<path d="M0 22.87 C0 24.44 0.94 25.71 2.12 25.71 L10.53 25.71 C11.68 25.71 12.62 26.97 12.62 28.54 C12.62 26.97 13.56
						 25.71 14.74 25.71 L23.15 25.71 C24.3 25.71 25.24 24.44 25.24 22.87" class="st4"/>
		</g>
	</g>
</svg>
