<?xml version="1.0" encoding="UTF-8" standalone="no"?>
<!DOCTYPE svg PUBLIC "-//W3C//DTD SVG 1.1//EN" "http://www.w3.org/Graphics/SVG/1.1/DTD/svg11.dtd">
<!-- 由 Microsoft Visio, SVG Export 產生 B01209.svg 頁-1 -->
<svg xmlns="http://www.w3.org/2000/svg" xmlns:xlink="http://www.w3.org/1999/xlink" xmlns:ev="http://www.w3.org/2001/xml-events"
		xmlns:v="http://schemas.microsoft.com/visio/2003/SVGExtensions/" width="2.77137in" height="0.377978in"
		viewBox="0 0 199.538 27.2144" xml:space="preserve" color-interpolation-filters="sRGB" class="st6">
	<v:documentProperties v:langID="1028" v:viewMarkup="false"/>

	<style type="text/css">
	<![CDATA[
		.st1 {fill:none;stroke:none;stroke-linecap:butt;stroke-width:0.75}
		.st2 {fill:#000000;font-family:新細明體;font-size:0.833336em}
		.st3 {fill:#000000;font-family:Times New Roman;font-size:0.833336em}
		.st4 {fill:none}
		.st5 {stroke:#000000;stroke-linecap:round;stroke-linejoin:round;stroke-width:0.5625}
		.st6 {fill:none;fill-rule:evenodd;font-size:12px;overflow:visible;stroke-linecap:square;stroke-miterlimit:3}
	]]>
	</style>

	<g v:mID="0" v:index="1" v:groupContext="foregroundPage">
		<title>頁-1</title>
		<v:pageProperties v:drawingScale="0.0393701" v:pageScale="0.0393701" v:drawingUnits="24" v:shadowOffsetX="9"
				v:shadowOffsetY="-9"/>
		<g id="shape2-1" v:mID="2" v:groupContext="shape" transform="translate(141.654,-15.5852) rotate(0.1)">
			<title>工作表.2</title>
			<desc>根本</desc>
			<v:textBlock v:margins="rect(0,0,0,0)" v:tabSpace="42.5197"/>
			<v:textRect cx="12.9905" cy="21.8144" width="25.99" height="10.8"/>
			<rect x="0" y="16.4144" width="25.981" height="10.8" class="st1"/>
			<text x="0" y="24.93" class="st2" v:langID="1028"><v:paragraph/><v:tabList/>根本</text>		</g>
		<g id="shape3-4" v:mID="3" v:groupContext="shape" transform="translate(164.154,-15.5459) rotate(0.1)">
			<title>工作表.3</title>
			<desc>─</desc>
			<v:textBlock v:margins="rect(0,0,0,0)" v:tabSpace="42.5197"/>
			<v:textRect cx="8.52905" cy="21.8144" width="17.06" height="10.8"/>
			<rect x="0" y="16.4144" width="17.0581" height="10.8" class="st1"/>
			<text x="0" y="24.81" class="st3" v:langID="1028"><v:paragraph/><v:tabList/>─</text>		</g>
		<g id="shape4-7" v:mID="4" v:groupContext="shape" transform="translate(176.482,-15.5066) rotate(0.1)">
			<title>工作表.4</title>
			<desc>十善</desc>
			<v:textBlock v:margins="rect(0,0,0,0)" v:tabSpace="42.5197"/>
			<v:textRect cx="11.1665" cy="21.8144" width="22.34" height="10.8"/>
			<rect x="0" y="16.4144" width="22.333" height="10.8" class="st1"/>
			<text x="0" y="24.93" class="st2" v:langID="1028"><v:paragraph/><v:tabList/>十善</text>		</g>
		<g id="shape5-10" v:mID="5" v:groupContext="shape" transform="translate(0.797498,-11.281) rotate(0.1)">
			<title>工作表.5</title>
			<desc>持戒</desc>
			<v:textBlock v:margins="rect(0,0,0,0)" v:tabSpace="42.5197"/>
			<v:textRect cx="14.1397" cy="24.563" width="28.28" height="5.30278"/>
			<rect x="0" y="21.9116" width="28.2793" height="5.30278" class="st1"/>
			<text x="0" y="27.68" class="st2" v:langID="1028"><v:paragraph/><v:tabList/>持戒</text>		</g>
		<g id="shape6-13" v:mID="6" v:groupContext="shape" transform="translate(22.1317,-11.2531) rotate(0.1)">
			<title>工作表.6</title>
			<desc>─</desc>
			<v:textBlock v:margins="rect(0,0,0,0)" v:tabSpace="42.5197"/>
			<v:textRect cx="4.5" cy="24.563" width="9" height="5.30278"/>
			<rect x="0" y="21.9116" width="9" height="5.30278" class="st1"/>
			<text x="0" y="27.56" class="st3" v:langID="1028"><v:paragraph/><v:tabList/>─</text>		</g>
		<g id="shape7-16" v:mID="7" v:groupContext="shape" transform="translate(33.6307,-11.2845) rotate(0.1)">
			<title>工作表.7</title>
			<desc>本在不惱眾生常施無畏</desc>
			<v:textBlock v:margins="rect(0,0,0,0)" v:tabSpace="42.5197"/>
			<v:textRect cx="52.8318" cy="24.563" width="105.67" height="5.30278"/>
			<rect x="0" y="21.9116" width="105.664" height="5.30278" class="st1"/>
			<text x="-0" y="27.68" class="st2" v:langID="1028"><v:paragraph/><v:tabList/>本在不惱眾生常施無畏</text>		</g>
		<g id="shape8-19" v:mID="8" v:groupContext="shape" transform="translate(141.596,-0.942432) rotate(0.1)">
			<title>工作表.8</title>
			<desc>遠緣</desc>
			<v:textBlock v:margins="rect(0,0,0,0)" v:tabSpace="42.5197"/>
			<v:textRect cx="15.8552" cy="21.8144" width="31.72" height="10.8"/>
			<rect x="0" y="16.4144" width="31.7104" height="10.8" class="st1"/>
			<text x="-0" y="24.93" class="st2" v:langID="1028"><v:paragraph/><v:tabList/>遠緣</text>		</g>
		<g id="shape9-22" v:mID="9" v:groupContext="shape" transform="translate(164.095,-0.903162) rotate(0.1)">
			<title>工作表.9</title>
			<desc>─</desc>
			<v:textBlock v:margins="rect(0,0,0,0)" v:tabSpace="42.5197"/>
			<v:textRect cx="15.9437" cy="21.8144" width="31.89" height="10.8"/>
			<rect x="0" y="16.4144" width="31.8875" height="10.8" class="st1"/>
			<text x="0" y="24.81" class="st3" v:langID="1028"><v:paragraph/><v:tabList/>─</text>		</g>
		<g id="shape10-25" v:mID="10" v:groupContext="shape" transform="translate(176.424,-0.863892) rotate(0.1)">
			<title>工作表.10</title>
			<desc>餘戒</desc>
			<v:textBlock v:margins="rect(0,0,0,0)" v:tabSpace="42.5197"/>
			<v:textRect cx="11.1965" cy="21.8144" width="22.4" height="10.8"/>
			<rect x="0" y="16.4144" width="22.3929" height="10.8" class="st1"/>
			<text x="0" y="24.93" class="st2" v:langID="1028"><v:paragraph/><v:tabList/>餘戒</text>		</g>
		<g id="shape17-28" v:mID="17" v:groupContext="shape" transform="translate(161.983,2.05525) rotate(90.1)">
			<title>工作表.17</title>
			<path d="M0 21.46 C0 23.05 0.86 24.34 1.92 24.34 L9.66 24.34 C10.74 24.34 11.6 25.64 11.6 27.21 C11.6 25.64 12.46 24.34
						 13.52 24.34 L21.26 24.34 C22.34 24.34 23.2 23.05 23.2 21.46 L0 21.46 Z" class="st4"/>
			<path d="M0 21.46 C0 23.05 0.86 24.34 1.92 24.34 L9.66 24.34 C10.74 24.34 11.6 25.64 11.6 27.21 C11.6 25.64 12.46 24.34
						 13.52 24.34 L21.26 24.34 C22.34 24.34 23.2 23.05 23.2 21.46" class="st5"/>
		</g>
	</g>
</svg>
