<?xml version="1.0" encoding="UTF-8" standalone="no"?>
<!DOCTYPE svg PUBLIC "-//W3C//DTD SVG 1.1//EN" "http://www.w3.org/Graphics/SVG/1.1/DTD/svg11.dtd">
<!-- 由 Microsoft Visio, SVG Export 產生 B01202.svg 頁-1 -->
<svg xmlns="http://www.w3.org/2000/svg" xmlns:xlink="http://www.w3.org/1999/xlink" xmlns:ev="http://www.w3.org/2001/xml-events"
		xmlns:v="http://schemas.microsoft.com/visio/2003/SVGExtensions/" width="2.83032in" height="0.382808in"
		viewBox="0 0 203.783 27.5622" xml:space="preserve" color-interpolation-filters="sRGB" class="st5">
	<v:documentProperties v:langID="1028" v:viewMarkup="false"/>

	<style type="text/css">
	<![CDATA[
		.st1 {fill:none;stroke:none;stroke-linecap:butt;stroke-width:0.75}
		.st2 {fill:#000000;font-family:新細明體;font-size:0.833336em}
		.st3 {fill:none}
		.st4 {stroke:#000000;stroke-linecap:round;stroke-linejoin:round;stroke-width:0.5625}
		.st5 {fill:none;fill-rule:evenodd;font-size:12px;overflow:visible;stroke-linecap:square;stroke-miterlimit:3}
	]]>
	</style>

	<g v:mID="0" v:index="1" v:groupContext="foregroundPage">
		<title>頁-1</title>
		<v:pageProperties v:drawingScale="0.0393701" v:pageScale="0.0393701" v:drawingUnits="24" v:shadowOffsetX="9"
				v:shadowOffsetY="-9"/>
		<g id="shape2-1" v:mID="2" v:groupContext="shape" transform="translate(60.7674,-15.9329) rotate(0.1)">
			<title>工作表.2</title>
			<desc>六波羅密是大莊嚴攝諸功德</desc>
			<v:textBlock v:margins="rect(0,0,0,0)" v:tabSpace="42.5197"/>
			<v:textRect cx="71.1476" cy="22.1622" width="142.3" height="10.8"/>
			<rect x="0" y="16.7622" width="142.295" height="10.8" class="st1"/>
			<text x="0" y="25.28" class="st2" v:langID="1028"><v:paragraph/><v:tabList/>六波羅密是大莊嚴（攝諸功德）</text>		</g>
		<g id="shape3-4" v:mID="3" v:groupContext="shape" transform="translate(0.798105,-8.50283) rotate(0.1)">
			<title>工作表.3</title>
			<desc>大莊嚴二義</desc>
			<v:textBlock v:margins="rect(0,0,0,0)" v:tabSpace="42.5197"/>
			<v:textRect cx="27.5436" cy="22.1622" width="55.09" height="10.8"/>
			<rect x="0" y="16.7622" width="55.0871" height="10.8" class="st1"/>
			<text x="-0" y="25.28" class="st2" v:langID="1028"><v:paragraph/><v:tabList/>大莊嚴二義</text>		</g>
		<g id="shape4-7" v:mID="4" v:groupContext="shape" transform="translate(60.7091,-0.968612) rotate(0.1)">
			<title>工作表.4</title>
			<desc>大誓莊嚴是大莊嚴</desc>
			<v:textBlock v:margins="rect(0,0,0,0)" v:tabSpace="42.5197"/>
			<v:textRect cx="55.5851" cy="22.1622" width="111.18" height="10.8"/>
			<rect x="0" y="16.7622" width="111.17" height="10.8" class="st1"/>
			<text x="0" y="25.28" class="st2" v:langID="1028"><v:paragraph/><v:tabList/>大誓莊嚴是大莊嚴</text>		</g>
		<g id="shape11-10" v:mID="11" v:groupContext="shape" transform="translate(80.3531,1.69836) rotate(90.1)">
			<title>工作表.11</title>
			<path d="M0 21.89 C0 23.46 0.89 24.73 2.02 24.73 L10.05 24.73 C11.15 24.73 12.05 25.99 12.05 27.56 C12.05 25.99 12.94
						 24.73 14.07 24.73 L22.1 24.73 C23.2 24.73 24.09 23.46 24.09 21.89 L0 21.89 Z" class="st3"/>
			<path d="M0 21.89 C0 23.46 0.89 24.73 2.02 24.73 L10.05 24.73 C11.15 24.73 12.05 25.99 12.05 27.56 C12.05 25.99 12.94
						 24.73 14.07 24.73 L22.1 24.73 C23.2 24.73 24.09 23.46 24.09 21.89" class="st4"/>
		</g>
	</g>
</svg>
