<?xml version="1.0" encoding="UTF-8" standalone="no"?>
<!DOCTYPE svg PUBLIC "-//W3C//DTD SVG 1.1//EN" "http://www.w3.org/Graphics/SVG/1.1/DTD/svg11.dtd">
<!-- 由 Microsoft Visio, SVG Export 產生 B01211.svg 頁-1 -->
<svg xmlns="http://www.w3.org/2000/svg" xmlns:xlink="http://www.w3.org/1999/xlink" xmlns:ev="http://www.w3.org/2001/xml-events"
		xmlns:v="http://schemas.microsoft.com/visio/2003/SVGExtensions/" width="3.20126in" height="0.38846in"
		viewBox="0 0 230.49 27.9691" xml:space="preserve" color-interpolation-filters="sRGB" class="st6">
	<v:documentProperties v:langID="1028" v:viewMarkup="false"/>

	<style type="text/css">
	<![CDATA[
		.st1 {fill:none;stroke:none;stroke-linecap:butt;stroke-width:0.75}
		.st2 {fill:#000000;font-family:新細明體;font-size:0.833336em}
		.st3 {fill:#000000;font-family:Times New Roman;font-size:0.833336em}
		.st4 {fill:none}
		.st5 {stroke:#000000;stroke-linecap:round;stroke-linejoin:round;stroke-width:0.5625}
		.st6 {fill:none;fill-rule:evenodd;font-size:12px;overflow:visible;stroke-linecap:square;stroke-miterlimit:3}
	]]>
	</style>

	<g v:mID="0" v:index="1" v:groupContext="foregroundPage">
		<title>頁-1</title>
		<v:pageProperties v:drawingScale="0.0393701" v:pageScale="0.0393701" v:drawingUnits="24" v:shadowOffsetX="9"
				v:shadowOffsetY="-9"/>
		<g id="shape2-1" v:mID="2" v:groupContext="shape" transform="translate(70.1284,-16.3399) rotate(0.1)">
			<title>工作表.2</title>
			<desc>出家</desc>
			<v:textBlock v:margins="rect(0,0,0,0)" v:tabSpace="42.5197"/>
			<v:textRect cx="15.9532" cy="22.5691" width="31.91" height="10.8"/>
			<rect x="0" y="17.1691" width="31.9065" height="10.8" class="st1"/>
			<text x="0" y="25.68" class="st2" v:langID="1028"><v:paragraph/><v:tabList/>出家</text>		</g>
		<g id="shape3-4" v:mID="3" v:groupContext="shape" transform="translate(92.6284,-16.3007) rotate(0.1)">
			<title>工作表.3</title>
			<desc>─</desc>
			<v:textBlock v:margins="rect(0,0,0,0)" v:tabSpace="42.5197"/>
			<v:textRect cx="4.5" cy="22.5691" width="9.01" height="10.8"/>
			<rect x="0" y="17.1691" width="9" height="10.8" class="st1"/>
			<text x="0" y="25.57" class="st3" v:langID="1028"><v:paragraph/><v:tabList/>─</text>		</g>
		<g id="shape4-7" v:mID="4" v:groupContext="shape" transform="translate(104.044,-16.2771) rotate(0.1)">
			<title>工作表.4</title>
			<desc>為今世取涅槃故</desc>
			<v:textBlock v:margins="rect(0,0,0,0)" v:tabSpace="42.5197"/>
			<v:textRect cx="40.4728" cy="22.5691" width="80.95" height="10.8"/>
			<rect x="0" y="17.1691" width="80.9457" height="10.8" class="st1"/>
			<text x="0" y="25.68" class="st2" v:langID="1028"><v:paragraph/><v:tabList/>為今世取涅槃故</text>		</g>
		<g id="shape5-10" v:mID="5" v:groupContext="shape" transform="translate(174.67,-16.1593) rotate(0.1)">
			<title>工作表.5</title>
			<desc>─</desc>
			<v:textBlock v:margins="rect(0,0,0,0)" v:tabSpace="42.5197"/>
			<v:textRect cx="4.5" cy="22.5691" width="9.01" height="10.8"/>
			<rect x="0" y="17.1691" width="9" height="10.8" class="st1"/>
			<text x="0" y="25.57" class="st3" v:langID="1028"><v:paragraph/><v:tabList/>─</text>		</g>
		<g id="shape6-13" v:mID="6" v:groupContext="shape" transform="translate(185.878,-16.1357) rotate(0.1)">
			<title>工作表.6</title>
			<desc>婬欲為初</desc>
			<v:textBlock v:margins="rect(0,0,0,0)" v:tabSpace="42.5197"/>
			<v:textRect cx="21.9464" cy="22.5691" width="43.9" height="10.8"/>
			<rect x="0" y="17.1691" width="43.8928" height="10.8" class="st1"/>
			<text x="0" y="25.68" class="st2" v:langID="1028"><v:paragraph/><v:tabList/>婬欲為初</text>		</g>
		<g id="shape7-16" v:mID="7" v:groupContext="shape" transform="translate(0.798815,-11.647) rotate(0.1)">
			<title>工作表.7</title>
			<desc>白衣出家戒異</desc>
			<v:textBlock v:margins="rect(0,0,0,0)" v:tabSpace="42.5197"/>
			<v:textRect cx="39.9184" cy="25.0533" width="79.84" height="5.83171"/>
			<rect x="0" y="22.1374" width="79.8367" height="5.83171" class="st1"/>
			<text x="0" y="28.17" class="st2" v:langID="1028"><v:paragraph/><v:tabList/>白衣出家戒異</text>		</g>
		<g id="shape8-19" v:mID="8" v:groupContext="shape" transform="translate(70.0716,-1.07121) rotate(0.1)">
			<title>工作表.8</title>
			<desc>白衣</desc>
			<v:textBlock v:margins="rect(0,0,0,0)" v:tabSpace="42.5197"/>
			<v:textRect cx="17.3974" cy="22.5691" width="34.8" height="10.8"/>
			<rect x="0" y="17.1691" width="34.7948" height="10.8" class="st1"/>
			<text x="-0" y="25.68" class="st2" v:langID="1028"><v:paragraph/><v:tabList/>白衣</text>		</g>
		<g id="shape9-22" v:mID="9" v:groupContext="shape" transform="translate(92.5715,-1.03194) rotate(0.1)">
			<title>工作表.9</title>
			<desc>─</desc>
			<v:textBlock v:margins="rect(0,0,0,0)" v:tabSpace="42.5197"/>
			<v:textRect cx="4.5" cy="22.5691" width="9.01" height="10.8"/>
			<rect x="0" y="17.1691" width="9" height="10.8" class="st1"/>
			<text x="0" y="25.57" class="st3" v:langID="1028"><v:paragraph/><v:tabList/>─</text>		</g>
		<g id="shape10-25" v:mID="10" v:groupContext="shape" transform="translate(103.987,-1.00838) rotate(0.1)">
			<title>工作表.10</title>
			<desc>為求福德故</desc>
			<v:textBlock v:margins="rect(0,0,0,0)" v:tabSpace="42.5197"/>
			<v:textRect cx="28.453" cy="22.5691" width="56.91" height="10.8"/>
			<rect x="0" y="17.1691" width="56.906" height="10.8" class="st1"/>
			<text x="0" y="25.68" class="st2" v:langID="1028"><v:paragraph/><v:tabList/>為求福德故</text>		</g>
		<g id="shape11-28" v:mID="11" v:groupContext="shape" transform="translate(154.738,-0.92236) rotate(0.1)">
			<title>工作表.11</title>
			<desc>─</desc>
			<v:textBlock v:margins="rect(0,0,0,0)" v:tabSpace="42.5197"/>
			<v:textRect cx="4.5" cy="22.5691" width="9.01" height="10.8"/>
			<rect x="0" y="17.1691" width="9" height="10.8" class="st1"/>
			<text x="0" y="25.57" class="st3" v:langID="1028"><v:paragraph/><v:tabList/>─</text>		</g>
		<g id="shape12-31" v:mID="12" v:groupContext="shape" transform="translate(166.153,-0.898798) rotate(0.1)">
			<title>工作表.12</title>
			<desc>不殺在前</desc>
			<v:textBlock v:margins="rect(0,0,0,0)" v:tabSpace="42.5197"/>
			<v:textRect cx="20.9427" cy="22.5691" width="41.89" height="10.8"/>
			<rect x="0" y="17.1691" width="41.8855" height="10.8" class="st1"/>
			<text x="0" y="25.68" class="st2" v:langID="1028"><v:paragraph/><v:tabList/>不殺在前</text>		</g>
		<g id="shape19-34" v:mID="19" v:groupContext="shape" transform="translate(90.6305,2.71589) rotate(90.1)">
			<title>工作表.19</title>
			<path d="M0 22.3 C0 23.87 0.84 25.13 1.88 25.13 L9.44 25.13 C10.47 25.13 11.34 26.4 11.34 27.97 C11.34 26.4 12.18 25.13
						 13.22 25.13 L20.78 25.13 C21.81 25.13 22.68 23.87 22.68 22.3 L0 22.3 Z" class="st4"/>
			<path d="M0 22.3 C0 23.87 0.84 25.13 1.88 25.13 L9.44 25.13 C10.47 25.13 11.34 26.4 11.34 27.97 C11.34 26.4 12.18 25.13
						 13.22 25.13 L20.78 25.13 C21.81 25.13 22.68 23.87 22.68 22.3" class="st5"/>
		</g>
	</g>
</svg>
