<?xml version="1.0" encoding="UTF-8" standalone="no"?>
<!DOCTYPE svg PUBLIC "-//W3C//DTD SVG 1.1//EN" "http://www.w3.org/Graphics/SVG/1.1/DTD/svg11.dtd">
<!-- 由 Microsoft Visio, SVG Export 產生 B01301.svg 頁-1 -->
<svg xmlns="http://www.w3.org/2000/svg" xmlns:xlink="http://www.w3.org/1999/xlink" xmlns:ev="http://www.w3.org/2001/xml-events"
		xmlns:v="http://schemas.microsoft.com/visio/2003/SVGExtensions/" width="3.60949in" height="0.37644in"
		viewBox="0 0 259.883 27.1036" xml:space="preserve" color-interpolation-filters="sRGB" class="st7">
	<v:documentProperties v:langID="1028" v:viewMarkup="false"/>

	<style type="text/css">
	<![CDATA[
		.st1 {fill:none;stroke:none;stroke-linecap:butt;stroke-width:0.75}
		.st2 {fill:#000000;font-family:新細明體;font-size:0.833336em}
		.st3 {fill:#000000;font-family:Times New Roman;font-size:0.833336em}
		.st4 {fill:none}
		.st5 {stroke:#000000;stroke-linecap:round;stroke-linejoin:round;stroke-width:0.5625}
		.st6 {stroke:#000000;stroke-dasharray:0.5625,1.125;stroke-linecap:round;stroke-linejoin:round;stroke-width:0.5625}
		.st7 {fill:none;fill-rule:evenodd;font-size:12px;overflow:visible;stroke-linecap:square;stroke-miterlimit:3}
	]]>
	</style>

	<g v:mID="0" v:index="1" v:groupContext="foregroundPage">
		<title>頁-1</title>
		<v:pageProperties v:drawingScale="0.0393701" v:pageScale="0.0393701" v:drawingUnits="24" v:shadowOffsetX="9"
				v:shadowOffsetY="-9"/>
		<g id="shape3-1" v:mID="3" v:groupContext="shape" transform="translate(90.2044,-17.9894) rotate(0.1)">
			<title>工作表.3</title>
			<desc>行是空以破有</desc>
			<v:textBlock v:margins="rect(0,0,0,0)" v:tabSpace="42.5197"/>
			<v:textRect cx="34.6714" cy="24.2185" width="69.35" height="5.77029"/>
			<rect x="0" y="21.3334" width="69.3427" height="5.77029" class="st1"/>
			<text x="-0" y="27.33" class="st2" v:langID="1028"><v:paragraph/><v:tabList/>行是空以破有</text>		</g>
		<g id="shape4-4" v:mID="4" v:groupContext="shape" transform="translate(151.386,-15.4424) rotate(0.1)">
			<title>工作表.4</title>
			<desc>─</desc>
			<v:textBlock v:margins="rect(0,0,0,0)" v:tabSpace="42.5197"/>
			<v:textRect cx="4.5" cy="21.7036" width="9.01" height="10.8"/>
			<rect x="0" y="16.3036" width="9" height="10.8" class="st1"/>
			<text x="-0" y="24.7" class="st3" v:langID="1028"><v:paragraph/><v:tabList/>─</text>		</g>
		<g id="shape5-7" v:mID="5" v:groupContext="shape" transform="translate(162.204,-17.8637) rotate(0.1)">
			<title>工作表.5</title>
			<desc>非常</desc>
			<v:textBlock v:margins="rect(0,0,0,0)" v:tabSpace="42.5197"/>
			<v:textRect cx="14.9706" cy="24.2185" width="29.95" height="5.77029"/>
			<rect x="0" y="21.3334" width="29.9411" height="5.77029" class="st1"/>
			<text x="0" y="27.33" class="st2" v:langID="1028"><v:paragraph/><v:tabList/>非常</text>		</g>
		<g id="shape6-10" v:mID="6" v:groupContext="shape" transform="translate(0.797305,-10.5975) rotate(0.1)">
			<title>工作表.6</title>
			<desc>以中道行是十八空</desc>
			<v:textBlock v:margins="rect(0,0,0,0)" v:tabSpace="42.5197"/>
			<v:textRect cx="42.1256" cy="24.2185" width="84.26" height="5.77029"/>
			<rect x="0" y="21.3334" width="84.2513" height="5.77029" class="st1"/>
			<text x="0" y="27.33" class="st2" v:langID="1028"><v:paragraph/><v:tabList/>以中道行是十八空</text>		</g>
		<g id="shape7-13" v:mID="7" v:groupContext="shape" transform="translate(214.477,-10.5857) rotate(0.1)">
			<title>工作表.7</title>
			<desc>離是二邊</desc>
			<v:textBlock v:margins="rect(0,0,0,0)" v:tabSpace="42.5197"/>
			<v:textRect cx="22.3467" cy="24.2185" width="44.7" height="5.77029"/>
			<rect x="0" y="21.3334" width="44.6934" height="5.77029" class="st1"/>
			<text x="0" y="27.33" class="st2" v:langID="1028"><v:paragraph/><v:tabList/>離是二邊</text>		</g>
		<g id="shape8-16" v:mID="8" v:groupContext="shape" transform="translate(90.1747,-0.973848) rotate(0.1)">
			<title>工作表.8</title>
			<desc>亦不著是空</desc>
			<v:textBlock v:margins="rect(0,0,0,0)" v:tabSpace="42.5197"/>
			<v:textRect cx="29.033" cy="21.7036" width="58.07" height="10.8"/>
			<rect x="0" y="16.3036" width="58.066" height="10.8" class="st1"/>
			<text x="0" y="24.82" class="st2" v:langID="1028"><v:paragraph/><v:tabList/>亦不著是空</text>		</g>
		<g id="shape9-19" v:mID="9" v:groupContext="shape" transform="translate(141.017,-0.887454) rotate(0.1)">
			<title>工作表.9</title>
			<desc>─</desc>
			<v:textBlock v:margins="rect(0,0,0,0)" v:tabSpace="42.5197"/>
			<v:textRect cx="4.5" cy="21.7036" width="9.01" height="10.8"/>
			<rect x="0" y="16.3036" width="9" height="10.8" class="st1"/>
			<text x="0" y="24.7" class="st3" v:langID="1028"><v:paragraph/><v:tabList/>─</text>		</g>
		<g id="shape10-22" v:mID="10" v:groupContext="shape" transform="translate(153.175,-0.863892) rotate(0.1)">
			<title>工作表.10</title>
			<desc>非滅</desc>
			<v:textBlock v:margins="rect(0,0,0,0)" v:tabSpace="42.5197"/>
			<v:textRect cx="15.2495" cy="21.7036" width="30.5" height="10.8"/>
			<rect x="0" y="16.3036" width="30.499" height="10.8" class="st1"/>
			<text x="0" y="24.82" class="st2" v:langID="1028"><v:paragraph/><v:tabList/>非滅</text>		</g>
		<g id="shape17-25" v:mID="17" v:groupContext="shape" transform="translate(109.298,0.971407) rotate(90.1)">
			<title>工作表.17</title>
			<path d="M0 20.77 C0 22.52 0.96 23.94 2.12 23.94 L10.53 23.94 C11.68 23.94 12.62 25.37 12.62 27.1 C12.62 25.37 13.58
						 23.94 14.74 23.94 L23.15 23.94 C24.31 23.94 25.25 22.52 25.25 20.77 L0 20.77 Z" class="st4"/>
			<path d="M0 20.77 C0 22.52 0.96 23.94 2.12 23.94 L10.53 23.94 C11.68 23.94 12.62 25.37 12.62 27.1 C12.62 25.37 13.58
						 23.94 14.74 23.94 L23.15 23.94 C24.31 23.94 25.25 22.52 25.25 20.77" class="st5"/>
		</g>
		<g id="shape18-28" v:mID="18" v:groupContext="shape" transform="translate(170.499,-5.77851) rotate(-10.9291)">
			<title>工作表.18</title>
			<path d="M0 27.1 L36.8 27.1" class="st6"/>
		</g>
		<g id="shape19-31" v:mID="19" v:groupContext="shape" transform="translate(189.454,-20.216) rotate(15.0569)">
			<title>工作表.19</title>
			<path d="M0 27.1 L30.4 27.1" class="st6"/>
		</g>
	</g>
</svg>
