<?xml version="1.0" encoding="UTF-8" standalone="no"?>
<!DOCTYPE svg PUBLIC "-//W3C//DTD SVG 1.1//EN" "http://www.w3.org/Graphics/SVG/1.1/DTD/svg11.dtd">
<!-- 由 Microsoft Visio, SVG Export 產生 B01204.svg 頁-1 -->
<svg xmlns="http://www.w3.org/2000/svg" xmlns:xlink="http://www.w3.org/1999/xlink" xmlns:ev="http://www.w3.org/2001/xml-events"
		xmlns:v="http://schemas.microsoft.com/visio/2003/SVGExtensions/" width="4.88626in" height="0.382553in"
		viewBox="0 0 351.811 27.5438" xml:space="preserve" color-interpolation-filters="sRGB" class="st6">
	<v:documentProperties v:langID="1028" v:viewMarkup="false"/>

	<style type="text/css">
	<![CDATA[
		.st1 {fill:none;stroke:none;stroke-linecap:butt;stroke-width:0.75}
		.st2 {fill:#000000;font-family:新細明體;font-size:0.833336em}
		.st3 {fill:#000000;font-family:Times New Roman;font-size:0.833336em}
		.st4 {fill:none}
		.st5 {stroke:#000000;stroke-linecap:round;stroke-linejoin:round;stroke-width:0.5625}
		.st6 {fill:none;fill-rule:evenodd;font-size:12px;overflow:visible;stroke-linecap:square;stroke-miterlimit:3}
	]]>
	</style>

	<g v:mID="0" v:index="1" v:groupContext="foregroundPage">
		<title>頁-1</title>
		<v:pageProperties v:drawingScale="0.0393701" v:pageScale="0.0393701" v:drawingUnits="24" v:shadowOffsetX="9"
				v:shadowOffsetY="-9"/>
		<g id="shape2-1" v:mID="2" v:groupContext="shape" transform="translate(89.7921,-15.9146) rotate(0.1)">
			<title>工作表.2</title>
			<desc>摩訶衍是佛道</desc>
			<v:textBlock v:margins="rect(0,0,0,0)" v:tabSpace="42.5197"/>
			<v:textRect cx="36.6584" cy="22.1438" width="73.32" height="10.8"/>
			<rect x="0" y="16.7438" width="73.3168" height="10.8" class="st1"/>
			<text x="0" y="25.26" class="st2" v:langID="1028"><v:paragraph/><v:tabList/>摩訶衍是佛道</text>		</g>
		<g id="shape3-4" v:mID="3" v:groupContext="shape" transform="translate(151.78,-15.6783) rotate(0.1)">
			<title>工作表.3</title>
			<desc>─</desc>
			<v:textBlock v:margins="rect(0,0,0,0)" v:tabSpace="42.5197"/>
			<v:textRect cx="6.08973" cy="22.1438" width="12.18" height="10.8"/>
			<rect x="0" y="16.7438" width="12.1795" height="10.8" class="st1"/>
			<text x="0" y="25.14" class="st3" v:langID="1028"><v:paragraph/><v:tabList/>─</text>		</g>
		<g id="shape4-7" v:mID="4" v:groupContext="shape" transform="translate(163.679,-15.7575) rotate(0.1)">
			<title>工作表.4</title>
			<desc>佛道即六波羅密</desc>
			<v:textBlock v:margins="rect(0,0,0,0)" v:tabSpace="42.5197"/>
			<v:textRect cx="42.6822" cy="22.1438" width="85.37" height="10.8"/>
			<rect x="0" y="16.7438" width="85.3643" height="10.8" class="st1"/>
			<text x="0" y="25.26" class="st2" v:langID="1028"><v:paragraph/><v:tabList/>佛道即六波羅密</text>		</g>
		<g id="shape5-10" v:mID="5" v:groupContext="shape" transform="translate(235.804,-15.6397) rotate(0.1)">
			<title>工作表.5</title>
			<desc>─</desc>
			<v:textBlock v:margins="rect(0,0,0,0)" v:tabSpace="42.5197"/>
			<v:textRect cx="6.09774" cy="22.1438" width="12.2" height="10.8"/>
			<rect x="0" y="16.7438" width="12.1955" height="10.8" class="st1"/>
			<text x="0" y="25.14" class="st3" v:langID="1028"><v:paragraph/><v:tabList/>─</text>		</g>
		<g id="shape6-13" v:mID="6" v:groupContext="shape" transform="translate(247.958,-15.569) rotate(0.1)">
			<title>工作表.6</title>
			<desc>六中般若第一大。</desc>
			<v:textBlock v:margins="rect(0,0,0,0)" v:tabSpace="42.5197"/>
			<v:textRect cx="41.1232" cy="22.1438" width="82.25" height="10.8"/>
			<rect x="0" y="16.7438" width="82.2465" height="10.8" class="st1"/>
			<text x="-0" y="25.26" class="st2" v:langID="1028"><v:paragraph/><v:tabList/>六中般若第一大。</text>		</g>
		<g id="shape7-16" v:mID="7" v:groupContext="shape" transform="translate(0.798073,-8.36735) rotate(0.1)">
			<title>工作表.7</title>
			<desc>般若大乘名異義一</desc>
			<v:textBlock v:margins="rect(0,0,0,0)" v:tabSpace="42.5197"/>
			<v:textRect cx="41.9885" cy="22.1438" width="83.98" height="10.8"/>
			<rect x="0" y="16.7438" width="83.977" height="10.8" class="st1"/>
			<text x="0" y="25.26" class="st2" v:langID="1028"><v:paragraph/><v:tabList/>般若大乘名異義一</text>		</g>
		<g id="shape8-19" v:mID="8" v:groupContext="shape" transform="translate(89.7352,-1.15199) rotate(0.1)">
			<title>工作表.8</title>
			<desc>說般若則攝六度</desc>
			<v:textBlock v:margins="rect(0,0,0,0)" v:tabSpace="42.5197"/>
			<v:textRect cx="38.1028" cy="22.1438" width="76.21" height="10.8"/>
			<rect x="0" y="16.7438" width="76.2056" height="10.8" class="st1"/>
			<text x="0" y="25.26" class="st2" v:langID="1028"><v:paragraph/><v:tabList/>說般若則攝六度</text>		</g>
		<g id="shape9-22" v:mID="9" v:groupContext="shape" transform="translate(160.284,-1.20454) rotate(0.1)">
			<title>工作表.9</title>
			<desc>─</desc>
			<v:textBlock v:margins="rect(0,0,0,0)" v:tabSpace="42.5197"/>
			<v:textRect cx="6.48054" cy="22.1438" width="12.97" height="10.8"/>
			<rect x="0" y="16.7438" width="12.9611" height="10.8" class="st1"/>
			<text x="-0" y="25.14" class="st3" v:langID="1028"><v:paragraph/><v:tabList/>─</text>		</g>
		<g id="shape10-25" v:mID="10" v:groupContext="shape" transform="translate(172.574,-0.994914) rotate(0.1)">
			<title>工作表.10</title>
			<desc>說六度則具說菩薩道</desc>
			<v:textBlock v:margins="rect(0,0,0,0)" v:tabSpace="42.5197"/>
			<v:textRect cx="45.5835" cy="22.1438" width="91.17" height="10.8"/>
			<rect x="0" y="16.7438" width="91.1669" height="10.8" class="st1"/>
			<text x="0" y="25.26" class="st2" v:langID="1028"><v:paragraph/><v:tabList/>說六度則具說菩薩道</text>		</g>
		<g id="shape11-28" v:mID="11" v:groupContext="shape" transform="translate(264.787,-0.846438) rotate(0.1)">
			<title>工作表.11</title>
			<desc>─</desc>
			<v:textBlock v:margins="rect(0,0,0,0)" v:tabSpace="42.5197"/>
			<v:textRect cx="6.33947" cy="22.1438" width="12.68" height="10.8"/>
			<rect x="0" y="16.7438" width="12.6789" height="10.8" class="st1"/>
			<text x="0" y="25.14" class="st3" v:langID="1028"><v:paragraph/><v:tabList/>─</text>		</g>
		<g id="shape12-31" v:mID="12" v:groupContext="shape" transform="translate(277.071,-1.00628) rotate(0.1)">
			<title>工作表.12</title>
			<desc>菩薩道即大乘。</desc>
			<v:textBlock v:margins="rect(0,0,0,0)" v:tabSpace="42.5197"/>
			<v:textRect cx="37.0093" cy="22.1438" width="74.02" height="10.8"/>
			<rect x="0" y="16.7438" width="74.0186" height="10.8" class="st1"/>
			<text x="0" y="25.26" class="st2" v:langID="1028"><v:paragraph/><v:tabList/>菩薩道即大乘。</text>		</g>
		<g id="shape19-34" v:mID="19" v:groupContext="shape" transform="translate(111.102,1.41546) rotate(90.1)">
			<title>工作表.19</title>
			<path d="M0 21.86 C0 23.43 0.93 24.7 2.07 24.7 L10.38 24.7 C11.52 24.7 12.47 25.99 12.47 27.54 C12.47 25.99 13.4 24.7
						 14.54 24.7 L22.85 24.7 C23.99 24.7 24.94 23.43 24.94 21.86 L0 21.86 Z" class="st4"/>
			<path d="M0 21.86 C0 23.43 0.93 24.7 2.07 24.7 L10.38 24.7 C11.52 24.7 12.47 25.99 12.47 27.54 C12.47 25.99 13.4 24.7
						 14.54 24.7 L22.85 24.7 C23.99 24.7 24.94 23.43 24.94 21.86" class="st5"/>
		</g>
	</g>
</svg>
