<?xml version="1.0" encoding="UTF-8" standalone="no"?>
<!DOCTYPE svg PUBLIC "-//W3C//DTD SVG 1.1//EN" "http://www.w3.org/Graphics/SVG/1.1/DTD/svg11.dtd">
<!-- 由 Microsoft Visio, SVG Export 產生 B01107.svg 頁-1 -->
<svg xmlns="http://www.w3.org/2000/svg" xmlns:xlink="http://www.w3.org/1999/xlink" xmlns:ev="http://www.w3.org/2001/xml-events"
		xmlns:v="http://schemas.microsoft.com/visio/2003/SVGExtensions/" width="2.99932in" height="0.589938in"
		viewBox="0 0 215.951 42.4755" xml:space="preserve" color-interpolation-filters="sRGB" class="st6">
	<v:documentProperties v:langID="1028" v:viewMarkup="false"/>

	<style type="text/css">
	<![CDATA[
		.st1 {fill:none;stroke:none;stroke-linecap:butt;stroke-width:0.75}
		.st2 {fill:#000000;font-family:新細明體;font-size:0.833336em}
		.st3 {font-family:Times New Roman;font-size:1em}
		.st4 {fill:none}
		.st5 {stroke:#000000;stroke-linecap:round;stroke-linejoin:round;stroke-width:0.5625}
		.st6 {fill:none;fill-rule:evenodd;font-size:12px;overflow:visible;stroke-linecap:square;stroke-miterlimit:3}
	]]>
	</style>

	<g v:mID="0" v:index="1" v:groupContext="foregroundPage">
		<title>頁-1</title>
		<v:pageProperties v:drawingScale="0.0393701" v:pageScale="0.0393701" v:drawingUnits="24" v:shadowOffsetX="9"
				v:shadowOffsetY="-9"/>
		<g id="shape2-1" v:mID="2" v:groupContext="shape" transform="translate(80.233,-30.8463) rotate(0.1)">
			<title>工作表.2</title>
			<desc>大莊嚴──直行六度不破吾我</desc>
			<v:textBlock v:margins="rect(0,0,0,0)" v:tabSpace="42.5197"/>
			<v:textRect cx="66.6909" cy="37.0755" width="133.39" height="10.8"/>
			<rect x="0" y="31.6755" width="133.382" height="10.8" class="st1"/>
			<text x="0" y="40.19" class="st2" v:langID="1028"><v:paragraph/><v:tabList/>大莊嚴<tspan class="st3">──</tspan>直行六度不破吾我</text>		</g>
		<g id="shape3-5" v:mID="3" v:groupContext="shape" transform="translate(0.824134,-16.092) rotate(0.1)">
			<title>工作表.3</title>
			<desc>摩訶薩三事不同</desc>
			<v:textBlock v:margins="rect(0,0,0,0)" v:tabSpace="42.5197"/>
			<v:textRect cx="44.3705" cy="37.0755" width="88.75" height="10.8"/>
			<rect x="0" y="31.6755" width="88.7409" height="10.8" class="st1"/>
			<text x="-0" y="40.19" class="st2" v:langID="1028"><v:paragraph/><v:tabList/>摩訶薩三事不同</text>		</g>
		<g id="shape4-8" v:mID="4" v:groupContext="shape" transform="translate(80.2039,-15.9507) rotate(0.1)">
			<title>工作表.4</title>
			<desc>發趣大乘─入眾生空未入法空</desc>
			<v:textBlock v:margins="rect(0,0,0,0)" v:tabSpace="42.5197"/>
			<v:textRect cx="67.5245" cy="37.0755" width="135.05" height="10.8"/>
			<rect x="0" y="31.6755" width="135.049" height="10.8" class="st1"/>
			<text x="0" y="40.19" class="st2" v:langID="1028"><v:paragraph/><v:tabList/>發趣大乘<tspan class="st3">─</tspan>入眾生空未入法空</text>		</g>
		<g id="shape5-12" v:mID="5" v:groupContext="shape" transform="translate(80.1754,-1.05586) rotate(0.1)">
			<title>工作表.5</title>
			<desc>乘於大乘─因眾生空入法空中</desc>
			<v:textBlock v:margins="rect(0,0,0,0)" v:tabSpace="42.5197"/>
			<v:textRect cx="67.5406" cy="37.0755" width="135.09" height="10.8"/>
			<rect x="0" y="31.6755" width="135.081" height="10.8" class="st1"/>
			<text x="0" y="40.19" class="st2" v:langID="1028"><v:paragraph/><v:tabList/>乘於大乘<tspan class="st3">─</tspan>因眾生空入法空中</text>		</g>
		<g id="shape12-16" v:mID="12" v:groupContext="shape" transform="translate(114.794,1.6746) rotate(90.1)">
			<title>工作表.12</title>
			<path d="M0 36.81 C0 38.37 1.47 39.64 3.29 39.64 L16.52 39.64 C18.37 39.64 19.84 40.93 19.84 42.48 C19.84 40.93 21.32
						 39.64 23.13 39.64 L36.36 39.64 C38.21 39.64 39.68 38.37 39.68 36.81 L0 36.81 Z" class="st4"/>
			<path d="M0 36.81 C0 38.37 1.47 39.64 3.29 39.64 L16.52 39.64 C18.37 39.64 19.84 40.93 19.84 42.48 C19.84 40.93 21.32
						 39.64 23.13 39.64 L36.36 39.64 C38.21 39.64 39.68 38.37 39.68 36.81" class="st5"/>
		</g>
	</g>
</svg>
