<?xml version="1.0" encoding="UTF-8" standalone="no"?>
<!DOCTYPE svg PUBLIC "-//W3C//DTD SVG 1.1//EN" "http://www.w3.org/Graphics/SVG/1.1/DTD/svg11.dtd">
<!-- 由 Microsoft Visio, SVG Export 產生 B01205.svg 頁-1 -->
<svg xmlns="http://www.w3.org/2000/svg" xmlns:xlink="http://www.w3.org/1999/xlink" xmlns:ev="http://www.w3.org/2001/xml-events"
		xmlns:v="http://schemas.microsoft.com/visio/2003/SVGExtensions/" width="2.76462in" height="0.987522in"
		viewBox="0 0 199.053 71.1016" xml:space="preserve" color-interpolation-filters="sRGB" class="st6">
	<v:documentProperties v:langID="1028" v:viewMarkup="false"/>

	<style type="text/css">
	<![CDATA[
		.st1 {fill:none;stroke:none;stroke-linecap:butt;stroke-width:0.75}
		.st2 {fill:#000000;font-family:新細明體;font-size:0.833336em}
		.st3 {font-family:Times New Roman;font-size:1em}
		.st4 {fill:none}
		.st5 {stroke:#000000;stroke-linecap:round;stroke-linejoin:round;stroke-width:0.5625}
		.st6 {fill:none;fill-rule:evenodd;font-size:12px;overflow:visible;stroke-linecap:square;stroke-miterlimit:3}
	]]>
	</style>

	<g v:mID="0" v:index="1" v:groupContext="foregroundPage">
		<title>頁-1</title>
		<v:pageProperties v:drawingScale="0.0393701" v:pageScale="0.0393701" v:drawingUnits="24" v:shadowOffsetX="9"
				v:shadowOffsetY="-9"/>
		<g id="shape2-1" v:mID="2" v:groupContext="shape" transform="translate(81.9323,-59.4723) rotate(0.1)">
			<title>工作表.2</title>
			<desc>應薩婆若心……起施因緣</desc>
			<v:textBlock v:margins="rect(0,0,0,0)" v:tabSpace="42.5197"/>
			<v:textRect cx="58.2379" cy="65.7016" width="116.48" height="10.8"/>
			<rect x="0" y="60.3016" width="116.476" height="10.8" class="st1"/>
			<text x="0" y="68.82" class="st2" v:langID="1028"><v:paragraph/><v:tabList/>應薩婆若心<tspan class="st3">……</tspan>起施因緣</text>		</g>
		<g id="shape3-5" v:mID="3" v:groupContext="shape" transform="translate(81.9028,-44.375) rotate(0.1)">
			<title>工作表.3</title>
			<desc>內外所有布施</desc>
			<v:textBlock v:margins="rect(0,0,0,0)" v:tabSpace="42.5197"/>
			<v:textRect cx="41.2452" cy="65.7016" width="82.5" height="10.8"/>
			<rect x="0" y="60.3016" width="82.4904" height="10.8" class="st1"/>
			<text x="0" y="68.82" class="st2" v:langID="1028"><v:paragraph/><v:tabList/>內外所有布施</text>		</g>
		<g id="shape4-8" v:mID="4" v:groupContext="shape" transform="translate(0.874096,-28.7105) rotate(0.1)">
			<title>工作表.4</title>
			<desc>五相攝檀波羅密</desc>
			<v:textBlock v:margins="rect(0,0,0,0)" v:tabSpace="42.5197"/>
			<v:textRect cx="37.5396" cy="65.7016" width="75.08" height="10.8"/>
			<rect x="0" y="60.3016" width="75.0793" height="10.8" class="st1"/>
			<text x="0" y="68.82" class="st2" v:langID="1028"><v:paragraph/><v:tabList/>五相攝檀波羅密</text>		</g>
		<g id="shape5-11" v:mID="5" v:groupContext="shape" transform="translate(81.874,-29.8093) rotate(0.1)">
			<title>工作表.5</title>
			<desc>共一切眾生大悲</desc>
			<v:textBlock v:margins="rect(0,0,0,0)" v:tabSpace="42.5197"/>
			<v:textRect cx="52.5986" cy="65.7016" width="105.2" height="10.8"/>
			<rect x="0" y="60.3016" width="105.197" height="10.8" class="st1"/>
			<text x="0" y="68.82" class="st2" v:langID="1028"><v:paragraph/><v:tabList/>共一切眾生（大悲）</text>		</g>
		<g id="shape6-14" v:mID="6" v:groupContext="shape" transform="translate(81.8459,-15.1102) rotate(0.1)">
			<title>工作表.6</title>
			<desc>回向無上覺……是施福果</desc>
			<v:textBlock v:margins="rect(0,0,0,0)" v:tabSpace="42.5197"/>
			<v:textRect cx="56.81" cy="65.7016" width="113.62" height="10.8"/>
			<rect x="0" y="60.3016" width="113.62" height="10.8" class="st1"/>
			<text x="0" y="68.82" class="st2" v:langID="1028"><v:paragraph/><v:tabList/>回向無上覺<tspan class="st3">……</tspan>是施福果</text>		</g>
		<g id="shape7-18" v:mID="7" v:groupContext="shape" transform="translate(81.8157,-0.898732) rotate(0.1)">
			<title>工作表.7</title>
			<desc>用無所得</desc>
			<v:textBlock v:margins="rect(0,0,0,0)" v:tabSpace="42.5197"/>
			<v:textRect cx="28.2508" cy="65.7016" width="56.51" height="10.8"/>
			<rect x="0" y="60.3016" width="56.5015" height="10.8" class="st1"/>
			<text x="0" y="68.82" class="st2" v:langID="1028"><v:paragraph/><v:tabList/>用無所得</text>		</g>
		<g id="shape14-21" v:mID="14" v:groupContext="shape" transform="translate(143.667,2.71967) rotate(90.1)">
			<title>工作表.14</title>
			<path d="M0 65.23 C0 66.88 2.52 68.17 5.63 68.17 L28.13 68.17 C31.23 68.17 33.75 69.5 33.75 71.1 C33.75 69.5 36.27 68.17
						 39.38 68.17 L61.88 68.17 C64.98 68.17 67.5 66.88 67.5 65.23 L0 65.23 Z" class="st4"/>
			<path d="M0 65.23 C0 66.88 2.52 68.17 5.63 68.17 L28.13 68.17 C31.23 68.17 33.75 69.5 33.75 71.1 C33.75 69.5 36.27 68.17
						 39.38 68.17 L61.88 68.17 C64.98 68.17 67.5 66.88 67.5 65.23" class="st5"/>
		</g>
	</g>
</svg>
