<?xml version="1.0" encoding="UTF-8" standalone="no"?>
<!DOCTYPE svg PUBLIC "-//W3C//DTD SVG 1.1//EN" "http://www.w3.org/Graphics/SVG/1.1/DTD/svg11.dtd">
<!-- 由 Microsoft Visio, SVG Export 產生 B01210.svg 頁-1 -->
<svg xmlns="http://www.w3.org/2000/svg" xmlns:xlink="http://www.w3.org/1999/xlink" xmlns:ev="http://www.w3.org/2001/xml-events"
		xmlns:v="http://schemas.microsoft.com/visio/2003/SVGExtensions/" width="0.890561in" height="0.376861in"
		viewBox="0 0 64.1204 27.134" xml:space="preserve" color-interpolation-filters="sRGB" class="st5">
	<v:documentProperties v:langID="1028" v:viewMarkup="false"/>

	<style type="text/css">
	<![CDATA[
		.st1 {fill:none;stroke:none;stroke-linecap:butt;stroke-width:0.75}
		.st2 {fill:#000000;font-family:新細明體;font-size:0.833336em}
		.st3 {fill:none}
		.st4 {stroke:#000000;stroke-linecap:round;stroke-linejoin:round;stroke-width:0.5625}
		.st5 {fill:none;fill-rule:evenodd;font-size:12px;overflow:visible;stroke-linecap:square;stroke-miterlimit:3}
	]]>
	</style>

	<g v:mID="0" v:index="1" v:groupContext="foregroundPage">
		<title>頁-1</title>
		<v:pageProperties v:drawingScale="0.0393701" v:pageScale="0.0393701" v:drawingUnits="24" v:shadowOffsetX="9"
				v:shadowOffsetY="-9"/>
		<g id="shape8-1" v:mID="8" v:groupContext="shape" transform="translate(40.9266,-15.5048) rotate(0.1)">
			<title>工作表.8</title>
			<desc>舊戒</desc>
			<v:textBlock v:margins="rect(0,0,0,0)" v:tabSpace="42.5197"/>
			<v:textRect cx="11.2362" cy="21.734" width="22.48" height="10.8"/>
			<rect x="0" y="16.334" width="22.4723" height="10.8" class="st1"/>
			<text x="0" y="24.85" class="st2" v:langID="1028"><v:paragraph/><v:tabList/>舊戒</text>		</g>
		<g id="shape9-4" v:mID="9" v:groupContext="shape" transform="translate(0.797358,-8.38952) rotate(0.1)">
			<title>工作表.9</title>
			<desc>二種戒</desc>
			<v:textBlock v:margins="rect(0,0,0,0)" v:tabSpace="42.5197"/>
			<v:textRect cx="15.5853" cy="21.734" width="31.18" height="10.8"/>
			<rect x="0" y="16.334" width="31.1707" height="10.8" class="st1"/>
			<text x="-0" y="24.85" class="st2" v:langID="1028"><v:paragraph/><v:tabList/>二種戒</text>		</g>
		<g id="shape10-7" v:mID="10" v:groupContext="shape" transform="translate(40.8427,-0.863892) rotate(0.1)">
			<title>工作表.10</title>
			<desc>客戒</desc>
			<v:textBlock v:margins="rect(0,0,0,0)" v:tabSpace="42.5197"/>
			<v:textRect cx="11.2777" cy="21.734" width="22.56" height="10.8"/>
			<rect x="0" y="16.334" width="22.5554" height="10.8" class="st1"/>
			<text x="0" y="24.85" class="st2" v:langID="1028"><v:paragraph/><v:tabList/>客戒</text>		</g>
		<g id="shape11-10" v:mID="11" v:groupContext="shape" transform="translate(60.4879,1.14185) rotate(90.1)">
			<title>工作表.11</title>
			<path d="M0 20.98 C0 22.68 0.93 24.06 2.04 24.06 L10.22 24.06 C11.34 24.06 12.27 25.45 12.27 27.13 C12.27 25.45 13.19
						 24.06 14.31 24.06 L22.49 24.06 C23.61 24.06 24.53 22.68 24.53 20.98 L0 20.98 Z" class="st3"/>
			<path d="M0 20.98 C0 22.68 0.93 24.06 2.04 24.06 L10.22 24.06 C11.34 24.06 12.27 25.45 12.27 27.13 C12.27 25.45 13.19
						 24.06 14.31 24.06 L22.49 24.06 C23.61 24.06 24.53 22.68 24.53 20.98" class="st4"/>
		</g>
	</g>
</svg>
