<?xml version="1.0" encoding="UTF-8" standalone="no"?>
<!DOCTYPE svg PUBLIC "-//W3C//DTD SVG 1.1//EN" "http://www.w3.org/Graphics/SVG/1.1/DTD/svg11.dtd">
<!-- 由 Microsoft Visio, SVG Export 產生 B01201.svg 頁-1 -->
<svg xmlns="http://www.w3.org/2000/svg" xmlns:xlink="http://www.w3.org/1999/xlink" xmlns:ev="http://www.w3.org/2001/xml-events"
		xmlns:v="http://schemas.microsoft.com/visio/2003/SVGExtensions/" width="2.55565in" height="0.806852in"
		viewBox="0 0 184.007 58.0933" xml:space="preserve" color-interpolation-filters="sRGB" class="st6">
	<v:documentProperties v:langID="1028" v:viewMarkup="false"/>

	<style type="text/css">
	<![CDATA[
		.st1 {fill:none;stroke:none;stroke-linecap:butt;stroke-width:0.75}
		.st2 {fill:#000000;font-family:新細明體;font-size:0.833336em}
		.st3 {fill:none}
		.st4 {stroke:#000000;stroke-linecap:round;stroke-linejoin:round;stroke-width:0.5625}
		.st5 {stroke:#000000;stroke-dasharray:0.5625,1.125;stroke-linecap:round;stroke-linejoin:round;stroke-width:0.5625}
		.st6 {fill:none;fill-rule:evenodd;font-size:12px;overflow:visible;stroke-linecap:square;stroke-miterlimit:3}
	]]>
	</style>

	<g v:mID="0" v:index="1" v:groupContext="foregroundPage">
		<title>頁-1</title>
		<v:pageProperties v:drawingScale="0.0393701" v:pageScale="0.0393701" v:drawingUnits="24" v:shadowOffsetX="9"
				v:shadowOffsetY="-9"/>
		<g id="shape3-1" v:mID="3" v:groupContext="shape" transform="translate(50.8738,-46.4641) rotate(0.1)">
			<title>工作表.3</title>
			<desc>修行六度三輪體空</desc>
			<v:textBlock v:margins="rect(0,0,0,0)" v:tabSpace="42.5197"/>
			<v:textRect cx="51.4505" cy="52.6933" width="102.91" height="10.8"/>
			<rect x="0" y="47.2933" width="102.901" height="10.8" class="st1"/>
			<text x="0" y="55.81" class="st2" v:langID="1028"><v:paragraph/><v:tabList/>修行六度三輪體空</text>		</g>
		<g id="shape4-4" v:mID="4" v:groupContext="shape" transform="translate(50.845,-31.1643) rotate(0.1)">
			<title>工作表.4</title>
			<desc>修諸妙行修亦不得</desc>
			<v:textBlock v:margins="rect(0,0,0,0)" v:tabSpace="42.5197"/>
			<v:textRect cx="51.4653" cy="52.6933" width="102.94" height="10.8"/>
			<rect x="0" y="47.2933" width="102.931" height="10.8" class="st1"/>
			<text x="0" y="55.81" class="st2" v:langID="1028"><v:paragraph/><v:tabList/>修諸妙行修亦不得</text>		</g>
		<g id="shape5-7" v:mID="5" v:groupContext="shape" transform="translate(150.726,-30.9437) rotate(0.1)">
			<title>工作表.5</title>
			<desc>自利乘</desc>
			<v:textBlock v:margins="rect(0,0,0,0)" v:tabSpace="42.5197"/>
			<v:textRect cx="16.3059" cy="52.6933" width="32.62" height="10.8"/>
			<rect x="0" y="47.2933" width="32.6118" height="10.8" class="st1"/>
			<text x="0" y="55.81" class="st2" v:langID="1028"><v:paragraph/><v:tabList/>自利乘</text>		</g>
		<g id="shape6-10" v:mID="6" v:groupContext="shape" transform="translate(0.851392,-25.576) rotate(0.1)">
			<title>工作表.6</title>
			<desc>乘於大乘</desc>
			<v:textBlock v:margins="rect(0,0,0,0)" v:tabSpace="42.5197"/>
			<v:textRect cx="21.7956" cy="54.1762" width="43.6" height="7.8342"/>
			<rect x="0" y="50.2591" width="43.5913" height="7.8342" class="st1"/>
			<text x="0" y="57.29" class="st2" v:langID="1028"><v:paragraph/><v:tabList/>乘於大乘</text>		</g>
		<g id="shape7-13" v:mID="7" v:groupContext="shape" transform="translate(50.7874,-15.7943) rotate(0.1)">
			<title>工作表.7</title>
			<desc>若我若法達不可得</desc>
			<v:textBlock v:margins="rect(0,0,0,0)" v:tabSpace="42.5197"/>
			<v:textRect cx="50.0777" cy="52.6933" width="100.16" height="10.8"/>
			<rect x="0" y="47.2933" width="100.155" height="10.8" class="st1"/>
			<text x="0" y="55.81" class="st2" v:langID="1028"><v:paragraph/><v:tabList/>若我若法達不可得</text>		</g>
		<g id="shape8-16" v:mID="8" v:groupContext="shape" transform="translate(50.7586,-1.10121) rotate(0.1)">
			<title>工作表.8</title>
			<desc>具足神通成就眾生</desc>
			<v:textBlock v:margins="rect(0,0,0,0)" v:tabSpace="42.5197"/>
			<v:textRect cx="48.6752" cy="52.6933" width="97.36" height="10.8"/>
			<rect x="0" y="47.2933" width="97.3504" height="10.8" class="st1"/>
			<text x="0" y="55.81" class="st2" v:langID="1028"><v:paragraph/><v:tabList/>具足神通成就眾生</text>		</g>
		<g id="shape9-19" v:mID="9" v:groupContext="shape" transform="translate(150.639,-0.881299) rotate(0.1)">
			<title>工作表.9</title>
			<desc>利他乘</desc>
			<v:textBlock v:margins="rect(0,0,0,0)" v:tabSpace="42.5197"/>
			<v:textRect cx="16.3501" cy="52.6933" width="32.71" height="10.8"/>
			<rect x="0" y="47.2933" width="32.7001" height="10.8" class="st1"/>
			<text x="0" y="55.81" class="st2" v:langID="1028"><v:paragraph/><v:tabList/>利他乘</text>		</g>
		<g id="shape18-22" v:mID="18" v:groupContext="shape" transform="translate(101.256,1.68934) rotate(90.1)">
			<title>工作表.18</title>
			<path d="M0 52.44 C0 54 1.99 55.27 4.47 55.27 L22.43 55.27 C24.91 55.27 26.93 56.53 26.93 58.09 C26.93 56.53 28.92 55.27
						 31.4 55.27 L49.36 55.27 C51.84 55.27 53.86 54 53.86 52.44 L0 52.44 Z" class="st3"/>
			<path d="M0 52.44 C0 54 1.99 55.27 4.47 55.27 L22.43 55.27 C24.91 55.27 26.93 56.53 26.93 58.09 C26.93 56.53 28.92 55.27
						 31.4 55.27 L49.36 55.27 C51.84 55.27 53.86 54 53.86 52.44" class="st4"/>
		</g>
		<g id="shape19-25" v:mID="19" v:groupContext="shape" transform="translate(95.1744,-8.81967) rotate(-40.1434)">
			<title>工作表.19</title>
			<path d="M0 58.09 L21.98 58.09" class="st5"/>
		</g>
		<g id="shape20-28" v:mID="20" v:groupContext="shape" transform="translate(169.777,-37.162) rotate(39.6255)">
			<title>工作表.20</title>
			<path d="M0 58.09 L21.69 58.09" class="st5"/>
		</g>
		<g id="shape21-31" v:mID="21" v:groupContext="shape" transform="translate(132.424,-6.98942)">
			<title>工作表.21</title>
			<path d="M0 58.09 L15.59 58.09" class="st5"/>
		</g>
	</g>
</svg>
