<?xml version="1.0" encoding="UTF-8" standalone="no"?>
<!DOCTYPE svg PUBLIC "-//W3C//DTD SVG 1.1//EN" "http://www.w3.org/Graphics/SVG/1.1/DTD/svg11.dtd">
<!-- 由 Microsoft Visio, SVG Export 產生 B01407.svg 頁-1 -->
<svg xmlns="http://www.w3.org/2000/svg" xmlns:xlink="http://www.w3.org/1999/xlink" xmlns:ev="http://www.w3.org/2001/xml-events"
		xmlns:v="http://schemas.microsoft.com/visio/2003/SVGExtensions/" width="1.39608in" height="0.3868in"
		viewBox="0 0 100.518 27.8496" xml:space="preserve" color-interpolation-filters="sRGB" class="st5">
	<v:documentProperties v:langID="1028" v:viewMarkup="false"/>

	<style type="text/css">
	<![CDATA[
		.st1 {fill:none;stroke:none;stroke-linecap:butt;stroke-width:0.75}
		.st2 {fill:#000000;font-family:新細明體;font-size:0.833336em}
		.st3 {fill:none}
		.st4 {stroke:#000000;stroke-linecap:round;stroke-linejoin:round;stroke-width:0.5625}
		.st5 {fill:none;fill-rule:evenodd;font-size:12px;overflow:visible;stroke-linecap:square;stroke-miterlimit:3}
	]]>
	</style>

	<g v:mID="0" v:index="1" v:groupContext="foregroundPage">
		<title>頁-1</title>
		<v:pageProperties v:drawingScale="0.0393701" v:pageScale="0.0393701" v:drawingUnits="24" v:shadowOffsetX="9"
				v:shadowOffsetY="-9"/>
		<g id="shape2-1" v:mID="2" v:groupContext="shape" transform="translate(30.3104,-19.1178) rotate(0.1)">
			<title>工作表.2</title>
			<desc>六地折伏五情</desc>
			<v:textBlock v:margins="rect(0,0,0,0)" v:tabSpace="42.5197"/>
			<v:textRect cx="33.3371" cy="25.3468" width="66.68" height="5.00549"/>
			<rect x="0" y="22.8441" width="66.6742" height="5.00549" class="st1"/>
			<text x="-0" y="28.46" class="st2" v:langID="1028"><v:paragraph/><v:tabList/>六地折伏五情</text>		</g>
		<g id="shape3-4" v:mID="3" v:groupContext="shape" transform="translate(0.798607,-11.4803) rotate(0.1)">
			<title>工作表.3</title>
			<desc>七地</desc>
			<v:textBlock v:margins="rect(0,0,0,0)" v:tabSpace="42.5197"/>
			<v:textRect cx="17.1211" cy="25.3468" width="34.25" height="5.00549"/>
			<rect x="0" y="22.8441" width="34.2421" height="5.00549" class="st1"/>
			<text x="0" y="28.46" class="st2" v:langID="1028"><v:paragraph/><v:tabList/>七地</text>		</g>
		<g id="shape4-7" v:mID="4" v:groupContext="shape" transform="translate(30.2632,-3.83112) rotate(0.1)">
			<title>工作表.4</title>
			<desc>七地折伏意情</desc>
			<v:textBlock v:margins="rect(0,0,0,0)" v:tabSpace="42.5197"/>
			<v:textRect cx="34.7724" cy="25.3468" width="69.55" height="5.00549"/>
			<rect x="0" y="22.8441" width="69.5449" height="5.00549" class="st1"/>
			<text x="0" y="28.46" class="st2" v:langID="1028"><v:paragraph/><v:tabList/>七地折伏意情</text>		</g>
		<g id="shape13-10" v:mID="13" v:groupContext="shape" transform="translate(51.0988,2.85341) rotate(90.1)">
			<title>工作表.13</title>
			<path d="M0 22.18 C0 23.75 0.85 25.01 1.92 25.01 L9.57 25.01 C10.62 25.01 11.48 26.3 11.48 27.85 C11.48 26.3 12.33 25.01
						 13.4 25.01 L21.05 25.01 C22.1 25.01 22.95 23.75 22.95 22.18 L0 22.18 Z" class="st3"/>
			<path d="M0 22.18 C0 23.75 0.85 25.01 1.92 25.01 L9.57 25.01 C10.62 25.01 11.48 26.3 11.48 27.85 C11.48 26.3 12.33 25.01
						 13.4 25.01 L21.05 25.01 C22.1 25.01 22.95 23.75 22.95 22.18" class="st4"/>
		</g>
	</g>
</svg>
