<?xml version="1.0" encoding="UTF-8" standalone="no"?>
<!DOCTYPE svg PUBLIC "-//W3C//DTD SVG 1.1//EN" "http://www.w3.org/Graphics/SVG/1.1/DTD/svg11.dtd">
<!-- 由 Microsoft Visio, SVG Export 產生 B01504.svg 頁-1 -->
<svg xmlns="http://www.w3.org/2000/svg" xmlns:xlink="http://www.w3.org/1999/xlink" xmlns:ev="http://www.w3.org/2001/xml-events"
		xmlns:v="http://schemas.microsoft.com/visio/2003/SVGExtensions/" width="3.93739in" height="0.595999in"
		viewBox="0 0 283.492 42.9119" xml:space="preserve" color-interpolation-filters="sRGB" class="st5">
	<v:documentProperties v:langID="1028" v:viewMarkup="false"/>

	<style type="text/css">
	<![CDATA[
		.st1 {fill:none;stroke:none;stroke-linecap:butt;stroke-width:0.75}
		.st2 {fill:#000000;font-family:新細明體;font-size:0.833336em}
		.st3 {fill:none}
		.st4 {stroke:#000000;stroke-linecap:round;stroke-linejoin:round;stroke-width:0.5625}
		.st5 {fill:none;fill-rule:evenodd;font-size:12px;overflow:visible;stroke-linecap:square;stroke-miterlimit:3}
	]]>
	</style>

	<g v:mID="0" v:index="1" v:groupContext="foregroundPage">
		<title>頁-1</title>
		<v:pageProperties v:drawingScale="0.0393701" v:pageScale="0.0393701" v:drawingUnits="24" v:shadowOffsetX="9"
				v:shadowOffsetY="-9"/>
		<g id="shape14-1" v:mID="14" v:groupContext="shape" transform="translate(61.9333,-31.9098) rotate(0.1)">
			<title>工作表.14</title>
			<desc>一、不住者自相中不住非不住者異相中不住。</desc>
			<v:textBlock v:margins="rect(0,0,0,0)" v:tabSpace="42.5197"/>
			<v:textRect cx="110.434" cy="38.139" width="220.87" height="9.54585"/>
			<rect x="0" y="33.3661" width="220.867" height="9.54585" class="st1"/>
			<text x="-0" y="41.25" class="st2" v:langID="1028"><v:paragraph/><v:tabList/>一、不住者，自相中不住，非不住者異相中不住。</text>		</g>
		<g id="shape15-4" v:mID="15" v:groupContext="shape" transform="translate(0.824895,-17.6532) rotate(0.1)">
			<title>工作表.15</title>
			<desc>非住非不住</desc>
			<v:textBlock v:margins="rect(0,0,0,0)" v:tabSpace="42.5197"/>
			<v:textRect cx="30.6724" cy="38.139" width="61.35" height="9.54585"/>
			<rect x="0" y="33.3661" width="61.3449" height="9.54585" class="st1"/>
			<text x="-0" y="41.25" class="st2" v:langID="1028"><v:paragraph/><v:tabList/>非住非不住</text>		</g>
		<g id="shape16-7" v:mID="16" v:groupContext="shape" transform="translate(61.9045,-17.3125) rotate(0.1)">
			<title>工作表.16</title>
			<desc>一、不住者說空破有非不住者說世諦有住。</desc>
			<v:textBlock v:margins="rect(0,0,0,0)" v:tabSpace="42.5197"/>
			<v:textRect cx="108.325" cy="38.139" width="216.65" height="9.54585"/>
			<rect x="0" y="33.3661" width="216.65" height="9.54585" class="st1"/>
			<text x="0" y="41.25" class="st2" v:langID="1028"><v:paragraph/><v:tabList/>一、不住者說空破有，非不住者，說世諦有住。</text>		</g>
		<g id="shape17-10" v:mID="17" v:groupContext="shape" transform="translate(62.119,-1.78768) rotate(0.1)">
			<title>工作表.17</title>
			<desc>一、不住者說無常破常非不住者破滅相。</desc>
			<v:textBlock v:margins="rect(0,0,0,0)" v:tabSpace="42.5197"/>
			<v:textRect cx="99.6095" cy="38.139" width="199.22" height="9.54585"/>
			<rect x="0" y="33.3661" width="199.219" height="9.54585" class="st1"/>
			<text x="0" y="41.25" class="st2" v:langID="1028"><v:paragraph/><v:tabList/>一、不住者說無常破常，非不住者破滅相。</text>		</g>
		<g id="shape24-13" v:mID="24" v:groupContext="shape" transform="translate(96.1438,0.508624) rotate(90.1)">
			<title>工作表.24</title>
			<path d="M0 37.24 C0 38.81 1.49 40.08 3.32 40.08 L16.68 40.08 C18.52 40.08 20.04 41.36 20.04 42.91 C20.04 41.36 21.53
						 40.08 23.37 40.08 L36.73 40.08 C38.56 40.08 40.09 38.81 40.09 37.24 L0 37.24 Z" class="st3"/>
			<path d="M0 37.24 C0 38.81 1.49 40.08 3.32 40.08 L16.68 40.08 C18.52 40.08 20.04 41.36 20.04 42.91 C20.04 41.36 21.53
						 40.08 23.37 40.08 L36.73 40.08 C38.56 40.08 40.09 38.81 40.09 37.24" class="st4"/>
		</g>
	</g>
</svg>
