<?xml version="1.0" encoding="UTF-8" standalone="no"?>
<!DOCTYPE svg PUBLIC "-//W3C//DTD SVG 1.1//EN" "http://www.w3.org/Graphics/SVG/1.1/DTD/svg11.dtd">
<!-- 由 Microsoft Visio, SVG Export 產生 B01410.svg 頁-1 -->
<svg xmlns="http://www.w3.org/2000/svg" xmlns:xlink="http://www.w3.org/1999/xlink" xmlns:ev="http://www.w3.org/2001/xml-events"
		xmlns:v="http://schemas.microsoft.com/visio/2003/SVGExtensions/" width="4.02474in" height="1.01717in"
		viewBox="0 0 289.781 73.236" xml:space="preserve" color-interpolation-filters="sRGB" class="st6">
	<v:documentProperties v:langID="1028" v:viewMarkup="false"/>

	<style type="text/css">
	<![CDATA[
		.st1 {fill:none;stroke:none;stroke-linecap:butt;stroke-width:0.75}
		.st2 {fill:#000000;font-family:新細明體;font-size:0.833336em}
		.st3 {fill:none}
		.st4 {stroke:#000000;stroke-linecap:round;stroke-linejoin:round;stroke-width:0.5625}
		.st5 {stroke:#000000;stroke-dasharray:0.5625,1.125;stroke-linecap:round;stroke-linejoin:round;stroke-width:0.5625}
		.st6 {fill:none;fill-rule:evenodd;font-size:12px;overflow:visible;stroke-linecap:square;stroke-miterlimit:3}
	]]>
	</style>

	<g v:mID="0" v:index="1" v:groupContext="foregroundPage">
		<title>頁-1</title>
		<v:pageProperties v:drawingScale="0.0393701" v:pageScale="0.0393701" v:drawingUnits="24" v:shadowOffsetX="9"
				v:shadowOffsetY="-9"/>
		<g id="shape2-1" v:mID="2" v:groupContext="shape" transform="translate(31.4606,-61.5006) rotate(0.1)">
			<title>工作表.2</title>
			<desc>三千大千世界</desc>
			<v:textBlock v:margins="rect(0,0,0,0)" v:tabSpace="42.5197"/>
			<v:textRect cx="49.2496" cy="68.3189" width="98.5" height="9.83425"/>
			<rect x="0" y="63.4017" width="98.4992" height="9.83425" class="st1"/>
			<text x="0" y="71.43" class="st2" v:langID="1028"><v:paragraph/><v:tabList/>三千大千世界</text>		</g>
		<g id="shape3-4" v:mID="3" v:groupContext="shape" transform="translate(160.047,-62.0896) rotate(0.1)">
			<title>工作表.3</title>
			<desc>一世界</desc>
			<v:textBlock v:margins="rect(0,0,0,0)" v:tabSpace="42.5197"/>
			<v:textRect cx="17.333" cy="68.3189" width="34.67" height="9.83425"/>
			<rect x="0" y="63.4017" width="34.6659" height="9.83425" class="st1"/>
			<text x="0" y="71.43" class="st2" v:langID="1028"><v:paragraph/><v:tabList/>一世界</text>		</g>
		<g id="shape4-7" v:mID="4" v:groupContext="shape" transform="translate(31.4297,-46.5089) rotate(0.1)">
			<title>工作表.4</title>
			<desc>十方如恒河沙等世界</desc>
			<v:textBlock v:margins="rect(0,0,0,0)" v:tabSpace="42.5197"/>
			<v:textRect cx="53.0396" cy="68.3189" width="106.08" height="9.83425"/>
			<rect x="0" y="63.4017" width="106.079" height="9.83425" class="st1"/>
			<text x="0" y="71.43" class="st2" v:langID="1028"><v:paragraph/><v:tabList/>十方如恒河沙等世界</text>		</g>
		<g id="shape5-10" v:mID="5" v:groupContext="shape" transform="translate(159.91,-47.0911) rotate(0.1)">
			<title>工作表.5</title>
			<desc>一佛世界</desc>
			<v:textBlock v:margins="rect(0,0,0,0)" v:tabSpace="42.5197"/>
			<v:textRect cx="31.4254" cy="68.3189" width="62.86" height="9.83425"/>
			<rect x="0" y="63.4017" width="62.8508" height="9.83425" class="st1"/>
			<text x="-0" y="71.43" class="st2" v:langID="1028"><v:paragraph/><v:tabList/>一佛世界</text>		</g>
		<g id="shape6-13" v:mID="6" v:groupContext="shape" transform="translate(225.567,-46.9909) rotate(0.1)">
			<title>工作表.6</title>
			<desc>一佛化此一分</desc>
			<v:textBlock v:margins="rect(0,0,0,0)" v:tabSpace="42.5197"/>
			<v:textRect cx="31.7873" cy="68.3189" width="63.58" height="9.83425"/>
			<rect x="0" y="63.4017" width="63.5746" height="9.83425" class="st1"/>
			<text x="0" y="71.43" class="st2" v:langID="1028"><v:paragraph/><v:tabList/>一佛化此一分</text>		</g>
		<g id="shape7-16" v:mID="7" v:groupContext="shape" transform="translate(0.877821,-30.715) rotate(0.1)">
			<title>工作表.7</title>
			<desc>世界</desc>
			<v:textBlock v:margins="rect(0,0,0,0)" v:tabSpace="42.5197"/>
			<v:textRect cx="12.7623" cy="68.0935" width="25.53" height="10.285"/>
			<rect x="0" y="62.951" width="25.5246" height="10.285" class="st1"/>
			<text x="0" y="71.21" class="st2" v:langID="1028"><v:paragraph/><v:tabList/>世界</text>		</g>
		<g id="shape8-19" v:mID="8" v:groupContext="shape" transform="translate(31.4002,-31.4714) rotate(0.1)">
			<title>工作表.8</title>
			<desc>十方如恒河沙等一佛世界</desc>
			<v:textBlock v:margins="rect(0,0,0,0)" v:tabSpace="42.5197"/>
			<v:textRect cx="59.7138" cy="68.3189" width="119.43" height="9.83425"/>
			<rect x="0" y="63.4017" width="119.428" height="9.83425" class="st1"/>
			<text x="0" y="71.43" class="st2" v:langID="1028"><v:paragraph/><v:tabList/>十方如恒河沙等一佛世界</text>		</g>
		<g id="shape9-22" v:mID="9" v:groupContext="shape" transform="translate(159.987,-32.0593) rotate(0.1)">
			<title>工作表.9</title>
			<desc>一世界海</desc>
			<v:textBlock v:margins="rect(0,0,0,0)" v:tabSpace="42.5197"/>
			<v:textRect cx="23.0324" cy="68.3189" width="46.07" height="9.83425"/>
			<rect x="0" y="63.4017" width="46.0648" height="9.83425" class="st1"/>
			<text x="0" y="71.43" class="st2" v:langID="1028"><v:paragraph/><v:tabList/>一世界海</text>		</g>
		<g id="shape10-25" v:mID="10" v:groupContext="shape" transform="translate(31.3714,-16.4346) rotate(0.1)">
			<title>工作表.10</title>
			<desc>十方如恒河沙等一佛世界海</desc>
			<v:textBlock v:margins="rect(0,0,0,0)" v:tabSpace="42.5197"/>
			<v:textRect cx="67.2409" cy="68.3189" width="134.49" height="9.83425"/>
			<rect x="0" y="63.4017" width="134.482" height="9.83425" class="st1"/>
			<text x="-0" y="71.43" class="st2" v:langID="1028"><v:paragraph/><v:tabList/>十方如恒河沙等一佛世界海</text>		</g>
		<g id="shape11-28" v:mID="11" v:groupContext="shape" transform="translate(159.958,-17.0218) rotate(0.1)">
			<title>工作表.11</title>
			<desc>一佛世界種</desc>
			<v:textBlock v:margins="rect(0,0,0,0)" v:tabSpace="42.5197"/>
			<v:textRect cx="28.0074" cy="68.3189" width="56.02" height="9.83425"/>
			<rect x="0" y="63.4017" width="56.0147" height="9.83425" class="st1"/>
			<text x="-0" y="71.43" class="st2" v:langID="1028"><v:paragraph/><v:tabList/>一佛世界種</text>		</g>
		<g id="shape12-31" v:mID="12" v:groupContext="shape" transform="translate(31.3434,-1.43399) rotate(0.1)">
			<title>工作表.12</title>
			<desc>十方無量世界種</desc>
			<v:textBlock v:margins="rect(0,0,0,0)" v:tabSpace="42.5197"/>
			<v:textRect cx="44.8612" cy="68.3189" width="89.73" height="9.83425"/>
			<rect x="0" y="63.4017" width="89.7225" height="9.83425" class="st1"/>
			<text x="0" y="71.43" class="st2" v:langID="1028"><v:paragraph/><v:tabList/>十方無量世界種</text>		</g>
		<g id="shape13-34" v:mID="13" v:groupContext="shape" transform="translate(159.93,-2.02323) rotate(0.1)">
			<title>工作表.13</title>
			<desc>一切世界</desc>
			<v:textBlock v:margins="rect(0,0,0,0)" v:tabSpace="42.5197"/>
			<v:textRect cx="23.0608" cy="68.3189" width="46.13" height="9.83425"/>
			<rect x="0" y="63.4017" width="46.1215" height="9.83425" class="st1"/>
			<text x="-0" y="71.43" class="st2" v:langID="1028"><v:paragraph/><v:tabList/>一切世界</text>		</g>
		<g id="shape20-37" v:mID="20" v:groupContext="shape" transform="translate(96.4954,2.01689) rotate(90.1)">
			<title>工作表.20</title>
			<path d="M0 68.16 C0 69.56 2.66 70.7 5.91 70.7 L29.48 70.7 C32.74 70.7 35.35 71.85 35.35 73.24 C35.35 71.85 38.01 70.7
						 41.27 70.7 L64.84 70.7 C68.1 70.7 70.71 69.56 70.71 68.16 L0 68.16 Z" class="st3"/>
			<path d="M0 68.16 C0 69.56 2.66 70.7 5.91 70.7 L29.48 70.7 C32.74 70.7 35.35 71.85 35.35 73.24 C35.35 71.85 38.01 70.7
						 41.27 70.7 L64.84 70.7 C68.1 70.7 70.71 69.56 70.71 68.16" class="st4"/>
		</g>
		<g id="shape21-40" v:mID="21" v:groupContext="shape" transform="translate(95.0376,-66.4508)">
			<title>工作表.21</title>
			<path d="M0 73.24 L61.29 73.24" class="st5"/>
		</g>
		<g id="shape22-43" v:mID="22" v:groupContext="shape" transform="translate(122.213,-52.1521) rotate(0.0910579)">
			<title>工作表.22</title>
			<path d="M0 73.24 L33.75 73.24" class="st4"/>
		</g>
		<g id="shape23-46" v:mID="23" v:groupContext="shape" transform="translate(104.686,-7.02486)">
			<title>工作表.23</title>
			<path d="M0 73.24 L51.64 73.24" class="st4"/>
		</g>
		<g id="shape24-49" v:mID="24" v:groupContext="shape" transform="translate(142.087,-36.4326) rotate(-0.0503302)">
			<title>工作表.24</title>
			<path d="M0 73.24 L14.12 73.24" class="st4"/>
		</g>
		<g id="shape25-52" v:mID="25" v:groupContext="shape" transform="translate(202.648,-52.0703) rotate(0.0910579)">
			<title>工作表.25</title>
			<path d="M0 73.24 L20.25 73.24" class="st5"/>
		</g>
	</g>
</svg>
