<?xml version="1.0" encoding="UTF-8" standalone="no"?>
<!DOCTYPE svg PUBLIC "-//W3C//DTD SVG 1.1//EN" "http://www.w3.org/Graphics/SVG/1.1/DTD/svg11.dtd">
<!-- 由 Microsoft Visio, SVG Export 產生 B01408.svg 頁-1 -->
<svg xmlns="http://www.w3.org/2000/svg" xmlns:xlink="http://www.w3.org/1999/xlink" xmlns:ev="http://www.w3.org/2001/xml-events"
		xmlns:v="http://schemas.microsoft.com/visio/2003/SVGExtensions/" width="1.69917in" height="0.50612in"
		viewBox="0 0 122.34 36.4406" xml:space="preserve" color-interpolation-filters="sRGB" class="st5">
	<v:documentProperties v:langID="1028" v:viewMarkup="false"/>

	<style type="text/css">
	<![CDATA[
		.st1 {fill:none;stroke:none;stroke-linecap:butt;stroke-width:0.75}
		.st2 {fill:#000000;font-family:新細明體;font-size:0.833336em}
		.st3 {fill:none}
		.st4 {stroke:#000000;stroke-linecap:round;stroke-linejoin:round;stroke-width:0.5625}
		.st5 {fill:none;fill-rule:evenodd;font-size:12px;overflow:visible;stroke-linecap:square;stroke-miterlimit:3}
	]]>
	</style>

	<g v:mID="0" v:index="1" v:groupContext="foregroundPage">
		<title>頁-1</title>
		<v:pageProperties v:drawingScale="0.0393701" v:pageScale="0.0393701" v:drawingUnits="24" v:shadowOffsetX="9"
				v:shadowOffsetY="-9"/>
		<g id="shape2-1" v:mID="2" v:groupContext="shape" transform="translate(0.813601,-27.6748) rotate(0.1)">
			<title>工作表.2</title>
			<desc>八地</desc>
			<v:textBlock v:margins="rect(0,0,0,0)" v:tabSpace="42.5197"/>
			<v:textRect cx="14.6023" cy="33.904" width="29.21" height="5.07332"/>
			<rect x="0" y="31.3673" width="29.2045" height="5.07332" class="st1"/>
			<text x="0" y="37.02" class="st2" v:langID="1028"><v:paragraph/><v:tabList/>八地</text>		</g>
		<g id="shape3-4" v:mID="3" v:groupContext="shape" transform="translate(50.5695,-19.3313) rotate(0.1)">
			<title>工作表.3</title>
			<desc>菩薩自淨其身</desc>
			<v:textBlock v:margins="rect(0,0,0,0)" v:tabSpace="42.5197"/>
			<v:textRect cx="34.4534" cy="33.904" width="68.91" height="5.07332"/>
			<rect x="0" y="31.3673" width="68.9068" height="5.07332" class="st1"/>
			<text x="0" y="37.02" class="st2" v:langID="1028"><v:paragraph/><v:tabList/>菩薩自淨其身</text>		</g>
		<g id="shape4-7" v:mID="4" v:groupContext="shape" transform="translate(0.925329,-12.5665) rotate(0.1)">
			<title>工作表.4</title>
			<desc>淨佛世界</desc>
			<v:textBlock v:margins="rect(0,0,0,0)" v:tabSpace="42.5197"/>
			<v:textRect cx="31.9002" cy="33.904" width="63.81" height="5.07332"/>
			<rect x="0" y="31.3673" width="63.8005" height="5.07332" class="st1"/>
			<text x="0" y="37.02" class="st2" v:langID="1028"><v:paragraph/><v:tabList/>淨佛世界</text>		</g>
		<g id="shape5-10" v:mID="5" v:groupContext="shape" transform="translate(51.0435,-3.81451) rotate(0.1)">
			<title>工作表.5</title>
			<desc>淨眾生心令行道</desc>
			<v:textBlock v:margins="rect(0,0,0,0)" v:tabSpace="42.5197"/>
			<v:textRect cx="35.3008" cy="33.904" width="70.61" height="5.07332"/>
			<rect x="0" y="31.3673" width="70.6016" height="5.07332" class="st1"/>
			<text x="0" y="37.02" class="st2" v:langID="1028"><v:paragraph/><v:tabList/>淨眾生心令行道</text>		</g>
		<g id="shape12-13" v:mID="12" v:groupContext="shape" transform="translate(79.4338,9.43306) rotate(90.1)">
			<title>工作表.12</title>
			<path d="M0 31.44 C0 32.82 0.96 33.94 2.11 33.94 L10.55 33.94 C11.71 33.94 12.66 35.07 12.66 36.44 C12.66 35.07 13.62
						 33.94 14.77 33.94 L23.21 33.94 C24.37 33.94 25.32 32.82 25.32 31.44 L0 31.44 Z" class="st3"/>
			<path d="M0 31.44 C0 32.82 0.96 33.94 2.11 33.94 L10.55 33.94 C11.71 33.94 12.66 35.07 12.66 36.44 C12.66 35.07 13.62
						 33.94 14.77 33.94 L23.21 33.94 C24.37 33.94 25.32 32.82 25.32 31.44" class="st4"/>
		</g>
	</g>
</svg>
