<?xml version="1.0" encoding="UTF-8" standalone="no"?>
<!DOCTYPE svg PUBLIC "-//W3C//DTD SVG 1.1//EN" "http://www.w3.org/Graphics/SVG/1.1/DTD/svg11.dtd">
<!-- 由 Microsoft Visio, SVG Export 產生 B01405.svg 頁-1 -->
<svg xmlns="http://www.w3.org/2000/svg" xmlns:xlink="http://www.w3.org/1999/xlink" xmlns:ev="http://www.w3.org/2001/xml-events"
		xmlns:v="http://schemas.microsoft.com/visio/2003/SVGExtensions/" width="3.44459in" height="0.376067in"
		viewBox="0 0 248.011 27.0768" xml:space="preserve" color-interpolation-filters="sRGB" class="st6">
	<v:documentProperties v:langID="1028" v:viewMarkup="false"/>

	<style type="text/css">
	<![CDATA[
		.st1 {fill:none;stroke:none;stroke-linecap:butt;stroke-width:0.75}
		.st2 {fill:#000000;font-family:新細明體;font-size:0.833336em}
		.st3 {fill:#000000;font-family:Times New Roman;font-size:0.833336em}
		.st4 {fill:none}
		.st5 {stroke:#000000;stroke-linecap:round;stroke-linejoin:round;stroke-width:0.5625}
		.st6 {fill:none;fill-rule:evenodd;font-size:12px;overflow:visible;stroke-linecap:square;stroke-miterlimit:3}
	]]>
	</style>

	<g v:mID="0" v:index="1" v:groupContext="foregroundPage">
		<title>頁-1</title>
		<v:pageProperties v:drawingScale="0.0393701" v:pageScale="0.0393701" v:drawingUnits="24" v:shadowOffsetX="9"
				v:shadowOffsetY="-9"/>
		<g id="shape2-1" v:mID="2" v:groupContext="shape" transform="translate(40.4208,-15.4476) rotate(0.1)">
			<title>工作表.2</title>
			<desc>一、七地前折伏粗煩惱</desc>
			<v:textBlock v:margins="rect(0,0,0,0)" v:tabSpace="42.5197"/>
			<v:textRect cx="53.1195" cy="21.6768" width="106.24" height="10.8"/>
			<rect x="0" y="16.2768" width="106.239" height="10.8" class="st1"/>
			<text x="-0" y="24.79" class="st2" v:langID="1028"><v:paragraph/><v:tabList/>一、七地前折伏粗煩惱</text>		</g>
		<g id="shape3-4" v:mID="3" v:groupContext="shape" transform="translate(141.382,-15.2827) rotate(0.1)">
			<title>工作表.3</title>
			<desc>─</desc>
			<v:textBlock v:margins="rect(0,0,0,0)" v:tabSpace="42.5197"/>
			<v:textRect cx="4.5" cy="21.6768" width="9.01" height="10.8"/>
			<rect x="0" y="16.2768" width="9" height="10.8" class="st1"/>
			<text x="0" y="24.68" class="st3" v:langID="1028"><v:paragraph/><v:tabList/>─</text>		</g>
		<g id="shape4-7" v:mID="4" v:groupContext="shape" transform="translate(153.215,-15.2591) rotate(0.1)">
			<title>工作表.4</title>
			<desc>愛見慢等細者七地離</desc>
			<v:textBlock v:margins="rect(0,0,0,0)" v:tabSpace="42.5197"/>
			<v:textRect cx="47.0374" cy="21.6768" width="94.08" height="10.8"/>
			<rect x="0" y="16.2768" width="94.0748" height="10.8" class="st1"/>
			<text x="0" y="24.79" class="st2" v:langID="1028"><v:paragraph/><v:tabList/>愛見慢等細者七地離</text>		</g>
		<g id="shape5-10" v:mID="5" v:groupContext="shape" transform="translate(0.797258,-11.4072) rotate(0.1)">
			<title>工作表.5</title>
			<desc>轉煩惱</desc>
			<v:textBlock v:margins="rect(0,0,0,0)" v:tabSpace="42.5197"/>
			<v:textRect cx="22.4852" cy="24.3232" width="44.98" height="5.50731"/>
			<rect x="0" y="21.5695" width="44.9704" height="5.50731" class="st1"/>
			<text x="0" y="27.44" class="st2" v:langID="1028"><v:paragraph/><v:tabList/>轉煩惱</text>		</g>
		<g id="shape6-13" v:mID="6" v:groupContext="shape" transform="translate(40.3625,-0.968613) rotate(0.1)">
			<title>工作表.6</title>
			<desc>二、觀煩惱即實相</desc>
			<v:textBlock v:margins="rect(0,0,0,0)" v:tabSpace="42.5197"/>
			<v:textRect cx="49.6063" cy="21.6768" width="99.22" height="10.8"/>
			<rect x="0" y="16.2768" width="99.2125" height="10.8" class="st1"/>
			<text x="-0" y="24.79" class="st2" v:langID="1028"><v:paragraph/><v:tabList/>二、觀煩惱即實相</text>		</g>
		<g id="shape13-16" v:mID="13" v:groupContext="shape" transform="translate(59.6934,1.54328) rotate(90.1)">
			<title>工作表.13</title>
			<path d="M0 21.41 C0 22.98 0.89 24.24 2.02 24.24 L10.05 24.24 C11.15 24.24 12.05 25.51 12.05 27.08 C12.05 25.51 12.94
						 24.24 14.07 24.24 L22.1 24.24 C23.2 24.24 24.09 22.98 24.09 21.41 L0 21.41 Z" class="st4"/>
			<path d="M0 21.41 C0 22.98 0.89 24.24 2.02 24.24 L10.05 24.24 C11.15 24.24 12.05 25.51 12.05 27.08 C12.05 25.51 12.94
						 24.24 14.07 24.24 L22.1 24.24 C23.2 24.24 24.09 22.98 24.09 21.41" class="st5"/>
		</g>
	</g>
</svg>
