<?xml version="1.0" encoding="UTF-8" standalone="no"?>
<!DOCTYPE svg PUBLIC "-//W3C//DTD SVG 1.1//EN" "http://www.w3.org/Graphics/SVG/1.1/DTD/svg11.dtd">
<!-- 由 Microsoft Visio, SVG Export 產生 B01602.svg 頁-1 -->
<svg xmlns="http://www.w3.org/2000/svg" xmlns:xlink="http://www.w3.org/1999/xlink" xmlns:ev="http://www.w3.org/2001/xml-events"
		xmlns:v="http://schemas.microsoft.com/visio/2003/SVGExtensions/" width="3.9821in" height="1.0951in"
		viewBox="0 0 286.711 78.847" xml:space="preserve" color-interpolation-filters="sRGB" class="st6">
	<v:documentProperties v:langID="1028" v:viewMarkup="false"/>

	<style type="text/css">
	<![CDATA[
		.st1 {fill:none;stroke:none;stroke-linecap:butt;stroke-width:0.75}
		.st2 {fill:#000000;font-family:新細明體;font-size:0.833336em}
		.st3 {font-family:Times New Roman;font-size:1em}
		.st4 {fill:none}
		.st5 {stroke:#000000;stroke-linecap:round;stroke-linejoin:round;stroke-width:0.5625}
		.st6 {fill:none;fill-rule:evenodd;font-size:12px;overflow:visible;stroke-linecap:square;stroke-miterlimit:3}
	]]>
	</style>

	<g v:mID="0" v:index="1" v:groupContext="foregroundPage">
		<title>頁-1</title>
		<v:pageProperties v:drawingScale="0.0393701" v:pageScale="0.0393701" v:drawingUnits="24" v:shadowOffsetX="9"
				v:shadowOffsetY="-9"/>
		<g id="shape2-1" v:mID="2" v:groupContext="shape" transform="translate(41.5205,-67.2177) rotate(0.1)">
			<title>工作表.2</title>
			<desc>色─眼見色事未別好醜虛實自相他相</desc>
			<v:textBlock v:margins="rect(0,0,0,0)" v:tabSpace="42.5197"/>
			<v:textRect cx="84.7228" cy="73.447" width="169.45" height="10.8"/>
			<rect x="0" y="68.047" width="169.446" height="10.8" class="st1"/>
			<text x="-0" y="76.56" class="st2" v:langID="1028"><v:paragraph/><v:tabList/>色<tspan class="st3">─</tspan>眼見色事未別好醜虛實自相他相</text>		</g>
		<g id="shape3-5" v:mID="3" v:groupContext="shape" transform="translate(41.4924,-50.7477) rotate(0.1)">
			<title>工作表.3</title>
			<desc>色法─無常生滅不淨等</desc>
			<v:textBlock v:margins="rect(0,0,0,0)" v:tabSpace="42.5197"/>
			<v:textRect cx="54.2624" cy="73.447" width="108.53" height="10.8"/>
			<rect x="0" y="68.047" width="108.525" height="10.8" class="st1"/>
			<text x="-0" y="76.56" class="st2" v:langID="1028"><v:paragraph/><v:tabList/>色法<tspan class="st3">─</tspan>無常生滅不淨等</text>		</g>
		<g id="shape4-9" v:mID="4" v:groupContext="shape" transform="translate(0.887614,-33.7171) rotate(0.1)">
			<title>工作表.4</title>
			<desc>色五事</desc>
			<v:textBlock v:margins="rect(0,0,0,0)" v:tabSpace="42.5197"/>
			<v:textRect cx="20.6029" cy="73.447" width="41.21" height="10.8"/>
			<rect x="0" y="68.047" width="41.2058" height="10.8" class="st1"/>
			<text x="0" y="76.56" class="st2" v:langID="1028"><v:paragraph/><v:tabList/>色五事</text>		</g>
		<g id="shape5-12" v:mID="5" v:groupContext="shape" transform="translate(41.4629,-34.2324) rotate(0.1)">
			<title>工作表.5</title>
			<desc>色如─虛妄無實三世如是</desc>
			<v:textBlock v:margins="rect(0,0,0,0)" v:tabSpace="42.5197"/>
			<v:textRect cx="62.0704" cy="73.447" width="124.15" height="10.8"/>
			<rect x="0" y="68.047" width="124.141" height="10.8" class="st1"/>
			<text x="-0" y="76.56" class="st2" v:langID="1028"><v:paragraph/><v:tabList/>色如<tspan class="st3">─</tspan>虛妄無實三世如是</text>		</g>
		<g id="shape6-16" v:mID="6" v:groupContext="shape" transform="translate(41.4341,-17.7178) rotate(0.1)">
			<title>工作表.6</title>
			<desc>色性─佛觀色相色法色如畢竟清淨性自爾故。</desc>
			<v:textBlock v:margins="rect(0,0,0,0)" v:tabSpace="42.5197"/>
			<v:textRect cx="111.693" cy="73.447" width="223.39" height="10.8"/>
			<rect x="0" y="68.047" width="223.386" height="10.8" class="st1"/>
			<text x="-0" y="76.56" class="st2" v:langID="1028"><v:paragraph/><v:tabList/>色性<tspan class="st3">─</tspan>佛觀色相色法色如畢竟清淨，性自爾故。</text>		</g>
		<g id="shape7-20" v:mID="7" v:groupContext="shape" transform="translate(41.406,-1.24779) rotate(0.1)">
			<title>工作表.7</title>
			<desc>色相─此性深妙以相可知。見無常等相知其性爾。</desc>
			<v:textBlock v:margins="rect(0,0,0,0)" v:tabSpace="42.5197"/>
			<v:textRect cx="122.337" cy="73.447" width="244.68" height="10.8"/>
			<rect x="0" y="68.047" width="244.674" height="10.8" class="st1"/>
			<text x="0" y="76.56" class="st2" v:langID="1028"><v:paragraph/><v:tabList/>色相<tspan class="st3">─</tspan>此性深妙，以相可知。見無常等相，知其性爾。</text>		</g>
		<g id="shape14-24" v:mID="14" v:groupContext="shape" transform="translate(112.378,2.75125) rotate(90.1)">
			<title>工作表.14</title>
			<path d="M0 73.18 C0 74.75 2.79 76.01 6.16 76.01 L30.91 76.01 C34.34 76.01 37.13 77.28 37.13 78.85 C37.13 77.28 39.91
						 76.01 43.29 76.01 L68.04 76.01 C71.46 76.01 74.25 74.75 74.25 73.18 L0 73.18 Z" class="st4"/>
			<path d="M0 73.18 C0 74.75 2.79 76.01 6.16 76.01 L30.91 76.01 C34.34 76.01 37.13 77.28 37.13 78.85 C37.13 77.28 39.91
						 76.01 43.29 76.01 L68.04 76.01 C71.46 76.01 74.25 74.75 74.25 73.18" class="st5"/>
		</g>
	</g>
</svg>
