<?xml version="1.0" encoding="UTF-8" standalone="no"?>
<!DOCTYPE svg PUBLIC "-//W3C//DTD SVG 1.1//EN" "http://www.w3.org/Graphics/SVG/1.1/DTD/svg11.dtd">
<!-- 由 Microsoft Visio, SVG Export 產生 B01507.svg 頁-1 -->
<svg xmlns="http://www.w3.org/2000/svg" xmlns:xlink="http://www.w3.org/1999/xlink" xmlns:ev="http://www.w3.org/2001/xml-events"
		xmlns:v="http://schemas.microsoft.com/visio/2003/SVGExtensions/" width="3.64892in" height="0.633649in"
		viewBox="0 0 262.722 45.6227" xml:space="preserve" color-interpolation-filters="sRGB" class="st5">
	<v:documentProperties v:langID="1028" v:viewMarkup="false"/>

	<style type="text/css">
	<![CDATA[
		.st1 {fill:none;stroke:none;stroke-linecap:butt;stroke-width:0.75}
		.st2 {fill:#000000;font-family:新細明體;font-size:0.833336em}
		.st3 {fill:none}
		.st4 {stroke:#000000;stroke-linecap:round;stroke-linejoin:round;stroke-width:0.5625}
		.st5 {fill:none;fill-rule:evenodd;font-size:12px;overflow:visible;stroke-linecap:square;stroke-miterlimit:3}
	]]>
	</style>

	<g v:mID="0" v:index="1" v:groupContext="foregroundPage">
		<title>頁-1</title>
		<v:pageProperties v:drawingScale="0.0393701" v:pageScale="0.0393701" v:drawingUnits="24" v:shadowOffsetX="9"
				v:shadowOffsetY="-9"/>
		<g id="shape2-1" v:mID="2" v:groupContext="shape" transform="translate(100.289,-34.01) rotate(0.1)">
			<title>工作表.2</title>
			<desc>一、世間檀著故有出世檀無故空。</desc>
			<v:textBlock v:margins="rect(0,0,0,0)" v:tabSpace="42.5197"/>
			<v:textRect cx="80.7791" cy="40.2391" width="161.56" height="10.7672"/>
			<rect x="0" y="34.8555" width="161.558" height="10.7672" class="st1"/>
			<text x="0" y="43.35" class="st2" v:langID="1028"><v:paragraph/><v:tabList/>一、世間檀著故有，出世檀無故空。</text>		</g>
		<g id="shape3-4" v:mID="3" v:groupContext="shape" transform="translate(0.829627,-18.3286) rotate(0.1)">
			<title>工作表.3</title>
			<desc>六度等行云何言無</desc>
			<v:textBlock v:margins="rect(0,0,0,0)" v:tabSpace="42.5197"/>
			<v:textRect cx="47.6611" cy="40.6665" width="95.33" height="9.91238"/>
			<rect x="0" y="35.7103" width="95.3222" height="9.91238" class="st1"/>
			<text x="0" y="43.78" class="st2" v:langID="1028"><v:paragraph/><v:tabList/>六度等行，云何言無</text>		</g>
		<g id="shape4-7" v:mID="4" v:groupContext="shape" transform="translate(100.261,-17.59) rotate(0.1)">
			<title>工作表.4</title>
			<desc>二、破慳貪言有破邪見言無。</desc>
			<v:textBlock v:margins="rect(0,0,0,0)" v:tabSpace="42.5197"/>
			<v:textRect cx="76.4729" cy="40.2391" width="152.95" height="10.7672"/>
			<rect x="0" y="34.8555" width="152.946" height="10.7672" class="st1"/>
			<text x="0" y="43.35" class="st2" v:langID="1028"><v:paragraph/><v:tabList/>二、破慳貪言有，破邪見言無。</text>		</g>
		<g id="shape5-10" v:mID="5" v:groupContext="shape" transform="translate(100.231,-1.12477) rotate(0.1)">
			<title>工作表.5</title>
			<desc>三、為度初學說有聖人心中言無。</desc>
			<v:textBlock v:margins="rect(0,0,0,0)" v:tabSpace="42.5197"/>
			<v:textRect cx="80.9009" cy="40.2391" width="161.81" height="10.7672"/>
			<rect x="0" y="34.8555" width="161.802" height="10.7672" class="st1"/>
			<text x="-0" y="43.35" class="st2" v:langID="1028"><v:paragraph/><v:tabList/>三、為度初學說有，聖人心中言無。</text>		</g>
		<g id="shape12-13" v:mID="12" v:groupContext="shape" transform="translate(138.827,1.64396) rotate(90.1)">
			<title>工作表.12</title>
			<path d="M0 40.77 C0 42.11 1.56 43.2 3.48 43.2 L17.49 43.2 C19.45 43.2 21.01 44.28 21.01 45.62 C21.01 44.28 22.57 43.2
						 24.49 43.2 L38.5 43.2 C40.46 43.2 42.02 42.11 42.02 40.77 L0 40.77 Z" class="st3"/>
			<path d="M0 40.77 C0 42.11 1.56 43.2 3.48 43.2 L17.49 43.2 C19.45 43.2 21.01 44.28 21.01 45.62 C21.01 44.28 22.57 43.2
						 24.49 43.2 L38.5 43.2 C40.46 43.2 42.02 42.11 42.02 40.77" class="st4"/>
		</g>
	</g>
</svg>
