<?xml version="1.0" encoding="UTF-8" standalone="no"?>
<!DOCTYPE svg PUBLIC "-//W3C//DTD SVG 1.1//EN" "http://www.w3.org/Graphics/SVG/1.1/DTD/svg11.dtd">
<!-- 由 Microsoft Visio, SVG Export 產生 B01601.svg 頁-1 -->
<svg xmlns="http://www.w3.org/2000/svg" xmlns:xlink="http://www.w3.org/1999/xlink" xmlns:ev="http://www.w3.org/2001/xml-events"
		xmlns:v="http://schemas.microsoft.com/visio/2003/SVGExtensions/" width="2.42846in" height="0.389596in"
		viewBox="0 0 174.849 28.0509" xml:space="preserve" color-interpolation-filters="sRGB" class="st5">
	<v:documentProperties v:langID="1028" v:viewMarkup="false"/>

	<style type="text/css">
	<![CDATA[
		.st1 {fill:none;stroke:none;stroke-linecap:butt;stroke-width:0.75}
		.st2 {fill:#000000;font-family:新細明體;font-size:0.833336em}
		.st3 {fill:none}
		.st4 {stroke:#000000;stroke-linecap:round;stroke-linejoin:round;stroke-width:0.5625}
		.st5 {fill:none;fill-rule:evenodd;font-size:12px;overflow:visible;stroke-linecap:square;stroke-miterlimit:3}
	]]>
	</style>

	<g v:mID="0" v:index="1" v:groupContext="foregroundPage">
		<title>頁-1</title>
		<v:pageProperties v:drawingScale="0.0393701" v:pageScale="0.0393701" v:drawingUnits="24" v:shadowOffsetX="9"
				v:shadowOffsetY="-9"/>
		<g id="shape3-1" v:mID="3" v:groupContext="shape" transform="translate(70.7198,-19.0829) rotate(0.1)">
			<title>工作表.3</title>
			<desc>不說廣大無邊故能含受</desc>
			<v:textBlock v:margins="rect(0,0,0,0)" v:tabSpace="42.5197"/>
			<v:textRect cx="51.7082" cy="25.312" width="103.42" height="5.47786"/>
			<rect x="0" y="22.573" width="103.416" height="5.47786" class="st1"/>
			<text x="0" y="28.43" class="st2" v:langID="1028"><v:paragraph/><v:tabList/>不說廣大無邊故能含受</text>		</g>
		<g id="shape4-4" v:mID="4" v:groupContext="shape" transform="translate(0.798958,-10.3602) rotate(0.1)">
			<title>工作表.4</title>
			<desc>虛空含受一切</desc>
			<v:textBlock v:margins="rect(0,0,0,0)" v:tabSpace="42.5197"/>
			<v:textRect cx="33.3057" cy="25.312" width="66.62" height="5.47786"/>
			<rect x="0" y="22.573" width="66.6114" height="5.47786" class="st1"/>
			<text x="0" y="28.43" class="st2" v:langID="1028"><v:paragraph/><v:tabList/>虛空含受一切</text>		</g>
		<g id="shape5-7" v:mID="5" v:groupContext="shape" transform="translate(70.7273,-1.00352) rotate(0.1)">
			<title>工作表.5</title>
			<desc>今說空無所有故能含受</desc>
			<v:textBlock v:margins="rect(0,0,0,0)" v:tabSpace="42.5197"/>
			<v:textRect cx="51.701" cy="22.6509" width="103.41" height="10.8"/>
			<rect x="0" y="17.2509" width="103.402" height="10.8" class="st1"/>
			<text x="0" y="25.77" class="st2" v:langID="1028"><v:paragraph/><v:tabList/>今說空無所有故能含受</text>		</g>
		<g id="shape12-10" v:mID="12" v:groupContext="shape" transform="translate(91.1873,0.904916) rotate(90.1)">
			<title>工作表.12</title>
			<path d="M0 22.38 C0 23.95 0.95 25.22 2.15 25.22 L10.69 25.22 C11.86 25.22 12.81 26.48 12.81 28.05 C12.81 26.48 13.76
						 25.22 14.96 25.22 L23.49 25.22 C24.67 25.22 25.62 23.95 25.62 22.38 L0 22.38 Z" class="st3"/>
			<path d="M0 22.38 C0 23.95 0.95 25.22 2.15 25.22 L10.69 25.22 C11.86 25.22 12.81 26.48 12.81 28.05 C12.81 26.48 13.76
						 25.22 14.96 25.22 L23.49 25.22 C24.67 25.22 25.62 23.95 25.62 22.38" class="st4"/>
		</g>
	</g>
</svg>
