<?xml version="1.0" encoding="UTF-8" standalone="no"?>
<!DOCTYPE svg PUBLIC "-//W3C//DTD SVG 1.1//EN" "http://www.w3.org/Graphics/SVG/1.1/DTD/svg11.dtd">
<!-- 由 Microsoft Visio, SVG Export 產生 B01506.svg 頁-1 -->
<svg xmlns="http://www.w3.org/2000/svg" xmlns:xlink="http://www.w3.org/1999/xlink" xmlns:ev="http://www.w3.org/2001/xml-events"
		xmlns:v="http://schemas.microsoft.com/visio/2003/SVGExtensions/" width="4.2307in" height="0.608944in"
		viewBox="0 0 304.61 43.844" xml:space="preserve" color-interpolation-filters="sRGB" class="st5">
	<v:documentProperties v:langID="1028" v:viewMarkup="false"/>

	<style type="text/css">
	<![CDATA[
		.st1 {fill:none;stroke:none;stroke-linecap:butt;stroke-width:0.75}
		.st2 {fill:#000000;font-family:新細明體;font-size:0.833336em}
		.st3 {fill:none}
		.st4 {stroke:#000000;stroke-linecap:round;stroke-linejoin:round;stroke-width:0.5625}
		.st5 {fill:none;fill-rule:evenodd;font-size:12px;overflow:visible;stroke-linecap:square;stroke-miterlimit:3}
	]]>
	</style>

	<g v:mID="0" v:index="1" v:groupContext="foregroundPage">
		<title>頁-1</title>
		<v:pageProperties v:drawingScale="0.0393701" v:pageScale="0.0393701" v:drawingUnits="24" v:shadowOffsetX="9"
				v:shadowOffsetY="-9"/>
		<g id="shape2-1" v:mID="2" v:groupContext="shape" transform="translate(100.309,-32.5208) rotate(0.1)">
			<title>工作表.2</title>
			<desc>一、無為空故言無。</desc>
			<v:textBlock v:margins="rect(0,0,0,0)" v:tabSpace="42.5197"/>
			<v:textRect cx="54.3238" cy="38.7499" width="108.65" height="10.1882"/>
			<rect x="0" y="33.6558" width="108.648" height="10.1882" class="st1"/>
			<text x="0" y="41.86" class="st2" v:langID="1028"><v:paragraph/><v:tabList/>一、無為空故言無。</text>		</g>
		<g id="shape3-4" v:mID="3" v:groupContext="shape" transform="translate(0.826522,-17.2731) rotate(0.1)">
			<title>工作表.3</title>
			<desc>無為實法如何言無</desc>
			<v:textBlock v:margins="rect(0,0,0,0)" v:tabSpace="42.5197"/>
			<v:textRect cx="54.9418" cy="38.9846" width="109.89" height="9.71877"/>
			<rect x="0" y="34.1252" width="109.884" height="9.71877" class="st1"/>
			<text x="0" y="42.1" class="st2" v:langID="1028"><v:paragraph/><v:tabList/>無為實法，如何言無</text>		</g>
		<g id="shape4-7" v:mID="4" v:groupContext="shape" transform="translate(100.28,-16.9411) rotate(0.1)">
			<title>工作表.4</title>
			<desc>二、有為實相即無為離有為法無無為故。</desc>
			<v:textBlock v:margins="rect(0,0,0,0)" v:tabSpace="42.5197"/>
			<v:textRect cx="101.82" cy="38.7499" width="203.64" height="10.1882"/>
			<rect x="0" y="33.6558" width="203.639" height="10.1882" class="st1"/>
			<text x="0" y="41.86" class="st2" v:langID="1028"><v:paragraph/><v:tabList/>二、有為實相即無為，離有為法，無無為故。</text>		</g>
		<g id="shape5-10" v:mID="5" v:groupContext="shape" transform="translate(100.254,-1.36198) rotate(0.1)">
			<title>工作表.5</title>
			<desc>三、人於法性起諍故言無。</desc>
			<v:textBlock v:margins="rect(0,0,0,0)" v:tabSpace="42.5197"/>
			<v:textRect cx="73.4872" cy="38.7499" width="146.98" height="10.1882"/>
			<rect x="0" y="33.6558" width="146.974" height="10.1882" class="st1"/>
			<text x="0" y="41.86" class="st2" v:langID="1028"><v:paragraph/><v:tabList/>三、人於法性起諍，故言無。</text>		</g>
		<g id="shape12-13" v:mID="12" v:groupContext="shape" transform="translate(137.287,0.446801) rotate(90.1)">
			<title>工作表.12</title>
			<path d="M0 38.17 C0 39.74 1.62 41.01 3.56 41.01 L17.74 41.01 C19.68 41.01 21.26 42.28 21.26 43.84 C21.26 42.28 22.88
						 41.01 24.82 41.01 L39 41.01 C40.94 41.01 42.52 39.74 42.52 38.17 L0 38.17 Z" class="st3"/>
			<path d="M0 38.17 C0 39.74 1.62 41.01 3.56 41.01 L17.74 41.01 C19.68 41.01 21.26 42.28 21.26 43.84 C21.26 42.28 22.88
						 41.01 24.82 41.01 L39 41.01 C40.94 41.01 42.52 39.74 42.52 38.17" class="st4"/>
		</g>
	</g>
</svg>
