<?xml version="1.0" encoding="UTF-8" standalone="no"?>
<!DOCTYPE svg PUBLIC "-//W3C//DTD SVG 1.1//EN" "http://www.w3.org/Graphics/SVG/1.1/DTD/svg11.dtd">
<!-- 由 Microsoft Visio, SVG Export 產生 B01508.svg 頁-1 -->
<svg xmlns="http://www.w3.org/2000/svg" xmlns:xlink="http://www.w3.org/1999/xlink" xmlns:ev="http://www.w3.org/2001/xml-events"
		xmlns:v="http://schemas.microsoft.com/visio/2003/SVGExtensions/" width="5.65579in" height="0.594185in"
		viewBox="0 0 407.217 42.7813" xml:space="preserve" color-interpolation-filters="sRGB" class="st6">
	<v:documentProperties v:langID="1028" v:viewMarkup="false"/>

	<style type="text/css">
	<![CDATA[
		.st1 {fill:none;stroke:none;stroke-linecap:butt;stroke-width:0.75}
		.st2 {fill:#000000;font-family:新細明體;font-size:0.833336em}
		.st3 {font-family:Times New Roman;font-size:1em}
		.st4 {fill:none}
		.st5 {stroke:#000000;stroke-linecap:round;stroke-linejoin:round;stroke-width:0.5625}
		.st6 {fill:none;fill-rule:evenodd;font-size:12px;overflow:visible;stroke-linecap:square;stroke-miterlimit:3}
	]]>
	</style>

	<g v:mID="0" v:index="1" v:groupContext="foregroundPage">
		<title>頁-1</title>
		<v:pageProperties v:drawingScale="0.0393701" v:pageScale="0.0393701" v:drawingUnits="24" v:shadowOffsetX="9"
				v:shadowOffsetY="-9"/>
		<g id="shape2-1" v:mID="2" v:groupContext="shape" transform="translate(81.9475,-34.0945) rotate(0.1)">
			<title>工作表.2</title>
			<desc>世間檀是有為色法不同虛空</desc>
			<v:textBlock v:margins="rect(0,0,0,0)" v:tabSpace="42.5197"/>
			<v:textRect cx="73.6955" cy="40.3236" width="147.4" height="4.91543"/>
			<rect x="0" y="37.8659" width="147.391" height="4.91543" class="st1"/>
			<text x="-0" y="43.44" class="st2" v:langID="1028"><v:paragraph/><v:tabList/>世間檀是有為，色法不同虛空</text>		</g>
		<g id="shape3-4" v:mID="3" v:groupContext="shape" transform="translate(60.9405,-25.5673) rotate(0.1)">
			<title>工作表.3</title>
			<desc>一</desc>
			<v:textBlock v:margins="rect(0,0,0,0)" v:tabSpace="42.5197"/>
			<v:textRect cx="3.95169" cy="38.4368" width="7.91" height="8.68895"/>
			<rect x="0" y="34.0924" width="7.90338" height="8.68895" class="st1"/>
			<text x="0" y="41.55" class="st2" v:langID="1028"><v:paragraph/><v:tabList/>一</text>		</g>
		<g id="shape4-7" v:mID="4" v:groupContext="shape" transform="translate(0.824667,-17.7163) rotate(0.1)">
			<title>工作表.4</title>
			<desc>六度如虛空</desc>
			<v:textBlock v:margins="rect(0,0,0,0)" v:tabSpace="42.5197"/>
			<v:textRect cx="29.7989" cy="38.4368" width="59.6" height="8.68895"/>
			<rect x="0" y="34.0924" width="59.5979" height="8.68895" class="st1"/>
			<text x="0" y="41.55" class="st2" v:langID="1028"><v:paragraph/><v:tabList/>六度如虛空</text>		</g>
		<g id="shape5-10" v:mID="5" v:groupContext="shape" transform="translate(81.9188,-19.0991) rotate(0.1)">
			<title>工作表.5</title>
			<desc>出世間檀與實相慧和合故似如虛空。─ 得無生忍後無所分別如虛空。</desc>
			<v:textBlock v:margins="rect(0,0,0,0)" v:tabSpace="42.5197"/>
			<v:textRect cx="162.307" cy="40.3236" width="324.62" height="4.91543"/>
			<rect x="0" y="37.8659" width="324.615" height="4.91543" class="st1"/>
			<text x="0" y="43.44" class="st2" v:langID="1028"><v:paragraph/><v:tabList/>出世間檀與實相慧和合故，似如虛空。<tspan class="st3">─</tspan><tspan
						class="st3"> </tspan>得無生忍後，無所分別如虛空。</text>		</g>
		<g id="shape6-15" v:mID="6" v:groupContext="shape" transform="translate(60.0425,-1.21456) rotate(0.1)">
			<title>工作表.6</title>
			<desc>二</desc>
			<v:textBlock v:margins="rect(0,0,0,0)" v:tabSpace="42.5197"/>
			<v:textRect cx="4.5" cy="37.3813" width="9.01" height="10.8"/>
			<rect x="0" y="31.9813" width="9" height="10.8" class="st1"/>
			<text x="0" y="40.5" class="st2" v:langID="1028"><v:paragraph/><v:tabList/>二</text>		</g>
		<g id="shape7-18" v:mID="7" v:groupContext="shape" transform="translate(89.0014,-1.14312) rotate(0.1)">
			<title>工作表.7</title>
			<desc>佛以無礙智慧觀實相如虛空餘人不然。</desc>
			<v:textBlock v:margins="rect(0,0,0,0)" v:tabSpace="42.5197"/>
			<v:textRect cx="90.6558" cy="37.3813" width="181.32" height="10.8"/>
			<rect x="0" y="31.9813" width="181.312" height="10.8" class="st1"/>
			<text x="0" y="40.5" class="st2" v:langID="1028"><v:paragraph/><v:tabList/>佛以無礙智慧觀實相如虛空，餘人不然。</text>		</g>
		<g id="shape14-21" v:mID="14" v:groupContext="shape" transform="translate(95.5518,2.35981) rotate(90.1)">
			<title>工作表.14</title>
			<path d="M0 37.55 C0 38.98 1.45 40.17 3.19 40.17 L15.86 40.17 C17.59 40.17 19.01 41.34 19.01 42.78 C19.01 41.34 20.45
						 40.17 22.19 40.17 L34.86 40.17 C36.6 40.17 38.01 38.98 38.01 37.55 L0 37.55 Z" class="st4"/>
			<path d="M0 37.55 C0 38.98 1.45 40.17 3.19 40.17 L15.86 40.17 C17.59 40.17 19.01 41.34 19.01 42.78 C19.01 41.34 20.45
						 40.17 22.19 40.17 L34.86 40.17 C36.6 40.17 38.01 38.98 38.01 37.55" class="st5"/>
		</g>
		<g id="shape15-24" v:mID="15" v:groupContext="shape" transform="translate(117.38,2.07968) rotate(90.1)">
			<title>工作表.15</title>
			<path d="M0 37.41 C0 38.9 0.85 40.1 1.87 40.1 L8.59 40.1 C9.64 40.1 10.49 41.31 10.49 42.78 C10.49 41.31 11.34 40.1 12.36
						 40.1 L20.77 40.1 C21.83 40.1 22.67 38.9 22.67 37.41 L0 37.41 Z" class="st4"/>
			<path d="M0 37.41 C0 38.9 0.85 40.1 1.87 40.1 L8.59 40.1 C9.64 40.1 10.49 41.31 10.49 42.78 C10.49 41.31 11.34 40.1 12.36
						 40.1 L20.77 40.1 C21.83 40.1 22.67 38.9 22.67 37.41" class="st5"/>
		</g>
		<g id="shape16-27" v:mID="16" v:groupContext="shape" transform="translate(73.6408,-6.18538) rotate(0.1)">
			<title>工作表.16</title>
			<path d="M0 42.78 L12.64 42.78" class="st5"/>
		</g>
	</g>
</svg>
