<?xml version="1.0" encoding="UTF-8" standalone="no"?>
<!DOCTYPE svg PUBLIC "-//W3C//DTD SVG 1.1//EN" "http://www.w3.org/Graphics/SVG/1.1/DTD/svg11.dtd">
<!-- 由 Microsoft Visio, SVG Export 產生 B01603.svg 頁-1 -->
<svg xmlns="http://www.w3.org/2000/svg" xmlns:xlink="http://www.w3.org/1999/xlink" xmlns:ev="http://www.w3.org/2001/xml-events"
		xmlns:v="http://schemas.microsoft.com/visio/2003/SVGExtensions/" width="4.14681in" height="0.912327in"
		viewBox="0 0 298.57 65.6876" xml:space="preserve" color-interpolation-filters="sRGB" class="st6">
	<v:documentProperties v:langID="1028" v:viewMarkup="false"/>

	<style type="text/css">
	<![CDATA[
		.st1 {fill:none;stroke:none;stroke-linecap:butt;stroke-width:0.75}
		.st2 {fill:#000000;font-family:新細明體;font-size:0.833336em}
		.st3 {stroke:#000000;stroke-linecap:round;stroke-linejoin:round;stroke-width:0.5625}
		.st4 {fill:none}
		.st5 {stroke:#000000;stroke-dasharray:0.5625,1.125;stroke-linecap:round;stroke-linejoin:round;stroke-width:0.5625}
		.st6 {fill:none;fill-rule:evenodd;font-size:12px;overflow:visible;stroke-linecap:square;stroke-miterlimit:3}
	]]>
	</style>

	<g v:mID="0" v:index="1" v:groupContext="foregroundPage">
		<title>頁-1</title>
		<v:pageProperties v:drawingScale="0.0393701" v:pageScale="0.0393701" v:drawingUnits="24" v:shadowOffsetX="9"
				v:shadowOffsetY="-9"/>
		<g id="shape2-1" v:mID="2" v:groupContext="shape" transform="translate(52.4937,-55.0654) rotate(0.1)">
			<title>工作表.2</title>
			<desc>三十七品三解脫門</desc>
			<v:textBlock v:margins="rect(0,0,0,0)" v:tabSpace="42.5197"/>
			<v:textRect cx="47.0271" cy="61.2946" width="94.06" height="8.78602"/>
			<rect x="0" y="56.9015" width="94.0542" height="8.78602" class="st1"/>
			<text x="0" y="64.41" class="st2" v:langID="1028"><v:paragraph/><v:tabList/>三十七品三解脫門</text>		</g>
		<g id="shape3-4" v:mID="3" v:groupContext="shape" transform="translate(200.417,-54.5047) rotate(0.1)">
			<title>工作表.3</title>
			<desc>共三乘</desc>
			<v:textBlock v:margins="rect(0,0,0,0)" v:tabSpace="42.5197"/>
			<v:textRect cx="16.4681" cy="61.2946" width="32.94" height="8.78602"/>
			<rect x="0" y="56.9015" width="32.9363" height="8.78602" class="st1"/>
			<text x="0" y="64.41" class="st2" v:langID="1028"><v:paragraph/><v:tabList/>共三乘</text>		</g>
		<g id="shape4-7" v:mID="4" v:groupContext="shape" transform="translate(153.638,-44.1782) rotate(0.1)">
			<title>工作表.4</title>
			<desc>不具足</desc>
			<v:textBlock v:margins="rect(0,0,0,0)" v:tabSpace="42.5197"/>
			<v:textRect cx="16.2952" cy="61.2946" width="32.6" height="8.78602"/>
			<rect x="0" y="56.9015" width="32.5905" height="8.78602" class="st1"/>
			<text x="-0" y="64.41" class="st2" v:langID="1028"><v:paragraph/><v:tabList/>不具足</text>		</g>
		<g id="shape5-10" v:mID="5" v:groupContext="shape" transform="translate(106.437,-34.8268) rotate(0.1)">
			<title>工作表.5</title>
			<desc>一云</desc>
			<v:textBlock v:margins="rect(0,0,0,0)" v:tabSpace="42.5197"/>
			<v:textRect cx="16.5136" cy="61.2946" width="33.03" height="8.78602"/>
			<rect x="0" y="56.9015" width="33.0273" height="8.78602" class="st1"/>
			<text x="-0" y="64.41" class="st2" v:langID="1028"><v:paragraph/><v:tabList/>一云</text>		</g>
		<g id="shape6-13" v:mID="6" v:groupContext="shape" transform="translate(0.864646,-27.9542) rotate(0.1)">
			<title>工作表.6</title>
			<desc>三乘善法</desc>
			<v:textBlock v:margins="rect(0,0,0,0)" v:tabSpace="42.5197"/>
			<v:textRect cx="21.631" cy="61.2946" width="43.27" height="8.78602"/>
			<rect x="0" y="56.9015" width="43.262" height="8.78602" class="st1"/>
			<text x="0" y="64.41" class="st2" v:langID="1028"><v:paragraph/><v:tabList/>三乘善法</text>		</g>
		<g id="shape7-16" v:mID="7" v:groupContext="shape" transform="translate(51.9066,-27.1844) rotate(0.1)">
			<title>工作表.7</title>
			<desc>六波羅密</desc>
			<v:textBlock v:margins="rect(0,0,0,0)" v:tabSpace="42.5197"/>
			<v:textRect cx="22.1186" cy="61.2946" width="44.24" height="8.78602"/>
			<rect x="0" y="56.9015" width="44.2372" height="8.78602" class="st1"/>
			<text x="0" y="64.41" class="st2" v:langID="1028"><v:paragraph/><v:tabList/>六波羅密</text>		</g>
		<g id="shape8-19" v:mID="8" v:groupContext="shape" transform="translate(155.063,-28.6739) rotate(0.1)">
			<title>工作表.8</title>
			<desc>具足</desc>
			<v:textBlock v:margins="rect(0,0,0,0)" v:tabSpace="42.5197"/>
			<v:textRect cx="12.9144" cy="61.2946" width="25.83" height="8.78602"/>
			<rect x="0" y="56.9015" width="25.8288" height="8.78602" class="st1"/>
			<text x="0" y="64.41" class="st2" v:langID="1028"><v:paragraph/><v:tabList/>具足</text>		</g>
		<g id="shape9-22" v:mID="9" v:groupContext="shape" transform="translate(106.418,-18.659) rotate(0.1)">
			<title>工作表.9</title>
			<desc>一云</desc>
			<v:textBlock v:margins="rect(0,0,0,0)" v:tabSpace="42.5197"/>
			<v:textRect cx="12.0791" cy="61.2946" width="24.16" height="8.78602"/>
			<rect x="0" y="56.9015" width="24.1582" height="8.78602" class="st1"/>
			<text x="0" y="64.41" class="st2" v:langID="1028"><v:paragraph/><v:tabList/>一云</text>		</g>
		<g id="shape10-25" v:mID="10" v:groupContext="shape" transform="translate(200.417,-18.6732) rotate(0.1)">
			<title>工作表.10</title>
			<desc>菩薩法</desc>
			<v:textBlock v:margins="rect(0,0,0,0)" v:tabSpace="42.5197"/>
			<v:textRect cx="17.7127" cy="61.2946" width="35.43" height="8.78602"/>
			<rect x="0" y="56.9015" width="35.4254" height="8.78602" class="st1"/>
			<text x="-0" y="64.41" class="st2" v:langID="1028"><v:paragraph/><v:tabList/>菩薩法</text>		</g>
		<g id="shape11-28" v:mID="11" v:groupContext="shape" transform="translate(254.275,-11.4103) rotate(0.1)">
			<title>工作表.11</title>
			<desc>大乘不共</desc>
			<v:textBlock v:margins="rect(0,0,0,0)" v:tabSpace="42.5197"/>
			<v:textRect cx="21.8222" cy="61.2946" width="43.65" height="8.78602"/>
			<rect x="0" y="56.9015" width="43.6444" height="8.78602" class="st1"/>
			<text x="0" y="64.41" class="st2" v:langID="1028"><v:paragraph/><v:tabList/>大乘不共</text>		</g>
		<g id="shape12-31" v:mID="12" v:groupContext="shape" transform="translate(52.3219,-3.44987) rotate(0.1)">
			<title>工作表.12</title>
			<desc>十力乃至常捨行</desc>
			<v:textBlock v:margins="rect(0,0,0,0)" v:tabSpace="42.5197"/>
			<v:textRect cx="41.7282" cy="62.2838" width="83.46" height="6.80748"/>
			<rect x="0" y="58.8801" width="83.4565" height="6.80748" class="st1"/>
			<text x="0" y="65.4" class="st2" v:langID="1028"><v:paragraph/><v:tabList/>十力乃至常捨行</text>		</g>
		<g id="shape13-34" v:mID="13" v:groupContext="shape" transform="translate(210.459,-2.86013) rotate(0.1)">
			<title>工作表.13</title>
			<desc>佛法</desc>
			<v:textBlock v:margins="rect(0,0,0,0)" v:tabSpace="42.5197"/>
			<v:textRect cx="12.4272" cy="62.2838" width="24.86" height="6.80748"/>
			<rect x="0" y="58.8801" width="24.8544" height="6.80748" class="st1"/>
			<text x="0" y="65.4" class="st2" v:langID="1028"><v:paragraph/><v:tabList/>佛法</text>		</g>
		<g id="shape20-37" v:mID="20" v:groupContext="shape" transform="translate(56.6454,-20.0984) rotate(-33.9558)">
			<title>工作表.20</title>
			<path d="M0 65.69 L12.56 65.69" class="st3"/>
		</g>
		<g id="shape21-40" v:mID="21" v:groupContext="shape" transform="translate(132.118,-18.629) rotate(36.1866)">
			<title>工作表.21</title>
			<path d="M0 65.69 L12.57 65.69" class="st3"/>
		</g>
		<g id="shape22-43" v:mID="22" v:groupContext="shape" transform="translate(109.782,1.75086) rotate(90.1)">
			<title>工作表.22</title>
			<path d="M0 60.02 C0 61.59 2.32 62.85 5.18 62.85 L25.97 62.85 C28.84 62.85 31.18 64.12 31.18 65.69 C31.18 64.12 33.5
						 62.85 36.37 62.85 L57.15 62.85 C60.04 62.85 62.36 61.59 62.36 60.02 L0 60.02 Z" class="st4"/>
			<path d="M0 60.02 C0 61.59 2.32 62.85 5.18 62.85 L25.97 62.85 C28.84 62.85 31.18 64.12 31.18 65.69 C31.18 64.12 33.5
						 62.85 36.37 62.85 L57.15 62.85 C60.04 62.85 62.36 61.59 62.36 60.02" class="st3"/>
		</g>
		<g id="shape23-46" v:mID="23" v:groupContext="shape" transform="translate(193.719,25.7411) rotate(90.1)">
			<title>工作表.23</title>
			<path d="M0 65.69 L0 53.64 L7.09 41.6 L0 65.69 Z" class="st4"/>
			<path d="M0 65.69 L0 53.64 L7.09 41.6" class="st5"/>
		</g>
		<g id="shape24-49" v:mID="24" v:groupContext="shape" transform="translate(103.62,-28.9951) rotate(-33.7102)">
			<title>工作表.24</title>
			<path d="M0 65.69 L14.53 65.69" class="st5"/>
		</g>
		<g id="shape25-52" v:mID="25" v:groupContext="shape" transform="translate(135.199,-58.869) rotate(0.0813521)">
			<title>工作表.25</title>
			<path d="M0 65.69 L62.36 65.69" class="st5"/>
		</g>
		<g id="shape26-55" v:mID="26" v:groupContext="shape" transform="translate(146.56,-37.3528) rotate(-35.8408)">
			<title>工作表.26</title>
			<path d="M0 65.69 L15.35 65.69" class="st5"/>
		</g>
		<g id="shape27-58" v:mID="27" v:groupContext="shape" transform="translate(128.019,-23.031)">
			<title>工作表.27</title>
			<path d="M0 65.69 L70.6 65.69" class="st5"/>
		</g>
		<g id="shape28-61" v:mID="28" v:groupContext="shape" transform="translate(204.401,-27.5005) rotate(25.788)">
			<title>工作表.28</title>
			<path d="M0 65.69 L25.31 65.69" class="st5"/>
		</g>
		<g id="shape29-64" v:mID="29" v:groupContext="shape" transform="translate(125.184,-6.32108)">
			<title>工作表.29</title>
			<path d="M0 65.69 L80.79 65.69" class="st5"/>
		</g>
		<g id="shape30-67" v:mID="30" v:groupContext="shape" transform="translate(205.374,0.0227639) rotate(-24.7751)">
			<title>工作表.30</title>
			<path d="M0 65.69 L20.29 65.69" class="st5"/>
		</g>
		<g id="shape31-70" v:mID="31" v:groupContext="shape" transform="translate(260.428,-16.9851) rotate(24.7751)">
			<title>工作表.31</title>
			<path d="M0 65.69 L20.29 65.69" class="st5"/>
		</g>
	</g>
</svg>
