<?xml version="1.0" encoding="UTF-8" standalone="no"?>
<!DOCTYPE svg PUBLIC "-//W3C//DTD SVG 1.1//EN" "http://www.w3.org/Graphics/SVG/1.1/DTD/svg11.dtd">
<!-- 由 Microsoft Visio, SVG Export 產生 M052.164=B01604.svg 頁-1 -->
<svg xmlns="http://www.w3.org/2000/svg" xmlns:xlink="http://www.w3.org/1999/xlink" xmlns:ev="http://www.w3.org/2001/xml-events"
		xmlns:v="http://schemas.microsoft.com/visio/2003/SVGExtensions/" width="2.47966in" height="1.0297in"
		viewBox="0 0 178.536 74.138" xml:space="preserve" color-interpolation-filters="sRGB" class="st6">
	<v:documentProperties v:langID="1028" v:viewMarkup="false"/>

	<style type="text/css">
	<![CDATA[
		.st1 {fill:none;stroke:none;stroke-linecap:butt;stroke-width:0.75}
		.st2 {fill:#000000;font-family:新細明體;font-size:0.833336em}
		.st3 {font-family:Times New Roman;font-size:1em}
		.st4 {fill:none}
		.st5 {stroke:#000000;stroke-linecap:round;stroke-linejoin:round;stroke-width:0.5625}
		.st6 {fill:none;fill-rule:evenodd;font-size:12px;overflow:visible;stroke-linecap:square;stroke-miterlimit:3}
	]]>
	</style>

	<g v:mID="0" v:index="1" v:groupContext="foregroundPage">
		<title>頁-1</title>
		<v:pageProperties v:drawingScale="0.0393701" v:pageScale="0.0393701" v:drawingUnits="24" v:shadowOffsetX="9"
				v:shadowOffsetY="-9"/>
		<g id="group23-1" transform="translate(0.75,-1.1912)" v:mID="23" v:groupContext="group">
			<title>工作表.23</title>
			<g id="shape10-2" v:mID="10" v:groupContext="shape" transform="translate(53.6606,-61.686) rotate(0.1)">
				<title>工作表.10</title>
				<desc>不著─五眾有無量過罪故</desc>
				<v:textBlock v:margins="rect(0,0,0,0)" v:tabSpace="42.5197"/>
				<v:textRect cx="56.7834" cy="69.1063" width="113.57" height="10.0635"/>
				<rect x="0" y="64.0745" width="113.567" height="10.0635" class="st1"/>
				<text x="0" y="72.22" class="st2" v:langID="1028"><v:paragraph/><v:tabList/>不著<tspan class="st3">─</tspan>五眾有無量過罪故</text>			</g>
			<g id="shape11-6" v:mID="11" v:groupContext="shape" transform="translate(53.6325,-46.3389) rotate(0.1)">
				<title>工作表.11</title>
				<desc>不示─不取相故</desc>
				<v:textBlock v:margins="rect(0,0,0,0)" v:tabSpace="42.5197"/>
				<v:textRect cx="36.8122" cy="69.1063" width="73.63" height="10.0635"/>
				<rect x="0" y="64.0745" width="73.6243" height="10.0635" class="st1"/>
				<text x="0" y="72.22" class="st2" v:langID="1028"><v:paragraph/><v:tabList/>不示<tspan class="st3">─</tspan>不取相故</text>			</g>
			<g id="shape12-10" v:mID="12" v:groupContext="shape" transform="translate(0.129395,-30.0492) rotate(0.1)">
				<title>工作表.12</title>
				<desc>五種正觀</desc>
				<v:textBlock v:margins="rect(0,0,0,0)" v:tabSpace="42.5197"/>
				<v:textRect cx="24.7301" cy="68.738" width="49.47" height="10.8"/>
				<rect x="0" y="63.338" width="49.4602" height="10.8" class="st1"/>
				<text x="0" y="71.85" class="st2" v:langID="1028"><v:paragraph/><v:tabList/>五種正觀</text>			</g>
			<g id="shape13-13" v:mID="13" v:groupContext="shape" transform="translate(53.603,-30.9492) rotate(0.1)">
				<title>工作表.13</title>
				<desc>不住─不依止五眾故</desc>
				<v:textBlock v:margins="rect(0,0,0,0)" v:tabSpace="42.5197"/>
				<v:textRect cx="46.1802" cy="69.1063" width="92.37" height="10.0635"/>
				<rect x="0" y="64.0745" width="92.3603" height="10.0635" class="st1"/>
				<text x="0" y="72.22" class="st2" v:langID="1028"><v:paragraph/><v:tabList/>不住<tspan class="st3">─</tspan>不依止五眾故</text>			</g>
			<g id="shape14-17" v:mID="14" v:groupContext="shape" transform="translate(53.5742,-15.5616) rotate(0.1)">
				<title>工作表.14</title>
				<desc>不受─以無常火能燒心故</desc>
				<v:textBlock v:margins="rect(0,0,0,0)" v:tabSpace="42.5197"/>
				<v:textRect cx="56.8259" cy="69.1063" width="113.66" height="10.0635"/>
				<rect x="0" y="64.0745" width="113.652" height="10.0635" class="st1"/>
				<text x="0" y="72.22" class="st2" v:langID="1028"><v:paragraph/><v:tabList/>不受<tspan class="st3">─</tspan>以無常火能燒心故</text>			</g>
			<g id="shape15-21" v:mID="15" v:groupContext="shape" transform="translate(53.5461,-0.215612) rotate(0.1)">
				<title>工作表.15</title>
				<desc>不言─不以邪見說色一異等</desc>
				<v:textBlock v:margins="rect(0,0,0,0)" v:tabSpace="42.5197"/>
				<v:textRect cx="61.8008" cy="69.1063" width="123.61" height="10.0635"/>
				<rect x="0" y="64.0745" width="123.602" height="10.0635" class="st1"/>
				<text x="0" y="72.22" class="st2" v:langID="1028"><v:paragraph/><v:tabList/>不言<tspan class="st3">─</tspan>不以邪見說色一異等</text>			</g>
			<g id="shape22-25" v:mID="22" v:groupContext="shape" transform="translate(116.585,3.43155) rotate(90.1)">
				<title>工作表.22</title>
				<path d="M0 67.05 C0 69.01 2.65 70.59 5.89 70.59 L29.38 70.59 C32.63 70.59 35.23 72.18 35.23 74.14 C35.23 72.18 37.88
							 70.59 41.13 70.59 L64.62 70.59 C67.86 70.59 70.47 69.01 70.47 67.05 L0 67.05 Z" class="st4"/>
				<path d="M0 67.05 C0 69.01 2.65 70.59 5.89 70.59 L29.38 70.59 C32.63 70.59 35.23 72.18 35.23 74.14 C35.23 72.18 37.88
							 70.59 41.13 70.59 L64.62 70.59 C67.86 70.59 70.47 69.01 70.47 67.05" class="st5"/>
			</g>
		</g>
	</g>
</svg>
