<?xml version="1.0" encoding="UTF-8" standalone="no"?>
<!DOCTYPE svg PUBLIC "-//W3C//DTD SVG 1.1//EN" "http://www.w3.org/Graphics/SVG/1.1/DTD/svg11.dtd">
<!-- 由 Microsoft Visio, SVG Export 產生 M053.055=B01702.svg 頁-1 -->
<svg xmlns="http://www.w3.org/2000/svg" xmlns:xlink="http://www.w3.org/1999/xlink" xmlns:ev="http://www.w3.org/2001/xml-events"
		xmlns:v="http://schemas.microsoft.com/visio/2003/SVGExtensions/" width="7.48737in" height="1.05008in"
		viewBox="0 0 539.091 75.6054" xml:space="preserve" color-interpolation-filters="sRGB" class="st8">
	<v:documentProperties v:langID="1028" v:viewMarkup="false"/>

	<style type="text/css">
	<![CDATA[
		.st1 {fill:none;stroke:none;stroke-linecap:butt;stroke-width:0.75}
		.st2 {fill:#000000;font-family:新細明體;font-size:0.833336em}
		.st3 {font-family:Times New Roman;font-size:1em}
		.st4 {font-size:1em}
		.st5 {fill:none}
		.st6 {stroke:#000000;stroke-linecap:round;stroke-linejoin:round;stroke-width:0.5625}
		.st7 {stroke:#000000;stroke-linecap:round;stroke-linejoin:round;stroke-width:0.5}
		.st8 {fill:none;fill-rule:evenodd;font-size:12px;overflow:visible;stroke-linecap:square;stroke-miterlimit:3}
	]]>
	</style>

	<g v:mID="0" v:index="1" v:groupContext="foregroundPage">
		<title>頁-1</title>
		<v:pageProperties v:drawingScale="0.0393701" v:pageScale="0.0393701" v:drawingUnits="24" v:shadowOffsetX="9"
				v:shadowOffsetY="-9"/>
		<g id="shape4-1" v:mID="4" v:groupContext="shape" transform="translate(73.7117,-1.48672) rotate(0.1)">
			<title>工作表.4</title>
			<desc>發心菩提─於生死中發無上心 伏心菩提─折伏煩惱降伏其心行諸波羅密 明心菩提─得法實相畢竟清淨 出到菩提─於般若中得方便力不...</desc>
			<v:textBlock v:margins="rect(0,0,0,0)" v:tabSpace="42.5197"/>
			<v:textRect cx="211.087" cy="38.9211" width="422.18" height="73.3687"/>
			<rect x="0" y="2.23673" width="422.175" height="73.3687" class="st1"/>
			<text x="-0" y="13.49" class="st2" v:langID="1028"><v:paragraph v:spLine="-1.4"/><v:tabList/>發心菩提<tspan class="st3">─</tspan>於生死中發無上心<v:newlineChar/><tspan
						x="-0" dy="1.453em" class="st4">伏心菩提</tspan><tspan class="st3">─</tspan>折伏煩惱降伏其心行諸波羅密<v:newlineChar/><tspan
						x="-0" dy="1.453em" class="st4">明心菩提</tspan><tspan class="st3">─</tspan>得法實相畢竟清淨<v:newlineChar/><tspan
						x="-0" dy="1.453em" class="st4">出到菩提</tspan><tspan class="st3">─</tspan>於般若中得方便力，不著般若，滅諸煩惱，見一切佛，得無生忍，出三界，到薩婆若<v:newlineChar/><tspan
						x="-0" dy="1.453em" class="st4">無上菩提</tspan><tspan class="st3">─</tspan>坐道場，斷煩惱習</text>		</g>
		<g id="shape8-13" v:mID="8" v:groupContext="shape" transform="translate(0.881956,-33.1994) rotate(0.1)">
			<title>工作表.8</title>
			<desc>五種菩提之(2)</desc>
			<v:textBlock v:margins="rect(0,0,0,0)" v:tabSpace="42.5197"/>
			<v:textRect cx="32.0983" cy="70.7115" width="64.2" height="9.78782"/>
			<rect x="0" y="65.8176" width="64.1966" height="9.78782" class="st1"/>
			<text x="0" y="74.35" class="st2" v:langID="1028"><v:paragraph v:spLine="-1.4"/><v:tabList/>五種菩提之<tspan class="st3">(2)</tspan></text>		</g>
		<g id="shape21-17" v:mID="21" v:groupContext="shape" transform="translate(140.677,4.76458) rotate(90.1)">
			<title>工作表.21</title>
			<path d="M0 69.94 C0 71.5 2.48 72.77 5.58 72.77 L27.98 72.77 C31.07 72.77 33.6 74.06 33.6 75.61 C33.6 74.06 36.08 72.77
						 39.18 72.77 L61.58 72.77 C64.67 72.77 67.2 71.5 67.2 69.94 L0 69.94 Z" class="st5"/>
			<path d="M0 69.94 C0 71.5 2.48 72.77 5.58 72.77 L27.98 72.77 C31.07 72.77 33.6 74.06 33.6 75.61 C33.6 74.06 36.08 72.77
						 39.18 72.77 L61.58 72.77 C64.67 72.77 67.2 71.5 67.2 69.94" class="st6"/>
		</g>
		<g id="shape26-20" v:mID="26" v:groupContext="shape" transform="translate(515.667,-1.13062) rotate(0.1)">
			<title>工作表.26</title>
			<desc>資糧 加行 通達 修習 究竟</desc>
			<v:textBlock v:margins="rect(0,0,0,0)" v:tabSpace="42.5197"/>
			<v:textRect cx="11.3386" cy="38.9211" width="22.68" height="73.3687"/>
			<rect x="0" y="2.23673" width="22.6771" height="73.3687" class="st1"/>
			<text x="0" y="13.49" class="st2" v:langID="1028"><v:paragraph v:spLine="-1.4"/><v:tabList/>資糧<v:newlineChar/><tspan
						x="0" dy="1.453em" class="st4">加行<v:newlineChar/></tspan><tspan x="0" dy="1.453em" class="st4">通達<v:newlineChar/></tspan><tspan
						x="0" dy="1.453em" class="st4">修習<v:newlineChar/></tspan><tspan x="0" dy="1.453em" class="st4">究竟</tspan></text>		</g>
		<g id="shape154-27" v:mID="154" v:groupContext="shape" transform="translate(204.986,-65.9784)">
			<title>工作表.154</title>
			<path d="M0 75.61 L309.37 75.61" class="st7"/>
		</g>
		<g id="shape155-30" v:mID="155" v:groupContext="shape" transform="translate(255.483,-51.4509)">
			<title>工作表.155</title>
			<path d="M0 75.61 L258.87 75.61" class="st7"/>
		</g>
		<g id="shape156-33" v:mID="156" v:groupContext="shape" transform="translate(204.986,-36.9233)">
			<title>工作表.156</title>
			<path d="M0 75.61 L309.37 75.61" class="st7"/>
		</g>
		<g id="shape157-36" v:mID="157" v:groupContext="shape" transform="translate(495.213,-22.3958)">
			<title>工作表.157</title>
			<path d="M0 75.61 L19.14 75.61" class="st7"/>
		</g>
		<g id="shape158-39" v:mID="158" v:groupContext="shape" transform="translate(204.986,-7.86819)">
			<title>工作表.158</title>
			<path d="M0 75.61 L309.37 75.61" class="st7"/>
		</g>
	</g>
</svg>
