<?xml version="1.0" encoding="UTF-8" standalone="no"?>
<!DOCTYPE svg PUBLIC "-//W3C//DTD SVG 1.1//EN" "http://www.w3.org/Graphics/SVG/1.1/DTD/svg11.dtd">
<!-- 由 Microsoft Visio, SVG Export 產生 B01705.svg 頁-1 -->
<svg xmlns="http://www.w3.org/2000/svg" xmlns:xlink="http://www.w3.org/1999/xlink" xmlns:ev="http://www.w3.org/2001/xml-events"
		xmlns:v="http://schemas.microsoft.com/visio/2003/SVGExtensions/" width="2.85133in" height="0.37738in"
		viewBox="0 0 205.295 27.1714" xml:space="preserve" color-interpolation-filters="sRGB" class="st5">
	<v:documentProperties v:langID="1028" v:viewMarkup="false"/>

	<style type="text/css">
	<![CDATA[
		.st1 {fill:none;stroke:none;stroke-linecap:butt;stroke-width:0.75}
		.st2 {fill:#000000;font-family:新細明體;font-size:0.833336em}
		.st3 {fill:none}
		.st4 {stroke:#000000;stroke-linecap:round;stroke-linejoin:round;stroke-width:0.5625}
		.st5 {fill:none;fill-rule:evenodd;font-size:12px;overflow:visible;stroke-linecap:square;stroke-miterlimit:3}
	]]>
	</style>

	<g v:mID="0" v:index="1" v:groupContext="foregroundPage">
		<title>頁-1</title>
		<v:pageProperties v:drawingScale="0.0393701" v:pageScale="0.0393701" v:drawingUnits="24" v:shadowOffsetX="9"
				v:shadowOffsetY="-9"/>
		<g id="shape2-1" v:mID="2" v:groupContext="shape" transform="translate(141.731,-18.5469) rotate(0.1)">
			<title>工作表.2</title>
			<desc>不可得空在初</desc>
			<v:textBlock v:margins="rect(0,0,0,0)" v:tabSpace="42.5197"/>
			<v:textRect cx="31.4269" cy="24.7761" width="62.86" height="4.7905"/>
			<rect x="0" y="22.3809" width="62.8538" height="4.7905" class="st1"/>
			<text x="0" y="27.89" class="st2" v:langID="1028"><v:paragraph/><v:tabList/>不可得空在初</text>		</g>
		<g id="shape3-4" v:mID="3" v:groupContext="shape" transform="translate(0.797423,-10.6466) rotate(0.1)">
			<title>工作表.3</title>
			<desc>無所得空畢竟空名異義一</desc>
			<v:textBlock v:margins="rect(0,0,0,0)" v:tabSpace="42.5197"/>
			<v:textRect cx="67.8805" cy="24.7761" width="135.77" height="4.7905"/>
			<rect x="0" y="22.3809" width="135.761" height="4.7905" class="st1"/>
			<text x="0" y="27.89" class="st2" v:langID="1028"><v:paragraph/><v:tabList/>無所得空，畢竟空，名異義一</text>		</g>
		<g id="shape4-7" v:mID="4" v:groupContext="shape" transform="translate(141.675,-3.92099) rotate(0.1)">
			<title>工作表.4</title>
			<desc>畢竟空在後</desc>
			<v:textBlock v:margins="rect(0,0,0,0)" v:tabSpace="42.5197"/>
			<v:textRect cx="27.2038" cy="24.7761" width="54.41" height="4.7905"/>
			<rect x="0" y="22.3809" width="54.4077" height="4.7905" class="st1"/>
			<text x="0" y="27.89" class="st2" v:langID="1028"><v:paragraph/><v:tabList/>畢竟空在後</text>		</g>
		<g id="shape5-10" v:mID="5" v:groupContext="shape" transform="translate(160.872,1.52273) rotate(90.1)">
			<title>工作表.5</title>
			<path d="M0 21.5 C0 23.07 0.91 24.34 2.03 24.34 L10.2 24.34 C11.34 24.34 12.25 25.62 12.25 27.17 C12.25 25.62 13.16 24.34
						 14.28 24.34 L22.45 24.34 C23.59 24.34 24.5 23.07 24.5 21.5 L0 21.5 Z" class="st3"/>
			<path d="M0 21.5 C0 23.07 0.91 24.34 2.03 24.34 L10.2 24.34 C11.34 24.34 12.25 25.62 12.25 27.17 C12.25 25.62 13.16 24.34
						 14.28 24.34 L22.45 24.34 C23.59 24.34 24.5 23.07 24.5 21.5" class="st4"/>
		</g>
	</g>
</svg>
