<?xml version="1.0" encoding="UTF-8" standalone="no"?>
<!DOCTYPE svg PUBLIC "-//W3C//DTD SVG 1.1//EN" "http://www.w3.org/Graphics/SVG/1.1/DTD/svg11.dtd">
<!-- 由 Microsoft Visio, SVG Export 產生 B01605.svg 頁-1 -->
<svg xmlns="http://www.w3.org/2000/svg" xmlns:xlink="http://www.w3.org/1999/xlink" xmlns:ev="http://www.w3.org/2001/xml-events"
		xmlns:v="http://schemas.microsoft.com/visio/2003/SVGExtensions/" width="2.92058in" height="0.394758in"
		viewBox="0 0 210.281 28.4226" xml:space="preserve" color-interpolation-filters="sRGB" class="st7">
	<v:documentProperties v:langID="1028" v:viewMarkup="false"/>

	<style type="text/css">
	<![CDATA[
		.st1 {fill:none;stroke:none;stroke-linecap:butt;stroke-width:0.75}
		.st2 {fill:#000000;font-family:新細明體;font-size:0.833336em}
		.st3 {font-family:Times New Roman;font-size:1em}
		.st4 {fill:none}
		.st5 {stroke:#000000;stroke-linecap:round;stroke-linejoin:round;stroke-width:0.5625}
		.st6 {stroke:#000000;stroke-dasharray:0.5625,1.125;stroke-linecap:round;stroke-linejoin:round;stroke-width:0.5625}
		.st7 {fill:none;fill-rule:evenodd;font-size:12px;overflow:visible;stroke-linecap:square;stroke-miterlimit:3}
	]]>
	</style>

	<g v:mID="0" v:index="1" v:groupContext="foregroundPage">
		<title>頁-1</title>
		<v:pageProperties v:drawingScale="0.0393701" v:pageScale="0.0393701" v:drawingUnits="24" v:shadowOffsetX="9"
				v:shadowOffsetY="-9"/>
		<g id="shape2-1" v:mID="2" v:groupContext="shape" transform="translate(60.4693,-19.1411) rotate(0.1)">
			<title>工作表.2</title>
			<desc>柔順忍觀─不畢竟淨</desc>
			<v:textBlock v:margins="rect(0,0,0,0)" v:tabSpace="42.5197"/>
			<v:textRect cx="52.1355" cy="25.3703" width="104.28" height="6.10445"/>
			<rect x="0" y="22.3181" width="104.271" height="6.10445" class="st1"/>
			<text x="0" y="28.48" class="st2" v:langID="1028"><v:paragraph/><v:tabList/>柔順忍觀<tspan class="st3">─</tspan>不畢竟淨</text>		</g>
		<g id="shape3-5" v:mID="3" v:groupContext="shape" transform="translate(0.799607,-10.6252) rotate(0.1)">
			<title>工作表.3</title>
			<desc>二種無生觀</desc>
			<v:textBlock v:margins="rect(0,0,0,0)" v:tabSpace="42.5197"/>
			<v:textRect cx="31.9193" cy="25.3703" width="63.84" height="6.10445"/>
			<rect x="0" y="22.3181" width="63.8387" height="6.10445" class="st1"/>
			<text x="0" y="28.48" class="st2" v:langID="1028"><v:paragraph/><v:tabList/>二種無生觀</text>		</g>
		<g id="shape4-8" v:mID="4" v:groupContext="shape" transform="translate(60.4385,-1.103) rotate(0.1)">
			<title>工作表.4</title>
			<desc>無生忍觀─畢竟清淨</desc>
			<v:textBlock v:margins="rect(0,0,0,0)" v:tabSpace="42.5197"/>
			<v:textRect cx="46.0716" cy="23.0226" width="92.15" height="10.8"/>
			<rect x="0" y="17.6226" width="92.1431" height="10.8" class="st1"/>
			<text x="0" y="26.14" class="st2" v:langID="1028"><v:paragraph/><v:tabList/>無生忍觀<tspan class="st3">─</tspan>畢竟清淨</text>		</g>
		<g id="shape5-12" v:mID="5" v:groupContext="shape" transform="translate(168.777,-0.898797) rotate(0.1)">
			<title>工作表.5</title>
			<desc>入菩薩位</desc>
			<v:textBlock v:margins="rect(0,0,0,0)" v:tabSpace="42.5197"/>
			<v:textRect cx="20.3927" cy="23.0226" width="40.79" height="10.8"/>
			<rect x="0" y="17.6226" width="40.7853" height="10.8" class="st1"/>
			<text x="0" y="26.14" class="st2" v:langID="1028"><v:paragraph/><v:tabList/>入菩薩位</text>		</g>
		<g id="shape27-15" v:mID="27" v:groupContext="shape" transform="translate(81.7011,1.32923) rotate(90.1)">
			<title>工作表.27</title>
			<path d="M0 22.75 C0 24.32 0.98 25.59 2.17 25.59 L10.78 25.59 C11.96 25.59 12.92 26.85 12.92 28.42 C12.92 26.85 13.91
						 25.59 15.09 25.59 L23.7 25.59 C24.88 25.59 25.84 24.32 25.84 22.75 L0 22.75 Z" class="st4"/>
			<path d="M0 22.75 C0 24.32 0.98 25.59 2.17 25.59 L10.78 25.59 C11.96 25.59 12.92 26.85 12.92 28.42 C12.92 26.85 13.91
						 25.59 15.09 25.59 L23.7 25.59 C24.88 25.59 25.84 24.32 25.84 22.75" class="st5"/>
		</g>
		<g id="shape28-18" v:mID="28" v:groupContext="shape" transform="translate(152.542,-6.48091)">
			<title>工作表.28</title>
			<path d="M0 28.42 L14.12 28.42" class="st6"/>
		</g>
	</g>
</svg>
