<?xml version="1.0" encoding="UTF-8" standalone="no"?>
<!DOCTYPE svg PUBLIC "-//W3C//DTD SVG 1.1//EN" "http://www.w3.org/Graphics/SVG/1.1/DTD/svg11.dtd">
<!-- 由 Microsoft Visio, SVG Export 產生 B01801.svg 頁-1 -->
<svg xmlns="http://www.w3.org/2000/svg" xmlns:xlink="http://www.w3.org/1999/xlink" xmlns:ev="http://www.w3.org/2001/xml-events"
		xmlns:v="http://schemas.microsoft.com/visio/2003/SVGExtensions/" width="2.54721in" height="0.613591in"
		viewBox="0 0 183.399 44.1785" xml:space="preserve" color-interpolation-filters="sRGB" class="st6">
	<v:documentProperties v:langID="1028" v:viewMarkup="false"/>

	<style type="text/css">
	<![CDATA[
		.st1 {fill:none;stroke:none;stroke-linecap:butt;stroke-width:0.75}
		.st2 {fill:#000000;font-family:新細明體;font-size:0.833336em}
		.st3 {fill:none}
		.st4 {stroke:#000000;stroke-linecap:round;stroke-linejoin:round;stroke-width:0.5625}
		.st5 {stroke:#000000;stroke-dasharray:0.5625,1.125;stroke-linecap:round;stroke-linejoin:round;stroke-width:0.5625}
		.st6 {fill:none;fill-rule:evenodd;font-size:12px;overflow:visible;stroke-linecap:square;stroke-miterlimit:3}
	]]>
	</style>

	<g v:mID="0" v:index="1" v:groupContext="foregroundPage">
		<title>頁-1</title>
		<v:pageProperties v:drawingScale="0.0393701" v:pageScale="0.0393701" v:drawingUnits="24" v:shadowOffsetX="9"
				v:shadowOffsetY="-9"/>
		<g id="shape3-1" v:mID="3" v:groupContext="shape" transform="translate(50.6984,-32.8087) rotate(0.1)">
			<title>工作表.3</title>
			<desc>云何是般若</desc>
			<v:textBlock v:margins="rect(0,0,0,0)" v:tabSpace="42.5197"/>
			<v:textRect cx="39.4518" cy="39.0379" width="78.91" height="10.2813"/>
			<rect x="0" y="33.8972" width="78.9036" height="10.2813" class="st1"/>
			<text x="0" y="42.15" class="st2" v:langID="1028"><v:paragraph/><v:tabList/>云何是般若</text>		</g>
		<g id="shape4-4" v:mID="4" v:groupContext="shape" transform="translate(120.667,-32.6591) rotate(0.1)">
			<title>工作表.4</title>
			<desc>問般若體</desc>
			<v:textBlock v:margins="rect(0,0,0,0)" v:tabSpace="42.5197"/>
			<v:textRect cx="21.3818" cy="39.0379" width="42.77" height="10.2813"/>
			<rect x="0" y="33.8972" width="42.7635" height="10.2813" class="st1"/>
			<text x="0" y="42.15" class="st2" v:langID="1028"><v:paragraph/><v:tabList/>問般若體</text>		</g>
		<g id="shape5-7" v:mID="5" v:groupContext="shape" transform="translate(0.827106,-17.1764) rotate(0.1)">
			<title>工作表.5</title>
			<desc>帝釋三問</desc>
			<v:textBlock v:margins="rect(0,0,0,0)" v:tabSpace="42.5197"/>
			<v:textRect cx="32.7349" cy="39.0379" width="65.47" height="10.2813"/>
			<rect x="0" y="33.8972" width="65.4698" height="10.2813" class="st1"/>
			<text x="0" y="42.15" class="st2" v:langID="1028"><v:paragraph/><v:tabList/>帝釋三問</text>		</g>
		<g id="shape6-10" v:mID="6" v:groupContext="shape" transform="translate(50.6695,-17.0866) rotate(0.1)">
			<title>工作表.6</title>
			<desc>云何行</desc>
			<v:textBlock v:margins="rect(0,0,0,0)" v:tabSpace="42.5197"/>
			<v:textRect cx="31.2469" cy="39.0379" width="62.5" height="10.2813"/>
			<rect x="0" y="33.8972" width="62.4939" height="10.2813" class="st1"/>
			<text x="-0" y="42.15" class="st2" v:langID="1028"><v:paragraph/><v:tabList/>云何行</text>		</g>
		<g id="shape7-13" v:mID="7" v:groupContext="shape" transform="translate(120.638,-16.9382) rotate(0.1)">
			<title>工作表.7</title>
			<desc>問初入方便行</desc>
			<v:textBlock v:margins="rect(0,0,0,0)" v:tabSpace="42.5197"/>
			<v:textRect cx="31.0351" cy="39.0379" width="62.08" height="10.2813"/>
			<rect x="0" y="33.8972" width="62.0702" height="10.2813" class="st1"/>
			<text x="-0" y="42.15" class="st2" v:langID="1028"><v:paragraph/><v:tabList/>問初入方便行</text>		</g>
		<g id="shape8-16" v:mID="8" v:groupContext="shape" transform="translate(50.6415,-1.40652) rotate(0.1)">
			<title>工作表.8</title>
			<desc>云何住</desc>
			<v:textBlock v:margins="rect(0,0,0,0)" v:tabSpace="42.5197"/>
			<v:textRect cx="27.0087" cy="39.0379" width="54.02" height="10.2813"/>
			<rect x="0" y="33.8972" width="54.0175" height="10.2813" class="st1"/>
			<text x="0" y="42.15" class="st2" v:langID="1028"><v:paragraph/><v:tabList/>云何住</text>		</g>
		<g id="shape9-19" v:mID="9" v:groupContext="shape" transform="translate(121.299,-1.19309) rotate(0.1)">
			<title>工作表.9</title>
			<desc>問深入究竟住</desc>
			<v:textBlock v:margins="rect(0,0,0,0)" v:tabSpace="42.5197"/>
			<v:textRect cx="30.704" cy="39.0379" width="61.41" height="10.2813"/>
			<rect x="0" y="33.8972" width="61.408" height="10.2813" class="st1"/>
			<text x="0" y="42.15" class="st2" v:langID="1028"><v:paragraph/><v:tabList/>問深入究竟住</text>		</g>
		<g id="shape22-22" v:mID="22" v:groupContext="shape" transform="translate(87.0079,2.10392) rotate(90.1)">
			<title>工作表.22</title>
			<path d="M0 38.51 C0 40.08 1.5 41.34 3.35 41.34 L16.85 41.34 C18.74 41.34 20.24 42.61 20.24 44.18 C20.24 42.61 21.74
						 41.34 23.59 41.34 L37.09 41.34 C38.97 41.34 40.48 40.08 40.48 38.51 L0 38.51 Z" class="st3"/>
			<path d="M0 38.51 C0 40.08 1.5 41.34 3.35 41.34 L16.85 41.34 C18.74 41.34 20.24 42.61 20.24 44.18 C20.24 42.61 21.74
						 41.34 23.59 41.34 L37.09 41.34 C38.97 41.34 40.48 40.08 40.48 38.51" class="st4"/>
		</g>
		<g id="shape23-25" v:mID="23" v:groupContext="shape" transform="translate(102.324,-37.9224)">
			<title>工作表.23</title>
			<path d="M0 44.18 L16.44 44.18" class="st5"/>
		</g>
		<g id="shape24-28" v:mID="24" v:groupContext="shape" transform="translate(82.4816,-21.4258)">
			<title>工作表.24</title>
			<path d="M0 44.18 L36.28 44.18" class="st5"/>
		</g>
		<g id="shape25-31" v:mID="25" v:groupContext="shape" transform="translate(82.4816,-5.74681)">
			<title>工作表.25</title>
			<path d="M0 44.18 L36.29 44.18" class="st5"/>
		</g>
	</g>
</svg>
