<?xml version="1.0" encoding="UTF-8" standalone="no"?>
<!DOCTYPE svg PUBLIC "-//W3C//DTD SVG 1.1//EN" "http://www.w3.org/Graphics/SVG/1.1/DTD/svg11.dtd">
<!-- 由 Microsoft Visio, SVG Export 產生 B01802.svg 頁-1 -->
<svg xmlns="http://www.w3.org/2000/svg" xmlns:xlink="http://www.w3.org/1999/xlink" xmlns:ev="http://www.w3.org/2001/xml-events"
		xmlns:v="http://schemas.microsoft.com/visio/2003/SVGExtensions/" width="6.49083in" height="0.822081in"
		viewBox="0 0 467.34 59.1898" xml:space="preserve" color-interpolation-filters="sRGB" class="st6">
	<v:documentProperties v:langID="1028" v:viewMarkup="false"/>

	<style type="text/css">
	<![CDATA[
		.st1 {fill:none;stroke:none;stroke-linecap:butt;stroke-width:0.75}
		.st2 {fill:#000000;font-family:新細明體;font-size:0.833336em}
		.st3 {fill:none}
		.st4 {stroke:#000000;stroke-linecap:round;stroke-linejoin:round;stroke-width:0.5625}
		.st5 {stroke:#000000;stroke-dasharray:0.5625,1.125;stroke-linecap:round;stroke-linejoin:round;stroke-width:0.5625}
		.st6 {fill:none;fill-rule:evenodd;font-size:12px;overflow:visible;stroke-linecap:square;stroke-miterlimit:3}
	]]>
	</style>

	<g v:mID="0" v:index="1" v:groupContext="foregroundPage">
		<title>頁-1</title>
		<v:pageProperties v:drawingScale="0.0393701" v:pageScale="0.0393701" v:drawingUnits="24" v:shadowOffsetX="9"
				v:shadowOffsetY="-9"/>
		<g id="shape2-1" v:mID="2" v:groupContext="shape" transform="translate(205.835,-47.9574) rotate(0.1)">
			<title>工作表.2</title>
			<desc>上根說苦空無常無我四聖</desc>
			<v:textBlock v:margins="rect(0,0,0,0)" v:tabSpace="42.5197"/>
			<v:textRect cx="77.8308" cy="54.1866" width="155.67" height="10.0065"/>
			<rect x="0" y="49.1833" width="155.662" height="10.0065" class="st1"/>
			<text x="0" y="57.3" class="st2" v:langID="1028"><v:paragraph/><v:tabList/>上根說苦空無常無我四（聖）</text>		</g>
		<g id="shape3-4" v:mID="3" v:groupContext="shape" transform="translate(60.4797,-31.3318) rotate(0.1)">
			<title>工作表.3</title>
			<desc>聲聞觀色苦無常等十五事共</desc>
			<v:textBlock v:margins="rect(0,0,0,0)" v:tabSpace="42.5197"/>
			<v:textRect cx="73.8734" cy="53.7898" width="147.75" height="10.8"/>
			<rect x="0" y="48.3898" width="147.747" height="10.8" class="st1"/>
			<text x="0" y="56.9" class="st2" v:langID="1028"><v:paragraph/><v:tabList/>聲聞觀色苦無常等十五事（共）</text>		</g>
		<g id="shape4-7" v:mID="4" v:groupContext="shape" transform="translate(196.9,-32.6704) rotate(0.1)">
			<title>工作表.4</title>
			<desc>中根說如病如癰等八事聖</desc>
			<v:textBlock v:margins="rect(0,0,0,0)"/>
			<v:textRect cx="74.1625" cy="54.1866" width="148.33" height="10.0065"/>
			<rect x="0" y="49.1833" width="148.325" height="10.0065" class="st1"/>
			<text x="8.5" y="57.3" class="st2" v:langID="1028"><v:paragraph/><v:tabList/>中根說如病如癰等八事（聖）</text>		</g>
		<g id="shape5-10" v:mID="5" v:groupContext="shape" transform="translate(326.022,-32.4516) rotate(0.1)">
			<title>工作表.5</title>
			<v:textBlock v:margins="rect(0,0,0,0)" v:tabSpace="42.5197"/>
			<rect x="0" y="49.1833" width="8.90497" height="10.0065" class="st1"/>
		</g>
		<g id="shape6-12" v:mID="6" v:groupContext="shape" transform="translate(339.379,-32.4344) rotate(0.1)">
			<title>工作表.6</title>
			<desc>鈍根發心初觀</desc>
			<v:textBlock v:margins="rect(0,0,0,0)"/>
			<v:textRect cx="45.6946" cy="54.1866" width="91.39" height="10.0065"/>
			<rect x="0" y="49.1833" width="91.3892" height="10.0065" class="st1"/>
			<text x="8.5" y="57.3" class="st2" v:langID="1028"><v:paragraph/><v:tabList/>鈍根發心初觀</text>		</g>
		<g id="shape7-15" v:mID="7" v:groupContext="shape" transform="translate(0.853306,-17.5728) rotate(0.1)">
			<title>工作表.7</title>
			<desc>三乘般若觀</desc>
			<v:textBlock v:margins="rect(0,0,0,0)" v:tabSpace="42.5197"/>
			<v:textRect cx="32.8215" cy="53.7898" width="65.65" height="10.8"/>
			<rect x="0" y="48.3898" width="65.643" height="10.8" class="st1"/>
			<text x="0" y="56.9" class="st2" v:langID="1028"><v:paragraph/><v:tabList/>三乘般若觀</text>		</g>
		<g id="shape8-18" v:mID="8" v:groupContext="shape" transform="translate(168.451,-17.4634) rotate(0.1)">
			<title>工作表.8</title>
			<v:textBlock v:margins="rect(0,0,0,0)"/>
			<rect x="0" y="48.3898" width="33" height="10.8" class="st1"/>
		</g>
		<g id="shape9-20" v:mID="9" v:groupContext="shape" transform="translate(205.777,-17.3547) rotate(0.1)">
			<title>工作表.9</title>
			<desc>下根總說痛惱等十五凡聖</desc>
			<v:textBlock v:margins="rect(0,0,0,0)" v:tabSpace="42.5197"/>
			<v:textRect cx="74.6338" cy="54.1866" width="149.27" height="10.0065"/>
			<rect x="0" y="49.1833" width="149.268" height="10.0065" class="st1"/>
			<text x="0" y="57.3" class="st2" v:langID="1028"><v:paragraph/><v:tabList/>下根總說痛惱等十五（凡聖）</text>		</g>
		<g id="shape10-23" v:mID="10" v:groupContext="shape" transform="translate(423.672,-22.8807) rotate(0.1)">
			<title>工作表.10</title>
			<desc>大乘般若</desc>
			<v:textBlock v:margins="rect(0,0,0,0)" v:tabSpace="42.5197"/>
			<v:textRect cx="21.5013" cy="53.7898" width="43.01" height="10.8"/>
			<rect x="0" y="48.3898" width="43.0026" height="10.8" class="st1"/>
			<text x="0" y="56.9" class="st2" v:langID="1028"><v:paragraph/><v:tabList/>大乘般若</text>		</g>
		<g id="shape11-26" v:mID="11" v:groupContext="shape" transform="translate(60.4221,-2.88192) rotate(0.1)">
			<title>工作表.11</title>
			<desc>菩薩觀色寂離不生滅垢淨不共</desc>
			<v:textBlock v:margins="rect(0,0,0,0)" v:tabSpace="42.5197"/>
			<v:textRect cx="82.407" cy="53.7898" width="164.82" height="10.8"/>
			<rect x="0" y="48.3898" width="164.814" height="10.8" class="st1"/>
			<text x="0" y="56.9" class="st2" v:langID="1028"><v:paragraph/><v:tabList/>菩薩觀色寂離不生滅垢淨（不共）</text>		</g>
		<g id="shape12-29" v:mID="12" v:groupContext="shape" transform="translate(302.325,-0.765618) rotate(0.1)">
			<title>工作表.12</title>
			<v:textBlock v:margins="rect(0,0,0,0)" v:tabSpace="42.5197"/>
			<rect x="0" y="48.3898" width="9" height="10.8" class="st1"/>
		</g>
		<g id="shape13-31" v:mID="13" v:groupContext="shape" transform="translate(315.825,-2.44284) rotate(0.1)">
			<title>工作表.13</title>
			<desc>利根發心即觀</desc>
			<v:textBlock v:margins="rect(0,0,0,0)" v:tabSpace="42.5197"/>
			<v:textRect cx="45.4145" cy="53.7898" width="90.83" height="10.8"/>
			<rect x="0" y="48.3898" width="90.829" height="10.8" class="st1"/>
			<text x="0" y="56.9" class="st2" v:langID="1028"><v:paragraph/><v:tabList/>利根發心即觀</text>		</g>
		<g id="shape20-34" v:mID="20" v:groupContext="shape" transform="translate(111.641,16.6399) rotate(90.1)">
			<title>工作表.20</title>
			<path d="M0 53.52 C0 55.09 1.47 56.36 3.29 56.36 L16.52 56.36 C18.33 56.36 19.84 57.64 19.84 59.19 C19.84 57.64 21.32
						 56.36 23.13 56.36 L36.36 56.36 C38.17 56.36 39.68 55.09 39.68 53.52 L0 53.52 Z" class="st3"/>
			<path d="M0 53.52 C0 55.09 1.47 56.36 3.29 56.36 L16.52 56.36 C18.33 56.36 19.84 57.64 19.84 59.19 C19.84 57.64 21.32
						 56.36 23.13 56.36 L36.36 56.36 C38.17 56.36 39.68 55.09 39.68 53.52" class="st4"/>
		</g>
		<g id="shape21-37" v:mID="21" v:groupContext="shape" transform="translate(256.97,2.2019) rotate(90.1)">
			<title>工作表.21</title>
			<path d="M0 53.52 C0 55.09 1.5 56.36 3.36 56.36 L16.86 56.36 C18.72 56.36 20.26 57.64 20.26 59.19 C20.26 57.64 21.76
						 56.36 23.62 56.36 L37.12 56.36 C38.97 56.36 40.52 55.09 40.52 53.52 L0 53.52 Z" class="st3"/>
			<path d="M0 53.52 C0 55.09 1.5 56.36 3.36 56.36 L16.86 56.36 C18.72 56.36 20.26 57.64 20.26 59.19 C20.26 57.64 21.76
						 56.36 23.62 56.36 L37.12 56.36 C38.97 56.36 40.52 55.09 40.52 53.52" class="st4"/>
		</g>
		<g id="shape22-40" v:mID="22" v:groupContext="shape" transform="translate(288.869,-4.0867) rotate(-47.5924)">
			<title>工作表.22</title>
			<path d="M0 59.19 L19.85 59.19" class="st5"/>
		</g>
		<g id="shape23-43" v:mID="23" v:groupContext="shape" transform="translate(374.485,-33.3243) rotate(45)">
			<title>工作表.23</title>
			<path d="M0 59.19 L17.68 59.19" class="st5"/>
		</g>
		<g id="shape24-46" v:mID="24" v:groupContext="shape" transform="translate(209.371,-7.9835) rotate(0.1)">
			<title>工作表.24</title>
			<path d="M0 59.19 L101.96 59.19" class="st5"/>
		</g>
		<g id="shape25-49" v:mID="25" v:groupContext="shape" transform="translate(353.598,-2.0425) rotate(-25.125)">
			<title>工作表.25</title>
			<path d="M0 59.19 L46.39 59.19" class="st5"/>
		</g>
		<g id="shape26-52" v:mID="26" v:groupContext="shape" transform="translate(451.258,-21.0972) rotate(44.3821)">
			<title>工作表.26</title>
			<path d="M0 59.19 L15.22 59.19" class="st5"/>
		</g>
	</g>
</svg>
