<?xml version="1.0" encoding="UTF-8" standalone="no"?>
<!DOCTYPE svg PUBLIC "-//W3C//DTD SVG 1.1//EN" "http://www.w3.org/Graphics/SVG/1.1/DTD/svg11.dtd">
<!-- 由 Microsoft Visio, SVG Export 產生 B01803.svg 頁-1 -->
<svg xmlns="http://www.w3.org/2000/svg" xmlns:xlink="http://www.w3.org/1999/xlink" xmlns:ev="http://www.w3.org/2001/xml-events"
		xmlns:v="http://schemas.microsoft.com/visio/2003/SVGExtensions/" width="6.5956in" height="1.01424in"
		viewBox="0 0 474.883 73.025" xml:space="preserve" color-interpolation-filters="sRGB" class="st7">
	<v:documentProperties v:langID="1028" v:viewMarkup="false"/>

	<style type="text/css">
	<![CDATA[
		.st1 {fill:none;stroke:none;stroke-linecap:butt;stroke-width:0.75}
		.st2 {fill:#000000;font-family:新細明體;font-size:0.833336em}
		.st3 {font-family:Times New Roman;font-size:1em}
		.st4 {fill:none}
		.st5 {stroke:#000000;stroke-linecap:round;stroke-linejoin:round;stroke-width:0.5625}
		.st6 {stroke:#000000;stroke-dasharray:0.5625,1.125;stroke-linecap:round;stroke-linejoin:round;stroke-width:0.5625}
		.st7 {fill:none;fill-rule:evenodd;font-size:12px;overflow:visible;stroke-linecap:square;stroke-miterlimit:3}
	]]>
	</style>

	<g v:mID="0" v:index="1" v:groupContext="foregroundPage">
		<title>頁-1</title>
		<v:pageProperties v:drawingScale="0.0393701" v:pageScale="0.0393701" v:drawingUnits="24" v:shadowOffsetX="9"
				v:shadowOffsetY="-9"/>
		<g id="shape2-1" v:mID="2" v:groupContext="shape" transform="translate(190.001,-61.8529) rotate(0.1)">
			<title>工作表.2</title>
			<desc>諸法非常非無常不應言回向心已滅云何與菩提作因。</desc>
			<v:textBlock v:margins="rect(0,0,0,0)" v:tabSpace="42.5197"/>
			<v:textRect cx="132.202" cy="68.0821" width="264.41" height="9.88575"/>
			<rect x="0" y="63.1392" width="264.404" height="9.88575" class="st1"/>
			<text x="0" y="71.2" class="st2" v:langID="1028"><v:paragraph/><v:tabList/>諸法非常非無常，不應言回向心已滅，云何與菩提作因。</text>		</g>
		<g id="shape3-4" v:mID="3" v:groupContext="shape" transform="translate(190.738,-46.7773) rotate(0.1)">
			<title>工作表.3</title>
			<desc>諸法非生滅非不生滅不應言菩提不生不滅無所有何所回向。</desc>
			<v:textBlock v:margins="rect(0,0,0,0)" v:tabSpace="42.5197"/>
			<v:textRect cx="141.753" cy="68.0821" width="283.51" height="9.88575"/>
			<rect x="0" y="63.1392" width="283.506" height="9.88575" class="st1"/>
			<text x="0" y="71.2" class="st2" v:langID="1028"><v:paragraph/><v:tabList/>諸法非生滅非不生滅，不應言菩提不生不滅，無所有何所回向。</text>		</g>
		<g id="shape4-7" v:mID="4" v:groupContext="shape" transform="translate(119.481,-32.082) rotate(0.1)">
			<title>工作表.4</title>
			<desc>不以世諦說─</desc>
			<v:textBlock v:margins="rect(0,0,0,0)" v:tabSpace="42.5197"/>
			<v:textRect cx="38.2865" cy="68.0821" width="76.58" height="9.88575"/>
			<rect x="0" y="63.1392" width="76.5729" height="9.88575" class="st1"/>
			<text x="0" y="71.2" class="st2" v:langID="1028"><v:paragraph/><v:tabList/>不以世諦說<tspan class="st3">─</tspan></text>		</g>
		<g id="shape5-11" v:mID="5" v:groupContext="shape" transform="translate(190.708,-31.6563) rotate(0.1)">
			<title>工作表.5</title>
			<desc>菩提非三世相不應言未來無菩提何所回向。</desc>
			<v:textBlock v:margins="rect(0,0,0,0)" v:tabSpace="42.5197"/>
			<v:textRect cx="116.541" cy="68.0821" width="233.09" height="9.88575"/>
			<rect x="0" y="63.1392" width="233.082" height="9.88575" class="st1"/>
			<text x="0" y="71.2" class="st2" v:langID="1028"><v:paragraph/><v:tabList/>菩提非三世相，不應言未來無菩提，何所回向。</text>		</g>
		<g id="shape6-14" v:mID="6" v:groupContext="shape" transform="translate(0.877453,-17.2811) rotate(0.1)">
			<title>工作表.6</title>
			<desc>菩提心回向心互不相在</desc>
			<v:textBlock v:margins="rect(0,0,0,0)" v:tabSpace="42.5197"/>
			<v:textRect cx="59.667" cy="67.8579" width="119.34" height="10.3342"/>
			<rect x="0" y="62.6907" width="119.334" height="10.3342" class="st1"/>
			<text x="0" y="70.97" class="st2" v:langID="1028"><v:paragraph/><v:tabList/>菩提心回向心，互不相在</text>		</g>
		<g id="shape7-17" v:mID="7" v:groupContext="shape" transform="translate(190.68,-16.5393) rotate(0.1)">
			<title>工作表.7</title>
			<desc>三世互不相離一如無二云何說二心互不相在。</desc>
			<v:textBlock v:margins="rect(0,0,0,0)" v:tabSpace="42.5197"/>
			<v:textRect cx="118.398" cy="68.0821" width="236.8" height="9.88575"/>
			<rect x="0" y="63.1392" width="236.795" height="9.88575" class="st1"/>
			<text x="-0" y="71.2" class="st2" v:langID="1028"><v:paragraph/><v:tabList/>三世互不相離，一如無二，云何說二心互不相在。</text>		</g>
		<g id="shape8-20" v:mID="8" v:groupContext="shape" transform="translate(119.424,-1.32441) rotate(0.1)">
			<title>工作表.8</title>
			<desc>以第一義諦說</desc>
			<v:textBlock v:margins="rect(0,0,0,0)" v:tabSpace="42.5197"/>
			<v:textRect cx="38.3148" cy="67.8579" width="76.63" height="10.3342"/>
			<rect x="0" y="62.6907" width="76.6296" height="10.3342" class="st1"/>
			<text x="-0" y="70.97" class="st2" v:langID="1028"><v:paragraph/><v:tabList/>以第一義諦說</text>		</g>
		<g id="shape9-23" v:mID="9" v:groupContext="shape" transform="translate(212.861,-1.16676) rotate(0.1)">
			<title>工作表.9</title>
			<desc>皆空非心相。</desc>
			<v:textBlock v:margins="rect(0,0,0,0)" v:tabSpace="42.5197"/>
			<v:textRect cx="40.6715" cy="67.8579" width="81.35" height="10.3342"/>
			<rect x="0" y="62.6907" width="81.3431" height="10.3342" class="st1"/>
			<text x="0" y="70.97" class="st2" v:langID="1028"><v:paragraph/><v:tabList/>皆空非心相。</text>		</g>
		<g id="shape18-26" v:mID="18" v:groupContext="shape" transform="translate(185.374,30.7126) rotate(90.1)">
			<title>工作表.18</title>
			<path d="M0 67.35 C0 68.92 1.53 70.19 3.41 70.19 L17.11 70.19 C19.02 70.19 20.55 71.46 20.55 73.02 C20.55 71.46 22.08
						 70.19 23.96 70.19 L37.66 70.19 C39.58 70.19 41.1 68.92 41.1 67.35 L0 67.35 Z" class="st4"/>
			<path d="M0 67.35 C0 68.92 1.53 70.19 3.41 70.19 L17.11 70.19 C19.02 70.19 20.55 71.46 20.55 73.02 C20.55 71.46 22.08
						 70.19 23.96 70.19 L37.66 70.19 C39.58 70.19 41.1 68.92 41.1 67.35" class="st5"/>
		</g>
		<g id="shape19-29" v:mID="19" v:groupContext="shape" transform="translate(254.835,1.79834) rotate(90.1)">
			<title>工作表.19</title>
			<path d="M0 67.36 C0 68.94 2.03 70.2 4.52 70.2 L29.75 70.2 C32.23 70.2 34.26 71.46 34.26 73.02 C34.26 71.46 36.29 70.2
						 38.78 70.2 L49.73 70.2 C52.22 70.2 54.25 68.94 54.25 67.36 L0 67.36 Z" class="st4"/>
			<path d="M0 67.36 C0 68.94 2.03 70.2 4.52 70.2 L29.75 70.2 C32.23 70.2 34.26 71.46 34.26 73.02 C34.26 71.46 36.29 70.2
						 38.78 70.2 L49.73 70.2 C52.22 70.2 54.25 68.94 54.25 67.36" class="st5"/>
		</g>
		<g id="shape20-32" v:mID="20" v:groupContext="shape" transform="translate(181.763,-7.02399)">
			<title>工作表.20</title>
			<path d="M0 73.02 L29.79 73.02" class="st6"/>
		</g>
	</g>
</svg>
