<?xml version="1.0" encoding="UTF-8" standalone="no"?>
<!DOCTYPE svg PUBLIC "-//W3C//DTD SVG 1.1//EN" "http://www.w3.org/Graphics/SVG/1.1/DTD/svg11.dtd">
<!-- 由 Microsoft Visio, SVG Export 產生 B01806.svg 頁-1 -->
<svg xmlns="http://www.w3.org/2000/svg" xmlns:xlink="http://www.w3.org/1999/xlink" xmlns:ev="http://www.w3.org/2001/xml-events"
		xmlns:v="http://schemas.microsoft.com/visio/2003/SVGExtensions/" width="3.90483in" height="1.02754in"
		viewBox="0 0 281.148 73.9827" xml:space="preserve" color-interpolation-filters="sRGB" class="st7">
	<v:documentProperties v:langID="1028" v:viewMarkup="false"/>

	<style type="text/css">
	<![CDATA[
		.st1 {fill:none;stroke:none;stroke-linecap:butt;stroke-width:0.75}
		.st2 {fill:#000000;font-family:新細明體;font-size:0.833336em}
		.st3 {font-family:Times New Roman;font-size:1em}
		.st4 {fill:none}
		.st5 {stroke:#000000;stroke-linecap:round;stroke-linejoin:round;stroke-width:0.5625}
		.st6 {stroke:#000000;stroke-dasharray:0.5625,1.125;stroke-linecap:round;stroke-linejoin:round;stroke-width:0.5625}
		.st7 {fill:none;fill-rule:evenodd;font-size:12px;overflow:visible;stroke-linecap:square;stroke-miterlimit:3}
	]]>
	</style>

	<g v:mID="0" v:index="1" v:groupContext="foregroundPage">
		<title>頁-1</title>
		<v:pageProperties v:drawingScale="0.0393701" v:pageScale="0.0393701" v:drawingUnits="24" v:shadowOffsetX="9"
				v:shadowOffsetY="-9"/>
		<g id="shape2-1" v:mID="2" v:groupContext="shape" transform="translate(108.937,-62.7248) rotate(0.1)">
			<title>工作表.2</title>
			<desc>或說無常苦空無我等</desc>
			<v:textBlock v:margins="rect(0,0,0,0)" v:tabSpace="42.5197"/>
			<v:textRect cx="46.809" cy="68.9539" width="93.62" height="10.0576"/>
			<rect x="0" y="63.9251" width="93.6181" height="10.0576" class="st1"/>
			<text x="0" y="72.07" class="st2" v:langID="1028"><v:paragraph/><v:tabList/>或說無常苦空無我等</text>		</g>
		<g id="shape3-4" v:mID="3" v:groupContext="shape" transform="translate(50.786,-47.4859) rotate(0.1)">
			<title>工作表.3</title>
			<desc>應解</desc>
			<v:textBlock v:margins="rect(0,0,0,0)" v:tabSpace="42.5197"/>
			<v:textRect cx="23.6617" cy="68.9539" width="47.33" height="10.0576"/>
			<rect x="0" y="63.9251" width="47.3234" height="10.0576" class="st1"/>
			<text x="0" y="72.07" class="st2" v:langID="1028"><v:paragraph/><v:tabList/>應解</text>		</g>
		<g id="shape4-7" v:mID="4" v:groupContext="shape" transform="translate(108.908,-47.387) rotate(0.1)">
			<title>工作表.4</title>
			<desc>或說分別諸法總相別相</desc>
			<v:textBlock v:margins="rect(0,0,0,0)" v:tabSpace="42.5197"/>
			<v:textRect cx="52.3979" cy="68.9539" width="104.8" height="10.0576"/>
			<rect x="0" y="63.9251" width="104.796" height="10.0576" class="st1"/>
			<text x="-0" y="72.07" class="st2" v:langID="1028"><v:paragraph/><v:tabList/>或說分別諸法總相別相</text>		</g>
		<g id="shape5-10" v:mID="5" v:groupContext="shape" transform="translate(0.879124,-32.183) rotate(0.1)">
			<title>工作表.5</title>
			<desc>如來隨眾生應得說法─</desc>
			<v:textBlock v:margins="rect(0,0,0,0)" v:tabSpace="42.5197"/>
			<v:textRect cx="56.808" cy="68.9539" width="113.62" height="10.0576"/>
			<rect x="0" y="63.9251" width="113.616" height="10.0576" class="st1"/>
			<text x="0" y="72.07" class="st2" v:langID="1028"><v:paragraph/><v:tabList/>如來隨眾生應得說法<tspan class="st3">─</tspan></text>		</g>
		<g id="shape6-14" v:mID="6" v:groupContext="shape" transform="translate(108.879,-32.0077) rotate(0.1)">
			<title>工作表.6</title>
			<desc>或說法從緣生無有作者</desc>
			<v:textBlock v:margins="rect(0,0,0,0)" v:tabSpace="42.5197"/>
			<v:textRect cx="59.5009" cy="68.9539" width="119.01" height="10.0576"/>
			<rect x="0" y="63.9251" width="119.002" height="10.0576" class="st1"/>
			<text x="0" y="72.07" class="st2" v:langID="1028"><v:paragraph/><v:tabList/>或說法從緣生無有作者</text>		</g>
		<g id="shape7-17" v:mID="7" v:groupContext="shape" transform="translate(236.445,-31.3779) rotate(0.1)">
			<title>工作表.7</title>
			<desc>名為般若</desc>
			<v:textBlock v:margins="rect(0,0,0,0)" v:tabSpace="42.5197"/>
			<v:textRect cx="22.0323" cy="68.9539" width="44.07" height="10.0576"/>
			<rect x="0" y="63.9251" width="44.0645" height="10.0576" class="st1"/>
			<text x="0" y="72.07" class="st2" v:langID="1028"><v:paragraph/><v:tabList/>名為般若</text>		</g>
		<g id="shape8-20" v:mID="8" v:groupContext="shape" transform="translate(50.7277,-16.726) rotate(0.1)">
			<title>工作表.8</title>
			<desc>應行</desc>
			<v:textBlock v:margins="rect(0,0,0,0)" v:tabSpace="42.5197"/>
			<v:textRect cx="20.1472" cy="68.9539" width="40.3" height="10.0576"/>
			<rect x="0" y="63.9251" width="40.2944" height="10.0576" class="st1"/>
			<text x="-0" y="72.07" class="st2" v:langID="1028"><v:paragraph/><v:tabList/>應行</text>		</g>
		<g id="shape9-23" v:mID="9" v:groupContext="shape" transform="translate(108.85,-16.6245) rotate(0.1)">
			<title>工作表.9</title>
			<desc>或說空</desc>
			<v:textBlock v:margins="rect(0,0,0,0)" v:tabSpace="42.5197"/>
			<v:textRect cx="27.1983" cy="68.9539" width="54.4" height="10.0576"/>
			<rect x="0" y="63.9251" width="54.3967" height="10.0576" class="st1"/>
			<text x="-0" y="72.07" class="st2" v:langID="1028"><v:paragraph/><v:tabList/>或說空</text>		</g>
		<g id="shape10-26" v:mID="10" v:groupContext="shape" transform="translate(108.822,-1.28751) rotate(0.1)">
			<title>工作表.10</title>
			<desc>或說畢竟空</desc>
			<v:textBlock v:margins="rect(0,0,0,0)" v:tabSpace="42.5197"/>
			<v:textRect cx="34.297" cy="68.9539" width="68.6" height="10.0576"/>
			<rect x="0" y="63.9251" width="68.5939" height="10.0576" class="st1"/>
			<text x="-0" y="72.07" class="st2" v:langID="1028"><v:paragraph/><v:tabList/>或說畢竟空</text>		</g>
		<g id="shape17-29" v:mID="17" v:groupContext="shape" transform="translate(177.074,2.66704) rotate(90.1)">
			<title>工作表.17</title>
			<path d="M0 69.73 C0 70.91 2.6 71.86 5.78 71.86 L28.83 71.86 C32.02 71.86 34.57 72.81 34.57 73.98 C34.57 72.81 37.17
						 71.86 40.36 71.86 L63.4 71.86 C66.59 71.86 69.15 70.91 69.15 69.73 L0 69.73 Z" class="st4"/>
			<path d="M0 69.73 C0 70.91 2.6 71.86 5.78 71.86 L28.83 71.86 C32.02 71.86 34.57 72.81 34.57 73.98 C34.57 72.81 37.17
						 71.86 40.36 71.86 L63.4 71.86 C66.59 71.86 69.15 70.91 69.15 69.73" class="st5"/>
		</g>
		<g id="shape18-32" v:mID="18" v:groupContext="shape" transform="translate(132.965,-1.07838) rotate(-21.3632)">
			<title>工作表.18</title>
			<path d="M0 73.98 L80.09 73.98" class="st6"/>
		</g>
		<g id="shape19-35" v:mID="19" v:groupContext="shape" transform="translate(249.984,-47.3642) rotate(42.7066)">
			<title>工作表.19</title>
			<path d="M0 73.98 L47.22 73.98" class="st6"/>
		</g>
	</g>
</svg>
