<?xml version="1.0" encoding="UTF-8" standalone="no"?>
<!DOCTYPE svg PUBLIC "-//W3C//DTD SVG 1.1//EN" "http://www.w3.org/Graphics/SVG/1.1/DTD/svg11.dtd">
<!-- 由 Microsoft Visio, SVG Export 產生 B01805.svg 頁-1 -->
<svg xmlns="http://www.w3.org/2000/svg" xmlns:xlink="http://www.w3.org/1999/xlink" xmlns:ev="http://www.w3.org/2001/xml-events"
		xmlns:v="http://schemas.microsoft.com/visio/2003/SVGExtensions/" width="3.08879in" height="0.387983in"
		viewBox="0 0 222.393 27.9348" xml:space="preserve" color-interpolation-filters="sRGB" class="st6">
	<v:documentProperties v:langID="1028" v:viewMarkup="false"/>

	<style type="text/css">
	<![CDATA[
		.st1 {fill:none;stroke:none;stroke-linecap:butt;stroke-width:0.75}
		.st2 {fill:#000000;font-family:新細明體;font-size:0.833336em}
		.st3 {font-family:Times New Roman;font-size:1em}
		.st4 {fill:none}
		.st5 {stroke:#000000;stroke-linecap:round;stroke-linejoin:round;stroke-width:0.5625}
		.st6 {fill:none;fill-rule:evenodd;font-size:12px;overflow:visible;stroke-linecap:square;stroke-miterlimit:3}
	]]>
	</style>

	<g v:mID="0" v:index="1" v:groupContext="foregroundPage">
		<title>頁-1</title>
		<v:pageProperties v:drawingScale="0.0393701" v:pageScale="0.0393701" v:drawingUnits="24" v:shadowOffsetX="9"
				v:shadowOffsetY="-9"/>
		<g id="shape2-1" v:mID="2" v:groupContext="shape" transform="translate(31.7436,-19.0572) rotate(0.1)">
			<title>工作表.2</title>
			<desc>著─破法不破空</desc>
			<v:textBlock v:margins="rect(0,0,0,0)" v:tabSpace="42.5197"/>
			<v:textRect cx="44.8506" cy="25.2864" width="89.71" height="5.2968"/>
			<rect x="0" y="22.638" width="89.7012" height="5.2968" class="st1"/>
			<text x="-0" y="28.4" class="st2" v:langID="1028"><v:paragraph/><v:tabList/>著<tspan class="st3">─</tspan>破法不破空</text>		</g>
		<g id="shape3-5" v:mID="3" v:groupContext="shape" transform="translate(0.798755,-10.7115) rotate(0.1)">
			<title>工作表.3</title>
			<desc>法空</desc>
			<v:textBlock v:margins="rect(0,0,0,0)"/>
			<v:textRect cx="12.5534" cy="24.695" width="25.11" height="6.47944"/>
			<rect x="0" y="21.4553" width="25.1068" height="6.47944" class="st1"/>
			<text x="0" y="27.81" class="st2" v:langID="1028"><v:paragraph/><v:tabList/>法空          </text>		</g>
		<g id="shape4-8" v:mID="4" v:groupContext="shape" transform="translate(31.097,-1.14314) rotate(0.1)">
			<title>工作表.4</title>
			<desc>不著─破法能破空─色空不二─真學法空</desc>
			<v:textBlock v:margins="rect(0,0,0,0)" v:tabSpace="42.5197"/>
			<v:textRect cx="95.2879" cy="22.5348" width="190.58" height="10.8"/>
			<rect x="0" y="17.1348" width="190.576" height="10.8" class="st1"/>
			<text x="0" y="25.65" class="st2" v:langID="1028"><v:paragraph/><v:tabList/>不著<tspan class="st3">─</tspan>破法能破空<tspan
						class="st3">─</tspan>色空不二<tspan class="st3">─</tspan>真學法空</text>		</g>
		<g id="shape10-14" v:mID="10" v:groupContext="shape" transform="translate(51.1728,1.83179) rotate(90.1)">
			<title>工作表.10</title>
			<path d="M0 22.2 C0 23.78 0.89 25.07 2.02 25.07 L10.12 25.07 C11.23 25.07 12.15 26.37 12.15 27.93 C12.15 26.37 13.04
						 25.07 14.17 25.07 L22.27 25.07 C23.38 25.07 24.3 23.78 24.3 22.2 L0 22.2 Z" class="st4"/>
			<path d="M0 22.2 C0 23.78 0.89 25.07 2.02 25.07 L10.12 25.07 C11.23 25.07 12.15 26.37 12.15 27.93 C12.15 26.37 13.04
						 25.07 14.17 25.07 L22.27 25.07 C23.38 25.07 24.3 23.78 24.3 22.2" class="st5"/>
		</g>
	</g>
</svg>
