<?xml version="1.0" encoding="UTF-8" standalone="no"?>
<!DOCTYPE svg PUBLIC "-//W3C//DTD SVG 1.1//EN" "http://www.w3.org/Graphics/SVG/1.1/DTD/svg11.dtd">
<!-- 由 Microsoft Visio, SVG Export 產生 B01804.svg 頁-1 -->
<svg xmlns="http://www.w3.org/2000/svg" xmlns:xlink="http://www.w3.org/1999/xlink" xmlns:ev="http://www.w3.org/2001/xml-events"
		xmlns:v="http://schemas.microsoft.com/visio/2003/SVGExtensions/" width="5.075in" height="0.820339in"
		viewBox="0 0 365.4 59.0644" xml:space="preserve" color-interpolation-filters="sRGB" class="st5">
	<v:documentProperties v:langID="1028" v:viewMarkup="false"/>

	<style type="text/css">
	<![CDATA[
		.st1 {fill:none;stroke:none;stroke-linecap:butt;stroke-width:0.75}
		.st2 {fill:#000000;font-family:新細明體;font-size:0.833336em}
		.st3 {fill:none}
		.st4 {stroke:#000000;stroke-linecap:round;stroke-linejoin:round;stroke-width:0.5625}
		.st5 {fill:none;fill-rule:evenodd;font-size:12px;overflow:visible;stroke-linecap:square;stroke-miterlimit:3}
	]]>
	</style>

	<g v:mID="0" v:index="1" v:groupContext="foregroundPage">
		<title>頁-1</title>
		<v:pageProperties v:drawingScale="0.0393701" v:pageScale="0.0393701" v:drawingUnits="24" v:shadowOffsetX="9"
				v:shadowOffsetY="-9"/>
		<g id="shape2-1" v:mID="2" v:groupContext="shape" transform="translate(81.9099,-47.618) rotate(0.1)">
			<title>工作表.2</title>
			<desc>阿鞞跋致菩薩</desc>
			<v:textBlock v:margins="rect(0,0,0,0)" v:tabSpace="42.5197"/>
			<v:textRect cx="35.1127" cy="53.8472" width="70.23" height="10.4345"/>
			<rect x="0" y="48.6299" width="70.2255" height="10.4345" class="st1"/>
			<text x="0" y="56.96" class="st2" v:langID="1028"><v:paragraph/><v:tabList/>阿鞞跋致菩薩</text>		</g>
		<g id="shape3-4" v:mID="3" v:groupContext="shape" transform="translate(81.881,-32.7951) rotate(0.1)">
			<title>工作表.3</title>
			<desc>漏盡羅漢</desc>
			<v:textBlock v:margins="rect(0,0,0,0)" v:tabSpace="42.5197"/>
			<v:textRect cx="28.0407" cy="53.8472" width="56.09" height="10.4345"/>
			<rect x="0" y="48.6299" width="56.0814" height="10.4345" class="st1"/>
			<text x="0" y="56.96" class="st2" v:langID="1028"><v:paragraph/><v:tabList/>漏盡羅漢</text>		</g>
		<g id="shape4-7" v:mID="4" v:groupContext="shape" transform="translate(0.853087,-17.5873) rotate(0.1)">
			<title>工作表.4</title>
			<desc>四人能信受般若</desc>
			<v:textBlock v:margins="rect(0,0,0,0)"/>
			<v:textRect cx="37.3744" cy="53.8472" width="74.75" height="10.4345"/>
			<rect x="0" y="48.6299" width="74.7488" height="10.4345" class="st1"/>
			<text x="-0" y="56.96" class="st2" v:langID="1028"><v:paragraph/><v:tabList/>四人能信受般若  </text>		</g>
		<g id="shape5-10" v:mID="5" v:groupContext="shape" transform="translate(81.8235,-1.50051) rotate(0.1)">
			<title>工作表.5</title>
			<desc>利根初心多見佛多種善根近善知識有新發意者不能受</desc>
			<v:textBlock v:margins="rect(0,0,0,0)" v:tabSpace="42.5197"/>
			<v:textRect cx="141.456" cy="53.8472" width="282.92" height="10.4345"/>
			<rect x="0" y="48.6299" width="282.912" height="10.4345" class="st1"/>
			<text x="-0" y="56.96" class="st2" v:langID="1028"><v:paragraph/><v:tabList/>利根初心，多見佛，多種善根，近善知識（有新發意者不能受）</text>		</g>
		<g id="shape12-13" v:mID="12" v:groupContext="shape" transform="translate(132.352,1.11313) rotate(90.1)">
			<title>工作表.12</title>
			<path d="M0 53.4 C0 54.98 2.07 56.23 4.61 56.23 L31.1 56.23 C33.64 56.23 35.75 57.51 35.75 59.06 C35.75 57.51 37.82 56.23
						 40.36 56.23 L51.07 56.23 C53.6 56.23 55.68 54.98 55.68 53.4 L0 53.4 Z" class="st3"/>
			<path d="M0 53.4 C0 54.98 2.07 56.23 4.61 56.23 L31.1 56.23 C33.64 56.23 35.75 57.51 35.75 59.06 C35.75 57.51 37.82 56.23
						 40.36 56.23 L51.07 56.23 C53.6 56.23 55.68 54.98 55.68 53.4" class="st4"/>
		</g>
		<g id="shape13-16" v:mID="13" v:groupContext="shape" transform="translate(81.5449,-16.9109)">
			<title>工作表.13</title>
			<desc>正見成就三種學人</desc>
			<v:textBlock v:margins="rect(0,0,0,0)"/>
			<v:textRect cx="42.6188" cy="53.8472" width="85.24" height="10.4345"/>
			<rect x="0" y="48.6299" width="85.2376" height="10.4345" class="st1"/>
			<text x="0" y="56.96" class="st2" v:langID="1028"><v:paragraph/><v:tabList/>正見成就三種學人</text>		</g>
	</g>
</svg>
