<?xml version="1.0" encoding="UTF-8" standalone="no"?>
<!DOCTYPE svg PUBLIC "-//W3C//DTD SVG 1.1//EN" "http://www.w3.org/Graphics/SVG/1.1/DTD/svg11.dtd">
<!-- 由 Microsoft Visio, SVG Export 產生 B01904.svg 頁-1 -->
<svg xmlns="http://www.w3.org/2000/svg" xmlns:xlink="http://www.w3.org/1999/xlink" xmlns:ev="http://www.w3.org/2001/xml-events"
		xmlns:v="http://schemas.microsoft.com/visio/2003/SVGExtensions/" width="1.18822in" height="0.380405in"
		viewBox="0 0 85.5519 27.3892" xml:space="preserve" color-interpolation-filters="sRGB" class="st5">
	<v:documentProperties v:langID="1028" v:viewMarkup="false"/>

	<style type="text/css">
	<![CDATA[
		.st1 {fill:none;stroke:none;stroke-linecap:butt;stroke-width:0.75}
		.st2 {fill:#000000;font-family:新細明體;font-size:0.833336em}
		.st3 {fill:none}
		.st4 {stroke:#000000;stroke-linecap:round;stroke-linejoin:round;stroke-width:0.5625}
		.st5 {fill:none;fill-rule:evenodd;font-size:12px;overflow:visible;stroke-linecap:square;stroke-miterlimit:3}
	]]>
	</style>

	<g v:mID="0" v:index="1" v:groupContext="foregroundPage">
		<title>頁-1</title>
		<v:pageProperties v:drawingScale="0.0393701" v:pageScale="0.0393701" v:drawingUnits="24" v:shadowOffsetX="9"
				v:shadowOffsetY="-9"/>
		<g id="shape2-1" v:mID="2" v:groupContext="shape" transform="translate(40.9637,-18.7263) rotate(0.1)">
			<title>工作表.2</title>
			<desc>必應受報</desc>
			<v:textBlock v:margins="rect(0,0,0,0)" v:tabSpace="42.5197"/>
			<v:textRect cx="21.9388" cy="24.9555" width="43.88" height="4.86731"/>
			<rect x="0" y="22.5219" width="43.8776" height="4.86731" class="st1"/>
			<text x="0" y="28.07" class="st2" v:langID="1028"><v:paragraph/><v:tabList/>必應受報</text>		</g>
		<g id="shape3-4" v:mID="3" v:groupContext="shape" transform="translate(0.797803,-11.3346) rotate(0.1)">
			<title>工作表.3</title>
			<desc>二種業</desc>
			<v:textBlock v:margins="rect(0,0,0,0)" v:tabSpace="42.5197"/>
			<v:textRect cx="26.7319" cy="24.9555" width="53.47" height="4.86731"/>
			<rect x="0" y="22.5219" width="53.4639" height="4.86731" class="st1"/>
			<text x="-0" y="28.07" class="st2" v:langID="1028"><v:paragraph/><v:tabList/>二種業</text>		</g>
		<g id="shape4-7" v:mID="4" v:groupContext="shape" transform="translate(40.9137,-3.86518) rotate(0.1)">
			<title>工作表.4</title>
			<desc>不必受報</desc>
			<v:textBlock v:margins="rect(0,0,0,0)" v:tabSpace="42.5197"/>
			<v:textRect cx="21.9632" cy="24.9555" width="43.93" height="4.86731"/>
			<rect x="0" y="22.5219" width="43.9264" height="4.86731" class="st1"/>
			<text x="-0" y="28.07" class="st2" v:langID="1028"><v:paragraph/><v:tabList/>不必受報</text>		</g>
		<g id="shape11-10" v:mID="11" v:groupContext="shape" transform="translate(60.6518,1.91078) rotate(90.1)">
			<title>工作表.11</title>
			<path d="M0 21.72 C0 23.29 0.89 24.55 2.02 24.55 L10.05 24.55 C11.15 24.55 12.05 25.82 12.05 27.39 C12.05 25.82 12.94
						 24.55 14.07 24.55 L22.1 24.55 C23.2 24.55 24.09 23.29 24.09 21.72 L0 21.72 Z" class="st3"/>
			<path d="M0 21.72 C0 23.29 0.89 24.55 2.02 24.55 L10.05 24.55 C11.15 24.55 12.05 25.82 12.05 27.39 C12.05 25.82 12.94
						 24.55 14.07 24.55 L22.1 24.55 C23.2 24.55 24.09 23.29 24.09 21.72" class="st4"/>
		</g>
	</g>
</svg>
