<?xml version="1.0" encoding="UTF-8" standalone="no"?>
<!DOCTYPE svg PUBLIC "-//W3C//DTD SVG 1.1//EN" "http://www.w3.org/Graphics/SVG/1.1/DTD/svg11.dtd">
<!-- 由 Microsoft Visio, SVG Export 產生 B01905.svg 頁-1 -->
<svg xmlns="http://www.w3.org/2000/svg" xmlns:xlink="http://www.w3.org/1999/xlink" xmlns:ev="http://www.w3.org/2001/xml-events"
		xmlns:v="http://schemas.microsoft.com/visio/2003/SVGExtensions/" width="2.52686in" height="0.582131in"
		viewBox="0 0 181.934 41.9134" xml:space="preserve" color-interpolation-filters="sRGB" class="st7">
	<v:documentProperties v:langID="1028" v:viewMarkup="false"/>

	<style type="text/css">
	<![CDATA[
		.st1 {fill:none;stroke:none;stroke-linecap:butt;stroke-width:0.75}
		.st2 {fill:#000000;font-family:新細明體;font-size:0.833336em}
		.st3 {font-family:Times New Roman;font-size:1em}
		.st4 {fill:none}
		.st5 {stroke:#000000;stroke-linecap:round;stroke-linejoin:round;stroke-width:0.5625}
		.st6 {stroke:#000000;stroke-dasharray:0.5625,1.125;stroke-linecap:round;stroke-linejoin:round;stroke-width:0.5625}
		.st7 {fill:none;fill-rule:evenodd;font-size:12px;overflow:visible;stroke-linecap:square;stroke-miterlimit:3}
	]]>
	</style>

	<g v:mID="0" v:index="1" v:groupContext="foregroundPage">
		<title>頁-1</title>
		<v:pageProperties v:drawingScale="0.0393701" v:pageScale="0.0393701" v:drawingUnits="24" v:shadowOffsetX="9"
				v:shadowOffsetY="-9"/>
		<g id="shape2-1" v:mID="2" v:groupContext="shape" transform="translate(31.3863,-30.2842) rotate(0.1)">
			<title>工作表.2</title>
			<desc>佛</desc>
			<v:textBlock v:margins="rect(0,0,0,0)" v:tabSpace="42.5197"/>
			<v:textRect cx="18.1584" cy="36.5134" width="36.32" height="10.8"/>
			<rect x="0" y="31.1134" width="36.3168" height="10.8" class="st1"/>
			<text x="0" y="39.63" class="st2" v:langID="1028"><v:paragraph/><v:tabList/>佛</text>		</g>
		<g id="shape3-4" v:mID="3" v:groupContext="shape" transform="translate(69.9171,-30.0643) rotate(0.1)">
			<title>工作表.3</title>
			<desc>究竟</desc>
			<v:textBlock v:margins="rect(0,0,0,0)" v:tabSpace="42.5197"/>
			<v:textRect cx="21.0638" cy="36.5134" width="42.13" height="10.8"/>
			<rect x="0" y="31.1134" width="42.1276" height="10.8" class="st1"/>
			<text x="0" y="39.63" class="st2" v:langID="1028"><v:paragraph/><v:tabList/>究竟</text>		</g>
		<g id="shape4-7" v:mID="4" v:groupContext="shape" transform="translate(0.823153,-16.3474) rotate(0.1)">
			<title>工作表.4</title>
			<desc>佛─</desc>
			<v:textBlock v:margins="rect(0,0,0,0)" v:tabSpace="42.5197"/>
			<v:textRect cx="18.4563" cy="36.9007" width="36.92" height="10.0255"/>
			<rect x="0" y="31.8879" width="36.9127" height="10.0255" class="st1"/>
			<text x="-0" y="40.02" class="st2" v:langID="1028"><v:paragraph/><v:tabList/>佛<tspan class="st3">─</tspan></text>		</g>
		<g id="shape5-11" v:mID="5" v:groupContext="shape" transform="translate(31.3583,-15.9968) rotate(0.1)">
			<title>工作表.5</title>
			<desc>如佛</desc>
			<v:textBlock v:margins="rect(0,0,0,0)" v:tabSpace="42.5197"/>
			<v:textRect cx="22.9917" cy="36.5134" width="45.99" height="10.8"/>
			<rect x="0" y="31.1134" width="45.9835" height="10.8" class="st1"/>
			<text x="0" y="39.63" class="st2" v:langID="1028"><v:paragraph/><v:tabList/>如佛</text>		</g>
		<g id="shape6-14" v:mID="6" v:groupContext="shape" transform="translate(69.7999,-15.7769) rotate(0.1)">
			<title>工作表.6</title>
			<desc>法性生身乃至十地</desc>
			<v:textBlock v:margins="rect(0,0,0,0)" v:tabSpace="42.5197"/>
			<v:textRect cx="41.5465" cy="36.5134" width="83.1" height="10.8"/>
			<rect x="0" y="31.1134" width="83.0929" height="10.8" class="st1"/>
			<text x="0" y="39.63" class="st2" v:langID="1028"><v:paragraph/><v:tabList/>法性生身乃至十地</text>		</g>
		<g id="shape7-17" v:mID="7" v:groupContext="shape" transform="translate(31.3288,-1.14662) rotate(0.1)">
			<title>工作表.7</title>
			<desc>次佛</desc>
			<v:textBlock v:margins="rect(0,0,0,0)" v:tabSpace="42.5197"/>
			<v:textRect cx="25.2739" cy="36.5134" width="50.55" height="10.8"/>
			<rect x="0" y="31.1134" width="50.5478" height="10.8" class="st1"/>
			<text x="0" y="39.63" class="st2" v:langID="1028"><v:paragraph/><v:tabList/>次佛</text>		</g>
		<g id="shape8-20" v:mID="8" v:groupContext="shape" transform="translate(69.5168,-1.02095) rotate(0.1)">
			<title>工作表.8</title>
			<desc>肉身菩薩能說般若正義</desc>
			<v:textBlock v:margins="rect(0,0,0,0)" v:tabSpace="42.5197"/>
			<v:textRect cx="55.8607" cy="36.5134" width="111.73" height="10.8"/>
			<rect x="0" y="31.1134" width="111.721" height="10.8" class="st1"/>
			<text x="-0" y="39.63" class="st2" v:langID="1028"><v:paragraph/><v:tabList/>肉身菩薩，能說般若正義</text>		</g>
		<g id="shape9-23" v:mID="9" v:groupContext="shape" transform="translate(65.443,0.830553) rotate(90.1)">
			<title>工作表.9</title>
			<path d="M0 36.24 C0 37.81 1.47 39.08 3.31 39.08 L16.46 39.08 C18.27 39.08 19.74 40.34 19.74 41.91 C19.74 40.34 21.2
						 39.08 23.04 39.08 L36.2 39.08 C38 39.08 39.47 37.81 39.47 36.24 L0 36.24 Z" class="st4"/>
			<path d="M0 36.24 C0 37.81 1.47 39.08 3.31 39.08 L16.46 39.08 C18.27 39.08 19.74 40.34 19.74 41.91 C19.74 40.34 21.2
						 39.08 23.04 39.08 L36.2 39.08 C38 39.08 39.47 37.81 39.47 36.24" class="st5"/>
		</g>
		<g id="shape10-26" v:mID="10" v:groupContext="shape" transform="translate(43.0977,-36.024) rotate(0.1)">
			<title>工作表.10</title>
			<path d="M0 41.91 L24.62 41.91" class="st6"/>
		</g>
		<g id="shape11-29" v:mID="11" v:groupContext="shape" transform="translate(53.4665,-21.0183)">
			<title>工作表.11</title>
			<path d="M0 41.91 L14.17 41.91" class="st6"/>
		</g>
		<g id="shape12-32" v:mID="12" v:groupContext="shape" transform="translate(53.4665,-5.49303)">
			<title>工作表.12</title>
			<path d="M0 41.91 L14.17 41.91" class="st6"/>
		</g>
	</g>
</svg>
