<?xml version="1.0" encoding="UTF-8" standalone="no"?>
<!DOCTYPE svg PUBLIC "-//W3C//DTD SVG 1.1//EN" "http://www.w3.org/Graphics/SVG/1.1/DTD/svg11.dtd">
<!-- 由 Microsoft Visio, SVG Export 產生 B01907.svg 頁-1 -->
<svg xmlns="http://www.w3.org/2000/svg" xmlns:xlink="http://www.w3.org/1999/xlink" xmlns:ev="http://www.w3.org/2001/xml-events"
		xmlns:v="http://schemas.microsoft.com/visio/2003/SVGExtensions/" width="2.92257in" height="0.383706in"
		viewBox="0 0 210.425 27.6268" xml:space="preserve" color-interpolation-filters="sRGB" class="st6">
	<v:documentProperties v:langID="1028" v:viewMarkup="false"/>

	<style type="text/css">
	<![CDATA[
		.st1 {fill:none;stroke:none;stroke-linecap:butt;stroke-width:0.75}
		.st2 {fill:#000000;font-family:新細明體;font-size:0.833336em}
		.st3 {fill:none}
		.st4 {stroke:#000000;stroke-linecap:round;stroke-linejoin:round;stroke-width:0.5625}
		.st5 {stroke:#000000;stroke-dasharray:0.5625,1.125;stroke-linecap:round;stroke-linejoin:round;stroke-width:0.5625}
		.st6 {fill:none;fill-rule:evenodd;font-size:12px;overflow:visible;stroke-linecap:square;stroke-miterlimit:3}
	]]>
	</style>

	<g v:mID="0" v:index="1" v:groupContext="foregroundPage">
		<title>頁-1</title>
		<v:pageProperties v:drawingScale="0.0393701" v:pageScale="0.0393701" v:drawingUnits="24" v:shadowOffsetX="9"
				v:shadowOffsetY="-9"/>
		<g id="shape2-1" v:mID="2" v:groupContext="shape" transform="translate(69.9949,-18.3852) rotate(0.1)">
			<title>工作表.2</title>
			<desc>聞持</desc>
			<v:textBlock v:margins="rect(0,0,0,0)" v:tabSpace="42.5197"/>
			<v:textRect cx="16.7092" cy="24.6143" width="33.42" height="6.02505"/>
			<rect x="0" y="21.6018" width="33.4183" height="6.02505" class="st1"/>
			<text x="0" y="27.73" class="st2" v:langID="1028"><v:paragraph/><v:tabList/>聞持</text>		</g>
		<g id="shape3-4" v:mID="3" v:groupContext="shape" transform="translate(108.47,-18.352) rotate(0.1)">
			<title>工作表.3</title>
			<desc>正憶念</desc>
			<v:textBlock v:margins="rect(0,0,0,0)" v:tabSpace="42.5197"/>
			<v:textRect cx="24.8056" cy="24.6143" width="49.62" height="6.02505"/>
			<rect x="0" y="21.6018" width="49.6112" height="6.02505" class="st1"/>
			<text x="-0" y="27.73" class="st2" v:langID="1028"><v:paragraph/><v:tabList/>正憶念</text>		</g>
		<g id="shape4-7" v:mID="4" v:groupContext="shape" transform="translate(158.446,-18.2847) rotate(0.1)">
			<title>工作表.4</title>
			<desc>慧精進門入</desc>
			<v:textBlock v:margins="rect(0,0,0,0)" v:tabSpace="42.5197"/>
			<v:textRect cx="25.6337" cy="24.6143" width="51.27" height="6.02505"/>
			<rect x="0" y="21.6018" width="51.2674" height="6.02505" class="st1"/>
			<text x="0" y="27.73" class="st2" v:langID="1028"><v:paragraph/><v:tabList/>慧精進門入</text>		</g>
		<g id="shape5-10" v:mID="5" v:groupContext="shape" transform="translate(0.798218,-11.1843) rotate(0.1)">
			<title>工作表.5</title>
			<desc>般若有二門入</desc>
			<v:textBlock v:margins="rect(0,0,0,0)" v:tabSpace="42.5197"/>
			<v:textRect cx="36.4264" cy="24.9208" width="72.86" height="5.41203"/>
			<rect x="0" y="22.2148" width="72.8528" height="5.41203" class="st1"/>
			<text x="-0" y="28.04" class="st2" v:langID="1028"><v:paragraph/><v:tabList/>般若有二門入</text>		</g>
		<g id="shape6-13" v:mID="6" v:groupContext="shape" transform="translate(69.9365,-3.41043) rotate(0.1)">
			<title>工作表.6</title>
			<desc>書寫供養</desc>
			<v:textBlock v:margins="rect(0,0,0,0)" v:tabSpace="42.5197"/>
			<v:textRect cx="28.7852" cy="24.6143" width="57.58" height="6.02505"/>
			<rect x="0" y="21.6018" width="57.5704" height="6.02505" class="st1"/>
			<text x="0" y="27.73" class="st2" v:langID="1028"><v:paragraph/><v:tabList/>書寫供養</text>		</g>
		<g id="shape7-16" v:mID="7" v:groupContext="shape" transform="translate(158.387,-3.30387) rotate(0.1)">
			<title>工作表.7</title>
			<desc>信精進門入</desc>
			<v:textBlock v:margins="rect(0,0,0,0)" v:tabSpace="42.5197"/>
			<v:textRect cx="25.6628" cy="24.6143" width="51.33" height="6.02505"/>
			<rect x="0" y="21.6018" width="51.3257" height="6.02505" class="st1"/>
			<text x="0" y="27.73" class="st2" v:langID="1028"><v:paragraph/><v:tabList/>信精進門入</text>		</g>
		<g id="shape14-19" v:mID="14" v:groupContext="shape" transform="translate(89.9138,0.937621) rotate(90.1)">
			<title>工作表.14</title>
			<path d="M0 21.96 C0 23.53 0.95 24.79 2.11 24.79 L10.6 24.79 C11.79 24.79 12.73 26.08 12.73 27.63 C12.73 26.08 13.68
						 24.79 14.84 24.79 L23.33 24.79 C24.52 24.79 25.46 23.53 25.46 21.96 L0 21.96 Z" class="st3"/>
			<path d="M0 21.96 C0 23.53 0.95 24.79 2.11 24.79 L10.6 24.79 C11.79 24.79 12.73 26.08 12.73 27.63 C12.73 26.08 13.68
						 24.79 14.84 24.79 L23.33 24.79 C24.52 24.79 25.46 23.53 25.46 21.96" class="st4"/>
		</g>
		<g id="shape15-22" v:mID="15" v:groupContext="shape" transform="translate(92.59,-20.9608) rotate(0.0557876)">
			<title>工作表.15</title>
			<path d="M0 27.63 L13.5 27.63" class="st5"/>
		</g>
		<g id="shape16-25" v:mID="16" v:groupContext="shape" transform="translate(111.901,-5.55634) rotate(0.0557876)">
			<title>工作表.16</title>
			<path d="M0 27.63 L43.94 27.63" class="st5"/>
		</g>
		<g id="shape17-28" v:mID="17" v:groupContext="shape" transform="translate(155.811,34.4113) rotate(180)">
			<title>工作表.17</title>
			<path d="M0 27.63 L16.29 27.63" class="st5"/>
		</g>
	</g>
</svg>
