<?xml version="1.0" encoding="UTF-8" standalone="no"?>
<!DOCTYPE svg PUBLIC "-//W3C//DTD SVG 1.1//EN" "http://www.w3.org/Graphics/SVG/1.1/DTD/svg11.dtd">
<!-- 由 Microsoft Visio, SVG Export 產生 B02002.svg 頁-1 -->
<svg xmlns="http://www.w3.org/2000/svg" xmlns:xlink="http://www.w3.org/1999/xlink" xmlns:ev="http://www.w3.org/2001/xml-events"
		xmlns:v="http://schemas.microsoft.com/visio/2003/SVGExtensions/" width="1.4443in" height="0.372641in"
		viewBox="0 0 103.99 26.8302" xml:space="preserve" color-interpolation-filters="sRGB" class="st5">
	<v:documentProperties v:langID="1028" v:viewMarkup="false"/>

	<style type="text/css">
	<![CDATA[
		.st1 {fill:none;stroke:none;stroke-linecap:butt;stroke-width:0.75}
		.st2 {fill:#000000;font-family:新細明體;font-size:0.833336em}
		.st3 {fill:none}
		.st4 {stroke:#000000;stroke-linecap:round;stroke-linejoin:round;stroke-width:0.5625}
		.st5 {fill:none;fill-rule:evenodd;font-size:12px;overflow:visible;stroke-linecap:square;stroke-miterlimit:3}
	]]>
	</style>

	<g v:mID="0" v:index="1" v:groupContext="foregroundPage">
		<title>頁-1</title>
		<v:pageProperties v:drawingScale="0.0393701" v:pageScale="0.0393701" v:drawingUnits="24" v:shadowOffsetX="9"
				v:shadowOffsetY="-9"/>
		<g id="shape2-1" v:mID="2" v:groupContext="shape" transform="translate(60.6693,-18.0996) rotate(0.1)">
			<title>工作表.2</title>
			<desc>內正憶念</desc>
			<v:textBlock v:margins="rect(0,0,0,0)" v:tabSpace="42.5197"/>
			<v:textRect cx="21.3042" cy="24.3287" width="42.61" height="5.00288"/>
			<rect x="0" y="21.8273" width="42.6085" height="5.00288" class="st1"/>
			<text x="0" y="27.44" class="st2" v:langID="1028"><v:paragraph/><v:tabList/>內正憶念</text>		</g>
		<g id="shape3-4" v:mID="3" v:groupContext="shape" transform="translate(0.796827,-11.5132) rotate(0.1)">
			<title>工作表.3</title>
			<desc>信心二緣生</desc>
			<v:textBlock v:margins="rect(0,0,0,0)" v:tabSpace="42.5197"/>
			<v:textRect cx="36.8469" cy="24.3287" width="73.7" height="5.00288"/>
			<rect x="0" y="21.8273" width="73.6938" height="5.00288" class="st1"/>
			<text x="0" y="27.44" class="st2" v:langID="1028"><v:paragraph/><v:tabList/>信心二緣生</text>		</g>
		<g id="shape4-7" v:mID="4" v:groupContext="shape" transform="translate(60.7284,-3.79745) rotate(0.1)">
			<title>工作表.4</title>
			<desc>外良福田</desc>
			<v:textBlock v:margins="rect(0,0,0,0)" v:tabSpace="42.5197"/>
			<v:textRect cx="20.7968" cy="24.3287" width="41.6" height="5.00288"/>
			<rect x="0" y="21.8273" width="41.5936" height="5.00288" class="st1"/>
			<text x="0" y="27.44" class="st2" v:langID="1028"><v:paragraph/><v:tabList/>外良福田</text>		</g>
		<g id="shape11-10" v:mID="11" v:groupContext="shape" transform="translate(79.2853,1.92904) rotate(90.1)">
			<title>工作表.11</title>
			<path d="M0 21.16 C0 22.73 0.87 24 1.95 24 L9.73 24 C10.79 24 11.66 25.28 11.66 26.83 C11.66 25.28 12.53 24 13.61 24
						 L21.39 24 C22.45 24 23.32 22.73 23.32 21.16 L0 21.16 Z" class="st3"/>
			<path d="M0 21.16 C0 22.73 0.87 24 1.95 24 L9.73 24 C10.79 24 11.66 25.28 11.66 26.83 C11.66 25.28 12.53 24 13.61 24
						 L21.39 24 C22.45 24 23.32 22.73 23.32 21.16" class="st4"/>
		</g>
	</g>
</svg>
