<?xml version="1.0" encoding="UTF-8" standalone="no"?>
<!DOCTYPE svg PUBLIC "-//W3C//DTD SVG 1.1//EN" "http://www.w3.org/Graphics/SVG/1.1/DTD/svg11.dtd">
<!-- 由 Microsoft Visio, SVG Export 產生 B02001.svg 頁-1 -->
<svg xmlns="http://www.w3.org/2000/svg" xmlns:xlink="http://www.w3.org/1999/xlink" xmlns:ev="http://www.w3.org/2001/xml-events"
		xmlns:v="http://schemas.microsoft.com/visio/2003/SVGExtensions/" width="7.07942in" height="0.618513in"
		viewBox="0 0 509.718 44.533" xml:space="preserve" color-interpolation-filters="sRGB" class="st10">
	<v:documentProperties v:langID="1028" v:viewMarkup="false"/>

	<style type="text/css">
	<![CDATA[
		.st1 {fill:none;stroke:none;stroke-linecap:butt;stroke-width:0.75}
		.st2 {fill:#000000;font-family:新細明體;font-size:0.833336em}
		.st3 {font-family:Times New Roman;font-size:1em}
		.st4 {fill:#000000;font-family:Times New Roman;font-size:0.833336em}
		.st5 {fill:none}
		.st6 {stroke:#000000;stroke-linecap:round;stroke-linejoin:round;stroke-width:0.5625}
		.st7 {stroke:#000000;stroke-dasharray:0.5625,1.125;stroke-linecap:round;stroke-linejoin:round;stroke-width:0.5625}
		.st8 {fill:none;stroke:none;stroke-linecap:round;stroke-linejoin:round;stroke-width:0.75}
		.st9 {fill:#000000;font-family:Times New Roman;font-size:0.75em}
		.st10 {fill:none;fill-rule:evenodd;font-size:12px;overflow:visible;stroke-linecap:square;stroke-miterlimit:3}
	]]>
	</style>

	<g v:mID="0" v:index="1" v:groupContext="foregroundPage">
		<title>頁-1</title>
		<v:pageProperties v:drawingScale="0.0393701" v:pageScale="0.0393701" v:drawingUnits="24" v:shadowOffsetX="9"
				v:shadowOffsetY="-9"/>
		<g id="shape3-1" v:mID="3" v:groupContext="shape" transform="translate(101.391,-35.2692) rotate(0.1)">
			<title>工作表.3</title>
			<desc>善法智慧為主─所行</desc>
			<v:textBlock v:margins="rect(0,0,0,0)" v:tabSpace="42.5197"/>
			<v:textRect cx="58.1309" cy="41.4983" width="116.27" height="6.06939"/>
			<rect x="0" y="38.4636" width="116.262" height="6.06939" class="st1"/>
			<text x="0" y="44.61" class="st2" v:langID="1028"><v:paragraph/><v:tabList/>善法（智慧為主）<tspan class="st3">─</tspan>所行</text>		</g>
		<g id="shape4-5" v:mID="4" v:groupContext="shape" transform="translate(51.3647,-26.0403) rotate(0.1)">
			<title>工作表.4</title>
			<desc>有為法相</desc>
			<v:textBlock v:margins="rect(0,0,0,0)" v:tabSpace="42.5197"/>
			<v:textRect cx="23.9164" cy="41.4983" width="47.84" height="6.06939"/>
			<rect x="0" y="38.4636" width="47.8328" height="6.06939" class="st1"/>
			<text x="-0" y="44.61" class="st2" v:langID="1028"><v:paragraph/><v:tabList/>有為法相</text>		</g>
		<g id="shape5-8" v:mID="5" v:groupContext="shape" transform="translate(0.827725,-14.2466) rotate(0.1)">
			<title>工作表.5</title>
			<desc>二種法相</desc>
			<v:textBlock v:margins="rect(0,0,0,0)" v:tabSpace="42.5197"/>
			<v:textRect cx="31.7997" cy="40.7102" width="63.6" height="7.64541"/>
			<rect x="0" y="36.8875" width="63.5994" height="7.64541" class="st1"/>
			<text x="0" y="43.82" class="st2" v:langID="1028"><v:paragraph/><v:tabList/>二種法相</text>		</g>
		<g id="shape6-11" v:mID="6" v:groupContext="shape" transform="translate(101.329,-17.7716) rotate(0.1)">
			<title>工作表.6</title>
			<desc>不善法如實知─所離</desc>
			<v:textBlock v:margins="rect(0,0,0,0)" v:tabSpace="42.5197"/>
			<v:textRect cx="60.713" cy="39.133" width="121.43" height="10.8"/>
			<rect x="0" y="33.733" width="121.426" height="10.8" class="st1"/>
			<text x="0" y="42.25" class="st2" v:langID="1028"><v:paragraph/><v:tabList/>不善法（如實知）<tspan class="st3">─</tspan>所離</text>		</g>
		<g id="shape7-15" v:mID="7" v:groupContext="shape" transform="translate(231.331,-17.5517) rotate(0.1)">
			<title>工作表.7</title>
			<desc>此是新發意菩薩所學差別</desc>
			<v:textBlock v:margins="rect(0,0,0,0)" v:tabSpace="42.5197"/>
			<v:textRect cx="65.2458" cy="39.133" width="130.5" height="10.8"/>
			<rect x="0" y="33.733" width="130.492" height="10.8" class="st1"/>
			<text x="0" y="42.25" class="st2" v:langID="1028"><v:paragraph/><v:tabList/>此是新發意菩薩所學（差別）</text>		</g>
		<g id="shape8-18" v:mID="8" v:groupContext="shape" transform="translate(51.3022,-2.85187) rotate(0.1)">
			<title>工作表.8</title>
			<desc>無為法相</desc>
			<v:textBlock v:margins="rect(0,0,0,0)" v:tabSpace="42.5197"/>
			<v:textRect cx="26.4971" cy="39.133" width="53" height="10.8"/>
			<rect x="0" y="33.733" width="52.9942" height="10.8" class="st1"/>
			<text x="-0" y="42.25" class="st2" v:langID="1028"><v:paragraph/><v:tabList/>無為法相</text>		</g>
		<g id="shape9-21" v:mID="9" v:groupContext="shape" transform="translate(93.1361,-2.78118) rotate(0.1)">
			<title>工作表.9</title>
			<desc>─</desc>
			<v:textBlock v:margins="rect(0,0,0,0)" v:tabSpace="42.5197"/>
			<v:textRect cx="4.5" cy="39.133" width="9.01" height="10.8"/>
			<rect x="0" y="33.733" width="9" height="10.8" class="st1"/>
			<text x="0" y="42.13" class="st4" v:langID="1028"><v:paragraph/><v:tabList/>─</text>		</g>
		<g id="shape10-24" v:mID="10" v:groupContext="shape" transform="translate(104.302,-2.75762) rotate(0.1)">
			<title>工作表.10</title>
			<desc>諸法無性為自性─所依</desc>
			<v:textBlock v:margins="rect(0,0,0,0)" v:tabSpace="42.5197"/>
			<v:textRect cx="58.1742" cy="39.133" width="116.35" height="10.8"/>
			<rect x="0" y="33.733" width="116.348" height="10.8" class="st1"/>
			<text x="0" y="42.25" class="st2" v:langID="1028"><v:paragraph/><v:tabList/>諸法無性為自性<tspan class="st3">─</tspan>所依</text>		</g>
		<g id="shape11-28" v:mID="11" v:groupContext="shape" transform="translate(231.364,-1.3002) rotate(0.1)">
			<title>工作表.11</title>
			<desc>應無生忍菩薩則不愛行法、不憎捨法、不依涅槃無分別</desc>
			<v:textBlock v:margins="rect(0,0,0,0)" v:tabSpace="42.5197"/>
			<v:textRect cx="138.832" cy="39.133" width="277.67" height="10.8"/>
			<rect x="0" y="33.733" width="277.663" height="10.8" class="st1"/>
			<text x="-0" y="42.25" class="st2" v:langID="1028"><v:paragraph/><v:tabList/>應無生忍菩薩，則不愛行法、不憎捨法、不依涅槃（無分別）</text>		</g>
		<g id="shape18-31" v:mID="18" v:groupContext="shape" transform="translate(87.4951,10.3583) rotate(90.1)">
			<title>工作表.18</title>
			<path d="M0 38.86 C0 40.43 1.16 41.7 2.61 41.7 L12.99 41.7 C14.42 41.7 15.58 42.98 15.58 44.53 C15.58 42.98 16.73 41.7
						 18.19 41.7 L28.57 41.7 C30 41.7 31.15 40.43 31.15 38.86 L0 38.86 Z" class="st5"/>
			<path d="M0 38.86 C0 40.43 1.16 41.7 2.61 41.7 L12.99 41.7 C14.42 41.7 15.58 42.98 15.58 44.53 C15.58 42.98 16.73 41.7
						 18.19 41.7 L28.57 41.7 C30 41.7 31.15 40.43 31.15 38.86" class="st6"/>
		</g>
		<g id="shape19-34" v:mID="19" v:groupContext="shape" transform="translate(138.011,1.4105) rotate(90.1)">
			<title>工作表.19</title>
			<path d="M0 38.86 C0 40.43 0.99 41.7 2.23 41.7 L11.08 41.7 C12.29 41.7 13.28 42.98 13.28 44.53 C13.28 42.98 14.26 41.7
						 15.5 41.7 L24.35 41.7 C25.57 41.7 26.55 40.43 26.55 38.86 L0 38.86 Z" class="st5"/>
			<path d="M0 38.86 C0 40.43 0.99 41.7 2.23 41.7 L11.08 41.7 C12.29 41.7 13.28 42.98 13.28 44.53 C13.28 42.98 14.26 41.7
						 15.5 41.7 L24.35 41.7 C25.57 41.7 26.55 40.43 26.55 38.86" class="st6"/>
		</g>
		<g id="shape20-37" v:mID="20" v:groupContext="shape" transform="translate(213.612,-23.4388)">
			<title>工作表.20</title>
			<path d="M0 44.53 L15.91 44.53" class="st7"/>
		</g>
		<g id="shape21-40" v:mID="21" v:groupContext="shape" transform="translate(180.122,2.47563) rotate(-36.8699)">
			<title>工作表.21</title>
			<path d="M0 44.53 L28.35 44.53" class="st7"/>
		</g>
		<g id="shape22-43" v:mID="22" v:groupContext="shape" transform="translate(238.872,-26.8671) rotate(35.3427)">
			<title>工作表.22</title>
			<path d="M0 44.53 L20.11 44.53" class="st7"/>
		</g>
		<g id="shape23-46" v:mID="23" v:groupContext="shape" transform="translate(125.642,-19.62)">
			<title>工作表.23</title>
			<desc>*</desc>
			<v:textBlock v:margins="rect(4,4,4,4)" v:tabSpace="42.5197"/>
			<v:textRect cx="4.50942" cy="37.6902" width="9.02" height="13.6855"/>
			<rect x="0" y="30.8475" width="9.01884" height="13.6855" class="st8"/>
			<text x="4" y="40.39" class="st9" v:langID="1028"><v:paragraph v:horizAlign="1"/><v:tabList/>*</text>		</g>
	</g>
</svg>
