<?xml version="1.0" encoding="UTF-8" standalone="no"?>
<!DOCTYPE svg PUBLIC "-//W3C//DTD SVG 1.1//EN" "http://www.w3.org/Graphics/SVG/1.1/DTD/svg11.dtd">
<!-- 由 Microsoft Visio, SVG Export 產生 B02005.svg 頁-1 -->
<svg xmlns="http://www.w3.org/2000/svg" xmlns:xlink="http://www.w3.org/1999/xlink" xmlns:ev="http://www.w3.org/2001/xml-events"
		xmlns:v="http://schemas.microsoft.com/visio/2003/SVGExtensions/" width="3.67265in" height="0.807213in"
		viewBox="0 0 264.431 58.1194" xml:space="preserve" color-interpolation-filters="sRGB" class="st6">
	<v:documentProperties v:langID="1028" v:viewMarkup="false"/>

	<style type="text/css">
	<![CDATA[
		.st1 {fill:none;stroke:none;stroke-linecap:butt;stroke-width:0.75}
		.st2 {fill:#000000;font-family:新細明體;font-size:0.833336em}
		.st3 {fill:none}
		.st4 {stroke:#000000;stroke-linecap:round;stroke-linejoin:round;stroke-width:0.5625}
		.st5 {stroke:#000000;stroke-dasharray:0.5625,1.125;stroke-linecap:round;stroke-linejoin:round;stroke-width:0.5625}
		.st6 {fill:none;fill-rule:evenodd;font-size:12px;overflow:visible;stroke-linecap:square;stroke-miterlimit:3}
	]]>
	</style>

	<g v:mID="0" v:index="1" v:groupContext="foregroundPage">
		<title>頁-1</title>
		<v:pageProperties v:drawingScale="0.0393701" v:pageScale="0.0393701" v:drawingUnits="24" v:shadowOffsetX="9"
				v:shadowOffsetY="-9"/>
		<g id="shape2-1" v:mID="2" v:groupContext="shape" transform="translate(143.634,-32.819) rotate(0.1)">
			<title>工作表.2</title>
			<desc>生則想心生</desc>
			<v:textBlock v:margins="rect(0,0,0,0)" v:tabSpace="42.5197"/>
			<v:textRect cx="31.1096" cy="53.1214" width="62.22" height="9.99588"/>
			<rect x="0" y="48.1235" width="62.2191" height="9.99588" class="st1"/>
			<text x="0" y="56.24" class="st2" v:langID="1028"><v:paragraph/><v:tabList/>生則想心生</text>		</g>
		<g id="shape3-4" v:mID="3" v:groupContext="shape" transform="translate(41.6608,-46.4901) rotate(0.1)">
			<title>工作表.3</title>
			<desc>無常常倒</desc>
			<v:textBlock v:margins="rect(0,0,0,0)" v:tabSpace="42.5197"/>
			<v:textRect cx="24.3112" cy="52.7194" width="48.63" height="10.8"/>
			<rect x="0" y="47.3194" width="48.6225" height="10.8" class="st1"/>
			<text x="-0" y="55.83" class="st2" v:langID="1028"><v:paragraph/><v:tabList/>無常常倒</text>		</g>
		<g id="shape4-7" v:mID="4" v:groupContext="shape" transform="translate(41.632,-30.3804) rotate(0.1)">
			<title>工作表.4</title>
			<desc>苦樂倒</desc>
			<v:textBlock v:margins="rect(0,0,0,0)" v:tabSpace="42.5197"/>
			<v:textRect cx="21.7749" cy="52.7194" width="43.55" height="10.8"/>
			<rect x="0" y="47.3194" width="43.5498" height="10.8" class="st1"/>
			<text x="-0" y="55.83" class="st2" v:langID="1028"><v:paragraph/><v:tabList/>苦樂倒</text>		</g>
		<g id="shape5-10" v:mID="5" v:groupContext="shape" transform="translate(109.129,-38.8052) rotate(0.1)">
			<title>工作表.5</title>
			<desc>想倒</desc>
			<v:textBlock v:margins="rect(0,0,0,0)" v:tabSpace="42.5197"/>
			<v:textRect cx="19.4894" cy="53.1214" width="38.98" height="9.99588"/>
			<rect x="0" y="48.1235" width="38.9788" height="9.99588" class="st1"/>
			<text x="0" y="56.24" class="st2" v:langID="1028"><v:paragraph/><v:tabList/>想倒</text>		</g>
		<g id="shape6-13" v:mID="6" v:groupContext="shape" transform="translate(221.158,-34.8554) rotate(0.1)">
			<title>工作表.6</title>
			<desc>學人二倒</desc>
			<v:textBlock v:margins="rect(0,0,0,0)" v:tabSpace="42.5197"/>
			<v:textRect cx="21.3036" cy="53.1214" width="42.61" height="9.99588"/>
			<rect x="0" y="48.1235" width="42.6071" height="9.99588" class="st1"/>
			<text x="0" y="56.24" class="st2" v:langID="1028"><v:paragraph/><v:tabList/>學人二倒</text>		</g>
		<g id="shape7-16" v:mID="7" v:groupContext="shape" transform="translate(0.851437,-25.3148) rotate(0.1)">
			<title>工作表.7</title>
			<desc>四顛倒</desc>
			<v:textBlock v:margins="rect(0,0,0,0)" v:tabSpace="42.5197"/>
			<v:textRect cx="20.1945" cy="54.1786" width="40.39" height="7.88145"/>
			<rect x="0" y="50.2379" width="40.3889" height="7.88145" class="st1"/>
			<text x="0" y="57.29" class="st2" v:langID="1028"><v:paragraph/><v:tabList/>四顛倒</text>		</g>
		<g id="shape8-19" v:mID="8" v:groupContext="shape" transform="translate(109.103,-23.5608) rotate(0.1)">
			<title>工作表.8</title>
			<desc>心倒</desc>
			<v:textBlock v:margins="rect(0,0,0,0)" v:tabSpace="42.5197"/>
			<v:textRect cx="14.2598" cy="53.1214" width="28.52" height="9.99588"/>
			<rect x="0" y="48.1235" width="28.5197" height="9.99588" class="st1"/>
			<text x="0" y="56.24" class="st2" v:langID="1028"><v:paragraph/><v:tabList/>心倒</text>		</g>
		<g id="shape9-22" v:mID="9" v:groupContext="shape" transform="translate(41.5745,-15.6178) rotate(0.1)">
			<title>工作表.9</title>
			<desc>無我我倒</desc>
			<v:textBlock v:margins="rect(0,0,0,0)" v:tabSpace="42.5197"/>
			<v:textRect cx="24.0723" cy="52.7194" width="48.15" height="10.8"/>
			<rect x="0" y="47.3194" width="48.1446" height="10.8" class="st1"/>
			<text x="-0" y="55.83" class="st2" v:langID="1028"><v:paragraph/><v:tabList/>無我我倒</text>		</g>
		<g id="shape10-25" v:mID="10" v:groupContext="shape" transform="translate(109.075,-8.27578) rotate(0.1)">
			<title>工作表.10</title>
			<desc>見倒</desc>
			<v:textBlock v:margins="rect(0,0,0,0)" v:tabSpace="42.5197"/>
			<v:textRect cx="16.401" cy="53.1214" width="32.81" height="9.99588"/>
			<rect x="0" y="48.1235" width="32.802" height="9.99588" class="st1"/>
			<text x="0" y="56.24" class="st2" v:langID="1028"><v:paragraph/><v:tabList/>見倒</text>		</g>
		<g id="shape11-28" v:mID="11" v:groupContext="shape" transform="translate(221.105,-8.05587) rotate(0.1)">
			<title>工作表.11</title>
			<desc>凡夫三倒</desc>
			<v:textBlock v:margins="rect(0,0,0,0)" v:tabSpace="42.5197"/>
			<v:textRect cx="21.3301" cy="53.1214" width="42.67" height="9.99588"/>
			<rect x="0" y="48.1235" width="42.6602" height="9.99588" class="st1"/>
			<text x="0" y="56.24" class="st2" v:langID="1028"><v:paragraph/><v:tabList/>凡夫三倒</text>		</g>
		<g id="shape12-31" v:mID="12" v:groupContext="shape" transform="translate(41.5456,-0.925511) rotate(0.1)">
			<title>工作表.12</title>
			<desc>不淨淨倒</desc>
			<v:textBlock v:margins="rect(0,0,0,0)" v:tabSpace="42.5197"/>
			<v:textRect cx="28.9036" cy="52.7194" width="57.81" height="10.8"/>
			<rect x="0" y="47.3194" width="57.8071" height="10.8" class="st1"/>
			<text x="-0" y="55.83" class="st2" v:langID="1028"><v:paragraph/><v:tabList/>不淨淨倒</text>		</g>
		<g id="shape13-34" v:mID="13" v:groupContext="shape" transform="translate(143.708,-1.3185) rotate(0.1)">
			<title>工作表.13</title>
			<desc>滅則見心想</desc>
			<v:textBlock v:margins="rect(0,0,0,0)" v:tabSpace="42.5197"/>
			<v:textRect cx="34.1476" cy="53.1214" width="68.3" height="9.99588"/>
			<rect x="0" y="48.1235" width="68.2951" height="9.99588" class="st1"/>
			<text x="0" y="56.24" class="st2" v:langID="1028"><v:paragraph/><v:tabList/>滅則見心想</text>		</g>
		<g id="shape28-37" v:mID="28" v:groupContext="shape" transform="translate(91.5779,1.14021) rotate(90.1)">
			<title>工作表.28</title>
			<path d="M0 52.45 C0 54.02 2.07 55.28 4.6 55.28 L23.05 55.28 C25.62 55.28 27.68 56.55 27.68 58.12 C27.68 56.55 29.75
						 55.28 32.31 55.28 L50.77 55.28 C53.3 55.28 55.37 54.02 55.37 52.45 L0 52.45 Z" class="st3"/>
			<path d="M0 52.45 C0 54.02 2.07 55.28 4.6 55.28 L23.05 55.28 C25.62 55.28 27.68 56.55 27.68 58.12 C27.68 56.55 29.75
						 55.28 32.31 55.28 L50.77 55.28 C53.3 55.28 55.37 54.02 55.37 52.45" class="st4"/>
		</g>
		<g id="shape29-40" v:mID="29" v:groupContext="shape" transform="translate(158.834,9.01199) rotate(90.1)">
			<title>工作表.29</title>
			<path d="M0 52.45 C0 54.01 1.57 55.28 3.44 55.28 L17.14 55.28 C19.02 55.28 20.55 56.54 20.55 58.12 C20.55 56.54 22.08
						 55.28 24 55.28 L37.66 55.28 C39.57 55.28 41.1 54.01 41.1 52.45 L0 52.45 Z" class="st3"/>
			<path d="M0 52.45 C0 54.01 1.57 55.28 3.44 55.28 L17.14 55.28 C19.02 55.28 20.55 56.54 20.55 58.12 C20.55 56.54 22.08
						 55.28 24 55.28 L37.66 55.28 C39.57 55.28 41.1 54.01 41.1 52.45" class="st4"/>
		</g>
		<g id="shape30-43" v:mID="30" v:groupContext="shape" transform="translate(38.3141,14.2867) rotate(-51.3002)">
			<title>工作表.30</title>
			<path d="M0 58.12 L27.2 58.12" class="st5"/>
		</g>
		<g id="shape31-46" v:mID="31" v:groupContext="shape" transform="translate(62.922,-18.3797) rotate(-20.9549)">
			<title>工作表.31</title>
			<path d="M0 58.12 L18.17 58.12" class="st5"/>
		</g>
		<g id="shape32-49" v:mID="32" v:groupContext="shape" transform="translate(88.7916,-33.861) rotate(14.8042)">
			<title>工作表.32</title>
			<path d="M0 58.12 L27.66 58.12" class="st5"/>
		</g>
		<g id="shape33-52" v:mID="33" v:groupContext="shape" transform="translate(129.081,-28.1695) rotate(51.3803)">
			<title>工作表.33</title>
			<path d="M0 58.12 L27.25 58.12" class="st5"/>
		</g>
		<g id="shape34-55" v:mID="34" v:groupContext="shape" transform="translate(131.051,-44.6968)">
			<title>工作表.34</title>
			<path d="M0 58.12 L72.47 58.12" class="st4"/>
		</g>
		<g id="shape35-58" v:mID="35" v:groupContext="shape" transform="translate(131.096,-12.8882) rotate(0.0423063)">
			<title>工作表.35</title>
			<path d="M0 58.12 L72.63 58.12" class="st4"/>
		</g>
		<g id="shape36-61" v:mID="36" v:groupContext="shape" transform="translate(131.051,-29.2017)">
			<title>工作表.36</title>
			<path d="M0 58.12 L73.29 58.12" class="st4"/>
		</g>
		<g id="shape37-64" v:mID="37" v:groupContext="shape" transform="translate(171.455,-19.4072) rotate(-34.2518)">
			<title>工作表.37</title>
			<path d="M0 58.12 L17.71 58.12" class="st4"/>
		</g>
		<g id="shape38-67" v:mID="38" v:groupContext="shape" transform="translate(223.801,-41.2878) rotate(19.7178)">
			<title>工作表.38</title>
			<path d="M0 58.12 L15.53 58.12" class="st4"/>
		</g>
		<g id="shape39-70" v:mID="39" v:groupContext="shape" transform="translate(204.238,-12.8579) rotate(0.1)">
			<title>工作表.39</title>
			<path d="M0 58.12 L13.77 58.12" class="st4"/>
		</g>
		<g id="shape40-73" v:mID="40" v:groupContext="shape" transform="translate(248.012,-8.92687) rotate(49.4502)">
			<title>工作表.40</title>
			<path d="M0 58.12 L21.62 58.12" class="st4"/>
		</g>
		<g id="shape41-76" v:mID="41" v:groupContext="shape" transform="translate(257.594,-9.4312) rotate(66.7543)">
			<title>工作表.41</title>
			<path d="M0 58.12 L34.75 58.12" class="st4"/>
		</g>
	</g>
</svg>
