<?xml version="1.0" encoding="UTF-8" standalone="no"?>
<!DOCTYPE svg PUBLIC "-//W3C//DTD SVG 1.1//EN" "http://www.w3.org/Graphics/SVG/1.1/DTD/svg11.dtd">
<!-- 由 Microsoft Visio, SVG Export 產生 B02007.svg 頁-1 -->
<svg xmlns="http://www.w3.org/2000/svg" xmlns:xlink="http://www.w3.org/1999/xlink" xmlns:ev="http://www.w3.org/2001/xml-events"
		xmlns:v="http://schemas.microsoft.com/visio/2003/SVGExtensions/" width="3.79951in" height="0.578495in"
		viewBox="0 0 273.565 41.6516" xml:space="preserve" color-interpolation-filters="sRGB" class="st6">
	<v:documentProperties v:langID="1028" v:viewMarkup="false"/>

	<style type="text/css">
	<![CDATA[
		.st1 {fill:none;stroke:none;stroke-linecap:butt;stroke-width:0.75}
		.st2 {fill:#000000;font-family:新細明體;font-size:0.833336em}
		.st3 {fill:none}
		.st4 {stroke:#000000;stroke-linecap:round;stroke-linejoin:round;stroke-width:0.5625}
		.st5 {stroke:#000000;stroke-dasharray:0.5625,1.125;stroke-linecap:round;stroke-linejoin:round;stroke-width:0.5625}
		.st6 {fill:none;fill-rule:evenodd;font-size:12px;overflow:visible;stroke-linecap:square;stroke-miterlimit:3}
	]]>
	</style>

	<g v:mID="0" v:index="1" v:groupContext="foregroundPage">
		<title>頁-1</title>
		<v:pageProperties v:drawingScale="0.0393701" v:pageScale="0.0393701" v:drawingUnits="24" v:shadowOffsetX="9"
				v:shadowOffsetY="-9"/>
		<g id="shape2-1" v:mID="2" v:groupContext="shape" transform="translate(91.4317,-30.3172) rotate(0.1)">
			<title>工作表.2</title>
			<desc>新學菩薩</desc>
			<v:textBlock v:margins="rect(0,0,0,0)" v:tabSpace="42.5197"/>
			<v:textRect cx="22.6884" cy="37.0904" width="45.38" height="9.12235"/>
			<rect x="0" y="32.5293" width="45.3767" height="9.12235" class="st1"/>
			<text x="0" y="40.2" class="st2" v:langID="1028"><v:paragraph/><v:tabList/>新學菩薩</text>		</g>
		<g id="shape3-4" v:mID="3" v:groupContext="shape" transform="translate(228.942,-30.8612) rotate(0.1)">
			<title>工作表.3</title>
			<desc>不應為說</desc>
			<v:textBlock v:margins="rect(0,0,0,0)" v:tabSpace="42.5197"/>
			<v:textRect cx="21.9647" cy="37.0904" width="43.93" height="9.12235"/>
			<rect x="0" y="32.5293" width="43.9294" height="9.12235" class="st1"/>
			<text x="0" y="40.2" class="st2" v:langID="1028"><v:paragraph/><v:tabList/>不應為說</text>		</g>
		<g id="shape4-7" v:mID="4" v:groupContext="shape" transform="translate(0.822696,-19.8802) rotate(0.1)">
			<title>工作表.4</title>
			<desc>無相隨四應說不說</desc>
			<v:textBlock v:margins="rect(0,0,0,0)" v:tabSpace="42.5197"/>
			<v:textRect cx="46.7271" cy="38.0287" width="93.46" height="7.24582"/>
			<rect x="0" y="34.4058" width="93.4541" height="7.24582" class="st1"/>
			<text x="0" y="41.14" class="st2" v:langID="1028"><v:paragraph/><v:tabList/>無相隨四應說不說</text>		</g>
		<g id="shape5-10" v:mID="5" v:groupContext="shape" transform="translate(91.5128,-16.4086) rotate(0.1)">
			<title>工作表.5</title>
			<desc>不退菩薩</desc>
			<v:textBlock v:margins="rect(0,0,0,0)" v:tabSpace="42.5197"/>
			<v:textRect cx="25.5735" cy="37.0904" width="51.15" height="9.12235"/>
			<rect x="0" y="32.5293" width="51.147" height="9.12235" class="st1"/>
			<text x="0" y="40.2" class="st2" v:langID="1028"><v:paragraph/><v:tabList/>不退菩薩</text>		</g>
		<g id="shape6-13" v:mID="6" v:groupContext="shape" transform="translate(228.942,-8.3184) rotate(0.1)">
			<title>工作表.6</title>
			<desc>為說</desc>
			<v:textBlock v:margins="rect(0,0,0,0)" v:tabSpace="42.5197"/>
			<v:textRect cx="12.7522" cy="37.0904" width="25.51" height="9.12235"/>
			<rect x="0" y="32.5293" width="25.5045" height="9.12235" class="st1"/>
			<text x="-0" y="40.2" class="st2" v:langID="1028"><v:paragraph/><v:tabList/>為說</text>		</g>
		<g id="shape7-16" v:mID="7" v:groupContext="shape" transform="translate(91.4544,-1.87725) rotate(0.1)">
			<title>工作表.7</title>
			<desc>雖非不退夙漸三多現近善友</desc>
			<v:textBlock v:margins="rect(0,0,0,0)" v:tabSpace="42.5197"/>
			<v:textRect cx="68.1182" cy="37.0904" width="136.24" height="9.12235"/>
			<rect x="0" y="32.5293" width="136.236" height="9.12235" class="st1"/>
			<text x="0" y="40.2" class="st2" v:langID="1028"><v:paragraph/><v:tabList/>雖非不退夙漸三多現近善友</text>		</g>
		<g id="shape14-19" v:mID="14" v:groupContext="shape" transform="translate(124.554,0.863869) rotate(90.1)">
			<title>工作表.14</title>
			<path d="M0 35.98 C0 37.55 1.42 38.82 3.21 38.82 L14.55 38.82 C16.33 38.82 17.75 40.1 17.75 41.65 C17.75 40.1 19.2 38.82
						 20.96 38.82 L35.32 38.82 C37.11 38.82 38.56 37.55 38.56 35.98 L0 35.98 Z" class="st3"/>
			<path d="M0 35.98 C0 37.55 1.42 38.82 3.21 38.82 L14.55 38.82 C16.33 38.82 17.75 40.1 17.75 41.65 C17.75 40.1 19.2 38.82
						 20.96 38.82 L35.32 38.82 C37.11 38.82 38.56 37.55 38.56 35.98" class="st4"/>
		</g>
		<g id="shape15-22" v:mID="15" v:groupContext="shape" transform="translate(133.97,-34.2413) rotate(0.0844662)">
			<title>工作表.15</title>
			<path d="M0 41.65 L92.3 41.65" class="st5"/>
		</g>
		<g id="shape16-25" v:mID="16" v:groupContext="shape" transform="translate(134.148,-20.9758) rotate(0.0844662)">
			<title>工作表.16</title>
			<path d="M0 41.65 L79.37 41.65" class="st5"/>
		</g>
		<g id="shape17-28" v:mID="17" v:groupContext="shape" transform="translate(194.73,-3.0898) rotate(-26.2687)">
			<title>工作表.17</title>
			<path d="M0 41.65 L13.81 41.65" class="st5"/>
		</g>
		<g id="shape18-31" v:mID="18" v:groupContext="shape" transform="translate(235.106,-14.7911) rotate(31.3152)">
			<title>工作表.18</title>
			<path d="M0 41.65 L14.15 41.65" class="st5"/>
		</g>
	</g>
</svg>
