<?xml version="1.0" encoding="UTF-8" standalone="no"?>
<!DOCTYPE svg PUBLIC "-//W3C//DTD SVG 1.1//EN" "http://www.w3.org/Graphics/SVG/1.1/DTD/svg11.dtd">
<!-- 由 Microsoft Visio, SVG Export 產生 B02101.svg 頁-1 -->
<svg xmlns="http://www.w3.org/2000/svg" xmlns:xlink="http://www.w3.org/1999/xlink" xmlns:ev="http://www.w3.org/2001/xml-events"
		xmlns:v="http://schemas.microsoft.com/visio/2003/SVGExtensions/" width="4.33616in" height="0.373288in"
		viewBox="0 0 312.203 26.8768" xml:space="preserve" color-interpolation-filters="sRGB" class="st6">
	<v:documentProperties v:langID="1028" v:viewMarkup="false"/>

	<style type="text/css">
	<![CDATA[
		.st1 {fill:none;stroke:none;stroke-linecap:butt;stroke-width:0.75}
		.st2 {fill:#000000;font-family:新細明體;font-size:0.833336em}
		.st3 {font-family:Times New Roman;font-size:1em}
		.st4 {fill:none}
		.st5 {stroke:#000000;stroke-linecap:round;stroke-linejoin:round;stroke-width:0.5625}
		.st6 {fill:none;fill-rule:evenodd;font-size:12px;overflow:visible;stroke-linecap:square;stroke-miterlimit:3}
	]]>
	</style>

	<g v:mID="0" v:index="1" v:groupContext="foregroundPage">
		<title>頁-1</title>
		<v:pageProperties v:drawingScale="0.0393701" v:pageScale="0.0393701" v:drawingUnits="24" v:shadowOffsetX="9"
				v:shadowOffsetY="-9"/>
		<g id="shape3-1" v:mID="3" v:groupContext="shape" transform="translate(120.851,-15.2475) rotate(0.1)">
			<title>工作表.3</title>
			<desc>不應說……未習三多不近善友故</desc>
			<v:textBlock v:margins="rect(0,0,0,0)" v:tabSpace="42.5197"/>
			<v:textRect cx="77.1726" cy="21.4768" width="154.35" height="10.8"/>
			<rect x="0" y="16.0768" width="154.345" height="10.8" class="st1"/>
			<text x="0" y="24.59" class="st2" v:langID="1028"><v:paragraph/><v:tabList/>不應說<tspan class="st3">……</tspan>未習三多，不近善友故</text>		</g>
		<g id="shape4-5" v:mID="4" v:groupContext="shape" transform="translate(0.796909,-9.40147) rotate(0.1)">
			<title>工作表.4</title>
			<desc>無相隨四新學前應說不說</desc>
			<v:textBlock v:margins="rect(0,0,0,0)" v:tabSpace="42.5197"/>
			<v:textRect cx="55.3241" cy="22.2395" width="110.65" height="9.2745"/>
			<rect x="0" y="17.6023" width="110.648" height="9.2745" class="st1"/>
			<text x="-0" y="25.35" class="st2" v:langID="1028"><v:paragraph/><v:tabList/>無相隨四新學前應說不說</text>		</g>
		<g id="shape5-8" v:mID="5" v:groupContext="shape" transform="translate(120.794,-1.1606) rotate(0.1)">
			<title>工作表.5</title>
			<desc>應說………得利根善友二緣故不異久行</desc>
			<v:textBlock v:margins="rect(0,0,0,0)" v:tabSpace="42.5197"/>
			<v:textRect cx="95.3436" cy="21.4768" width="190.69" height="10.8"/>
			<rect x="0" y="16.0768" width="190.687" height="10.8" class="st1"/>
			<text x="0" y="24.59" class="st2" v:langID="1028"><v:paragraph/><v:tabList/>應說<tspan class="st3">………</tspan>得利根善友二緣故（不異久行）</text>		</g>
		<g id="shape12-12" v:mID="12" v:groupContext="shape" transform="translate(139.722,2.13958) rotate(90.1)">
			<title>工作表.12</title>
			<path d="M0 21.36 C0 22.9 0.85 24.12 1.93 24.12 L9.66 24.12 C10.7 24.12 11.59 25.37 11.59 26.88 C11.59 25.37 12.44 24.12
						 13.53 24.12 L21.25 24.12 C22.3 24.12 23.19 22.9 23.19 21.36 L0 21.36 Z" class="st4"/>
			<path d="M0 21.36 C0 22.9 0.85 24.12 1.93 24.12 L9.66 24.12 C10.7 24.12 11.59 25.37 11.59 26.88 C11.59 25.37 12.44 24.12
						 13.53 24.12 L21.25 24.12 C22.3 24.12 23.19 22.9 23.19 21.36" class="st5"/>
		</g>
	</g>
</svg>
