<?xml version="1.0" encoding="UTF-8" standalone="no"?>
<!DOCTYPE svg PUBLIC "-//W3C//DTD SVG 1.1//EN" "http://www.w3.org/Graphics/SVG/1.1/DTD/svg11.dtd">
<!-- 由 Microsoft Visio, SVG Export 產生 B02106.svg 頁-1 -->
<svg xmlns="http://www.w3.org/2000/svg" xmlns:xlink="http://www.w3.org/1999/xlink" xmlns:ev="http://www.w3.org/2001/xml-events"
		xmlns:v="http://schemas.microsoft.com/visio/2003/SVGExtensions/" width="4.75128in" height="0.587906in"
		viewBox="0 0 342.092 42.3292" xml:space="preserve" color-interpolation-filters="sRGB" class="st6">
	<v:documentProperties v:langID="1028" v:viewMarkup="false"/>

	<style type="text/css">
	<![CDATA[
		.st1 {fill:none;stroke:none;stroke-linecap:butt;stroke-width:0.75}
		.st2 {fill:#000000;font-family:新細明體;font-size:0.833336em}
		.st3 {fill:none}
		.st4 {stroke:#000000;stroke-linecap:round;stroke-linejoin:round;stroke-width:0.5625}
		.st5 {stroke:#000000;stroke-dasharray:0.5625,1.125;stroke-linecap:round;stroke-linejoin:round;stroke-width:0.5625}
		.st6 {fill:none;fill-rule:evenodd;font-size:12px;overflow:visible;stroke-linecap:square;stroke-miterlimit:3}
	]]>
	</style>

	<g v:mID="0" v:index="1" v:groupContext="foregroundPage">
		<title>頁-1</title>
		<v:pageProperties v:drawingScale="0.0393701" v:pageScale="0.0393701" v:drawingUnits="24" v:shadowOffsetX="9"
				v:shadowOffsetY="-9"/>
		<g id="shape2-1" v:mID="2" v:groupContext="shape" transform="translate(41.4204,-30.7) rotate(0.1)">
			<title>工作表.2</title>
			<desc>假名相</desc>
			<v:textBlock v:margins="rect(0,0,0,0)" v:tabSpace="42.5197"/>
			<v:textRect cx="19.0758" cy="36.9292" width="38.16" height="10.8"/>
			<rect x="0" y="31.5292" width="38.1515" height="10.8" class="st1"/>
			<text x="-0" y="40.04" class="st2" v:langID="1028"><v:paragraph/><v:tabList/>假名相</text>		</g>
		<g id="shape3-4" v:mID="3" v:groupContext="shape" transform="translate(91.08,-30.5743) rotate(0.1)">
			<title>工作表.3</title>
			<desc>如車如林</desc>
			<v:textBlock v:margins="rect(0,0,0,0)" v:tabSpace="42.5197"/>
			<v:textRect cx="24.1781" cy="36.9292" width="48.36" height="10.8"/>
			<rect x="0" y="31.5292" width="48.3561" height="10.8" class="st1"/>
			<text x="0" y="40.04" class="st2" v:langID="1028"><v:paragraph/><v:tabList/>如車如林</text>		</g>
		<g id="shape4-7" v:mID="4" v:groupContext="shape" transform="translate(0.823878,-16.0428) rotate(0.1)">
			<title>工作表.4</title>
			<desc>三種相</desc>
			<v:textBlock v:margins="rect(0,0,0,0)" v:tabSpace="42.5197"/>
			<v:textRect cx="22.4911" cy="36.9292" width="44.99" height="10.8"/>
			<rect x="0" y="31.5292" width="44.9823" height="10.8" class="st1"/>
			<text x="0" y="40.04" class="st2" v:langID="1028"><v:paragraph/><v:tabList/>三種相</text>		</g>
		<g id="shape5-10" v:mID="5" v:groupContext="shape" transform="translate(41.7358,-15.8068) rotate(0.1)">
			<title>工作表.5</title>
			<desc>法相</desc>
			<v:textBlock v:margins="rect(0,0,0,0)" v:tabSpace="42.5197"/>
			<v:textRect cx="16.9983" cy="36.9292" width="34" height="10.8"/>
			<rect x="0" y="31.5292" width="33.9966" height="10.8" class="st1"/>
			<text x="-0" y="40.04" class="st2" v:langID="1028"><v:paragraph/><v:tabList/>法相</text>		</g>
		<g id="shape6-13" v:mID="6" v:groupContext="shape" transform="translate(90.9094,-15.6811) rotate(0.1)">
			<title>工作表.6</title>
			<desc>如眾界入肉眼觀則有慧眼觀則無。</desc>
			<v:textBlock v:margins="rect(0,0,0,0)" v:tabSpace="42.5197"/>
			<v:textRect cx="90.9824" cy="36.9292" width="181.97" height="10.8"/>
			<rect x="0" y="31.5292" width="181.965" height="10.8" class="st1"/>
			<text x="0" y="40.04" class="st2" v:langID="1028"><v:paragraph/><v:tabList/>如眾界入，肉眼觀則有，慧眼觀則無。</text>		</g>
		<g id="shape7-16" v:mID="7" v:groupContext="shape" transform="translate(279.34,-15.2338) rotate(0.1)">
			<title>工作表.7</title>
			<desc>反此三種無相</desc>
			<v:textBlock v:margins="rect(0,0,0,0)" v:tabSpace="42.5197"/>
			<v:textRect cx="31.0286" cy="36.9292" width="62.06" height="10.8"/>
			<rect x="0" y="31.5292" width="62.0572" height="10.8" class="st1"/>
			<text x="0" y="40.04" class="st2" v:langID="1028"><v:paragraph/><v:tabList/>反此三種無相</text>		</g>
		<g id="shape8-19" v:mID="8" v:groupContext="shape" transform="translate(41.7056,-1.02444) rotate(0.1)">
			<title>工作表.8</title>
			<desc>無相相</desc>
			<v:textBlock v:margins="rect(0,0,0,0)" v:tabSpace="42.5197"/>
			<v:textRect cx="21.2658" cy="36.9292" width="42.54" height="10.8"/>
			<rect x="0" y="31.5292" width="42.5316" height="10.8" class="st1"/>
			<text x="0" y="40.04" class="st2" v:langID="1028"><v:paragraph/><v:tabList/>無相相</text>		</g>
		<g id="shape9-22" v:mID="9" v:groupContext="shape" transform="translate(90.8791,-0.898776) rotate(0.1)">
			<title>工作表.9</title>
			<desc>取無相相</desc>
			<v:textBlock v:margins="rect(0,0,0,0)" v:tabSpace="42.5197"/>
			<v:textRect cx="24.9508" cy="36.9292" width="49.91" height="10.8"/>
			<rect x="0" y="31.5292" width="49.9015" height="10.8" class="st1"/>
			<text x="0" y="40.04" class="st2" v:langID="1028"><v:paragraph/><v:tabList/>取無相相</text>		</g>
		<g id="shape16-25" v:mID="16" v:groupContext="shape" transform="translate(75.5094,1.18466) rotate(90.1)">
			<title>工作表.16</title>
			<path d="M0 36.66 C0 38.23 1.47 39.5 3.33 39.5 L16.55 39.5 C18.37 39.5 19.84 40.76 19.84 42.33 C19.84 40.76 21.32 39.5
						 23.17 39.5 L36.4 39.5 C38.21 39.5 39.68 38.23 39.68 36.66 L0 36.66 Z" class="st3"/>
			<path d="M0 36.66 C0 38.23 1.47 39.5 3.33 39.5 L16.55 39.5 C18.37 39.5 19.84 40.76 19.84 42.33 C19.84 40.76 21.32 39.5
						 23.17 39.5 L36.4 39.5 C38.21 39.5 39.68 38.23 39.68 36.66" class="st4"/>
		</g>
		<g id="shape17-28" v:mID="17" v:groupContext="shape" transform="translate(74.1448,-35.9107)">
			<title>工作表.17</title>
			<path d="M0 42.33 L14.38 42.33" class="st5"/>
		</g>
		<g id="shape18-31" v:mID="18" v:groupContext="shape" transform="translate(73.0347,-5.46969) rotate(0.1)">
			<title>工作表.18</title>
			<path d="M0 42.33 L16.88 42.33" class="st5"/>
		</g>
		<g id="shape19-34" v:mID="19" v:groupContext="shape" transform="translate(64.3291,-21.3938)">
			<title>工作表.19</title>
			<path d="M0 42.33 L24.03 42.33" class="st5"/>
		</g>
		<g id="shape20-37" v:mID="20" v:groupContext="shape" transform="translate(232.401,2.77988) rotate(-40.5013)">
			<title>工作表.20</title>
			<path d="M0 42.33 L20.74 42.33" class="st4"/>
		</g>
		<g id="shape21-40" v:mID="21" v:groupContext="shape" transform="translate(285.502,-24.4969) rotate(37.1523)">
			<title>工作表.21</title>
			<path d="M0 42.33 L19.79 42.33" class="st4"/>
		</g>
	</g>
</svg>
