<?xml version="1.0" encoding="UTF-8" standalone="no"?>
<!DOCTYPE svg PUBLIC "-//W3C//DTD SVG 1.1//EN" "http://www.w3.org/Graphics/SVG/1.1/DTD/svg11.dtd">
<!-- 由 Microsoft Visio, SVG Export 產生 B02203.svg 頁-1 -->
<svg xmlns="http://www.w3.org/2000/svg" xmlns:xlink="http://www.w3.org/1999/xlink" xmlns:ev="http://www.w3.org/2001/xml-events"
		xmlns:v="http://schemas.microsoft.com/visio/2003/SVGExtensions/" width="3.43405in" height="0.382584in"
		viewBox="0 0 247.252 27.5461" xml:space="preserve" color-interpolation-filters="sRGB" class="st5">
	<v:documentProperties v:langID="1028" v:viewMarkup="false"/>

	<style type="text/css">
	<![CDATA[
		.st1 {fill:none;stroke:none;stroke-linecap:butt;stroke-width:0.75}
		.st2 {fill:#000000;font-family:新細明體;font-size:0.833336em}
		.st3 {fill:none}
		.st4 {stroke:#000000;stroke-linecap:round;stroke-linejoin:round;stroke-width:0.5625}
		.st5 {fill:none;fill-rule:evenodd;font-size:12px;overflow:visible;stroke-linecap:square;stroke-miterlimit:3}
	]]>
	</style>

	<g v:mID="0" v:index="1" v:groupContext="foregroundPage">
		<title>頁-1</title>
		<v:pageProperties v:drawingScale="0.0393701" v:pageScale="0.0393701" v:drawingUnits="24" v:shadowOffsetX="9"
				v:shadowOffsetY="-9"/>
		<g id="shape2-1" v:mID="2" v:groupContext="shape" transform="translate(61.8478,-18.9018) rotate(0.1)">
			<title>工作表.2</title>
			<desc>一、分別是道非道捨非道行是道。</desc>
			<v:textBlock v:margins="rect(0,0,0,0)" v:tabSpace="42.5197"/>
			<v:textRect cx="81.6978" cy="25.1307" width="163.4" height="4.83064"/>
			<rect x="0" y="22.7154" width="163.396" height="4.83064" class="st1"/>
			<text x="0" y="28.25" class="st2" v:langID="1028"><v:paragraph/><v:tabList/>一、分別是道非道，捨非道行是道。</text>		</g>
		<g id="shape3-4" v:mID="3" v:groupContext="shape" transform="translate(0.798077,-11.0376) rotate(0.1)">
			<title>工作表.3</title>
			<desc>信般若二利</desc>
			<v:textBlock v:margins="rect(0,0,0,0)" v:tabSpace="42.5197"/>
			<v:textRect cx="30.7224" cy="25.1307" width="61.45" height="4.83064"/>
			<rect x="0" y="22.7154" width="61.4448" height="4.83064" class="st1"/>
			<text x="0" y="28.25" class="st2" v:langID="1028"><v:paragraph/><v:tabList/>信般若二利</text>		</g>
		<g id="shape4-7" v:mID="4" v:groupContext="shape" transform="translate(61.8214,-4.12806) rotate(0.1)">
			<title>工作表.4</title>
			<desc>二、法入般若中無是無非無破無受。</desc>
			<v:textBlock v:margins="rect(0,0,0,0)" v:tabSpace="42.5197"/>
			<v:textRect cx="92.3602" cy="25.1307" width="184.73" height="4.83064"/>
			<rect x="0" y="22.7154" width="184.72" height="4.83064" class="st1"/>
			<text x="0" y="28.25" class="st2" v:langID="1028"><v:paragraph/><v:tabList/>二、法入般若中，無是無非，無破無受。</text>		</g>
		<g id="shape11-10" v:mID="11" v:groupContext="shape" transform="translate(81.2815,3.66649) rotate(90.1)">
			<title>工作表.11</title>
			<path d="M0 21.87 C0 23.44 0.8 24.71 1.77 24.71 L8.82 24.71 C9.78 24.71 10.57 26 10.57 27.55 C10.57 26 11.37 24.71 12.34
						 24.71 L19.38 24.71 C20.35 24.71 21.13 23.44 21.13 21.87 L0 21.87 Z" class="st3"/>
			<path d="M0 21.87 C0 23.44 0.8 24.71 1.77 24.71 L8.82 24.71 C9.78 24.71 10.57 26 10.57 27.55 C10.57 26 11.37 24.71 12.34
						 24.71 L19.38 24.71 C20.35 24.71 21.13 23.44 21.13 21.87" class="st4"/>
		</g>
	</g>
</svg>
