<?xml version="1.0" encoding="UTF-8" standalone="no"?>
<!DOCTYPE svg PUBLIC "-//W3C//DTD SVG 1.1//EN" "http://www.w3.org/Graphics/SVG/1.1/DTD/svg11.dtd">
<!-- 由 Microsoft Visio, SVG Export 產生 B02202.svg 頁-1 -->
<svg xmlns="http://www.w3.org/2000/svg" xmlns:xlink="http://www.w3.org/1999/xlink" xmlns:ev="http://www.w3.org/2001/xml-events"
		xmlns:v="http://schemas.microsoft.com/visio/2003/SVGExtensions/" width="2.47477in" height="0.77897in"
		viewBox="0 0 178.184 56.0858" xml:space="preserve" color-interpolation-filters="sRGB" class="st5">
	<v:documentProperties v:langID="1028" v:viewMarkup="false"/>

	<style type="text/css">
	<![CDATA[
		.st1 {fill:none;stroke:none;stroke-linecap:butt;stroke-width:0.75}
		.st2 {fill:#000000;font-family:新細明體;font-size:0.833336em}
		.st3 {fill:none}
		.st4 {stroke:#000000;stroke-linecap:round;stroke-linejoin:round;stroke-width:0.5625}
		.st5 {fill:none;fill-rule:evenodd;font-size:12px;overflow:visible;stroke-linecap:square;stroke-miterlimit:3}
	]]>
	</style>

	<g v:mID="0" v:index="1" v:groupContext="foregroundPage">
		<title>頁-1</title>
		<v:pageProperties v:drawingScale="0.0393701" v:pageScale="0.0393701" v:drawingUnits="24" v:shadowOffsetX="9"
				v:shadowOffsetY="-9"/>
		<g id="shape2-1" v:mID="2" v:groupContext="shape" transform="translate(90.885,-46.358) rotate(0.1)">
			<title>工作表.2</title>
			<desc>久已發無上心</desc>
			<v:textBlock v:margins="rect(0,0,0,0)" v:tabSpace="42.5197"/>
			<v:textRect cx="32.6624" cy="52.5873" width="65.33" height="6.99706"/>
			<rect x="0" y="49.0888" width="65.3249" height="6.99706" class="st1"/>
			<text x="0" y="55.7" class="st2" v:langID="1028"><v:paragraph/><v:tabList/>久已發無上心</text>		</g>
		<g id="shape3-4" v:mID="3" v:groupContext="shape" transform="translate(90.8671,-31.908) rotate(0.1)">
			<title>工作表.3</title>
			<desc>供養無量數佛</desc>
			<v:textBlock v:margins="rect(0,0,0,0)" v:tabSpace="42.5197"/>
			<v:textRect cx="36.2215" cy="52.5873" width="72.45" height="6.99706"/>
			<rect x="0" y="49.0888" width="72.4429" height="6.99706" class="st1"/>
			<text x="0" y="55.7" class="st2" v:langID="1028"><v:paragraph/><v:tabList/>供養無量數佛</text>		</g>
		<g id="shape4-7" v:mID="4" v:groupContext="shape" transform="translate(0.847888,-24.5778) rotate(0.1)">
			<title>工作表.4</title>
			<desc>成就四緣能信般若</desc>
			<v:textBlock v:margins="rect(0,0,0,0)" v:tabSpace="42.5197"/>
			<v:textRect cx="40.9823" cy="52.5873" width="81.97" height="6.99706"/>
			<rect x="0" y="49.0888" width="81.9645" height="6.99706" class="st1"/>
			<text x="0" y="55.7" class="st2" v:langID="1028"><v:paragraph/><v:tabList/>成就四緣能信般若</text>		</g>
		<g id="shape5-10" v:mID="5" v:groupContext="shape" transform="translate(92.4798,-15.417) rotate(0.1)">
			<title>工作表.5</title>
			<desc>發心常行六度</desc>
			<v:textBlock v:margins="rect(0,0,0,0)" v:tabSpace="42.5197"/>
			<v:textRect cx="34.0109" cy="50.6858" width="68.03" height="10.8"/>
			<rect x="0" y="45.2858" width="68.0219" height="10.8" class="st1"/>
			<text x="0" y="53.8" class="st2" v:langID="1028"><v:paragraph/><v:tabList/>發心常行六度</text>		</g>
		<g id="shape6-13" v:mID="6" v:groupContext="shape" transform="translate(90.8101,-0.968568) rotate(0.1)">
			<title>工作表.6</title>
			<desc>無相無二無所得故</desc>
			<v:textBlock v:margins="rect(0,0,0,0)" v:tabSpace="42.5197"/>
			<v:textRect cx="43.3514" cy="50.6858" width="86.71" height="10.8"/>
			<rect x="0" y="45.2858" width="86.7027" height="10.8" class="st1"/>
			<text x="-0" y="53.8" class="st2" v:langID="1028"><v:paragraph/><v:tabList/>無相無二無所得故</text>		</g>
		<g id="shape21-16" v:mID="21" v:groupContext="shape" transform="translate(138.477,1.2938) rotate(90.1)">
			<title>工作表.21</title>
			<path d="M0 49.73 C0 51.49 2.02 52.91 4.47 52.91 L22.43 52.91 C24.91 52.91 26.93 54.35 26.93 56.09 C26.93 54.35 28.95
						 52.91 31.4 52.91 L49.35 52.91 C51.84 52.91 53.86 51.49 53.86 49.73 L0 49.73 Z" class="st3"/>
			<path d="M0 49.73 C0 51.49 2.02 52.91 4.47 52.91 L22.43 52.91 C24.91 52.91 26.93 54.35 26.93 56.09 C26.93 54.35 28.95
						 52.91 31.4 52.91 L49.35 52.91 C51.84 52.91 53.86 51.49 53.86 49.73" class="st4"/>
		</g>
	</g>
</svg>
