<?xml version="1.0" encoding="UTF-8" standalone="no"?>
<!DOCTYPE svg PUBLIC "-//W3C//DTD SVG 1.1//EN" "http://www.w3.org/Graphics/SVG/1.1/DTD/svg11.dtd">
<!-- 由 Microsoft Visio, SVG Export 產生 B02108.svg 頁-1 -->
<svg xmlns="http://www.w3.org/2000/svg" xmlns:xlink="http://www.w3.org/1999/xlink" xmlns:ev="http://www.w3.org/2001/xml-events"
		xmlns:v="http://schemas.microsoft.com/visio/2003/SVGExtensions/" width="2.96842in" height="0.400668in"
		viewBox="0 0 213.727 28.8481" xml:space="preserve" color-interpolation-filters="sRGB" class="st6">
	<v:documentProperties v:langID="1028" v:viewMarkup="false"/>

	<style type="text/css">
	<![CDATA[
		.st1 {fill:none;stroke:none;stroke-linecap:butt;stroke-width:0.75}
		.st2 {fill:#000000;font-family:新細明體;font-size:0.833336em}
		.st3 {fill:#000000;font-family:Times New Roman;font-size:0.833336em}
		.st4 {fill:none}
		.st5 {stroke:#000000;stroke-linecap:round;stroke-linejoin:round;stroke-width:0.5625}
		.st6 {fill:none;fill-rule:evenodd;font-size:12px;overflow:visible;stroke-linecap:square;stroke-miterlimit:3}
	]]>
	</style>

	<g v:mID="0" v:index="1" v:groupContext="foregroundPage">
		<title>頁-1</title>
		<v:pageProperties v:drawingScale="0.0393701" v:pageScale="0.0393701" v:drawingUnits="24" v:shadowOffsetX="9"
				v:shadowOffsetY="-9"/>
		<g id="shape2-1" v:mID="2" v:groupContext="shape" transform="translate(7.90203,-16.7707) rotate(0.1)">
			<title>工作表.2</title>
			<desc>憶想分別結使根本</desc>
			<v:textBlock v:margins="rect(0,0,0,0)" v:tabSpace="42.5197"/>
			<v:textRect cx="43.9713" cy="23.8697" width="87.95" height="9.9568"/>
			<rect x="0" y="18.8913" width="87.9427" height="9.9568" class="st1"/>
			<text x="0" y="26.98" class="st2" v:langID="1028"><v:paragraph/><v:tabList/>憶想分別結使根本</text>		</g>
		<g id="shape3-4" v:mID="3" v:groupContext="shape" transform="translate(89.1618,-17.8695) rotate(0.1)">
			<title>工作表.3</title>
			<desc>-----</desc>
			<v:textBlock v:margins="rect(0,0,0,0)" v:tabSpace="42.5197"/>
			<v:textRect cx="10.3598" cy="23.8697" width="20.72" height="9.9568"/>
			<rect x="0" y="18.8913" width="20.7196" height="9.9568" class="st1"/>
			<text x="0" y="26.87" class="st3" v:langID="1028"><v:paragraph/><v:tabList/>-----</text>		</g>
		<g id="shape4-7" v:mID="4" v:groupContext="shape" transform="translate(106.98,-16.6297) rotate(0.1)">
			<title>工作表.4</title>
			<desc>結使能取後身業</desc>
			<v:textBlock v:margins="rect(0,0,0,0)" v:tabSpace="42.5197"/>
			<v:textRect cx="36.6211" cy="23.8697" width="73.25" height="9.9568"/>
			<rect x="0" y="18.8913" width="73.2422" height="9.9568" class="st1"/>
			<text x="-0" y="26.98" class="st2" v:langID="1028"><v:paragraph/><v:tabList/>結使能取後身業</text>		</g>
		<g id="shape5-10" v:mID="5" v:groupContext="shape" transform="translate(7.87253,-1.5433) rotate(0.1)">
			<title>工作表.5</title>
			<desc>斷常諸見本</desc>
			<v:textBlock v:margins="rect(0,0,0,0)" v:tabSpace="42.5197"/>
			<v:textRect cx="33.2144" cy="23.8697" width="66.43" height="9.9568"/>
			<rect x="0" y="18.8913" width="66.4288" height="9.9568" class="st1"/>
			<text x="0" y="26.98" class="st2" v:langID="1028"><v:paragraph/><v:tabList/>斷常諸見本</text>		</g>
		<g id="shape6-13" v:mID="6" v:groupContext="shape" transform="translate(59.8646,-2.51416) rotate(0.1)">
			<title>工作表.6</title>
			<desc>----</desc>
			<v:textBlock v:margins="rect(0,0,0,0)" v:tabSpace="42.5197"/>
			<v:textRect cx="18" cy="23.8697" width="36" height="9.9568"/>
			<rect x="0" y="18.8913" width="36" height="9.9568" class="st1"/>
			<text x="0" y="26.87" class="st3" v:langID="1028"><v:paragraph/><v:tabList/>----</text>		</g>
		<g id="shape7-16" v:mID="7" v:groupContext="shape" transform="translate(74.1483,-1.45212) rotate(0.1)">
			<title>工作表.7</title>
			<desc>諸見結使本</desc>
			<v:textBlock v:margins="rect(0,0,0,0)"/>
			<v:textRect cx="32.7693" cy="23.8697" width="65.54" height="9.9568"/>
			<rect x="0" y="18.8913" width="65.5386" height="9.9568" class="st1"/>
			<text x="0" y="26.98" class="st2" v:langID="1028"><v:paragraph/><v:tabList/>諸見結使本</text>		</g>
		<g id="shape8-19" v:mID="8" v:groupContext="shape" transform="translate(125.528,-2.59732) rotate(0.1)">
			<title>工作表.8</title>
			<desc>-----</desc>
			<v:textBlock v:margins="rect(0,0,0,0)" v:tabSpace="42.5197"/>
			<v:textRect cx="22.5" cy="23.8697" width="45" height="9.9568"/>
			<rect x="0" y="18.8913" width="45" height="9.9568" class="st1"/>
			<text x="0" y="26.87" class="st3" v:langID="1028"><v:paragraph/><v:tabList/>-----</text>		</g>
		<g id="shape9-22" v:mID="9" v:groupContext="shape" transform="translate(142.825,-1.3553) rotate(0.1)">
			<title>工作表.9</title>
			<desc>結使生死苦本</desc>
			<v:textBlock v:margins="rect(0,0,0,0)" v:tabSpace="42.5197"/>
			<v:textRect cx="35.0923" cy="23.8697" width="70.19" height="9.9568"/>
			<rect x="0" y="18.8913" width="70.1845" height="9.9568" class="st1"/>
			<text x="-0" y="26.98" class="st2" v:langID="1028"><v:paragraph/><v:tabList/>結使生死苦本</text>		</g>
		<g id="shape16-25" v:mID="16" v:groupContext="shape" transform="translate(29.1512,2.33197) rotate(90.1)">
			<title>工作表.16</title>
			<path d="M0 23.18 C0 24.77 0.89 26.01 2.06 26.01 L10.43 26.01 C11.6 26.01 12.54 27.3 12.54 28.85 C12.54 27.3 13.44 26.01
						 14.61 26.01 L22.97 26.01 C24.14 26.01 25.09 24.77 25.09 23.18 L0 23.18 Z" class="st4"/>
			<path d="M0 23.18 C0 24.77 0.89 26.01 2.06 26.01 L10.43 26.01 C11.6 26.01 12.54 27.3 12.54 28.85 C12.54 27.3 13.44 26.01
						 14.61 26.01 L22.97 26.01 C24.14 26.01 25.09 24.77 25.09 23.18" class="st5"/>
		</g>
	</g>
</svg>
