<?xml version="1.0" encoding="UTF-8" standalone="no"?>
<!DOCTYPE svg PUBLIC "-//W3C//DTD SVG 1.1//EN" "http://www.w3.org/Graphics/SVG/1.1/DTD/svg11.dtd">
<!-- 由 Microsoft Visio, SVG Export 產生 B02207.svg 頁-1 -->
<svg xmlns="http://www.w3.org/2000/svg" xmlns:xlink="http://www.w3.org/1999/xlink" xmlns:ev="http://www.w3.org/2001/xml-events"
		xmlns:v="http://schemas.microsoft.com/visio/2003/SVGExtensions/" width="3.81624in" height="0.38557in"
		viewBox="0 0 274.769 27.7611" xml:space="preserve" color-interpolation-filters="sRGB" class="st7">
	<v:documentProperties v:langID="1028" v:viewMarkup="false"/>

	<style type="text/css">
	<![CDATA[
		.st1 {fill:none;stroke:none;stroke-linecap:butt;stroke-width:0.75}
		.st2 {fill:#000000;font-family:新細明體;font-size:0.833336em}
		.st3 {font-family:Times New Roman;font-size:1em}
		.st4 {stroke:#000000;stroke-linecap:round;stroke-linejoin:round;stroke-width:0.5625}
		.st5 {fill:none}
		.st6 {stroke:#000000;stroke-dasharray:0.5625,1.125;stroke-linecap:round;stroke-linejoin:round;stroke-width:0.5625}
		.st7 {fill:none;fill-rule:evenodd;font-size:12px;overflow:visible;stroke-linecap:square;stroke-miterlimit:3}
	]]>
	</style>

	<g v:mID="0" v:index="1" v:groupContext="foregroundPage">
		<title>頁-1</title>
		<v:pageProperties v:drawingScale="0.0393701" v:pageScale="0.0393701" v:drawingUnits="24" v:shadowOffsetX="9"
				v:shadowOffsetY="-9"/>
		<g id="shape2-1" v:mID="2" v:groupContext="shape" transform="translate(42.121,-19.0484) rotate(0.1)">
			<title>工作表.2</title>
			<desc>得解觀─不淨</desc>
			<v:textBlock v:margins="rect(0,0,0,0)" v:tabSpace="42.5197"/>
			<v:textRect cx="32.0621" cy="25.2777" width="64.13" height="4.96681"/>
			<rect x="0" y="22.7943" width="64.1242" height="4.96681" class="st1"/>
			<text x="0" y="28.39" class="st2" v:langID="1028"><v:paragraph/><v:tabList/>得解觀<tspan class="st3">─</tspan>不淨</text>		</g>
		<g id="shape3-5" v:mID="3" v:groupContext="shape" transform="translate(0.798452,-11.5006) rotate(0.1)">
			<title>工作表.3</title>
			<desc>二種觀</desc>
			<v:textBlock v:margins="rect(0,0,0,0)" v:tabSpace="42.5197"/>
			<v:textRect cx="21.5533" cy="25.2777" width="43.11" height="4.96681"/>
			<rect x="0" y="22.7943" width="43.1065" height="4.96681" class="st1"/>
			<text x="0" y="28.39" class="st2" v:langID="1028"><v:paragraph/><v:tabList/>二種觀</text>		</g>
		<g id="shape4-8" v:mID="4" v:groupContext="shape" transform="translate(159.093,-11.8406) rotate(0.1)">
			<title>工作表.4</title>
			<desc>般若中不觀四正四倒空實</desc>
			<v:textBlock v:margins="rect(0,0,0,0)" v:tabSpace="42.5197"/>
			<v:textRect cx="57.4832" cy="25.2777" width="114.97" height="4.96681"/>
			<rect x="0" y="22.7943" width="114.966" height="4.96681" class="st1"/>
			<text x="0" y="28.39" class="st2" v:langID="1028"><v:paragraph/><v:tabList/>般若中不觀四正四倒空實</text>		</g>
		<g id="shape5-11" v:mID="5" v:groupContext="shape" transform="translate(41.1905,-3.86576) rotate(0.1)">
			<title>工作表.5</title>
			<desc>實觀</desc>
			<v:textBlock v:margins="rect(0,0,0,0)" v:tabSpace="42.5197"/>
			<v:textRect cx="17.8469" cy="25.2777" width="35.7" height="4.96681"/>
			<rect x="0" y="22.7943" width="35.6937" height="4.96681" class="st1"/>
			<text x="-0" y="28.39" class="st2" v:langID="1028"><v:paragraph/><v:tabList/>實觀</text>		</g>
		<g id="shape6-14" v:mID="6" v:groupContext="shape" transform="translate(77.1905,-3.85029) rotate(0.1)">
			<title>工作表.6</title>
			<desc>無常苦空無我</desc>
			<v:textBlock v:margins="rect(0,0,0,0)" v:tabSpace="42.5197"/>
			<v:textRect cx="32.0909" cy="25.2777" width="64.19" height="4.96681"/>
			<rect x="0" y="22.7943" width="64.1818" height="4.96681" class="st1"/>
			<text x="0" y="28.39" class="st2" v:langID="1028"><v:paragraph/><v:tabList/>無常苦空無我</text>		</g>
		<g id="shape13-17" v:mID="13" v:groupContext="shape" transform="translate(75.0948,49.2582) rotate(179.871)">
			<title>工作表.13</title>
			<path d="M0 27.76 L13.59 27.76" class="st4"/>
		</g>
		<g id="shape14-20" v:mID="14" v:groupContext="shape" transform="translate(60.8484,1.20295) rotate(90.1)">
			<title>工作表.14</title>
			<path d="M0 22.09 C0 23.66 0.96 24.93 2.13 24.93 L10.63 24.93 C11.82 24.93 12.76 26.19 12.76 27.76 C12.76 26.19 13.72
						 24.93 14.88 24.93 L23.39 24.93 C24.58 24.93 25.51 23.66 25.51 22.09 L0 22.09 Z" class="st5"/>
			<path d="M0 22.09 C0 23.66 0.96 24.93 2.13 24.93 L10.63 24.93 C11.82 24.93 12.76 26.19 12.76 27.76 C12.76 26.19 13.72
						 24.93 14.88 24.93 L23.39 24.93 C24.58 24.93 25.51 23.66 25.51 22.09" class="st4"/>
		</g>
		<g id="shape15-23" v:mID="15" v:groupContext="shape" transform="translate(127.508,-4.93883) rotate(-22.0929)">
			<title>工作表.15</title>
			<path d="M0 27.76 L19.15 27.76" class="st6"/>
		</g>
		<g id="shape16-26" v:mID="16" v:groupContext="shape" transform="translate(113.364,-20.5068) rotate(8.12611)">
			<title>工作表.16</title>
			<path d="M0 27.76 L46.73 27.76" class="st6"/>
		</g>
	</g>
</svg>
