<?xml version="1.0" encoding="UTF-8" standalone="no"?>
<!DOCTYPE svg PUBLIC "-//W3C//DTD SVG 1.1//EN" "http://www.w3.org/Graphics/SVG/1.1/DTD/svg11.dtd">
<!-- 由 Microsoft Visio, SVG Export 產生 B02208.svg 頁-1 -->
<svg xmlns="http://www.w3.org/2000/svg" xmlns:xlink="http://www.w3.org/1999/xlink" xmlns:ev="http://www.w3.org/2001/xml-events"
		xmlns:v="http://schemas.microsoft.com/visio/2003/SVGExtensions/" width="4.99668in" height="0.858981in"
		viewBox="0 0 359.761 61.8467" xml:space="preserve" color-interpolation-filters="sRGB" class="st7">
	<v:documentProperties v:langID="1028" v:viewMarkup="false"/>

	<style type="text/css">
	<![CDATA[
		.st1 {fill:none;stroke:none;stroke-linecap:butt;stroke-width:0.75}
		.st2 {fill:#000000;font-family:新細明體;font-size:0.833336em}
		.st3 {font-family:Times New Roman;font-size:1em}
		.st4 {fill:none}
		.st5 {stroke:#000000;stroke-linecap:round;stroke-linejoin:round;stroke-width:0.5625}
		.st6 {stroke:#000000;stroke-dasharray:0.5625,1.125;stroke-linecap:round;stroke-linejoin:round;stroke-width:0.5625}
		.st7 {fill:none;fill-rule:evenodd;font-size:12px;overflow:visible;stroke-linecap:square;stroke-miterlimit:3}
	]]>
	</style>

	<g v:mID="0" v:index="1" v:groupContext="foregroundPage">
		<title>頁-1</title>
		<v:pageProperties v:drawingScale="0.0393701" v:pageScale="0.0393701" v:drawingUnits="24" v:shadowOffsetX="9"
				v:shadowOffsetY="-9"/>
		<g id="shape2-1" v:mID="2" v:groupContext="shape" transform="translate(63.9015,-51.5268) rotate(0.1)">
			<title>工作表.2</title>
			<desc>謗言非是佛說</desc>
			<v:textBlock v:margins="rect(0,0,0,0)" v:tabSpace="42.5197"/>
			<v:textRect cx="43.4144" cy="57.7559" width="86.83" height="8.18157"/>
			<rect x="0" y="53.6651" width="86.8288" height="8.18157" class="st1"/>
			<text x="0" y="60.87" class="st2" v:langID="1028"><v:paragraph/><v:tabList/>謗言非是佛說</text>		</g>
		<g id="shape3-4" v:mID="3" v:groupContext="shape" transform="translate(193.726,-43.0962) rotate(0.1)">
			<title>工作表.3</title>
			<desc>墮大地獄</desc>
			<v:textBlock v:margins="rect(0,0,0,0)" v:tabSpace="42.5197"/>
			<v:textRect cx="32.7433" cy="57.7559" width="65.49" height="8.18157"/>
			<rect x="0" y="53.6651" width="65.4866" height="8.18157" class="st1"/>
			<text x="-0" y="60.87" class="st2" v:langID="1028"><v:paragraph/><v:tabList/>墮大地獄</text>		</g>
		<g id="shape4-7" v:mID="4" v:groupContext="shape" transform="translate(0.857943,-26.6487) rotate(0.1)">
			<title>工作表.4</title>
			<desc>破般若人─</desc>
			<v:textBlock v:margins="rect(0,0,0,0)" v:tabSpace="42.5197"/>
			<v:textRect cx="30.2936" cy="57.7559" width="60.59" height="8.18157"/>
			<rect x="0" y="53.6651" width="60.5871" height="8.18157" class="st1"/>
			<text x="0" y="60.87" class="st2" v:langID="1028"><v:paragraph/><v:tabList/>破般若人<tspan class="st3">─</tspan></text>		</g>
		<g id="shape5-11" v:mID="5" v:groupContext="shape" transform="translate(63.9537,-34.2522) rotate(0.1)">
			<title>工作表.5</title>
			<desc>或言雖是佛說多人增益</desc>
			<v:textBlock v:margins="rect(0,0,0,0)" v:tabSpace="42.5197"/>
			<v:textRect cx="56.59" cy="56.4467" width="113.18" height="10.8"/>
			<rect x="0" y="51.0467" width="113.18" height="10.8" class="st1"/>
			<text x="0" y="59.56" class="st2" v:langID="1028"><v:paragraph/><v:tabList/>或言雖是佛說，多人增益</text>		</g>
		<g id="shape6-14" v:mID="6" v:groupContext="shape" transform="translate(63.8426,-17.8137) rotate(0.1)">
			<title>工作表.6</title>
			<desc>或人取相口說空法心行有中</desc>
			<v:textBlock v:margins="rect(0,0,0,0)" v:tabSpace="42.5197"/>
			<v:textRect cx="71.8009" cy="56.4467" width="143.61" height="10.8"/>
			<rect x="0" y="51.0467" width="143.602" height="10.8" class="st1"/>
			<text x="-0" y="59.56" class="st2" v:langID="1028"><v:paragraph/><v:tabList/>或人取相口說空法，心行有中</text>		</g>
		<g id="shape7-17" v:mID="7" v:groupContext="shape" transform="translate(239.342,-17.5074) rotate(0.1)">
			<title>工作表.7</title>
			<desc>此人善心不名破</desc>
			<v:textBlock v:margins="rect(0,0,0,0)" v:tabSpace="42.5197"/>
			<v:textRect cx="54.9177" cy="56.4467" width="109.84" height="10.8"/>
			<rect x="0" y="51.0467" width="109.835" height="10.8" class="st1"/>
			<text x="-0" y="59.56" class="st2" v:langID="1028"><v:paragraph/><v:tabList/>此人善心（不名破）</text>		</g>
		<g id="shape8-20" v:mID="8" v:groupContext="shape" transform="translate(63.8145,-1.34381) rotate(0.1)">
			<title>工作表.8</title>
			<desc>或人憶想分別應有妙法不應都空</desc>
			<v:textBlock v:margins="rect(0,0,0,0)" v:tabSpace="42.5197"/>
			<v:textRect cx="85.9881" cy="56.4467" width="171.98" height="10.8"/>
			<rect x="0" y="51.0467" width="171.976" height="10.8" class="st1"/>
			<text x="-0" y="59.56" class="st2" v:langID="1028"><v:paragraph/><v:tabList/>或人憶想分別，應有妙法，不應都空</text>		</g>
		<g id="shape9-23" v:mID="9" v:groupContext="shape" transform="translate(239.314,-1.03675) rotate(0.1)">
			<title>工作表.9</title>
			<desc>此人信佛</desc>
			<v:textBlock v:margins="rect(0,0,0,0)" v:tabSpace="42.5197"/>
			<v:textRect cx="26.5845" cy="56.4467" width="53.17" height="10.8"/>
			<rect x="0" y="51.0467" width="53.1691" height="10.8" class="st1"/>
			<text x="0" y="59.56" class="st2" v:langID="1028"><v:paragraph/><v:tabList/>此人信佛</text>		</g>
		<g id="shape10-26" v:mID="10" v:groupContext="shape" transform="translate(287.274,-0.951106) rotate(0.1)">
			<title>工作表.10</title>
			<desc>應是破耶</desc>
			<v:textBlock v:margins="rect(0,0,0,0)" v:tabSpace="42.5197"/>
			<v:textRect cx="35.9131" cy="56.4467" width="71.83" height="10.8"/>
			<rect x="0" y="51.0467" width="71.8262" height="10.8" class="st1"/>
			<text x="0" y="59.56" class="st2" v:langID="1028"><v:paragraph/><v:tabList/>（應是破耶？）</text>		</g>
		<g id="shape19-29" v:mID="19" v:groupContext="shape" transform="translate(116.436,3.49117) rotate(90.1)">
			<title>工作表.19</title>
			<path d="M0 54.07 C0 56.22 2.11 57.96 4.7 57.96 L23.45 57.96 C26.04 57.96 28.12 59.7 28.12 61.85 C28.12 59.7 30.24 57.96
						 32.83 57.96 L51.58 57.96 C54.17 57.96 56.25 56.22 56.25 54.07 L0 54.07 Z" class="st4"/>
			<path d="M0 54.07 C0 56.22 2.11 57.96 4.7 57.96 L23.45 57.96 C26.04 57.96 28.12 59.7 28.12 61.85 C28.12 59.7 30.24 57.96
						 32.83 57.96 L51.58 57.96 C54.17 57.96 56.25 56.22 56.25 54.07" class="st5"/>
		</g>
		<g id="shape20-32" v:mID="20" v:groupContext="shape" transform="translate(227.189,-5.67896)">
			<title>工作表.20</title>
			<path d="M0 61.85 L8.5 61.85" class="st6"/>
		</g>
		<g id="shape21-35" v:mID="21" v:groupContext="shape" transform="translate(281.047,-6.32857)">
			<title>工作表.21</title>
			<path d="M0 61.85 L7.67 61.85" class="st6"/>
		</g>
		<g id="shape22-38" v:mID="22" v:groupContext="shape" transform="translate(196.008,-23.0052)">
			<title>工作表.22</title>
			<path d="M0 61.85 L39.69 61.85" class="st6"/>
		</g>
		<g id="shape23-41" v:mID="23" v:groupContext="shape" transform="translate(150.033,-34.0319) rotate(-25.8877)">
			<title>工作表.23</title>
			<path d="M0 61.85 L14.79 61.85" class="st6"/>
		</g>
		<g id="shape24-44" v:mID="24" v:groupContext="shape" transform="translate(132.924,-54.3819) rotate(7.15093)">
			<title>工作表.24</title>
			<path d="M0 61.85 L65.62 61.85" class="st6"/>
		</g>
	</g>
</svg>
