<?xml version="1.0" encoding="UTF-8" standalone="no"?>
<!DOCTYPE svg PUBLIC "-//W3C//DTD SVG 1.1//EN" "http://www.w3.org/Graphics/SVG/1.1/DTD/svg11.dtd">
<!-- 由 Microsoft Visio, SVG Export 產生 B02303.svg 頁-1 -->
<svg xmlns="http://www.w3.org/2000/svg" xmlns:xlink="http://www.w3.org/1999/xlink" xmlns:ev="http://www.w3.org/2001/xml-events"
		xmlns:v="http://schemas.microsoft.com/visio/2003/SVGExtensions/" width="2.27091in" height="0.391922in"
		viewBox="0 0 163.505 28.2184" xml:space="preserve" color-interpolation-filters="sRGB" class="st5">
	<v:documentProperties v:langID="1028" v:viewMarkup="false"/>

	<style type="text/css">
	<![CDATA[
		.st1 {fill:none;stroke:none;stroke-linecap:butt;stroke-width:0.75}
		.st2 {fill:#000000;font-family:新細明體;font-size:0.833336em}
		.st3 {fill:none}
		.st4 {stroke:#000000;stroke-linecap:round;stroke-linejoin:round;stroke-width:0.5625}
		.st5 {fill:none;fill-rule:evenodd;font-size:12px;overflow:visible;stroke-linecap:square;stroke-miterlimit:3}
	]]>
	</style>

	<g v:mID="0" v:index="1" v:groupContext="foregroundPage">
		<title>頁-1</title>
		<v:pageProperties v:drawingScale="0.0393701" v:pageScale="0.0393701" v:drawingUnits="24" v:shadowOffsetX="9"
				v:shadowOffsetY="-9"/>
		<g id="shape2-1" v:mID="2" v:groupContext="shape" transform="translate(30.8638,-19.5771) rotate(0.1)">
			<title>工作表.2</title>
			<desc>小菩薩以凡法為虛聖法為實</desc>
			<v:textBlock v:margins="rect(0,0,0,0)" v:tabSpace="42.5197"/>
			<v:textRect cx="65.9662" cy="25.8062" width="131.94" height="4.82433"/>
			<rect x="0" y="23.394" width="131.932" height="4.82433" class="st1"/>
			<text x="0" y="28.92" class="st2" v:langID="1028"><v:paragraph/><v:tabList/>小菩薩以凡法為虛，聖法為實</text>		</g>
		<g id="shape3-4" v:mID="3" v:groupContext="shape" transform="translate(0.79925,-12.1446) rotate(0.1)">
			<title>工作表.3</title>
			<desc>虛實</desc>
			<v:textBlock v:margins="rect(0,0,0,0)" v:tabSpace="42.5197"/>
			<v:textRect cx="16.3617" cy="25.8062" width="32.73" height="4.82433"/>
			<rect x="0" y="23.394" width="32.7234" height="4.82433" class="st1"/>
			<text x="0" y="28.92" class="st2" v:langID="1028"><v:paragraph/><v:tabList/>虛實</text>		</g>
		<g id="shape4-7" v:mID="4" v:groupContext="shape" transform="translate(30.8381,-4.0089) rotate(0.1)">
			<title>工作表.4</title>
			<desc>般若畢竟空中凡聖皆虛</desc>
			<v:textBlock v:margins="rect(0,0,0,0)" v:tabSpace="42.5197"/>
			<v:textRect cx="60.1696" cy="25.8062" width="120.34" height="4.82433"/>
			<rect x="0" y="23.394" width="120.339" height="4.82433" class="st1"/>
			<text x="0" y="28.92" class="st2" v:langID="1028"><v:paragraph/><v:tabList/>般若畢竟空中，凡聖皆虛</text>		</g>
		<g id="shape11-10" v:mID="11" v:groupContext="shape" transform="translate(51.0035,0.952882) rotate(90.1)">
			<title>工作表.11</title>
			<path d="M0 22.55 C0 24.12 0.97 25.38 2.14 25.38 L10.64 25.38 C11.81 25.38 12.76 26.67 12.76 28.22 C12.76 26.67 13.73
						 25.38 14.89 25.38 L23.4 25.38 C24.56 25.38 25.51 24.12 25.51 22.55 L0 22.55 Z" class="st3"/>
			<path d="M0 22.55 C0 24.12 0.97 25.38 2.14 25.38 L10.64 25.38 C11.81 25.38 12.76 26.67 12.76 28.22 C12.76 26.67 13.73
						 25.38 14.89 25.38 L23.4 25.38 C24.56 25.38 25.51 24.12 25.51 22.55" class="st4"/>
		</g>
	</g>
</svg>
