<?xml version="1.0" encoding="UTF-8" standalone="no"?>
<!DOCTYPE svg PUBLIC "-//W3C//DTD SVG 1.1//EN" "http://www.w3.org/Graphics/SVG/1.1/DTD/svg11.dtd">
<!-- 由 Microsoft Visio, SVG Export 產生 B02304.svg 頁-1 -->
<svg xmlns="http://www.w3.org/2000/svg" xmlns:xlink="http://www.w3.org/1999/xlink" xmlns:ev="http://www.w3.org/2001/xml-events"
		xmlns:v="http://schemas.microsoft.com/visio/2003/SVGExtensions/" width="2.1329in" height="0.615769in"
		viewBox="0 0 153.569 44.3354" xml:space="preserve" color-interpolation-filters="sRGB" class="st5">
	<v:documentProperties v:langID="1028" v:viewMarkup="false"/>

	<style type="text/css">
	<![CDATA[
		.st1 {fill:none;stroke:none;stroke-linecap:butt;stroke-width:0.75}
		.st2 {fill:#000000;font-family:新細明體;font-size:0.833336em}
		.st3 {fill:none}
		.st4 {stroke:#000000;stroke-linecap:round;stroke-linejoin:round;stroke-width:0.5625}
		.st5 {fill:none;fill-rule:evenodd;font-size:12px;overflow:visible;stroke-linecap:square;stroke-miterlimit:3}
	]]>
	</style>

	<g v:mID="0" v:index="1" v:groupContext="foregroundPage">
		<title>頁-1</title>
		<v:pageProperties v:drawingScale="0.0393701" v:pageScale="0.0393701" v:drawingUnits="24" v:shadowOffsetX="9"
				v:shadowOffsetY="-9"/>
		<g id="shape2-1" v:mID="2" v:groupContext="shape" transform="translate(100.521,-32.9017) rotate(0.1)">
			<title>工作表.2</title>
			<desc>能斷婬欲</desc>
			<v:textBlock v:margins="rect(0,0,0,0)" v:tabSpace="42.5197"/>
			<v:textRect cx="23.9322" cy="39.131" width="47.87" height="10.4088"/>
			<rect x="0" y="33.9265" width="47.8644" height="10.4088" class="st1"/>
			<text x="0" y="42.25" class="st2" v:langID="1028"><v:paragraph/><v:tabList/>能斷婬欲</text>		</g>
		<g id="shape3-4" v:mID="3" v:groupContext="shape" transform="translate(0.82738,-17.2012) rotate(0.1)">
			<title>工作表.3</title>
			<desc>南洲三事勝天及北洲</desc>
			<v:textBlock v:margins="rect(0,0,0,0)" v:tabSpace="42.5197"/>
			<v:textRect cx="47.0624" cy="39.131" width="94.13" height="10.4088"/>
			<rect x="0" y="33.9265" width="94.1248" height="10.4088" class="st1"/>
			<text x="0" y="42.25" class="st2" v:langID="1028"><v:paragraph/><v:tabList/>南洲三事勝天及北洲</text>		</g>
		<g id="shape4-7" v:mID="4" v:groupContext="shape" transform="translate(100.494,-17.0291) rotate(0.1)">
			<title>工作表.4</title>
			<desc>強識念力</desc>
			<v:textBlock v:margins="rect(0,0,0,0)" v:tabSpace="42.5197"/>
			<v:textRect cx="26.1919" cy="39.131" width="52.39" height="10.4088"/>
			<rect x="0" y="33.9265" width="52.3838" height="10.4088" class="st1"/>
			<text x="0" y="42.25" class="st2" v:langID="1028"><v:paragraph/><v:tabList/>強識念力</text>		</g>
		<g id="shape5-10" v:mID="5" v:groupContext="shape" transform="translate(100.466,-1.11183) rotate(0.1)">
			<title>工作表.5</title>
			<desc>能精進勇猛</desc>
			<v:textBlock v:margins="rect(0,0,0,0)" v:tabSpace="42.5197"/>
			<v:textRect cx="26.202" cy="39.131" width="52.41" height="10.4088"/>
			<rect x="0" y="33.9265" width="52.404" height="10.4088" class="st1"/>
			<text x="0" y="42.25" class="st2" v:langID="1028"><v:paragraph/><v:tabList/>能精進勇猛</text>		</g>
		<g id="shape12-13" v:mID="12" v:groupContext="shape" transform="translate(137.088,0.830689) rotate(90.1)">
			<title>工作表.12</title>
			<path d="M0 38.67 C0 40.23 1.58 41.5 3.56 41.5 L17.74 41.5 C19.68 41.5 21.26 42.77 21.26 44.34 C21.26 42.77 22.84 41.5
						 24.82 41.5 L39 41.5 C40.94 41.5 42.52 40.23 42.52 38.67 L0 38.67 Z" class="st3"/>
			<path d="M0 38.67 C0 40.23 1.58 41.5 3.56 41.5 L17.74 41.5 C19.68 41.5 21.26 42.77 21.26 44.34 C21.26 42.77 22.84 41.5
						 24.82 41.5 L39 41.5 C40.94 41.5 42.52 40.23 42.52 38.67" class="st4"/>
		</g>
	</g>
</svg>
