<?xml version="1.0" encoding="UTF-8" standalone="no"?>
<!DOCTYPE svg PUBLIC "-//W3C//DTD SVG 1.1//EN" "http://www.w3.org/Graphics/SVG/1.1/DTD/svg11.dtd">
<!-- 由 Microsoft Visio, SVG Export 產生 B02403.svg 頁-1 -->
<svg xmlns="http://www.w3.org/2000/svg" xmlns:xlink="http://www.w3.org/1999/xlink" xmlns:ev="http://www.w3.org/2001/xml-events"
		xmlns:v="http://schemas.microsoft.com/visio/2003/SVGExtensions/" width="1.72705in" height="0.372443in"
		viewBox="0 0 124.348 26.8159" xml:space="preserve" color-interpolation-filters="sRGB" class="st6">
	<v:documentProperties v:langID="1028" v:viewMarkup="false"/>

	<style type="text/css">
	<![CDATA[
		.st1 {fill:none;stroke:none;stroke-linecap:butt;stroke-width:0.75}
		.st2 {fill:#000000;font-family:新細明體;font-size:0.833336em}
		.st3 {font-family:Times New Roman;font-size:1em}
		.st4 {fill:none}
		.st5 {stroke:#000000;stroke-linecap:round;stroke-linejoin:round;stroke-width:0.5625}
		.st6 {fill:none;fill-rule:evenodd;font-size:12px;overflow:visible;stroke-linecap:square;stroke-miterlimit:3}
	]]>
	</style>

	<g v:mID="0" v:index="1" v:groupContext="foregroundPage">
		<title>頁-1</title>
		<v:pageProperties v:drawingScale="0.0393701" v:pageScale="0.0393701" v:drawingUnits="24" v:shadowOffsetX="9"
				v:shadowOffsetY="-9"/>
		<g id="shape2-1" v:mID="2" v:groupContext="shape" transform="translate(40.8495,-17.9402) rotate(0.1)">
			<title>工作表.2</title>
			<desc>眾生作─如布施等</desc>
			<v:textBlock v:margins="rect(0,0,0,0)" v:tabSpace="42.5197"/>
			<v:textRect cx="41.393" cy="24.1692" width="82.79" height="5.29333"/>
			<rect x="0" y="21.5225" width="82.786" height="5.29333" class="st1"/>
			<text x="-0" y="27.28" class="st2" v:langID="1028"><v:paragraph/><v:tabList/>眾生作<tspan class="st3">─</tspan>如布施等</text>		</g>
		<g id="shape3-5" v:mID="3" v:groupContext="shape" transform="translate(0.796803,-10.4779) rotate(0.1)">
			<title>工作表.3</title>
			<desc>二種作</desc>
			<v:textBlock v:margins="rect(0,0,0,0)" v:tabSpace="42.5197"/>
			<v:textRect cx="16.5963" cy="24.1692" width="33.2" height="5.29333"/>
			<rect x="0" y="21.5225" width="33.1925" height="5.29333" class="st1"/>
			<text x="0" y="27.28" class="st2" v:langID="1028"><v:paragraph/><v:tabList/>二種作</text>		</g>
		<g id="shape4-8" v:mID="4" v:groupContext="shape" transform="translate(40.8214,-3.72211) rotate(0.1)">
			<title>工作表.4</title>
			<desc>法作─如火燒水爛</desc>
			<v:textBlock v:margins="rect(0,0,0,0)" v:tabSpace="42.5197"/>
			<v:textRect cx="41.407" cy="24.1692" width="82.82" height="5.29333"/>
			<rect x="0" y="21.5225" width="82.814" height="5.29333" class="st1"/>
			<text x="-0" y="27.28" class="st2" v:langID="1028"><v:paragraph/><v:tabList/>法作<tspan class="st3">─</tspan>如火燒水爛</text>		</g>
		<g id="shape11-12" v:mID="11" v:groupContext="shape" transform="translate(59.7206,1.95699) rotate(90.1)">
			<title>工作表.11</title>
			<path d="M0 21.15 C0 22.71 0.86 23.98 1.94 23.98 L9.66 23.98 C10.72 23.98 11.58 25.27 11.58 26.82 C11.58 25.27 12.44
						 23.98 13.52 23.98 L21.24 23.98 C22.3 23.98 23.16 22.71 23.16 21.15 L0 21.15 Z" class="st4"/>
			<path d="M0 21.15 C0 22.71 0.86 23.98 1.94 23.98 L9.66 23.98 C10.72 23.98 11.58 25.27 11.58 26.82 C11.58 25.27 12.44
						 23.98 13.52 23.98 L21.24 23.98 C22.3 23.98 23.16 22.71 23.16 21.15" class="st5"/>
		</g>
	</g>
</svg>
