<?xml version="1.0" encoding="UTF-8" standalone="no"?>
<!DOCTYPE svg PUBLIC "-//W3C//DTD SVG 1.1//EN" "http://www.w3.org/Graphics/SVG/1.1/DTD/svg11.dtd">
<!-- 由 Microsoft Visio, SVG Export 產生 B02307.svg 頁-1 -->
<svg xmlns="http://www.w3.org/2000/svg" xmlns:xlink="http://www.w3.org/1999/xlink" xmlns:ev="http://www.w3.org/2001/xml-events"
		xmlns:v="http://schemas.microsoft.com/visio/2003/SVGExtensions/" width="3.67713in" height="0.829783in"
		viewBox="0 0 264.754 59.7444" xml:space="preserve" color-interpolation-filters="sRGB" class="st6">
	<v:documentProperties v:langID="1028" v:viewMarkup="false"/>

	<style type="text/css">
	<![CDATA[
		.st1 {fill:none;stroke:none;stroke-linecap:butt;stroke-width:0.75}
		.st2 {fill:#000000;font-family:新細明體;font-size:0.833336em}
		.st3 {fill:none}
		.st4 {stroke:#000000;stroke-linecap:round;stroke-linejoin:round;stroke-width:0.5625}
		.st5 {stroke:#000000;stroke-dasharray:0.5625,1.125;stroke-linecap:round;stroke-linejoin:round;stroke-width:0.5625}
		.st6 {fill:none;fill-rule:evenodd;font-size:12px;overflow:visible;stroke-linecap:square;stroke-miterlimit:3}
	]]>
	</style>

	<g v:mID="0" v:index="1" v:groupContext="foregroundPage">
		<title>頁-1</title>
		<v:pageProperties v:drawingScale="0.0393701" v:pageScale="0.0393701" v:drawingUnits="24" v:shadowOffsetX="9"
				v:shadowOffsetY="-9"/>
		<g id="shape2-1" v:mID="2" v:groupContext="shape" transform="translate(62.5202,-48.6649) rotate(0.1)">
			<title>工作表.2</title>
			<desc>說有</desc>
			<v:textBlock v:margins="rect(0,0,0,0)" v:tabSpace="42.5197"/>
			<v:textRect cx="20.5722" cy="54.8939" width="41.15" height="9.70093"/>
			<rect x="0" y="50.0435" width="41.1444" height="9.70093" class="st1"/>
			<text x="-0" y="58.01" class="st2" v:langID="1028"><v:paragraph/><v:tabList/>說有</text>		</g>
		<g id="shape3-4" v:mID="3" v:groupContext="shape" transform="translate(62.4922,-33.8703) rotate(0.1)">
			<title>工作表.3</title>
			<desc>說無</desc>
			<v:textBlock v:margins="rect(0,0,0,0)" v:tabSpace="42.5197"/>
			<v:textRect cx="16.7574" cy="54.8939" width="33.52" height="9.70093"/>
			<rect x="0" y="50.0435" width="33.5149" height="9.70093" class="st1"/>
			<text x="0" y="58.01" class="st2" v:langID="1028"><v:paragraph/><v:tabList/>說無</text>		</g>
		<g id="shape4-7" v:mID="4" v:groupContext="shape" transform="translate(132.183,-33.3158) rotate(0.1)">
			<title>工作表.4</title>
			<desc>邪憶念四種行中著</desc>
			<v:textBlock v:margins="rect(0,0,0,0)" v:tabSpace="42.5197"/>
			<v:textRect cx="44.8558" cy="54.8939" width="89.72" height="9.70093"/>
			<rect x="0" y="50.0435" width="89.7115" height="9.70093" class="st1"/>
			<text x="0" y="58.01" class="st2" v:langID="1028"><v:paragraph/><v:tabList/>邪憶念四種行中著</text>		</g>
		<g id="shape5-10" v:mID="5" v:groupContext="shape" transform="translate(241.585,-32.8896) rotate(0.1)">
			<title>工作表.5</title>
			<desc>邪道</desc>
			<v:textBlock v:margins="rect(0,0,0,0)" v:tabSpace="42.5197"/>
			<v:textRect cx="11.252" cy="54.3444" width="22.51" height="10.8"/>
			<rect x="0" y="48.9444" width="22.504" height="10.8" class="st1"/>
			<text x="0" y="57.46" class="st2" v:langID="1028"><v:paragraph/><v:tabList/>邪道</text>		</g>
		<g id="shape6-13" v:mID="6" v:groupContext="shape" transform="translate(0.854274,-24.718) rotate(0.1)">
			<title>工作表.6</title>
			<desc>諸法有四相</desc>
			<v:textBlock v:margins="rect(0,0,0,0)" v:tabSpace="42.5197"/>
			<v:textRect cx="30.6599" cy="54.3444" width="61.32" height="10.8"/>
			<rect x="0" y="48.9444" width="61.3199" height="10.8" class="st1"/>
			<text x="0" y="57.46" class="st2" v:langID="1028"><v:paragraph/><v:tabList/>諸法有四相</text>		</g>
		<g id="shape7-16" v:mID="7" v:groupContext="shape" transform="translate(62.4329,-17.3862) rotate(0.1)">
			<title>工作表.7</title>
			<desc>說亦有亦無</desc>
			<v:textBlock v:margins="rect(0,0,0,0)" v:tabSpace="42.5197"/>
			<v:textRect cx="25.5736" cy="54.3444" width="51.15" height="10.8"/>
			<rect x="0" y="48.9444" width="51.1472" height="10.8" class="st1"/>
			<text x="-0" y="57.46" class="st2" v:langID="1028"><v:paragraph/><v:tabList/>說亦有亦無</text>		</g>
		<g id="shape8-19" v:mID="8" v:groupContext="shape" transform="translate(132.124,-16.8123) rotate(0.1)">
			<title>工作表.8</title>
			<desc>正憶念四種行中不著</desc>
			<v:textBlock v:margins="rect(0,0,0,0)" v:tabSpace="42.5197"/>
			<v:textRect cx="47.1525" cy="54.3444" width="94.31" height="10.8"/>
			<rect x="0" y="48.9444" width="94.305" height="10.8" class="st1"/>
			<text x="0" y="57.46" class="st2" v:langID="1028"><v:paragraph/><v:tabList/>正憶念四種行中不著</text>		</g>
		<g id="shape9-22" v:mID="9" v:groupContext="shape" transform="translate(241.594,-16.3811) rotate(0.1)">
			<title>工作表.9</title>
			<desc>正道</desc>
			<v:textBlock v:margins="rect(0,0,0,0)" v:tabSpace="42.5197"/>
			<v:textRect cx="10.9409" cy="54.3444" width="21.89" height="10.8"/>
			<rect x="0" y="48.9444" width="21.8818" height="10.8" class="st1"/>
			<text x="0" y="57.46" class="st2" v:langID="1028"><v:paragraph/><v:tabList/>正道</text>		</g>
		<g id="shape10-25" v:mID="10" v:groupContext="shape" transform="translate(62.4048,-0.916203) rotate(0.1)">
			<title>工作表.10</title>
			<desc>說非有非無</desc>
			<v:textBlock v:margins="rect(0,0,0,0)" v:tabSpace="42.5197"/>
			<v:textRect cx="27.8551" cy="54.3444" width="55.72" height="10.8"/>
			<rect x="0" y="48.9444" width="55.7102" height="10.8" class="st1"/>
			<text x="0" y="57.46" class="st2" v:langID="1028"><v:paragraph/><v:tabList/>說非有非無</text>		</g>
		<g id="shape17-28" v:mID="17" v:groupContext="shape" transform="translate(113.098,1.48652) rotate(90.1)">
			<title>工作表.17</title>
			<path d="M0 52.97 C0 54.84 2.09 56.36 4.7 56.36 L23.55 56.36 C26.16 56.36 28.29 57.87 28.29 59.74 C28.29 57.87 30.38
						 56.36 32.98 56.36 L51.84 56.36 C54.45 56.36 56.57 54.84 56.57 52.97 L0 52.97 Z" class="st3"/>
			<path d="M0 52.97 C0 54.84 2.09 56.36 4.7 56.36 L23.55 56.36 C26.16 56.36 28.29 57.87 28.29 59.74 C28.29 57.87 30.38
						 56.36 32.98 56.36 L51.84 56.36 C54.45 56.36 56.57 54.84 56.57 52.97" class="st4"/>
		</g>
		<g id="shape18-31" v:mID="18" v:groupContext="shape" transform="translate(176.094,1.48154) rotate(90.1)">
			<title>工作表.18</title>
			<path d="M0 59.74 C0 58.18 2.12 56.91 4.72 56.91 L23.63 56.91 C26.23 56.91 28.35 55.64 28.35 54.08 C28.35 55.64 30.46
						 56.91 33.1 56.91 L51.97 56.91 C54.58 56.91 56.69 58.18 56.69 59.74 L0 59.74 Z" class="st3"/>
			<path d="M0 59.74 C0 58.18 2.12 56.91 4.72 56.91 L23.63 56.91 C26.23 56.91 28.35 55.64 28.35 54.08 C28.35 55.64 30.46
						 56.91 33.1 56.91 L51.97 56.91 C54.58 56.91 56.69 58.18 56.69 59.74" class="st4"/>
		</g>
		<g id="shape19-34" v:mID="19" v:groupContext="shape" transform="translate(181.756,16.9303) rotate(90.1)">
			<title>工作表.19</title>
			<path d="M0 52.97 C0 54.85 0.95 56.36 2.11 56.36 L10.62 56.36 C11.81 56.36 12.76 57.89 12.76 59.74 C12.76 57.89 13.7
						 56.36 14.87 56.36 L23.37 56.36 C24.56 56.36 25.51 54.85 25.51 52.97 L0 52.97 Z" class="st3"/>
			<path d="M0 52.97 C0 54.85 0.95 56.36 2.11 56.36 L10.62 56.36 C11.81 56.36 12.76 57.89 12.76 59.74 C12.76 57.89 13.7
						 56.36 14.87 56.36 L23.37 56.36 C24.56 56.36 25.51 54.85 25.51 52.97" class="st4"/>
		</g>
		<g id="shape20-37" v:mID="20" v:groupContext="shape" transform="translate(214.089,-38.3796) rotate(-0.128724)">
			<title>工作表.20</title>
			<path d="M0 59.74 L25.69 59.74" class="st5"/>
		</g>
		<g id="shape21-40" v:mID="21" v:groupContext="shape" transform="translate(226.438,-22.0326) rotate(0.1)">
			<title>工作表.21</title>
			<path d="M0 59.74 L13.5 59.74" class="st5"/>
		</g>
	</g>
</svg>
