<?xml version="1.0" encoding="UTF-8" standalone="no"?>
<!DOCTYPE svg PUBLIC "-//W3C//DTD SVG 1.1//EN" "http://www.w3.org/Graphics/SVG/1.1/DTD/svg11.dtd">
<!-- 由 Microsoft Visio, SVG Export 產生 B02402.svg 頁-1 -->
<svg xmlns="http://www.w3.org/2000/svg" xmlns:xlink="http://www.w3.org/1999/xlink" xmlns:ev="http://www.w3.org/2001/xml-events"
		xmlns:v="http://schemas.microsoft.com/visio/2003/SVGExtensions/" width="1.44383in" height="0.584467in"
		viewBox="0 0 103.956 42.0816" xml:space="preserve" color-interpolation-filters="sRGB" class="st6">
	<v:documentProperties v:langID="1028" v:viewMarkup="false"/>

	<style type="text/css">
	<![CDATA[
		.st1 {fill:none;stroke:none;stroke-linecap:butt;stroke-width:0.75}
		.st2 {fill:#000000;font-family:新細明體;font-size:0.833336em}
		.st3 {font-family:Times New Roman;font-size:1em}
		.st4 {fill:none}
		.st5 {stroke:#000000;stroke-linecap:round;stroke-linejoin:round;stroke-width:0.5625}
		.st6 {fill:none;fill-rule:evenodd;font-size:12px;overflow:visible;stroke-linecap:square;stroke-miterlimit:3}
	]]>
	</style>

	<g v:mID="0" v:index="1" v:groupContext="foregroundPage">
		<title>頁-1</title>
		<v:pageProperties v:drawingScale="0.0393701" v:pageScale="0.0393701" v:drawingUnits="24" v:shadowOffsetX="9"
				v:shadowOffsetY="-9"/>
		<g id="shape2-1" v:mID="2" v:groupContext="shape" transform="translate(51.8776,-31.0173) rotate(0.1)">
			<title>工作表.2</title>
			<desc>此岸─生死</desc>
			<v:textBlock v:margins="rect(0,0,0,0)" v:tabSpace="42.5197"/>
			<v:textRect cx="25.6922" cy="37.2463" width="51.39" height="9.67067"/>
			<rect x="0" y="32.4109" width="51.3845" height="9.67067" class="st1"/>
			<text x="0" y="40.36" class="st2" v:langID="1028"><v:paragraph/><v:tabList/>此岸<tspan class="st3">─</tspan>生死</text>		</g>
		<g id="shape3-5" v:mID="3" v:groupContext="shape" transform="translate(0.823446,-14.3846) rotate(0.1)">
			<title>工作表.3</title>
			<desc>兩岸中流</desc>
			<v:textBlock v:margins="rect(0,0,0,0)" v:tabSpace="42.5197"/>
			<v:textRect cx="24.1677" cy="36.6816" width="48.34" height="10.8"/>
			<rect x="0" y="31.2816" width="48.3355" height="10.8" class="st1"/>
			<text x="0" y="39.8" class="st2" v:langID="1028"><v:paragraph/><v:tabList/>兩岸中流</text>		</g>
		<g id="shape4-8" v:mID="4" v:groupContext="shape" transform="translate(51.8524,-16.2296) rotate(0.1)">
			<title>工作表.4</title>
			<desc>中流─煩惱</desc>
			<v:textBlock v:margins="rect(0,0,0,0)" v:tabSpace="42.5197"/>
			<v:textRect cx="25.1065" cy="37.2463" width="50.22" height="9.67067"/>
			<rect x="0" y="32.4109" width="50.213" height="9.67067" class="st1"/>
			<text x="0" y="40.36" class="st2" v:langID="1028"><v:paragraph/><v:tabList/>中流<tspan class="st3">─</tspan>煩惱</text>		</g>
		<g id="shape5-12" v:mID="5" v:groupContext="shape" transform="translate(51.8273,-1.48114) rotate(0.1)">
			<title>工作表.5</title>
			<desc>彼岸─涅槃</desc>
			<v:textBlock v:margins="rect(0,0,0,0)" v:tabSpace="42.5197"/>
			<v:textRect cx="25.7177" cy="37.2463" width="51.44" height="9.67067"/>
			<rect x="0" y="32.4109" width="51.4354" height="9.67067" class="st1"/>
			<text x="0" y="40.36" class="st2" v:langID="1028"><v:paragraph/><v:tabList/>彼岸<tspan class="st3">─</tspan>涅槃</text>		</g>
		<g id="shape20-16" v:mID="20" v:groupContext="shape" transform="translate(85.5162,1.44671) rotate(90.1)">
			<title>工作表.20</title>
			<path d="M0 36.41 C0 37.98 1.47 39.25 3.31 39.25 L16.5 39.25 C18.3 39.25 19.77 40.53 19.77 42.08 C19.77 40.53 21.24 39.25
						 23.09 39.25 L36.27 39.25 C38.07 39.25 39.54 37.98 39.54 36.41 L0 36.41 Z" class="st4"/>
			<path d="M0 36.41 C0 37.98 1.47 39.25 3.31 39.25 L16.5 39.25 C18.3 39.25 19.77 40.53 19.77 42.08 C19.77 40.53 21.24 39.25
						 23.09 39.25 L36.27 39.25 C38.07 39.25 39.54 37.98 39.54 36.41" class="st5"/>
		</g>
	</g>
</svg>
