<?xml version="1.0" encoding="UTF-8" standalone="no"?>
<!DOCTYPE svg PUBLIC "-//W3C//DTD SVG 1.1//EN" "http://www.w3.org/Graphics/SVG/1.1/DTD/svg11.dtd">
<!-- 由 Microsoft Visio, SVG Export 產生 B02406.svg 頁-1 -->
<svg xmlns="http://www.w3.org/2000/svg" xmlns:xlink="http://www.w3.org/1999/xlink" xmlns:ev="http://www.w3.org/2001/xml-events"
		xmlns:v="http://schemas.microsoft.com/visio/2003/SVGExtensions/" width="3.55394in" height="0.377564in"
		viewBox="0 0 255.884 27.1846" xml:space="preserve" color-interpolation-filters="sRGB" class="st5">
	<v:documentProperties v:langID="1028" v:viewMarkup="false"/>

	<style type="text/css">
	<![CDATA[
		.st1 {fill:none;stroke:none;stroke-linecap:butt;stroke-width:0.75}
		.st2 {fill:#000000;font-family:新細明體;font-size:0.833336em}
		.st3 {fill:none}
		.st4 {stroke:#000000;stroke-linecap:round;stroke-linejoin:round;stroke-width:0.5625}
		.st5 {fill:none;fill-rule:evenodd;font-size:12px;overflow:visible;stroke-linecap:square;stroke-miterlimit:3}
	]]>
	</style>

	<g v:mID="0" v:index="1" v:groupContext="foregroundPage">
		<title>頁-1</title>
		<v:pageProperties v:drawingScale="0.0393701" v:pageScale="0.0393701" v:drawingUnits="24" v:shadowOffsetX="9"
				v:shadowOffsetY="-9"/>
		<g id="shape2-1" v:mID="2" v:groupContext="shape" transform="translate(51.6587,-18.2547) rotate(0.1)">
			<title>工作表.2</title>
			<desc>常住般若</desc>
			<v:textBlock v:margins="rect(0,0,0,0)" v:tabSpace="42.5197"/>
			<v:textRect cx="23.804" cy="24.4838" width="47.61" height="5.40159"/>
			<rect x="0" y="21.783" width="47.608" height="5.40159" class="st1"/>
			<text x="-0" y="27.6" class="st2" v:langID="1028"><v:paragraph/><v:tabList/>常住般若</text>		</g>
		<g id="shape3-4" v:mID="3" v:groupContext="shape" transform="translate(146.159,-18.18) rotate(0.1)">
			<title>工作表.3</title>
			<desc>痴慧不可得</desc>
			<v:textBlock v:margins="rect(0,0,0,0)" v:tabSpace="42.5197"/>
			<v:textRect cx="32.6799" cy="24.4838" width="65.36" height="5.40159"/>
			<rect x="0" y="21.783" width="65.3598" height="5.40159" class="st1"/>
			<text x="-0" y="27.6" class="st2" v:langID="1028"><v:paragraph/><v:tabList/>痴慧不可得</text>		</g>
		<g id="shape4-7" v:mID="4" v:groupContext="shape" transform="translate(0.797446,-11.3994) rotate(0.1)">
			<title>工作表.4</title>
			<desc>二種般若</desc>
			<v:textBlock v:margins="rect(0,0,0,0)" v:tabSpace="42.5197"/>
			<v:textRect cx="24.4563" cy="24.4838" width="48.92" height="5.40159"/>
			<rect x="0" y="21.783" width="48.9126" height="5.40159" class="st1"/>
			<text x="0" y="27.6" class="st2" v:langID="1028"><v:paragraph/><v:tabList/>二種般若</text>		</g>
		<g id="shape5-10" v:mID="5" v:groupContext="shape" transform="translate(51.6004,-3.77464) rotate(0.1)">
			<title>工作表.5</title>
			<desc>五度共行有用般若</desc>
			<v:textBlock v:margins="rect(0,0,0,0)" v:tabSpace="42.5197"/>
			<v:textRect cx="42.2585" cy="24.4838" width="84.52" height="5.40159"/>
			<rect x="0" y="21.783" width="84.517" height="5.40159" class="st1"/>
			<text x="0" y="27.6" class="st2" v:langID="1028"><v:paragraph/><v:tabList/>五度共行有用般若</text>		</g>
		<g id="shape6-13" v:mID="6" v:groupContext="shape" transform="translate(146.1,-3.70286) rotate(0.1)">
			<title>工作表.6</title>
			<desc>能破無明闇能與真智慧</desc>
			<v:textBlock v:margins="rect(0,0,0,0)" v:tabSpace="42.5197"/>
			<v:textRect cx="54.536" cy="24.4838" width="109.08" height="5.40159"/>
			<rect x="0" y="21.783" width="109.072" height="5.40159" class="st1"/>
			<text x="-0" y="27.6" class="st2" v:langID="1028"><v:paragraph/><v:tabList/>能破無明闇能與真智慧</text>		</g>
		<g id="shape13-16" v:mID="13" v:groupContext="shape" transform="translate(71.1538,1.45493) rotate(90.1)">
			<title>工作表.13</title>
			<path d="M0 21.52 C0 23.07 0.9 24.35 1.98 24.35 L9.86 24.35 C10.94 24.35 11.82 25.62 11.82 27.18 C11.82 25.62 12.72 24.35
						 13.8 24.35 L21.67 24.35 C22.75 24.35 23.63 23.07 23.63 21.52 L0 21.52 Z" class="st3"/>
			<path d="M0 21.52 C0 23.07 0.9 24.35 1.98 24.35 L9.86 24.35 C10.94 24.35 11.82 25.62 11.82 27.18 C11.82 25.62 12.72 24.35
						 13.8 24.35 L21.67 24.35 C22.75 24.35 23.63 23.07 23.63 21.52" class="st4"/>
		</g>
		<g id="shape14-19" v:mID="14" v:groupContext="shape" transform="translate(133.286,-6.60691) rotate(0.1)">
			<title>工作表.14</title>
			<path d="M0 27.18 L11.2 27.18" class="st4"/>
		</g>
		<g id="shape15-22" v:mID="15" v:groupContext="shape" transform="translate(93.5549,-20.9715)">
			<title>工作表.15</title>
			<path d="M0 27.18 L51.39 27.18" class="st4"/>
		</g>
	</g>
</svg>
