<?xml version="1.0" encoding="UTF-8" standalone="no"?>
<!DOCTYPE svg PUBLIC "-//W3C//DTD SVG 1.1//EN" "http://www.w3.org/Graphics/SVG/1.1/DTD/svg11.dtd">
<!-- 由 Microsoft Visio, SVG Export 產生 B02306.svg 頁-1 -->
<svg xmlns="http://www.w3.org/2000/svg" xmlns:xlink="http://www.w3.org/1999/xlink" xmlns:ev="http://www.w3.org/2001/xml-events"
		xmlns:v="http://schemas.microsoft.com/visio/2003/SVGExtensions/" width="3.44036in" height="0.386624in"
		viewBox="0 0 247.706 27.8369" xml:space="preserve" color-interpolation-filters="sRGB" class="st6">
	<v:documentProperties v:langID="1028" v:viewMarkup="false"/>

	<style type="text/css">
	<![CDATA[
		.st1 {fill:none;stroke:none;stroke-linecap:butt;stroke-width:0.75}
		.st2 {fill:#000000;font-family:新細明體;font-size:0.833336em}
		.st3 {font-family:Times New Roman;font-size:1em}
		.st4 {fill:none}
		.st5 {stroke:#000000;stroke-linecap:round;stroke-linejoin:round;stroke-width:0.5625}
		.st6 {fill:none;fill-rule:evenodd;font-size:12px;overflow:visible;stroke-linecap:square;stroke-miterlimit:3}
	]]>
	</style>

	<g v:mID="0" v:index="1" v:groupContext="foregroundPage">
		<title>頁-1</title>
		<v:pageProperties v:drawingScale="0.0393701" v:pageScale="0.0393701" v:drawingUnits="24" v:shadowOffsetX="9"
				v:shadowOffsetY="-9"/>
		<g id="shape2-1" v:mID="2" v:groupContext="shape" transform="translate(50.7368,-19.1386) rotate(0.1)">
			<title>工作表.2</title>
			<desc>密─初轉法輪菩薩見無量無數人得三乘道</desc>
			<v:textBlock v:margins="rect(0,0,0,0)" v:tabSpace="42.5197"/>
			<v:textRect cx="98.1297" cy="25.3678" width="196.26" height="4.93824"/>
			<rect x="0" y="22.8987" width="196.259" height="4.93824" class="st1"/>
			<text x="0" y="28.48" class="st2" v:langID="1028"><v:paragraph/><v:tabList/>密<tspan class="st3">─</tspan>初轉法輪，菩薩見無量無數人得三乘道</text>		</g>
		<g id="shape3-5" v:mID="3" v:groupContext="shape" transform="translate(0.798585,-11.2964) rotate(0.1)">
			<title>工作表.3</title>
			<desc>佛事有二</desc>
			<v:textBlock v:margins="rect(0,0,0,0)" v:tabSpace="42.5197"/>
			<v:textRect cx="25.9319" cy="25.3678" width="51.87" height="4.93824"/>
			<rect x="0" y="22.8987" width="51.8639" height="4.93824" class="st1"/>
			<text x="0" y="28.48" class="st2" v:langID="1028"><v:paragraph/><v:tabList/>佛事有二</text>		</g>
		<g id="shape4-8" v:mID="4" v:groupContext="shape" transform="translate(50.7097,-4.05657) rotate(0.1)">
			<title>工作表.4</title>
			<desc>現─初轉法輪聲聞見八萬一人得初道</desc>
			<v:textBlock v:margins="rect(0,0,0,0)" v:tabSpace="42.5197"/>
			<v:textRect cx="88.8044" cy="25.3678" width="177.61" height="4.93824"/>
			<rect x="0" y="22.8987" width="177.609" height="4.93824" class="st1"/>
			<text x="0" y="28.48" class="st2" v:langID="1028"><v:paragraph/><v:tabList/>現<tspan class="st3">─</tspan>初轉法輪，聲聞見八萬一人得初道</text>		</g>
		<g id="shape13-12" v:mID="13" v:groupContext="shape" transform="translate(70.9079,1.93478) rotate(90.1)">
			<title>工作表.13</title>
			<path d="M0 22.17 C0 23.74 0.9 25 2 25 L10.03 25 C11.13 25 12.05 26.29 12.05 27.84 C12.05 26.29 12.94 25 14.04 25 L22.08
						 25 C23.18 25 24.09 23.74 24.09 22.17 L0 22.17 Z" class="st4"/>
			<path d="M0 22.17 C0 23.74 0.9 25 2 25 L10.03 25 C11.13 25 12.05 26.29 12.05 27.84 C12.05 26.29 12.94 25 14.04 25 L22.08
						 25 C23.18 25 24.09 23.74 24.09 22.17" class="st5"/>
		</g>
	</g>
</svg>
