<?xml version="1.0" encoding="UTF-8" standalone="no"?>
<!DOCTYPE svg PUBLIC "-//W3C//DTD SVG 1.1//EN" "http://www.w3.org/Graphics/SVG/1.1/DTD/svg11.dtd">
<!-- 由 Microsoft Visio, SVG Export 產生 B02501.svg 頁-1 -->
<svg xmlns="http://www.w3.org/2000/svg" xmlns:xlink="http://www.w3.org/1999/xlink" xmlns:ev="http://www.w3.org/2001/xml-events"
		xmlns:v="http://schemas.microsoft.com/visio/2003/SVGExtensions/" width="1.87728in" height="0.635342in"
		viewBox="0 0 135.164 45.7446" xml:space="preserve" color-interpolation-filters="sRGB" class="st6">
	<v:documentProperties v:langID="1028" v:viewMarkup="false"/>

	<style type="text/css">
	<![CDATA[
		.st1 {fill:none;stroke:none;stroke-linecap:butt;stroke-width:0.75}
		.st2 {fill:#000000;font-family:新細明體;font-size:0.833336em}
		.st3 {font-family:Times New Roman;font-size:1em;letter-spacing:0.599998em}
		.st4 {fill:none}
		.st5 {stroke:#000000;stroke-linecap:round;stroke-linejoin:round;stroke-width:0.5625}
		.st6 {fill:none;fill-rule:evenodd;font-size:12px;overflow:visible;stroke-linecap:square;stroke-miterlimit:3}
	]]>
	</style>

	<g v:mID="0" v:index="1" v:groupContext="foregroundPage">
		<title>頁-1</title>
		<v:pageProperties v:drawingScale="0.0393701" v:pageScale="0.0393701" v:drawingUnits="24" v:shadowOffsetX="9"
				v:shadowOffsetY="-9"/>
		<g id="shape3-1" v:mID="3" v:groupContext="shape" transform="translate(51.369,-34.1154) rotate(0.1)">
			<title>工作表.3</title>
			<desc>上</desc>
			<v:textBlock v:margins="rect(0,0,0,0)" v:tabSpace="42.5197"/>
			<v:textRect cx="4.5" cy="40.3446" width="9" height="10.8"/>
			<rect x="0" y="34.9446" width="9" height="10.8" class="st1"/>
			<text x="0" y="43.46" class="st2" v:langID="1028"><v:paragraph/><v:tabList/>上</text>		</g>
		<g id="shape4-4" v:mID="4" v:groupContext="shape" transform="translate(64.869,-34.0918) rotate(0.1)">
			<title>工作表.4</title>
			<desc>光讚</desc>
			<v:textBlock v:margins="rect(0,0,0,0)" v:tabSpace="42.5197"/>
			<v:textRect cx="15.8992" cy="40.3446" width="31.8" height="10.8"/>
			<rect x="0" y="34.9446" width="31.7983" height="10.8" class="st1"/>
			<text x="-0" y="43.46" class="st2" v:langID="1028"><v:paragraph/><v:tabList/>光讚</text>		</g>
		<g id="shape5-7" v:mID="5" v:groupContext="shape" transform="translate(102.698,-33.8633) rotate(0.1)">
			<title>工作表.5</title>
			<desc>光讚</desc>
			<v:textBlock v:margins="rect(0,0,0,0)"/>
			<v:textRect cx="14.4717" cy="40.3446" width="28.95" height="10.8"/>
			<rect x="0" y="34.9446" width="28.9433" height="10.8" class="st1"/>
			<text x="8.5" y="43.46" class="st2" v:langID="1028"><v:paragraph/><v:tabList/>光讚</text>		</g>
		<g id="shape6-10" v:mID="6" v:groupContext="shape" transform="translate(0.829839,-17.7396) rotate(0.1)">
			<title>工作表.6</title>
			<desc>三部般若</desc>
			<v:textBlock v:margins="rect(0,0,0,0)" v:tabSpace="42.5197"/>
			<v:textRect cx="26.7732" cy="40.3446" width="53.55" height="10.8"/>
			<rect x="0" y="34.9446" width="53.5464" height="10.8" class="st1"/>
			<text x="0" y="43.46" class="st2" v:langID="1028"><v:paragraph/><v:tabList/>三部般若</text>		</g>
		<g id="shape7-13" v:mID="7" v:groupContext="shape" transform="translate(50.9049,-17.6454) rotate(0.1)">
			<title>工作表.7</title>
			<desc>中</desc>
			<v:textBlock v:margins="rect(0,0,0,0)" v:tabSpace="42.5197"/>
			<v:textRect cx="4.5" cy="40.3446" width="9" height="10.8"/>
			<rect x="0" y="34.9446" width="9" height="10.8" class="st1"/>
			<text x="0" y="43.46" class="st2" v:langID="1028"><v:paragraph/><v:tabList/>中</text>		</g>
		<g id="shape8-16" v:mID="8" v:groupContext="shape" transform="translate(64.8409,-17.6218) rotate(0.1)">
			<title>工作表.8</title>
			<desc>放光</desc>
			<v:textBlock v:margins="rect(0,0,0,0)" v:tabSpace="42.5197"/>
			<v:textRect cx="15.2751" cy="40.3446" width="30.56" height="10.8"/>
			<rect x="0" y="34.9446" width="30.5503" height="10.8" class="st1"/>
			<text x="0" y="43.46" class="st2" v:langID="1028"><v:paragraph/><v:tabList/>放光</text>		</g>
		<g id="shape9-19" v:mID="9" v:groupContext="shape" transform="translate(93.2336,-17.4098) rotate(0.1)">
			<title>工作表.9</title>
			<desc>又 放光</desc>
			<v:textBlock v:margins="rect(0,0,0,0)"/>
			<v:textRect cx="20.6191" cy="40.3446" width="41.24" height="10.8"/>
			<rect x="0" y="34.9446" width="41.2381" height="10.8" class="st1"/>
			<text x="0" y="43.46" class="st2" v:langID="1028"><v:paragraph/><v:tabList/>又<tspan class="st3"> </tspan>放光</text>		</g>
		<g id="shape16-23" v:mID="16" v:groupContext="shape" transform="translate(51.0934,-1.13003) rotate(0.1)">
			<title>工作表.16</title>
			<desc>下</desc>
			<v:textBlock v:margins="rect(0,0,0,0)" v:tabSpace="42.5197"/>
			<v:textRect cx="4.5" cy="40.3446" width="9" height="10.8"/>
			<rect x="0" y="34.9446" width="9" height="10.8" class="st1"/>
			<text x="-0" y="43.46" class="st2" v:langID="1028"><v:paragraph/><v:tabList/>下</text>		</g>
		<g id="shape17-26" v:mID="17" v:groupContext="shape" transform="translate(64.8114,-1.10646) rotate(0.1)">
			<title>工作表.17</title>
			<desc>道行</desc>
			<v:textBlock v:margins="rect(0,0,0,0)" v:tabSpace="42.5197"/>
			<v:textRect cx="16.2824" cy="40.3446" width="32.57" height="10.8"/>
			<rect x="0" y="34.9446" width="32.5649" height="10.8" class="st1"/>
			<text x="-0" y="43.46" class="st2" v:langID="1028"><v:paragraph/><v:tabList/>道行</text>		</g>
		<g id="shape18-29" v:mID="18" v:groupContext="shape" transform="translate(102.64,-0.878699) rotate(0.1)">
			<title>工作表.18</title>
			<desc>小品</desc>
			<v:textBlock v:margins="rect(0,0,0,0)"/>
			<v:textRect cx="15.9174" cy="40.3446" width="31.84" height="10.8"/>
			<rect x="0" y="34.9446" width="31.8348" height="10.8" class="st1"/>
			<text x="8.5" y="43.46" class="st2" v:langID="1028"><v:paragraph/><v:tabList/>小品</text>		</g>
		<g id="shape25-32" v:mID="25" v:groupContext="shape" transform="translate(88.47,0.739211) rotate(90.1)">
			<title>工作表.25</title>
			<path d="M0 40.08 C0 41.64 1.62 42.91 3.6 42.91 L18.11 42.91 C20.1 42.91 21.75 44.19 21.75 45.74 C21.75 44.19 23.37 42.91
						 25.36 42.91 L39.86 42.91 C41.85 42.91 43.5 41.64 43.5 40.08 L0 40.08 Z" class="st4"/>
			<path d="M0 40.08 C0 41.64 1.62 42.91 3.6 42.91 L18.11 42.91 C20.1 42.91 21.75 44.19 21.75 45.74 C21.75 44.19 23.37 42.91
						 25.36 42.91 L39.86 42.91 C41.85 42.91 43.5 41.64 43.5 40.08" class="st5"/>
		</g>
	</g>
</svg>
