<?xml version="1.0" encoding="UTF-8" standalone="no"?>
<!DOCTYPE svg PUBLIC "-//W3C//DTD SVG 1.1//EN" "http://www.w3.org/Graphics/SVG/1.1/DTD/svg11.dtd">
<!-- 由 Microsoft Visio, SVG Export 產生 B02503.svg 頁-1 -->
<svg xmlns="http://www.w3.org/2000/svg" xmlns:xlink="http://www.w3.org/1999/xlink" xmlns:ev="http://www.w3.org/2001/xml-events"
		xmlns:v="http://schemas.microsoft.com/visio/2003/SVGExtensions/" width="3.02886in" height="0.583024in"
		viewBox="0 0 218.078 41.9777" xml:space="preserve" color-interpolation-filters="sRGB" class="st6">
	<v:documentProperties v:langID="1028" v:viewMarkup="false"/>

	<style type="text/css">
	<![CDATA[
		.st1 {fill:none;stroke:none;stroke-linecap:butt;stroke-width:0.75}
		.st2 {fill:#000000;font-family:新細明體;font-size:0.833336em}
		.st3 {font-family:Times New Roman;font-size:1em}
		.st4 {fill:none}
		.st5 {stroke:#000000;stroke-linecap:round;stroke-linejoin:round;stroke-width:0.5625}
		.st6 {fill:none;fill-rule:evenodd;font-size:12px;overflow:visible;stroke-linecap:square;stroke-miterlimit:3}
	]]>
	</style>

	<g v:mID="0" v:index="1" v:groupContext="foregroundPage">
		<title>頁-1</title>
		<v:pageProperties v:drawingScale="0.0393701" v:pageScale="0.0393701" v:drawingUnits="24" v:shadowOffsetX="9"
				v:shadowOffsetY="-9"/>
		<g id="shape2-1" v:mID="2" v:groupContext="shape" transform="translate(20.2765,-33.0045) rotate(0.1)">
			<title>工作表.2</title>
			<desc>非眾生法</desc>
			<v:textBlock v:margins="rect(0,0,0,0)" v:tabSpace="42.5197"/>
			<v:textRect cx="29.0791" cy="39.2337" width="58.16" height="5.48809"/>
			<rect x="0" y="36.4897" width="58.1583" height="5.48809" class="st1"/>
			<text x="-0" y="42.35" class="st2" v:langID="1028"><v:paragraph/><v:tabList/>非眾生法</text>		</g>
		<g id="shape3-4" v:mID="3" v:groupContext="shape" transform="translate(99.7718,-32.9043) rotate(0.1)">
			<title>工作表.3</title>
			<desc>飢渴寒熱等</desc>
			<v:textBlock v:margins="rect(0,0,0,0)" v:tabSpace="42.5197"/>
			<v:textRect cx="33.225" cy="39.2337" width="66.45" height="5.48809"/>
			<rect x="0" y="36.4897" width="66.4499" height="5.48809" class="st1"/>
			<text x="-0" y="42.35" class="st2" v:langID="1028"><v:paragraph/><v:tabList/>飢渴寒熱等</text>		</g>
		<g id="shape4-7" v:mID="4" v:groupContext="shape" transform="translate(0.823265,-24.6779) rotate(0.1)">
			<title>工作表.4</title>
			<desc>魔</desc>
			<v:textBlock v:margins="rect(0,0,0,0)" v:tabSpace="42.5197"/>
			<v:textRect cx="4.5" cy="39.2337" width="9" height="5.48809"/>
			<rect x="0" y="36.4897" width="9" height="5.48809" class="st1"/>
			<text x="0" y="42.35" class="st2" v:langID="1028"><v:paragraph/><v:tabList/>魔</text>		</g>
		<g id="shape5-10" v:mID="5" v:groupContext="shape" transform="translate(20.2115,-13.7423) rotate(0.1)">
			<title>工作表.5</title>
			<desc>眾生法─</desc>
			<v:textBlock v:margins="rect(0,0,0,0)" v:tabSpace="42.5197"/>
			<v:textRect cx="25.7069" cy="37.0539" width="51.42" height="9.84768"/>
			<rect x="0" y="32.1301" width="51.4138" height="9.84768" class="st1"/>
			<text x="-0" y="40.17" class="st2" v:langID="1028"><v:paragraph/><v:tabList/>眾生法<tspan class="st3">─</tspan></text>		</g>
		<g id="shape6-14" v:mID="6" v:groupContext="shape" transform="translate(69.6334,-16.2334) rotate(0.1)">
			<title>工作表.6</title>
			<desc>外</desc>
			<v:textBlock v:margins="rect(0,0,0,0)" v:tabSpace="42.5197"/>
			<v:textRect cx="4.5" cy="37.0539" width="9" height="9.84768"/>
			<rect x="0" y="32.1301" width="9" height="9.84768" class="st1"/>
			<text x="0" y="40.17" class="st2" v:langID="1028"><v:paragraph/><v:tabList/>外</text>		</g>
		<g id="shape7-17" v:mID="7" v:groupContext="shape" transform="translate(99.7078,-16.1285) rotate(0.1)">
			<title>工作表.7</title>
			<desc>魔鬼、邪見人虎狼等</desc>
			<v:textBlock v:margins="rect(0,0,0,0)" v:tabSpace="42.5197"/>
			<v:textRect cx="49.7651" cy="37.0539" width="99.54" height="9.84768"/>
			<rect x="0" y="32.1301" width="99.5303" height="9.84768" class="st1"/>
			<text x="0" y="40.17" class="st2" v:langID="1028"><v:paragraph/><v:tabList/>魔鬼、邪見人虎狼等</text>		</g>
		<g id="shape8-20" v:mID="8" v:groupContext="shape" transform="translate(69.6056,-1.13091) rotate(0.1)">
			<title>工作表.8</title>
			<desc>內</desc>
			<v:textBlock v:margins="rect(0,0,0,0)" v:tabSpace="42.5197"/>
			<v:textRect cx="4.5" cy="36.5777" width="9" height="10.8"/>
			<rect x="0" y="31.1777" width="9" height="10.8" class="st1"/>
			<text x="0" y="39.69" class="st2" v:langID="1028"><v:paragraph/><v:tabList/>內</text>		</g>
		<g id="shape9-23" v:mID="9" v:groupContext="shape" transform="translate(99.68,-1.02095) rotate(0.1)">
			<title>工作表.9</title>
			<desc>憂愁不得法味心生邪見</desc>
			<v:textBlock v:margins="rect(0,0,0,0)" v:tabSpace="42.5197"/>
			<v:textRect cx="58.8513" cy="36.5777" width="117.71" height="10.8"/>
			<rect x="0" y="31.1777" width="117.703" height="10.8" class="st1"/>
			<text x="0" y="39.69" class="st2" v:langID="1028"><v:paragraph/><v:tabList/>憂愁不得法味，心生邪見</text>		</g>
		<g id="shape16-26" v:mID="16" v:groupContext="shape" transform="translate(54.748,1.17447) rotate(90.1)">
			<title>工作表.16</title>
			<path d="M0 36.31 C0 37.88 1 39.14 2.23 39.14 L11.21 39.14 C12.44 39.14 13.46 40.43 13.46 41.98 C13.46 40.43 14.46 39.14
						 15.7 39.14 L24.67 39.14 C25.9 39.14 26.93 37.88 26.93 36.31 L0 36.31 Z" class="st4"/>
			<path d="M0 36.31 C0 37.88 1 39.14 2.23 39.14 L11.21 39.14 C12.44 39.14 13.46 40.43 13.46 41.98 C13.46 40.43 14.46 39.14
						 15.7 39.14 L24.67 39.14 C25.9 39.14 26.93 37.88 26.93 36.31" class="st5"/>
		</g>
		<g id="shape17-29" v:mID="17" v:groupContext="shape" transform="translate(101.867,17.1481) rotate(90.1)">
			<title>工作表.17</title>
			<path d="M0 35.25 C0 37.11 0.87 38.62 1.92 38.62 L4.25 38.62 C5.34 38.62 6.2 40.13 6.2 41.98 C6.2 40.13 7.07 38.62 8.13
						 38.62 L21.31 38.62 C22.39 38.62 23.26 37.11 23.26 35.25 L0 35.25 Z" class="st4"/>
			<path d="M0 35.25 C0 37.11 0.87 38.62 1.92 38.62 L4.25 38.62 C5.34 38.62 6.2 40.13 6.2 41.98 C6.2 40.13 7.07 38.62 8.13
						 38.62 L21.31 38.62 C22.39 38.62 23.26 37.11 23.26 35.25" class="st5"/>
		</g>
		<g id="shape18-32" v:mID="18" v:groupContext="shape" transform="translate(62.7648,-35.2531)">
			<title>工作表.18</title>
			<path d="M0 41.98 L34.02 41.98" class="st5"/>
		</g>
		<g id="shape19-35" v:mID="19" v:groupContext="shape" transform="translate(80.7789,-20.7395) rotate(0.00881779)">
			<title>工作表.19</title>
			<path d="M0 41.98 L15.7 41.98" class="st5"/>
		</g>
		<g id="shape20-38" v:mID="20" v:groupContext="shape" transform="translate(80.7757,-5.62574)">
			<title>工作表.20</title>
			<path d="M0 41.98 L15.7 41.98" class="st5"/>
		</g>
	</g>
</svg>
