<?xml version="1.0" encoding="UTF-8" standalone="no"?>
<!DOCTYPE svg PUBLIC "-//W3C//DTD SVG 1.1//EN" "http://www.w3.org/Graphics/SVG/1.1/DTD/svg11.dtd">
<!-- 由 Microsoft Visio, SVG Export 產生 B02504.svg 頁-1 -->
<svg xmlns="http://www.w3.org/2000/svg" xmlns:xlink="http://www.w3.org/1999/xlink" xmlns:ev="http://www.w3.org/2001/xml-events"
		xmlns:v="http://schemas.microsoft.com/visio/2003/SVGExtensions/" width="2.99571in" height="0.37507in"
		viewBox="0 0 215.691 27.005" xml:space="preserve" color-interpolation-filters="sRGB" class="st5">
	<v:documentProperties v:langID="1028" v:viewMarkup="false"/>

	<style type="text/css">
	<![CDATA[
		.st1 {fill:none;stroke:none;stroke-linecap:butt;stroke-width:0.75}
		.st2 {fill:#000000;font-family:新細明體;font-size:0.833336em}
		.st3 {fill:none}
		.st4 {stroke:#000000;stroke-linecap:round;stroke-linejoin:round;stroke-width:0.5625}
		.st5 {fill:none;fill-rule:evenodd;font-size:12px;overflow:visible;stroke-linecap:square;stroke-miterlimit:3}
	]]>
	</style>

	<g v:mID="0" v:index="1" v:groupContext="foregroundPage">
		<title>頁-1</title>
		<v:pageProperties v:drawingScale="0.0393701" v:pageScale="0.0393701" v:drawingUnits="24" v:shadowOffsetX="9"
				v:shadowOffsetY="-9"/>
		<g id="shape2-1" v:mID="2" v:groupContext="shape" transform="translate(71.3915,-18.4346) rotate(0.1)">
			<title>工作表.2</title>
			<desc>染心不可得故如實知染心</desc>
			<v:textBlock v:margins="rect(0,0,0,0)" v:tabSpace="42.5197"/>
			<v:textRect cx="61.1479" cy="24.6636" width="122.3" height="4.68289"/>
			<rect x="0" y="22.3221" width="122.296" height="4.68289" class="st1"/>
			<text x="0" y="27.78" class="st2" v:langID="1028"><v:paragraph/><v:tabList/>染心不可得故，如實知染心</text>		</g>
		<g id="shape3-4" v:mID="3" v:groupContext="shape" transform="translate(0.797133,-11.4189) rotate(0.1)">
			<title>工作表.3</title>
			<desc>如實知染無染</desc>
			<v:textBlock v:margins="rect(0,0,0,0)" v:tabSpace="42.5197"/>
			<v:textRect cx="36.9255" cy="24.6636" width="73.86" height="4.68289"/>
			<rect x="0" y="22.3221" width="73.851" height="4.68289" class="st1"/>
			<text x="0" y="27.78" class="st2" v:langID="1028"><v:paragraph/><v:tabList/>如實知染無染</text>		</g>
		<g id="shape4-7" v:mID="4" v:groupContext="shape" transform="translate(71.3665,-4.13212) rotate(0.1)">
			<title>工作表.4</title>
			<desc>染不染不可得故如實知無染心</desc>
			<v:textBlock v:margins="rect(0,0,0,0)" v:tabSpace="42.5197"/>
			<v:textRect cx="71.8067" cy="24.6636" width="143.62" height="4.68289"/>
			<rect x="0" y="22.3221" width="143.613" height="4.68289" class="st1"/>
			<text x="0" y="27.78" class="st2" v:langID="1028"><v:paragraph/><v:tabList/>染不染不可得故，如實知無染心</text>		</g>
		<g id="shape17-10" v:mID="17" v:groupContext="shape" transform="translate(90.2922,2.02862) rotate(90.1)">
			<title>工作表.17</title>
			<path d="M0 21.48 C0 23.01 0.84 24.24 1.88 24.24 L9.44 24.24 C10.48 24.24 11.34 25.48 11.34 27.01 C11.34 25.48 12.18
						 24.24 13.22 24.24 L20.78 24.24 C21.81 24.24 22.68 23.01 22.68 21.48 L0 21.48 Z" class="st3"/>
			<path d="M0 21.48 C0 23.01 0.84 24.24 1.88 24.24 L9.44 24.24 C10.48 24.24 11.34 25.48 11.34 27.01 C11.34 25.48 12.18
						 24.24 13.22 24.24 L20.78 24.24 C21.81 24.24 22.68 23.01 22.68 21.48" class="st4"/>
		</g>
	</g>
</svg>
