<?xml version="1.0" encoding="UTF-8" standalone="no"?>
<!DOCTYPE svg PUBLIC "-//W3C//DTD SVG 1.1//EN" "http://www.w3.org/Graphics/SVG/1.1/DTD/svg11.dtd">
<!-- 由 Microsoft Visio, SVG Export 產生 B01807.svg 頁-1 -->
<svg xmlns="http://www.w3.org/2000/svg" xmlns:xlink="http://www.w3.org/1999/xlink" xmlns:ev="http://www.w3.org/2001/xml-events"
		xmlns:v="http://schemas.microsoft.com/visio/2003/SVGExtensions/" width="1.30639in" height="0.824053in"
		viewBox="0 0 94.0602 59.3318" xml:space="preserve" color-interpolation-filters="sRGB" class="st5">
	<v:documentProperties v:langID="1028" v:viewMarkup="false"/>

	<style type="text/css">
	<![CDATA[
		.st1 {fill:none;stroke:none;stroke-linecap:butt;stroke-width:0.75}
		.st2 {fill:#000000;font-family:新細明體;font-size:0.833336em}
		.st3 {fill:none}
		.st4 {stroke:#000000;stroke-linecap:round;stroke-linejoin:round;stroke-width:0.5625}
		.st5 {fill:none;fill-rule:evenodd;font-size:12px;overflow:visible;stroke-linecap:square;stroke-miterlimit:3}
	]]>
	</style>

	<g v:mID="0" v:index="1" v:groupContext="foregroundPage">
		<title>頁-1</title>
		<v:pageProperties v:drawingScale="0.0393701" v:pageScale="0.0393701" v:drawingUnits="24" v:shadowOffsetX="9"
				v:shadowOffsetY="-9"/>
		<g id="shape2-1" v:mID="2" v:groupContext="shape" transform="translate(51.8548,-47.9972) rotate(0.1)">
			<title>工作表.2</title>
			<desc>或說空</desc>
			<v:textBlock v:margins="rect(0,0,0,0)" v:tabSpace="42.5197"/>
			<v:textRect cx="18.3329" cy="54.2262" width="36.67" height="10.2112"/>
			<rect x="0" y="49.1206" width="36.6657" height="10.2112" class="st1"/>
			<text x="0" y="57.34" class="st2" v:langID="1028"><v:paragraph/><v:tabList/>或說空</text>		</g>
		<g id="shape3-4" v:mID="3" v:groupContext="shape" transform="translate(0.853554,-28.5244) rotate(0.1)">
			<title>工作表.3</title>
			<desc>佛說般若</desc>
			<v:textBlock v:margins="rect(0,0,0,0)" v:tabSpace="42.5197"/>
			<v:textRect cx="25.0049" cy="53.9318" width="50.01" height="10.8"/>
			<rect x="0" y="48.5318" width="50.0098" height="10.8" class="st1"/>
			<text x="0" y="57.05" class="st2" v:langID="1028"><v:paragraph/><v:tabList/>佛說般若</text>		</g>
		<g id="shape4-7" v:mID="4" v:groupContext="shape" transform="translate(43.1424,-32.3953) rotate(0.1)">
			<title>工作表.4</title>
			<desc>或說有</desc>
			<v:textBlock v:margins="rect(0,0,0,0)"/>
			<v:textRect cx="20.9405" cy="54.2262" width="41.89" height="10.2112"/>
			<rect x="0" y="49.1206" width="41.881" height="10.2112" class="st1"/>
			<text x="8.5" y="57.34" class="st2" v:langID="1028"><v:paragraph/><v:tabList/>或說有</text>		</g>
		<g id="shape5-10" v:mID="5" v:groupContext="shape" transform="translate(52.1134,-16.7655) rotate(0.1)">
			<title>工作表.5</title>
			<desc>或說果報</desc>
			<v:textBlock v:margins="rect(0,0,0,0)" v:tabSpace="42.5197"/>
			<v:textRect cx="20.6408" cy="54.2262" width="41.29" height="10.2112"/>
			<rect x="0" y="49.1206" width="41.2815" height="10.2112" class="st1"/>
			<text x="0" y="57.34" class="st2" v:langID="1028"><v:paragraph/><v:tabList/>或說果報</text>		</g>
		<g id="shape6-13" v:mID="6" v:groupContext="shape" transform="translate(52.0855,-1.19339) rotate(0.1)">
			<title>工作表.6</title>
			<desc>或說罪福</desc>
			<v:textBlock v:margins="rect(0,0,0,0)" v:tabSpace="42.5197"/>
			<v:textRect cx="20.6552" cy="54.2262" width="41.32" height="10.2112"/>
			<rect x="0" y="49.1206" width="41.3104" height="10.2112" class="st1"/>
			<text x="0" y="57.34" class="st2" v:langID="1028"><v:paragraph/><v:tabList/>或說罪福</text>		</g>
		<g id="shape15-16" v:mID="15" v:groupContext="shape" transform="translate(102.665,2.64255) rotate(90.1)">
			<title>工作表.15</title>
			<path d="M0 54.07 C0 55.54 2.07 56.7 4.61 56.7 L17.64 56.7 C20.18 56.7 22.25 57.89 22.25 59.33 C22.25 57.89 24.32 56.7
						 26.86 56.7 L50.67 56.7 C53.25 56.7 55.28 55.54 55.28 54.07 L0 54.07 Z" class="st3"/>
			<path d="M0 54.07 C0 55.54 2.07 56.7 4.61 56.7 L17.64 56.7 C20.18 56.7 22.25 57.89 22.25 59.33 C22.25 57.89 24.32 56.7
						 26.86 56.7 L50.67 56.7 C53.25 56.7 55.28 55.54 55.28 54.07" class="st4"/>
		</g>
	</g>
</svg>
