<?xml version="1.0" encoding="UTF-8" standalone="no"?>
<!DOCTYPE svg PUBLIC "-//W3C//DTD SVG 1.1//EN" "http://www.w3.org/Graphics/SVG/1.1/DTD/svg11.dtd">
<!-- 由 Microsoft Visio, SVG Export 產生 M070.058.svg 頁-1 -->
<svg xmlns="http://www.w3.org/2000/svg" xmlns:xlink="http://www.w3.org/1999/xlink" xmlns:ev="http://www.w3.org/2001/xml-events"
		width="3.61261in" height="0.387005in" viewBox="0 0 260.108 27.8643" xml:space="preserve" color-interpolation-filters="sRGB"
		class="st6">
	<style type="text/css">
	<![CDATA[
		.st1 {fill:none;stroke:none;stroke-linecap:butt;stroke-width:0.749999}
		.st2 {fill:#000000;font-family:新細明體;font-size:0.833336em}
		.st3 {fill:none;stroke:none;stroke-width:0.999999}
		.st4 {fill:none}
		.st5 {stroke:#000000;stroke-linecap:round;stroke-linejoin:round;stroke-width:0.5625}
		.st6 {fill:none;fill-rule:evenodd;font-size:12px;overflow:visible;stroke-linecap:square;stroke-miterlimit:3}
	]]>
	</style>

	<g>
		<title>頁-1</title>
		<g id="group16-1" transform="translate(0.749999,-2.73627)">
			<title>工作表.16</title>
			<g id="shape1-2" transform="translate(39.9485,-16.1166) rotate(0.1)">
				<title>工作表.2</title>
				<desc>空無相無作</desc>
				<rect x="0" y="22.9937" width="75.5664" height="4.87064" class="st1"/>
				<text x="-0" y="28.43" class="st2">空、無相、無作</text>			</g>
			<g id="shape2-5" transform="translate(184.411,-16.6625) rotate(0.1)">
				<title>工作表.3</title>
				<desc>淺</desc>
				<rect x="0" y="22.9937" width="17.0043" height="4.87064" class="st1"/>
				<text x="-0" y="28.43" class="st2">淺</text>			</g>
			<g id="shape3-8" transform="translate(0.0486324,-8.70007) rotate(0.1)">
				<title>工作表.4</title>
				<desc>般若相</desc>
				<rect x="0" y="22.9937" width="45.8801" height="4.87064" class="st1"/>
				<text x="-0" y="28.43" class="st2">般若相</text>			</g>
			<g id="shape4-11" transform="translate(39.8916,-1.25274) rotate(0.1)">
				<title>工作表.5</title>
				<desc>不生滅垢淨無依止虛空相</desc>
				<rect x="0" y="22.9937" width="123.298" height="4.87064" class="st1"/>
				<text x="-0" y="28.43" class="st2">不生滅垢淨，無依止虛空相</text>			</g>
			<g id="shape5-14" transform="translate(184.446,-0.845864) rotate(0.1)">
				<title>工作表.6</title>
				<desc>深</desc>
				<rect x="0" y="22.9937" width="12.189" height="4.87064" class="st1"/>
				<text x="0" y="28.43" class="st2">深</text>			</g>
			<g id="shape6-17" transform="translate(217.566,-1.07616) rotate(0.1)">
				<title>工作表.7</title>
				<desc>大乘不共</desc>
				<rect x="0" y="22.9937" width="41.082" height="4.87064" class="st1"/>
				<text x="-0" y="28.43" class="st2">大乘不共</text>			</g>
			<g id="group7-20" transform="translate(59.5977,6.59313) rotate(90.1)">
				<title>工作表.16</title>
				<g id="shape8-21">
					<title>工作表.8</title>
					<path d="M0 22.2 C0 23.76 0.79 25.03 1.79 25.03 L8.89 25.03 C9.86 25.03 10.65 26.31 10.65 27.86 C10.65 26.31
								 11.45 25.03 12.44 25.03 L19.54 25.03 C20.52 25.03 21.31 23.76 21.31 22.2 L0 22.2 Z" class="st3"/>
				</g>
				<g id="shape9-23">
					<title>工作表.9</title>
					<path d="M0 22.2 C0 23.76 0.79 25.03 1.79 25.03 L8.89 25.03 C9.86 25.03 10.65 26.31 10.65 27.86 C10.65 26.31
								 11.45 25.03 12.44 25.03 L19.54 25.03 C20.52 25.03 21.31 23.76 21.31 22.2 L0 22.2 Z" class="st4"/>
					<path d="M0 22.2 C0 23.76 0.79 25.03 1.79 25.03 L8.89 25.03 C9.86 25.03 10.65 26.31 10.65 27.86 C10.65 26.31
								 11.45 25.03 12.44 25.03 L19.54 25.03 C20.52 25.03 21.31 23.76 21.31 22.2" class="st5"/>
				</g>
			</g>
			<g id="shape10-26" transform="translate(112.636,-18.3573)">
				<title>工作表.17</title>
				<path d="M0 27.86 L69.26 27.86 L0 27.86 Z" class="st4"/>
				<path d="M0 27.86 L69.26 27.86" class="st5"/>
			</g>
			<g id="shape11-29" transform="translate(196.02,-18.4011) rotate(0.0450986)">
				<title>工作表.18</title>
				<path d="M0 27.86 L20.25 27.86 L0 27.86 Z" class="st4"/>
				<path d="M0 27.86 L20.25 27.86" class="st5"/>
			</g>
			<g id="shape12-32" transform="translate(162.33,-3.3694) rotate(0.0450986)">
				<title>工作表.19</title>
				<path d="M0 27.86 L18.36 27.86 L0 27.86 Z" class="st4"/>
				<path d="M0 27.86 L18.36 27.86" class="st5"/>
			</g>
			<g id="shape13-35" transform="translate(197.675,-3.31628)">
				<title>工作表.20</title>
				<path d="M0 27.86 L17.15 27.86 L0 27.86 Z" class="st4"/>
				<path d="M0 27.86 L17.15 27.86" class="st5"/>
			</g>
			<g id="shape14-38" transform="translate(217.277,-16.6927) rotate(0.1)">
				<title>工作表.21</title>
				<desc>三乘共</desc>
				<rect x="0" y="22.9937" width="34.2966" height="4.87064" class="st1"/>
				<text x="-0" y="28.43" class="st2">三乘共</text>			</g>
		</g>
	</g>
</svg>
