<?xml version="1.0" encoding="UTF-8" standalone="no"?>
<!DOCTYPE svg PUBLIC "-//W3C//DTD SVG 1.1//EN" "http://www.w3.org/Graphics/SVG/1.1/DTD/svg11.dtd">
<!-- 由 Microsoft Visio, SVG Export 產生 B02505.svg 頁-1 -->
<svg xmlns="http://www.w3.org/2000/svg" xmlns:xlink="http://www.w3.org/1999/xlink" xmlns:ev="http://www.w3.org/2001/xml-events"
		xmlns:v="http://schemas.microsoft.com/visio/2003/SVGExtensions/" width="1.89736in" height="1.01938in"
		viewBox="0 0 136.61 73.3953" xml:space="preserve" color-interpolation-filters="sRGB" class="st5">
	<v:documentProperties v:langID="1028" v:viewMarkup="false"/>

	<style type="text/css">
	<![CDATA[
		.st1 {fill:none;stroke:none;stroke-linecap:butt;stroke-width:0.75}
		.st2 {fill:#000000;font-family:新細明體;font-size:0.833336em}
		.st3 {fill:none}
		.st4 {stroke:#000000;stroke-linecap:round;stroke-linejoin:round;stroke-width:0.5625}
		.st5 {fill:none;fill-rule:evenodd;font-size:12px;overflow:visible;stroke-linecap:square;stroke-miterlimit:3}
	]]>
	</style>

	<g v:mID="0" v:index="1" v:groupContext="foregroundPage">
		<title>頁-1</title>
		<v:pageProperties v:drawingScale="0.0393701" v:pageScale="0.0393701" v:drawingUnits="24" v:shadowOffsetX="9"
				v:shadowOffsetY="-9"/>
		<g id="shape2-1" v:mID="2" v:groupContext="shape" transform="translate(81.9311,-62.1837) rotate(0.1)">
			<title>工作表.2</title>
			<desc>捨寂定樂</desc>
			<v:textBlock v:margins="rect(0,0,0,0)" v:tabSpace="42.5197"/>
			<v:textRect cx="22.8605" cy="68.413" width="45.73" height="9.96453"/>
			<rect x="0" y="63.4308" width="45.721" height="9.96453" class="st1"/>
			<text x="0" y="71.53" class="st2" v:langID="1028"><v:paragraph/><v:tabList/>捨寂定樂</text>		</g>
		<g id="shape3-4" v:mID="3" v:groupContext="shape" transform="translate(81.9052,-46.9871) rotate(0.1)">
			<title>工作表.3</title>
			<desc>受諸勞苦</desc>
			<v:textBlock v:margins="rect(0,0,0,0)" v:tabSpace="42.5197"/>
			<v:textRect cx="22.8742" cy="68.413" width="45.75" height="9.96453"/>
			<rect x="0" y="63.4308" width="45.7485" height="9.96453" class="st1"/>
			<text x="0" y="71.53" class="st2" v:langID="1028"><v:paragraph/><v:tabList/>受諸勞苦</text>		</g>
		<g id="shape4-7" v:mID="4" v:groupContext="shape" transform="translate(0.878099,-31.8914) rotate(0.1)">
			<title>工作表.4</title>
			<desc>佛為眾生受五事</desc>
			<v:textBlock v:margins="rect(0,0,0,0)" v:tabSpace="42.5197"/>
			<v:textRect cx="36.3181" cy="68.413" width="72.64" height="9.96453"/>
			<rect x="0" y="63.4308" width="72.6362" height="9.96453" class="st1"/>
			<text x="-0" y="71.53" class="st2" v:langID="1028"><v:paragraph/><v:tabList/>佛為眾生受五事</text>		</g>
		<g id="shape5-10" v:mID="5" v:groupContext="shape" transform="translate(81.878,-31.7501) rotate(0.1)">
			<title>工作表.5</title>
			<desc>與惡人共事</desc>
			<v:textBlock v:margins="rect(0,0,0,0)" v:tabSpace="42.5197"/>
			<v:textRect cx="27.0463" cy="68.413" width="54.1" height="9.96453"/>
			<rect x="0" y="63.4308" width="54.0927" height="9.96453" class="st1"/>
			<text x="-0" y="71.53" class="st2" v:langID="1028"><v:paragraph/><v:tabList/>與惡人共事</text>		</g>
		<g id="shape6-13" v:mID="6" v:groupContext="shape" transform="translate(81.8514,-16.513) rotate(0.1)">
			<title>工作表.6</title>
			<desc>與人接對</desc>
			<v:textBlock v:margins="rect(0,0,0,0)" v:tabSpace="42.5197"/>
			<v:textRect cx="21.3771" cy="68.413" width="42.76" height="9.96453"/>
			<rect x="0" y="63.4308" width="42.7541" height="9.96453" class="st1"/>
			<text x="-0" y="71.53" class="st2" v:langID="1028"><v:paragraph/><v:tabList/>與人接對</text>		</g>
		<g id="shape7-16" v:mID="7" v:groupContext="shape" transform="translate(81.8255,-1.31644) rotate(0.1)">
			<title>工作表.7</title>
			<desc>入大眾會</desc>
			<v:textBlock v:margins="rect(0,0,0,0)" v:tabSpace="42.5197"/>
			<v:textRect cx="26.16" cy="68.413" width="52.32" height="9.96453"/>
			<rect x="0" y="63.4308" width="52.32" height="9.96453" class="st1"/>
			<text x="0" y="71.53" class="st2" v:langID="1028"><v:paragraph/><v:tabList/>入大眾會</text>		</g>
		<g id="shape16-19" v:mID="16" v:groupContext="shape" transform="translate(146.849,2.98003) rotate(90.1)">
			<title>工作表.16</title>
			<path d="M0 67.73 C0 69.29 2.57 70.56 5.73 70.56 L28.56 70.56 C31.72 70.56 34.25 71.83 34.25 73.4 C34.25 71.83 36.83
						 70.56 39.98 70.56 L62.82 70.56 C65.97 70.56 68.51 69.29 68.51 67.73 L0 67.73 Z" class="st3"/>
			<path d="M0 67.73 C0 69.29 2.57 70.56 5.73 70.56 L28.56 70.56 C31.72 70.56 34.25 71.83 34.25 73.4 C34.25 71.83 36.83
						 70.56 39.98 70.56 L62.82 70.56 C65.97 70.56 68.51 69.29 68.51 67.73" class="st4"/>
		</g>
	</g>
</svg>
