<?xml version="1.0" encoding="UTF-8" standalone="no"?>
<!DOCTYPE svg PUBLIC "-//W3C//DTD SVG 1.1//EN" "http://www.w3.org/Graphics/SVG/1.1/DTD/svg11.dtd">
<!-- 由 Microsoft Visio, SVG Export 產生 B02507.svg 頁-1 -->
<svg xmlns="http://www.w3.org/2000/svg" xmlns:xlink="http://www.w3.org/1999/xlink" xmlns:ev="http://www.w3.org/2001/xml-events"
		xmlns:v="http://schemas.microsoft.com/visio/2003/SVGExtensions/" width="3.51109in" height="0.780412in"
		viewBox="0 0 252.798 56.1896" xml:space="preserve" color-interpolation-filters="sRGB" class="st5">
	<v:documentProperties v:langID="1028" v:viewMarkup="false"/>

	<style type="text/css">
	<![CDATA[
		.st1 {fill:none;stroke:none;stroke-linecap:butt;stroke-width:0.75}
		.st2 {fill:#000000;font-family:新細明體;font-size:0.833336em}
		.st3 {fill:none}
		.st4 {stroke:#000000;stroke-linecap:round;stroke-linejoin:round;stroke-width:0.5625}
		.st5 {fill:none;fill-rule:evenodd;font-size:12px;overflow:visible;stroke-linecap:square;stroke-miterlimit:3}
	]]>
	</style>

	<g v:mID="0" v:index="1" v:groupContext="foregroundPage">
		<title>頁-1</title>
		<v:pageProperties v:drawingScale="0.0393701" v:pageScale="0.0393701" v:drawingUnits="24" v:shadowOffsetX="9"
				v:shadowOffsetY="-9"/>
		<g id="shape2-1" v:mID="2" v:groupContext="shape" transform="translate(42.126,-46.4549) rotate(0.1)">
			<title>工作表.2</title>
			<desc>佛法</desc>
			<v:textBlock v:margins="rect(0,0,0,0)" v:tabSpace="42.5197"/>
			<v:textRect cx="14.8075" cy="52.6839" width="29.62" height="7.01147"/>
			<rect x="0" y="49.1782" width="29.6151" height="7.01147" class="st1"/>
			<text x="0" y="55.8" class="st2" v:langID="1028"><v:paragraph/><v:tabList/>佛法</text>		</g>
		<g id="shape3-4" v:mID="3" v:groupContext="shape" transform="translate(109.839,-46.4162) rotate(0.1)">
			<title>工作表.3</title>
			<desc>一切無明睡眠中最初覺故</desc>
			<v:textBlock v:margins="rect(0,0,0,0)" v:tabSpace="42.5197"/>
			<v:textRect cx="59.9669" cy="52.6839" width="119.94" height="7.01147"/>
			<rect x="0" y="49.1782" width="119.934" height="7.01147" class="st1"/>
			<text x="0" y="55.8" class="st2" v:langID="1028"><v:paragraph/><v:tabList/>一切無明睡眠中最初覺故</text>		</g>
		<g id="shape4-7" v:mID="4" v:groupContext="shape" transform="translate(42.098,-31.988) rotate(0.1)">
			<title>工作表.4</title>
			<desc>如來法</desc>
			<v:textBlock v:margins="rect(0,0,0,0)" v:tabSpace="42.5197"/>
			<v:textRect cx="23.1131" cy="52.6839" width="46.23" height="7.01147"/>
			<rect x="0" y="49.1782" width="46.2262" height="7.01147" class="st1"/>
			<text x="0" y="55.8" class="st2" v:langID="1028"><v:paragraph/><v:tabList/>如來法</text>		</g>
		<g id="shape5-10" v:mID="5" v:groupContext="shape" transform="translate(109.81,-31.953) rotate(0.1)">
			<title>工作表.5</title>
			<desc>如過佛行六度得如相來佛道故</desc>
			<v:textBlock v:margins="rect(0,0,0,0)" v:tabSpace="42.5197"/>
			<v:textRect cx="71.1619" cy="52.6839" width="142.33" height="7.01147"/>
			<rect x="0" y="49.1782" width="142.324" height="7.01147" class="st1"/>
			<text x="0" y="55.8" class="st2" v:langID="1028"><v:paragraph/><v:tabList/>如過佛行六度，得如相來佛道故</text>		</g>
		<g id="shape6-13" v:mID="6" v:groupContext="shape" transform="translate(0.848069,-22.7344) rotate(0.1)">
			<title>工作表.6</title>
			<desc>佛四事</desc>
			<v:textBlock v:margins="rect(0,0,0,0)" v:tabSpace="42.5197"/>
			<v:textRect cx="23.1633" cy="52.6839" width="46.33" height="7.01147"/>
			<rect x="0" y="49.1782" width="46.3266" height="7.01147" class="st1"/>
			<text x="0" y="55.8" class="st2" v:langID="1028"><v:paragraph/><v:tabList/>佛四事</text>		</g>
		<g id="shape7-16" v:mID="7" v:groupContext="shape" transform="translate(42.0363,-15.5635) rotate(0.1)">
			<title>工作表.7</title>
			<desc>自然人法</desc>
			<v:textBlock v:margins="rect(0,0,0,0)" v:tabSpace="42.5197"/>
			<v:textRect cx="30.5122" cy="50.7896" width="61.03" height="10.8"/>
			<rect x="0" y="45.3896" width="61.0244" height="10.8" class="st1"/>
			<text x="0" y="53.9" class="st2" v:langID="1028"><v:paragraph/><v:tabList/>自然人法</text>		</g>
		<g id="shape8-19" v:mID="8" v:groupContext="shape" transform="translate(109.749,-15.4614) rotate(0.1)">
			<title>工作表.8</title>
			<desc>簡聲聞</desc>
			<v:textBlock v:margins="rect(0,0,0,0)" v:tabSpace="42.5197"/>
			<v:textRect cx="26.1362" cy="50.7896" width="52.28" height="10.8"/>
			<rect x="0" y="45.3896" width="52.2724" height="10.8" class="st1"/>
			<text x="0" y="53.9" class="st2" v:langID="1028"><v:paragraph/><v:tabList/>簡聲聞</text>		</g>
		<g id="shape9-22" v:mID="9" v:groupContext="shape" transform="translate(42.0083,-0.983403) rotate(0.1)">
			<title>工作表.9</title>
			<desc>一切智人法</desc>
			<v:textBlock v:margins="rect(0,0,0,0)" v:tabSpace="42.5197"/>
			<v:textRect cx="30.3845" cy="50.7896" width="60.77" height="10.8"/>
			<rect x="0" y="45.3896" width="60.769" height="10.8" class="st1"/>
			<text x="-0" y="53.9" class="st2" v:langID="1028"><v:paragraph/><v:tabList/>一切智人法</text>		</g>
		<g id="shape10-25" v:mID="10" v:groupContext="shape" transform="translate(109.485,-0.881301) rotate(0.1)">
			<title>工作表.10</title>
			<desc>簡辟支</desc>
			<v:textBlock v:margins="rect(0,0,0,0)" v:tabSpace="42.5197"/>
			<v:textRect cx="17.1507" cy="50.7896" width="34.31" height="10.8"/>
			<rect x="0" y="45.3896" width="34.3014" height="10.8" class="st1"/>
			<text x="0" y="53.9" class="st2" v:langID="1028"><v:paragraph/><v:tabList/>簡辟支</text>		</g>
		<g id="shape17-28" v:mID="17" v:groupContext="shape" transform="translate(89.6131,1.21096) rotate(90.1)">
			<title>工作表.17</title>
			<path d="M0 50.52 C0 52.09 2.01 53.35 4.48 53.35 L22.34 53.35 C24.81 53.35 26.79 54.62 26.79 56.19 C26.79 54.62 28.8
						 53.35 31.27 53.35 L49.13 53.35 C51.6 53.35 53.58 52.09 53.58 50.52 L0 50.52 Z" class="st3"/>
			<path d="M0 50.52 C0 52.09 2.01 53.35 4.48 53.35 L22.34 53.35 C24.81 53.35 26.79 54.62 26.79 56.19 C26.79 54.62 28.8
						 53.35 31.27 53.35 L49.13 53.35 C51.6 53.35 53.58 52.09 53.58 50.52" class="st4"/>
		</g>
		<g id="shape18-31" v:mID="18" v:groupContext="shape" transform="translate(64.5626,-50.3817)">
			<title>工作表.18</title>
			<path d="M0 56.19 L42.52 56.19" class="st4"/>
		</g>
		<g id="shape19-34" v:mID="19" v:groupContext="shape" transform="translate(74.4189,-35.7342) rotate(-0.0660538)">
			<title>工作表.19</title>
			<path d="M0 56.19 L32.6 56.19" class="st4"/>
		</g>
		<g id="shape20-37" v:mID="20" v:groupContext="shape" transform="translate(84.4051,-21.1593)">
			<title>工作表.20</title>
			<path d="M0 56.19 L22.68 56.19" class="st4"/>
		</g>
		<g id="shape21-40" v:mID="21" v:groupContext="shape" transform="translate(93.6325,-6.755) rotate(0.1)">
			<title>工作表.21</title>
			<path d="M0 56.19 L13.5 56.19" class="st4"/>
		</g>
	</g>
</svg>
