<?xml version="1.0" encoding="UTF-8" standalone="no"?>
<!DOCTYPE svg PUBLIC "-//W3C//DTD SVG 1.1//EN" "http://www.w3.org/Graphics/SVG/1.1/DTD/svg11.dtd">
<!-- 由 Microsoft Visio, SVG Export 產生 B02606.svg 頁-1 -->
<svg xmlns="http://www.w3.org/2000/svg" xmlns:xlink="http://www.w3.org/1999/xlink" xmlns:ev="http://www.w3.org/2001/xml-events"
		xmlns:v="http://schemas.microsoft.com/visio/2003/SVGExtensions/" width="4.39781in" height="0.485587in"
		viewBox="0 0 316.643 34.9623" xml:space="preserve" color-interpolation-filters="sRGB" class="st5">
	<v:documentProperties v:langID="1028" v:viewMarkup="false"/>

	<style type="text/css">
	<![CDATA[
		.st1 {fill:none;stroke:none;stroke-linecap:butt;stroke-width:0.75}
		.st2 {fill:#000000;font-family:新細明體;font-size:0.833336em}
		.st3 {fill:none}
		.st4 {stroke:#000000;stroke-linecap:round;stroke-linejoin:round;stroke-width:0.5625}
		.st5 {fill:none;fill-rule:evenodd;font-size:12px;overflow:visible;stroke-linecap:square;stroke-miterlimit:3}
	]]>
	</style>

	<g v:mID="0" v:index="1" v:groupContext="foregroundPage">
		<title>頁-1</title>
		<v:pageProperties v:drawingScale="0.0393701" v:pageScale="0.0393701" v:drawingUnits="24" v:shadowOffsetX="9"
				v:shadowOffsetY="-9"/>
		<g id="shape2-1" v:mID="2" v:groupContext="shape" transform="translate(2.72042,-23.4122) rotate(0.1)">
			<title>工作表.2</title>
			<v:textBlock v:margins="rect(0,0,0,0)"/>
			<rect x="0" y="24.1623" width="93" height="10.8" class="st1"/>
		</g>
		<g id="shape3-3" v:mID="3" v:groupContext="shape" transform="translate(52.0817,-21.1119) rotate(0.1)">
			<title>工作表.3</title>
			<desc>煩惱依止有為</desc>
			<v:textBlock v:margins="rect(0,0,0,0)" v:tabSpace="42.5197"/>
			<v:textRect cx="33.8024" cy="31.3244" width="67.61" height="7.27567"/>
			<rect x="0" y="27.6866" width="67.6048" height="7.27567" class="st1"/>
			<text x="-0" y="34.44" class="st2" v:langID="1028"><v:paragraph/><v:tabList/>煩惱依止有為</text>		</g>
		<g id="shape4-6" v:mID="4" v:groupContext="shape" transform="translate(124.22,-23.2002) rotate(0.1)">
			<title>工作表.4</title>
			<v:textBlock v:margins="rect(0,0,0,0)"/>
			<rect x="0" y="24.1623" width="108" height="10.8" class="st1"/>
		</g>
		<g id="shape5-8" v:mID="5" v:groupContext="shape" transform="translate(162.361,-20.9628) rotate(0.1)">
			<title>工作表.5</title>
			<desc>煩惱見說無依止</desc>
			<v:textBlock v:margins="rect(0,0,0,0)" v:tabSpace="42.5197"/>
			<v:textRect cx="41.5457" cy="31.3244" width="83.1" height="7.27567"/>
			<rect x="0" y="27.6866" width="83.0913" height="7.27567" class="st1"/>
			<text x="0" y="34.44" class="st2" v:langID="1028"><v:paragraph/><v:tabList/>煩惱見，說無依止</text>		</g>
		<g id="shape6-11" v:mID="6" v:groupContext="shape" transform="translate(0.811021,-12.1622) rotate(0.1)">
			<title>工作表.6</title>
			<desc>二種依止</desc>
			<v:textBlock v:margins="rect(0,0,0,0)" v:tabSpace="42.5197"/>
			<v:textRect cx="22.5" cy="29.5623" width="45" height="10.8"/>
			<rect x="0" y="24.1623" width="45" height="10.8" class="st1"/>
			<text x="0" y="32.68" class="st2" v:langID="1028"><v:paragraph/><v:tabList/>二種依止 </text>		</g>
		<g id="shape7-14" v:mID="7" v:groupContext="shape" transform="translate(253.661,-11.4706) rotate(0.1)">
			<title>工作表.7</title>
			<desc>依止無依止。</desc>
			<v:textBlock v:margins="rect(0,0,0,0)" v:tabSpace="42.5197"/>
			<v:textRect cx="31.1369" cy="29.5623" width="62.28" height="10.8"/>
			<rect x="0" y="24.1623" width="62.2739" height="10.8" class="st1"/>
			<text x="0" y="32.68" class="st2" v:langID="1028"><v:paragraph/><v:tabList/>依止無依止。</text>		</g>
		<g id="shape8-17" v:mID="8" v:groupContext="shape" transform="translate(2.68115,-0.912262) rotate(0.1)">
			<title>工作表.8</title>
			<v:textBlock v:margins="rect(0,0,0,0)"/>
			<rect x="0" y="24.1623" width="93" height="10.8" class="st1"/>
		</g>
		<g id="shape9-19" v:mID="9" v:groupContext="shape" transform="translate(52.0424,-5.96152) rotate(0.1)">
			<title>工作表.9</title>
			<desc>清淨智慧依止涅槃</desc>
			<v:textBlock v:margins="rect(0,0,0,0)" v:tabSpace="42.5197"/>
			<v:textRect cx="46.5781" cy="31.3244" width="93.16" height="7.27567"/>
			<rect x="0" y="27.6866" width="93.1561" height="7.27567" class="st1"/>
			<text x="0" y="34.44" class="st2" v:langID="1028"><v:paragraph/><v:tabList/>清淨智慧，依止涅槃</text>		</g>
		<g id="shape10-22" v:mID="10" v:groupContext="shape" transform="translate(133.042,-5.84744) rotate(0.1)">
			<title>工作表.10</title>
			<v:textBlock v:margins="rect(0,0,0,0)"/>
			<rect x="0" y="27.6866" width="27" height="7.27567" class="st1"/>
		</g>
		<g id="shape11-24" v:mID="11" v:groupContext="shape" transform="translate(162.322,-5.80216) rotate(0.1)">
			<title>工作表.11</title>
			<desc>淨智慧說依止</desc>
			<v:textBlock v:margins="rect(0,0,0,0)" v:tabSpace="42.5197"/>
			<v:textRect cx="36.1784" cy="31.3244" width="72.36" height="7.27567"/>
			<rect x="0" y="27.6866" width="72.3568" height="7.27567" class="st1"/>
			<text x="0" y="34.44" class="st2" v:langID="1028"><v:paragraph/><v:tabList/>淨智慧，說依止</text>		</g>
		<g id="shape18-27" v:mID="18" v:groupContext="shape" transform="translate(78.503,4.94066) rotate(90.1)">
			<title>工作表.18</title>
			<path d="M0 29.34 C0 30.89 0.95 32.15 2.11 32.15 L10.61 32.15 C11.8 32.15 12.76 33.42 12.76 34.96 C12.76 33.42 13.71
						 32.15 14.87 32.15 L23.37 32.15 C24.56 32.15 25.51 30.89 25.51 29.34 L0 29.34 Z" class="st3"/>
			<path d="M0 29.34 C0 30.89 0.95 32.15 2.11 32.15 L10.61 32.15 C11.8 32.15 12.76 33.42 12.76 34.96 C12.76 33.42 13.71
						 32.15 14.87 32.15 L23.37 32.15 C24.56 32.15 25.51 30.89 25.51 29.34" class="st4"/>
		</g>
		<g id="shape19-30" v:mID="19" v:groupContext="shape" transform="translate(114.635,-24.3479)">
			<title>工作表.19</title>
			<path d="M0 34.96 L44.68 34.96" class="st4"/>
		</g>
		<g id="shape20-33" v:mID="20" v:groupContext="shape" transform="translate(145.185,-9.55371) rotate(0.0673673)">
			<title>工作表.20</title>
			<path d="M0 34.96 L14.84 34.96" class="st4"/>
		</g>
		<g id="shape21-36" v:mID="21" v:groupContext="shape" transform="translate(278.772,4.9419) rotate(90.1)">
			<title>工作表.21</title>
			<path d="M0 34.96 C0 33.39 0.99 32.11 2.18 32.11 L10.86 32.11 C12.08 32.11 13.04 30.84 13.04 29.29 C13.04 30.84 14 32.11
						 15.22 32.11 L23.89 32.11 C25.09 32.11 26.08 33.39 26.08 34.96 L0 34.96 Z" class="st3"/>
			<path d="M0 34.96 C0 33.39 0.99 32.11 2.18 32.11 L10.86 32.11 C12.08 32.11 13.04 30.84 13.04 29.29 C13.04 30.84 14 32.11
						 15.22 32.11 L23.89 32.11 C25.09 32.11 26.08 33.39 26.08 34.96" class="st4"/>
		</g>
	</g>
</svg>
