<?xml version="1.0" encoding="UTF-8" standalone="no"?>
<!DOCTYPE svg PUBLIC "-//W3C//DTD SVG 1.1//EN" "http://www.w3.org/Graphics/SVG/1.1/DTD/svg11.dtd">
<!-- 由 Microsoft Visio, SVG Export 產生 B02601.svg 頁-1 -->
<svg xmlns="http://www.w3.org/2000/svg" xmlns:xlink="http://www.w3.org/1999/xlink" xmlns:ev="http://www.w3.org/2001/xml-events"
		xmlns:v="http://schemas.microsoft.com/visio/2003/SVGExtensions/" width="6.16506in" height="0.630465in"
		viewBox="0 0 443.884 45.3935" xml:space="preserve" color-interpolation-filters="sRGB" class="st5">
	<v:documentProperties v:langID="1028" v:viewMarkup="false"/>

	<style type="text/css">
	<![CDATA[
		.st1 {fill:none;stroke:none;stroke-linecap:butt;stroke-width:0.75}
		.st2 {fill:#000000;font-family:新細明體;font-size:0.833336em}
		.st3 {fill:none}
		.st4 {stroke:#000000;stroke-linecap:round;stroke-linejoin:round;stroke-width:0.5625}
		.st5 {fill:none;fill-rule:evenodd;font-size:12px;overflow:visible;stroke-linecap:square;stroke-miterlimit:3}
	]]>
	</style>

	<g v:mID="0" v:index="1" v:groupContext="foregroundPage">
		<title>頁-1</title>
		<v:pageProperties v:drawingScale="0.0393701" v:pageScale="0.0393701" v:drawingUnits="24" v:shadowOffsetX="9"
				v:shadowOffsetY="-9"/>
		<g id="shape3-1" v:mID="3" v:groupContext="shape" transform="translate(71.4701,-32.194) rotate(0.1)">
			<title>工作表.3</title>
			<desc>下、直信聽受不問中義</desc>
			<v:textBlock v:margins="rect(0,0,0,0)" v:tabSpace="42.5197"/>
			<v:textRect cx="61.9517" cy="39.9935" width="123.91" height="10.8"/>
			<rect x="0" y="34.5935" width="123.903" height="10.8" class="st1"/>
			<text x="0" y="43.11" class="st2" v:langID="1028"><v:paragraph/><v:tabList/>下、直信聽受，不問中義</text>		</g>
		<g id="shape4-4" v:mID="4" v:groupContext="shape" transform="translate(171.887,-33.8435) rotate(0.1)">
			<title>工作表.4</title>
			<v:textBlock v:margins="rect(0,0,0,0)"/>
			<rect x="0" y="34.5935" width="27" height="10.8" class="st1"/>
		</g>
		<g id="shape5-6" v:mID="5" v:groupContext="shape" transform="translate(198.796,-32.1922) rotate(0.1)">
			<title>工作表.5</title>
			<desc>得人身聞般若疑悔難悟。</desc>
			<v:textBlock v:margins="rect(0,0,0,0)" v:tabSpace="42.5197"/>
			<v:textRect cx="64.0421" cy="39.9935" width="128.09" height="10.8"/>
			<rect x="0" y="34.5935" width="128.084" height="10.8" class="st1"/>
			<text x="0" y="43.11" class="st2" v:langID="1028"><v:paragraph/><v:tabList/>得人身，聞般若疑悔難悟。</text>		</g>
		<g id="shape6-9" v:mID="6" v:groupContext="shape" transform="translate(297.887,-33.6235) rotate(0.1)">
			<title>工作表.6</title>
			<v:textBlock v:margins="rect(0,0,0,0)"/>
			<rect x="0" y="34.5935" width="126" height="10.8" class="st1"/>
		</g>
		<g id="shape7-11" v:mID="7" v:groupContext="shape" transform="translate(393.24,-24.9247) rotate(0.1)">
			<title>工作表.7</title>
			<desc>當墮二乘</desc>
			<v:textBlock v:margins="rect(0,0,0,0)" v:tabSpace="42.5197"/>
			<v:textRect cx="24.9771" cy="39.9935" width="49.96" height="10.8"/>
			<rect x="0" y="34.5935" width="49.9542" height="10.8" class="st1"/>
			<text x="-0" y="43.11" class="st2" v:langID="1028"><v:paragraph/><v:tabList/>當墮二乘</text>		</g>
		<g id="shape8-14" v:mID="8" v:groupContext="shape" transform="translate(0.85805,-17.6266) rotate(0.1)">
			<title>工作表.8</title>
			<desc>行般若人三種</desc>
			<v:textBlock v:margins="rect(0,0,0,0)"/>
			<v:textRect cx="98.3921" cy="39.9935" width="196.79" height="10.8"/>
			<rect x="0" y="34.5935" width="196.784" height="10.8" class="st1"/>
			<text x="0" y="43.11" class="st2" v:langID="1028"><v:paragraph/><v:tabList/>行般若人三種  </text>		</g>
		<g id="shape9-17" v:mID="9" v:groupContext="shape" transform="translate(198.767,-17.2967) rotate(0.1)">
			<title>工作表.9</title>
			<desc>得人身聞般若始信堅固終不信樂。</desc>
			<v:textBlock v:margins="rect(0,0,0,0)" v:tabSpace="42.5197"/>
			<v:textRect cx="95.3088" cy="39.9935" width="190.62" height="10.8"/>
			<rect x="0" y="34.5935" width="190.618" height="10.8" class="st1"/>
			<text x="-0" y="43.11" class="st2" v:langID="1028"><v:paragraph/><v:tabList/>得人身，聞般若，始信堅固，終不信樂。</text>		</g>
		<g id="shape10-20" v:mID="10" v:groupContext="shape" transform="translate(0.829227,-1.11189) rotate(0.1)">
			<title>工作表.10</title>
			<v:textBlock v:margins="rect(0,0,0,0)"/>
			<rect x="0" y="34.5935" width="108" height="10.8" class="st1"/>
		</g>
		<g id="shape11-22" v:mID="11" v:groupContext="shape" transform="translate(71.6143,-2.40287) rotate(0.1)">
			<title>工作表.11</title>
			<desc>上、聞解能行。</desc>
			<v:textBlock v:margins="rect(0,0,0,0)" v:tabSpace="42.5197"/>
			<v:textRect cx="39.7285" cy="39.9935" width="79.46" height="10.8"/>
			<rect x="0" y="34.5935" width="79.4571" height="10.8" class="st1"/>
			<text x="0" y="43.11" class="st2" v:langID="1028"><v:paragraph/><v:tabList/>上、聞解能行。</text>		</g>
		<g id="shape12-25" v:mID="12" v:groupContext="shape" transform="translate(135.829,-0.875595) rotate(0.1)">
			<title>工作表.12</title>
			<v:textBlock v:margins="rect(0,0,0,0)"/>
			<rect x="0" y="34.5935" width="72" height="10.8" class="st1"/>
		</g>
		<g id="shape13-27" v:mID="13" v:groupContext="shape" transform="translate(198.738,-2.19867) rotate(0.1)">
			<title>工作表.13</title>
			<desc>得人身聞般若心即深解信樂不捨。</desc>
			<v:textBlock v:margins="rect(0,0,0,0)" v:tabSpace="42.5197"/>
			<v:textRect cx="91.7798" cy="39.9935" width="183.56" height="10.8"/>
			<rect x="0" y="34.5935" width="183.56" height="10.8" class="st1"/>
			<text x="0" y="43.11" class="st2" v:langID="1028"><v:paragraph/><v:tabList/>得人身，聞般若，心即深解，信樂不捨。</text>		</g>
		<g id="shape22-30" v:mID="22" v:groupContext="shape" transform="translate(108.353,2.63321) rotate(90.1)">
			<title>工作表.22</title>
			<path d="M0 39.72 C0 41.29 1.47 42.56 3.29 42.56 L16.52 42.56 C18.37 42.56 19.84 43.84 19.84 45.39 C19.84 43.84 21.32
						 42.56 23.13 42.56 L36.36 42.56 C38.21 42.56 39.68 41.29 39.68 39.72 L0 39.72 Z" class="st3"/>
			<path d="M0 39.72 C0 41.29 1.47 42.56 3.29 42.56 L16.52 42.56 C18.37 42.56 19.84 43.84 19.84 45.39 C19.84 43.84 21.32
						 42.56 23.13 42.56 L36.36 42.56 C38.21 42.56 39.68 41.29 39.68 39.72" class="st4"/>
		</g>
		<g id="shape23-33" v:mID="23" v:groupContext="shape" transform="translate(354.496,-17.0879) rotate(-28.4956)">
			<title>工作表.23</title>
			<path d="M0 45.39 L16.13 45.39" class="st4"/>
		</g>
		<g id="shape24-36" v:mID="24" v:groupContext="shape" transform="translate(321.416,-37.5204) rotate(5.80459)">
			<title>工作表.24</title>
			<path d="M0 45.39 L73.88 45.39" class="st4"/>
		</g>
		<g id="shape25-39" v:mID="25" v:groupContext="shape" transform="translate(183.595,-37.2139) rotate(0.1)">
			<title>工作表.25</title>
			<path d="M0 45.39 L13.5 45.39" class="st4"/>
		</g>
		<g id="shape26-42" v:mID="26" v:groupContext="shape" transform="translate(140.675,-7.78557)">
			<title>工作表.26</title>
			<path d="M0 45.39 L56.37 45.39" class="st4"/>
		</g>
		<g id="shape27-45" v:mID="27" v:groupContext="shape" transform="translate(183.567,-23.0838) rotate(0.1)">
			<title>工作表.27</title>
			<path d="M0 45.39 L13.5 45.39" class="st4"/>
		</g>
		<g id="shape28-48" v:mID="28" v:groupContext="shape" transform="translate(71.2263,-17.3228)">
			<title>工作表.28</title>
			<desc>中、聞已能問問而不行</desc>
			<v:textBlock v:margins="rect(0,0,0,0)"/>
			<v:textRect cx="57.781" cy="39.9935" width="115.57" height="10.8"/>
			<rect x="0" y="34.5935" width="115.562" height="10.8" class="st1"/>
			<text x="0" y="43.11" class="st2" v:langID="1028"><v:paragraph/><v:tabList/>中、聞已能問，問而不行</text>		</g>
	</g>
</svg>
