<?xml version="1.0" encoding="UTF-8" standalone="no"?>
<!DOCTYPE svg PUBLIC "-//W3C//DTD SVG 1.1//EN" "http://www.w3.org/Graphics/SVG/1.1/DTD/svg11.dtd">
<!-- 由 Microsoft Visio, SVG Export 產生 B02608.svg 頁-1 -->
<svg xmlns="http://www.w3.org/2000/svg" xmlns:xlink="http://www.w3.org/1999/xlink" xmlns:ev="http://www.w3.org/2001/xml-events"
		xmlns:v="http://schemas.microsoft.com/visio/2003/SVGExtensions/" width="2.84011in" height="0.486314in"
		viewBox="0 0 204.488 35.0146" xml:space="preserve" color-interpolation-filters="sRGB" class="st5">
	<v:documentProperties v:langID="1028" v:viewMarkup="false"/>

	<style type="text/css">
	<![CDATA[
		.st1 {fill:none;stroke:none;stroke-linecap:butt;stroke-width:0.75}
		.st2 {fill:#000000;font-family:新細明體;font-size:0.833336em}
		.st3 {fill:none}
		.st4 {stroke:#000000;stroke-linecap:round;stroke-linejoin:round;stroke-width:0.5625}
		.st5 {fill:none;fill-rule:evenodd;font-size:12px;overflow:visible;stroke-linecap:square;stroke-miterlimit:3}
	]]>
	</style>

	<g v:mID="0" v:index="1" v:groupContext="foregroundPage">
		<title>頁-1</title>
		<v:pageProperties v:drawingScale="0.0393701" v:pageScale="0.0393701" v:drawingUnits="24" v:shadowOffsetX="9"
				v:shadowOffsetY="-9"/>
		<g id="shape2-1" v:mID="2" v:groupContext="shape" transform="translate(2.90673,-23.4646) rotate(0.1)">
			<title>工作表.2</title>
			<v:textBlock v:margins="rect(0,0,0,0)"/>
			<rect x="0" y="24.2146" width="78" height="10.8" class="st1"/>
		</g>
		<g id="shape3-3" v:mID="3" v:groupContext="shape" transform="translate(61.4066,-23.3625) rotate(0.1)">
			<title>工作表.3</title>
			<v:textBlock v:margins="rect(0,0,0,0)"/>
			<rect x="0" y="24.2146" width="18" height="10.8" class="st1"/>
		</g>
		<g id="shape4-5" v:mID="4" v:groupContext="shape" transform="translate(81.4461,-21.1503) rotate(0.1)">
			<title>工作表.4</title>
			<desc>能觀諸法空不觀般若空。</desc>
			<v:textBlock v:margins="rect(0,0,0,0)" v:tabSpace="42.5197"/>
			<v:textRect cx="61.1704" cy="31.4152" width="122.35" height="7.19895"/>
			<rect x="0" y="27.8157" width="122.341" height="7.19895" class="st1"/>
			<text x="-0" y="34.53" class="st2" v:langID="1028"><v:paragraph/><v:tabList/>能觀諸法空，不觀般若空。</text>		</g>
		<g id="shape5-8" v:mID="5" v:groupContext="shape" transform="translate(0.811112,-13.794) rotate(0.1)">
			<title>工作表.5</title>
			<desc>二種行般若菩薩</desc>
			<v:textBlock v:margins="rect(0,0,0,0)" v:tabSpace="42.5197"/>
			<v:textRect cx="36" cy="31.4152" width="72" height="7.19895"/>
			<rect x="0" y="27.8157" width="72" height="7.19895" class="st1"/>
			<text x="0" y="34.53" class="st2" v:langID="1028"><v:paragraph/><v:tabList/>二種行般若菩薩 </text>		</g>
		<g id="shape6-11" v:mID="6" v:groupContext="shape" transform="translate(2.86746,-0.964622) rotate(0.1)">
			<title>工作表.6</title>
			<v:textBlock v:margins="rect(0,0,0,0)"/>
			<rect x="0" y="24.2146" width="123" height="10.8" class="st1"/>
		</g>
		<g id="shape7-13" v:mID="7" v:groupContext="shape" transform="translate(81.7625,-6.1447) rotate(0.1)">
			<title>工作表.7</title>
			<desc>觀諸法空亦觀般若空。</desc>
			<v:textBlock v:margins="rect(0,0,0,0)" v:tabSpace="42.5197"/>
			<v:textRect cx="58.9402" cy="31.4152" width="117.89" height="7.19895"/>
			<rect x="0" y="27.8157" width="117.88" height="7.19895" class="st1"/>
			<text x="0" y="34.53" class="st2" v:langID="1028"><v:paragraph/><v:tabList/>觀諸法空，亦觀般若空。</text>		</g>
		<g id="shape14-16" v:mID="14" v:groupContext="shape" transform="translate(108.002,5.14268) rotate(90.1)">
			<title>工作表.14</title>
			<path d="M0 29.35 C0 30.91 0.95 32.18 2.14 32.18 L10.65 32.18 C11.8 32.18 12.76 33.47 12.76 35.01 C12.76 33.47 13.71
						 32.18 14.9 32.18 L23.4 32.18 C24.56 32.18 25.51 30.91 25.51 29.35 L0 29.35 Z" class="st3"/>
			<path d="M0 29.35 C0 30.91 0.95 32.18 2.14 32.18 L10.65 32.18 C11.8 32.18 12.76 33.47 12.76 35.01 C12.76 33.47 13.71
						 32.18 14.9 32.18 L23.4 32.18 C24.56 32.18 25.51 30.91 25.51 29.35" class="st4"/>
		</g>
	</g>
</svg>
