<?xml version="1.0" encoding="UTF-8" standalone="no"?>
<!DOCTYPE svg PUBLIC "-//W3C//DTD SVG 1.1//EN" "http://www.w3.org/Graphics/SVG/1.1/DTD/svg11.dtd">
<!-- 由 Microsoft Visio, SVG Export 產生 B02603.svg 頁-1 -->
<svg xmlns="http://www.w3.org/2000/svg" xmlns:xlink="http://www.w3.org/1999/xlink" xmlns:ev="http://www.w3.org/2001/xml-events"
		xmlns:v="http://schemas.microsoft.com/visio/2003/SVGExtensions/" width="3.19999in" height="0.380904in"
		viewBox="0 0 230.4 27.4251" xml:space="preserve" color-interpolation-filters="sRGB" class="st5">
	<v:documentProperties v:langID="1028" v:viewMarkup="false"/>

	<style type="text/css">
	<![CDATA[
		.st1 {fill:none;stroke:none;stroke-linecap:butt;stroke-width:0.75}
		.st2 {fill:#000000;font-family:新細明體;font-size:0.833336em}
		.st3 {fill:none}
		.st4 {stroke:#000000;stroke-linecap:round;stroke-linejoin:round;stroke-width:0.5625}
		.st5 {fill:none;fill-rule:evenodd;font-size:12px;overflow:visible;stroke-linecap:square;stroke-miterlimit:3}
	]]>
	</style>

	<g v:mID="0" v:index="1" v:groupContext="foregroundPage">
		<title>頁-1</title>
		<v:pageProperties v:drawingScale="0.0393701" v:pageScale="0.0393701" v:drawingUnits="24" v:shadowOffsetX="9"
				v:shadowOffsetY="-9"/>
		<g id="shape2-1" v:mID="2" v:groupContext="shape" transform="translate(0.817501,-17.7178) rotate(0.1)">
			<title>工作表.2</title>
			<v:textBlock v:margins="rect(0,0,0,0)"/>
			<rect x="0" y="20.3061" width="78" height="7.11895" class="st1"/>
		</g>
		<g id="shape3-3" v:mID="3" v:groupContext="shape" transform="translate(51.5221,-17.6364) rotate(0.1)">
			<title>工作表.3</title>
			<desc>般若</desc>
			<v:textBlock v:margins="rect(0,0,0,0)" v:tabSpace="42.5197"/>
			<v:textRect cx="15.3796" cy="23.8656" width="30.76" height="7.11895"/>
			<rect x="0" y="20.3061" width="30.7593" height="7.11895" class="st1"/>
			<text x="0" y="26.98" class="st2" v:langID="1028"><v:paragraph/><v:tabList/>般若</text>		</g>
		<g id="shape4-6" v:mID="4" v:groupContext="shape" transform="translate(87.5221,-17.6281) rotate(0.1)">
			<title>工作表.4</title>
			<desc>能滅邪見、戲論將至畢竟空。</desc>
			<v:textBlock v:margins="rect(0,0,0,0)" v:tabSpace="42.5197"/>
			<v:textRect cx="71.0816" cy="23.8656" width="142.17" height="7.11895"/>
			<rect x="0" y="20.3061" width="142.163" height="7.11895" class="st1"/>
			<text x="0" y="26.98" class="st2" v:langID="1028"><v:paragraph/><v:tabList/>能滅邪見、戲論，將至畢竟空。</text>		</g>
		<g id="shape5-9" v:mID="5" v:groupContext="shape" transform="translate(0.797866,-10.2929) rotate(0.1)">
			<title>工作表.5</title>
			<desc>般若方便</desc>
			<v:textBlock v:margins="rect(0,0,0,0)" v:tabSpace="42.5197"/>
			<v:textRect cx="23.3797" cy="23.8656" width="46.76" height="7.11895"/>
			<rect x="0" y="20.3061" width="46.7595" height="7.11895" class="st1"/>
			<text x="0" y="26.98" class="st2" v:langID="1028"><v:paragraph/><v:tabList/>般若方便</text>		</g>
		<g id="shape6-12" v:mID="6" v:groupContext="shape" transform="translate(51.4829,-2.80447) rotate(0.1)">
			<title>工作表.6</title>
			<desc>方便</desc>
			<v:textBlock v:margins="rect(0,0,0,0)" v:tabSpace="42.5197"/>
			<v:textRect cx="13.9821" cy="23.8656" width="27.97" height="7.11895"/>
			<rect x="0" y="20.3061" width="27.9642" height="7.11895" class="st1"/>
			<text x="0" y="26.98" class="st2" v:langID="1028"><v:paragraph/><v:tabList/>方便</text>		</g>
		<g id="shape7-15" v:mID="7" v:groupContext="shape" transform="translate(87.4828,-2.77427) rotate(0.1)">
			<title>工作表.7</title>
			<desc>將出畢竟空。</desc>
			<v:textBlock v:margins="rect(0,0,0,0)" v:tabSpace="42.5197"/>
			<v:textRect cx="32.8325" cy="23.8656" width="65.67" height="7.11895"/>
			<rect x="0" y="20.3061" width="65.6649" height="7.11895" class="st1"/>
			<text x="-0" y="26.98" class="st2" v:langID="1028"><v:paragraph/><v:tabList/>將出畢竟空。</text>		</g>
		<g id="shape14-18" v:mID="14" v:groupContext="shape" transform="translate(70.7093,2.11351) rotate(90.1)">
			<title>工作表.14</title>
			<path d="M0 21.76 C0 23.32 0.83 24.59 1.84 24.59 L9.25 24.59 C10.29 24.59 11.12 25.88 11.12 27.43 C11.12 25.88 11.95
						 24.59 12.96 24.59 L20.38 24.59 C21.42 24.59 22.25 23.32 22.25 21.76 L0 21.76 Z" class="st3"/>
			<path d="M0 21.76 C0 23.32 0.83 24.59 1.84 24.59 L9.25 24.59 C10.29 24.59 11.12 25.88 11.12 27.43 C11.12 25.88 11.95
						 24.59 12.96 24.59 L20.38 24.59 C21.42 24.59 22.25 23.32 22.25 21.76" class="st4"/>
		</g>
		<g id="shape15-21" v:mID="15" v:groupContext="shape" transform="translate(73.0091,-20.8661) rotate(0.0659162)">
			<title>工作表.15</title>
			<path d="M0 27.43 L12.1 27.43" class="st4"/>
		</g>
		<g id="shape16-24" v:mID="16" v:groupContext="shape" transform="translate(73.1079,-6.4217)">
			<title>工作表.16</title>
			<path d="M0 27.43 L11.97 27.43" class="st4"/>
		</g>
	</g>
</svg>
