<?xml version="1.0" encoding="UTF-8" standalone="no"?>
<!DOCTYPE svg PUBLIC "-//W3C//DTD SVG 1.1//EN" "http://www.w3.org/Graphics/SVG/1.1/DTD/svg11.dtd">
<!-- 由 Microsoft Visio, SVG Export 產生 B02604.svg 頁-1 -->
<svg xmlns="http://www.w3.org/2000/svg" xmlns:xlink="http://www.w3.org/1999/xlink" xmlns:ev="http://www.w3.org/2001/xml-events"
		xmlns:v="http://schemas.microsoft.com/visio/2003/SVGExtensions/" width="2.01165in" height="0.384431in"
		viewBox="0 0 144.839 27.6791" xml:space="preserve" color-interpolation-filters="sRGB" class="st5">
	<v:documentProperties v:langID="1028" v:viewMarkup="false"/>

	<style type="text/css">
	<![CDATA[
		.st1 {fill:none;stroke:none;stroke-linecap:butt;stroke-width:0.75}
		.st2 {fill:#000000;font-family:新細明體;font-size:0.833336em}
		.st3 {fill:none}
		.st4 {stroke:#000000;stroke-linecap:round;stroke-linejoin:round;stroke-width:0.5625}
		.st5 {fill:none;fill-rule:evenodd;font-size:12px;overflow:visible;stroke-linecap:square;stroke-miterlimit:3}
	]]>
	</style>

	<g v:mID="0" v:index="1" v:groupContext="foregroundPage">
		<title>頁-1</title>
		<v:pageProperties v:drawingScale="0.0393701" v:pageScale="0.0393701" v:drawingUnits="24" v:shadowOffsetX="9"
				v:shadowOffsetY="-9"/>
		<g id="shape3-1" v:mID="3" v:groupContext="shape" transform="translate(50.69,-17.8324) rotate(0.1)">
			<title>工作表.3</title>
			<desc>大菩薩所得。</desc>
			<v:textBlock v:margins="rect(0,0,0,0)" v:tabSpace="42.5197"/>
			<v:textRect cx="31.1267" cy="24.0616" width="62.26" height="7.23494"/>
			<rect x="0" y="20.4441" width="62.2535" height="7.23494" class="st1"/>
			<text x="0" y="27.18" class="st2" v:langID="1028"><v:paragraph/><v:tabList/>大菩薩所得。</text>		</g>
		<g id="shape4-4" v:mID="4" v:groupContext="shape" transform="translate(0.798309,-10.3624) rotate(0.1)">
			<title>工作表.4</title>
			<desc>二種性空</desc>
			<v:textBlock v:margins="rect(0,0,0,0)" v:tabSpace="42.5197"/>
			<v:textRect cx="25.5117" cy="24.0616" width="51.03" height="7.23494"/>
			<rect x="0" y="20.4441" width="51.0235" height="7.23494" class="st1"/>
			<text x="0" y="27.18" class="st2" v:langID="1028"><v:paragraph/><v:tabList/>二種性空</text>		</g>
		<g id="shape5-7" v:mID="5" v:groupContext="shape" transform="translate(50.6508,-2.76859) rotate(0.1)">
			<title>工作表.5</title>
			<desc>小菩薩所學柔順忍。</desc>
			<v:textBlock v:margins="rect(0,0,0,0)" v:tabSpace="42.5197"/>
			<v:textRect cx="46.737" cy="24.0616" width="93.48" height="7.23494"/>
			<rect x="0" y="20.4441" width="93.4741" height="7.23494" class="st1"/>
			<text x="0" y="27.18" class="st2" v:langID="1028"><v:paragraph/><v:tabList/>小菩薩所學柔順忍。</text>		</g>
		<g id="shape12-10" v:mID="12" v:groupContext="shape" transform="translate(70.6061,0.994016) rotate(90.1)">
			<title>工作表.12</title>
			<path d="M0 22.52 C0 23.95 0.95 25.1 2.14 25.1 L10.65 25.1 C11.8 25.1 12.76 26.27 12.76 27.68 C12.76 26.27 13.71 25.1
						 14.9 25.1 L23.4 25.1 C24.56 25.1 25.51 23.95 25.51 22.52 L0 22.52 Z" class="st3"/>
			<path d="M0 22.52 C0 23.95 0.95 25.1 2.14 25.1 L10.65 25.1 C11.8 25.1 12.76 26.27 12.76 27.68 C12.76 26.27 13.71 25.1
						 14.9 25.1 L23.4 25.1 C24.56 25.1 25.51 23.95 25.51 22.52" class="st4"/>
		</g>
	</g>
</svg>
