<?xml version="1.0" encoding="UTF-8" standalone="no"?>
<!DOCTYPE svg PUBLIC "-//W3C//DTD SVG 1.1//EN" "http://www.w3.org/Graphics/SVG/1.1/DTD/svg11.dtd">
<!-- 由 Microsoft Visio, SVG Export 產生 B02702.svg 頁-1 -->
<svg xmlns="http://www.w3.org/2000/svg" xmlns:xlink="http://www.w3.org/1999/xlink" xmlns:ev="http://www.w3.org/2001/xml-events"
		xmlns:v="http://schemas.microsoft.com/visio/2003/SVGExtensions/" width="5.02307in" height="0.592847in"
		viewBox="0 0 361.661 42.685" xml:space="preserve" color-interpolation-filters="sRGB" class="st5">
	<v:documentProperties v:langID="1028" v:viewMarkup="false"/>

	<style type="text/css">
	<![CDATA[
		.st1 {fill:none;stroke:none;stroke-linecap:butt;stroke-width:0.75}
		.st2 {fill:#000000;font-family:新細明體;font-size:0.833336em}
		.st3 {fill:none}
		.st4 {stroke:#000000;stroke-linecap:round;stroke-linejoin:round;stroke-width:0.5625}
		.st5 {fill:none;fill-rule:evenodd;font-size:12px;overflow:visible;stroke-linecap:square;stroke-miterlimit:3}
	]]>
	</style>

	<g v:mID="0" v:index="1" v:groupContext="foregroundPage">
		<title>頁-1</title>
		<v:pageProperties v:drawingScale="0.0393701" v:pageScale="0.0393701" v:drawingUnits="24" v:shadowOffsetX="9"
				v:shadowOffsetY="-9"/>
		<g id="shape2-1" v:mID="2" v:groupContext="shape" transform="translate(2.26146,-32.8672) rotate(0.1)">
			<title>工作表.2</title>
			<v:textBlock v:margins="rect(0,0,0,0)"/>
			<rect x="0" y="35.4079" width="63" height="7.27705" class="st1"/>
		</g>
		<g id="shape3-3" v:mID="3" v:groupContext="shape" transform="translate(51.7614,-32.8173) rotate(0.1)">
			<title>工作表.3</title>
			<desc>應薩婆若、有方便</desc>
			<v:textBlock v:margins="rect(0,0,0,0)" v:tabSpace="42.5197"/>
			<v:textRect cx="46.1202" cy="39.0465" width="92.25" height="7.27705"/>
			<rect x="0" y="35.4079" width="92.2403" height="7.27705" class="st1"/>
			<text x="0" y="42.16" class="st2" v:langID="1028"><v:paragraph/><v:tabList/>應薩婆若、有方便</text>		</g>
		<g id="shape4-6" v:mID="4" v:groupContext="shape" transform="translate(123.761,-32.7141) rotate(0.1)">
			<title>工作表.4</title>
			<v:textBlock v:margins="rect(0,0,0,0)"/>
			<rect x="0" y="35.4079" width="27" height="7.27705" class="st1"/>
		</g>
		<g id="shape5-8" v:mID="5" v:groupContext="shape" transform="translate(150.761,-32.6921) rotate(0.1)">
			<title>工作表.5</title>
			<desc>近無上道。</desc>
			<v:textBlock v:margins="rect(0,0,0,0)" v:tabSpace="42.5197"/>
			<v:textRect cx="30.6359" cy="39.0465" width="61.28" height="7.27705"/>
			<rect x="0" y="35.4079" width="61.2717" height="7.27705" class="st1"/>
			<text x="0" y="42.16" class="st2" v:langID="1028"><v:paragraph/><v:tabList/>近無上道。</text>		</g>
		<g id="shape6-11" v:mID="6" v:groupContext="shape" transform="translate(0.824499,-25.2818) rotate(0.1)">
			<title>工作表.6</title>
			<desc>修行般若</desc>
			<v:textBlock v:margins="rect(0,0,0,0)" v:tabSpace="42.5197"/>
			<v:textRect cx="22.5" cy="39.0465" width="45" height="7.27705"/>
			<rect x="0" y="35.4079" width="45" height="7.27705" class="st1"/>
			<text x="-0" y="42.16" class="st2" v:langID="1028"><v:paragraph/><v:tabList/>修行般若 </text>		</g>
		<g id="shape7-14" v:mID="7" v:groupContext="shape" transform="translate(2.22219,-17.7067) rotate(0.1)">
			<title>工作表.7</title>
			<v:textBlock v:margins="rect(0,0,0,0)"/>
			<rect x="0" y="35.4079" width="63" height="7.27705" class="st1"/>
		</g>
		<g id="shape8-16" v:mID="8" v:groupContext="shape" transform="translate(51.7221,-17.6536) rotate(0.1)">
			<title>工作表.8</title>
			<desc>離薩婆若、無方便</desc>
			<v:textBlock v:margins="rect(0,0,0,0)" v:tabSpace="42.5197"/>
			<v:textRect cx="40.4702" cy="39.0465" width="80.95" height="7.27705"/>
			<rect x="0" y="35.4079" width="80.9404" height="7.27705" class="st1"/>
			<text x="-0" y="42.16" class="st2" v:langID="1028"><v:paragraph/><v:tabList/>離薩婆若、無方便</text>		</g>
		<g id="shape9-19" v:mID="9" v:groupContext="shape" transform="translate(123.722,-17.5536) rotate(0.1)">
			<title>工作表.9</title>
			<v:textBlock v:margins="rect(0,0,0,0)"/>
			<rect x="0" y="35.4079" width="27" height="7.27705" class="st1"/>
		</g>
		<g id="shape10-21" v:mID="10" v:groupContext="shape" transform="translate(150.722,-17.5267) rotate(0.1)">
			<title>工作表.10</title>
			<desc>於無上道</desc>
			<v:textBlock v:margins="rect(0,0,0,0)" v:tabSpace="42.5197"/>
			<v:textRect cx="22.1512" cy="39.0465" width="44.31" height="7.27705"/>
			<rect x="0" y="35.4079" width="44.3025" height="7.27705" class="st1"/>
			<text x="0" y="42.16" class="st2" v:langID="1028"><v:paragraph/><v:tabList/>於無上道</text>		</g>
		<g id="shape11-24" v:mID="11" v:groupContext="shape" transform="translate(186.722,-17.4795) rotate(0.1)">
			<title>工作表.11</title>
			<v:textBlock v:margins="rect(0,0,0,0)"/>
			<rect x="0" y="35.4079" width="27" height="7.27705" class="st1"/>
		</g>
		<g id="shape12-26" v:mID="12" v:groupContext="shape" transform="translate(209.222,-17.4574) rotate(0.1)">
			<title>工作表.12</title>
			<desc>或不得</desc>
			<v:textBlock v:margins="rect(0,0,0,0)" v:tabSpace="42.5197"/>
			<v:textRect cx="21.2481" cy="39.0465" width="42.5" height="7.27705"/>
			<rect x="0" y="35.4079" width="42.4963" height="7.27705" class="st1"/>
			<text x="0" y="42.16" class="st2" v:langID="1028"><v:paragraph/><v:tabList/>或不得</text>		</g>
		<g id="shape13-29" v:mID="13" v:groupContext="shape" transform="translate(236.222,-17.4213) rotate(0.1)">
			<title>工作表.13</title>
			<v:textBlock v:margins="rect(0,0,0,0)"/>
			<rect x="0" y="35.4079" width="27" height="7.27705" class="st1"/>
		</g>
		<g id="shape14-31" v:mID="14" v:groupContext="shape" transform="translate(257.957,-17.4112) rotate(0.1)">
			<title>工作表.14</title>
			<desc>恆沙劫修行還墮二地。</desc>
			<v:textBlock v:margins="rect(0,0,0,0)" v:tabSpace="42.5197"/>
			<v:textRect cx="51.5079" cy="39.0465" width="103.02" height="7.27705"/>
			<rect x="0" y="35.4079" width="103.016" height="7.27705" class="st1"/>
			<text x="0" y="42.16" class="st2" v:langID="1028"><v:paragraph/><v:tabList/>恆沙劫修行還墮二地。</text>		</g>
		<g id="shape15-34" v:mID="15" v:groupContext="shape" transform="translate(2.19948,-10.249) rotate(0.1)">
			<title>工作表.15</title>
			<v:textBlock v:margins="rect(0,0,0,0)"/>
			<rect x="0" y="31.885" width="318" height="10.8" class="st1"/>
		</g>
		<g id="shape16-36" v:mID="16" v:groupContext="shape" transform="translate(209.189,-0.81919) rotate(0.1)">
			<title>工作表.16</title>
			<desc>或得。</desc>
			<v:textBlock v:margins="rect(0,0,0,0)" v:tabSpace="42.5197"/>
			<v:textRect cx="19.8402" cy="36.934" width="39.69" height="11.502"/>
			<rect x="0" y="31.183" width="39.6805" height="11.502" class="st1"/>
			<text x="0" y="40.05" class="st2" v:langID="1028"><v:paragraph/><v:tabList/>或得。</text>		</g>
		<g id="shape25-39" v:mID="25" v:groupContext="shape" transform="translate(86.007,2.07344) rotate(90.1)">
			<title>工作表.25</title>
			<path d="M0 37.15 C0 38.66 0.85 39.92 1.88 39.92 L9.85 39.92 C10.89 39.92 11.73 41.13 11.73 42.68 C11.73 41.13 12.58
						 39.92 13.64 39.92 L20.83 39.92 C21.89 39.92 22.74 38.66 22.74 37.15 L0 37.15 Z" class="st3"/>
			<path d="M0 37.15 C0 38.66 0.85 39.92 1.88 39.92 L9.85 39.92 C10.89 39.92 11.73 41.13 11.73 42.68 C11.73 41.13 12.58
						 39.92 13.64 39.92 L20.83 39.92 C21.89 39.92 22.74 38.66 22.74 37.15" class="st4"/>
		</g>
		<g id="shape26-42" v:mID="26" v:groupContext="shape" transform="translate(240.878,-21.1386)">
			<title>工作表.26</title>
			<path d="M0 42.68 L14.42 42.68" class="st4"/>
		</g>
		<g id="shape27-45" v:mID="27" v:groupContext="shape" transform="translate(235.432,21.6654) rotate(90.1)">
			<title>工作表.27</title>
			<path d="M0 28.21 C0 32.23 0 35.45 0 35.45 C0 35.45 0 38.67 0 42.68 C0 38.67 0 35.45 0 35.45 L14.41 35.45 C14.41 35.45
						 14.41 32.23 14.41 28.21 L0 28.21 Z" class="st3"/>
			<path d="M0 28.21 C0 32.23 0 35.45 0 35.45 C0 35.45 0 38.67 0 42.68 C0 38.67 0 35.45 0 35.45 L14.41 35.45 C14.41 35.45
						 14.41 32.23 14.41 28.21" class="st4"/>
		</g>
		<g id="shape28-48" v:mID="28" v:groupContext="shape" transform="translate(133.809,-36.4089)">
			<title>工作表.28</title>
			<path d="M0 42.68 L14.14 42.68" class="st4"/>
		</g>
		<g id="shape29-51" v:mID="29" v:groupContext="shape" transform="translate(133.809,-21.2484)">
			<title>工作表.29</title>
			<path d="M0 42.68 L14.1 42.68" class="st4"/>
		</g>
	</g>
</svg>
