<?xml version="1.0" encoding="UTF-8" standalone="no"?>
<!DOCTYPE svg PUBLIC "-//W3C//DTD SVG 1.1//EN" "http://www.w3.org/Graphics/SVG/1.1/DTD/svg11.dtd">
<!-- 由 Microsoft Visio, SVG Export 產生 B02701.svg 頁-1 -->
<svg xmlns="http://www.w3.org/2000/svg" xmlns:xlink="http://www.w3.org/1999/xlink" xmlns:ev="http://www.w3.org/2001/xml-events"
		xmlns:v="http://schemas.microsoft.com/visio/2003/SVGExtensions/" width="1.81529in" height="0.383006in"
		viewBox="0 0 130.701 27.5764" xml:space="preserve" color-interpolation-filters="sRGB" class="st5">
	<v:documentProperties v:langID="1028" v:viewMarkup="false"/>

	<style type="text/css">
	<![CDATA[
		.st1 {fill:none;stroke:none;stroke-linecap:butt;stroke-width:0.75}
		.st2 {fill:#000000;font-family:新細明體;font-size:0.833336em}
		.st3 {fill:none}
		.st4 {stroke:#000000;stroke-linecap:round;stroke-linejoin:round;stroke-width:0.5625}
		.st5 {fill:none;fill-rule:evenodd;font-size:12px;overflow:visible;stroke-linecap:square;stroke-miterlimit:3}
	]]>
	</style>

	<g v:mID="0" v:index="1" v:groupContext="foregroundPage">
		<title>頁-1</title>
		<v:pageProperties v:drawingScale="0.0393701" v:pageScale="0.0393701" v:drawingUnits="24" v:shadowOffsetX="9"
				v:shadowOffsetY="-9"/>
		<g id="shape3-1" v:mID="3" v:groupContext="shape" transform="translate(1.42519,-17.8041) rotate(0.1)">
			<title>工作表.3</title>
			<v:textBlock v:margins="rect(0,0,0,0)"/>
			<rect x="0" y="20.3845" width="48" height="7.1919" class="st1"/>
		</g>
		<g id="shape4-3" v:mID="4" v:groupContext="shape" transform="translate(29.3717,-17.7513) rotate(0.1)">
			<title>工作表.4</title>
			<desc>色如</desc>
			<v:textBlock v:margins="rect(0,0,0,0)" v:tabSpace="42.5197"/>
			<v:textRect cx="14.2873" cy="23.9804" width="28.58" height="7.1919"/>
			<rect x="0" y="20.3845" width="28.5746" height="7.1919" class="st1"/>
			<text x="-0" y="27.09" class="st2" v:langID="1028"><v:paragraph/><v:tabList/>色如</text>		</g>
		<g id="shape5-6" v:mID="5" v:groupContext="shape" transform="translate(68.1405,-17.6997) rotate(0.1)">
			<title>工作表.5</title>
			<desc>色之實相</desc>
			<v:textBlock v:margins="rect(0,0,0,0)" v:tabSpace="42.5197"/>
			<v:textRect cx="24.4044" cy="23.9804" width="48.81" height="7.1919"/>
			<rect x="0" y="20.3845" width="48.8087" height="7.1919" class="st1"/>
			<text x="0" y="27.09" class="st2" v:langID="1028"><v:paragraph/><v:tabList/>色之實相</text>		</g>
		<g id="shape6-9" v:mID="6" v:groupContext="shape" transform="translate(0.79813,-10.3064) rotate(0.1)">
			<title>工作表.6</title>
			<desc>性相</desc>
			<v:textBlock v:margins="rect(0,0,0,0)" v:tabSpace="42.5197"/>
			<v:textRect cx="13.5" cy="23.9804" width="27" height="7.1919"/>
			<rect x="0" y="20.3845" width="27" height="7.1919" class="st1"/>
			<text x="0" y="27.09" class="st2" v:langID="1028"><v:paragraph/><v:tabList/>性相 </text>		</g>
		<g id="shape7-12" v:mID="7" v:groupContext="shape" transform="translate(1.38592,-2.82094) rotate(0.1)">
			<title>工作表.7</title>
			<v:textBlock v:margins="rect(0,0,0,0)"/>
			<rect x="0" y="20.3845" width="48" height="7.1919" class="st1"/>
		</g>
		<g id="shape8-14" v:mID="8" v:groupContext="shape" transform="translate(29.3324,-2.7625) rotate(0.1)">
			<title>工作表.8</title>
			<desc>色</desc>
			<v:textBlock v:margins="rect(0,0,0,0)" v:tabSpace="42.5197"/>
			<v:textRect cx="4.5" cy="23.9804" width="9" height="7.1919"/>
			<rect x="0" y="20.3845" width="9" height="7.1919" class="st1"/>
			<text x="-0" y="27.09" class="st2" v:langID="1028"><v:paragraph/><v:tabList/>色</text>		</g>
		<g id="shape9-17" v:mID="9" v:groupContext="shape" transform="translate(38.3324,-2.75729) rotate(0.1)">
			<title>工作表.9</title>
			<v:textBlock v:margins="rect(0,0,0,0)"/>
			<rect x="0" y="20.3845" width="27" height="7.1919" class="st1"/>
		</g>
		<g id="shape10-19" v:mID="10" v:groupContext="shape" transform="translate(68.1012,-2.72039) rotate(0.1)">
			<title>工作表.10</title>
			<desc>眼所見法。</desc>
			<v:textBlock v:margins="rect(0,0,0,0)" v:tabSpace="42.5197"/>
			<v:textRect cx="30.9428" cy="23.9804" width="61.89" height="7.1919"/>
			<rect x="0" y="20.3845" width="61.8857" height="7.1919" class="st1"/>
			<text x="0" y="27.09" class="st2" v:langID="1028"><v:paragraph/><v:tabList/>眼所見法。</text>		</g>
		<g id="shape17-22" v:mID="17" v:groupContext="shape" transform="translate(50.1511,0.895329) rotate(90.1)">
			<title>工作表.17</title>
			<path d="M0 23.32 C0 24.52 0.95 25.45 2.14 25.45 L11.06 25.45 C12.25 25.45 13.2 26.41 13.2 27.58 C13.2 26.41 14.15 25.45
						 15.31 25.45 L23.4 25.45 C24.56 25.45 25.51 24.52 25.51 23.32 L0 23.32 Z" class="st3"/>
			<path d="M0 23.32 C0 24.52 0.95 25.45 2.14 25.45 L11.06 25.45 C12.25 25.45 13.2 26.41 13.2 27.58 C13.2 26.41 14.15 25.45
						 15.31 25.45 L23.4 25.45 C24.56 25.45 25.51 24.52 25.51 23.32" class="st4"/>
		</g>
		<g id="shape18-25" v:mID="18" v:groupContext="shape" transform="translate(42.205,-6.43081)">
			<title>工作表.18</title>
			<path d="M0 27.58 L23.09 27.58" class="st4"/>
		</g>
		<g id="shape19-28" v:mID="19" v:groupContext="shape" transform="translate(51.1014,-21.4048)">
			<title>工作表.19</title>
			<path d="M0 27.58 L14.17 27.58" class="st4"/>
		</g>
	</g>
</svg>
