<?xml version="1.0" encoding="UTF-8" standalone="no"?>
<!DOCTYPE svg PUBLIC "-//W3C//DTD SVG 1.1//EN" "http://www.w3.org/Graphics/SVG/1.1/DTD/svg11.dtd">
<!-- 由 Microsoft Visio, SVG Export 產生 B02705.svg 頁-1 -->
<svg xmlns="http://www.w3.org/2000/svg" xmlns:xlink="http://www.w3.org/1999/xlink" xmlns:ev="http://www.w3.org/2001/xml-events"
		xmlns:v="http://schemas.microsoft.com/visio/2003/SVGExtensions/" width="1.77109in" height="0.378525in"
		viewBox="0 0 127.518 27.2538" xml:space="preserve" color-interpolation-filters="sRGB" class="st5">
	<v:documentProperties v:langID="1028" v:viewMarkup="false"/>

	<style type="text/css">
	<![CDATA[
		.st1 {fill:none;stroke:none;stroke-linecap:butt;stroke-width:0.75}
		.st2 {fill:#000000;font-family:新細明體;font-size:0.833336em}
		.st3 {fill:none}
		.st4 {stroke:#000000;stroke-linecap:round;stroke-linejoin:round;stroke-width:0.5625}
		.st5 {fill:none;fill-rule:evenodd;font-size:12px;overflow:visible;stroke-linecap:square;stroke-miterlimit:3}
	]]>
	</style>

	<g v:mID="0" v:index="1" v:groupContext="foregroundPage">
		<title>頁-1</title>
		<v:pageProperties v:drawingScale="0.0393701" v:pageScale="0.0393701" v:drawingUnits="24" v:shadowOffsetX="9"
				v:shadowOffsetY="-9"/>
		<g id="shape3-1" v:mID="3" v:groupContext="shape" transform="translate(51.5771,-17.3572) rotate(0.1)">
			<title>工作表.3</title>
			<desc>屬聲聞、辟支佛</desc>
			<v:textBlock v:margins="rect(0,0,0,0)" v:tabSpace="42.5197"/>
			<v:textRect cx="37.6131" cy="23.5864" width="75.23" height="7.33483"/>
			<rect x="0" y="19.919" width="75.2262" height="7.33483" class="st1"/>
			<text x="0" y="26.7" class="st2" v:langID="1028"><v:paragraph/><v:tabList/>屬聲聞、辟支佛</text>		</g>
		<g id="shape4-4" v:mID="4" v:groupContext="shape" transform="translate(0.797567,-9.60999) rotate(0.1)">
			<title>工作表.4</title>
			<desc>五根有二</desc>
			<v:textBlock v:margins="rect(0,0,0,0)" v:tabSpace="42.5197"/>
			<v:textRect cx="22.8399" cy="23.5864" width="45.68" height="7.33483"/>
			<rect x="0" y="19.919" width="45.6799" height="7.33483" class="st1"/>
			<text x="-0" y="26.7" class="st2" v:langID="1028"><v:paragraph/><v:tabList/>五根有二 </text>		</g>
		<g id="shape5-7" v:mID="5" v:groupContext="shape" transform="translate(51.5505,-2.68378) rotate(0.1)">
			<title>工作表.5</title>
			<desc>屬佛、諸菩薩。</desc>
			<v:textBlock v:margins="rect(0,0,0,0)" v:tabSpace="42.5197"/>
			<v:textRect cx="37.1046" cy="23.5864" width="74.21" height="7.33483"/>
			<rect x="0" y="19.919" width="74.2092" height="7.33483" class="st1"/>
			<text x="0" y="26.7" class="st2" v:langID="1028"><v:paragraph/><v:tabList/>屬佛、諸菩薩。</text>		</g>
		<g id="shape12-10" v:mID="12" v:groupContext="shape" transform="translate(70.7568,0.762704) rotate(90.1)">
			<title>工作表.12</title>
			<path d="M0 21.67 C0 23.19 0.95 24.46 2.14 24.46 L11.06 24.46 C12.25 24.46 13.2 25.69 13.2 27.25 C13.2 25.69 14.15 24.46
						 15.31 24.46 L23.4 24.46 C24.56 24.46 25.51 23.19 25.51 21.67 L0 21.67 Z" class="st3"/>
			<path d="M0 21.67 C0 23.19 0.95 24.46 2.14 24.46 L11.06 24.46 C12.25 24.46 13.2 25.69 13.2 27.25 C13.2 25.69 14.15 24.46
						 15.31 24.46 L23.4 24.46 C24.56 24.46 25.51 23.19 25.51 21.67" class="st4"/>
		</g>
	</g>
</svg>
