<?xml version="1.0" encoding="UTF-8" standalone="no"?>
<!DOCTYPE svg PUBLIC "-//W3C//DTD SVG 1.1//EN" "http://www.w3.org/Graphics/SVG/1.1/DTD/svg11.dtd">
<!-- 由 Microsoft Visio, SVG Export 產生 B02301.svg 頁-1 -->
<svg xmlns="http://www.w3.org/2000/svg" xmlns:xlink="http://www.w3.org/1999/xlink" xmlns:ev="http://www.w3.org/2001/xml-events"
		xmlns:v="http://schemas.microsoft.com/visio/2003/SVGExtensions/" width="4.97094in" height="0.607115in"
		viewBox="0 0 357.908 43.7123" xml:space="preserve" color-interpolation-filters="sRGB" class="st9">
	<v:documentProperties v:langID="1028" v:viewMarkup="false"/>

	<style type="text/css">
	<![CDATA[
		.st1 {fill:none;stroke:none;stroke-linecap:butt;stroke-width:0.75}
		.st2 {fill:#000000;font-family:新細明體;font-size:0.833336em}
		.st3 {fill:#000000;font-family:Times New Roman;font-size:0.833336em}
		.st4 {font-family:新細明體;font-size:1em}
		.st5 {font-family:Times New Roman;font-size:1em}
		.st6 {fill:none}
		.st7 {stroke:#000000;stroke-linecap:round;stroke-linejoin:round;stroke-width:0.5625}
		.st8 {stroke:#000000;stroke-dasharray:0.5625,1.125;stroke-linecap:round;stroke-linejoin:round;stroke-width:0.5625}
		.st9 {fill:none;fill-rule:evenodd;font-size:12px;overflow:visible;stroke-linecap:square;stroke-miterlimit:3}
	]]>
	</style>

	<g v:mID="0" v:index="1" v:groupContext="foregroundPage">
		<title>頁-1</title>
		<v:pageProperties v:drawingScale="0.0393701" v:pageScale="0.0393701" v:drawingUnits="24" v:shadowOffsetX="9"
				v:shadowOffsetY="-9"/>
		<g id="shape3-1" v:mID="3" v:groupContext="shape" transform="translate(21.074,-34.9545) rotate(0.1)">
			<title>工作表.3</title>
			<desc>智慧淨</desc>
			<v:textBlock v:margins="rect(0,0,0,0)" v:tabSpace="42.5197"/>
			<v:textRect cx="28.2143" cy="41.1836" width="56.43" height="5.05727"/>
			<rect x="0" y="38.655" width="56.4285" height="5.05727" class="st1"/>
			<text x="0" y="44.3" class="st2" v:langID="1028"><v:paragraph/><v:tabList/>智慧淨</text>		</g>
		<g id="shape4-4" v:mID="4" v:groupContext="shape" transform="translate(167.66,-34.8239) rotate(0.1)">
			<title>工作表.4</title>
			<desc>…智空</desc>
			<v:textBlock v:margins="rect(0,0,0,0)" v:tabSpace="42.5197"/>
			<v:textRect cx="30.1275" cy="41.1836" width="60.26" height="5.05727"/>
			<rect x="0" y="38.655" width="60.255" height="5.05727" class="st1"/>
			<text x="-0" y="44.3" class="st3" v:langID="1028"><v:paragraph/><v:tabList/>…<tspan class="st4">智空</tspan></text>		</g>
		<g id="shape5-8" v:mID="5" v:groupContext="shape" transform="translate(75.0459,-27.574) rotate(0.1)">
			<title>工作表.5</title>
			<desc>相待不離世間常法</desc>
			<v:textBlock v:margins="rect(0,0,0,0)" v:tabSpace="42.5197"/>
			<v:textRect cx="51.8291" cy="41.1836" width="103.66" height="5.05727"/>
			<rect x="0" y="38.655" width="103.658" height="5.05727" class="st1"/>
			<text x="-0" y="44.3" class="st2" v:langID="1028"><v:paragraph/><v:tabList/>相待不離，世間常法</text>		</g>
		<g id="shape6-11" v:mID="6" v:groupContext="shape" transform="translate(0.826292,-18.949) rotate(0.1)">
			<title>工作表.6</title>
			<desc>淨</desc>
			<v:textBlock v:margins="rect(0,0,0,0)" v:tabSpace="42.5197"/>
			<v:textRect cx="3.3095" cy="41.1836" width="6.62" height="5.05727"/>
			<rect x="0" y="38.655" width="6.619" height="5.05727" class="st1"/>
			<text x="0" y="44.3" class="st2" v:langID="1028"><v:paragraph/><v:tabList/>淨</text>		</g>
		<g id="shape7-14" v:mID="7" v:groupContext="shape" transform="translate(21.0164,-19.5043) rotate(0.1)">
			<title>工作表.7</title>
			<desc>所緣淨</desc>
			<v:textBlock v:margins="rect(0,0,0,0)" v:tabSpace="42.5197"/>
			<v:textRect cx="23.5663" cy="41.1836" width="47.14" height="5.05727"/>
			<rect x="0" y="38.655" width="47.1326" height="5.05727" class="st1"/>
			<text x="0" y="44.3" class="st2" v:langID="1028"><v:paragraph/><v:tabList/>所緣淨</text>		</g>
		<g id="shape8-17" v:mID="8" v:groupContext="shape" transform="translate(167.603,-19.3813) rotate(0.1)">
			<title>工作表.8</title>
			<desc>…境空</desc>
			<v:textBlock v:margins="rect(0,0,0,0)" v:tabSpace="42.5197"/>
			<v:textRect cx="33.7" cy="41.1836" width="67.41" height="5.05727"/>
			<rect x="0" y="38.655" width="67.4" height="5.05727" class="st1"/>
			<text x="0" y="44.3" class="st3" v:langID="1028"><v:paragraph/><v:tabList/>…<tspan class="st4">境空</tspan></text>		</g>
		<g id="shape9-21" v:mID="9" v:groupContext="shape" transform="translate(347.969,-19.2218) rotate(0.1)">
			<title>工作表.9</title>
			<desc>空</desc>
			<v:textBlock v:margins="rect(0,0,0,0)" v:tabSpace="42.5197"/>
			<v:textRect cx="4.5" cy="41.1836" width="9.01" height="5.05727"/>
			<rect x="0" y="38.655" width="9" height="5.05727" class="st1"/>
			<text x="0" y="44.3" class="st2" v:langID="1028"><v:paragraph/><v:tabList/>空</text>		</g>
		<g id="shape10-24" v:mID="10" v:groupContext="shape" transform="translate(20.734,-4.06384) rotate(0.1)">
			<title>工作表.10</title>
			<desc>實相本淨</desc>
			<v:textBlock v:margins="rect(0,0,0,0)" v:tabSpace="42.5197"/>
			<v:textRect cx="28.8095" cy="41.1836" width="57.62" height="5.05727"/>
			<rect x="0" y="38.655" width="57.619" height="5.05727" class="st1"/>
			<text x="0" y="44.3" class="st2" v:langID="1028"><v:paragraph/><v:tabList/>實相本淨</text>		</g>
		<g id="shape11-27" v:mID="11" v:groupContext="shape" transform="translate(79.2339,-4.01282) rotate(0.1)">
			<title>工作表.11</title>
			<desc>離緣離智</desc>
			<v:textBlock v:margins="rect(0,0,0,0)" v:tabSpace="42.5197"/>
			<v:textRect cx="25.3547" cy="41.1836" width="50.71" height="5.05727"/>
			<rect x="0" y="38.655" width="50.7095" height="5.05727" class="st1"/>
			<text x="-0" y="44.3" class="st2" v:langID="1028"><v:paragraph/><v:tabList/>離緣離智</text>		</g>
		<g id="shape12-30" v:mID="12" v:groupContext="shape" transform="translate(177.49,-3.97967) rotate(0.1)">
			<title>工作表.12</title>
			<desc>離上二邊說中道─緣生無性本來空寂</desc>
			<v:textBlock v:margins="rect(0,0,0,0)" v:tabSpace="42.5197"/>
			<v:textRect cx="84.7406" cy="41.1836" width="169.49" height="5.05727"/>
			<rect x="0" y="38.655" width="169.481" height="5.05727" class="st1"/>
			<text x="0" y="44.3" class="st2" v:langID="1028"><v:paragraph/><v:tabList/>離上二邊說中道<tspan class="st5">─</tspan>緣生無性本來空寂</text>		</g>
		<g id="shape21-34" v:mID="21" v:groupContext="shape" transform="translate(56.8676,1.3675) rotate(90.1)">
			<title>工作表.21</title>
			<path d="M0 37.68 C0 39.35 1.54 40.7 3.44 40.7 L17.14 40.7 C19.03 40.7 20.55 42.04 20.55 43.71 C20.55 42.04 22.1 40.7
						 23.99 40.7 L37.69 40.7 C39.58 40.7 41.1 39.35 41.1 37.68 L0 37.68 Z" class="st6"/>
			<path d="M0 37.68 C0 39.35 1.54 40.7 3.44 40.7 L17.14 40.7 C19.03 40.7 20.55 42.04 20.55 43.71 C20.55 42.04 22.1 40.7
						 23.99 40.7 L37.69 40.7 C39.58 40.7 41.1 39.35 41.1 37.68" class="st7"/>
		</g>
		<g id="shape22-37" v:mID="22" v:groupContext="shape" transform="translate(63.2933,-6.98102) rotate(0.0468266)">
			<title>工作表.22</title>
			<path d="M0 43.71 L12.08 43.71" class="st8"/>
		</g>
		<g id="shape23-40" v:mID="23" v:groupContext="shape" transform="translate(36.8422,-18.6107) rotate(-22.739)">
			<title>工作表.23</title>
			<path d="M0 43.71 L21.21 43.71" class="st8"/>
		</g>
		<g id="shape24-43" v:mID="24" v:groupContext="shape" transform="translate(67.6921,-34.4788) rotate(18.534)">
			<title>工作表.24</title>
			<path d="M0 43.71 L20.57 43.71" class="st8"/>
		</g>
		<g id="shape25-46" v:mID="25" v:groupContext="shape" transform="translate(121.368,-6.77563)">
			<title>工作表.25</title>
			<path d="M0 43.71 L53.86 43.71" class="st8"/>
		</g>
		<g id="shape26-49" v:mID="26" v:groupContext="shape" transform="translate(383.619,1.36719) rotate(90.1)">
			<title>工作表.26</title>
			<path d="M0 43.71 C0 42.24 1.53 41.05 3.42 41.05 L17.12 41.05 C19.01 41.05 20.54 39.85 20.54 38.36 C20.54 39.85 22.09
						 41.05 23.98 41.05 L37.66 41.05 C39.57 41.05 41.1 42.24 41.1 43.71 L0 43.71 Z" class="st6"/>
			<path d="M0 43.71 C0 42.24 1.53 41.05 3.42 41.05 L17.12 41.05 C19.01 41.05 20.54 39.85 20.54 38.36 C20.54 39.85 22.09
						 41.05 23.98 41.05 L37.66 41.05 C39.57 41.05 41.1 42.24 41.1 43.71" class="st7"/>
		</g>
	</g>
</svg>
