<?xml version="1.0" encoding="UTF-8" standalone="no"?>
<!DOCTYPE svg PUBLIC "-//W3C//DTD SVG 1.1//EN" "http://www.w3.org/Graphics/SVG/1.1/DTD/svg11.dtd">
<!-- 由 Microsoft Visio, SVG Export 產生 B02802.svg 頁-1 -->
<svg xmlns="http://www.w3.org/2000/svg" xmlns:xlink="http://www.w3.org/1999/xlink" xmlns:ev="http://www.w3.org/2001/xml-events"
		xmlns:v="http://schemas.microsoft.com/visio/2003/SVGExtensions/" width="2.87283in" height="0.395385in"
		viewBox="0 0 206.844 28.4677" xml:space="preserve" color-interpolation-filters="sRGB" class="st5">
	<v:documentProperties v:langID="1028" v:viewMarkup="false"/>

	<style type="text/css">
	<![CDATA[
		.st1 {fill:none;stroke:none;stroke-linecap:butt;stroke-width:0.75}
		.st2 {fill:#000000;font-family:新細明體;font-size:0.833336em}
		.st3 {fill:none}
		.st4 {stroke:#000000;stroke-linecap:round;stroke-linejoin:round;stroke-width:0.5625}
		.st5 {fill:none;fill-rule:evenodd;font-size:12px;overflow:visible;stroke-linecap:square;stroke-miterlimit:3}
	]]>
	</style>

	<g v:mID="0" v:index="1" v:groupContext="foregroundPage">
		<title>頁-1</title>
		<v:pageProperties v:drawingScale="0.0393701" v:pageScale="0.0393701" v:drawingUnits="24" v:shadowOffsetX="9"
				v:shadowOffsetY="-9"/>
		<g id="shape2-1" v:mID="2" v:groupContext="shape" transform="translate(61.3381,-19.0792) rotate(0.1)">
			<title>工作表.2</title>
			<desc>邪見不生滅</desc>
			<v:textBlock v:margins="rect(0,0,0,0)" v:tabSpace="42.5197"/>
			<v:textRect cx="27.7518" cy="25.3084" width="55.51" height="6.31864"/>
			<rect x="0" y="22.1491" width="55.5035" height="6.31864" class="st1"/>
			<text x="0" y="28.42" class="st2" v:langID="1028"><v:paragraph/><v:tabList/>邪見不生滅</text>		</g>
		<g id="shape3-4" v:mID="3" v:groupContext="shape" transform="translate(133.338,-18.9535) rotate(0.1)">
			<title>工作表.3</title>
			<desc>謂世間常有故。</desc>
			<v:textBlock v:margins="rect(0,0,0,0)" v:tabSpace="42.5197"/>
			<v:textRect cx="36.3974" cy="25.3084" width="72.8" height="6.31864"/>
			<rect x="0" y="22.1491" width="72.7947" height="6.31864" class="st1"/>
			<text x="0" y="28.42" class="st2" v:langID="1028"><v:paragraph/><v:tabList/>謂世間常有故。</text>		</g>
		<g id="shape4-7" v:mID="4" v:groupContext="shape" transform="translate(0.799685,-11.283) rotate(0.1)">
			<title>工作表.4</title>
			<desc>二種無生滅</desc>
			<v:textBlock v:margins="rect(0,0,0,0)" v:tabSpace="42.5197"/>
			<v:textRect cx="27" cy="25.3084" width="54.01" height="6.31864"/>
			<rect x="0" y="22.1491" width="54" height="6.31864" class="st1"/>
			<text x="0" y="28.42" class="st2" v:langID="1028"><v:paragraph/><v:tabList/>二種無生滅 </text>		</g>
		<g id="shape6-10" v:mID="6" v:groupContext="shape" transform="translate(61.3106,-3.28261) rotate(0.1)">
			<title>工作表.6</title>
			<desc>正觀不生滅</desc>
			<v:textBlock v:margins="rect(0,0,0,0)" v:tabSpace="42.5197"/>
			<v:textRect cx="28.4839" cy="25.3084" width="56.97" height="6.31864"/>
			<rect x="0" y="22.1491" width="56.9678" height="6.31864" class="st1"/>
			<text x="0" y="28.42" class="st2" v:langID="1028"><v:paragraph/><v:tabList/>正觀不生滅</text>		</g>
		<g id="shape7-13" v:mID="7" v:groupContext="shape" transform="translate(106.31,-3.20407) rotate(0.1)">
			<title>工作表.7</title>
			<v:textBlock v:margins="rect(0,0,0,0)"/>
			<rect x="0" y="17.6677" width="27" height="10.8" class="st1"/>
		</g>
		<g id="shape8-15" v:mID="8" v:groupContext="shape" transform="translate(133.31,-3.15695) rotate(0.1)">
			<title>工作表.8</title>
			<desc>破生滅故。</desc>
			<v:textBlock v:margins="rect(0,0,0,0)" v:tabSpace="42.5197"/>
			<v:textRect cx="27.9169" cy="25.3084" width="55.84" height="6.31864"/>
			<rect x="0" y="22.1491" width="55.8339" height="6.31864" class="st1"/>
			<text x="0" y="28.42" class="st2" v:langID="1028"><v:paragraph/><v:tabList/>破生滅故。</text>		</g>
		<g id="shape15-18" v:mID="15" v:groupContext="shape" transform="translate(81.5158,1.16449) rotate(90.1)">
			<title>工作表.15</title>
			<path d="M0 22.8 C0 24.35 0.96 25.63 2.13 25.63 L10.63 25.63 C11.82 25.63 12.76 26.88 12.76 28.47 C12.76 26.88 13.72
						 25.63 14.88 25.63 L23.39 25.63 C24.58 25.63 25.51 24.35 25.51 22.8 L0 22.8 Z" class="st3"/>
			<path d="M0 22.8 C0 24.35 0.96 25.63 2.13 25.63 L10.63 25.63 C11.82 25.63 12.76 26.88 12.76 28.47 C12.76 26.88 13.72
						 25.63 14.88 25.63 L23.39 25.63 C24.58 25.63 25.51 24.35 25.51 22.8" class="st4"/>
		</g>
		<g id="shape16-21" v:mID="16" v:groupContext="shape" transform="translate(112.568,-22.0136)">
			<title>工作表.16</title>
			<path d="M0 28.47 L17.35 28.47" class="st4"/>
		</g>
		<g id="shape17-24" v:mID="17" v:groupContext="shape" transform="translate(112.568,-6.21706)">
			<title>工作表.17</title>
			<path d="M0 28.47 L17.32 28.47" class="st4"/>
		</g>
	</g>
</svg>
