<?xml version="1.0" encoding="UTF-8" standalone="no"?>
<!DOCTYPE svg PUBLIC "-//W3C//DTD SVG 1.1//EN" "http://www.w3.org/Graphics/SVG/1.1/DTD/svg11.dtd">
<!-- 由 Microsoft Visio, SVG Export 產生 B02803.svg 頁-1 -->
<svg xmlns="http://www.w3.org/2000/svg" xmlns:xlink="http://www.w3.org/1999/xlink" xmlns:ev="http://www.w3.org/2001/xml-events"
		xmlns:v="http://schemas.microsoft.com/visio/2003/SVGExtensions/" width="2.40096in" height="0.377005in"
		viewBox="0 0 172.869 27.1443" xml:space="preserve" color-interpolation-filters="sRGB" class="st6">
	<v:documentProperties v:langID="1028" v:viewMarkup="false"/>

	<style type="text/css">
	<![CDATA[
		.st1 {fill:none;stroke:none;stroke-linecap:butt;stroke-width:0.75}
		.st2 {fill:#000000;font-family:新細明體;font-size:0.833336em}
		.st3 {fill:none}
		.st4 {stroke:#000000;stroke-linecap:round;stroke-linejoin:round;stroke-width:0.5625}
		.st5 {stroke:#000000;stroke-dasharray:0.5625,1.125;stroke-linecap:round;stroke-linejoin:round;stroke-width:0.5625}
		.st6 {fill:none;fill-rule:evenodd;font-size:12px;overflow:visible;stroke-linecap:square;stroke-miterlimit:3}
	]]>
	</style>

	<g v:mID="0" v:index="1" v:groupContext="foregroundPage">
		<title>頁-1</title>
		<v:pageProperties v:drawingScale="0.0393701" v:pageScale="0.0393701" v:drawingUnits="24" v:shadowOffsetX="9"
				v:shadowOffsetY="-9"/>
		<g id="shape2-1" v:mID="2" v:groupContext="shape" transform="translate(52.345,-18.0097) rotate(0.1)">
			<title>工作表.2</title>
			<desc>有行五度</desc>
			<v:textBlock v:margins="rect(0,0,0,0)" v:tabSpace="42.5197"/>
			<v:textRect cx="22.853" cy="24.2388" width="45.71" height="5.81097"/>
			<rect x="0" y="21.3334" width="45.7059" height="5.81097" class="st1"/>
			<text x="0" y="27.35" class="st2" v:langID="1028"><v:paragraph/><v:tabList/>有行五度</text>		</g>
		<g id="shape3-4" v:mID="3" v:groupContext="shape" transform="translate(88.3449,-17.9856) rotate(0.1)">
			<title>工作表.3</title>
			<v:textBlock v:margins="rect(0,0,0,0)"/>
			<rect x="0" y="21.3334" width="69.75" height="5.81097" class="st1"/>
		</g>
		<g id="shape4-6" v:mID="4" v:groupContext="shape" transform="translate(113.907,-17.9387) rotate(0.1)">
			<title>工作表.4</title>
			<desc>久久乃成。</desc>
			<v:textBlock v:margins="rect(0,0,0,0)" v:tabSpace="42.5197"/>
			<v:textRect cx="29.1245" cy="24.2388" width="58.25" height="5.81097"/>
			<rect x="0" y="21.3334" width="58.2491" height="5.81097" class="st1"/>
			<text x="-0" y="27.35" class="st2" v:langID="1028"><v:paragraph/><v:tabList/>久久乃成。</text>		</g>
		<g id="shape5-9" v:mID="5" v:groupContext="shape" transform="translate(0.797376,-8.42259) rotate(0.1)">
			<title>工作表.5</title>
			<desc>二種菩薩</desc>
			<v:textBlock v:margins="rect(0,0,0,0)" v:tabSpace="42.5197"/>
			<v:textRect cx="22.5" cy="21.7443" width="45" height="10.8"/>
			<rect x="0" y="16.3443" width="45" height="10.8" class="st1"/>
			<text x="0" y="24.86" class="st2" v:langID="1028"><v:paragraph/><v:tabList/>二種菩薩 </text>		</g>
		<g id="shape7-12" v:mID="7" v:groupContext="shape" transform="translate(52.2979,-3.48344) rotate(0.1)">
			<title>工作表.7</title>
			<desc>有行般若</desc>
			<v:textBlock v:margins="rect(0,0,0,0)" v:tabSpace="42.5197"/>
			<v:textRect cx="24.2925" cy="24.2388" width="48.59" height="5.81097"/>
			<rect x="0" y="21.3334" width="48.5851" height="5.81097" class="st1"/>
			<text x="0" y="27.35" class="st2" v:langID="1028"><v:paragraph/><v:tabList/>有行般若</text>		</g>
		<g id="shape8-15" v:mID="8" v:groupContext="shape" transform="translate(88.2978,-3.45272) rotate(0.1)">
			<title>工作表.8</title>
			<v:textBlock v:margins="rect(0,0,0,0)"/>
			<rect x="0" y="21.3334" width="56.25" height="5.81097" class="st1"/>
		</g>
		<g id="shape9-17" v:mID="9" v:groupContext="shape" transform="translate(113.658,-3.41083) rotate(0.1)">
			<title>工作表.9</title>
			<desc>疾得成佛。</desc>
			<v:textBlock v:margins="rect(0,0,0,0)" v:tabSpace="42.5197"/>
			<v:textRect cx="28.5799" cy="24.2388" width="57.16" height="5.81097"/>
			<rect x="0" y="21.3334" width="57.1598" height="5.81097" class="st1"/>
			<text x="0" y="27.35" class="st2" v:langID="1028"><v:paragraph/><v:tabList/>疾得成佛。</text>		</g>
		<g id="shape16-20" v:mID="16" v:groupContext="shape" transform="translate(70.6701,0.550168) rotate(90.1)">
			<title>工作表.16</title>
			<path d="M0 21.48 C0 23.06 0.96 24.31 2.13 24.31 L10.63 24.31 C11.82 24.31 12.76 25.59 12.76 27.14 C12.76 25.59 13.72
						 24.31 14.88 24.31 L23.39 24.31 C24.58 24.31 25.51 23.06 25.51 21.48 L0 21.48 Z" class="st3"/>
			<path d="M0 21.48 C0 23.06 0.96 24.31 2.13 24.31 L10.63 24.31 C11.82 24.31 12.76 25.59 12.76 27.14 C12.76 25.59 13.72
						 24.31 14.88 24.31 L23.39 24.31 C24.58 24.31 25.51 23.06 25.51 21.48" class="st4"/>
		</g>
		<g id="shape17-23" v:mID="17" v:groupContext="shape" transform="translate(93.7553,-20.861)">
			<title>工作表.17</title>
			<path d="M0 27.14 L18.43 27.14" class="st5"/>
		</g>
		<g id="shape18-26" v:mID="18" v:groupContext="shape" transform="translate(93.7553,-6.33417)">
			<title>工作表.18</title>
			<path d="M0 27.14 L18.43 27.14" class="st5"/>
		</g>
	</g>
</svg>
