<?xml version="1.0" encoding="UTF-8" standalone="no"?>
<!DOCTYPE svg PUBLIC "-//W3C//DTD SVG 1.1//EN" "http://www.w3.org/Graphics/SVG/1.1/DTD/svg11.dtd">
<!-- 由 Microsoft Visio, SVG Export 產生 B02708.svg 頁-1 -->
<svg xmlns="http://www.w3.org/2000/svg" xmlns:xlink="http://www.w3.org/1999/xlink" xmlns:ev="http://www.w3.org/2001/xml-events"
		xmlns:v="http://schemas.microsoft.com/visio/2003/SVGExtensions/" width="1.49172in" height="0.375393in"
		viewBox="0 0 107.404 27.0283" xml:space="preserve" color-interpolation-filters="sRGB" class="st5">
	<v:documentProperties v:langID="1028" v:viewMarkup="false"/>

	<style type="text/css">
	<![CDATA[
		.st1 {fill:none;stroke:none;stroke-linecap:butt;stroke-width:0.75}
		.st2 {fill:#000000;font-family:新細明體;font-size:0.833336em}
		.st3 {fill:none}
		.st4 {stroke:#000000;stroke-linecap:round;stroke-linejoin:round;stroke-width:0.5625}
		.st5 {fill:none;fill-rule:evenodd;font-size:12px;overflow:visible;stroke-linecap:square;stroke-miterlimit:3}
	]]>
	</style>

	<g v:mID="0" v:index="1" v:groupContext="foregroundPage">
		<title>頁-1</title>
		<v:pageProperties v:drawingScale="0.0393701" v:pageScale="0.0393701" v:drawingUnits="24" v:shadowOffsetX="9"
				v:shadowOffsetY="-9"/>
		<g id="shape2-1" v:mID="2" v:groupContext="shape" transform="translate(41.5424,-17.9061) rotate(0.1)">
			<title>工作表.2</title>
			<desc>破有著空</desc>
			<v:textBlock v:margins="rect(0,0,0,0)" v:tabSpace="42.5197"/>
			<v:textRect cx="24.0607" cy="24.1352" width="48.13" height="5.78615"/>
			<rect x="0" y="21.2421" width="48.1214" height="5.78615" class="st1"/>
			<text x="0" y="27.25" class="st2" v:langID="1028"><v:paragraph/><v:tabList/>破有著空</text>		</g>
		<g id="shape3-4" v:mID="3" v:groupContext="shape" transform="translate(0.797173,-10.2422) rotate(0.1)">
			<title>工作表.3</title>
			<desc>空二種</desc>
			<v:textBlock v:margins="rect(0,0,0,0)" v:tabSpace="42.5197"/>
			<v:textRect cx="18" cy="24.1352" width="36" height="5.78615"/>
			<rect x="0" y="21.2421" width="36" height="5.78615" class="st1"/>
			<text x="0" y="27.25" class="st2" v:langID="1028"><v:paragraph/><v:tabList/>空二種 </text>		</g>
		<g id="shape5-7" v:mID="5" v:groupContext="shape" transform="translate(41.5171,-3.44074) rotate(0.1)">
			<title>工作表.5</title>
			<desc>破有不著空。</desc>
			<v:textBlock v:margins="rect(0,0,0,0)" v:tabSpace="42.5197"/>
			<v:textRect cx="32.5869" cy="24.1352" width="65.18" height="5.78615"/>
			<rect x="0" y="21.2421" width="65.1738" height="5.78615" class="st1"/>
			<text x="0" y="27.25" class="st2" v:langID="1028"><v:paragraph/><v:tabList/>破有不著空。</text>		</g>
		<g id="shape12-10" v:mID="12" v:groupContext="shape" transform="translate(60.3939,1.77319) rotate(90.1)">
			<title>工作表.12</title>
			<path d="M0 21.27 C0 22.85 0.9 24.15 2.02 24.15 L10.44 24.15 C11.57 24.15 12.46 25.42 12.46 27.03 C12.46 25.42 13.36
						 24.15 14.46 24.15 L22.1 24.15 C23.19 24.15 24.09 22.85 24.09 21.27 L0 21.27 Z" class="st3"/>
			<path d="M0 21.27 C0 22.85 0.9 24.15 2.02 24.15 L10.44 24.15 C11.57 24.15 12.46 25.42 12.46 27.03 C12.46 25.42 13.36
						 24.15 14.46 24.15 L22.1 24.15 C23.19 24.15 24.09 22.85 24.09 21.27" class="st4"/>
		</g>
	</g>
</svg>
