<?xml version="1.0" encoding="UTF-8" standalone="no"?>
<!DOCTYPE svg PUBLIC "-//W3C//DTD SVG 1.1//EN" "http://www.w3.org/Graphics/SVG/1.1/DTD/svg11.dtd">
<!-- 由 Microsoft Visio, SVG Export 產生 B02706.svg 頁-1 -->
<svg xmlns="http://www.w3.org/2000/svg" xmlns:xlink="http://www.w3.org/1999/xlink" xmlns:ev="http://www.w3.org/2001/xml-events"
		xmlns:v="http://schemas.microsoft.com/visio/2003/SVGExtensions/" width="4.25909in" height="0.895566in"
		viewBox="0 0 306.655 64.4808" xml:space="preserve" color-interpolation-filters="sRGB" class="st6">
	<v:documentProperties v:langID="1028" v:viewMarkup="false"/>

	<style type="text/css">
	<![CDATA[
		.st1 {fill:none;stroke:none;stroke-linecap:butt;stroke-width:0.75}
		.st2 {fill:#000000;font-family:新細明體;font-size:0.833336em}
		.st3 {fill:none}
		.st4 {stroke:#000000;stroke-linecap:round;stroke-linejoin:round;stroke-width:0.5625}
		.st5 {stroke:#000000;stroke-dasharray:0.5625,1.125;stroke-linecap:round;stroke-linejoin:round;stroke-width:0.5625}
		.st6 {fill:none;fill-rule:evenodd;font-size:12px;overflow:visible;stroke-linecap:square;stroke-miterlimit:3}
	]]>
	</style>

	<g v:mID="0" v:index="1" v:groupContext="foregroundPage">
		<title>頁-1</title>
		<v:pageProperties v:drawingScale="0.0393701" v:pageScale="0.0393701" v:drawingUnits="24" v:shadowOffsetX="9"
				v:shadowOffsetY="-9"/>
		<g id="shape2-1" v:mID="2" v:groupContext="shape" transform="translate(131.161,-54.7788) rotate(0.1)">
			<title>工作表.2</title>
			<desc>有於佛前授記</desc>
			<v:textBlock v:margins="rect(0,0,0,0)" v:tabSpace="42.5197"/>
			<v:textRect cx="36.5198" cy="61.0081" width="73.04" height="6.94541"/>
			<rect x="0" y="57.5353" width="73.0395" height="6.94541" class="st1"/>
			<text x="-0" y="64.12" class="st2" v:langID="1028"><v:paragraph/><v:tabList/>有於佛前授記</text>		</g>
		<g id="shape3-4" v:mID="3" v:groupContext="shape" transform="translate(81.4772,-49.4301) rotate(0.1)">
			<title>工作表.3</title>
			<desc>生死肉身</desc>
			<v:textBlock v:margins="rect(0,0,0,0)" v:tabSpace="42.5197"/>
			<v:textRect cx="22.5" cy="61.0081" width="45" height="6.94541"/>
			<rect x="0" y="57.5353" width="45" height="6.94541" class="st1"/>
			<text x="0" y="64.12" class="st2" v:langID="1028"><v:paragraph/><v:tabList/>生死肉身 </text>		</g>
		<g id="shape5-7" v:mID="5" v:groupContext="shape" transform="translate(22.6242,-42.2658) rotate(0.1)">
			<title>工作表.5</title>
			<desc>阿鞞跋致</desc>
			<v:textBlock v:margins="rect(0,0,0,0)"/>
			<v:textRect cx="25.4659" cy="61.0081" width="50.94" height="6.94541"/>
			<rect x="0" y="57.5353" width="50.9317" height="6.94541" class="st1"/>
			<text x="8.5" y="64.12" class="st2" v:langID="1028"><v:paragraph/><v:tabList/>阿鞞跋致</text>		</g>
		<g id="shape6-10" v:mID="6" v:groupContext="shape" transform="translate(68.7913,-42.2207) rotate(0.1)">
			<title>工作表.6</title>
			<v:textBlock v:margins="rect(0,0,0,0)"/>
			<rect x="0" y="57.5353" width="78" height="6.94541" class="st1"/>
		</g>
		<g id="shape7-12" v:mID="7" v:groupContext="shape" transform="translate(131.122,-40.3255) rotate(0.1)">
			<title>工作表.7</title>
			<desc>有不於佛前授記。</desc>
			<v:textBlock v:margins="rect(0,0,0,0)" v:tabSpace="42.5197"/>
			<v:textRect cx="42.7958" cy="61.0081" width="85.6" height="6.94541"/>
			<rect x="0" y="57.5353" width="85.5917" height="6.94541" class="st1"/>
			<text x="0" y="64.12" class="st2" v:langID="1028"><v:paragraph/><v:tabList/>有不於佛前授記。</text>		</g>
		<g id="shape14-15" v:mID="14" v:groupContext="shape" transform="translate(23.7688,-36.1416) rotate(0.1)">
			<title>工作表.14</title>
			<v:textBlock v:margins="rect(0,0,0,0)"/>
			<rect x="0" y="54.0877" width="93" height="10.393" class="st1"/>
		</g>
		<g id="shape15-17" v:mID="15" v:groupContext="shape" transform="translate(81.4359,-34.9567) rotate(0.1)">
			<title>工作表.15</title>
			<desc>法性生身</desc>
			<v:textBlock v:margins="rect(0,0,0,0)" v:tabSpace="42.5197"/>
			<v:textRect cx="24.5903" cy="61.0081" width="49.19" height="6.94541"/>
			<rect x="0" y="57.5353" width="49.1807" height="6.94541" class="st1"/>
			<text x="0" y="64.12" class="st2" v:langID="1028"><v:paragraph/><v:tabList/>法性生身</text>		</g>
		<g id="shape18-20" v:mID="18" v:groupContext="shape" transform="translate(0.86254,-21.2354) rotate(0.1)">
			<title>工作表.18</title>
			<desc>菩薩</desc>
			<v:textBlock v:margins="rect(0,0,0,0)"/>
			<v:textRect cx="10.9894" cy="59.0808" width="21.98" height="10.8"/>
			<rect x="0" y="53.6808" width="21.9789" height="10.8" class="st1"/>
			<text x="0" y="62.2" class="st2" v:langID="1028"><v:paragraph/><v:tabList/>菩薩  </text>		</g>
		<g id="shape22-23" v:mID="22" v:groupContext="shape" transform="translate(263.349,-24.7957) rotate(0.1)">
			<title>工作表.22</title>
			<desc>或不退入</desc>
			<v:textBlock v:margins="rect(0,0,0,0)" v:tabSpace="42.5197"/>
			<v:textRect cx="21.3282" cy="61.096" width="42.66" height="6.7695"/>
			<rect x="0" y="57.7113" width="42.6563" height="6.7695" class="st1"/>
			<text x="0" y="64.21" class="st2" v:langID="1028"><v:paragraph/><v:tabList/>或不退入</text>		</g>
		<g id="shape25-26" v:mID="25" v:groupContext="shape" transform="translate(100.215,-18.6763) rotate(0.1)">
			<title>工作表.25</title>
			<desc>信多疑少</desc>
			<v:textBlock v:margins="rect(0,0,0,0)" v:tabSpace="42.5197"/>
			<v:textRect cx="24.3885" cy="60.6264" width="48.78" height="7.70877"/>
			<rect x="0" y="56.772" width="48.7769" height="7.70877" class="st1"/>
			<text x="0" y="63.74" class="st2" v:langID="1028"><v:paragraph/><v:tabList/>信多疑少</text>		</g>
		<g id="shape26-29" v:mID="26" v:groupContext="shape" transform="translate(136.209,-15.5222) rotate(0.1)">
			<title>工作表.26</title>
			<v:textBlock v:margins="rect(0,0,0,0)"/>
			<rect x="0" y="53.6808" width="63" height="10.8" class="st1"/>
		</g>
		<g id="shape27-31" v:mID="27" v:groupContext="shape" transform="translate(162.488,-15.4123) rotate(0.1)">
			<title>工作表.27</title>
			<desc>若得禪定即得柔順忍</desc>
			<v:textBlock v:margins="rect(0,0,0,0)" v:tabSpace="42.5197"/>
			<v:textRect cx="46.4632" cy="59.0808" width="92.93" height="10.8"/>
			<rect x="0" y="53.6808" width="92.9263" height="10.8" class="st1"/>
			<text x="0" y="62.2" class="st2" v:langID="1028"><v:paragraph/><v:tabList/>若得禪定即得柔順忍</text>		</g>
		<g id="shape29-34" v:mID="29" v:groupContext="shape" transform="translate(22.3669,-10.2796) rotate(0.1)">
			<title>工作表.29</title>
			<desc>未得阿鞞跋致</desc>
			<v:textBlock v:margins="rect(0,0,0,0)"/>
			<v:textRect cx="37.9877" cy="60.6264" width="75.98" height="7.70877"/>
			<rect x="0" y="56.772" width="75.9754" height="7.70877" class="st1"/>
			<text x="8.5" y="63.74" class="st2" v:langID="1028"><v:paragraph/><v:tabList/>未得阿鞞跋致</text>		</g>
		<g id="shape31-37" v:mID="31" v:groupContext="shape" transform="translate(263.31,-10.7029) rotate(0.1)">
			<title>工作表.31</title>
			<desc>或退没。</desc>
			<v:textBlock v:margins="rect(0,0,0,0)" v:tabSpace="42.5197"/>
			<v:textRect cx="21.3479" cy="61.096" width="42.7" height="6.7695"/>
			<rect x="0" y="57.7113" width="42.6957" height="6.7695" class="st1"/>
			<text x="0" y="64.21" class="st2" v:langID="1028"><v:paragraph/><v:tabList/>或退没。</text>		</g>
		<g id="shape38-40" v:mID="38" v:groupContext="shape" transform="translate(100.187,-2.61637) rotate(0.1)">
			<title>工作表.38</title>
			<desc>信少疑多</desc>
			<v:textBlock v:margins="rect(0,0,0,0)" v:tabSpace="42.5197"/>
			<v:textRect cx="26.2515" cy="60.6264" width="52.51" height="7.70877"/>
			<rect x="0" y="56.772" width="52.503" height="7.70877" class="st1"/>
			<text x="0" y="63.74" class="st2" v:langID="1028"><v:paragraph/><v:tabList/>信少疑多</text>		</g>
		<g id="shape40-43" v:mID="40" v:groupContext="shape" transform="translate(162.465,-2.46192) rotate(0.1)">
			<title>工作表.40</title>
			<desc>少勝誦經人</desc>
			<v:textBlock v:margins="rect(0,0,0,0)" v:tabSpace="42.5197"/>
			<v:textRect cx="32.311" cy="60.6264" width="64.63" height="7.70877"/>
			<rect x="0" y="56.772" width="64.622" height="7.70877" class="st1"/>
			<text x="-0" y="63.74" class="st2" v:langID="1028"><v:paragraph/><v:tabList/>少勝誦經人</text>		</g>
		<g id="shape41-46" v:mID="41" v:groupContext="shape" transform="translate(88.0973,14.3444) rotate(90.1)">
			<title>工作表.41</title>
			<path d="M0 58.81 C0 60.39 1.55 61.65 3.46 61.65 L20.16 61.65 C22.06 61.65 23.62 62.92 23.62 64.48 C23.62 62.92 25.17
						 61.65 27.04 61.65 L37.93 61.65 C39.84 61.65 41.39 60.39 41.39 58.81 L0 58.81 Z" class="st3"/>
			<path d="M0 58.81 C0 60.39 1.55 61.65 3.46 61.65 L20.16 61.65 C22.06 61.65 23.62 62.92 23.62 64.48 C23.62 62.92 25.17
						 61.65 27.04 61.65 L37.93 61.65 C39.84 61.65 41.39 60.39 41.39 58.81" class="st4"/>
		</g>
		<g id="shape42-49" v:mID="42" v:groupContext="shape" transform="translate(138.116,7.04128) rotate(90.1)">
			<title>工作表.42</title>
			<path d="M0 59.24 C0 60.67 0.89 61.86 2 61.86 L10.32 61.86 C11.43 61.86 12.32 63.01 12.32 64.48 C12.32 63.01 13.2 61.86
						 14.28 61.86 L21.84 61.86 C22.92 61.86 23.81 60.67 23.81 59.24 L0 59.24 Z" class="st3"/>
			<path d="M0 59.24 C0 60.67 0.89 61.86 2 61.86 L10.32 61.86 C11.43 61.86 12.32 63.01 12.32 64.48 C12.32 63.01 13.2 61.86
						 14.28 61.86 L21.84 61.86 C22.92 61.86 23.81 60.67 23.81 59.24" class="st4"/>
		</g>
		<g id="shape43-52" v:mID="43" v:groupContext="shape" transform="translate(187.81,1.50516) rotate(90.1)">
			<title>工作表.43</title>
			<path d="M0 58.81 C0 60.4 0.91 61.65 2.02 61.65 L8.13 61.65 C9.23 61.65 10.14 62.93 10.14 64.48 C10.14 62.93 11.05 61.65
						 12.19 61.65 L22.33 61.65 C23.47 61.65 24.38 60.4 24.38 58.81 L0 58.81 Z" class="st3"/>
			<path d="M0 58.81 C0 60.4 0.91 61.65 2.02 61.65 L8.13 61.65 C9.23 61.65 10.14 62.93 10.14 64.48 C10.14 62.93 11.05 61.65
						 12.19 61.65 L22.33 61.65 C23.47 61.65 24.38 60.4 24.38 58.81" class="st4"/>
		</g>
		<g id="shape44-55" v:mID="44" v:groupContext="shape" transform="translate(157.389,37.1383) rotate(90.1)">
			<title>工作表.44</title>
			<path d="M0 58.81 C0 60.4 0.97 61.65 2.19 61.65 L11.28 61.65 C12.49 61.65 13.46 62.93 13.46 64.48 C13.46 62.93 14.44
						 61.65 15.62 61.65 L23.88 61.65 C25.06 61.65 26.03 60.4 26.03 58.81 L0 58.81 Z" class="st3"/>
			<path d="M0 58.81 C0 60.4 0.97 61.65 2.19 61.65 L11.28 61.65 C12.49 61.65 13.46 62.93 13.46 64.48 C13.46 62.93 14.44
						 61.65 15.62 61.65 L23.88 61.65 C25.06 61.65 26.03 60.4 26.03 58.81" class="st4"/>
		</g>
		<g id="shape45-58" v:mID="45" v:groupContext="shape" transform="translate(319.201,31.3854) rotate(90.1)">
			<title>工作表.45</title>
			<path d="M0 58.81 C0 60.36 0.89 61.65 2 61.65 L10.32 61.65 C11.43 61.65 12.32 62.89 12.32 64.48 C12.32 62.89 13.21 61.65
						 14.29 61.65 L21.84 61.65 C22.92 61.65 23.81 60.36 23.81 58.81 L0 58.81 Z" class="st3"/>
			<path d="M0 58.81 C0 60.36 0.89 61.65 2 61.65 L10.32 61.65 C11.43 61.65 12.32 62.89 12.32 64.48 C12.32 62.89 13.21 61.65
						 14.29 61.65 L21.84 61.65 C22.92 61.65 23.81 60.36 23.81 58.81" class="st4"/>
		</g>
		<g id="shape46-61" v:mID="46" v:groupContext="shape" transform="translate(142.649,-21.0165)">
			<title>工作表.46</title>
			<path d="M0 64.48 L17.68 64.48" class="st5"/>
		</g>
		<g id="shape47-64" v:mID="47" v:groupContext="shape" transform="translate(142.775,-6.87844) rotate(0.1)">
			<title>工作表.47</title>
			<path d="M0 64.48 L17.01 64.48" class="st5"/>
		</g>
	</g>
</svg>
