<?xml version="1.0" encoding="UTF-8" standalone="no"?>
<!DOCTYPE svg PUBLIC "-//W3C//DTD SVG 1.1//EN" "http://www.w3.org/Graphics/SVG/1.1/DTD/svg11.dtd">
<!-- 由 Microsoft Visio, SVG Export 產生 B02805.svg 頁-1 -->
<svg xmlns="http://www.w3.org/2000/svg" xmlns:xlink="http://www.w3.org/1999/xlink" xmlns:ev="http://www.w3.org/2001/xml-events"
		xmlns:v="http://schemas.microsoft.com/visio/2003/SVGExtensions/" width="4.66487in" height="1.3872in"
		viewBox="0 0 335.871 99.8786" xml:space="preserve" color-interpolation-filters="sRGB" class="st6">
	<v:documentProperties v:langID="1028" v:viewMarkup="false"/>

	<style type="text/css">
	<![CDATA[
		.st1 {fill:none;stroke:none;stroke-linecap:butt;stroke-width:0.75}
		.st2 {fill:#000000;font-family:新細明體;font-size:0.833336em}
		.st3 {font-family:Times New Roman;font-size:1em;letter-spacing:0.599998em}
		.st4 {fill:none}
		.st5 {stroke:#000000;stroke-linecap:round;stroke-linejoin:round;stroke-width:0.5625}
		.st6 {fill:none;fill-rule:evenodd;font-size:12px;overflow:visible;stroke-linecap:square;stroke-miterlimit:3}
	]]>
	</style>

	<g v:mID="0" v:index="1" v:groupContext="foregroundPage">
		<title>頁-1</title>
		<v:pageProperties v:drawingScale="0.0393701" v:pageScale="0.0393701" v:drawingUnits="24" v:shadowOffsetX="9"
				v:shadowOffsetY="-9"/>
		<g id="shape3-1" v:mID="3" v:groupContext="shape" transform="translate(52.9536,-88.2493) rotate(0.1)">
			<title>工作表.3</title>
			<desc>乾慧地</desc>
			<v:textBlock v:margins="rect(0,0,0,0)" v:tabSpace="42.5197"/>
			<v:textRect cx="21.185" cy="94.4786" width="42.37" height="10.8"/>
			<rect x="0" y="89.0786" width="42.3699" height="10.8" class="st1"/>
			<text x="-0" y="97.59" class="st2" v:langID="1028"><v:paragraph/><v:tabList/>乾慧地</text>		</g>
		<g id="shape4-4" v:mID="4" v:groupContext="shape" transform="translate(79.9536,-83.8756) rotate(0.1)">
			<title>工作表.4</title>
			<v:textBlock v:margins="rect(0,0,0,0)"/>
			<rect x="0" y="89.0786" width="27" height="10.8" class="st1"/>
		</g>
		<g id="shape5-6" v:mID="5" v:groupContext="shape" transform="translate(103.821,-88.155) rotate(0.1)">
			<title>工作表.5</title>
			<desc>發心未得順忍</desc>
			<v:textBlock v:margins="rect(0,0,0,0)" v:tabSpace="42.5197"/>
			<v:textRect cx="33.0195" cy="94.4786" width="66.04" height="10.8"/>
			<rect x="0" y="89.0786" width="66.0391" height="10.8" class="st1"/>
			<text x="0" y="97.59" class="st2" v:langID="1028"><v:paragraph/><v:tabList/>發心未得順忍</text>		</g>
		<g id="shape7-9" v:mID="7" v:groupContext="shape" transform="translate(52.9301,-73.7049) rotate(0.1)">
			<title>工作表.7</title>
			<desc>性 地</desc>
			<v:textBlock v:margins="rect(0,0,0,0)"/>
			<v:textRect cx="22.6146" cy="94.4786" width="45.23" height="10.8"/>
			<rect x="0" y="89.0786" width="45.2293" height="10.8" class="st1"/>
			<text x="0" y="97.59" class="st2" v:langID="1028"><v:paragraph/><v:tabList/>性<tspan class="st3"> </tspan>地</text>		</g>
		<g id="shape8-13" v:mID="8" v:groupContext="shape" transform="translate(79.93,-70.3756) rotate(0.1)">
			<title>工作表.8</title>
			<v:textBlock v:margins="rect(0,0,0,0)"/>
			<rect x="0" y="89.0786" width="27" height="10.8" class="st1"/>
		</g>
		<g id="shape9-15" v:mID="9" v:groupContext="shape" transform="translate(103.797,-73.6107) rotate(0.1)">
			<title>工作表.9</title>
			<desc>得順忍愛實相不生邪見</desc>
			<v:textBlock v:margins="rect(0,0,0,0)" v:tabSpace="42.5197"/>
			<v:textRect cx="65.0634" cy="94.4786" width="130.13" height="10.8"/>
			<rect x="0" y="89.0786" width="130.127" height="10.8" class="st1"/>
			<text x="0" y="97.59" class="st2" v:langID="1028"><v:paragraph/><v:tabList/>得順忍，愛實相，不生邪見</text>		</g>
		<g id="shape11-18" v:mID="11" v:groupContext="shape" transform="translate(52.9065,-58.7131) rotate(0.1)">
			<title>工作表.11</title>
			<desc>八人地</desc>
			<v:textBlock v:margins="rect(0,0,0,0)" v:tabSpace="42.5197"/>
			<v:textRect cx="26.878" cy="94.4786" width="53.76" height="10.8"/>
			<rect x="0" y="89.0786" width="53.756" height="10.8" class="st1"/>
			<text x="0" y="97.59" class="st2" v:langID="1028"><v:paragraph/><v:tabList/>八人地</text>		</g>
		<g id="shape12-21" v:mID="12" v:groupContext="shape" transform="translate(79.9065,-58.6659) rotate(0.1)">
			<title>工作表.12</title>
			<v:textBlock v:margins="rect(0,0,0,0)"/>
			<rect x="0" y="89.0786" width="27" height="10.8" class="st1"/>
		</g>
		<g id="shape13-23" v:mID="13" v:groupContext="shape" transform="translate(103.798,-58.6109) rotate(0.1)">
			<title>工作表.13</title>
			<desc>無生法忍</desc>
			<v:textBlock v:margins="rect(0,0,0,0)" v:tabSpace="42.5197"/>
			<v:textRect cx="30.2264" cy="94.4786" width="60.46" height="10.8"/>
			<rect x="0" y="89.0786" width="60.4527" height="10.8" class="st1"/>
			<text x="0" y="97.59" class="st2" v:langID="1028"><v:paragraph/><v:tabList/>無生法忍</text>		</g>
		<g id="shape14-26" v:mID="14" v:groupContext="shape" transform="translate(0.924321,-46.968) rotate(0.1)">
			<title>工作表.14</title>
			<desc>菩薩共地</desc>
			<v:textBlock v:margins="rect(0,0,0,0)" v:tabSpace="42.5197"/>
			<v:textRect cx="22.5" cy="94.4786" width="45" height="10.8"/>
			<rect x="0" y="89.0786" width="45" height="10.8" class="st1"/>
			<text x="0" y="97.59" class="st2" v:langID="1028"><v:paragraph/><v:tabList/>菩薩共地 </text>		</g>
		<g id="shape15-29" v:mID="15" v:groupContext="shape" transform="translate(52.8829,-44.3179) rotate(0.1)">
			<title>工作表.15</title>
			<desc>見 地</desc>
			<v:textBlock v:margins="rect(0,0,0,0)"/>
			<v:textRect cx="18.9519" cy="94.4786" width="37.91" height="10.8"/>
			<rect x="0" y="89.0786" width="37.9037" height="10.8" class="st1"/>
			<text x="0" y="97.59" class="st2" v:langID="1028"><v:paragraph/><v:tabList/>見<tspan class="st3"> </tspan>地</text>		</g>
		<g id="shape16-33" v:mID="16" v:groupContext="shape" transform="translate(79.8829,-44.2708) rotate(0.1)">
			<title>工作表.16</title>
			<v:textBlock v:margins="rect(0,0,0,0)"/>
			<rect x="0" y="89.0786" width="27" height="10.8" class="st1"/>
		</g>
		<g id="shape17-35" v:mID="17" v:groupContext="shape" transform="translate(103.774,-44.2158) rotate(0.1)">
			<title>工作表.17</title>
			<desc>不退位</desc>
			<v:textBlock v:margins="rect(0,0,0,0)" v:tabSpace="42.5197"/>
			<v:textRect cx="25.9853" cy="94.4786" width="51.98" height="10.8"/>
			<rect x="0" y="89.0786" width="51.9706" height="10.8" class="st1"/>
			<text x="0" y="97.59" class="st2" v:langID="1028"><v:paragraph/><v:tabList/>不退位</text>		</g>
		<g id="shape19-38" v:mID="19" v:groupContext="shape" transform="translate(52.8594,-29.9228) rotate(0.1)">
			<title>工作表.19</title>
			<desc>薄 地</desc>
			<v:textBlock v:margins="rect(0,0,0,0)"/>
			<v:textRect cx="24.917" cy="94.4786" width="49.84" height="10.8"/>
			<rect x="0" y="89.0786" width="49.834" height="10.8" class="st1"/>
			<text x="-0" y="97.59" class="st2" v:langID="1028"><v:paragraph/><v:tabList/>薄<tspan class="st3"> </tspan>地</text>		</g>
		<g id="shape20-42" v:mID="20" v:groupContext="shape" transform="translate(79.8593,-29.8757) rotate(0.1)">
			<title>工作表.20</title>
			<v:textBlock v:margins="rect(0,0,0,0)"/>
			<rect x="0" y="89.0786" width="27" height="10.8" class="st1"/>
		</g>
		<g id="shape21-44" v:mID="21" v:groupContext="shape" transform="translate(103.751,-29.8207) rotate(0.1)">
			<title>工作表.21</title>
			<desc>過不退、未成佛斷煩惱薄餘習。</desc>
			<v:textBlock v:margins="rect(0,0,0,0)" v:tabSpace="42.5197"/>
			<v:textRect cx="80.7062" cy="94.4786" width="161.42" height="10.8"/>
			<rect x="0" y="89.0786" width="161.412" height="10.8" class="st1"/>
			<text x="0" y="97.59" class="st2" v:langID="1028"><v:paragraph/><v:tabList/>過不退、未成佛，斷煩惱，薄餘習。</text>		</g>
		<g id="shape22-47" v:mID="22" v:groupContext="shape" transform="translate(270.882,-29.5694) rotate(0.1)">
			<title>工作表.22</title>
			<v:textBlock v:margins="rect(0,0,0,0)"/>
			<rect x="0" y="89.0786" width="27" height="10.8" class="st1"/>
		</g>
		<g id="shape23-49" v:mID="23" v:groupContext="shape" transform="translate(284.132,-29.5301) rotate(0.1)">
			<title>工作表.23</title>
			<desc>諸煩惱薄。</desc>
			<v:textBlock v:margins="rect(0,0,0,0)" v:tabSpace="42.5197"/>
			<v:textRect cx="25.572" cy="94.4786" width="51.15" height="10.8"/>
			<rect x="0" y="89.0786" width="51.1441" height="10.8" class="st1"/>
			<text x="0" y="97.59" class="st2" v:langID="1028"><v:paragraph/><v:tabList/>諸煩惱薄。</text>		</g>
		<g id="shape31-52" v:mID="31" v:groupContext="shape" transform="translate(52.8358,-15.0801) rotate(0.1)">
			<title>工作表.31</title>
			<desc>離欲地</desc>
			<v:textBlock v:margins="rect(0,0,0,0)" v:tabSpace="42.5197"/>
			<v:textRect cx="20.6774" cy="94.4786" width="41.36" height="10.8"/>
			<rect x="0" y="89.0786" width="41.3548" height="10.8" class="st1"/>
			<text x="0" y="97.59" class="st2" v:langID="1028"><v:paragraph/><v:tabList/>離欲地</text>		</g>
		<g id="shape32-55" v:mID="32" v:groupContext="shape" transform="translate(79.8358,-16.3757) rotate(0.1)">
			<title>工作表.32</title>
			<v:textBlock v:margins="rect(0,0,0,0)"/>
			<rect x="0" y="89.0786" width="27" height="10.8" class="st1"/>
		</g>
		<g id="shape33-57" v:mID="33" v:groupContext="shape" transform="translate(103.876,-14.978) rotate(0.1)">
			<title>工作表.33</title>
			<desc>離欲因緣得五通</desc>
			<v:textBlock v:margins="rect(0,0,0,0)" v:tabSpace="42.5197"/>
			<v:textRect cx="43.8683" cy="94.4786" width="87.74" height="10.8"/>
			<rect x="0" y="89.0786" width="87.7365" height="10.8" class="st1"/>
			<text x="0" y="97.59" class="st2" v:langID="1028"><v:paragraph/><v:tabList/>離欲因緣，得五通</text>		</g>
		<g id="shape35-60" v:mID="35" v:groupContext="shape" transform="translate(52.8123,-0.983337) rotate(0.1)">
			<title>工作表.35</title>
			<desc>已作地</desc>
			<v:textBlock v:margins="rect(0,0,0,0)" v:tabSpace="42.5197"/>
			<v:textRect cx="19.2715" cy="94.4786" width="38.55" height="10.8"/>
			<rect x="0" y="89.0786" width="38.5429" height="10.8" class="st1"/>
			<text x="-0" y="97.59" class="st2" v:langID="1028"><v:paragraph/><v:tabList/>已作地</text>		</g>
		<g id="shape36-63" v:mID="36" v:groupContext="shape" transform="translate(79.8122,-0.936213) rotate(0.1)">
			<title>工作表.36</title>
			<v:textBlock v:margins="rect(0,0,0,0)"/>
			<rect x="0" y="89.0786" width="27" height="10.8" class="st1"/>
		</g>
		<g id="shape37-65" v:mID="37" v:groupContext="shape" transform="translate(103.853,-0.881235) rotate(0.1)">
			<title>工作表.37</title>
			<desc>成佛。</desc>
			<v:textBlock v:margins="rect(0,0,0,0)" v:tabSpace="42.5197"/>
			<v:textRect cx="20.3521" cy="94.4786" width="40.71" height="10.8"/>
			<rect x="0" y="89.0786" width="40.7042" height="10.8" class="st1"/>
			<text x="0" y="97.59" class="st2" v:langID="1028"><v:paragraph/><v:tabList/>成佛。</text>		</g>
		<g id="shape46-68" v:mID="46" v:groupContext="shape" transform="translate(144.097,1.99816) rotate(90.1)">
			<title>工作表.46</title>
			<path d="M0 94.21 C0 95.78 3.55 97.04 7.96 97.04 L37.85 97.04 C42.21 97.04 45.81 98.33 45.81 99.88 C45.81 98.33 49.36
						 97.04 53.77 97.04 L87.57 97.04 C91.98 97.04 95.53 95.78 95.53 94.21 L0 94.21 Z" class="st4"/>
			<path d="M0 94.21 C0 95.78 3.55 97.04 7.96 97.04 L37.85 97.04 C42.21 97.04 45.81 98.33 45.81 99.88 C45.81 98.33 49.36
						 97.04 53.77 97.04 L87.57 97.04 C91.98 97.04 95.53 95.78 95.53 94.21" class="st5"/>
		</g>
		<g id="shape47-71" v:mID="47" v:groupContext="shape" transform="translate(83.82,-94.1469)">
			<title>工作表.47</title>
			<path d="M0 99.88 L17.01 99.88" class="st5"/>
		</g>
		<g id="shape48-74" v:mID="48" v:groupContext="shape" transform="translate(83.82,-79.6006)">
			<title>工作表.48</title>
			<path d="M0 99.88 L17.01 99.88" class="st5"/>
		</g>
		<g id="shape49-77" v:mID="49" v:groupContext="shape" transform="translate(83.82,-64.6067)">
			<title>工作表.49</title>
			<path d="M0 99.88 L17.01 99.88" class="st5"/>
		</g>
		<g id="shape50-80" v:mID="50" v:groupContext="shape" transform="translate(83.82,-49.6249)">
			<title>工作表.50</title>
			<path d="M0 99.88 L17.01 99.88" class="st5"/>
		</g>
		<g id="shape51-83" v:mID="51" v:groupContext="shape" transform="translate(83.82,-35.8165)">
			<title>工作表.51</title>
			<path d="M0 99.88 L17.01 99.88" class="st5"/>
		</g>
		<g id="shape52-86" v:mID="52" v:groupContext="shape" transform="translate(83.82,-20.9728)">
			<title>工作表.52</title>
			<path d="M0 99.88 L17.01 99.88" class="st5"/>
		</g>
		<g id="shape53-89" v:mID="53" v:groupContext="shape" transform="translate(83.82,-6.29033)">
			<title>工作表.53</title>
			<path d="M0 99.88 L17.01 99.88" class="st5"/>
		</g>
		<g id="shape54-92" v:mID="54" v:groupContext="shape" transform="translate(263.109,-35.5219)">
			<title>工作表.54</title>
			<path d="M0 99.88 L17.2 99.88" class="st5"/>
		</g>
	</g>
</svg>
