<?xml version="1.0" encoding="UTF-8" standalone="no"?>
<!DOCTYPE svg PUBLIC "-//W3C//DTD SVG 1.1//EN" "http://www.w3.org/Graphics/SVG/1.1/DTD/svg11.dtd">
<!-- 由 Microsoft Visio, SVG Export 產生 B02804.svg 頁-1 -->
<svg xmlns="http://www.w3.org/2000/svg" xmlns:xlink="http://www.w3.org/1999/xlink" xmlns:ev="http://www.w3.org/2001/xml-events"
		xmlns:v="http://schemas.microsoft.com/visio/2003/SVGExtensions/" width="4.45854in" height="1.86647in"
		viewBox="0 0 321.015 134.386" xml:space="preserve" color-interpolation-filters="sRGB" class="st7">
	<v:documentProperties v:langID="1028" v:viewMarkup="false"/>

	<style type="text/css">
	<![CDATA[
		.st1 {fill:none;stroke:none;stroke-linecap:butt;stroke-width:0.75}
		.st2 {fill:#000000;font-family:新細明體;font-size:0.833336em}
		.st3 {font-family:Times New Roman;font-size:1em;letter-spacing:0.599998em}
		.st4 {fill:none}
		.st5 {stroke:#000000;stroke-linecap:round;stroke-linejoin:round;stroke-width:0.5625}
		.st6 {stroke:#000000;stroke-dasharray:0.5625,1.125;stroke-linecap:round;stroke-linejoin:round;stroke-width:0.5625}
		.st7 {fill:none;fill-rule:evenodd;font-size:12px;overflow:visible;stroke-linecap:square;stroke-miterlimit:3}
	]]>
	</style>

	<g v:mID="0" v:index="1" v:groupContext="foregroundPage">
		<title>頁-1</title>
		<v:pageProperties v:drawingScale="0.0393701" v:pageScale="0.0393701" v:drawingUnits="24" v:shadowOffsetX="9"
				v:shadowOffsetY="-9"/>
		<g id="shape3-1" v:mID="3" v:groupContext="shape" transform="translate(22.7687,-122.756) rotate(0.1)">
			<title>工作表.3</title>
			<desc>乾慧地</desc>
			<v:textBlock v:margins="rect(0,0,0,0)"/>
			<v:textRect cx="25.6742" cy="128.986" width="51.35" height="10.8"/>
			<rect x="0" y="123.586" width="51.3485" height="10.8" class="st1"/>
			<text x="8.5" y="132.1" class="st2" v:langID="1028"><v:paragraph/><v:tabList/>乾慧地</text>		</g>
		<g id="shape4-4" v:mID="4" v:groupContext="shape" transform="translate(58.7686,-122.693) rotate(0.1)">
			<title>工作表.4</title>
			<v:textBlock v:margins="rect(0,0,0,0)"/>
			<rect x="0" y="123.586" width="36" height="10.8" class="st1"/>
		</g>
		<g id="shape5-6" v:mID="5" v:groupContext="shape" transform="translate(83.2882,-122.646) rotate(0.1)">
			<title>工作表.5</title>
			<desc>五停心位、總別念處、有慧而無定水</desc>
			<v:textBlock v:margins="rect(0,0,0,0)"/>
			<v:textRect cx="81" cy="128.986" width="162" height="10.8"/>
			<rect x="0" y="123.586" width="162" height="10.8" class="st1"/>
			<text x="0" y="132.1" class="st2" v:langID="1028"><v:paragraph/><v:tabList/>五停心位、總別念處、有慧而無定水  </text>		</g>
		<g id="shape7-9" v:mID="7" v:groupContext="shape" transform="translate(22.7451,-109.256) rotate(0.1)">
			<title>工作表.7</title>
			<desc>性 地</desc>
			<v:textBlock v:margins="rect(0,0,0,0)"/>
			<v:textRect cx="27.1029" cy="128.986" width="54.21" height="10.8"/>
			<rect x="0" y="123.586" width="54.2059" height="10.8" class="st1"/>
			<text x="8.5" y="132.1" class="st2" v:langID="1028"><v:paragraph/><v:tabList/>性<tspan class="st3"> </tspan>地</text>		</g>
		<g id="shape8-13" v:mID="8" v:groupContext="shape" transform="translate(58.745,-109.193) rotate(0.1)">
			<title>工作表.8</title>
			<v:textBlock v:margins="rect(0,0,0,0)"/>
			<rect x="0" y="123.586" width="27" height="10.8" class="st1"/>
		</g>
		<g id="shape9-15" v:mID="9" v:groupContext="shape" transform="translate(83.2647,-109.146) rotate(0.1)">
			<title>工作表.9</title>
			<desc>四加行</desc>
			<v:textBlock v:margins="rect(0,0,0,0)"/>
			<v:textRect cx="30" cy="128.986" width="60.01" height="10.8"/>
			<rect x="0" y="123.586" width="60" height="10.8" class="st1"/>
			<text x="0" y="132.1" class="st2" v:langID="1028"><v:paragraph/><v:tabList/>四加行   </text>		</g>
		<g id="shape11-18" v:mID="11" v:groupContext="shape" transform="translate(22.7215,-95.7563) rotate(0.1)">
			<title>工作表.11</title>
			<desc>八人地</desc>
			<v:textBlock v:margins="rect(0,0,0,0)"/>
			<v:textRect cx="22.5" cy="128.986" width="45" height="10.8"/>
			<rect x="0" y="123.586" width="45" height="10.8" class="st1"/>
			<text x="8.5" y="132.1" class="st2" v:langID="1028"><v:paragraph/><v:tabList/>八人地 </text>		</g>
		<g id="shape12-21" v:mID="12" v:groupContext="shape" transform="translate(83.2411,-95.6463) rotate(0.1)">
			<title>工作表.12</title>
			<desc>十五心</desc>
			<v:textBlock v:margins="rect(0,0,0,0)"/>
			<v:textRect cx="30" cy="128.986" width="60.01" height="10.8"/>
			<rect x="0" y="123.586" width="60" height="10.8" class="st1"/>
			<text x="0" y="132.1" class="st2" v:langID="1028"><v:paragraph/><v:tabList/>十五心   </text>		</g>
		<g id="shape14-24" v:mID="14" v:groupContext="shape" transform="translate(31.698,-82.2406) rotate(0.1)">
			<title>工作表.14</title>
			<desc>見 地</desc>
			<v:textBlock v:margins="rect(0,0,0,0)"/>
			<v:textRect cx="22.6277" cy="128.986" width="45.26" height="10.8"/>
			<rect x="0" y="123.586" width="45.2554" height="10.8" class="st1"/>
			<text x="0" y="132.1" class="st2" v:langID="1028"><v:paragraph/><v:tabList/>見<tspan class="st3"> </tspan>地 </text>		</g>
		<g id="shape15-28" v:mID="15" v:groupContext="shape" transform="translate(67.6979,-82.1778) rotate(0.1)">
			<title>工作表.15</title>
			<v:textBlock v:margins="rect(0,0,0,0)"/>
			<rect x="0" y="123.586" width="27" height="10.8" class="st1"/>
		</g>
		<g id="shape16-30" v:mID="16" v:groupContext="shape" transform="translate(83.2176,-82.1463) rotate(0.1)">
			<title>工作表.16</title>
			<desc>得初果</desc>
			<v:textBlock v:margins="rect(0,0,0,0)"/>
			<v:textRect cx="30" cy="128.986" width="60.01" height="10.8"/>
			<rect x="0" y="123.586" width="60" height="10.8" class="st1"/>
			<text x="0" y="132.1" class="st2" v:langID="1028"><v:paragraph/><v:tabList/>得初果   </text>		</g>
		<g id="shape18-33" v:mID="18" v:groupContext="shape" transform="translate(254.524,-84.5633) rotate(0.1)">
			<title>工作表.18</title>
			<desc>聲聞</desc>
			<v:textBlock v:margins="rect(0,0,0,0)" v:tabSpace="42.5197"/>
			<v:textRect cx="16.6748" cy="128.986" width="33.35" height="10.8"/>
			<rect x="0" y="123.586" width="33.3495" height="10.8" class="st1"/>
			<text x="0" y="132.1" class="st2" v:langID="1028"><v:paragraph/><v:tabList/>聲聞</text>		</g>
		<g id="shape19-36" v:mID="19" v:groupContext="shape" transform="translate(0.984547,-69.5854) rotate(0.1)">
			<title>工作表.19</title>
			<desc>十地</desc>
			<v:textBlock v:margins="rect(0,0,0,0)" v:tabSpace="42.5197"/>
			<v:textRect cx="11.6748" cy="128.986" width="23.35" height="10.8"/>
			<rect x="0" y="123.586" width="23.3497" height="10.8" class="st1"/>
			<text x="-0" y="132.1" class="st2" v:langID="1028"><v:paragraph/><v:tabList/>十地 </text>		</g>
		<g id="shape20-39" v:mID="20" v:groupContext="shape" transform="translate(31.6744,-68.7406) rotate(0.1)">
			<title>工作表.20</title>
			<desc>薄 地</desc>
			<v:textBlock v:margins="rect(0,0,0,0)"/>
			<v:textRect cx="21.2212" cy="128.986" width="42.45" height="10.8"/>
			<rect x="0" y="123.586" width="42.4425" height="10.8" class="st1"/>
			<text x="0" y="132.1" class="st2" v:langID="1028"><v:paragraph/><v:tabList/>薄<tspan class="st3"> </tspan>地</text>		</g>
		<g id="shape21-43" v:mID="21" v:groupContext="shape" transform="translate(58.6743,-68.6935) rotate(0.1)">
			<title>工作表.21</title>
			<v:textBlock v:margins="rect(0,0,0,0)"/>
			<rect x="0" y="123.586" width="27" height="10.8" class="st1"/>
		</g>
		<g id="shape22-45" v:mID="22" v:groupContext="shape" transform="translate(83.194,-68.6464) rotate(0.1)">
			<title>工作表.22</title>
			<desc>分斷欲界修惑</desc>
			<v:textBlock v:margins="rect(0,0,0,0)" v:tabSpace="42.5197"/>
			<v:textRect cx="31.5" cy="128.986" width="63.01" height="10.8"/>
			<rect x="0" y="123.586" width="63" height="10.8" class="st1"/>
			<text x="0" y="132.1" class="st2" v:langID="1028"><v:paragraph/><v:tabList/>分斷欲界修惑 </text>		</g>
		<g id="shape24-48" v:mID="24" v:groupContext="shape" transform="translate(22.6508,-55.2563) rotate(0.1)">
			<title>工作表.24</title>
			<desc>離欲地</desc>
			<v:textBlock v:margins="rect(0,0,0,0)"/>
			<v:textRect cx="22.5" cy="128.986" width="45" height="10.8"/>
			<rect x="0" y="123.586" width="45" height="10.8" class="st1"/>
			<text x="8.5" y="132.1" class="st2" v:langID="1028"><v:paragraph/><v:tabList/>離欲地 </text>		</g>
		<g id="shape25-51" v:mID="25" v:groupContext="shape" transform="translate(67.6508,-55.1778) rotate(0.1)">
			<title>工作表.25</title>
			<v:textBlock v:margins="rect(0,0,0,0)"/>
			<rect x="0" y="123.586" width="27" height="10.8" class="st1"/>
		</g>
		<g id="shape26-53" v:mID="26" v:groupContext="shape" transform="translate(83.1704,-55.1464) rotate(0.1)">
			<title>工作表.26</title>
			<desc>阿那含</desc>
			<v:textBlock v:margins="rect(0,0,0,0)"/>
			<v:textRect cx="30" cy="128.986" width="60.01" height="10.8"/>
			<rect x="0" y="123.586" width="60" height="10.8" class="st1"/>
			<text x="0" y="132.1" class="st2" v:langID="1028"><v:paragraph/><v:tabList/>阿那含   </text>		</g>
		<g id="shape28-56" v:mID="28" v:groupContext="shape" transform="translate(22.6273,-41.7564) rotate(0.1)">
			<title>工作表.28</title>
			<desc>已作地</desc>
			<v:textBlock v:margins="rect(0,0,0,0)"/>
			<v:textRect cx="22.5" cy="128.986" width="45" height="10.8"/>
			<rect x="0" y="123.586" width="45" height="10.8" class="st1"/>
			<text x="8.5" y="132.1" class="st2" v:langID="1028"><v:paragraph/><v:tabList/>已作地 </text>		</g>
		<g id="shape29-59" v:mID="29" v:groupContext="shape" transform="translate(83.1469,-41.6464) rotate(0.1)">
			<title>工作表.29</title>
			<desc>阿羅漢得盡智、無生智</desc>
			<v:textBlock v:margins="rect(0,0,0,0)" v:tabSpace="42.5197"/>
			<v:textRect cx="53.7725" cy="128.986" width="107.55" height="10.8"/>
			<rect x="0" y="123.586" width="107.545" height="10.8" class="st1"/>
			<text x="0" y="132.1" class="st2" v:langID="1028"><v:paragraph/><v:tabList/>阿羅漢得盡智、無生智 </text>		</g>
		<g id="shape31-62" v:mID="31" v:groupContext="shape" transform="translate(22.6037,-28.2564) rotate(0.1)">
			<title>工作表.31</title>
			<desc>辟支佛地</desc>
			<v:textBlock v:margins="rect(0,0,0,0)"/>
			<v:textRect cx="28.592" cy="128.986" width="57.19" height="10.8"/>
			<rect x="0" y="123.586" width="57.184" height="10.8" class="st1"/>
			<text x="8.5" y="132.1" class="st2" v:langID="1028"><v:paragraph/><v:tabList/>辟支佛地</text>		</g>
		<g id="shape32-65" v:mID="32" v:groupContext="shape" transform="translate(83.1233,-28.1464) rotate(0.1)">
			<title>工作表.32</title>
			<desc>辟支佛</desc>
			<v:textBlock v:margins="rect(0,0,0,0)" v:tabSpace="42.5197"/>
			<v:textRect cx="18" cy="128.986" width="36" height="10.8"/>
			<rect x="0" y="123.586" width="36" height="10.8" class="st1"/>
			<text x="0" y="132.1" class="st2" v:langID="1028"><v:paragraph/><v:tabList/>辟支佛 </text>		</g>
		<g id="shape33-68" v:mID="33" v:groupContext="shape" transform="translate(121.604,-28.0836) rotate(0.1)">
			<title>工作表.33</title>
			<v:textBlock v:margins="rect(0,0,0,0)"/>
			<rect x="0" y="123.586" width="159.75" height="10.8" class="st1"/>
		</g>
		<g id="shape34-70" v:mID="34" v:groupContext="shape" transform="translate(254.44,-27.8637) rotate(0.1)">
			<title>工作表.34</title>
			<desc>緣覺</desc>
			<v:textBlock v:margins="rect(0,0,0,0)" v:tabSpace="42.5197"/>
			<v:textRect cx="18.8477" cy="128.986" width="37.7" height="10.8"/>
			<rect x="0" y="123.586" width="37.6955" height="10.8" class="st1"/>
			<text x="0" y="132.1" class="st2" v:langID="1028"><v:paragraph/><v:tabList/>緣覺</text>		</g>
		<g id="shape36-73" v:mID="36" v:groupContext="shape" transform="translate(22.5802,-14.7564) rotate(0.1)">
			<title>工作表.36</title>
			<desc>菩薩地</desc>
			<v:textBlock v:margins="rect(0,0,0,0)"/>
			<v:textRect cx="22.5" cy="128.986" width="45" height="10.8"/>
			<rect x="0" y="123.586" width="45" height="10.8" class="st1"/>
			<text x="8.5" y="132.1" class="st2" v:langID="1028"><v:paragraph/><v:tabList/>菩薩地 </text>		</g>
		<g id="shape37-76" v:mID="37" v:groupContext="shape" transform="translate(83.0997,-14.6465) rotate(0.1)">
			<title>工作表.37</title>
			<desc>歡喜地乃至法雲地</desc>
			<v:textBlock v:margins="rect(0,0,0,0)" v:tabSpace="42.5197"/>
			<v:textRect cx="40.5" cy="128.986" width="81.01" height="10.8"/>
			<rect x="0" y="123.586" width="81" height="10.8" class="st1"/>
			<text x="0" y="132.1" class="st2" v:langID="1028"><v:paragraph/><v:tabList/>歡喜地乃至法雲地 </text>		</g>
		<g id="shape38-79" v:mID="38" v:groupContext="shape" transform="translate(166.58,-14.5051) rotate(0.1)">
			<title>工作表.38</title>
			<v:textBlock v:margins="rect(0,0,0,0)"/>
			<rect x="0" y="123.586" width="101.25" height="10.8" class="st1"/>
		</g>
		<g id="shape39-81" v:mID="39" v:groupContext="shape" transform="translate(254.416,-14.3637) rotate(0.1)">
			<title>工作表.39</title>
			<desc>菩薩有三說</desc>
			<v:textBlock v:margins="rect(0,0,0,0)" v:tabSpace="42.5197"/>
			<v:textRect cx="33.0321" cy="128.986" width="66.07" height="10.8"/>
			<rect x="0" y="123.586" width="66.0641" height="10.8" class="st1"/>
			<text x="0" y="132.1" class="st2" v:langID="1028"><v:paragraph/><v:tabList/>菩薩，有三說</text>		</g>
		<g id="shape41-84" v:mID="41" v:groupContext="shape" transform="translate(22.5566,-1.25643) rotate(0.1)">
			<title>工作表.41</title>
			<desc>佛 地</desc>
			<v:textBlock v:margins="rect(0,0,0,0)"/>
			<v:textRect cx="22.5" cy="128.986" width="45" height="10.8"/>
			<rect x="0" y="123.586" width="45" height="10.8" class="st1"/>
			<text x="8.5" y="132.1" class="st2" v:langID="1028"><v:paragraph/><v:tabList/>佛<tspan class="st3"> </tspan>地 </text>		</g>
		<g id="shape42-88" v:mID="42" v:groupContext="shape" transform="translate(83.0762,-1.14647) rotate(0.1)">
			<title>工作表.42</title>
			<desc>具足佛法</desc>
			<v:textBlock v:margins="rect(0,0,0,0)" v:tabSpace="42.5197"/>
			<v:textRect cx="22.5" cy="128.986" width="45" height="10.8"/>
			<rect x="0" y="123.586" width="45" height="10.8" class="st1"/>
			<text x="-0" y="132.1" class="st2" v:langID="1028"><v:paragraph/><v:tabList/>具足佛法 </text>		</g>
		<g id="shape43-91" v:mID="43" v:groupContext="shape" transform="translate(130.556,-1.06793) rotate(0.1)">
			<title>工作表.43</title>
			<v:textBlock v:margins="rect(0,0,0,0)"/>
			<rect x="0" y="123.586" width="144" height="10.8" class="st1"/>
		</g>
		<g id="shape44-93" v:mID="44" v:groupContext="shape" transform="translate(254.393,-0.863729) rotate(0.1)">
			<title>工作表.44</title>
			<desc>佛。</desc>
			<v:textBlock v:margins="rect(0,0,0,0)" v:tabSpace="42.5197"/>
			<v:textRect cx="16.0354" cy="128.986" width="32.08" height="10.8"/>
			<rect x="0" y="123.586" width="32.0707" height="10.8" class="st1"/>
			<text x="0" y="132.1" class="st2" v:langID="1028"><v:paragraph/><v:tabList/>佛。</text>		</g>
		<g id="shape53-96" v:mID="53" v:groupContext="shape" transform="translate(157.375,1.62168) rotate(90.1)">
			<title>工作表.53</title>
			<path d="M0 128.72 C0 130.29 4.92 131.55 10.98 131.55 L46.7 131.55 C52.77 131.55 57.69 132.82 57.69 134.39 C57.69 132.82
						 62.61 131.55 68.67 131.55 L120.83 131.55 C126.93 131.55 131.81 130.29 131.81 128.72 L0 128.72 Z"
					class="st4"/>
			<path d="M0 128.72 C0 130.29 4.92 131.55 10.98 131.55 L46.7 131.55 C52.77 131.55 57.69 132.82 57.69 134.39 C57.69 132.82
						 62.61 131.55 68.67 131.55 L120.83 131.55 C126.93 131.55 131.81 130.29 131.81 128.72" class="st5"/>
		</g>
		<g id="shape54-99" v:mID="54" v:groupContext="shape" transform="translate(379.605,1.09012) rotate(90.1)">
			<title>工作表.54</title>
			<path d="M0 134.39 C0 132.82 3.43 131.55 7.61 131.55 L35.8 131.55 C40.02 131.55 43.45 130.28 43.45 128.72 C43.45 130.28
						 46.88 131.55 51.07 131.55 L83.95 131.55 C88.18 131.55 91.61 132.82 91.61 134.39 L0 134.39 Z" class="st4"/>
			<path d="M0 134.39 C0 132.82 3.43 131.55 7.61 131.55 L35.8 131.55 C40.02 131.55 43.45 130.28 43.45 128.72 C43.45 130.28
						 46.88 131.55 51.07 131.55 L83.95 131.55 C88.18 131.55 91.61 132.82 91.61 134.39" class="st5"/>
		</g>
		<g id="shape55-102" v:mID="55" v:groupContext="shape" transform="translate(62.5535,-128.276)">
			<title>工作表.55</title>
			<path d="M0 134.39 L17.01 134.39" class="st5"/>
		</g>
		<g id="shape56-105" v:mID="56" v:groupContext="shape" transform="translate(62.5535,-114.782)">
			<title>工作表.56</title>
			<path d="M0 134.39 L17.01 134.39" class="st5"/>
		</g>
		<g id="shape57-108" v:mID="57" v:groupContext="shape" transform="translate(62.553,-101.312)">
			<title>工作表.57</title>
			<path d="M0 134.39 L17.01 134.39" class="st5"/>
		</g>
		<g id="shape58-111" v:mID="58" v:groupContext="shape" transform="translate(62.5535,-87.7777)">
			<title>工作表.58</title>
			<path d="M0 134.39 L17.01 134.39" class="st5"/>
		</g>
		<g id="shape59-114" v:mID="59" v:groupContext="shape" transform="translate(62.5532,-74.3118)">
			<title>工作表.59</title>
			<path d="M0 134.39 L17.01 134.39" class="st5"/>
		</g>
		<g id="shape60-117" v:mID="60" v:groupContext="shape" transform="translate(62.5535,-60.7788)">
			<title>工作表.60</title>
			<path d="M0 134.39 L17.01 134.39" class="st5"/>
		</g>
		<g id="shape61-120" v:mID="61" v:groupContext="shape" transform="translate(62.5535,-47.2778)">
			<title>工作表.61</title>
			<path d="M0 134.39 L17.01 134.39" class="st5"/>
		</g>
		<g id="shape62-123" v:mID="62" v:groupContext="shape" transform="translate(62.5527,-20.3117)">
			<title>工作表.62</title>
			<path d="M0 134.39 L17.01 134.39" class="st5"/>
		</g>
		<g id="shape63-126" v:mID="63" v:groupContext="shape" transform="translate(62.7874,-6.58085) rotate(0.1)">
			<title>工作表.63</title>
			<path d="M0 134.39 L17.01 134.39" class="st5"/>
		</g>
		<g id="shape64-129" v:mID="64" v:groupContext="shape" transform="translate(72.4748,-33.7821)">
			<title>工作表.64</title>
			<path d="M0 134.39 L7.09 134.39" class="st5"/>
		</g>
		<g id="shape65-132" v:mID="65" v:groupContext="shape" transform="translate(116.646,-33.7176) rotate(0.1)">
			<title>工作表.65</title>
			<path d="M0 134.39 L136.06 134.39" class="st6"/>
		</g>
		<g id="shape66-135" v:mID="66" v:groupContext="shape" transform="translate(125.58,-6.02805)">
			<title>工作表.66</title>
			<path d="M0 134.39 L125.99 134.39" class="st6"/>
		</g>
		<g id="shape67-138" v:mID="67" v:groupContext="shape" transform="translate(166.355,-20.1365)">
			<title>工作表.67</title>
			<path d="M0 134.39 L86.12 134.39" class="st6"/>
		</g>
	</g>
</svg>
