<?xml version="1.0" encoding="UTF-8" standalone="no"?>
<!DOCTYPE svg PUBLIC "-//W3C//DTD SVG 1.1//EN" "http://www.w3.org/Graphics/SVG/1.1/DTD/svg11.dtd">
<!-- 由 Microsoft Visio, SVG Export 產生 B02806.svg 頁-1 -->
<svg xmlns="http://www.w3.org/2000/svg" xmlns:xlink="http://www.w3.org/1999/xlink" xmlns:ev="http://www.w3.org/2001/xml-events"
		xmlns:v="http://schemas.microsoft.com/visio/2003/SVGExtensions/" width="4.44091in" height="0.805652in"
		viewBox="0 0 319.745 58.007" xml:space="preserve" color-interpolation-filters="sRGB" class="st6">
	<v:documentProperties v:langID="1028" v:viewMarkup="false"/>

	<style type="text/css">
	<![CDATA[
		.st1 {fill:none;stroke:none;stroke-linecap:butt;stroke-width:0.75}
		.st2 {fill:#000000;font-family:新細明體;font-size:0.833336em}
		.st3 {stroke:#000000;stroke-dasharray:0.5625,1.125;stroke-linecap:round;stroke-linejoin:round;stroke-width:0.5625}
		.st4 {fill:none}
		.st5 {stroke:#000000;stroke-linecap:round;stroke-linejoin:round;stroke-width:0.5625}
		.st6 {fill:none;fill-rule:evenodd;font-size:12px;overflow:visible;stroke-linecap:square;stroke-miterlimit:3}
	]]>
	</style>

	<g v:mID="0" v:index="1" v:groupContext="foregroundPage">
		<title>頁-1</title>
		<v:pageProperties v:drawingScale="0.0393701" v:pageScale="0.0393701" v:drawingUnits="24" v:shadowOffsetX="9"
				v:shadowOffsetY="-9"/>
		<g id="shape3-1" v:mID="3" v:groupContext="shape" transform="translate(60.4535,-48.2196) rotate(0.1)">
			<title>工作表.3</title>
			<desc>取相取虛妄相故失</desc>
			<v:textBlock v:margins="rect(0,0,0,0)" v:tabSpace="42.5197"/>
			<v:textRect cx="49.9967" cy="54.4489" width="100" height="7.11622"/>
			<rect x="0" y="50.8907" width="99.9933" height="7.11622" class="st1"/>
			<text x="-0" y="57.56" class="st2" v:langID="1028"><v:paragraph/><v:tabList/>取相：取虛妄相故失 </text>		</g>
		<g id="shape4-4" v:mID="4" v:groupContext="shape" transform="translate(277.627,-47.907) rotate(0.1)">
			<title>工作表.4</title>
			<desc>即有</desc>
			<v:textBlock v:margins="rect(0,0,0,0)" v:tabSpace="42.5197"/>
			<v:textRect cx="11.5881" cy="54.4489" width="23.18" height="7.11622"/>
			<rect x="0" y="50.8907" width="23.1761" height="7.11622" class="st1"/>
			<text x="0" y="57.56" class="st2" v:langID="1028"><v:paragraph/><v:tabList/>即有</text>		</g>
		<g id="shape6-7" v:mID="6" v:groupContext="shape" transform="translate(30.7562,-40.1146) rotate(0.1)">
			<title>工作表.6</title>
			<desc>二邊</desc>
			<v:textBlock v:margins="rect(0,0,0,0)" v:tabSpace="42.5197"/>
			<v:textRect cx="13.2991" cy="54.4489" width="26.6" height="7.11622"/>
			<rect x="0" y="50.8907" width="26.5982" height="7.11622" class="st1"/>
			<text x="0" y="57.56" class="st2" v:langID="1028"><v:paragraph/><v:tabList/>二邊</text>		</g>
		<g id="shape7-10" v:mID="7" v:groupContext="shape" transform="translate(60.4131,-32.6822) rotate(0.1)">
			<title>工作表.7</title>
			<desc>壞相墮斷滅中故失</desc>
			<v:textBlock v:margins="rect(0,0,0,0)" v:tabSpace="42.5197"/>
			<v:textRect cx="49.7341" cy="54.4489" width="99.47" height="7.11622"/>
			<rect x="0" y="50.8907" width="99.4682" height="7.11622" class="st1"/>
			<text x="-0" y="57.56" class="st2" v:langID="1028"><v:paragraph/><v:tabList/>壞相：墮斷滅中故失 </text>		</g>
		<g id="shape8-13" v:mID="8" v:groupContext="shape" transform="translate(277.587,-32.3715) rotate(0.1)">
			<title>工作表.8</title>
			<desc>即無</desc>
			<v:textBlock v:margins="rect(0,0,0,0)" v:tabSpace="42.5197"/>
			<v:textRect cx="13.8767" cy="54.4489" width="27.76" height="7.11622"/>
			<rect x="0" y="50.8907" width="27.7534" height="7.11622" class="st1"/>
			<text x="-0" y="57.56" class="st2" v:langID="1028"><v:paragraph/><v:tabList/>即無</text>		</g>
		<g id="shape9-16" v:mID="9" v:groupContext="shape" transform="translate(0.851241,-24.6431) rotate(0.1)">
			<title>工作表.9</title>
			<desc>中邊</desc>
			<v:textBlock v:margins="rect(0,0,0,0)" v:tabSpace="42.5197"/>
			<v:textRect cx="12.8932" cy="54.4489" width="25.79" height="7.11622"/>
			<rect x="0" y="50.8907" width="25.7864" height="7.11622" class="st1"/>
			<text x="0" y="57.56" class="st2" v:langID="1028"><v:paragraph/><v:tabList/>中邊</text>		</g>
		<g id="shape10-19" v:mID="10" v:groupContext="shape" transform="translate(60.3738,-17.864) rotate(0.1)">
			<title>工作表.10</title>
			<desc>不取相畢竟空中無憶念故</desc>
			<v:textBlock v:margins="rect(0,0,0,0)" v:tabSpace="42.5197"/>
			<v:textRect cx="61.9428" cy="54.4489" width="123.89" height="7.11622"/>
			<rect x="0" y="50.8907" width="123.886" height="7.11622" class="st1"/>
			<text x="0" y="57.56" class="st2" v:langID="1028"><v:paragraph/><v:tabList/>不取相：畢竟空中無憶念故 </text>		</g>
		<g id="shape11-22" v:mID="11" v:groupContext="shape" transform="translate(277.548,-17.5478) rotate(0.1)">
			<title>工作表.11</title>
			<desc>離有</desc>
			<v:textBlock v:margins="rect(0,0,0,0)" v:tabSpace="42.5197"/>
			<v:textRect cx="16.7311" cy="54.4489" width="33.47" height="7.11622"/>
			<rect x="0" y="50.8907" width="33.4622" height="7.11622" class="st1"/>
			<text x="0" y="57.56" class="st2" v:langID="1028"><v:paragraph/><v:tabList/>離有</text>		</g>
		<g id="shape12-25" v:mID="12" v:groupContext="shape" transform="translate(30.6777,-10.4638) rotate(0.1)">
			<title>工作表.12</title>
			<desc>中道</desc>
			<v:textBlock v:margins="rect(0,0,0,0)" v:tabSpace="42.5197"/>
			<v:textRect cx="13.3382" cy="54.4489" width="26.68" height="7.11622"/>
			<rect x="0" y="50.8907" width="26.6763" height="7.11622" class="st1"/>
			<text x="-0" y="57.56" class="st2" v:langID="1028"><v:paragraph/><v:tabList/>中道</text>		</g>
		<g id="shape13-28" v:mID="13" v:groupContext="shape" transform="translate(60.3346,-3.06138) rotate(0.1)">
			<title>工作表.13</title>
			<desc>不壞相相本自無遣倒言不取實不壞相</desc>
			<v:textBlock v:margins="rect(0,0,0,0)" v:tabSpace="42.5197"/>
			<v:textRect cx="100.23" cy="54.4489" width="200.47" height="7.11622"/>
			<rect x="0" y="50.8907" width="200.461" height="7.11622" class="st1"/>
			<text x="0" y="57.56" class="st2" v:langID="1028"><v:paragraph/><v:tabList/>不壞相：相本自無，遣倒言不取，實不壞相</text>		</g>
		<g id="shape14-31" v:mID="14" v:groupContext="shape" transform="translate(231.334,-2.83118) rotate(0.1)">
			<title>工作表.14</title>
			<v:textBlock v:margins="rect(0,0,0,0)"/>
			<rect x="0" y="50.8907" width="87.75" height="7.11622" class="st1"/>
		</g>
		<g id="shape15-33" v:mID="15" v:groupContext="shape" transform="translate(277.509,-2.72321) rotate(0.1)">
			<title>工作表.15</title>
			<desc>離無。</desc>
			<v:textBlock v:margins="rect(0,0,0,0)" v:tabSpace="42.5197"/>
			<v:textRect cx="18.1672" cy="54.4489" width="36.34" height="7.11622"/>
			<rect x="0" y="50.8907" width="36.3345" height="7.11622" class="st1"/>
			<text x="0" y="57.56" class="st2" v:langID="1028"><v:paragraph/><v:tabList/>離無。</text>		</g>
		<g id="shape22-36" v:mID="22" v:groupContext="shape" transform="translate(181.521,-21.2443) rotate(-0.110307)">
			<title>工作表.22</title>
			<path d="M0 58.01 L93.24 58.01" class="st3"/>
		</g>
		<g id="shape23-39" v:mID="23" v:groupContext="shape" transform="translate(252.196,-6.48739)">
			<title>工作表.23</title>
			<path d="M0 58.01 L22.68 58.01" class="st3"/>
		</g>
		<g id="shape24-42" v:mID="24" v:groupContext="shape" transform="translate(81.0669,10.077) rotate(90.1)">
			<title>工作表.24</title>
			<path d="M0 52.34 C0 53.89 1.47 55.17 3.33 55.17 L15.72 55.17 C17.54 55.17 19.05 56.42 19.05 58.01 C19.05 56.42 20.52
						 55.17 22.34 55.17 L36.4 55.17 C38.21 55.17 39.68 53.89 39.68 52.34 L0 52.34 Z" class="st4"/>
			<path d="M0 52.34 C0 53.89 1.47 55.17 3.33 55.17 L15.72 55.17 C17.54 55.17 19.05 56.42 19.05 58.01 C19.05 56.42 20.52
						 55.17 22.34 55.17 L36.4 55.17 C38.21 55.17 39.68 53.89 39.68 52.34" class="st5"/>
		</g>
		<g id="shape25-45" v:mID="25" v:groupContext="shape" transform="translate(110.666,1.57308) rotate(90.1)">
			<title>工作表.25</title>
			<path d="M0 52.62 C0 54.09 0.95 55.31 2.11 55.31 L10.1 55.31 C11.26 55.31 12.21 56.5 12.21 58.01 C12.21 56.5 13.16 55.31
						 14.36 55.31 L23.37 55.31 C24.56 55.31 25.51 54.09 25.51 52.62 L0 52.62 Z" class="st4"/>
			<path d="M0 52.62 C0 54.09 0.95 55.31 2.11 55.31 L10.1 55.31 C11.26 55.31 12.21 56.5 12.21 58.01 C12.21 56.5 13.16 55.31
						 14.36 55.31 L23.37 55.31 C24.56 55.31 25.51 54.09 25.51 52.62" class="st5"/>
		</g>
		<g id="shape26-48" v:mID="26" v:groupContext="shape" transform="translate(110.383,31.707) rotate(90.1)">
			<title>工作表.26</title>
			<path d="M0 52.05 C0 53.72 0.9 55.03 2.01 55.03 L9.5 55.03 C10.62 55.03 11.51 56.38 11.51 58.01 C11.51 56.38 12.41 55.03
						 13.5 55.03 L22 55.03 C23.09 55.03 23.99 53.72 23.99 52.05 L0 52.05 Z" class="st4"/>
			<path d="M0 52.05 C0 53.72 0.9 55.03 2.01 55.03 L9.5 55.03 C10.62 55.03 11.51 56.38 11.51 58.01 C11.51 56.38 12.41 55.03
						 13.5 55.03 L22 55.03 C23.09 55.03 23.99 53.72 23.99 52.05" class="st5"/>
		</g>
		<g id="shape27-51" v:mID="27" v:groupContext="shape" transform="translate(152.983,-36.3174)">
			<title>工作表.27</title>
			<path d="M0 58.01 L121.89 58.01" class="st3"/>
		</g>
		<g id="shape28-54" v:mID="28" v:groupContext="shape" transform="translate(153.05,-51.5532) rotate(0.065891)">
			<title>工作表.28</title>
			<path d="M0 58.01 L121.89 58.01" class="st3"/>
		</g>
	</g>
</svg>
