<?xml version="1.0" encoding="UTF-8" standalone="no"?>
<!DOCTYPE svg PUBLIC "-//W3C//DTD SVG 1.1//EN" "http://www.w3.org/Graphics/SVG/1.1/DTD/svg11.dtd">
<!-- 由 Microsoft Visio, SVG Export 產生 B02902.svg 頁-1 -->
<svg xmlns="http://www.w3.org/2000/svg" xmlns:xlink="http://www.w3.org/1999/xlink" xmlns:ev="http://www.w3.org/2001/xml-events"
		xmlns:v="http://schemas.microsoft.com/visio/2003/SVGExtensions/" width="2.30083in" height="0.38573in"
		viewBox="0 0 165.66 27.7725" xml:space="preserve" color-interpolation-filters="sRGB" class="st5">
	<v:documentProperties v:langID="1028" v:viewMarkup="false"/>

	<style type="text/css">
	<![CDATA[
		.st1 {fill:none;stroke:none;stroke-linecap:butt;stroke-width:0.75}
		.st2 {fill:#000000;font-family:新細明體;font-size:0.833336em}
		.st3 {fill:none}
		.st4 {stroke:#000000;stroke-linecap:round;stroke-linejoin:round;stroke-width:0.5625}
		.st5 {fill:none;fill-rule:evenodd;font-size:12px;overflow:visible;stroke-linecap:square;stroke-miterlimit:3}
	]]>
	</style>

	<g v:mID="0" v:index="1" v:groupContext="foregroundPage">
		<title>頁-1</title>
		<v:pageProperties v:drawingScale="0.0393701" v:pageScale="0.0393701" v:drawingUnits="24" v:shadowOffsetX="9"
				v:shadowOffsetY="-9"/>
		<g id="shape2-1" v:mID="2" v:groupContext="shape" transform="translate(4.11634,-18.521) rotate(0.1)">
			<title>工作表.2</title>
			<desc>學</desc>
			<v:textBlock v:margins="rect(0,0,0,0)"/>
			<v:textRect cx="42.9115" cy="24.7501" width="85.83" height="6.04485"/>
			<rect x="0" y="21.7277" width="85.823" height="6.04485" class="st1"/>
			<text x="68" y="27.86" class="st2" v:langID="1028"><v:paragraph/><v:tabList/>學</text>		</g>
		<g id="shape3-4" v:mID="3" v:groupContext="shape" transform="translate(86.3455,-18.408) rotate(0.1)">
			<title>工作表.3</title>
			<v:textBlock v:margins="rect(0,0,0,0)" v:tabSpace="42.5197"/>
			<rect x="0" y="21.7277" width="9" height="6.04485" class="st1"/>
		</g>
		<g id="shape4-6" v:mID="4" v:groupContext="shape" transform="translate(112.255,-18.3984) rotate(0.1)">
			<title>工作表.4</title>
			<desc>未得無生忍</desc>
			<v:textBlock v:margins="rect(0,0,0,0)" v:tabSpace="42.5197"/>
			<v:textRect cx="26.3464" cy="24.7501" width="52.7" height="6.04485"/>
			<rect x="0" y="21.7277" width="52.6929" height="6.04485" class="st1"/>
			<text x="0" y="27.86" class="st2" v:langID="1028"><v:paragraph/><v:tabList/>未得無生忍</text>		</g>
		<g id="shape5-9" v:mID="5" v:groupContext="shape" transform="translate(0.822034,-10.9562) rotate(0.1)">
			<title>工作表.5</title>
			<desc>大乘學、無學</desc>
			<v:textBlock v:margins="rect(0,0,0,0)" v:tabSpace="42.5197"/>
			<v:textRect cx="31.5" cy="24.7501" width="63" height="6.04485"/>
			<rect x="0" y="21.7277" width="63" height="6.04485" class="st1"/>
			<text x="0" y="27.86" class="st2" v:langID="1028"><v:paragraph/><v:tabList/>大乘學、無學 </text>		</g>
		<g id="shape6-12" v:mID="6" v:groupContext="shape" transform="translate(0.798472,-3.41167) rotate(0.1)">
			<title>工作表.6</title>
			<v:textBlock v:margins="rect(0,0,0,0)"/>
			<rect x="0" y="21.7277" width="93" height="6.04485" class="st1"/>
		</g>
		<g id="shape7-14" v:mID="7" v:groupContext="shape" transform="translate(72.7984,-3.31529) rotate(0.1)">
			<title>工作表.7</title>
			<desc>無學</desc>
			<v:textBlock v:margins="rect(0,0,0,0)" v:tabSpace="42.5197"/>
			<v:textRect cx="12.6055" cy="24.7501" width="25.22" height="6.04485"/>
			<rect x="0" y="21.7277" width="25.211" height="6.04485" class="st1"/>
			<text x="0" y="27.86" class="st2" v:langID="1028"><v:paragraph/><v:tabList/>無學</text>		</g>
		<g id="shape8-17" v:mID="8" v:groupContext="shape" transform="translate(103.129,-3.29134) rotate(0.1)">
			<title>工作表.8</title>
			<desc>得無生忍</desc>
			<v:textBlock v:margins="rect(0,0,0,0)"/>
			<v:textRect cx="27.2039" cy="24.7501" width="54.41" height="6.04485"/>
			<rect x="0" y="21.7277" width="54.4077" height="6.04485" class="st1"/>
			<text x="8.5" y="27.86" class="st2" v:langID="1028"><v:paragraph/><v:tabList/>得無生忍</text>		</g>
		<g id="shape15-20" v:mID="15" v:groupContext="shape" transform="translate(91.739,2.99449) rotate(90.1)">
			<title>工作表.15</title>
			<path d="M0 21.78 C0 23.43 0.86 24.76 1.89 24.76 L8.82 24.76 C9.87 24.76 10.7 26.12 10.7 27.77 C10.7 26.12 11.56 24.76
						 12.59 24.76 L20.78 24.76 C21.84 24.76 22.67 23.43 22.67 21.78 L0 21.78 Z" class="st3"/>
			<path d="M0 21.78 C0 23.43 0.86 24.76 1.89 24.76 L8.82 24.76 C9.87 24.76 10.7 26.12 10.7 27.77 C10.7 26.12 11.56 24.76
						 12.59 24.76 L20.78 24.76 C21.84 24.76 22.67 23.43 22.67 21.78" class="st4"/>
		</g>
		<g id="shape16-23" v:mID="16" v:groupContext="shape" transform="translate(86.3027,-21.6562)">
			<title>工作表.16</title>
			<path d="M0 27.77 L23.87 27.77" class="st4"/>
		</g>
		<g id="shape17-26" v:mID="17" v:groupContext="shape" transform="translate(95.2908,-6.53481)">
			<title>工作表.17</title>
			<path d="M0 27.77 L14.34 27.77" class="st4"/>
		</g>
	</g>
</svg>
