<?xml version="1.0" encoding="UTF-8" standalone="no"?>
<!DOCTYPE svg PUBLIC "-//W3C//DTD SVG 1.1//EN" "http://www.w3.org/Graphics/SVG/1.1/DTD/svg11.dtd">
<!-- 由 Microsoft Visio, SVG Export 產生 B01704.svg 頁-1 -->
<svg xmlns="http://www.w3.org/2000/svg" xmlns:xlink="http://www.w3.org/1999/xlink" xmlns:ev="http://www.w3.org/2001/xml-events"
		xmlns:v="http://schemas.microsoft.com/visio/2003/SVGExtensions/" width="4.57936in" height="0.385953in"
		viewBox="0 0 329.714 27.7886" xml:space="preserve" color-interpolation-filters="sRGB" class="st7">
	<v:documentProperties v:langID="1028" v:viewMarkup="false"/>

	<style type="text/css">
	<![CDATA[
		.st1 {fill:none;stroke:none;stroke-linecap:butt;stroke-width:0.75}
		.st2 {fill:#000000;font-family:新細明體;font-size:0.833336em}
		.st3 {font-family:Times New Roman;font-size:1em}
		.st4 {fill:none}
		.st5 {stroke:#000000;stroke-linecap:round;stroke-linejoin:round;stroke-width:0.5625}
		.st6 {stroke:#000000;stroke-dasharray:0.5625,1.125;stroke-linecap:round;stroke-linejoin:round;stroke-width:0.5625}
		.st7 {fill:none;fill-rule:evenodd;font-size:12px;overflow:visible;stroke-linecap:square;stroke-miterlimit:3}
	]]>
	</style>

	<g v:mID="0" v:index="1" v:groupContext="foregroundPage">
		<title>頁-1</title>
		<v:pageProperties v:drawingScale="0.0393701" v:pageScale="0.0393701" v:drawingUnits="24" v:shadowOffsetX="9"
				v:shadowOffsetY="-9"/>
		<g id="shape2-1" v:mID="2" v:groupContext="shape" transform="translate(31.3254,-19.1801) rotate(0.1)">
			<title>工作表.2</title>
			<desc>開菩薩道─六度</desc>
			<v:textBlock v:margins="rect(0,0,0,0)" v:tabSpace="42.5197"/>
			<v:textRect cx="49.7939" cy="25.4092" width="99.59" height="4.75885"/>
			<rect x="0" y="23.0298" width="99.5878" height="4.75885" class="st1"/>
			<text x="0" y="28.52" class="st2" v:langID="1028"><v:paragraph/><v:tabList/>開菩薩道<tspan class="st3">─</tspan>六度</text>		</g>
		<g id="shape3-5" v:mID="3" v:groupContext="shape" transform="translate(123.139,-19.0932) rotate(0.1)">
			<title>工作表.3</title>
			<desc>施戒等雜故遠</desc>
			<v:textBlock v:margins="rect(0,0,0,0)" v:tabSpace="42.5197"/>
			<v:textRect cx="37.776" cy="25.4092" width="75.56" height="4.75885"/>
			<rect x="0" y="23.0298" width="75.5519" height="4.75885" class="st1"/>
			<text x="0" y="28.52" class="st2" v:langID="1028"><v:paragraph/><v:tabList/>施戒等雜故遠</text>		</g>
		<g id="shape4-8" v:mID="4" v:groupContext="shape" transform="translate(200.865,-19.027) rotate(0.1)">
			<title>工作表.4</title>
			<desc>有世出世故遠</desc>
			<v:textBlock v:margins="rect(0,0,0,0)" v:tabSpace="42.5197"/>
			<v:textRect cx="37.3036" cy="25.4092" width="74.61" height="4.75885"/>
			<rect x="0" y="23.0298" width="74.6072" height="4.75885" class="st1"/>
			<text x="0" y="28.52" class="st2" v:langID="1028"><v:paragraph/><v:tabList/>有世出世故遠</text>		</g>
		<g id="shape5-11" v:mID="5" v:groupContext="shape" transform="translate(0.7985,-11.3601) rotate(0.1)">
			<title>工作表.5</title>
			<desc>開道</desc>
			<v:textBlock v:margins="rect(0,0,0,0)" v:tabSpace="42.5197"/>
			<v:textRect cx="25.287" cy="25.4092" width="50.58" height="4.75885"/>
			<rect x="0" y="23.0298" width="50.5741" height="4.75885" class="st1"/>
			<text x="-0" y="28.52" class="st2" v:langID="1028"><v:paragraph/><v:tabList/>開道</text>		</g>
		<g id="shape6-14" v:mID="6" v:groupContext="shape" transform="translate(31.2671,-4.10886) rotate(0.1)">
			<title>工作表.6</title>
			<desc>開佛道─三十七品無得方便</desc>
			<v:textBlock v:margins="rect(0,0,0,0)" v:tabSpace="42.5197"/>
			<v:textRect cx="80.2914" cy="25.4092" width="160.59" height="4.75885"/>
			<rect x="0" y="23.0298" width="160.583" height="4.75885" class="st1"/>
			<text x="0" y="28.52" class="st2" v:langID="1028"><v:paragraph/><v:tabList/>開佛道<tspan class="st3">─</tspan>三十七品（無得方便）</text>		</g>
		<g id="shape7-18" v:mID="7" v:groupContext="shape" transform="translate(188.767,-3.95444) rotate(0.1)">
			<title>工作表.7</title>
			<desc>但有定慧故近</desc>
			<v:textBlock v:margins="rect(0,0,0,0)" v:tabSpace="42.5197"/>
			<v:textRect cx="46.187" cy="25.4092" width="92.38" height="4.75885"/>
			<rect x="0" y="23.0298" width="92.374" height="4.75885" class="st1"/>
			<text x="0" y="28.52" class="st2" v:langID="1028"><v:paragraph/><v:tabList/>但有定慧故近</text>		</g>
		<g id="shape8-21" v:mID="8" v:groupContext="shape" transform="translate(265.073,-4.2773) rotate(0.1)">
			<title>工作表.8</title>
			<desc>畢竟清淨故近</desc>
			<v:textBlock v:margins="rect(0,0,0,0)" v:tabSpace="42.5197"/>
			<v:textRect cx="31.9655" cy="25.4092" width="63.94" height="4.75885"/>
			<rect x="0" y="23.0298" width="63.931" height="4.75885" class="st1"/>
			<text x="0" y="28.52" class="st2" v:langID="1028"><v:paragraph/><v:tabList/>畢竟清淨故近</text>		</g>
		<g id="shape24-24" v:mID="24" v:groupContext="shape" transform="translate(50.795,0.7632) rotate(90.1)">
			<title>工作表.24</title>
			<path d="M0 22.12 C0 23.69 0.95 24.95 2.14 24.95 L10.64 24.95 C11.81 24.95 12.76 26.24 12.76 27.79 C12.76 26.24 13.7
						 24.95 14.89 24.95 L23.4 24.95 C24.56 24.95 25.51 23.69 25.51 22.12 L0 22.12 Z" class="st4"/>
			<path d="M0 22.12 C0 23.69 0.95 24.95 2.14 24.95 L10.64 24.95 C11.81 24.95 12.76 26.24 12.76 27.79 C12.76 26.24 13.7
						 24.95 14.89 24.95 L23.4 24.95 C24.56 24.95 25.51 23.69 25.51 22.12" class="st5"/>
		</g>
		<g id="shape25-27" v:mID="25" v:groupContext="shape" transform="translate(169.416,-5.95538)">
			<title>工作表.25</title>
			<path d="M0 27.79 L16.44 27.79" class="st6"/>
		</g>
		<g id="shape26-30" v:mID="26" v:groupContext="shape" transform="translate(249.92,-5.8879)">
			<title>工作表.26</title>
			<path d="M0 27.79 L12.43 27.79" class="st6"/>
		</g>
		<g id="shape27-33" v:mID="27" v:groupContext="shape" transform="translate(103.305,-21.456) rotate(0.047935)">
			<title>工作表.27</title>
			<path d="M0 27.79 L18.58 27.79" class="st6"/>
		</g>
		<g id="shape28-36" v:mID="28" v:groupContext="shape" transform="translate(184.723,-21.3729)">
			<title>工作表.28</title>
			<path d="M0 27.79 L13.92 27.79" class="st6"/>
		</g>
	</g>
</svg>
