<?xml version="1.0" encoding="UTF-8" standalone="no"?>
<!DOCTYPE svg PUBLIC "-//W3C//DTD SVG 1.1//EN" "http://www.w3.org/Graphics/SVG/1.1/DTD/svg11.dtd">
<!-- 由 Microsoft Visio, SVG Export 產生 B02904.svg 頁-1 -->
<svg xmlns="http://www.w3.org/2000/svg" xmlns:xlink="http://www.w3.org/1999/xlink" xmlns:ev="http://www.w3.org/2001/xml-events"
		xmlns:v="http://schemas.microsoft.com/visio/2003/SVGExtensions/" width="5.24404in" height="0.580234in"
		viewBox="0 0 377.571 41.7768" xml:space="preserve" color-interpolation-filters="sRGB" class="st5">
	<v:documentProperties v:langID="1028" v:viewMarkup="false"/>

	<style type="text/css">
	<![CDATA[
		.st1 {fill:none;stroke:none;stroke-linecap:butt;stroke-width:0.75}
		.st2 {fill:#000000;font-family:新細明體;font-size:0.833336em}
		.st3 {fill:none}
		.st4 {stroke:#000000;stroke-linecap:round;stroke-linejoin:round;stroke-width:0.5625}
		.st5 {fill:none;fill-rule:evenodd;font-size:12px;overflow:visible;stroke-linecap:square;stroke-miterlimit:3}
	]]>
	</style>

	<g v:mID="0" v:index="1" v:groupContext="foregroundPage">
		<title>頁-1</title>
		<v:pageProperties v:drawingScale="0.0393701" v:pageScale="0.0393701" v:drawingUnits="24" v:shadowOffsetX="9"
				v:shadowOffsetY="-9"/>
		<g id="shape3-1" v:mID="3" v:groupContext="shape" transform="translate(50.3397,-33.6684) rotate(0.1)">
			<title>工作表.3</title>
			<desc>有未得記</desc>
			<v:textBlock v:margins="rect(0,0,0,0)" v:tabSpace="42.5197"/>
			<v:textRect cx="28.6732" cy="39.8975" width="57.35" height="3.75865"/>
			<rect x="0" y="38.0182" width="57.3464" height="3.75865" class="st1"/>
			<text x="-0" y="43.01" class="st2" v:langID="1028"><v:paragraph/><v:tabList/>有未得記</text>		</g>
		<g id="shape5-4" v:mID="5" v:groupContext="shape" transform="translate(0.822914,-22.9131) rotate(0.1)">
			<title>工作表.5</title>
			<desc>阿鞞跋致</desc>
			<v:textBlock v:margins="rect(0,0,0,0)" v:tabSpace="42.5197"/>
			<v:textRect cx="22.6607" cy="39.8975" width="45.33" height="3.75865"/>
			<rect x="0" y="38.0182" width="45.3215" height="3.75865" class="st1"/>
			<text x="-0" y="43.01" class="st2" v:langID="1028"><v:paragraph/><v:tabList/>阿鞞跋致</text>		</g>
		<g id="shape6-7" v:mID="6" v:groupContext="shape" transform="translate(42.3938,-26.6312) rotate(0.1)">
			<title>工作表.6</title>
			<v:textBlock v:margins="rect(0,0,0,0)"/>
			<rect x="0" y="36.8246" width="168" height="4.95223" class="st1"/>
		</g>
		<g id="shape7-9" v:mID="7" v:groupContext="shape" transform="translate(159.642,-26.4844) rotate(0.1)">
			<title>工作表.7</title>
			<desc>具足受記因緣</desc>
			<v:textBlock v:margins="rect(0,0,0,0)" v:tabSpace="42.5197"/>
			<v:textRect cx="31.5189" cy="39.3007" width="63.04" height="4.95223"/>
			<rect x="0" y="36.8246" width="63.0377" height="4.95223" class="st1"/>
			<text x="-0" y="42.42" class="st2" v:langID="1028"><v:paragraph/><v:tabList/>具足受記因緣</text>		</g>
		<g id="shape8-12" v:mID="8" v:groupContext="shape" transform="translate(246.807,-26.4186) rotate(0.1)">
			<title>工作表.8</title>
			<desc>知實相、具六度</desc>
			<v:textBlock v:margins="rect(0,0,0,0)" v:tabSpace="42.5197"/>
			<v:textRect cx="38.1093" cy="39.3007" width="76.22" height="4.95223"/>
			<rect x="0" y="36.8246" width="76.2187" height="4.95223" class="st1"/>
			<text x="0" y="42.42" class="st2" v:langID="1028"><v:paragraph/><v:tabList/>知實相、具六度</text>		</g>
		<g id="shape11-15" v:mID="11" v:groupContext="shape" transform="translate(99.7672,-18.951) rotate(0.1)">
			<title>工作表.11</title>
			<desc>不現前授記</desc>
			<v:textBlock v:margins="rect(0,0,0,0)" v:tabSpace="42.5197"/>
			<v:textRect cx="27.3523" cy="39.3007" width="54.71" height="4.95223"/>
			<rect x="0" y="36.8246" width="54.7046" height="4.95223" class="st1"/>
			<text x="0" y="42.42" class="st2" v:langID="1028"><v:paragraph/><v:tabList/>不現前授記</text>		</g>
		<g id="shape13-18" v:mID="13" v:groupContext="shape" transform="translate(50.2393,-11.4335) rotate(0.1)">
			<title>工作表.13</title>
			<desc>有已得記</desc>
			<v:textBlock v:margins="rect(0,0,0,0)" v:tabSpace="42.5197"/>
			<v:textRect cx="22.3521" cy="39.3007" width="44.71" height="4.95223"/>
			<rect x="0" y="36.8246" width="44.7041" height="4.95223" class="st1"/>
			<text x="0" y="42.42" class="st2" v:langID="1028"><v:paragraph/><v:tabList/>有已得記</text>		</g>
		<g id="shape15-21" v:mID="15" v:groupContext="shape" transform="translate(159.586,-11.3655) rotate(0.1)">
			<title>工作表.15</title>
			<desc>未具足受記因緣</desc>
			<v:textBlock v:margins="rect(0,0,0,0)" v:tabSpace="42.5197"/>
			<v:textRect cx="38.0665" cy="39.3007" width="76.14" height="4.95223"/>
			<rect x="0" y="36.8246" width="76.133" height="4.95223" class="st1"/>
			<text x="-0" y="42.42" class="st2" v:langID="1028"><v:paragraph/><v:tabList/>未具足受記因緣</text>		</g>
		<g id="shape16-24" v:mID="16" v:groupContext="shape" transform="translate(246.751,-11.319) rotate(0.1)">
			<title>工作表.16</title>
			<desc>知實相、得般若分、未具餘五</desc>
			<v:textBlock v:margins="rect(0,0,0,0)" v:tabSpace="42.5197"/>
			<v:textRect cx="65.0674" cy="39.3007" width="130.14" height="4.95223"/>
			<rect x="0" y="36.8246" width="130.135" height="4.95223" class="st1"/>
			<text x="-0" y="42.42" class="st2" v:langID="1028"><v:paragraph/><v:tabList/>知實相、得般若分、未具餘五</text>		</g>
		<g id="shape18-27" v:mID="18" v:groupContext="shape" transform="translate(99.7089,-3.8228) rotate(0.1)">
			<title>工作表.18</title>
			<desc>現前授記</desc>
			<v:textBlock v:margins="rect(0,0,0,0)" v:tabSpace="42.5197"/>
			<v:textRect cx="23.9793" cy="39.3007" width="47.96" height="4.95223"/>
			<rect x="0" y="36.8246" width="47.9586" height="4.95223" class="st1"/>
			<text x="0" y="42.42" class="st2" v:langID="1028"><v:paragraph/><v:tabList/>現前授記</text>		</g>
		<g id="shape27-30" v:mID="27" v:groupContext="shape" transform="translate(84.4072,0.829041) rotate(90.1)">
			<title>工作表.27</title>
			<path d="M0 36.1 C0 37.67 1.21 38.94 2.71 38.94 L12.66 38.94 C14.18 38.94 15.39 40.23 15.39 41.78 C15.39 40.23 16.61
						 38.94 18.1 38.94 L29.89 38.94 C31.38 38.94 32.6 37.67 32.6 36.1 L0 36.1 Z" class="st3"/>
			<path d="M0 36.1 C0 37.67 1.21 38.94 2.71 38.94 L12.66 38.94 C14.18 38.94 15.39 40.23 15.39 41.78 C15.39 40.23 16.61
						 38.94 18.1 38.94 L29.89 38.94 C31.38 38.94 32.6 37.67 32.6 36.1" class="st4"/>
		</g>
		<g id="shape28-33" v:mID="28" v:groupContext="shape" transform="translate(133.841,15.002) rotate(90.1)">
			<title>工作表.28</title>
			<path d="M0 36.4 C0 37.9 0.95 39.09 2.14 39.09 L9.91 39.09 C11.1 39.09 12.05 40.31 12.05 41.78 C12.05 40.31 13 39.09
						 14.17 39.09 L23.4 39.09 C24.56 39.09 25.51 37.9 25.51 36.4 L0 36.4 Z" class="st3"/>
			<path d="M0 36.4 C0 37.9 0.95 39.09 2.14 39.09 L9.91 39.09 C11.1 39.09 12.05 40.31 12.05 41.78 C12.05 40.31 13 39.09
						 14.17 39.09 L23.4 39.09 C24.56 39.09 25.51 37.9 25.51 36.4" class="st4"/>
		</g>
		<g id="shape29-36" v:mID="29" v:groupContext="shape" transform="translate(193.898,8.27061) rotate(90.1)">
			<title>工作表.29</title>
			<path d="M0 36.11 C0 37.7 0.88 38.94 2.01 38.94 L9.37 38.94 C10.47 38.94 11.38 40.23 11.38 41.78 C11.38 40.23 12.26 38.94
						 13.39 38.94 L22.09 38.94 C23.18 38.94 24.09 37.7 24.09 36.11 L0 36.11 Z" class="st3"/>
			<path d="M0 36.11 C0 37.7 0.88 38.94 2.01 38.94 L9.37 38.94 C10.47 38.94 11.38 40.23 11.38 41.78 C11.38 40.23 12.26 38.94
						 13.39 38.94 L22.09 38.94 C23.18 38.94 24.09 37.7 24.09 36.11" class="st4"/>
		</g>
		<g id="shape30-39" v:mID="30" v:groupContext="shape" transform="translate(221.193,-28.6765)">
			<title>工作表.30</title>
			<path d="M0 41.78 L22.68 41.78" class="st4"/>
		</g>
		<g id="shape31-42" v:mID="31" v:groupContext="shape" transform="translate(231.115,-13.7158)">
			<title>工作表.31</title>
			<path d="M0 41.78 L12.76 41.78" class="st4"/>
		</g>
	</g>
</svg>
