<?xml version="1.0" encoding="UTF-8" standalone="no"?>
<!DOCTYPE svg PUBLIC "-//W3C//DTD SVG 1.1//EN" "http://www.w3.org/Graphics/SVG/1.1/DTD/svg11.dtd">
<!-- 由 Microsoft Visio, SVG Export 產生 A01106.svg 頁-1 -->
<svg xmlns="http://www.w3.org/2000/svg" xmlns:xlink="http://www.w3.org/1999/xlink" xmlns:ev="http://www.w3.org/2001/xml-events"
		xmlns:v="http://schemas.microsoft.com/visio/2003/SVGExtensions/" width="3.09498in" height="0.422186in"
		viewBox="0 0 222.838 30.3974" xml:space="preserve" color-interpolation-filters="sRGB" class="st7">
	<v:documentProperties v:langID="1028" v:viewMarkup="false"/>

	<style type="text/css">
	<![CDATA[
		.st1 {fill:none;stroke:none;stroke-linecap:butt;stroke-width:0.75}
		.st2 {fill:#000000;font-family:新細明體;font-size:0.833336em}
		.st3 {font-family:Times New Roman;font-size:1em}
		.st4 {font-size:1em}
		.st5 {fill:none}
		.st6 {stroke:#040000;stroke-linecap:round;stroke-linejoin:round;stroke-width:0.705463}
		.st7 {fill:none;fill-rule:evenodd;font-size:12px;overflow:visible;stroke-linecap:square;stroke-miterlimit:3}
	]]>
	</style>

	<g v:mID="0" v:index="1" v:groupContext="foregroundPage">
		<title>頁-1</title>
		<v:pageProperties v:drawingScale="0.0393701" v:pageScale="0.0393701" v:drawingUnits="24" v:shadowOffsetX="9"
				v:shadowOffsetY="-9"/>
		<g id="shape1-1" v:mID="1" v:groupContext="shape" transform="translate(111.916,-0.75)">
			<title>工作表.1</title>
			<desc>有邊——眾生應可度盡 無邊——佛不應有一切智</desc>
			<v:textBlock v:margins="rect(0,0,0,0)" v:tabSpace="42.5197"/>
			<v:textRect cx="55.0863" cy="15.9487" width="110.18" height="28.8974"/>
			<rect x="0" y="1.5" width="110.173" height="28.8974" class="st1"/>
			<text x="-0" y="11.83" class="st2" v:langID="1028"><v:paragraph v:spBefore="2"/><v:tabList/>有邊<tspan class="st3">——</tspan>眾生應可度盡<v:newlineChar/><tspan
						x="-0" dy="1.446em" class="st4">無邊</tspan><tspan class="st3">——</tspan>佛不應有一切智</text>		</g>
		<g id="shape2-7" v:mID="2" v:groupContext="shape" transform="translate(0.75,-8.62199)">
			<title>工作表.2</title>
			<desc>世界有邊、無邊是邪見</desc>
			<v:textBlock v:margins="rect(0,0,0,0)" v:tabSpace="42.5197"/>
			<v:textRect cx="56.4371" cy="23.625" width="112.88" height="13.5449"/>
			<rect x="0" y="16.8525" width="112.874" height="13.5449" class="st1"/>
			<text x="-0" y="26.74" class="st2" v:langID="1028"><v:paragraph/><v:tabList/>世界有邊、無邊是邪見</text>		</g>
		<g id="shape16-10" v:mID="16" v:groupContext="shape" transform="translate(132.203,6.69478) rotate(90)">
			<title>工作表.16</title>
			<path d="M0 21.5 C0 23.97 0.63 25.95 1.42 25.95 L7.09 25.95 C7.87 25.95 8.5 27.98 8.5 30.4 C8.5 27.98 9.13 25.95 9.92
						 25.95 L15.59 25.95 C16.38 25.95 17.01 23.97 17.01 21.5 L0 21.5 Z" class="st5"/>
			<path d="M0 21.5 C0 23.97 0.63 25.95 1.42 25.95 L7.09 25.95 C7.87 25.95 8.5 27.98 8.5 30.4 C8.5 27.98 9.13 25.95 9.92
						 25.95 L15.59 25.95 C16.38 25.95 17.01 23.97 17.01 21.5" class="st6"/>
		</g>
	</g>
</svg>
