<?xml version="1.0" encoding="UTF-8" standalone="no"?>
<!DOCTYPE svg PUBLIC "-//W3C//DTD SVG 1.1//EN" "http://www.w3.org/Graphics/SVG/1.1/DTD/svg11.dtd">
<!-- 由 Microsoft Visio, SVG Export 產生 B02909.svg 頁-1 -->
<svg xmlns="http://www.w3.org/2000/svg" xmlns:xlink="http://www.w3.org/1999/xlink" xmlns:ev="http://www.w3.org/2001/xml-events"
		xmlns:v="http://schemas.microsoft.com/visio/2003/SVGExtensions/" width="2.62594in" height="0.593174in"
		viewBox="0 0 189.068 42.7085" xml:space="preserve" color-interpolation-filters="sRGB" class="st5">
	<v:documentProperties v:langID="1028" v:viewMarkup="false"/>

	<style type="text/css">
	<![CDATA[
		.st1 {fill:none;stroke:none;stroke-linecap:butt;stroke-width:0.75}
		.st2 {fill:#000000;font-family:新細明體;font-size:0.833336em}
		.st3 {fill:none}
		.st4 {stroke:#000000;stroke-linecap:round;stroke-linejoin:round;stroke-width:0.5625}
		.st5 {fill:none;fill-rule:evenodd;font-size:12px;overflow:visible;stroke-linecap:square;stroke-miterlimit:3}
	]]>
	</style>

	<g v:mID="0" v:index="1" v:groupContext="foregroundPage">
		<title>頁-1</title>
		<v:pageProperties v:drawingScale="0.0393701" v:pageScale="0.0393701" v:drawingUnits="24" v:shadowOffsetX="9"
				v:shadowOffsetY="-9"/>
		<g id="shape2-1" v:mID="2" v:groupContext="shape" transform="translate(0.876173,-31.1585) rotate(0.1)">
			<title>工作表.2</title>
			<v:textBlock v:margins="rect(0,0,0,0)"/>
			<rect x="0" y="31.9085" width="63" height="10.8" class="st1"/>
		</g>
		<g id="shape3-3" v:mID="3" v:groupContext="shape" transform="translate(42.5263,-30.4179) rotate(0.1)">
			<title>工作表.3</title>
			<desc>邪行相</desc>
			<v:textBlock v:margins="rect(0,0,0,0)"/>
			<v:textRect cx="22.5" cy="37.3085" width="45" height="10.8"/>
			<rect x="0" y="31.9085" width="45" height="10.8" class="st1"/>
			<text x="0" y="40.42" class="st2" v:langID="1028"><v:paragraph/><v:tabList/>邪行相  </text>		</g>
		<g id="shape4-6" v:mID="4" v:groupContext="shape" transform="translate(87.5262,-30.3394) rotate(0.1)">
			<title>工作表.4</title>
			<v:textBlock v:margins="rect(0,0,0,0)"/>
			<rect x="0" y="31.9085" width="27" height="10.8" class="st1"/>
		</g>
		<g id="shape5-8" v:mID="5" v:groupContext="shape" transform="translate(105.071,-30.2844) rotate(0.1)">
			<title>工作表.5</title>
			<desc>著心取相</desc>
			<v:textBlock v:margins="rect(0,0,0,0)" v:tabSpace="42.5197"/>
			<v:textRect cx="23.2276" cy="37.3085" width="46.46" height="10.8"/>
			<rect x="0" y="31.9085" width="46.4552" height="10.8" class="st1"/>
			<text x="-0" y="40.42" class="st2" v:langID="1028"><v:paragraph/><v:tabList/>著心取相</text>		</g>
		<g id="shape6-11" v:mID="6" v:groupContext="shape" transform="translate(2.16224,-16.2426) rotate(0.1)">
			<title>工作表.6</title>
			<desc>三次第</desc>
			<v:textBlock v:margins="rect(0,0,0,0)" v:tabSpace="42.5197"/>
			<v:textRect cx="18.2061" cy="37.3085" width="36.42" height="10.8"/>
			<rect x="0" y="31.9085" width="36.4122" height="10.8" class="st1"/>
			<text x="0" y="40.42" class="st2" v:langID="1028"><v:paragraph/><v:tabList/>三次第</text>		</g>
		<g id="shape7-14" v:mID="7" v:groupContext="shape" transform="translate(42.5041,-15.5021) rotate(0.1)">
			<title>工作表.7</title>
			<desc>遮邪行相</desc>
			<v:textBlock v:margins="rect(0,0,0,0)" v:tabSpace="42.5197"/>
			<v:textRect cx="22.5" cy="37.3085" width="45" height="10.8"/>
			<rect x="0" y="31.9085" width="45" height="10.8" class="st1"/>
			<text x="0" y="40.42" class="st2" v:langID="1028"><v:paragraph/><v:tabList/>遮邪行相 </text>		</g>
		<g id="shape8-17" v:mID="8" v:groupContext="shape" transform="translate(87.504,-15.4235) rotate(0.1)">
			<title>工作表.8</title>
			<v:textBlock v:margins="rect(0,0,0,0)"/>
			<rect x="0" y="31.9085" width="27" height="10.8" class="st1"/>
		</g>
		<g id="shape9-19" v:mID="9" v:groupContext="shape" transform="translate(105.049,-15.3685) rotate(0.1)">
			<title>工作表.9</title>
			<desc>破是著相</desc>
			<v:textBlock v:margins="rect(0,0,0,0)" v:tabSpace="42.5197"/>
			<v:textRect cx="24.0879" cy="37.3085" width="48.18" height="10.8"/>
			<rect x="0" y="31.9085" width="48.1758" height="10.8" class="st1"/>
			<text x="0" y="40.42" class="st2" v:langID="1028"><v:paragraph/><v:tabList/>破是著相</text>		</g>
		<g id="shape10-22" v:mID="10" v:groupContext="shape" transform="translate(0.82454,-1.1885) rotate(0.1)">
			<title>工作表.10</title>
			<v:textBlock v:margins="rect(0,0,0,0)"/>
			<rect x="0" y="31.9085" width="63" height="10.8" class="st1"/>
		</g>
		<g id="shape11-24" v:mID="11" v:groupContext="shape" transform="translate(42.4747,-1.10211) rotate(0.1)">
			<title>工作表.11</title>
			<desc>示正行相</desc>
			<v:textBlock v:margins="rect(0,0,0,0)" v:tabSpace="42.5197"/>
			<v:textRect cx="22.5" cy="37.3085" width="45" height="10.8"/>
			<rect x="0" y="31.9085" width="45" height="10.8" class="st1"/>
			<text x="-0" y="40.42" class="st2" v:langID="1028"><v:paragraph/><v:tabList/>示正行相 </text>		</g>
		<g id="shape12-27" v:mID="12" v:groupContext="shape" transform="translate(87.4746,-1.02357) rotate(0.1)">
			<title>工作表.12</title>
			<v:textBlock v:margins="rect(0,0,0,0)"/>
			<rect x="0" y="31.9085" width="27" height="10.8" class="st1"/>
		</g>
		<g id="shape13-29" v:mID="13" v:groupContext="shape" transform="translate(105.019,-0.968589) rotate(0.1)">
			<title>工作表.13</title>
			<desc>破邪著亦說實相</desc>
			<v:textBlock v:margins="rect(0,0,0,0)" v:tabSpace="42.5197"/>
			<v:textRect cx="41.6772" cy="37.3085" width="83.36" height="10.8"/>
			<rect x="0" y="31.9085" width="83.3544" height="10.8" class="st1"/>
			<text x="0" y="40.42" class="st2" v:langID="1028"><v:paragraph/><v:tabList/>破邪著，亦說實相</text>		</g>
		<g id="shape20-32" v:mID="20" v:groupContext="shape" transform="translate(77.2783,1.54231) rotate(90.1)">
			<title>工作表.20</title>
			<path d="M0 37.21 C0 38.73 1.47 39.96 3.29 39.96 L16.52 39.96 C18.37 39.96 19.84 41.2 19.84 42.71 C19.84 41.2 21.32 39.96
						 23.13 39.96 L36.36 39.96 C38.21 39.96 39.68 38.73 39.68 37.21 L0 37.21 Z" class="st3"/>
			<path d="M0 37.21 C0 38.73 1.47 39.96 3.29 39.96 L16.52 39.96 C18.37 39.96 19.84 41.2 19.84 42.71 C19.84 41.2 21.32 39.96
						 23.13 39.96 L36.36 39.96 C38.21 39.96 39.68 38.73 39.68 37.21" class="st4"/>
		</g>
		<g id="shape21-35" v:mID="21" v:groupContext="shape" transform="translate(74.1264,-35.4026) rotate(0.1)">
			<title>工作表.21</title>
			<path d="M0 42.71 L28.35 42.71" class="st4"/>
		</g>
		<g id="shape22-38" v:mID="22" v:groupContext="shape" transform="translate(83.9516,-20.1897)">
			<title>工作表.22</title>
			<path d="M0 42.71 L18.45 42.71" class="st4"/>
		</g>
		<g id="shape23-41" v:mID="23" v:groupContext="shape" transform="translate(84.1697,-6.20413)">
			<title>工作表.23</title>
			<path d="M0 42.71 L18.23 42.71" class="st4"/>
		</g>
	</g>
</svg>
