<?xml version="1.0" encoding="UTF-8" standalone="no"?>
<!DOCTYPE svg PUBLIC "-//W3C//DTD SVG 1.1//EN" "http://www.w3.org/Graphics/SVG/1.1/DTD/svg11.dtd">
<!-- 由 Microsoft Visio, SVG Export 產生 B02910.svg 頁-1 -->
<svg xmlns="http://www.w3.org/2000/svg" xmlns:xlink="http://www.w3.org/1999/xlink" xmlns:ev="http://www.w3.org/2001/xml-events"
		xmlns:v="http://schemas.microsoft.com/visio/2003/SVGExtensions/" width="1.71621in" height="0.382372in"
		viewBox="0 0 123.567 27.5308" xml:space="preserve" color-interpolation-filters="sRGB" class="st5">
	<v:documentProperties v:langID="1028" v:viewMarkup="false"/>

	<style type="text/css">
	<![CDATA[
		.st1 {fill:none;stroke:none;stroke-linecap:butt;stroke-width:0.75}
		.st2 {fill:#000000;font-family:新細明體;font-size:0.833336em}
		.st3 {fill:none}
		.st4 {stroke:#000000;stroke-linecap:round;stroke-linejoin:round;stroke-width:0.5625}
		.st5 {fill:none;fill-rule:evenodd;font-size:12px;overflow:visible;stroke-linecap:square;stroke-miterlimit:3}
	]]>
	</style>

	<g v:mID="0" v:index="1" v:groupContext="foregroundPage">
		<title>頁-1</title>
		<v:pageProperties v:drawingScale="0.0393701" v:pageScale="0.0393701" v:drawingUnits="24" v:shadowOffsetX="9"
				v:shadowOffsetY="-9"/>
		<g id="group1-1" transform="translate(0.75,-1.65161)" v:mID="1" v:groupContext="group">
			<title>工作表.1</title>
			<g id="shape2-2" v:mID="2" v:groupContext="shape" transform="translate(0.101111,-16.9096) rotate(0.1)">
				<title>工作表.2</title>
				<v:textBlock v:margins="rect(0,0,0,0)"/>
				<rect x="0" y="22.0222" width="33" height="5.50854" class="st1"/>
			</g>
			<g id="shape3-4" v:mID="3" v:groupContext="shape" transform="translate(30.2137,-16.8959) rotate(0.1)">
				<title>工作表.3</title>
				<desc>行是道破倒見</desc>
				<v:textBlock v:margins="rect(0,0,0,0)" v:tabSpace="42.5197"/>
				<v:textRect cx="37.9659" cy="24.7765" width="75.94" height="5.50854"/>
				<rect x="0" y="22.0222" width="75.9317" height="5.50854" class="st1"/>
				<text x="-0" y="27.89" class="st2" v:langID="1028"><v:paragraph/><v:tabList/>行是道，破倒見</text>			</g>
			<g id="shape4-7" v:mID="4" v:groupContext="shape" transform="translate(0.95033,-10.1697) rotate(0.1)">
				<title>工作表.4</title>
				<desc>雙非</desc>
				<v:textBlock v:margins="rect(0,0,0,0)" v:tabSpace="42.5197"/>
				<v:textRect cx="12.0392" cy="24.7765" width="24.08" height="5.50854"/>
				<rect x="0" y="22.0222" width="24.0783" height="5.50854" class="st1"/>
				<text x="0" y="27.89" class="st2" v:langID="1028"><v:paragraph/><v:tabList/>雙非</text>			</g>
			<g id="shape5-10" v:mID="5" v:groupContext="shape" transform="translate(0.0480502,-1.59426) rotate(0.1)">
				<title>工作表.5</title>
				<v:textBlock v:margins="rect(0,0,0,0)"/>
				<rect x="0" y="22.0222" width="18" height="5.50854" class="st1"/>
			</g>
			<g id="shape6-12" v:mID="6" v:groupContext="shape" transform="translate(30.2113,-2.1276) rotate(0.1)">
				<title>工作表.6</title>
				<desc>捨此道直入法性住</desc>
				<v:textBlock v:margins="rect(0,0,0,0)" v:tabSpace="42.5197"/>
				<v:textRect cx="45.9472" cy="24.7765" width="91.9" height="5.50854"/>
				<rect x="0" y="22.0222" width="91.8943" height="5.50854" class="st1"/>
				<text x="0" y="27.89" class="st2" v:langID="1028"><v:paragraph/><v:tabList/>捨此道，直入法性住</text>			</g>
			<g id="shape7-15" v:mID="7" v:groupContext="shape" transform="translate(50.6246,3.19218) rotate(90.1)">
				<title>工作表.7</title>
				<path d="M0 22.52 C0 23.9 0.92 25.01 2.03 25.01 L9.48 25.01 C10.62 25.01 11.51 26.15 11.51 27.53 C11.51 26.15 12.43
							 25.01 13.54 25.01 L22.35 25.01 C23.48 25.01 24.38 23.9 24.38 22.52 L0 22.52 Z" class="st3"/>
				<path d="M0 22.52 C0 23.9 0.92 25.01 2.03 25.01 L9.48 25.01 C10.62 25.01 11.51 26.15 11.51 27.53 C11.51 26.15 12.43
							 25.01 13.54 25.01 L22.35 25.01 C23.48 25.01 24.38 23.9 24.38 22.52" class="st4"/>
			</g>
		</g>
	</g>
</svg>
