<?xml version="1.0" encoding="UTF-8" standalone="no"?>
<!DOCTYPE svg PUBLIC "-//W3C//DTD SVG 1.1//EN" "http://www.w3.org/Graphics/SVG/1.1/DTD/svg11.dtd">
<!-- 由 Microsoft Visio, SVG Export 產生 M078.083=B03001.svg 頁-1 -->
<svg xmlns="http://www.w3.org/2000/svg" xmlns:xlink="http://www.w3.org/1999/xlink" xmlns:ev="http://www.w3.org/2001/xml-events"
		xmlns:v="http://schemas.microsoft.com/visio/2003/SVGExtensions/" width="4.88309in" height="0.60797in"
		viewBox="0 0 351.582 43.7738" xml:space="preserve" color-interpolation-filters="sRGB" class="st5">
	<v:documentProperties v:langID="1028" v:viewMarkup="false"/>

	<style type="text/css">
	<![CDATA[
		.st1 {fill:none;stroke:none;stroke-linecap:butt;stroke-width:0.75}
		.st2 {fill:#000000;font-family:新細明體;font-size:0.833336em}
		.st3 {fill:none}
		.st4 {stroke:#000000;stroke-linecap:round;stroke-linejoin:round;stroke-width:0.5625}
		.st5 {fill:none;fill-rule:evenodd;font-size:12px;overflow:visible;stroke-linecap:square;stroke-miterlimit:3}
	]]>
	</style>

	<g v:mID="0" v:index="1" v:groupContext="foregroundPage">
		<title>頁-1</title>
		<v:pageProperties v:drawingScale="0.0393701" v:pageScale="0.0393701" v:drawingUnits="24" v:shadowOffsetX="9"
				v:shadowOffsetY="-9"/>
		<g id="shape4-1" v:mID="4" v:groupContext="shape" transform="translate(99.8287,-34.9593) rotate(0.1)">
			<title>工作表.4</title>
			<desc>小乘人言</desc>
			<v:textBlock v:margins="rect(0,0,0,0)" v:tabSpace="42.5197"/>
			<v:textRect cx="21.6761" cy="41.189" width="43.36" height="5.16966"/>
			<rect x="0" y="38.6042" width="43.3523" height="5.16966" class="st1"/>
			<text x="0" y="44.3" class="st2" v:langID="1028"><v:paragraph/><v:tabList/>小乘人言</text>		</g>
		<g id="shape5-4" v:mID="5" v:groupContext="shape" transform="translate(158.525,-34.9599) rotate(0.1)">
			<title>工作表.5</title>
			<desc>補處菩薩不及沙彌得無量律儀者</desc>
			<v:textBlock v:margins="rect(0,0,0,0)"/>
			<v:textRect cx="76.0481" cy="41.189" width="152.1" height="5.16966"/>
			<rect x="0" y="38.6042" width="152.096" height="5.16966" class="st1"/>
			<text x="8.5" y="44.3" class="st2" v:langID="1028"><v:paragraph/><v:tabList/>補處菩薩不及沙彌得無量律儀者</text>		</g>
		<g id="shape7-7" v:mID="7" v:groupContext="shape" transform="translate(0.8264,-15.8832) rotate(0.1)">
			<title>工作表.7</title>
			<desc>菩薩小乘勝劣</desc>
			<v:textBlock v:margins="rect(0,0,0,0)" v:tabSpace="42.5197"/>
			<v:textRect cx="31.1995" cy="41.189" width="62.4" height="5.16966"/>
			<rect x="0" y="38.6042" width="62.3989" height="5.16966" class="st1"/>
			<text x="-0" y="44.3" class="st2" v:langID="1028"><v:paragraph/><v:tabList/>菩薩小乘勝劣</text>		</g>
		<g id="shape9-10" v:mID="9" v:groupContext="shape" transform="translate(99.7711,-19.1743) rotate(0.1)">
			<title>工作表.9</title>
			<desc>大乘有人言</desc>
			<v:textBlock v:margins="rect(0,0,0,0)" v:tabSpace="42.5197"/>
			<v:textRect cx="26.2388" cy="41.189" width="52.48" height="5.16966"/>
			<rect x="0" y="38.6042" width="52.4775" height="5.16966" class="st1"/>
			<text x="0" y="44.3" class="st2" v:langID="1028"><v:paragraph/><v:tabList/>大乘有人言</text>		</g>
		<g id="shape10-13" v:mID="10" v:groupContext="shape" transform="translate(154.22,-19.1354) rotate(0.1)">
			<title>工作表.10</title>
			<v:textBlock v:margins="rect(0,0,0,0)"/>
			<rect x="0" y="38.6042" width="49.5" height="5.16966" class="st1"/>
		</g>
		<g id="shape11-15" v:mID="11" v:groupContext="shape" transform="translate(167.44,-19.1735) rotate(0.1)">
			<title>工作表.11</title>
			<desc>發大乘心在惡人中勝二乘得解脫者</desc>
			<v:textBlock v:margins="rect(0,0,0,0)" v:tabSpace="42.5197"/>
			<v:textRect cx="86.77" cy="41.189" width="173.55" height="5.16966"/>
			<rect x="0" y="38.6042" width="173.54" height="5.16966" class="st1"/>
			<text x="0" y="44.3" class="st2" v:langID="1028"><v:paragraph/><v:tabList/>發大乘心，在惡人中，勝二乘得解脫者</text>		</g>
		<g id="shape14-18" v:mID="14" v:groupContext="shape" transform="translate(70.0121,-4.19071) rotate(0.1)">
			<title>工作表.14</title>
			<desc>中道</desc>
			<v:textBlock v:margins="rect(0,0,0,0)" v:tabSpace="42.5197"/>
			<v:textRect cx="13.0878" cy="41.189" width="26.18" height="5.16966"/>
			<rect x="0" y="38.6042" width="26.1755" height="5.16966" class="st1"/>
			<text x="0" y="44.3" class="st2" v:langID="1028"><v:paragraph/><v:tabList/>中道</text>		</g>
		<g id="shape15-21" v:mID="15" v:groupContext="shape" transform="translate(91.1616,-3.41526) rotate(0.1)">
			<title>工作表.15</title>
			<v:textBlock v:margins="rect(0,0,0,0)"/>
			<rect x="0" y="38.6042" width="85.5" height="5.16966" class="st1"/>
		</g>
		<g id="shape16-23" v:mID="16" v:groupContext="shape" transform="translate(167.383,-4.17644) rotate(0.1)">
			<title>工作表.16</title>
			<desc>菩薩發心行諸波羅密道能勝一切眾生</desc>
			<v:textBlock v:margins="rect(0,0,0,0)" v:tabSpace="42.5197"/>
			<v:textRect cx="91.7584" cy="41.189" width="183.52" height="5.16966"/>
			<rect x="0" y="38.6042" width="183.517" height="5.16966" class="st1"/>
			<text x="-0" y="44.3" class="st2" v:langID="1028"><v:paragraph/><v:tabList/>菩薩發心，行諸波羅密道，能勝一切眾生</text>		</g>
		<g id="shape18-26" v:mID="18" v:groupContext="shape" transform="translate(135.425,1.53282) rotate(90.1)">
			<title>工作表.18</title>
			<path d="M0 37.96 C0 39.57 0.95 40.87 2.09 40.87 L10.58 40.87 C11.72 40.87 12.67 42.17 12.67 43.77 C12.67 42.17 13.59
						 40.87 14.76 40.87 L23.03 40.87 C24.2 40.87 25.12 39.57 25.12 37.96 L0 37.96 Z" class="st3"/>
			<path d="M0 37.96 C0 39.57 0.95 40.87 2.09 40.87 L10.58 40.87 C11.72 40.87 12.67 42.17 12.67 43.77 C12.67 42.17 13.59
						 40.87 14.76 40.87 L23.03 40.87 C24.2 40.87 25.12 39.57 25.12 37.96" class="st4"/>
		</g>
		<g id="shape21-29" v:mID="21" v:groupContext="shape" transform="translate(92.4411,-6.63748)">
			<title>工作表.21</title>
			<path d="M0 43.77 L72.27 43.77" class="st4"/>
		</g>
		<g id="shape28-32" v:mID="28" v:groupContext="shape" transform="translate(70.0121,-27.2218) rotate(0.1)">
			<title>工作表.28</title>
			<desc>二邊</desc>
			<v:textBlock v:margins="rect(0,0,0,0)" v:tabSpace="42.5197"/>
			<v:textRect cx="13.0878" cy="41.189" width="26.18" height="5.16966"/>
			<rect x="0" y="38.6042" width="26.1755" height="5.16966" class="st1"/>
			<text x="0" y="44.3" class="st2" v:langID="1028"><v:paragraph/><v:tabList/>二邊</text>		</g>
		<g id="shape29-35" v:mID="29" v:groupContext="shape" transform="translate(151.594,-21.0529)">
			<title>工作表.29</title>
			<path d="M0 43.77 L13.12 43.77" class="st4"/>
		</g>
		<g id="shape30-38" v:mID="30" v:groupContext="shape" transform="translate(139.648,-36.6435)">
			<title>工作表.30</title>
			<path d="M0 43.77 L25.07 43.77" class="st4"/>
		</g>
		<g id="shape31-41" v:mID="31" v:groupContext="shape" transform="translate(106.237,10.0312) rotate(90.1)">
			<title>工作表.31</title>
			<path d="M0 37.96 C0 39.57 1.18 40.87 2.6 40.87 L13.13 40.87 C14.55 40.87 15.73 42.17 15.73 43.77 C15.73 42.17 16.87
						 40.87 18.33 40.87 L28.59 40.87 C30.04 40.87 31.19 39.57 31.19 37.96 L0 37.96 Z" class="st3"/>
			<path d="M0 37.96 C0 39.57 1.18 40.87 2.6 40.87 L13.13 40.87 C14.55 40.87 15.73 42.17 15.73 43.77 C15.73 42.17 16.87
						 40.87 18.33 40.87 L28.59 40.87 C30.04 40.87 31.19 39.57 31.19 37.96" class="st4"/>
		</g>
	</g>
</svg>
