<?xml version="1.0" encoding="UTF-8" standalone="no"?>
<!DOCTYPE svg PUBLIC "-//W3C//DTD SVG 1.1//EN" "http://www.w3.org/Graphics/SVG/1.1/DTD/svg11.dtd">
<!-- 由 Microsoft Visio, SVG Export 產生 B03003.svg 頁-1 -->
<svg xmlns="http://www.w3.org/2000/svg" xmlns:xlink="http://www.w3.org/1999/xlink" xmlns:ev="http://www.w3.org/2001/xml-events"
		xmlns:v="http://schemas.microsoft.com/visio/2003/SVGExtensions/" width="1.107in" height="0.771917in"
		viewBox="0 0 79.7039 55.578" xml:space="preserve" color-interpolation-filters="sRGB" class="st5">
	<v:documentProperties v:langID="1028" v:viewMarkup="false"/>

	<style type="text/css">
	<![CDATA[
		.st1 {fill:none;stroke:none;stroke-linecap:butt;stroke-width:0.75}
		.st2 {fill:#000000;font-family:新細明體;font-size:0.833336em}
		.st3 {fill:none}
		.st4 {stroke:#000000;stroke-linecap:round;stroke-linejoin:round;stroke-width:0.5625}
		.st5 {fill:none;fill-rule:evenodd;font-size:12px;overflow:visible;stroke-linecap:square;stroke-miterlimit:3}
	]]>
	</style>

	<g v:mID="0" v:index="1" v:groupContext="foregroundPage">
		<title>頁-1</title>
		<v:pageProperties v:drawingScale="0.0393701" v:pageScale="0.0393701" v:drawingUnits="24" v:shadowOffsetX="9"
				v:shadowOffsetY="-9"/>
		<g id="shape2-1" v:mID="2" v:groupContext="shape" transform="translate(0.85734,-43.9488) rotate(0.1)">
			<title>工作表.2</title>
			<desc>初發意</desc>
			<v:textBlock v:margins="rect(0,0,0,0)"/>
			<v:textRect cx="33.4184" cy="50.178" width="66.84" height="10.8"/>
			<rect x="0" y="44.778" width="66.8368" height="10.8" class="st1"/>
			<text x="34" y="53.29" class="st2" v:langID="1028"><v:paragraph/><v:tabList/>初發意</text>		</g>
		<g id="shape3-4" v:mID="3" v:groupContext="shape" transform="translate(5.30563,-29.0309) rotate(0.1)">
			<title>工作表.3</title>
			<desc>菩薩</desc>
			<v:textBlock v:margins="rect(0,0,0,0)"/>
			<v:textRect cx="11.6164" cy="50.178" width="23.24" height="10.8"/>
			<rect x="0" y="44.778" width="23.2328" height="10.8" class="st1"/>
			<text x="-0" y="53.29" class="st2" v:langID="1028"><v:paragraph/><v:tabList/>菩薩  </text>		</g>
		<g id="shape4-7" v:mID="4" v:groupContext="shape" transform="translate(0.847002,-14.8195) rotate(0.1)">
			<title>工作表.4</title>
			<desc>不退地</desc>
			<v:textBlock v:margins="rect(0,0,0,0)"/>
			<v:textRect cx="35.549" cy="50.178" width="71.1" height="10.8"/>
			<rect x="0" y="44.778" width="71.0981" height="10.8" class="st1"/>
			<text x="34" y="53.29" class="st2" v:langID="1028"><v:paragraph/><v:tabList/>不退地</text>		</g>
		<g id="shape5-10" v:mID="5" v:groupContext="shape" transform="translate(4.71582,-0.962338) rotate(0.1)">
			<title>工作表.5</title>
			<v:textBlock v:margins="rect(0,0,0,0)"/>
			<rect x="0" y="44.778" width="48" height="10.8" class="st1"/>
		</g>
		<g id="shape6-12" v:mID="6" v:groupContext="shape" transform="translate(35.4008,-0.898756) rotate(0.1)">
			<title>工作表.6</title>
			<desc>一生所繫</desc>
			<v:textBlock v:margins="rect(0,0,0,0)" v:tabSpace="42.5197"/>
			<v:textRect cx="21.8157" cy="50.178" width="43.64" height="10.8"/>
			<rect x="0" y="44.778" width="43.6314" height="10.8" class="st1"/>
			<text x="0" y="53.29" class="st2" v:langID="1028"><v:paragraph/><v:tabList/>一生所繫</text>		</g>
		<g id="shape13-15" v:mID="13" v:groupContext="shape" transform="translate(83.5383,1.31471) rotate(90.1)">
			<title>工作表.13</title>
			<path d="M0 49.91 C0 51.48 1.97 52.74 4.37 52.74 L15.51 52.74 C17.92 52.74 19.88 54.03 19.88 55.58 C19.88 54.03 21.81
						 52.74 24.25 52.74 L48.07 52.74 C50.52 52.74 52.44 51.48 52.44 49.91 L0 49.91 Z" class="st3"/>
			<path d="M0 49.91 C0 51.48 1.97 52.74 4.37 52.74 L15.51 52.74 C17.92 52.74 19.88 54.03 19.88 55.58 C19.88 54.03 21.81
						 52.74 24.25 52.74 L48.07 52.74 C50.52 52.74 52.44 51.48 52.44 49.91" class="st4"/>
		</g>
		<g id="shape14-18" v:mID="14" v:groupContext="shape" transform="translate(35.3617,-29.0208)">
			<title>工作表.14</title>
			<desc>久發意</desc>
			<v:textBlock v:margins="rect(0,0,0,0)"/>
			<v:textRect cx="18.0094" cy="50.178" width="36.02" height="10.8"/>
			<rect x="0" y="44.778" width="36.0188" height="10.8" class="st1"/>
			<text x="0" y="53.29" class="st2" v:langID="1028"><v:paragraph/><v:tabList/>久發意</text>		</g>
	</g>
</svg>
