<?xml version="1.0" encoding="UTF-8" standalone="no"?>
<!DOCTYPE svg PUBLIC "-//W3C//DTD SVG 1.1//EN" "http://www.w3.org/Graphics/SVG/1.1/DTD/svg11.dtd">
<!-- 由 Microsoft Visio, SVG Export 產生 B03005更正.svg 頁-1 -->
<svg xmlns="http://www.w3.org/2000/svg" xmlns:xlink="http://www.w3.org/1999/xlink" xmlns:ev="http://www.w3.org/2001/xml-events"
		xmlns:v="http://schemas.microsoft.com/visio/2003/SVGExtensions/" width="3.07388in" height="0.386369in"
		viewBox="0 0 221.32 27.8186" xml:space="preserve" color-interpolation-filters="sRGB" class="st5">
	<v:documentProperties v:langID="1028" v:viewMarkup="false"/>

	<style type="text/css">
	<![CDATA[
		.st1 {fill:none;stroke:none;stroke-linecap:butt;stroke-width:0.75}
		.st2 {fill:#000000;font-family:新細明體;font-size:0.833336em}
		.st3 {fill:none}
		.st4 {stroke:#000000;stroke-linecap:round;stroke-linejoin:round;stroke-width:0.5625}
		.st5 {fill:none;fill-rule:evenodd;font-size:12px;overflow:visible;stroke-linecap:square;stroke-miterlimit:3}
	]]>
	</style>

	<g v:mID="0" v:index="1" v:groupContext="foregroundPage">
		<title>頁-1</title>
		<v:pageProperties v:drawingScale="0.0393701" v:pageScale="0.0393701" v:drawingUnits="24" v:shadowOffsetX="9"
				v:shadowOffsetY="-9"/>
		<g id="shape8-1" v:mID="8" v:groupContext="shape" transform="translate(0.845676,-18.6261) rotate(0.1)">
			<title>工作表.8</title>
			<v:textBlock v:margins="rect(0,0,0,0)"/>
			<rect x="0" y="21.7811" width="93" height="6.03755" class="st1"/>
		</g>
		<g id="shape9-3" v:mID="9" v:groupContext="shape" transform="translate(60.4958,-18.5708) rotate(0.1)">
			<title>工作表.9</title>
			<desc>一、世諦差別勝義無差別</desc>
			<v:textBlock v:margins="rect(0,0,0,0)" v:tabSpace="42.5197"/>
			<v:textRect cx="60.2123" cy="24.7998" width="120.43" height="6.03755"/>
			<rect x="0" y="21.7811" width="120.425" height="6.03755" class="st1"/>
			<text x="0" y="27.91" class="st2" v:langID="1028"><v:paragraph/><v:tabList/>一、世諦差別，勝義無差別</text>		</g>
		<g id="shape10-6" v:mID="10" v:groupContext="shape" transform="translate(0.822115,-11.0642) rotate(0.1)">
			<title>工作表.10</title>
			<desc>差別無差別</desc>
			<v:textBlock v:margins="rect(0,0,0,0)" v:tabSpace="42.5197"/>
			<v:textRect cx="27" cy="24.7998" width="54.01" height="6.03755"/>
			<rect x="0" y="21.7811" width="54" height="6.03755" class="st1"/>
			<text x="0" y="27.91" class="st2" v:langID="1028"><v:paragraph/><v:tabList/>差別無差別 </text>		</g>
		<g id="shape11-9" v:mID="11" v:groupContext="shape" transform="translate(0.798553,-3.52651) rotate(0.1)">
			<title>工作表.11</title>
			<v:textBlock v:margins="rect(0,0,0,0)"/>
			<rect x="0" y="21.7811" width="78" height="6.03755" class="st1"/>
		</g>
		<g id="shape12-11" v:mID="12" v:groupContext="shape" transform="translate(51.4487,-3.50451) rotate(0.1)">
			<title>工作表.12</title>
			<desc>二、未得無生法忍差別已得無差別</desc>
			<v:textBlock v:margins="rect(0,0,0,0)"/>
			<v:textRect cx="84.5795" cy="24.7998" width="169.16" height="6.03755"/>
			<rect x="0" y="21.7811" width="169.159" height="6.03755" class="st1"/>
			<text x="8.5" y="27.91" class="st2" v:langID="1028"><v:paragraph/><v:tabList/>二、未得無生法忍差別，已得無差別</text>		</g>
		<g id="shape13-14" v:mID="13" v:groupContext="shape" transform="translate(80.5073,1.06369) rotate(90.1)">
			<title>工作表.13</title>
			<path d="M0 22.15 C0 23.72 0.89 24.98 2.03 24.98 L10.22 24.98 C11.33 24.98 12.25 26.27 12.25 27.82 C12.25 26.27 13.17
						 24.98 14.28 24.98 L22.32 24.98 C23.42 24.98 24.34 23.72 24.34 22.15 L0 22.15 Z" class="st3"/>
			<path d="M0 22.15 C0 23.72 0.89 24.98 2.03 24.98 L10.22 24.98 C11.33 24.98 12.25 26.27 12.25 27.82 C12.25 26.27 13.17
						 24.98 14.28 24.98 L22.32 24.98 C23.42 24.98 24.34 23.72 24.34 22.15" class="st4"/>
		</g>
	</g>
</svg>
