<?xml version="1.0" encoding="UTF-8" standalone="no"?>
<!DOCTYPE svg PUBLIC "-//W3C//DTD SVG 1.1//EN" "http://www.w3.org/Graphics/SVG/1.1/DTD/svg11.dtd">
<!-- 由 Microsoft Visio, SVG Export 產生 B03004.svg 頁-1 -->
<svg xmlns="http://www.w3.org/2000/svg" xmlns:xlink="http://www.w3.org/1999/xlink" xmlns:ev="http://www.w3.org/2001/xml-events"
		xmlns:v="http://schemas.microsoft.com/visio/2003/SVGExtensions/" width="2.99655in" height="0.391628in"
		viewBox="0 0 215.752 28.1972" xml:space="preserve" color-interpolation-filters="sRGB" class="st5">
	<v:documentProperties v:langID="1028" v:viewMarkup="false"/>

	<style type="text/css">
	<![CDATA[
		.st1 {fill:none;stroke:none;stroke-linecap:butt;stroke-width:0.75}
		.st2 {fill:#000000;font-family:新細明體;font-size:0.833336em}
		.st3 {fill:none}
		.st4 {stroke:#000000;stroke-linecap:round;stroke-linejoin:round;stroke-width:0.5625}
		.st5 {fill:none;fill-rule:evenodd;font-size:12px;overflow:visible;stroke-linecap:square;stroke-miterlimit:3}
	]]>
	</style>

	<g v:mID="0" v:index="1" v:groupContext="foregroundPage">
		<title>頁-1</title>
		<v:pageProperties v:drawingScale="0.0393701" v:pageScale="0.0393701" v:drawingUnits="24" v:shadowOffsetX="9"
				v:shadowOffsetY="-9"/>
		<g id="shape2-1" v:mID="2" v:groupContext="shape" transform="translate(0.857532,-19.4154) rotate(0.1)">
			<title>工作表.2</title>
			<desc>有人聞難發心</desc>
			<v:textBlock v:margins="rect(0,0,0,0)" v:tabSpace="42.5197"/>
			<v:textRect cx="32.9493" cy="25.6446" width="65.9" height="5.10522"/>
			<rect x="0" y="23.092" width="65.8985" height="5.10522" class="st1"/>
			<text x="0" y="28.76" class="st2" v:langID="1028"><v:paragraph/><v:tabList/>有人聞難發心</text>		</g>
		<g id="shape3-4" v:mID="3" v:groupContext="shape" transform="translate(54.8575,-19.3529) rotate(0.1)">
			<title>工作表.3</title>
			<v:textBlock v:margins="rect(0,0,0,0)"/>
			<rect x="0" y="23.092" width="27" height="5.10522" class="st1"/>
		</g>
		<g id="shape4-6" v:mID="4" v:groupContext="shape" transform="translate(80.2629,-19.3382) rotate(0.1)">
			<title>工作表.4</title>
			<desc>為說難</desc>
			<v:textBlock v:margins="rect(0,0,0,0)" v:tabSpace="42.5197"/>
			<v:textRect cx="21.6461" cy="25.6446" width="43.3" height="5.10522"/>
			<rect x="0" y="23.092" width="43.2921" height="5.10522" class="st1"/>
			<text x="-0" y="28.76" class="st2" v:langID="1028"><v:paragraph/><v:tabList/>為說難</text>		</g>
		<g id="shape5-9" v:mID="5" v:groupContext="shape" transform="translate(0.829463,-11.6773) rotate(0.1)">
			<title>工作表.5</title>
			<v:textBlock v:margins="rect(0,0,0,0)"/>
			<rect x="0" y="23.092" width="168" height="5.10522" class="st1"/>
		</g>
		<g id="shape6-11" v:mID="6" v:groupContext="shape" transform="translate(130.55,-12.9522) rotate(0.1)">
			<title>工作表.6</title>
			<desc>是名菩薩無所得行</desc>
			<v:textBlock v:margins="rect(0,0,0,0)" v:tabSpace="42.5197"/>
			<v:textRect cx="42.2461" cy="25.6446" width="84.5" height="5.10522"/>
			<rect x="0" y="23.092" width="84.4923" height="5.10522" class="st1"/>
			<text x="0" y="28.76" class="st2" v:langID="1028"><v:paragraph/><v:tabList/>是名菩薩無所得行</text>		</g>
		<g id="shape7-14" v:mID="7" v:groupContext="shape" transform="translate(0.799213,-3.82159) rotate(0.1)">
			<title>工作表.7</title>
			<desc>有人聞難則退</desc>
			<v:textBlock v:margins="rect(0,0,0,0)" v:tabSpace="42.5197"/>
			<v:textRect cx="30.9941" cy="25.6446" width="61.99" height="5.10522"/>
			<rect x="0" y="23.092" width="61.9882" height="5.10522" class="st1"/>
			<text x="0" y="28.76" class="st2" v:langID="1028"><v:paragraph/><v:tabList/>有人聞難則退</text>		</g>
		<g id="shape8-17" v:mID="8" v:groupContext="shape" transform="translate(54.7991,-3.76094) rotate(0.1)">
			<title>工作表.8</title>
			<v:textBlock v:margins="rect(0,0,0,0)"/>
			<rect x="0" y="23.092" width="27" height="5.10522" class="st1"/>
		</g>
		<g id="shape9-19" v:mID="9" v:groupContext="shape" transform="translate(80.2046,-3.74619) rotate(0.1)">
			<title>工作表.9</title>
			<desc>為說無難</desc>
			<v:textBlock v:margins="rect(0,0,0,0)" v:tabSpace="42.5197"/>
			<v:textRect cx="21.6751" cy="25.6446" width="43.36" height="5.10522"/>
			<rect x="0" y="23.092" width="43.3503" height="5.10522" class="st1"/>
			<text x="-0" y="28.76" class="st2" v:langID="1028"><v:paragraph/><v:tabList/>為說無難</text>		</g>
		<g id="shape16-22" v:mID="16" v:groupContext="shape" transform="translate(150.209,0.916556) rotate(90.1)">
			<title>工作表.16</title>
			<path d="M0 28.2 C0 26.62 0.94 25.35 2.12 25.35 L9.63 25.35 C10.81 25.35 11.77 24.1 11.77 22.53 C11.77 24.1 12.72 25.35
						 13.89 25.35 L23.37 25.35 C24.54 25.35 25.51 26.62 25.51 28.2 L0 28.2 Z" class="st3"/>
			<path d="M0 28.2 C0 26.62 0.94 25.35 2.12 25.35 L9.63 25.35 C10.81 25.35 11.77 24.1 11.77 22.53 C11.77 24.1 12.72 25.35
						 13.89 25.35 L23.37 25.35 C24.54 25.35 25.51 26.62 25.51 28.2" class="st4"/>
		</g>
		<g id="shape17-25" v:mID="17" v:groupContext="shape" transform="translate(62.4591,-21.8608)">
			<title>工作表.17</title>
			<path d="M0 28.2 L15.59 28.2" class="st4"/>
		</g>
		<g id="shape18-28" v:mID="18" v:groupContext="shape" transform="translate(62.7418,-6.25671)">
			<title>工作表.18</title>
			<path d="M0 28.2 L15.31 28.2" class="st4"/>
		</g>
	</g>
</svg>
