<?xml version="1.0" encoding="UTF-8" standalone="no"?>
<!DOCTYPE svg PUBLIC "-//W3C//DTD SVG 1.1//EN" "http://www.w3.org/Graphics/SVG/1.1/DTD/svg11.dtd">
<!-- 由 Microsoft Visio, SVG Export 產生 B03002.svg 頁-1 -->
<svg xmlns="http://www.w3.org/2000/svg" xmlns:xlink="http://www.w3.org/1999/xlink" xmlns:ev="http://www.w3.org/2001/xml-events"
		xmlns:v="http://schemas.microsoft.com/visio/2003/SVGExtensions/" width="0.937117in" height="0.372805in"
		viewBox="0 0 67.4724 26.8419" xml:space="preserve" color-interpolation-filters="sRGB" class="st5">
	<v:documentProperties v:langID="1028" v:viewMarkup="false"/>

	<style type="text/css">
	<![CDATA[
		.st1 {fill:none;stroke:none;stroke-linecap:butt;stroke-width:0.75}
		.st2 {fill:#000000;font-family:新細明體;font-size:0.833336em}
		.st3 {fill:none}
		.st4 {stroke:#000000;stroke-linecap:round;stroke-linejoin:round;stroke-width:0.5625}
		.st5 {fill:none;fill-rule:evenodd;font-size:12px;overflow:visible;stroke-linecap:square;stroke-miterlimit:3}
	]]>
	</style>

	<g v:mID="0" v:index="1" v:groupContext="foregroundPage">
		<title>頁-1</title>
		<v:pageProperties v:drawingScale="0.0393701" v:pageScale="0.0393701" v:drawingUnits="24" v:shadowOffsetX="9"
				v:shadowOffsetY="-9"/>
		<g id="shape2-1" v:mID="2" v:groupContext="shape" transform="translate(1.17348,-18.0799) rotate(0.1)">
			<title>工作表.2</title>
			<v:textBlock v:margins="rect(0,0,0,0)"/>
			<rect x="0" y="21.6784" width="48" height="5.16355" class="st1"/>
		</g>
		<g id="shape3-3" v:mID="3" v:groupContext="shape" transform="translate(40.5041,-18.0312) rotate(0.1)">
			<title>工作表.3</title>
			<desc>壽命</desc>
			<v:textBlock v:margins="rect(0,0,0,0)" v:tabSpace="42.5197"/>
			<v:textRect cx="11.7107" cy="24.2602" width="23.43" height="5.16355"/>
			<rect x="0" y="21.6784" width="23.4215" height="5.16355" class="st1"/>
			<text x="0" y="27.37" class="st2" v:langID="1028"><v:paragraph/><v:tabList/>壽命</text>		</g>
		<g id="shape4-6" v:mID="4" v:groupContext="shape" transform="translate(0.796848,-11.2556) rotate(0.1)">
			<title>工作表.4</title>
			<desc>二種命</desc>
			<v:textBlock v:margins="rect(0,0,0,0)" v:tabSpace="42.5197"/>
			<v:textRect cx="18" cy="24.2602" width="36" height="5.16355"/>
			<rect x="0" y="21.6784" width="36" height="5.16355" class="st1"/>
			<text x="0" y="27.37" class="st2" v:langID="1028"><v:paragraph/><v:tabList/>二種命 </text>		</g>
		<g id="shape5-9" v:mID="5" v:groupContext="shape" transform="translate(1.1211,-3.72978) rotate(0.1)">
			<title>工作表.5</title>
			<v:textBlock v:margins="rect(0,0,0,0)"/>
			<rect x="0" y="21.6784" width="48" height="5.16355" class="st1"/>
		</g>
		<g id="shape6-11" v:mID="6" v:groupContext="shape" transform="translate(40.4517,-3.68235) rotate(0.1)">
			<title>工作表.6</title>
			<desc>慧命</desc>
			<v:textBlock v:margins="rect(0,0,0,0)" v:tabSpace="42.5197"/>
			<v:textRect cx="13.1543" cy="24.2602" width="26.31" height="5.16355"/>
			<rect x="0" y="21.6784" width="26.3086" height="5.16355" class="st1"/>
			<text x="0" y="27.37" class="st2" v:langID="1028"><v:paragraph/><v:tabList/>慧命</text>		</g>
		<g id="shape13-14" v:mID="13" v:groupContext="shape" transform="translate(59.743,0.926118) rotate(90.1)">
			<title>工作表.13</title>
			<path d="M0 21.17 C0 22.74 0.91 24.01 2.01 24.01 L10.12 24.01 C11.24 24.01 12.13 25.27 12.13 26.84 C12.13 25.27 13.04
						 24.01 14.14 24.01 L22.09 24.01 C23.18 24.01 24.09 22.74 24.09 21.17 L0 21.17 Z" class="st3"/>
			<path d="M0 21.17 C0 22.74 0.91 24.01 2.01 24.01 L10.12 24.01 C11.24 24.01 12.13 25.27 12.13 26.84 C12.13 25.27 13.04
						 24.01 14.14 24.01 L22.09 24.01 C23.18 24.01 24.09 22.74 24.09 21.17" class="st4"/>
		</g>
	</g>
</svg>
