<?xml version="1.0" encoding="UTF-8" standalone="no"?>
<!DOCTYPE svg PUBLIC "-//W3C//DTD SVG 1.1//EN" "http://www.w3.org/Graphics/SVG/1.1/DTD/svg11.dtd">
<!-- 由 Microsoft Visio, SVG Export 產生 B03007.svg 頁-1 -->
<svg xmlns="http://www.w3.org/2000/svg" xmlns:xlink="http://www.w3.org/1999/xlink" xmlns:ev="http://www.w3.org/2001/xml-events"
		xmlns:v="http://schemas.microsoft.com/visio/2003/SVGExtensions/" width="3.5246in" height="0.543583in"
		viewBox="0 0 253.772 39.1379" xml:space="preserve" color-interpolation-filters="sRGB" class="st6">
	<v:documentProperties v:langID="1028" v:viewMarkup="false"/>

	<style type="text/css">
	<![CDATA[
		.st1 {fill:none;stroke:none;stroke-linecap:butt;stroke-width:0.75}
		.st2 {fill:#000000;font-family:新細明體;font-size:0.833336em}
		.st3 {fill:none}
		.st4 {stroke:#000000;stroke-linecap:round;stroke-linejoin:round;stroke-width:0.5625}
		.st5 {stroke:#000000;stroke-dasharray:0.5625,1.125;stroke-linecap:round;stroke-linejoin:round;stroke-width:0.5625}
		.st6 {fill:none;fill-rule:evenodd;font-size:12px;overflow:visible;stroke-linecap:square;stroke-miterlimit:3}
	]]>
	</style>

	<g v:mID="0" v:index="1" v:groupContext="foregroundPage">
		<title>頁-1</title>
		<v:pageProperties v:drawingScale="0.0393701" v:pageScale="0.0393701" v:drawingUnits="24" v:shadowOffsetX="9"
				v:shadowOffsetY="-9"/>
		<g id="shape2-1" v:mID="2" v:groupContext="shape" transform="translate(0.864098,-27.5879) rotate(0.1)">
			<title>工作表.2</title>
			<v:textBlock v:margins="rect(0,0,0,0)"/>
			<rect x="0" y="28.3379" width="78" height="10.8" class="st1"/>
		</g>
		<g id="shape3-3" v:mID="3" v:groupContext="shape" transform="translate(52.7498,-27.4858) rotate(0.1)">
			<title>工作表.3</title>
			<desc>虛誑不實不堅</desc>
			<v:textBlock v:margins="rect(0,0,0,0)" v:tabSpace="42.5197"/>
			<v:textRect cx="34.5641" cy="33.7379" width="69.13" height="10.8"/>
			<rect x="0" y="28.3379" width="69.1282" height="10.8" class="st1"/>
			<text x="0" y="36.85" class="st2" v:langID="1028"><v:paragraph/><v:tabList/>虛誑不實不堅</text>		</g>
		<g id="shape4-6" v:mID="4" v:groupContext="shape" transform="translate(113.364,-27.3916) rotate(0.1)">
			<title>工作表.4</title>
			<v:textBlock v:margins="rect(0,0,0,0)"/>
			<rect x="0" y="28.3379" width="58.5" height="10.8" class="st1"/>
		</g>
		<g id="shape5-8" v:mID="5" v:groupContext="shape" transform="translate(135.542,-27.3052) rotate(0.1)">
			<title>工作表.5</title>
			<desc>無常苦無我門</desc>
			<v:textBlock v:margins="rect(0,0,0,0)" v:tabSpace="42.5197"/>
			<v:textRect cx="33.8401" cy="33.7379" width="67.69" height="10.8"/>
			<rect x="0" y="28.3379" width="67.6803" height="10.8" class="st1"/>
			<text x="0" y="36.85" class="st2" v:langID="1028"><v:paragraph/><v:tabList/>無常苦無我門</text>		</g>
		<g id="shape6-11" v:mID="6" v:groupContext="shape" transform="translate(189.542,-27.2109) rotate(0.1)">
			<title>工作表.6</title>
			<v:textBlock v:margins="rect(0,0,0,0)"/>
			<rect x="0" y="28.3379" width="36" height="10.8" class="st1"/>
		</g>
		<g id="shape7-13" v:mID="7" v:groupContext="shape" transform="translate(217.135,-27.1167) rotate(0.1)">
			<title>工作表.7</title>
			<desc>無作門</desc>
			<v:textBlock v:margins="rect(0,0,0,0)" v:tabSpace="42.5197"/>
			<v:textRect cx="17.9682" cy="33.7379" width="35.94" height="10.8"/>
			<rect x="0" y="28.3379" width="35.9363" height="10.8" class="st1"/>
			<text x="0" y="36.85" class="st2" v:langID="1028"><v:paragraph/><v:tabList/>無作門</text>		</g>
		<g id="shape8-16" v:mID="8" v:groupContext="shape" transform="translate(0.84187,-14.6636) rotate(0.1)">
			<title>工作表.8</title>
			<desc>三事二釋</desc>
			<v:textBlock v:margins="rect(0,0,0,0)" v:tabSpace="42.5197"/>
			<v:textRect cx="22.5" cy="33.7379" width="45.01" height="10.8"/>
			<rect x="0" y="28.3379" width="45" height="10.8" class="st1"/>
			<text x="-0" y="36.85" class="st2" v:langID="1028"><v:paragraph/><v:tabList/>三事二釋 </text>		</g>
		<g id="shape9-19" v:mID="9" v:groupContext="shape" transform="translate(43.7276,-14.7662) rotate(0.1)">
			<title>工作表.9</title>
			<desc>一切法空</desc>
			<v:textBlock v:margins="rect(0,0,0,0)"/>
			<v:textRect cx="31.5" cy="33.7379" width="63" height="10.8"/>
			<rect x="0" y="28.3379" width="63" height="10.8" class="st1"/>
			<text x="8.5" y="36.85" class="st2" v:langID="1028"><v:paragraph/><v:tabList/>一切法空  </text>		</g>
		<g id="shape10-22" v:mID="10" v:groupContext="shape" transform="translate(135.52,-14.5698) rotate(0.1)">
			<title>工作表.10</title>
			<desc>空門</desc>
			<v:textBlock v:margins="rect(0,0,0,0)" v:tabSpace="42.5197"/>
			<v:textRect cx="19.6756" cy="33.7379" width="39.36" height="10.8"/>
			<rect x="0" y="28.3379" width="39.3512" height="10.8" class="st1"/>
			<text x="-0" y="36.85" class="st2" v:langID="1028"><v:paragraph/><v:tabList/>空門</text>		</g>
		<g id="shape11-25" v:mID="11" v:groupContext="shape" transform="translate(217.112,-14.3813) rotate(0.1)">
			<title>工作表.11</title>
			<desc>空門</desc>
			<v:textBlock v:margins="rect(0,0,0,0)" v:tabSpace="42.5197"/>
			<v:textRect cx="12.8757" cy="33.7379" width="25.76" height="10.8"/>
			<rect x="0" y="28.3379" width="25.7514" height="10.8" class="st1"/>
			<text x="0" y="36.85" class="st2" v:langID="1028"><v:paragraph/><v:tabList/>空門</text>		</g>
		<g id="shape12-28" v:mID="12" v:groupContext="shape" transform="translate(0.818309,-1.35257) rotate(0.1)">
			<title>工作表.12</title>
			<v:textBlock v:margins="rect(0,0,0,0)"/>
			<rect x="0" y="28.3379" width="78" height="10.8" class="st1"/>
		</g>
		<g id="shape13-30" v:mID="13" v:groupContext="shape" transform="translate(52.704,-1.25046) rotate(0.1)">
			<title>工作表.13</title>
			<desc>一切法無生</desc>
			<v:textBlock v:margins="rect(0,0,0,0)" v:tabSpace="42.5197"/>
			<v:textRect cx="28.9183" cy="33.7379" width="57.84" height="10.8"/>
			<rect x="0" y="28.3379" width="57.8367" height="10.8" class="st1"/>
			<text x="0" y="36.85" class="st2" v:langID="1028"><v:paragraph/><v:tabList/>一切法無生</text>		</g>
		<g id="shape14-33" v:mID="14" v:groupContext="shape" transform="translate(104.318,-1.17192) rotate(0.1)">
			<title>工作表.14</title>
			<v:textBlock v:margins="rect(0,0,0,0)"/>
			<rect x="0" y="28.3379" width="51.75" height="10.8" class="st1"/>
		</g>
		<g id="shape15-35" v:mID="15" v:groupContext="shape" transform="translate(135.496,-1.06982) rotate(0.1)">
			<title>工作表.15</title>
			<desc>實相滅觀門</desc>
			<v:textBlock v:margins="rect(0,0,0,0)" v:tabSpace="42.5197"/>
			<v:textRect cx="30.3179" cy="33.7379" width="60.64" height="10.8"/>
			<rect x="0" y="28.3379" width="60.6357" height="10.8" class="st1"/>
			<text x="0" y="36.85" class="st2" v:langID="1028"><v:paragraph/><v:tabList/>實相滅觀門</text>		</g>
		<g id="shape16-38" v:mID="16" v:groupContext="shape" transform="translate(217.089,-0.881327) rotate(0.1)">
			<title>工作表.16</title>
			<desc>無相門</desc>
			<v:textBlock v:margins="rect(0,0,0,0)" v:tabSpace="42.5197"/>
			<v:textRect cx="16.5731" cy="33.7379" width="33.15" height="10.8"/>
			<rect x="0" y="28.3379" width="33.1462" height="10.8" class="st1"/>
			<text x="0" y="36.85" class="st2" v:langID="1028"><v:paragraph/><v:tabList/>無相門</text>		</g>
		<g id="shape23-41" v:mID="23" v:groupContext="shape" transform="translate(83.1727,0.598115) rotate(90.1)">
			<title>工作表.23</title>
			<path d="M0 33.31 C0 34.92 1.35 36.22 3.07 36.22 L15.48 36.22 C17.16 36.22 18.55 37.52 18.55 39.14 C18.55 37.52 19.94
						 36.22 21.62 36.22 L33.78 36.22 C35.46 36.22 36.85 34.92 36.85 33.31 L0 33.31 Z" class="st3"/>
			<path d="M0 33.31 C0 34.92 1.35 36.22 3.07 36.22 L15.48 36.22 C17.16 36.22 18.55 37.52 18.55 39.14 C18.55 37.52 19.94
						 36.22 21.62 36.22 L33.78 36.22 C35.46 36.22 36.85 34.92 36.85 33.31" class="st4"/>
		</g>
		<g id="shape24-44" v:mID="24" v:groupContext="shape" transform="translate(116.003,-32.7162)">
			<title>工作表.24</title>
			<path d="M0 39.14 L16.25 39.14" class="st4"/>
		</g>
		<g id="shape25-47" v:mID="25" v:groupContext="shape" transform="translate(94.4598,-19.6772)">
			<title>工作表.25</title>
			<path d="M0 39.14 L37.8 39.14" class="st4"/>
		</g>
		<g id="shape26-50" v:mID="26" v:groupContext="shape" transform="translate(105.798,-6.12219)">
			<title>工作表.26</title>
			<path d="M0 39.14 L26.38 39.14" class="st4"/>
		</g>
		<g id="shape27-53" v:mID="27" v:groupContext="shape" transform="translate(198.476,-32.7217)">
			<title>工作表.27</title>
			<path d="M0 39.14 L15.87 39.14" class="st5"/>
		</g>
		<g id="shape28-56" v:mID="28" v:groupContext="shape" transform="translate(157.658,-20.1116)">
			<title>工作表.28</title>
			<path d="M0 39.14 L56.69 39.14" class="st5"/>
		</g>
		<g id="shape29-59" v:mID="29" v:groupContext="shape" transform="translate(187.705,-6.57279)">
			<title>工作表.29</title>
			<path d="M0 39.14 L26.65 39.14" class="st5"/>
		</g>
	</g>
</svg>
