<?xml version="1.0" encoding="UTF-8" standalone="no"?>
<!DOCTYPE svg PUBLIC "-//W3C//DTD SVG 1.1//EN" "http://www.w3.org/Graphics/SVG/1.1/DTD/svg11.dtd">
<!-- 由 Microsoft Visio, SVG Export 產生 B03008.svg 頁-1 -->
<svg xmlns="http://www.w3.org/2000/svg" xmlns:xlink="http://www.w3.org/1999/xlink" xmlns:ev="http://www.w3.org/2001/xml-events"
		xmlns:v="http://schemas.microsoft.com/visio/2003/SVGExtensions/" width="2.7398in" height="0.390177in"
		viewBox="0 0 197.266 28.0928" xml:space="preserve" color-interpolation-filters="sRGB" class="st5">
	<v:documentProperties v:langID="1028" v:viewMarkup="false"/>

	<style type="text/css">
	<![CDATA[
		.st1 {fill:none;stroke:none;stroke-linecap:butt;stroke-width:0.75}
		.st2 {fill:#000000;font-family:新細明體;font-size:0.833336em}
		.st3 {fill:none}
		.st4 {stroke:#000000;stroke-linecap:round;stroke-linejoin:round;stroke-width:0.5625}
		.st5 {fill:none;fill-rule:evenodd;font-size:12px;overflow:visible;stroke-linecap:square;stroke-miterlimit:3}
	]]>
	</style>

	<g v:mID="0" v:index="1" v:groupContext="foregroundPage">
		<title>頁-1</title>
		<v:pageProperties v:drawingScale="0.0393701" v:pageScale="0.0393701" v:drawingUnits="24" v:shadowOffsetX="9"
				v:shadowOffsetY="-9"/>
		<g id="shape2-1" v:mID="2" v:groupContext="shape" transform="translate(0.846155,-18.8275) rotate(0.1)">
			<title>工作表.2</title>
			<v:textBlock v:margins="rect(0,0,0,0)"/>
			<rect x="0" y="21.929" width="78" height="6.16381" class="st1"/>
		</g>
		<g id="shape3-3" v:mID="3" v:groupContext="shape" transform="translate(51.7143,-18.7816) rotate(0.1)">
			<title>工作表.3</title>
			<desc>空</desc>
			<v:textBlock v:margins="rect(0,0,0,0)"/>
			<v:textRect cx="8.60082" cy="25.0109" width="17.21" height="6.16381"/>
			<rect x="0" y="21.929" width="17.2016" height="6.16381" class="st1"/>
			<text x="-0" y="28.13" class="st2" v:langID="1028"><v:paragraph/><v:tabList/>空</text>		</g>
		<g id="shape4-6" v:mID="4" v:groupContext="shape" transform="translate(0.822593,-10.9529) rotate(0.1)">
			<title>工作表.4</title>
			<desc>實相異名</desc>
			<v:textBlock v:margins="rect(0,0,0,0)" v:tabSpace="42.5197"/>
			<v:textRect cx="22.5" cy="25.0109" width="45.01" height="6.16381"/>
			<rect x="0" y="21.929" width="45" height="6.16381" class="st1"/>
			<text x="0" y="28.13" class="st2" v:langID="1028"><v:paragraph/><v:tabList/>實相異名 </text>		</g>
		<g id="shape5-9" v:mID="5" v:groupContext="shape" transform="translate(0.799031,-3.41805) rotate(0.1)">
			<title>工作表.5</title>
			<v:textBlock v:margins="rect(0,0,0,0)"/>
			<rect x="0" y="21.929" width="78" height="6.16381" class="st1"/>
		</g>
		<g id="shape6-11" v:mID="6" v:groupContext="shape" transform="translate(51.6672,-3.35865) rotate(0.1)">
			<title>工作表.6</title>
			<desc>畢竟空</desc>
			<v:textBlock v:margins="rect(0,0,0,0)"/>
			<v:textRect cx="37.5" cy="25.0109" width="75.01" height="6.16381"/>
			<rect x="0" y="21.929" width="75" height="6.16381" class="st1"/>
			<text x="-0" y="28.13" class="st2" v:langID="1028"><v:paragraph/><v:tabList/>畢竟空    </text>		</g>
		<g id="shape7-14" v:mID="7" v:groupContext="shape" transform="translate(99.549,-3.30414) rotate(0.1)">
			<title>工作表.7</title>
			<desc>阿耨多羅三藐三菩提</desc>
			<v:textBlock v:margins="rect(0,0,0,0)" v:tabSpace="42.5197"/>
			<v:textRect cx="48.5025" cy="25.0109" width="97.01" height="6.16381"/>
			<rect x="0" y="21.929" width="97.005" height="6.16381" class="st1"/>
			<text x="0" y="28.13" class="st2" v:langID="1028"><v:paragraph/><v:tabList/>阿耨多羅三藐三菩提</text>		</g>
		<g id="shape16-17" v:mID="16" v:groupContext="shape" transform="translate(71.478,0.969642) rotate(90.1)">
			<title>工作表.16</title>
			<path d="M0 22.42 C0 23.99 0.96 25.26 2.13 25.26 L10.72 25.26 C11.91 25.26 12.84 26.54 12.84 28.09 C12.84 26.54 13.81
						 25.26 14.97 25.26 L23.39 25.26 C24.58 25.26 25.51 23.99 25.51 22.42 L0 22.42 Z" class="st3"/>
			<path d="M0 22.42 C0 23.99 0.96 25.26 2.13 25.26 L10.72 25.26 C11.91 25.26 12.84 26.54 12.84 28.09 C12.84 26.54 13.81
						 25.26 14.97 25.26 L23.39 25.26 C24.58 25.26 25.51 23.99 25.51 22.42" class="st4"/>
		</g>
		<g id="shape17-20" v:mID="17" v:groupContext="shape" transform="translate(99.6669,-18.5973)">
			<title>工作表.17</title>
			<desc>般若</desc>
			<v:textBlock v:margins="rect(0,0,0,0)"/>
			<v:textRect cx="16.135" cy="25.0109" width="32.27" height="6.16381"/>
			<rect x="0" y="21.929" width="32.27" height="6.16381" class="st1"/>
			<text x="0" y="28.13" class="st2" v:langID="1028"><v:paragraph/><v:tabList/>般若</text>		</g>
		<g id="shape18-23" v:mID="18" v:groupContext="shape" transform="translate(63.2035,-21.3405)">
			<title>工作表.18</title>
			<path d="M0 28.09 L34.02 28.09" class="st4"/>
		</g>
		<g id="shape19-26" v:mID="19" v:groupContext="shape" transform="translate(83.046,-6.12944)">
			<title>工作表.19</title>
			<path d="M0 28.09 L14.17 28.09" class="st4"/>
		</g>
	</g>
</svg>
