<?xml version="1.0" encoding="UTF-8" standalone="no"?>
<!DOCTYPE svg PUBLIC "-//W3C//DTD SVG 1.1//EN" "http://www.w3.org/Graphics/SVG/1.1/DTD/svg11.dtd">
<!-- 由 Microsoft Visio, SVG Export 產生 B03006更正.svg 頁-1 -->
<svg xmlns="http://www.w3.org/2000/svg" xmlns:xlink="http://www.w3.org/1999/xlink" xmlns:ev="http://www.w3.org/2001/xml-events"
		xmlns:v="http://schemas.microsoft.com/visio/2003/SVGExtensions/" width="6.24123in" height="0.798838in"
		viewBox="0 0 449.368 57.5163" xml:space="preserve" color-interpolation-filters="sRGB" class="st5">
	<v:documentProperties v:langID="1028" v:viewMarkup="false"/>

	<style type="text/css">
	<![CDATA[
		.st1 {fill:none;stroke:none;stroke-linecap:butt;stroke-width:0.75}
		.st2 {fill:#000000;font-family:新細明體;font-size:0.833336em}
		.st3 {fill:none}
		.st4 {stroke:#000000;stroke-linecap:round;stroke-linejoin:round;stroke-width:0.5625}
		.st5 {fill:none;fill-rule:evenodd;font-size:12px;overflow:visible;stroke-linecap:square;stroke-miterlimit:3}
	]]>
	</style>

	<g v:mID="0" v:index="1" v:groupContext="foregroundPage">
		<title>頁-1</title>
		<v:pageProperties v:drawingScale="0.0393701" v:pageScale="0.0393701" v:drawingUnits="24" v:shadowOffsetX="9"
				v:shadowOffsetY="-9"/>
		<g id="shape2-1" v:mID="2" v:groupContext="shape" transform="translate(1.01925,-48.3875) rotate(0.1)">
			<title>工作表.2</title>
			<v:textBlock v:margins="rect(0,0,0,0)"/>
			<rect x="0" y="52.505" width="198" height="5.01135" class="st1"/>
		</g>
		<g id="shape3-3" v:mID="3" v:groupContext="shape" transform="translate(112.81,-48.7814) rotate(0.1)">
			<title>工作表.3</title>
			<desc>觀一切法空</desc>
			<v:textBlock v:margins="rect(0,0,0,0)" v:tabSpace="42.5197"/>
			<v:textRect cx="27" cy="55.0107" width="54" height="5.01135"/>
			<rect x="0" y="52.505" width="54" height="5.01135" class="st1"/>
			<text x="0" y="58.13" class="st2" v:langID="1028"><v:paragraph/><v:tabList/>觀一切法空 </text>		</g>
		<g id="shape4-6" v:mID="4" v:groupContext="shape" transform="translate(190.893,-48.5165) rotate(0.1)">
			<title>工作表.4</title>
			<desc>空</desc>
			<v:textBlock v:margins="rect(0,0,0,0)" v:tabSpace="42.5197"/>
			<v:textRect cx="4.5" cy="55.0107" width="9.01" height="5.01135"/>
			<rect x="0" y="52.505" width="9" height="5.01135" class="st1"/>
			<text x="0" y="58.13" class="st2" v:langID="1028"><v:paragraph/><v:tabList/>空</text>		</g>
		<g id="shape5-9" v:mID="5" v:groupContext="shape" transform="translate(208.019,-48.1449) rotate(0.1)">
			<title>工作表.5</title>
			<v:textBlock v:margins="rect(0,0,0,0)"/>
			<rect x="0" y="52.505" width="38.25" height="5.01135" class="st1"/>
		</g>
		<g id="shape6-11" v:mID="6" v:groupContext="shape" transform="translate(222.393,-48.557) rotate(0.1)">
			<title>工作表.6</title>
			<desc>觀空不著是空不妨憐憫眾生</desc>
			<v:textBlock v:margins="rect(0,0,0,0)" v:tabSpace="42.5197"/>
			<v:textRect cx="75.0807" cy="55.0107" width="150.17" height="5.01135"/>
			<rect x="0" y="52.505" width="150.161" height="5.01135" class="st1"/>
			<text x="0" y="58.13" class="st2" v:langID="1028"><v:paragraph/><v:tabList/>觀空，不著是空，不妨憐憫眾生 </text>		</g>
		<g id="shape7-14" v:mID="7" v:groupContext="shape" transform="translate(0.995683,-42.0952) rotate(0.1)">
			<title>工作表.7</title>
			<v:textBlock v:margins="rect(0,0,0,0)"/>
			<rect x="0" y="52.505" width="138" height="5.01135" class="st1"/>
		</g>
		<g id="shape8-16" v:mID="8" v:groupContext="shape" transform="translate(91.3026,-41.9589) rotate(0.1)">
			<title>工作表.8</title>
			<desc>一</desc>
			<v:textBlock v:margins="rect(0,0,0,0)" v:tabSpace="42.5197"/>
			<v:textRect cx="9" cy="55.0107" width="18.01" height="5.01135"/>
			<rect x="0" y="52.505" width="18" height="5.01135" class="st1"/>
			<text x="0" y="58.13" class="st2" v:langID="1028"><v:paragraph/><v:tabList/>一 </text>		</g>
		<g id="shape9-19" v:mID="9" v:groupContext="shape" transform="translate(368.33,-41.7731) rotate(0.1)">
			<title>工作表.9</title>
			<desc>只是一般若</desc>
			<v:textBlock v:margins="rect(0,0,0,0)" v:tabSpace="42.5197"/>
			<v:textRect cx="40.1902" cy="55.0107" width="80.39" height="5.01135"/>
			<rect x="0" y="52.505" width="80.3805" height="5.01135" class="st1"/>
			<text x="0" y="58.13" class="st2" v:langID="1028"><v:paragraph/><v:tabList/>（只是一般若）</text>		</g>
		<g id="shape10-22" v:mID="10" v:groupContext="shape" transform="translate(0.965602,-34.0978) rotate(0.1)">
			<title>工作表.10</title>
			<v:textBlock v:margins="rect(0,0,0,0)"/>
			<rect x="0" y="52.505" width="138" height="5.01135" class="st1"/>
		</g>
		<g id="shape11-24" v:mID="11" v:groupContext="shape" transform="translate(86.7725,-33.9721) rotate(0.1)">
			<title>工作表.11</title>
			<v:textBlock v:margins="rect(0,0,0,0)"/>
			<rect x="0" y="52.505" width="33" height="5.01135" class="st1"/>
		</g>
		<g id="shape12-26" v:mID="12" v:groupContext="shape" transform="translate(112.757,-34.5288) rotate(0.1)">
			<title>工作表.12</title>
			<desc>不捨一切眾生</desc>
			<v:textBlock v:margins="rect(0,0,0,0)" v:tabSpace="42.5197"/>
			<v:textRect cx="36.7316" cy="55.0107" width="73.47" height="5.01135"/>
			<rect x="0" y="52.505" width="73.4632" height="5.01135" class="st1"/>
			<text x="0" y="58.13" class="st2" v:langID="1028"><v:paragraph/><v:tabList/>不捨一切眾生</text>		</g>
		<g id="shape13-29" v:mID="13" v:groupContext="shape" transform="translate(190.839,-34.633) rotate(0.1)">
			<title>工作表.13</title>
			<desc>悲</desc>
			<v:textBlock v:margins="rect(0,0,0,0)" v:tabSpace="42.5197"/>
			<v:textRect cx="4.5" cy="55.0107" width="9.01" height="5.01135"/>
			<rect x="0" y="52.505" width="9" height="5.01135" class="st1"/>
			<text x="0" y="58.13" class="st2" v:langID="1028"><v:paragraph/><v:tabList/>悲</text>		</g>
		<g id="shape14-32" v:mID="14" v:groupContext="shape" transform="translate(207.965,-33.8835) rotate(0.1)">
			<title>工作表.14</title>
			<v:textBlock v:margins="rect(0,0,0,0)"/>
			<rect x="0" y="52.505" width="38.25" height="5.01135" class="st1"/>
		</g>
		<g id="shape15-34" v:mID="15" v:groupContext="shape" transform="translate(222.339,-34.6622) rotate(0.1)">
			<title>工作表.15</title>
			<desc>憐生不著眾生不妨觀空</desc>
			<v:textBlock v:margins="rect(0,0,0,0)"/>
			<v:textRect cx="63" cy="55.0107" width="126.01" height="5.01135"/>
			<rect x="0" y="52.505" width="126" height="5.01135" class="st1"/>
			<text x="0" y="58.13" class="st2" v:langID="1028"><v:paragraph/><v:tabList/>憐生，不著眾生，不妨觀空  </text>		</g>
		<g id="shape16-37" v:mID="16" v:groupContext="shape" transform="translate(0.936779,-26.4081) rotate(0.1)">
			<title>工作表.16</title>
			<desc>成就二法魔不能壞</desc>
			<v:textBlock v:margins="rect(0,0,0,0)" v:tabSpace="42.5197"/>
			<v:textRect cx="40.5" cy="55.0107" width="81.01" height="5.01135"/>
			<rect x="0" y="52.505" width="81" height="5.01135" class="st1"/>
			<text x="0" y="58.13" class="st2" v:langID="1028"><v:paragraph/><v:tabList/>成就二法魔不能壞 </text>		</g>
		<g id="shape17-40" v:mID="17" v:groupContext="shape" transform="translate(0.908707,-18.7922) rotate(0.1)">
			<title>工作表.17</title>
			<v:textBlock v:margins="rect(0,0,0,0)"/>
			<rect x="0" y="52.505" width="138" height="5.01135" class="st1"/>
		</g>
		<g id="shape18-42" v:mID="18" v:groupContext="shape" transform="translate(86.7157,-18.6737) rotate(0.1)">
			<title>工作表.18</title>
			<v:textBlock v:margins="rect(0,0,0,0)"/>
			<rect x="0" y="52.505" width="48" height="5.01135" class="st1"/>
		</g>
		<g id="shape19-44" v:mID="19" v:groupContext="shape" transform="translate(112.7,-19.2155) rotate(0.1)">
			<title>工作表.19</title>
			<desc>所作如所言</desc>
			<v:textBlock v:margins="rect(0,0,0,0)" v:tabSpace="42.5197"/>
			<v:textRect cx="28.2558" cy="55.0107" width="56.52" height="5.01135"/>
			<rect x="0" y="52.505" width="56.5115" height="5.01135" class="st1"/>
			<text x="0" y="58.13" class="st2" v:langID="1028"><v:paragraph/><v:tabList/>所作如所言</text>		</g>
		<g id="shape20-47" v:mID="20" v:groupContext="shape" transform="translate(0.879208,-11.1291) rotate(0.1)">
			<title>工作表.20</title>
			<v:textBlock v:margins="rect(0,0,0,0)"/>
			<rect x="0" y="52.505" width="138" height="5.01135" class="st1"/>
		</g>
		<g id="shape21-49" v:mID="21" v:groupContext="shape" transform="translate(91.1861,-10.9928) rotate(0.1)">
			<title>工作表.21</title>
			<desc>二</desc>
			<v:textBlock v:margins="rect(0,0,0,0)" v:tabSpace="42.5197"/>
			<v:textRect cx="9" cy="55.0107" width="18.01" height="5.01135"/>
			<rect x="0" y="52.505" width="18" height="5.01135" class="st1"/>
			<text x="0" y="58.13" class="st2" v:langID="1028"><v:paragraph/><v:tabList/>二 </text>		</g>
		<g id="shape22-52" v:mID="22" v:groupContext="shape" transform="translate(0.850385,-3.49417) rotate(0.1)">
			<title>工作表.22</title>
			<v:textBlock v:margins="rect(0,0,0,0)"/>
			<rect x="0" y="52.505" width="198" height="5.01135" class="st1"/>
		</g>
		<g id="shape23-54" v:mID="23" v:groupContext="shape" transform="translate(112.642,-3.88909) rotate(0.1)">
			<title>工作表.23</title>
			<desc>為諸佛所念</desc>
			<v:textBlock v:margins="rect(0,0,0,0)" v:tabSpace="42.5197"/>
			<v:textRect cx="28.2858" cy="55.0107" width="56.58" height="5.01135"/>
			<rect x="0" y="52.505" width="56.5716" height="5.01135" class="st1"/>
			<text x="0" y="58.13" class="st2" v:langID="1028"><v:paragraph/><v:tabList/>為諸佛所念</text>		</g>
		<g id="shape32-57" v:mID="32" v:groupContext="shape" transform="translate(140.343,11.6614) rotate(90.1)">
			<title>工作表.32</title>
			<path d="M0 51.85 C0 53.42 1.29 54.68 2.88 54.68 L14.49 54.68 C16.08 54.68 17.35 55.95 17.35 57.52 C17.35 55.95 18.65
						 54.68 20.23 54.68 L31.59 54.68 C33.18 54.68 34.45 53.42 34.45 51.85 L0 51.85 Z" class="st3"/>
			<path d="M0 51.85 C0 53.42 1.29 54.68 2.88 54.68 L14.49 54.68 C16.08 54.68 17.35 55.95 17.35 57.52 C17.35 55.95 18.65
						 54.68 20.23 54.68 L31.59 54.68 C33.18 54.68 34.45 53.42 34.45 51.85" class="st4"/>
		</g>
		<g id="shape33-60" v:mID="33" v:groupContext="shape" transform="translate(161.876,30.5064) rotate(90.1)">
			<title>工作表.33</title>
			<path d="M0 51.85 C0 53.42 0.94 54.68 2.13 54.68 L10.71 54.68 C11.88 54.68 12.84 55.95 12.84 57.52 C12.84 55.95 13.8
						 54.68 14.97 54.68 L23.39 54.68 C24.55 54.68 25.51 53.42 25.51 51.85 L0 51.85 Z" class="st3"/>
			<path d="M0 51.85 C0 53.42 0.94 54.68 2.13 54.68 L10.71 54.68 C11.88 54.68 12.84 55.95 12.84 57.52 C12.84 55.95 13.8
						 54.68 14.97 54.68 L23.39 54.68 C24.55 54.68 25.51 53.42 25.51 51.85" class="st4"/>
		</g>
		<g id="shape34-63" v:mID="34" v:groupContext="shape" transform="translate(161.875,1.21502) rotate(90.1)">
			<title>工作表.34</title>
			<path d="M0 51.85 C0 53.42 0.89 54.68 2.03 54.68 L10.24 54.68 C11.35 54.68 12.27 55.95 12.27 57.52 C12.27 55.95 13.19
						 54.68 14.3 54.68 L22.35 54.68 C23.46 54.68 24.38 53.42 24.38 51.85 L0 51.85 Z" class="st3"/>
			<path d="M0 51.85 C0 53.42 0.89 54.68 2.03 54.68 L10.24 54.68 C11.35 54.68 12.27 55.95 12.27 57.52 C12.27 55.95 13.19
						 54.68 14.3 54.68 L22.35 54.68 C23.46 54.68 24.38 53.42 24.38 51.85" class="st4"/>
		</g>
		<g id="shape35-66" v:mID="35" v:groupContext="shape" transform="translate(420.963,1.78196) rotate(90.1)">
			<title>工作表.35</title>
			<path d="M0 57.52 C0 55.79 0.9 54.4 1.98 54.4 L9.01 54.4 C10.11 54.4 10.99 53 10.99 51.31 C10.99 53 11.89 54.4 12.97
						 54.4 L21.83 54.4 C22.93 54.4 23.81 55.79 23.81 57.52 L0 57.52 Z" class="st3"/>
			<path d="M0 57.52 C0 55.79 0.9 54.4 1.98 54.4 L9.01 54.4 C10.11 54.4 10.99 53 10.99 51.31 C10.99 53 11.89 54.4 12.97
						 54.4 L21.83 54.4 C22.93 54.4 23.81 55.79 23.81 57.52" class="st4"/>
		</g>
		<g id="shape36-69" v:mID="36" v:groupContext="shape" transform="translate(167.76,-51.204) rotate(0.0464015)">
			<title>工作表.36</title>
			<path d="M0 57.52 L20.25 57.52" class="st4"/>
		</g>
		<g id="shape37-72" v:mID="37" v:groupContext="shape" transform="translate(202.984,-51.3492)">
			<title>工作表.37</title>
			<path d="M0 57.52 L17.01 57.52" class="st4"/>
		</g>
		<g id="shape38-75" v:mID="38" v:groupContext="shape" transform="translate(202.984,-36.9222)">
			<title>工作表.38</title>
			<path d="M0 57.52 L17.01 57.52" class="st4"/>
		</g>
		<g id="shape39-78" v:mID="39" v:groupContext="shape" transform="translate(174.455,-36.96) rotate(0.0464015)">
			<title>工作表.39</title>
			<path d="M0 57.52 L13.5 57.52" class="st4"/>
		</g>
	</g>
</svg>
