<?xml version="1.0" encoding="UTF-8" standalone="no"?>
<!DOCTYPE svg PUBLIC "-//W3C//DTD SVG 1.1//EN" "http://www.w3.org/Graphics/SVG/1.1/DTD/svg11.dtd">
<!-- 由 Microsoft Visio, SVG Export 產生 B03102.svg 頁-1 -->
<svg xmlns="http://www.w3.org/2000/svg" xmlns:xlink="http://www.w3.org/1999/xlink" xmlns:ev="http://www.w3.org/2001/xml-events"
		xmlns:v="http://schemas.microsoft.com/visio/2003/SVGExtensions/" width="3.43599in" height="0.873705in"
		viewBox="0 0 247.391 62.9068" xml:space="preserve" color-interpolation-filters="sRGB" class="st5">
	<v:documentProperties v:langID="1028" v:viewMarkup="false"/>

	<style type="text/css">
	<![CDATA[
		.st1 {fill:none;stroke:none;stroke-linecap:butt;stroke-width:0.75}
		.st2 {fill:#000000;font-family:新細明體;font-size:0.833336em}
		.st3 {fill:none}
		.st4 {stroke:#000000;stroke-linecap:round;stroke-linejoin:round;stroke-width:0.5625}
		.st5 {fill:none;fill-rule:evenodd;font-size:12px;overflow:visible;stroke-linecap:square;stroke-miterlimit:3}
	]]>
	</style>

	<g v:mID="0" v:index="1" v:groupContext="foregroundPage">
		<title>頁-1</title>
		<v:pageProperties v:drawingScale="0.0393701" v:pageScale="0.0393701" v:drawingUnits="24" v:shadowOffsetX="9"
				v:shadowOffsetY="-9"/>
		<g id="shape3-1" v:mID="3" v:groupContext="shape" transform="translate(53,-51.2775) rotate(0.1)">
			<title>工作表.3</title>
			<desc>到一切智慧邊</desc>
			<v:textBlock v:margins="rect(0,0,0,0)" v:tabSpace="42.5197"/>
			<v:textRect cx="30.9605" cy="57.5068" width="61.93" height="10.8"/>
			<rect x="0" y="52.1068" width="61.9209" height="10.8" class="st1"/>
			<text x="0" y="60.62" class="st2" v:langID="1028"><v:paragraph/><v:tabList/>到一切智慧邊</text>		</g>
		<g id="shape4-4" v:mID="4" v:groupContext="shape" transform="translate(133.433,-51.1361) rotate(0.1)">
			<title>工作表.4</title>
			<desc>名般若</desc>
			<v:textBlock v:margins="rect(0,0,0,0)" v:tabSpace="42.5197"/>
			<v:textRect cx="23.5549" cy="57.5068" width="47.11" height="10.8"/>
			<rect x="0" y="52.1068" width="47.1098" height="10.8" class="st1"/>
			<text x="0" y="60.62" class="st2" v:langID="1028"><v:paragraph/><v:tabList/>名般若</text>		</g>
		<g id="shape5-7" v:mID="5" v:groupContext="shape" transform="translate(0.859793,-31.8694) rotate(0.1)">
			<title>工作表.5</title>
			<desc>實相異名</desc>
			<v:textBlock v:margins="rect(0,0,0,0)" v:tabSpace="42.5197"/>
			<v:textRect cx="22.5" cy="57.5068" width="45" height="10.8"/>
			<rect x="0" y="52.1068" width="45" height="10.8" class="st1"/>
			<text x="0" y="60.62" class="st2" v:langID="1028"><v:paragraph/><v:tabList/>實相異名 </text>		</g>
		<g id="shape6-10" v:mID="6" v:groupContext="shape" transform="translate(52.9699,-34.0429) rotate(0.1)">
			<title>工作表.6</title>
			<desc>般若成佛已</desc>
			<v:textBlock v:margins="rect(0,0,0,0)" v:tabSpace="42.5197"/>
			<v:textRect cx="32.8887" cy="57.5068" width="65.78" height="10.8"/>
			<rect x="0" y="52.1068" width="65.7774" height="10.8" class="st1"/>
			<text x="-0" y="60.62" class="st2" v:langID="1028"><v:paragraph/><v:tabList/>般若成佛已</text>		</g>
		<g id="shape7-13" v:mID="7" v:groupContext="shape" transform="translate(133.403,-33.9008) rotate(0.1)">
			<title>工作表.7</title>
			<desc>名無上菩提</desc>
			<v:textBlock v:margins="rect(0,0,0,0)" v:tabSpace="42.5197"/>
			<v:textRect cx="26.4044" cy="57.5068" width="52.81" height="10.8"/>
			<rect x="0" y="52.1068" width="52.8088" height="10.8" class="st1"/>
			<text x="0" y="60.62" class="st2" v:langID="1028"><v:paragraph/><v:tabList/>名無上菩提</text>		</g>
		<g id="shape9-16" v:mID="9" v:groupContext="shape" transform="translate(52.9419,-17.5729) rotate(0.1)">
			<title>工作表.9</title>
			<desc>在小乘心</desc>
			<v:textBlock v:margins="rect(0,0,0,0)" v:tabSpace="42.5197"/>
			<v:textRect cx="25.8166" cy="57.5068" width="51.64" height="10.8"/>
			<rect x="0" y="52.1068" width="51.6332" height="10.8" class="st1"/>
			<text x="-0" y="60.62" class="st2" v:langID="1028"><v:paragraph/><v:tabList/>在小乘心</text>		</g>
		<g id="shape10-19" v:mID="10" v:groupContext="shape" transform="translate(133.375,-17.4315) rotate(0.1)">
			<title>工作表.10</title>
			<desc>名三十七道品三解脫門</desc>
			<v:textBlock v:margins="rect(0,0,0,0)" v:tabSpace="42.5197"/>
			<v:textRect cx="56.6787" cy="57.5068" width="113.36" height="10.8"/>
			<rect x="0" y="52.1068" width="113.357" height="10.8" class="st1"/>
			<text x="0" y="60.62" class="st2" v:langID="1028"><v:paragraph/><v:tabList/>名三十七道品，三解脫門</text>		</g>
		<g id="shape12-22" v:mID="12" v:groupContext="shape" transform="translate(52.9124,-1.05757) rotate(0.1)">
			<title>工作表.12</title>
			<desc>能聞而不忘</desc>
			<v:textBlock v:margins="rect(0,0,0,0)" v:tabSpace="42.5197"/>
			<v:textRect cx="28.6654" cy="57.5068" width="57.34" height="10.8"/>
			<rect x="0" y="52.1068" width="57.3309" height="10.8" class="st1"/>
			<text x="-0" y="60.62" class="st2" v:langID="1028"><v:paragraph/><v:tabList/>能聞而不忘</text>		</g>
		<g id="shape13-25" v:mID="13" v:groupContext="shape" transform="translate(133.345,-0.916198) rotate(0.1)">
			<title>工作表.13</title>
			<desc>名陀羅尼。</desc>
			<v:textBlock v:margins="rect(0,0,0,0)" v:tabSpace="42.5197"/>
			<v:textRect cx="26.9294" cy="57.5068" width="53.86" height="10.8"/>
			<rect x="0" y="52.1068" width="53.8588" height="10.8" class="st1"/>
			<text x="0" y="60.62" class="st2" v:langID="1028"><v:paragraph/><v:tabList/>名陀羅尼。</text>		</g>
		<g id="shape20-28" v:mID="20" v:groupContext="shape" transform="translate(106.274,1.92075) rotate(90.1)">
			<title>工作表.20</title>
			<path d="M0 56.16 C0 58 2.2 59.53 4.94 59.53 L18.83 59.53 C21.61 59.53 23.81 61.02 23.81 62.91 C23.81 61.02 26.01 59.53
						 28.75 59.53 L54.54 59.53 C57.32 59.53 59.53 58 59.53 56.16 L0 56.16 Z" class="st3"/>
			<path d="M0 56.16 C0 58 2.2 59.53 4.94 59.53 L18.83 59.53 C21.61 59.53 23.81 61.02 23.81 62.91 C23.81 61.02 26.01 59.53
						 28.75 59.53 L54.54 59.53 C57.32 59.53 59.53 58 59.53 56.16" class="st4"/>
		</g>
		<g id="shape21-31" v:mID="21" v:groupContext="shape" transform="translate(114.821,-56.8602)">
			<title>工作表.21</title>
			<path d="M0 62.91 L15.83 62.91" class="st4"/>
		</g>
		<g id="shape22-34" v:mID="22" v:groupContext="shape" transform="translate(105.459,-39.8523)">
			<title>工作表.22</title>
			<path d="M0 62.91 L25.19 62.91" class="st4"/>
		</g>
		<g id="shape23-37" v:mID="23" v:groupContext="shape" transform="translate(95.8208,-22.8445)">
			<title>工作表.23</title>
			<path d="M0 62.91 L34.83 62.91" class="st4"/>
		</g>
		<g id="shape24-40" v:mID="24" v:groupContext="shape" transform="translate(107.269,-5.87748) rotate(0.1)">
			<title>工作表.24</title>
			<path d="M0 62.91 L23.49 62.91" class="st4"/>
		</g>
	</g>
</svg>
