<?xml version="1.0" encoding="UTF-8" standalone="no"?>
<!DOCTYPE svg PUBLIC "-//W3C//DTD SVG 1.1//EN" "http://www.w3.org/Graphics/SVG/1.1/DTD/svg11.dtd">
<!-- 由 Microsoft Visio, SVG Export 產生 B03104.svg 頁-1 -->
<svg xmlns="http://www.w3.org/2000/svg" xmlns:xlink="http://www.w3.org/1999/xlink" xmlns:ev="http://www.w3.org/2001/xml-events"
		xmlns:v="http://schemas.microsoft.com/visio/2003/SVGExtensions/" width="6.50326in" height="0.589361in"
		viewBox="0 0 468.235 42.434" xml:space="preserve" color-interpolation-filters="sRGB" class="st5">
	<v:documentProperties v:langID="1028" v:viewMarkup="false"/>

	<style type="text/css">
	<![CDATA[
		.st1 {fill:none;stroke:none;stroke-linecap:butt;stroke-width:0.75}
		.st2 {fill:#000000;font-family:新細明體;font-size:0.833336em}
		.st3 {fill:none}
		.st4 {stroke:#000000;stroke-linecap:round;stroke-linejoin:round;stroke-width:0.5625}
		.st5 {fill:none;fill-rule:evenodd;font-size:12px;overflow:visible;stroke-linecap:square;stroke-miterlimit:3}
	]]>
	</style>

	<g v:mID="0" v:index="1" v:groupContext="foregroundPage">
		<title>頁-1</title>
		<v:pageProperties v:drawingScale="0.0393701" v:pageScale="0.0393701" v:drawingUnits="24" v:shadowOffsetX="9"
				v:shadowOffsetY="-9"/>
		<g id="shape3-1" v:mID="3" v:groupContext="shape" transform="translate(71.982,-30.8047) rotate(0.1)">
			<title>工作表.3</title>
			<desc>凡夫肉眼所見起惑造業往來生死</desc>
			<v:textBlock v:margins="rect(0,0,0,0)" v:tabSpace="42.5197"/>
			<v:textRect cx="86.3939" cy="37.034" width="172.79" height="10.8"/>
			<rect x="0" y="31.634" width="172.788" height="10.8" class="st1"/>
			<text x="0" y="40.15" class="st2" v:langID="1028"><v:paragraph/><v:tabList/>凡夫肉眼所見，起惑造業，往來生死</text>		</g>
		<g id="shape4-4" v:mID="4" v:groupContext="shape" transform="translate(266.336,-30.5112) rotate(0.1)">
			<title>工作表.4</title>
			<desc>凡夫。</desc>
			<v:textBlock v:margins="rect(0,0,0,0)" v:tabSpace="42.5197"/>
			<v:textRect cx="16.981" cy="37.034" width="33.97" height="10.8"/>
			<rect x="0" y="31.634" width="33.962" height="10.8" class="st1"/>
			<text x="-0" y="40.15" class="st2" v:langID="1028"><v:paragraph/><v:tabList/>凡夫。</text>		</g>
		<g id="shape5-7" v:mID="5" v:groupContext="shape" transform="translate(0.824061,-15.2873) rotate(0.1)">
			<title>工作表.5</title>
			<desc>三種十二因緣</desc>
			<v:textBlock v:margins="rect(0,0,0,0)" v:tabSpace="42.5197"/>
			<v:textRect cx="31.5" cy="37.034" width="63.01" height="10.8"/>
			<rect x="0" y="31.634" width="63" height="10.8" class="st1"/>
			<text x="0" y="40.15" class="st2" v:langID="1028"><v:paragraph/><v:tabList/>三種十二因緣 </text>		</g>
		<g id="shape6-10" v:mID="6" v:groupContext="shape" transform="translate(71.9518,-16.0338) rotate(0.1)">
			<title>工作表.6</title>
			<desc>賢聖法眼分別但求滅苦不究盡求苦相</desc>
			<v:textBlock v:margins="rect(0,0,0,0)" v:tabSpace="42.5197"/>
			<v:textRect cx="93.4961" cy="37.034" width="187" height="10.8"/>
			<rect x="0" y="31.634" width="186.992" height="10.8" class="st1"/>
			<text x="0" y="40.15" class="st2" v:langID="1028"><v:paragraph/><v:tabList/>賢聖法眼分別，但求滅苦，不究盡求苦相</text>		</g>
		<g id="shape7-13" v:mID="7" v:groupContext="shape" transform="translate(266.306,-16.0431) rotate(0.1)">
			<title>工作表.7</title>
			<desc>二乘未得法忍菩薩</desc>
			<v:textBlock v:margins="rect(0,0,0,0)" v:tabSpace="42.5197"/>
			<v:textRect cx="48.1745" cy="37.034" width="96.35" height="10.8"/>
			<rect x="0" y="31.634" width="96.3489" height="10.8" class="st1"/>
			<text x="0" y="40.15" class="st2" v:langID="1028"><v:paragraph/><v:tabList/>二乘，未得法忍菩薩</text>		</g>
		<g id="shape9-16" v:mID="9" v:groupContext="shape" transform="translate(71.9302,-1.07331) rotate(0.1)">
			<title>工作表.9</title>
			<desc>菩薩究盡十二因緣根本相如虛空</desc>
			<v:textBlock v:margins="rect(0,0,0,0)" v:tabSpace="42.5197"/>
			<v:textRect cx="79.3349" cy="37.034" width="158.67" height="10.8"/>
			<rect x="0" y="31.634" width="158.67" height="10.8" class="st1"/>
			<text x="-0" y="40.15" class="st2" v:langID="1028"><v:paragraph/><v:tabList/>菩薩究盡十二因緣根本相如虛空</text>		</g>
		<g id="shape10-19" v:mID="10" v:groupContext="shape" transform="translate(266.284,-1.37336) rotate(0.1)">
			<title>工作表.10</title>
			<desc>得忍菩薩乃至坐道場先雖能觀未能具足</desc>
			<v:textBlock v:margins="rect(0,0,0,0)" v:tabSpace="42.5197"/>
			<v:textRect cx="100.628" cy="37.034" width="201.26" height="10.8"/>
			<rect x="0" y="31.634" width="201.256" height="10.8" class="st1"/>
			<text x="-0" y="40.15" class="st2" v:langID="1028"><v:paragraph/><v:tabList/>得忍菩薩乃至坐道場（先雖能觀，未能具足）</text>		</g>
		<g id="shape19-22" v:mID="19" v:groupContext="shape" transform="translate(106.37,1.31918) rotate(90.1)">
			<title>工作表.19</title>
			<path d="M0 37.05 C0 38.52 1.51 39.74 3.34 39.74 L16.71 39.74 C18.58 39.74 20.05 40.93 20.05 42.43 C20.05 40.93 21.56
						 39.74 23.39 39.74 L36.75 39.74 C38.62 39.74 40.09 38.52 40.09 37.05 L0 37.05 Z" class="st3"/>
			<path d="M0 37.05 C0 38.52 1.51 39.74 3.34 39.74 L16.71 39.74 C18.58 39.74 20.05 40.93 20.05 42.43 C20.05 40.93 21.56
						 39.74 23.39 39.74 L36.75 39.74 C38.62 39.74 40.09 38.52 40.09 37.05" class="st4"/>
		</g>
		<g id="shape20-25" v:mID="20" v:groupContext="shape" transform="translate(234.71,-36.0357) rotate(0.1)">
			<title>工作表.20</title>
			<path d="M0 42.43 L30.58 42.43" class="st4"/>
		</g>
		<g id="shape21-28" v:mID="21" v:groupContext="shape" transform="translate(253.134,-21.2696) rotate(0.1)">
			<title>工作表.21</title>
			<path d="M0 42.43 L11.34 42.43" class="st4"/>
		</g>
		<g id="shape22-31" v:mID="22" v:groupContext="shape" transform="translate(214.794,-6.61834)">
			<title>工作表.22</title>
			<path d="M0 42.43 L49.61 42.43" class="st4"/>
		</g>
	</g>
</svg>
