<?xml version="1.0" encoding="UTF-8" standalone="no"?>
<!DOCTYPE svg PUBLIC "-//W3C//DTD SVG 1.1//EN" "http://www.w3.org/Graphics/SVG/1.1/DTD/svg11.dtd">
<!-- 由 Microsoft Visio, SVG Export 產生 B03106.svg 頁-1 -->
<svg xmlns="http://www.w3.org/2000/svg" xmlns:xlink="http://www.w3.org/1999/xlink" xmlns:ev="http://www.w3.org/2001/xml-events"
		xmlns:v="http://schemas.microsoft.com/visio/2003/SVGExtensions/" width="1.31591in" height="0.575499in"
		viewBox="0 0 94.7453 41.4359" xml:space="preserve" color-interpolation-filters="sRGB" class="st5">
	<v:documentProperties v:langID="1028" v:viewMarkup="false"/>

	<style type="text/css">
	<![CDATA[
		.st1 {fill:none;stroke:none;stroke-linecap:butt;stroke-width:0.75}
		.st2 {fill:#000000;font-family:新細明體;font-size:0.833336em}
		.st3 {fill:none}
		.st4 {stroke:#000000;stroke-linecap:round;stroke-linejoin:round;stroke-width:0.5625}
		.st5 {fill:none;fill-rule:evenodd;font-size:12px;overflow:visible;stroke-linecap:square;stroke-miterlimit:3}
	]]>
	</style>

	<g v:mID="0" v:index="1" v:groupContext="foregroundPage">
		<title>頁-1</title>
		<v:pageProperties v:drawingScale="0.0393701" v:pageScale="0.0393701" v:drawingUnits="24" v:shadowOffsetX="9"
				v:shadowOffsetY="-9"/>
		<g id="group1-1" transform="translate(0.75,-1.17608)" v:mID="1" v:groupContext="group">
			<title>工作表.1</title>
			<g id="shape2-2" v:mID="2" v:groupContext="shape" transform="translate(0.129215,-29.381) rotate(0.1)">
				<title>工作表.2</title>
				<v:textBlock v:margins="rect(0,0,0,0)"/>
				<rect x="0" y="31.971" width="63" height="9.46499" class="st1"/>
			</g>
			<g id="shape3-4" v:mID="3" v:groupContext="shape" transform="translate(49.7938,-29.2982) rotate(0.1)">
				<title>工作表.3</title>
				<desc>上、殺害</desc>
				<v:textBlock v:margins="rect(0,0,0,0)" v:tabSpace="42.5197"/>
				<v:textRect cx="21.7537" cy="36.7035" width="43.51" height="9.46499"/>
				<rect x="0" y="31.971" width="43.5074" height="9.46499" class="st1"/>
				<text x="0" y="39.82" class="st2" v:langID="1028"><v:paragraph/><v:tabList/>上、殺害</text>			</g>
			<g id="shape4-7" v:mID="4" v:groupContext="shape" transform="translate(0.100391,-14.9059) rotate(0.1)">
				<title>工作表.4</title>
				<desc>瞋有三品</desc>
				<v:textBlock v:margins="rect(0,0,0,0)" v:tabSpace="42.5197"/>
				<v:textRect cx="22.5" cy="36.7035" width="45" height="9.46499"/>
				<rect x="0" y="31.971" width="45" height="9.46499" class="st1"/>
				<text x="0" y="39.82" class="st2" v:langID="1028"><v:paragraph/><v:tabList/>瞋有三品 </text>			</g>
			<g id="shape5-10" v:mID="5" v:groupContext="shape" transform="translate(49.765,-14.8253) rotate(0.1)">
				<title>工作表.5</title>
				<desc>中、罵詈</desc>
				<v:textBlock v:margins="rect(0,0,0,0)" v:tabSpace="42.5197"/>
				<v:textRect cx="21.2718" cy="36.7035" width="42.55" height="9.46499"/>
				<rect x="0" y="31.971" width="42.5436" height="9.46499" class="st1"/>
				<text x="0" y="39.82" class="st2" v:langID="1028"><v:paragraph/><v:tabList/>中、罵詈</text>			</g>
			<g id="shape6-13" v:mID="6" v:groupContext="shape" transform="translate(0.0723193,-0.473109) rotate(0.1)">
				<title>工作表.6</title>
				<v:textBlock v:margins="rect(0,0,0,0)"/>
				<rect x="0" y="31.971" width="63" height="9.46499" class="st1"/>
			</g>
			<g id="shape7-15" v:mID="7" v:groupContext="shape" transform="translate(49.7369,-0.390286) rotate(0.1)">
				<title>工作表.7</title>
				<desc>下、心瞋</desc>
				<v:textBlock v:margins="rect(0,0,0,0)" v:tabSpace="42.5197"/>
				<v:textRect cx="21.2856" cy="36.7035" width="42.58" height="9.46499"/>
				<rect x="0" y="31.971" width="42.5712" height="9.46499" class="st1"/>
				<text x="0" y="39.82" class="st2" v:langID="1028"><v:paragraph/><v:tabList/>下、心瞋</text>			</g>
			<g id="shape8-18" v:mID="8" v:groupContext="shape" transform="translate(84.1957,3.00962) rotate(90.1)">
				<title>工作表.8</title>
				<path d="M0 36.17 C0 37.61 1.45 38.81 3.21 38.81 L16.04 38.81 C17.79 38.81 19.24 40 19.24 41.44 C19.24 40 20.7 38.81
							 22.45 38.81 L35.28 38.81 C37.04 38.81 38.49 37.61 38.49 36.17 L0 36.17 Z" class="st3"/>
				<path d="M0 36.17 C0 37.61 1.45 38.81 3.21 38.81 L16.04 38.81 C17.79 38.81 19.24 40 19.24 41.44 C19.24 40 20.7 38.81
							 22.45 38.81 L35.28 38.81 C37.04 38.81 38.49 37.61 38.49 36.17" class="st4"/>
			</g>
		</g>
	</g>
</svg>
