<?xml version="1.0" encoding="UTF-8" standalone="no"?>
<!DOCTYPE svg PUBLIC "-//W3C//DTD SVG 1.1//EN" "http://www.w3.org/Graphics/SVG/1.1/DTD/svg11.dtd">
<!-- 由 Microsoft Visio, SVG Export 產生 B03201.svg 頁-1 -->
<svg xmlns="http://www.w3.org/2000/svg" xmlns:xlink="http://www.w3.org/1999/xlink" xmlns:ev="http://www.w3.org/2001/xml-events"
		xmlns:v="http://schemas.microsoft.com/visio/2003/SVGExtensions/" width="4.78782in" height="0.634027in"
		viewBox="0 0 344.723 45.6499" xml:space="preserve" color-interpolation-filters="sRGB" class="st5">
	<v:documentProperties v:langID="1028" v:viewMarkup="false"/>

	<style type="text/css">
	<![CDATA[
		.st1 {fill:none;stroke:none;stroke-linecap:butt;stroke-width:0.75}
		.st2 {fill:#000000;font-family:新細明體;font-size:0.833336em}
		.st3 {fill:none}
		.st4 {stroke:#000000;stroke-linecap:round;stroke-linejoin:round;stroke-width:0.5625}
		.st5 {fill:none;fill-rule:evenodd;font-size:12px;overflow:visible;stroke-linecap:square;stroke-miterlimit:3}
	]]>
	</style>

	<g v:mID="0" v:index="1" v:groupContext="foregroundPage">
		<title>頁-1</title>
		<v:pageProperties v:drawingScale="0.0393701" v:pageScale="0.0393701" v:drawingUnits="24" v:shadowOffsetX="9"
				v:shadowOffsetY="-9"/>
		<g id="shape2-1" v:mID="2" v:groupContext="shape" transform="translate(240.798,-33.8659) rotate(0.1)">
			<title>工作表.2</title>
			<desc>攝律儀在家不具此</desc>
			<v:textBlock v:margins="rect(0,0,0,0)" v:tabSpace="42.5197"/>
			<v:textRect cx="51.618" cy="40.2499" width="103.24" height="10.8"/>
			<rect x="0" y="34.8499" width="103.236" height="10.8" class="st1"/>
			<text x="-0" y="43.36" class="st2" v:langID="1028"><v:paragraph/><v:tabList/>攝律儀（在家不具此）</text>		</g>
		<g id="shape6-4" v:mID="6" v:groupContext="shape" transform="translate(141.043,-34.0207) rotate(0.1)">
			<title>工作表.6</title>
			<desc>得無量戒律儀</desc>
			<v:textBlock v:margins="rect(0,0,0,0)" v:tabSpace="42.5197"/>
			<v:textRect cx="31.9037" cy="40.2499" width="63.81" height="10.8"/>
			<rect x="0" y="34.8499" width="63.8075" height="10.8" class="st1"/>
			<text x="0" y="43.36" class="st2" v:langID="1028"><v:paragraph/><v:tabList/>得無量戒律儀</text>		</g>
		<g id="shape7-7" v:mID="7" v:groupContext="shape" transform="translate(194.96,-33.968) rotate(0.1)">
			<title>工作表.7</title>
			<v:textBlock v:margins="rect(0,0,0,0)"/>
			<rect x="0" y="34.8499" width="83.25" height="10.8" class="st1"/>
		</g>
		<g id="shape8-9" v:mID="8" v:groupContext="shape" transform="translate(0.829674,-17.8286) rotate(0.1)">
			<title>工作表.8</title>
			<desc>出家人三種戒名尸羅波羅密</desc>
			<v:textBlock v:margins="rect(0,0,0,0)" v:tabSpace="42.5197"/>
			<v:textRect cx="68.8445" cy="40.2499" width="137.69" height="10.8"/>
			<rect x="0" y="34.8499" width="137.689" height="10.8" class="st1"/>
			<text x="0" y="43.36" class="st2" v:langID="1028"><v:paragraph/><v:tabList/>出家人三種戒，名尸羅波羅密 </text>		</g>
		<g id="shape9-12" v:mID="9" v:groupContext="shape" transform="translate(140.932,-17.5923) rotate(0.1)">
			<title>工作表.9</title>
			<desc>具足四十種善道</desc>
			<v:textBlock v:margins="rect(0,0,0,0)" v:tabSpace="42.5197"/>
			<v:textRect cx="41.3132" cy="40.2499" width="82.63" height="10.8"/>
			<rect x="0" y="34.8499" width="82.6263" height="10.8" class="st1"/>
			<text x="0" y="43.36" class="st2" v:langID="1028"><v:paragraph/><v:tabList/>具足四十種善道</text>		</g>
		<g id="shape10-15" v:mID="10" v:groupContext="shape" transform="translate(203.932,-17.4831) rotate(0.1)">
			<title>工作表.10</title>
			<v:textBlock v:margins="rect(0,0,0,0)"/>
			<rect x="0" y="34.8499" width="56.25" height="10.8" class="st1"/>
		</g>
		<g id="shape11-17" v:mID="11" v:groupContext="shape" transform="translate(240.77,-17.3967) rotate(0.1)">
			<title>工作表.11</title>
			<desc>攝善法</desc>
			<v:textBlock v:margins="rect(0,0,0,0)" v:tabSpace="42.5197"/>
			<v:textRect cx="19.0789" cy="40.2499" width="38.16" height="10.8"/>
			<rect x="0" y="34.8499" width="38.1577" height="10.8" class="st1"/>
			<text x="0" y="43.36" class="st2" v:langID="1028"><v:paragraph/><v:tabList/>攝善法</text>		</g>
		<g id="shape13-20" v:mID="13" v:groupContext="shape" transform="translate(140.902,-1.07767) rotate(0.1)">
			<title>工作表.13</title>
			<desc>深入實相過二乘地</desc>
			<v:textBlock v:margins="rect(0,0,0,0)" v:tabSpace="42.5197"/>
			<v:textRect cx="44.8704" cy="40.2499" width="89.75" height="10.8"/>
			<rect x="0" y="34.8499" width="89.7408" height="10.8" class="st1"/>
			<text x="0" y="43.36" class="st2" v:langID="1028"><v:paragraph/><v:tabList/>深入實相過二乘地</text>		</g>
		<g id="shape14-23" v:mID="14" v:groupContext="shape" transform="translate(212.902,-0.952003) rotate(0.1)">
			<title>工作表.14</title>
			<v:textBlock v:margins="rect(0,0,0,0)"/>
			<rect x="0" y="34.8499" width="58.5" height="10.8" class="st1"/>
		</g>
		<g id="shape15-25" v:mID="15" v:groupContext="shape" transform="translate(240.741,-0.881318) rotate(0.1)">
			<title>工作表.15</title>
			<desc>益有情</desc>
			<v:textBlock v:margins="rect(0,0,0,0)" v:tabSpace="42.5197"/>
			<v:textRect cx="17.6642" cy="40.2499" width="35.33" height="10.8"/>
			<rect x="0" y="34.8499" width="35.3285" height="10.8" class="st1"/>
			<text x="0" y="43.36" class="st2" v:langID="1028"><v:paragraph/><v:tabList/>益有情</text>		</g>
		<g id="shape22-28" v:mID="22" v:groupContext="shape" transform="translate(178.673,1.10054) rotate(90.1)">
			<title>工作表.22</title>
			<path d="M0 40.18 C0 41.68 1.66 42.92 3.66 42.92 L18.21 42.92 C20.21 42.92 21.83 44.12 21.83 45.65 C21.83 44.12 23.49
						 42.92 25.48 42.92 L40.04 42.92 C42.03 42.92 43.65 41.68 43.65 40.18 L0 40.18 Z" class="st3"/>
			<path d="M0 40.18 C0 41.68 1.66 42.92 3.66 42.92 L18.21 42.92 C20.21 42.92 21.83 44.12 21.83 45.65 C21.83 44.12 23.49
						 42.92 25.48 42.92 L40.04 42.92 C42.03 42.92 43.65 41.68 43.65 40.18" class="st4"/>
		</g>
		<g id="shape23-31" v:mID="23" v:groupContext="shape" transform="translate(223.488,-5.76016)">
			<title>工作表.23</title>
			<path d="M0 45.65 L14.17 45.65" class="st4"/>
		</g>
		<g id="shape24-34" v:mID="24" v:groupContext="shape" transform="translate(212.229,-22.6796) rotate(0.1)">
			<title>工作表.24</title>
			<path d="M0 45.65 L25.51 45.65" class="st4"/>
		</g>
		<g id="shape25-37" v:mID="25" v:groupContext="shape" transform="translate(203.646,-38.9911)">
			<title>工作表.25</title>
			<path d="M0 45.65 L34.02 45.65" class="st4"/>
		</g>
	</g>
</svg>
