<?xml version="1.0" encoding="UTF-8" standalone="no"?>
<!DOCTYPE svg PUBLIC "-//W3C//DTD SVG 1.1//EN" "http://www.w3.org/Graphics/SVG/1.1/DTD/svg11.dtd">
<!-- 由 Microsoft Visio, SVG Export 產生 B03202.svg 頁-1 -->
<svg xmlns="http://www.w3.org/2000/svg" xmlns:xlink="http://www.w3.org/1999/xlink" xmlns:ev="http://www.w3.org/2001/xml-events"
		xmlns:v="http://schemas.microsoft.com/visio/2003/SVGExtensions/" width="2.48377in" height="0.385894in"
		viewBox="0 0 178.831 27.7844" xml:space="preserve" color-interpolation-filters="sRGB" class="st5">
	<v:documentProperties v:langID="1028" v:viewMarkup="false"/>

	<style type="text/css">
	<![CDATA[
		.st1 {fill:none;stroke:none;stroke-linecap:butt;stroke-width:0.75}
		.st2 {fill:#000000;font-family:新細明體;font-size:0.833336em}
		.st3 {fill:none}
		.st4 {stroke:#000000;stroke-linecap:round;stroke-linejoin:round;stroke-width:0.5625}
		.st5 {fill:none;fill-rule:evenodd;font-size:12px;overflow:visible;stroke-linecap:square;stroke-miterlimit:3}
	]]>
	</style>

	<g v:mID="0" v:index="1" v:groupContext="foregroundPage">
		<title>頁-1</title>
		<v:pageProperties v:drawingScale="0.0393701" v:pageScale="0.0393701" v:drawingUnits="24" v:shadowOffsetX="9"
				v:shadowOffsetY="-9"/>
		<g id="shape2-1" v:mID="2" v:groupContext="shape" transform="translate(1.57796,-18.5487) rotate(0.1)">
			<title>工作表.2</title>
			<v:textBlock v:margins="rect(0,0,0,0)"/>
			<rect x="0" y="21.7145" width="63" height="6.06986" class="st1"/>
		</g>
		<g id="shape3-3" v:mID="3" v:groupContext="shape" transform="translate(51.2314,-18.5202) rotate(0.1)">
			<title>工作表.3</title>
			<desc>無相寂滅無戲論如涅槃</desc>
			<v:textBlock v:margins="rect(0,0,0,0)" v:tabSpace="42.5197"/>
			<v:textRect cx="63.444" cy="24.7494" width="126.89" height="6.06986"/>
			<rect x="0" y="21.7145" width="126.888" height="6.06986" class="st1"/>
			<text x="0" y="27.86" class="st2" v:langID="1028"><v:paragraph/><v:tabList/>無相寂滅，無戲論，如涅槃</text>		</g>
		<g id="shape4-6" v:mID="4" v:groupContext="shape" transform="translate(0.798493,-10.9546) rotate(0.1)">
			<title>工作表.4</title>
			<desc>無為有二</desc>
			<v:textBlock v:margins="rect(0,0,0,0)" v:tabSpace="42.5197"/>
			<v:textRect cx="22.5" cy="24.7494" width="45" height="6.06986"/>
			<rect x="0" y="21.7145" width="45" height="6.06986" class="st1"/>
			<text x="0" y="27.86" class="st2" v:langID="1028"><v:paragraph/><v:tabList/>無為有二 </text>		</g>
		<g id="shape5-9" v:mID="5" v:groupContext="shape" transform="translate(1.53084,-3.37985) rotate(0.1)">
			<title>工作表.5</title>
			<v:textBlock v:margins="rect(0,0,0,0)"/>
			<rect x="0" y="21.7145" width="78" height="6.06986" class="st1"/>
		</g>
		<g id="shape6-11" v:mID="6" v:groupContext="shape" transform="translate(51.1843,-3.33366) rotate(0.1)">
			<title>工作表.6</title>
			<desc>相待無因有而生</desc>
			<v:textBlock v:margins="rect(0,0,0,0)" v:tabSpace="42.5197"/>
			<v:textRect cx="47.8757" cy="24.7494" width="95.76" height="6.06986"/>
			<rect x="0" y="21.7145" width="95.7515" height="6.06986" class="st1"/>
			<text x="0" y="27.86" class="st2" v:langID="1028"><v:paragraph/><v:tabList/>相待無，因有而生</text>		</g>
		<g id="shape13-14" v:mID="13" v:groupContext="shape" transform="translate(71.4834,0.963463) rotate(90.1)">
			<title>工作表.13</title>
			<path d="M0 22.27 C0 23.78 0.96 25.03 2.13 25.03 L10.63 25.03 C11.82 25.03 12.76 26.24 12.76 27.78 C12.76 26.24 13.72
						 25.03 14.88 25.03 L23.39 25.03 C24.58 25.03 25.51 23.78 25.51 22.27 L0 22.27 Z" class="st3"/>
			<path d="M0 22.27 C0 23.78 0.96 25.03 2.13 25.03 L10.63 25.03 C11.82 25.03 12.76 26.24 12.76 27.78 C12.76 26.24 13.72
						 25.03 14.88 25.03 L23.39 25.03 C24.58 25.03 25.51 23.78 25.51 22.27" class="st4"/>
		</g>
	</g>
</svg>
