<?xml version="1.0" encoding="UTF-8" standalone="no"?>
<!DOCTYPE svg PUBLIC "-//W3C//DTD SVG 1.1//EN" "http://www.w3.org/Graphics/SVG/1.1/DTD/svg11.dtd">
<!-- 由 Microsoft Visio, SVG Export 產生 B03105.svg 頁-1 -->
<svg xmlns="http://www.w3.org/2000/svg" xmlns:xlink="http://www.w3.org/1999/xlink" xmlns:ev="http://www.w3.org/2001/xml-events"
		xmlns:v="http://schemas.microsoft.com/visio/2003/SVGExtensions/" width="4.69216in" height="0.376463in"
		viewBox="0 0 337.836 27.1054" xml:space="preserve" color-interpolation-filters="sRGB" class="st5">
	<v:documentProperties v:langID="1028" v:viewMarkup="false"/>

	<style type="text/css">
	<![CDATA[
		.st1 {fill:none;stroke:none;stroke-linecap:butt;stroke-width:0.75}
		.st2 {fill:#000000;font-family:新細明體;font-size:0.833336em}
		.st3 {fill:none}
		.st4 {stroke:#000000;stroke-linecap:round;stroke-linejoin:round;stroke-width:0.5625}
		.st5 {fill:none;fill-rule:evenodd;font-size:12px;overflow:visible;stroke-linecap:square;stroke-miterlimit:3}
	]]>
	</style>

	<g v:mID="0" v:index="1" v:groupContext="foregroundPage">
		<title>頁-1</title>
		<v:pageProperties v:drawingScale="0.0393701" v:pageScale="0.0393701" v:drawingUnits="24" v:shadowOffsetX="9"
				v:shadowOffsetY="-9"/>
		<g id="shape2-1" v:mID="2" v:groupContext="shape" transform="translate(41.4643,-18.5049) rotate(0.1)">
			<title>工作表.2</title>
			<desc>輭根</desc>
			<v:textBlock v:margins="rect(0,0,0,0)" v:tabSpace="42.5197"/>
			<v:textRect cx="18.5579" cy="24.7341" width="37.12" height="4.74253"/>
			<rect x="0" y="22.3628" width="37.1157" height="4.74253" class="st1"/>
			<text x="-0" y="27.85" class="st2" v:langID="1028"><v:paragraph/><v:tabList/>輭根</text>		</g>
		<g id="shape3-4" v:mID="3" v:groupContext="shape" transform="translate(85.9803,-18.3876) rotate(0.1)">
			<title>工作表.3</title>
			<desc>信多慧少</desc>
			<v:textBlock v:margins="rect(0,0,0,0)" v:tabSpace="42.5197"/>
			<v:textRect cx="27.4262" cy="24.7341" width="54.86" height="4.74253"/>
			<rect x="0" y="22.3628" width="54.8524" height="4.74253" class="st1"/>
			<text x="0" y="27.85" class="st2" v:langID="1028"><v:paragraph/><v:tabList/>信多慧少</text>		</g>
		<g id="shape4-7" v:mID="4" v:groupContext="shape" transform="translate(152.855,-18.4122) rotate(0.1)">
			<title>工作表.4</title>
			<desc>取相迴相</desc>
			<v:textBlock v:margins="rect(0,0,0,0)" v:tabSpace="42.5197"/>
			<v:textRect cx="22.5" cy="24.7341" width="45" height="4.74253"/>
			<rect x="0" y="22.3628" width="45" height="4.74253" class="st1"/>
			<text x="0" y="27.85" class="st2" v:langID="1028"><v:paragraph/><v:tabList/>取相迴相 </text>		</g>
		<g id="shape5-10" v:mID="5" v:groupContext="shape" transform="translate(0.797308,-11.3065) rotate(0.1)">
			<title>工作表.5</title>
			<desc>二種人</desc>
			<v:textBlock v:margins="rect(0,0,0,0)" v:tabSpace="42.5197"/>
			<v:textRect cx="18" cy="24.7341" width="36" height="4.74253"/>
			<rect x="0" y="22.3628" width="36" height="4.74253" class="st1"/>
			<text x="-0" y="27.85" class="st2" v:langID="1028"><v:paragraph/><v:tabList/>二種人 </text>		</g>
		<g id="shape7-13" v:mID="7" v:groupContext="shape" transform="translate(195.071,-11.1984) rotate(0.1)">
			<title>工作表.7</title>
			<desc>信慧力等能如薩婆若回向。</desc>
			<v:textBlock v:margins="rect(0,0,0,0)"/>
			<v:textRect cx="71.027" cy="24.7341" width="142.06" height="4.74253"/>
			<rect x="0" y="22.3628" width="142.054" height="4.74253" class="st1"/>
			<text x="8.5" y="27.85" class="st2" v:langID="1028"><v:paragraph/><v:tabList/>信慧力等，能如薩婆若回向。</text>		</g>
		<g id="shape8-16" v:mID="8" v:groupContext="shape" transform="translate(41.4067,-4.01548) rotate(0.1)">
			<title>工作表.8</title>
			<desc>利根</desc>
			<v:textBlock v:margins="rect(0,0,0,0)" v:tabSpace="42.5197"/>
			<v:textRect cx="13.6257" cy="24.7341" width="27.26" height="4.74253"/>
			<rect x="0" y="22.3628" width="27.2514" height="4.74253" class="st1"/>
			<text x="0" y="27.85" class="st2" v:langID="1028"><v:paragraph/><v:tabList/>利根</text>		</g>
		<g id="shape9-19" v:mID="9" v:groupContext="shape" transform="translate(85.96,-4.02738) rotate(0.1)">
			<title>工作表.9</title>
			<desc>慧多信少</desc>
			<v:textBlock v:margins="rect(0,0,0,0)" v:tabSpace="42.5197"/>
			<v:textRect cx="28.6355" cy="24.7341" width="57.28" height="4.74253"/>
			<rect x="0" y="22.3628" width="57.271" height="4.74253" class="st1"/>
			<text x="-0" y="27.85" class="st2" v:langID="1028"><v:paragraph/><v:tabList/>慧多信少</text>		</g>
		<g id="shape10-22" v:mID="10" v:groupContext="shape" transform="translate(152.797,-3.9276) rotate(0.1)">
			<title>工作表.10</title>
			<desc>戲論空法</desc>
			<v:textBlock v:margins="rect(0,0,0,0)" v:tabSpace="42.5197"/>
			<v:textRect cx="22.5" cy="24.7341" width="45" height="4.74253"/>
			<rect x="0" y="22.3628" width="45" height="4.74253" class="st1"/>
			<text x="0" y="27.85" class="st2" v:langID="1028"><v:paragraph/><v:tabList/>戲論空法 </text>		</g>
		<g id="shape19-25" v:mID="19" v:groupContext="shape" transform="translate(60.268,1.04927) rotate(90.1)">
			<title>工作表.19</title>
			<path d="M0 21.44 C0 23.02 0.93 24.27 2.13 24.27 L10.63 24.27 C11.79 24.27 12.76 25.56 12.76 27.11 C12.76 25.56 13.69
						 24.27 14.88 24.27 L23.39 24.27 C24.55 24.27 25.51 23.02 25.51 21.44 L0 21.44 Z" class="st3"/>
			<path d="M0 21.44 C0 23.02 0.93 24.27 2.13 24.27 L10.63 24.27 C11.79 24.27 12.76 25.56 12.76 27.11 C12.76 25.56 13.69
						 24.27 14.88 24.27 L23.39 24.27 C24.55 24.27 25.51 23.02 25.51 21.44" class="st4"/>
		</g>
		<g id="shape20-28" v:mID="20" v:groupContext="shape" transform="translate(222.059,1.04737) rotate(90.1)">
			<title>工作表.20</title>
			<path d="M0 27.11 C0 25.37 0.96 24 2.13 24 L10.63 24 C11.79 24 12.76 22.59 12.76 20.89 C12.76 22.59 13.72 24 14.88 24
						 L23.39 24 C24.55 24 25.51 25.37 25.51 27.11 L0 27.11 Z" class="st3"/>
			<path d="M0 27.11 C0 25.37 0.96 24 2.13 24 L10.63 24 C11.79 24 12.76 22.59 12.76 20.89 C12.76 22.59 13.72 24 14.88 24
						 L23.39 24 C24.55 24 25.51 25.37 25.51 27.11" class="st4"/>
		</g>
		<g id="shape21-31" v:mID="21" v:groupContext="shape" transform="translate(62.86,-20.947)">
			<title>工作表.21</title>
			<path d="M0 27.11 L20.24 27.11" class="st4"/>
		</g>
		<g id="shape22-34" v:mID="22" v:groupContext="shape" transform="translate(62.642,-6.39287)">
			<title>工作表.22</title>
			<path d="M0 27.11 L20.24 27.11" class="st4"/>
		</g>
		<g id="shape23-37" v:mID="23" v:groupContext="shape" transform="translate(129.147,-21.0427)">
			<title>工作表.23</title>
			<path d="M0 27.11 L20.24 27.11" class="st4"/>
		</g>
		<g id="shape24-40" v:mID="24" v:groupContext="shape" transform="translate(129.365,-6.20137)">
			<title>工作表.24</title>
			<path d="M0 27.11 L20.24 27.11" class="st4"/>
		</g>
	</g>
</svg>
