<?xml version="1.0" encoding="UTF-8" standalone="no"?>
<!DOCTYPE svg PUBLIC "-//W3C//DTD SVG 1.1//EN" "http://www.w3.org/Graphics/SVG/1.1/DTD/svg11.dtd">
<!-- 由 Microsoft Visio, SVG Export 產生 B03204.svg 頁-1 -->
<svg xmlns="http://www.w3.org/2000/svg" xmlns:xlink="http://www.w3.org/1999/xlink" xmlns:ev="http://www.w3.org/2001/xml-events"
		xmlns:v="http://schemas.microsoft.com/visio/2003/SVGExtensions/" width="3.42161in" height="0.388015in"
		viewBox="0 0 246.356 27.9371" xml:space="preserve" color-interpolation-filters="sRGB" class="st5">
	<v:documentProperties v:langID="1028" v:viewMarkup="false"/>

	<style type="text/css">
	<![CDATA[
		.st1 {fill:none;stroke:none;stroke-linecap:butt;stroke-width:0.75}
		.st2 {fill:#000000;font-family:新細明體;font-size:0.833336em}
		.st3 {fill:none}
		.st4 {stroke:#000000;stroke-linecap:round;stroke-linejoin:round;stroke-width:0.5625}
		.st5 {fill:none;fill-rule:evenodd;font-size:12px;overflow:visible;stroke-linecap:square;stroke-miterlimit:3}
	]]>
	</style>

	<g v:mID="0" v:index="1" v:groupContext="foregroundPage">
		<title>頁-1</title>
		<v:pageProperties v:drawingScale="0.0393701" v:pageScale="0.0393701" v:drawingUnits="24" v:shadowOffsetX="9"
				v:shadowOffsetY="-9"/>
		<g id="shape3-1" v:mID="3" v:groupContext="shape" transform="translate(51.6347,-18.6843) rotate(0.1)">
			<title>工作表.3</title>
			<desc>觀法實相於一切法不見法相不見非法相</desc>
			<v:textBlock v:margins="rect(0,0,0,0)" v:tabSpace="42.5197"/>
			<v:textRect cx="97.0049" cy="24.9135" width="194.01" height="6.04723"/>
			<rect x="0" y="21.8898" width="194.01" height="6.04723" class="st1"/>
			<text x="0" y="28.03" class="st2" v:langID="1028"><v:paragraph/><v:tabList/>觀法實相，於一切法不見法相，不見非法相</text>		</g>
		<g id="shape4-4" v:mID="4" v:groupContext="shape" transform="translate(0.798759,-11.2116) rotate(0.1)">
			<title>工作表.4</title>
			<desc>般若有二</desc>
			<v:textBlock v:margins="rect(0,0,0,0)" v:tabSpace="42.5197"/>
			<v:textRect cx="22.5" cy="24.9135" width="45" height="6.04723"/>
			<rect x="0" y="21.8898" width="45" height="6.04723" class="st1"/>
			<text x="0" y="28.03" class="st2" v:langID="1028"><v:paragraph/><v:tabList/>般若有二 </text>		</g>
		<g id="shape6-7" v:mID="6" v:groupContext="shape" transform="translate(51.6311,-3.27522) rotate(0.1)">
			<title>工作表.6</title>
			<desc>如所說行</desc>
			<v:textBlock v:margins="rect(0,0,0,0)" v:tabSpace="42.5197"/>
			<v:textRect cx="33.8043" cy="24.9135" width="67.61" height="6.04723"/>
			<rect x="0" y="21.8898" width="67.6086" height="6.04723" class="st1"/>
			<text x="-0" y="28.03" class="st2" v:langID="1028"><v:paragraph/><v:tabList/>如所說行</text>		</g>
		<g id="shape13-10" v:mID="13" v:groupContext="shape" transform="translate(70.992,1.05831) rotate(90.1)">
			<title>工作表.13</title>
			<path d="M0 22.27 C0 23.86 0.96 25.1 2.13 25.1 L10.63 25.1 C11.82 25.1 12.76 26.39 12.76 27.94 C12.76 26.39 13.72 25.1
						 14.88 25.1 L23.39 25.1 C24.58 25.1 25.51 23.86 25.51 22.27 L0 22.27 Z" class="st3"/>
			<path d="M0 22.27 C0 23.86 0.96 25.1 2.13 25.1 L10.63 25.1 C11.82 25.1 12.76 26.39 12.76 27.94 C12.76 26.39 13.72 25.1
						 14.88 25.1 L23.39 25.1 C24.58 25.1 25.51 23.86 25.51 22.27" class="st4"/>
		</g>
	</g>
</svg>
