<?xml version="1.0" encoding="UTF-8" standalone="no"?>
<!DOCTYPE svg PUBLIC "-//W3C//DTD SVG 1.1//EN" "http://www.w3.org/Graphics/SVG/1.1/DTD/svg11.dtd">
<!-- 由 Microsoft Visio, SVG Export 產生 B03203.svg 頁-1 -->
<svg xmlns="http://www.w3.org/2000/svg" xmlns:xlink="http://www.w3.org/1999/xlink" xmlns:ev="http://www.w3.org/2001/xml-events"
		xmlns:v="http://schemas.microsoft.com/visio/2003/SVGExtensions/" width="1.47099in" height="0.378882in"
		viewBox="0 0 105.911 27.2795" xml:space="preserve" color-interpolation-filters="sRGB" class="st5">
	<v:documentProperties v:langID="1028" v:viewMarkup="false"/>

	<style type="text/css">
	<![CDATA[
		.st1 {fill:none;stroke:none;stroke-linecap:butt;stroke-width:0.75}
		.st2 {fill:#000000;font-family:新細明體;font-size:0.833336em}
		.st3 {fill:none}
		.st4 {stroke:#000000;stroke-linecap:round;stroke-linejoin:round;stroke-width:0.5625}
		.st5 {fill:none;fill-rule:evenodd;font-size:12px;overflow:visible;stroke-linecap:square;stroke-miterlimit:3}
	]]>
	</style>

	<g v:mID="0" v:index="1" v:groupContext="foregroundPage">
		<title>頁-1</title>
		<v:pageProperties v:drawingScale="0.0393701" v:pageScale="0.0393701" v:drawingUnits="24" v:shadowOffsetX="9"
				v:shadowOffsetY="-9"/>
		<g id="shape2-1" v:mID="2" v:groupContext="shape" transform="translate(0.844737,-18.0913) rotate(0.1)">
			<title>工作表.2</title>
			<v:textBlock v:margins="rect(0,0,0,0)"/>
			<rect x="0" y="21.234" width="78" height="6.04548" class="st1"/>
		</g>
		<g id="shape3-3" v:mID="3" v:groupContext="shape" transform="translate(51.8728,-18.0276) rotate(0.1)">
			<title>工作表.3</title>
			<desc>不惱眾生</desc>
			<v:textBlock v:margins="rect(0,0,0,0)" v:tabSpace="42.5197"/>
			<v:textRect cx="25.2444" cy="24.2568" width="50.49" height="6.04548"/>
			<rect x="0" y="21.234" width="50.4887" height="6.04548" class="st1"/>
			<text x="0" y="27.37" class="st2" v:langID="1028"><v:paragraph/><v:tabList/>不惱眾生</text>		</g>
		<g id="shape4-6" v:mID="4" v:groupContext="shape" transform="translate(0.821174,-10.5214) rotate(0.1)">
			<title>工作表.4</title>
			<desc>持戒二種</desc>
			<v:textBlock v:margins="rect(0,0,0,0)" v:tabSpace="42.5197"/>
			<v:textRect cx="22.5" cy="24.2568" width="45" height="6.04548"/>
			<rect x="0" y="21.234" width="45" height="6.04548" class="st1"/>
			<text x="0" y="27.37" class="st2" v:langID="1028"><v:paragraph/><v:tabList/>持戒二種 </text>		</g>
		<g id="shape5-9" v:mID="5" v:groupContext="shape" transform="translate(0.797612,-2.97727) rotate(0.1)">
			<title>工作表.5</title>
			<v:textBlock v:margins="rect(0,0,0,0)"/>
			<rect x="0" y="21.234" width="78" height="6.04548" class="st1"/>
		</g>
		<g id="shape6-11" v:mID="6" v:groupContext="shape" transform="translate(51.8257,-3.293) rotate(0.1)">
			<title>工作表.6</title>
			<desc>為生禪定</desc>
			<v:textBlock v:margins="rect(0,0,0,0)" v:tabSpace="42.5197"/>
			<v:textRect cx="26.6864" cy="24.2568" width="53.38" height="6.04548"/>
			<rect x="0" y="21.234" width="53.3728" height="6.04548" class="st1"/>
			<text x="0" y="27.37" class="st2" v:langID="1028"><v:paragraph/><v:tabList/>為生禪定</text>		</g>
		<g id="shape13-14" v:mID="13" v:groupContext="shape" transform="translate(70.2306,2.07519) rotate(90.1)">
			<title>工作表.13</title>
			<path d="M0 21.06 C0 22.8 0.86 24.17 1.89 24.17 L9.45 24.17 C10.5 24.17 11.34 25.58 11.34 27.28 C11.34 25.58 12.19 24.17
						 13.22 24.17 L20.78 24.17 C21.84 24.17 22.67 22.8 22.67 21.06 L0 21.06 Z" class="st3"/>
			<path d="M0 21.06 C0 22.8 0.86 24.17 1.89 24.17 L9.45 24.17 C10.5 24.17 11.34 25.58 11.34 27.28 C11.34 25.58 12.19 24.17
						 13.22 24.17 L20.78 24.17 C21.84 24.17 22.67 22.8 22.67 21.06" class="st4"/>
		</g>
	</g>
</svg>
