<?xml version="1.0" encoding="UTF-8" standalone="no"?>
<!DOCTYPE svg PUBLIC "-//W3C//DTD SVG 1.1//EN" "http://www.w3.org/Graphics/SVG/1.1/DTD/svg11.dtd">
<!-- 由 Microsoft Visio, SVG Export 產生 M090.p2643.svg 頁-1 -->
<svg xmlns="http://www.w3.org/2000/svg" xmlns:xlink="http://www.w3.org/1999/xlink" xmlns:ev="http://www.w3.org/2001/xml-events"
		xmlns:v="http://schemas.microsoft.com/visio/2003/SVGExtensions/" width="4.81357in" height="4.33946in"
		viewBox="0 0 346.577 312.441" xml:space="preserve" color-interpolation-filters="sRGB" class="st6">
	<v:documentProperties v:langID="1028" v:metric="true" v:viewMarkup="false"/>

	<style type="text/css">
	<![CDATA[
		.st1 {fill:none;stroke:none;stroke-linecap:round;stroke-linejoin:round;stroke-width:0.75}
		.st2 {fill:#000000;font-family:新細明體;font-size:1.00001em}
		.st3 {font-size:1em}
		.st4 {stroke:#000000;stroke-linecap:round;stroke-linejoin:round;stroke-width:0.75}
		.st5 {stroke:#000000;stroke-dasharray:0.75,1.5;stroke-linecap:round;stroke-linejoin:round;stroke-width:0.75}
		.st6 {fill:none;fill-rule:evenodd;font-size:12px;overflow:visible;stroke-linecap:square;stroke-miterlimit:3}
	]]>
	</style>

	<g v:mID="0" v:index="1" v:groupContext="foregroundPage">
		<title>頁-1</title>
		<v:pageProperties v:drawingScale="0.0393701" v:pageScale="0.0393701" v:drawingUnits="24" v:shadowOffsetX="8.50394"
				v:shadowOffsetY="-8.50394"/>
		<g id="group58-1" transform="translate(0.375,-14.4882)" v:mID="58" v:groupContext="group">
			<title>工作表.58</title>
			<g id="shape2-2" v:mID="2" v:groupContext="shape" transform="translate(0,-30.4724)">
				<title>工作表.2</title>
				<desc>老死 　　　　苦果　　　未來世之二果 生 有　　　業因 取 　　　　惑緣 愛 受 觸 六處　　苦果　　　現在世之五果 名色...</desc>
				<v:textBlock v:margins="rect(4,4,4,4)" v:tabSpace="42.5197" v:verticalAlign="0" v:verticalText="true"/>
				<v:textRect cx="172.913" cy="204.016" width="345.83" height="216.85"/>
				<rect x="0" y="95.5906" width="345.827" height="216.85" class="st1"/>
				<text x="334.63" y="99.59" writing-mode="tb-rl" class="st2" v:langID="1028"><v:paragraph/><v:tabList/>老死<v:newlineChar/><tspan
							dx="-1.2em" y="8.299em 9.299em 10.299em 11.299em" class="st3">　　　　</tspan><tspan class="st3"
							v:langID="1033">苦</tspan><tspan class="st3" v:langID="1033">（</tspan><tspan class="st3" v:langID="1033">果</tspan><tspan
							class="st3" v:langID="1033">）</tspan>　　　<tspan class="st3" v:langID="1033">未來世之二果<v:newlineChar/></tspan><tspan
							dx="-1.2em" y="8.299em" class="st3">生<v:newlineChar/><v:newlineChar/></tspan><tspan dx="-2.4em" y="8.299em"
							class="st3">有</tspan>　　　<tspan class="st3" v:langID="1033">業</tspan><tspan class="st3" v:langID="1033">（</tspan><tspan
							class="st3" v:langID="1033">因</tspan><tspan class="st3" v:langID="1033">）<v:newlineChar/><v:newlineChar/></tspan><tspan
							dx="-2.4em" y="8.299em" class="st3">取<v:newlineChar/><v:newlineChar/><v:newlineChar/></tspan><tspan
							dx="-1.2em" y="8.299em 9.299em 10.299em 11.299em" class="st3">　　　　</tspan><tspan class="st3"
							v:langID="1033">惑</tspan><tspan class="st3" v:langID="1033">（</tspan><tspan class="st3" v:langID="1033">緣</tspan><tspan
							class="st3" v:langID="1033">）<v:newlineChar/></tspan><tspan dx="-1.2em" y="8.299em" class="st3">愛<v:newlineChar/><v:newlineChar/></tspan><tspan
							dx="-2.4em" y="8.299em" class="st3">受<v:newlineChar/><v:newlineChar/></tspan><tspan dx="-2.4em" y="8.299em"
							class="st3">觸<v:newlineChar/><v:newlineChar/></tspan><tspan dx="-2.4em" y="8.299em 9.299em" class="st3">六處</tspan>　　<tspan
							class="st3" v:langID="1033">苦</tspan><tspan class="st3" v:langID="1033">（</tspan><tspan class="st3"
							v:langID="1033">果</tspan><tspan class="st3" v:langID="1033">）</tspan>　　　<tspan class="st3"
							v:langID="1033">現在世之五果<v:newlineChar/><v:newlineChar/></tspan><tspan dx="-2.4em" y="8.299em 9.299em"
							class="st3">名色<v:newlineChar/><v:newlineChar/></tspan><tspan dx="-2.4em" y="8.299em" class="st3">識<v:newlineChar/><v:newlineChar/></tspan><tspan
							dx="-2.4em" y="8.299em" class="st3">行</tspan>　　　業（因）<v:newlineChar/><v:newlineChar/>　　　<v:newlineChar/><tspan
							dx="-1.2em" y="8.299em 9.299em 10.299em 11.299em 12.299em 13.299em 14.299em 15.299em 16.299em 17.299em
								 18.299em" class="st3">　　　　　　　　　　　</tspan><tspan class="st3" v:langID="1033">過去世之二因<v:newlineChar/></tspan><tspan
							dx="-1.2em" y="8.299em 9.299em" class="st3">無明</tspan>　　惑（緣）</text>			</g>
			<g id="shape32-38" v:mID="32" v:groupContext="shape" transform="translate(252.146,-223.937) scale(-1,1)">
				<title>側邊括弧.32</title>
				<v:userDefs>
					<v:ud v:nameU="TxtW" v:val="VT0(0.55555555555556):29"/>
					<v:ud v:nameU="TxtA" v:val="VT0(1.5707963267949):37"/>
					<v:ud v:nameU="TxtAState" v:val="VT0(0):26"/>
					<v:ud v:nameU="TxtWState" v:val="VT0(0):26"/>
					<v:ud v:nameU="MaxRadius" v:val="VT0(0.19685039370079):24"/>
					<v:ud v:nameU="PosCH1" v:prompt="Constrains X postion of Control Handle #1" v:val="VT0(0):26"/>
					<v:ud v:nameU="PosCH2" v:prompt="Constrains Y postion of Control Handle #2" v:val="VT0(0):26"/>
					<v:ud v:nameU="Scale" v:val="VT0(1):26"/>
					<v:ud v:nameU="AntiScale" v:val="VT0(1):26"/>
					<v:ud v:nameU="visVersion" v:val="VT0(15):26"/>
					<v:ud v:nameU="TxtA" v:prompt="" v:val="VT0(-1.5707963267949):32"/>
					<v:ud v:nameU="MaxRadius" v:prompt="" v:val="VT0(0.078740157712604):1"/>
				</v:userDefs>
				<path d="M0 306.77 L0 308.19 A4.2519 4.2519 -180 0 0 4.25 312.44 L9.92 312.44 A4.2519 4.2519 0 0 1 14.17 316.69 A4.2519
							 4.2519 0 0 1 18.43 312.44 L24.09 312.44 A4.2519 4.2519 -180 0 0 28.35 308.19 L28.35 306.77"
						class="st4"/>
			</g>
			<g id="shape33-41" v:mID="33" v:groupContext="shape" transform="translate(338.603,-212.598) scale(-1,1)">
				<title>側邊括弧.33</title>
				<v:userDefs>
					<v:ud v:nameU="TxtW" v:val="VT0(0.55555555555556):29"/>
					<v:ud v:nameU="TxtA" v:val="VT0(1.5707963267949):37"/>
					<v:ud v:nameU="TxtAState" v:val="VT0(0):26"/>
					<v:ud v:nameU="TxtWState" v:val="VT0(0):26"/>
					<v:ud v:nameU="MaxRadius" v:val="VT0(0.19685039370079):24"/>
					<v:ud v:nameU="PosCH1" v:prompt="Constrains X postion of Control Handle #1" v:val="VT0(0):26"/>
					<v:ud v:nameU="PosCH2" v:prompt="Constrains Y postion of Control Handle #2" v:val="VT0(0):26"/>
					<v:ud v:nameU="Scale" v:val="VT0(1):26"/>
					<v:ud v:nameU="AntiScale" v:val="VT0(1):26"/>
					<v:ud v:nameU="visVersion" v:val="VT0(15):26"/>
					<v:ud v:nameU="TxtA" v:prompt="" v:val="VT0(-1.5707963267949):32"/>
					<v:ud v:nameU="MaxRadius" v:prompt="" v:val="VT0(0.078740157712604):1"/>
				</v:userDefs>
				<path d="M0 306.77 L0 308.19 A4.2519 4.2519 -180 0 0 4.25 312.44 L9.92 312.44 A4.2519 4.2519 0 0 1 14.17 316.69 A4.2519
							 4.2519 0 0 1 18.43 312.44 L24.09 312.44 A4.2519 4.2519 -180 0 0 28.35 308.19 L28.35 306.77"
						class="st4"/>
			</g>
			<g id="shape36-44" v:mID="36" v:groupContext="shape" transform="translate(194.745,-212.598) scale(-1,1)">
				<title>側邊括弧.36</title>
				<v:userDefs>
					<v:ud v:nameU="TxtW" v:val="VT0(0.55555555555556):29"/>
					<v:ud v:nameU="TxtA" v:val="VT0(1.5707963267949):37"/>
					<v:ud v:nameU="TxtAState" v:val="VT0(0):26"/>
					<v:ud v:nameU="TxtWState" v:val="VT0(0):26"/>
					<v:ud v:nameU="MaxRadius" v:val="VT0(0.19685039370079):24"/>
					<v:ud v:nameU="PosCH1" v:prompt="Constrains X postion of Control Handle #1" v:val="VT0(0):26"/>
					<v:ud v:nameU="PosCH2" v:prompt="Constrains Y postion of Control Handle #2" v:val="VT0(0):26"/>
					<v:ud v:nameU="Scale" v:val="VT0(1):26"/>
					<v:ud v:nameU="AntiScale" v:val="VT0(1):26"/>
					<v:ud v:nameU="visVersion" v:val="VT0(15):26"/>
					<v:ud v:nameU="TxtA" v:prompt="" v:val="VT0(-1.5707963267949):32"/>
					<v:ud v:nameU="MaxRadius" v:prompt="" v:val="VT0(0.078740157712604):1"/>
				</v:userDefs>
				<path d="M0 306.77 L0 308.19 A4.2519 4.2519 -180 0 0 4.25 312.44 L53.15 312.44 A4.2519 4.2519 0 0 1 57.4 316.69 A4.2519
							 4.2519 0 0 1 61.65 312.44 L110.55 312.44 A4.2519 4.2519 -180 0 0 114.8 308.19 L114.8 306.77"
						class="st4"/>
			</g>
			<g id="shape37-47" v:mID="37" v:groupContext="shape" transform="translate(50.8865,-140.315) scale(-1,1)">
				<title>側邊括弧.37</title>
				<v:userDefs>
					<v:ud v:nameU="TxtW" v:val="VT0(0.55555555555556):29"/>
					<v:ud v:nameU="TxtA" v:val="VT0(1.5707963267949):37"/>
					<v:ud v:nameU="TxtAState" v:val="VT0(0):26"/>
					<v:ud v:nameU="TxtWState" v:val="VT0(0):26"/>
					<v:ud v:nameU="MaxRadius" v:val="VT0(0.19685039370079):24"/>
					<v:ud v:nameU="PosCH1" v:prompt="Constrains X postion of Control Handle #1" v:val="VT0(0):26"/>
					<v:ud v:nameU="PosCH2" v:prompt="Constrains Y postion of Control Handle #2" v:val="VT0(0):26"/>
					<v:ud v:nameU="Scale" v:val="VT0(1):26"/>
					<v:ud v:nameU="AntiScale" v:val="VT0(1):26"/>
					<v:ud v:nameU="visVersion" v:val="VT0(15):26"/>
					<v:ud v:nameU="TxtA" v:prompt="" v:val="VT0(-1.5707963267949):32"/>
					<v:ud v:nameU="MaxRadius" v:prompt="" v:val="VT0(0.078740157712604):1"/>
				</v:userDefs>
				<path d="M0 306.77 L0 308.19 A4.2519 4.2519 -180 0 0 4.25 312.44 L9.92 312.44 A4.2519 4.2519 0 0 1 14.17 316.69 A4.2519
							 4.2519 0 0 1 18.43 312.44 L24.09 312.44 A4.2519 4.2519 -180 0 0 28.35 308.19 L28.35 306.77"
						class="st4"/>
			</g>
			<g id="shape38-50" v:mID="38" v:groupContext="shape" transform="translate(325.847,-31.1811) scale(-1,1)">
				<title>側邊括弧.38</title>
				<v:userDefs>
					<v:ud v:nameU="TxtW" v:val="VT0(0.55555555555556):29"/>
					<v:ud v:nameU="TxtA" v:val="VT0(1.5707963267949):37"/>
					<v:ud v:nameU="TxtAState" v:val="VT0(0):26"/>
					<v:ud v:nameU="TxtWState" v:val="VT0(0):26"/>
					<v:ud v:nameU="MaxRadius" v:val="VT0(0.19685039370079):24"/>
					<v:ud v:nameU="PosCH1" v:prompt="Constrains X postion of Control Handle #1" v:val="VT0(0):26"/>
					<v:ud v:nameU="PosCH2" v:prompt="Constrains Y postion of Control Handle #2" v:val="VT0(0):26"/>
					<v:ud v:nameU="Scale" v:val="VT0(1):26"/>
					<v:ud v:nameU="AntiScale" v:val="VT0(1):26"/>
					<v:ud v:nameU="visVersion" v:val="VT0(15):26"/>
					<v:ud v:nameU="TxtA" v:prompt="" v:val="VT0(-1.5707963267949):32"/>
					<v:ud v:nameU="MaxRadius" v:prompt="" v:val="VT0(0.078740157712604):1"/>
				</v:userDefs>
				<path d="M0 306.77 A5.6692 5.6692 -180 0 0 5.67 312.44 L139.25 312.44 A5.6692 5.6692 0 0 1 144.92 318.11 A5.6692
							 5.6692 0 0 1 150.59 312.44 L284.17 312.44 A5.6692 5.6692 -180 0 0 289.84 306.77" class="st4"/>
			</g>
			<g id="shape39-53" v:mID="39" v:groupContext="shape" transform="translate(238.11,-34.0157)">
				<title>工作表.39</title>
				<desc>現在世之三因</desc>
				<v:textBlock v:margins="rect(4,4,4,4)" v:tabSpace="42.5197" v:verticalAlign="0" v:verticalText="true"/>
				<v:textRect cx="14.1732" cy="272.012" width="28.35" height="80.8583"/>
				<rect x="0" y="231.583" width="28.3465" height="80.8583" class="st1"/>
				<text x="17.15" y="235.58" writing-mode="tb-rl" class="st2" v:langID="1033"><v:paragraph/><v:tabList/>現在世之三因</text>			</g>
			<g id="shape41-56" v:mID="41" v:groupContext="shape" transform="translate(281.06,-139.793) scale(-1,1)">
				<title>側邊括弧.41</title>
				<v:userDefs>
					<v:ud v:nameU="TxtW" v:val="VT0(0.55555555555556):29"/>
					<v:ud v:nameU="TxtA" v:val="VT0(1.5707963267949):37"/>
					<v:ud v:nameU="TxtAState" v:val="VT0(0):26"/>
					<v:ud v:nameU="TxtWState" v:val="VT0(0):26"/>
					<v:ud v:nameU="MaxRadius" v:val="VT0(0.19685039370079):24"/>
					<v:ud v:nameU="PosCH1" v:prompt="Constrains X postion of Control Handle #1" v:val="VT0(0):26"/>
					<v:ud v:nameU="PosCH2" v:prompt="Constrains Y postion of Control Handle #2" v:val="VT0(0):26"/>
					<v:ud v:nameU="Scale" v:val="VT0(1):26"/>
					<v:ud v:nameU="AntiScale" v:val="VT0(1):26"/>
					<v:ud v:nameU="visVersion" v:val="VT0(15):26"/>
					<v:ud v:nameU="TxtA" v:prompt="" v:val="VT0(-1.5707963267949):32"/>
					<v:ud v:nameU="MaxRadius" v:prompt="" v:val="VT0(0.078740157712604):1"/>
				</v:userDefs>
				<path d="M0 306.77 L0 308.19 A4.2519 4.2519 -180 0 0 4.25 312.44 L17.5 312.44 A4.2519 4.2519 0 0 1 21.76 316.69 A4.2519
							 4.2519 0 0 1 26.01 312.44 L39.26 312.44 A4.2519 4.2519 -180 0 0 43.51 308.19 L43.51 306.77"
						class="st4"/>
			</g>
			<g id="shape42-59" v:mID="42" v:groupContext="shape" transform="translate(117.501,0)">
				<title>工作表.42</title>
				<desc>三世二重之因果</desc>
				<v:textBlock v:margins="rect(4,4,4,4)" v:tabSpace="42.5197"/>
				<v:textRect cx="63.7795" cy="298.268" width="127.56" height="28.3465"/>
				<rect x="0" y="284.095" width="127.559" height="28.3465" class="st1"/>
				<text x="21.78" y="302.01" class="st2" v:langID="1033"><v:paragraph v:horizAlign="1" v:bulletSize="0.166667"/><v:tabList/>三世二重之因果</text>			</g>
			<g id="shape44-62" v:mID="44" v:groupContext="shape" transform="translate(21.803,372.598) scale(1,-1)">
				<title>側邊括弧.44</title>
				<v:userDefs>
					<v:ud v:nameU="TxtW" v:val="VT0(0.55555555555556):29"/>
					<v:ud v:nameU="TxtA" v:val="VT0(1.5707963267949):37"/>
					<v:ud v:nameU="TxtAState" v:val="VT0(0):26"/>
					<v:ud v:nameU="TxtWState" v:val="VT0(0):26"/>
					<v:ud v:nameU="MaxRadius" v:val="VT0(0.19685039370079):24"/>
					<v:ud v:nameU="PosCH1" v:prompt="Constrains X postion of Control Handle #1" v:val="VT0(0):26"/>
					<v:ud v:nameU="PosCH2" v:prompt="Constrains Y postion of Control Handle #2" v:val="VT0(0):26"/>
					<v:ud v:nameU="Scale" v:val="VT0(1):26"/>
					<v:ud v:nameU="AntiScale" v:val="VT0(1):26"/>
					<v:ud v:nameU="visVersion" v:val="VT0(15):26"/>
					<v:ud v:nameU="TxtA" v:prompt="" v:val="VT0(-1.5707963267949):32"/>
					<v:ud v:nameU="MaxRadius" v:prompt="" v:val="VT0(0.078740157712604):1"/>
				</v:userDefs>
				<path d="M0 306.77 A5.6692 5.6692 -180 0 0 5.67 312.44 L152.73 312.44 A5.6692 5.6692 0 0 1 158.4 318.11 A5.6692 5.6692
							 0 0 1 164.07 312.44 L311.13 312.44 A5.6692 5.6692 -180 0 0 316.8 306.77" class="st4"/>
			</g>
			<g id="shape45-65" v:mID="45" v:groupContext="shape" transform="translate(101.91,-255.118)">
				<title>工作表.45</title>
				<desc>十二緣起三世兩重因果</desc>
				<v:textBlock v:margins="rect(4,4,4,4)" v:tabSpace="42.5197"/>
				<v:textRect cx="77.9528" cy="298.268" width="155.91" height="28.3465"/>
				<rect x="0" y="284.095" width="155.906" height="28.3465" class="st1"/>
				<text x="5.95" y="302.01" class="st2" v:langID="1033"><v:paragraph v:horizAlign="1" v:bulletSize="0.166667"/><v:tabList/>十二緣起（三世兩重因果）</text>			</g>
			<g id="shape46-68" v:mID="46" v:groupContext="shape" transform="translate(571.825,181.055) rotate(90)">
				<title>工作表.46</title>
				<path d="M0 312.44 L19.84 312.44" class="st5"/>
			</g>
			<g id="shape47-71" v:mID="47" v:groupContext="shape" transform="translate(636.564,164.047) rotate(90)">
				<title>工作表.47</title>
				<path d="M0 312.44 L34.02 312.44" class="st5"/>
			</g>
			<g id="shape48-74" v:mID="48" v:groupContext="shape" transform="translate(449.478,162.493) rotate(90)">
				<title>工作表.48</title>
				<path d="M0 312.44 L37.03 312.44" class="st5"/>
			</g>
			<g id="shape50-77" v:mID="50" v:groupContext="shape" transform="translate(550.382,94.5984) rotate(90)">
				<title>工作表.50</title>
				<path d="M0 312.44 L21.26 312.44" class="st5"/>
			</g>
			<g id="shape51-80" v:mID="51" v:groupContext="shape" transform="translate(593.588,83.1684) rotate(90)">
				<title>工作表.51</title>
				<path d="M0 312.44 L32.69 312.44" class="st5"/>
			</g>
			<g id="shape52-83" v:mID="52" v:groupContext="shape" transform="translate(636.771,107.354) rotate(90)">
				<title>工作表.52</title>
				<path d="M0 312.44 L8.5 312.44" class="st5"/>
			</g>
			<g id="shape53-86" v:mID="53" v:groupContext="shape" transform="translate(449.935,104.52) rotate(90)">
				<title>工作表.53</title>
				<path d="M0 312.44 L12.12 312.44" class="st5"/>
			</g>
			<g id="shape54-89" v:mID="54" v:groupContext="shape" transform="translate(363.295,81.8425) rotate(90)">
				<title>工作表.54</title>
				<path d="M0 312.44 L34.02 312.44" class="st5"/>
			</g>
			<g id="shape55-92" v:mID="55" v:groupContext="shape" transform="translate(334.492,93.1811) rotate(90)">
				<title>工作表.55</title>
				<path d="M0 312.44 L22.68 312.44" class="st5"/>
			</g>
			<g id="shape56-95" v:mID="56" v:groupContext="shape" transform="translate(349.154,176.378) rotate(90)">
				<title>工作表.56</title>
				<path d="M0 312.44 L22.68 312.44" class="st5"/>
			</g>
		</g>
	</g>
</svg>
